<?xml version="1.0" encoding="utf-8" standalone="no"?>
<!DOCTYPE svg PUBLIC "-//W3C//DTD SVG 1.1//EN"
  "http://www.w3.org/Graphics/SVG/1.1/DTD/svg11.dtd">
<svg xmlns:xlink="http://www.w3.org/1999/xlink" width="720pt" height="648pt" viewBox="0 0 720 648" xmlns="http://www.w3.org/2000/svg" version="1.1">
 <metadata>
  <rdf:RDF xmlns:dc="http://purl.org/dc/elements/1.1/" xmlns:cc="http://creativecommons.org/ns#" xmlns:rdf="http://www.w3.org/1999/02/22-rdf-syntax-ns#">
   <cc:Work>
    <dc:type rdf:resource="http://purl.org/dc/dcmitype/StillImage"/>
    <dc:date>2026-04-14T14:36:30.195673</dc:date>
    <dc:format>image/svg+xml</dc:format>
    <dc:creator>
     <cc:Agent>
      <dc:title>Matplotlib v3.10.0, https://matplotlib.org/</dc:title>
     </cc:Agent>
    </dc:creator>
   </cc:Work>
  </rdf:RDF>
 </metadata>
 <defs>
  <style type="text/css">*{stroke-linejoin: round; stroke-linecap: butt}</style>
 </defs>
 <g id="figure_1">
  <g id="patch_1">
   <path d="M 0 648 
L 720 648 
L 720 0 
L 0 0 
z
" style="fill: #ffffff"/>
  </g>
  <g id="axes_1">
   <g id="patch_2">
    <path d="M 90 304.56 
L 648 304.56 
L 648 77.76 
L 90 77.76 
z
" style="fill: #ffffff"/>
   </g>
   <g id="patch_3">
    <path d="M 115.363636 304.56 
L 125.509091 304.56 
L 125.509091 303.467513 
L 115.363636 303.467513 
z
" clip-path="url(#p4af9d8f04c)" style="fill: #808080; fill-opacity: 0.5; stroke: #000000; stroke-linejoin: miter"/>
   </g>
   <g id="patch_4">
    <path d="M 125.509091 304.56 
L 135.654545 304.56 
L 135.654545 302.101905 
L 125.509091 302.101905 
z
" clip-path="url(#p4af9d8f04c)" style="fill: #808080; fill-opacity: 0.5; stroke: #000000; stroke-linejoin: miter"/>
   </g>
   <g id="patch_5">
    <path d="M 135.654545 304.56 
L 145.8 304.56 
L 145.8 300.463175 
L 135.654545 300.463175 
z
" clip-path="url(#p4af9d8f04c)" style="fill: #808080; fill-opacity: 0.5; stroke: #000000; stroke-linejoin: miter"/>
   </g>
   <g id="patch_6">
    <path d="M 145.8 304.56 
L 155.945455 304.56 
L 155.945455 292.815768 
L 145.8 292.815768 
z
" clip-path="url(#p4af9d8f04c)" style="fill: #808080; fill-opacity: 0.5; stroke: #000000; stroke-linejoin: miter"/>
   </g>
   <g id="patch_7">
    <path d="M 155.945455 304.56 
L 166.090909 304.56 
L 166.090909 279.705927 
L 155.945455 279.705927 
z
" clip-path="url(#p4af9d8f04c)" style="fill: #808080; fill-opacity: 0.5; stroke: #000000; stroke-linejoin: miter"/>
   </g>
   <g id="patch_8">
    <path d="M 166.090909 304.56 
L 176.236364 304.56 
L 176.236364 261.543336 
L 166.090909 261.543336 
z
" clip-path="url(#p4af9d8f04c)" style="fill: #808080; fill-opacity: 0.5; stroke: #000000; stroke-linejoin: miter"/>
   </g>
   <g id="patch_9">
    <path d="M 176.236364 304.56 
L 186.381818 304.56 
L 186.381818 256.490585 
L 176.236364 256.490585 
z
" clip-path="url(#p4af9d8f04c)" style="fill: #808080; fill-opacity: 0.5; stroke: #000000; stroke-linejoin: miter"/>
   </g>
   <g id="patch_10">
    <path d="M 186.381818 304.56 
L 196.527273 304.56 
L 196.527273 251.301273 
L 186.381818 251.301273 
z
" clip-path="url(#p4af9d8f04c)" style="fill: #808080; fill-opacity: 0.5; stroke: #000000; stroke-linejoin: miter"/>
   </g>
   <g id="patch_11">
    <path d="M 196.527273 304.56 
L 206.672727 304.56 
L 206.672727 256.217463 
L 196.527273 256.217463 
z
" clip-path="url(#p4af9d8f04c)" style="fill: #808080; fill-opacity: 0.5; stroke: #000000; stroke-linejoin: miter"/>
   </g>
   <g id="patch_12">
    <path d="M 206.672727 304.56 
L 216.818182 304.56 
L 216.818182 256.217463 
L 206.672727 256.217463 
z
" clip-path="url(#p4af9d8f04c)" style="fill: #808080; fill-opacity: 0.5; stroke: #000000; stroke-linejoin: miter"/>
   </g>
   <g id="patch_13">
    <path d="M 216.818182 304.56 
L 226.963636 304.56 
L 226.963636 255.261537 
L 216.818182 255.261537 
z
" clip-path="url(#p4af9d8f04c)" style="fill: #808080; fill-opacity: 0.5; stroke: #000000; stroke-linejoin: miter"/>
   </g>
   <g id="patch_14">
    <path d="M 226.963636 304.56 
L 237.109091 304.56 
L 237.109091 249.389421 
L 226.963636 249.389421 
z
" clip-path="url(#p4af9d8f04c)" style="fill: #808080; fill-opacity: 0.5; stroke: #000000; stroke-linejoin: miter"/>
   </g>
   <g id="patch_15">
    <path d="M 237.109091 304.56 
L 247.254545 304.56 
L 247.254545 251.847516 
L 237.109091 251.847516 
z
" clip-path="url(#p4af9d8f04c)" style="fill: #808080; fill-opacity: 0.5; stroke: #000000; stroke-linejoin: miter"/>
   </g>
   <g id="patch_16">
    <path d="M 247.254545 304.56 
L 257.4 304.56 
L 257.4 247.341008 
L 247.254545 247.341008 
z
" clip-path="url(#p4af9d8f04c)" style="fill: #808080; fill-opacity: 0.5; stroke: #000000; stroke-linejoin: miter"/>
   </g>
   <g id="patch_17">
    <path d="M 257.4 304.56 
L 267.545455 304.56 
L 267.545455 249.116299 
L 257.4 249.116299 
z
" clip-path="url(#p4af9d8f04c)" style="fill: #808080; fill-opacity: 0.5; stroke: #000000; stroke-linejoin: miter"/>
   </g>
   <g id="patch_18">
    <path d="M 267.545455 304.56 
L 277.690909 304.56 
L 277.690909 248.570056 
L 267.545455 248.570056 
z
" clip-path="url(#p4af9d8f04c)" style="fill: #808080; fill-opacity: 0.5; stroke: #000000; stroke-linejoin: miter"/>
   </g>
   <g id="patch_19">
    <path d="M 277.690909 304.56 
L 287.836364 304.56 
L 287.836364 248.979738 
L 277.690909 248.979738 
z
" clip-path="url(#p4af9d8f04c)" style="fill: #808080; fill-opacity: 0.5; stroke: #000000; stroke-linejoin: miter"/>
   </g>
   <g id="patch_20">
    <path d="M 287.836364 304.56 
L 297.981818 304.56 
L 297.981818 249.116299 
L 287.836364 249.116299 
z
" clip-path="url(#p4af9d8f04c)" style="fill: #808080; fill-opacity: 0.5; stroke: #000000; stroke-linejoin: miter"/>
   </g>
   <g id="patch_21">
    <path d="M 297.981818 304.56 
L 308.127273 304.56 
L 308.127273 258.94868 
L 297.981818 258.94868 
z
" clip-path="url(#p4af9d8f04c)" style="fill: #808080; fill-opacity: 0.5; stroke: #000000; stroke-linejoin: miter"/>
   </g>
   <g id="patch_22">
    <path d="M 308.127273 304.56 
L 318.272727 304.56 
L 318.272727 267.005769 
L 308.127273 267.005769 
z
" clip-path="url(#p4af9d8f04c)" style="fill: #808080; fill-opacity: 0.5; stroke: #000000; stroke-linejoin: miter"/>
   </g>
   <g id="patch_23">
    <path d="M 318.272727 304.56 
L 328.418182 304.56 
L 328.418182 272.331642 
L 318.272727 272.331642 
z
" clip-path="url(#p4af9d8f04c)" style="fill: #808080; fill-opacity: 0.5; stroke: #000000; stroke-linejoin: miter"/>
   </g>
   <g id="patch_24">
    <path d="M 328.418182 304.56 
L 338.563636 304.56 
L 338.563636 275.19942 
L 328.418182 275.19942 
z
" clip-path="url(#p4af9d8f04c)" style="fill: #808080; fill-opacity: 0.5; stroke: #000000; stroke-linejoin: miter"/>
   </g>
   <g id="patch_25">
    <path d="M 338.563636 304.56 
L 348.709091 304.56 
L 348.709091 282.573705 
L 338.563636 282.573705 
z
" clip-path="url(#p4af9d8f04c)" style="fill: #808080; fill-opacity: 0.5; stroke: #000000; stroke-linejoin: miter"/>
   </g>
   <g id="patch_26">
    <path d="M 348.709091 304.56 
L 358.854545 304.56 
L 358.854545 286.943652 
L 348.709091 286.943652 
z
" clip-path="url(#p4af9d8f04c)" style="fill: #808080; fill-opacity: 0.5; stroke: #000000; stroke-linejoin: miter"/>
   </g>
   <g id="patch_27">
    <path d="M 358.854545 304.56 
L 369 304.56 
L 369 289.401747 
L 358.854545 289.401747 
z
" clip-path="url(#p4af9d8f04c)" style="fill: #808080; fill-opacity: 0.5; stroke: #000000; stroke-linejoin: miter"/>
   </g>
   <g id="patch_28">
    <path d="M 369 304.56 
L 379.145455 304.56 
L 379.145455 286.124287 
L 369 286.124287 
z
" clip-path="url(#p4af9d8f04c)" style="fill: #808080; fill-opacity: 0.5; stroke: #000000; stroke-linejoin: miter"/>
   </g>
   <g id="patch_29">
    <path d="M 379.145455 304.56 
L 389.290909 304.56 
L 389.290909 285.168361 
L 379.145455 285.168361 
z
" clip-path="url(#p4af9d8f04c)" style="fill: #808080; fill-opacity: 0.5; stroke: #000000; stroke-linejoin: miter"/>
   </g>
   <g id="patch_30">
    <path d="M 389.290909 304.56 
L 399.436364 304.56 
L 399.436364 274.789737 
L 389.290909 274.789737 
z
" clip-path="url(#p4af9d8f04c)" style="fill: #808080; fill-opacity: 0.5; stroke: #000000; stroke-linejoin: miter"/>
   </g>
   <g id="patch_31">
    <path d="M 399.436364 304.56 
L 409.581818 304.56 
L 409.581818 255.261537 
L 399.436364 255.261537 
z
" clip-path="url(#p4af9d8f04c)" style="fill: #808080; fill-opacity: 0.5; stroke: #000000; stroke-linejoin: miter"/>
   </g>
   <g id="patch_32">
    <path d="M 409.581818 304.56 
L 419.727273 304.56 
L 419.727273 231.36339 
L 409.581818 231.36339 
z
" clip-path="url(#p4af9d8f04c)" style="fill: #808080; fill-opacity: 0.5; stroke: #000000; stroke-linejoin: miter"/>
   </g>
   <g id="patch_33">
    <path d="M 419.727273 304.56 
L 429.872727 304.56 
L 429.872727 169.091648 
L 419.727273 169.091648 
z
" clip-path="url(#p4af9d8f04c)" style="fill: #808080; fill-opacity: 0.5; stroke: #000000; stroke-linejoin: miter"/>
   </g>
   <g id="patch_34">
    <path d="M 429.872727 304.56 
L 440.018182 304.56 
L 440.018182 110.91673 
L 429.872727 110.91673 
z
" clip-path="url(#p4af9d8f04c)" style="fill: #808080; fill-opacity: 0.5; stroke: #000000; stroke-linejoin: miter"/>
   </g>
   <g id="patch_35">
    <path d="M 440.018182 304.56 
L 450.163636 304.56 
L 450.163636 98.080011 
L 440.018182 98.080011 
z
" clip-path="url(#p4af9d8f04c)" style="fill: #808080; fill-opacity: 0.5; stroke: #000000; stroke-linejoin: miter"/>
   </g>
   <g id="patch_36">
    <path d="M 450.163636 304.56 
L 460.309091 304.56 
L 460.309091 116.515725 
L 450.163636 116.515725 
z
" clip-path="url(#p4af9d8f04c)" style="fill: #808080; fill-opacity: 0.5; stroke: #000000; stroke-linejoin: miter"/>
   </g>
   <g id="patch_37">
    <path d="M 460.309091 304.56 
L 470.454545 304.56 
L 470.454545 150.246252 
L 460.309091 150.246252 
z
" clip-path="url(#p4af9d8f04c)" style="fill: #808080; fill-opacity: 0.5; stroke: #000000; stroke-linejoin: miter"/>
   </g>
   <g id="patch_38">
    <path d="M 470.454545 304.56 
L 480.6 304.56 
L 480.6 179.470271 
L 470.454545 179.470271 
z
" clip-path="url(#p4af9d8f04c)" style="fill: #808080; fill-opacity: 0.5; stroke: #000000; stroke-linejoin: miter"/>
   </g>
   <g id="patch_39">
    <path d="M 480.6 304.56 
L 490.745455 304.56 
L 490.745455 197.769424 
L 480.6 197.769424 
z
" clip-path="url(#p4af9d8f04c)" style="fill: #808080; fill-opacity: 0.5; stroke: #000000; stroke-linejoin: miter"/>
   </g>
   <g id="patch_40">
    <path d="M 490.745455 304.56 
L 500.890909 304.56 
L 500.890909 216.75138 
L 490.745455 216.75138 
z
" clip-path="url(#p4af9d8f04c)" style="fill: #808080; fill-opacity: 0.5; stroke: #000000; stroke-linejoin: miter"/>
   </g>
   <g id="patch_41">
    <path d="M 500.890909 304.56 
L 511.036364 304.56 
L 511.036364 229.72466 
L 500.890909 229.72466 
z
" clip-path="url(#p4af9d8f04c)" style="fill: #808080; fill-opacity: 0.5; stroke: #000000; stroke-linejoin: miter"/>
   </g>
   <g id="patch_42">
    <path d="M 511.036364 304.56 
L 521.181818 304.56 
L 521.181818 249.662543 
L 511.036364 249.662543 
z
" clip-path="url(#p4af9d8f04c)" style="fill: #808080; fill-opacity: 0.5; stroke: #000000; stroke-linejoin: miter"/>
   </g>
   <g id="patch_43">
    <path d="M 521.181818 304.56 
L 531.327273 304.56 
L 531.327273 252.940003 
L 521.181818 252.940003 
z
" clip-path="url(#p4af9d8f04c)" style="fill: #808080; fill-opacity: 0.5; stroke: #000000; stroke-linejoin: miter"/>
   </g>
   <g id="patch_44">
    <path d="M 531.327273 304.56 
L 541.472727 304.56 
L 541.472727 252.257199 
L 531.327273 252.257199 
z
" clip-path="url(#p4af9d8f04c)" style="fill: #808080; fill-opacity: 0.5; stroke: #000000; stroke-linejoin: miter"/>
   </g>
   <g id="patch_45">
    <path d="M 541.472727 304.56 
L 551.618182 304.56 
L 551.618182 262.499262 
L 541.472727 262.499262 
z
" clip-path="url(#p4af9d8f04c)" style="fill: #808080; fill-opacity: 0.5; stroke: #000000; stroke-linejoin: miter"/>
   </g>
   <g id="patch_46">
    <path d="M 551.618182 304.56 
L 561.763636 304.56 
L 561.763636 267.415452 
L 551.618182 267.415452 
z
" clip-path="url(#p4af9d8f04c)" style="fill: #808080; fill-opacity: 0.5; stroke: #000000; stroke-linejoin: miter"/>
   </g>
   <g id="patch_47">
    <path d="M 561.763636 304.56 
L 571.909091 304.56 
L 571.909091 275.062859 
L 561.763636 275.062859 
z
" clip-path="url(#p4af9d8f04c)" style="fill: #808080; fill-opacity: 0.5; stroke: #000000; stroke-linejoin: miter"/>
   </g>
   <g id="patch_48">
    <path d="M 571.909091 304.56 
L 582.054545 304.56 
L 582.054545 283.802752 
L 571.909091 283.802752 
z
" clip-path="url(#p4af9d8f04c)" style="fill: #808080; fill-opacity: 0.5; stroke: #000000; stroke-linejoin: miter"/>
   </g>
   <g id="patch_49">
    <path d="M 582.054545 304.56 
L 592.2 304.56 
L 592.2 295.000741 
L 582.054545 295.000741 
z
" clip-path="url(#p4af9d8f04c)" style="fill: #808080; fill-opacity: 0.5; stroke: #000000; stroke-linejoin: miter"/>
   </g>
   <g id="patch_50">
    <path d="M 592.2 304.56 
L 602.345455 304.56 
L 602.345455 301.965344 
L 592.2 301.965344 
z
" clip-path="url(#p4af9d8f04c)" style="fill: #808080; fill-opacity: 0.5; stroke: #000000; stroke-linejoin: miter"/>
   </g>
   <g id="patch_51">
    <path d="M 602.345455 304.56 
L 612.490909 304.56 
L 612.490909 303.467513 
L 602.345455 303.467513 
z
" clip-path="url(#p4af9d8f04c)" style="fill: #808080; fill-opacity: 0.5; stroke: #000000; stroke-linejoin: miter"/>
   </g>
   <g id="patch_52">
    <path d="M 612.490909 304.56 
L 622.636364 304.56 
L 622.636364 304.286878 
L 612.490909 304.286878 
z
" clip-path="url(#p4af9d8f04c)" style="fill: #808080; fill-opacity: 0.5; stroke: #000000; stroke-linejoin: miter"/>
   </g>
   <g id="matplotlib.axis_1">
    <g id="xtick_1">
     <g id="line2d_1">
      <defs>
       <path id="md4fbd8c0a7" d="M 0 0 
L 0 3.5 
" style="stroke: #000000; stroke-width: 0.8"/>
      </defs>
      <g>
       <use xlink:href="#md4fbd8c0a7" x="118.954911" y="304.56" style="stroke: #000000; stroke-width: 0.8"/>
      </g>
     </g>
     <g id="text_1">
      <!-- 15 -->
      <g transform="translate(112.592411 319.158437) scale(0.1 -0.1)">
       <defs>
        <path id="DejaVuSans-31" d="M 794 531 
L 1825 531 
L 1825 4091 
L 703 3866 
L 703 4441 
L 1819 4666 
L 2450 4666 
L 2450 531 
L 3481 531 
L 3481 0 
L 794 0 
L 794 531 
z
" transform="scale(0.015625)"/>
        <path id="DejaVuSans-35" d="M 691 4666 
L 3169 4666 
L 3169 4134 
L 1269 4134 
L 1269 2991 
Q 1406 3038 1543 3061 
Q 1681 3084 1819 3084 
Q 2600 3084 3056 2656 
Q 3513 2228 3513 1497 
Q 3513 744 3044 326 
Q 2575 -91 1722 -91 
Q 1428 -91 1123 -41 
Q 819 9 494 109 
L 494 744 
Q 775 591 1075 516 
Q 1375 441 1709 441 
Q 2250 441 2565 725 
Q 2881 1009 2881 1497 
Q 2881 1984 2565 2268 
Q 2250 2553 1709 2553 
Q 1456 2553 1204 2497 
Q 953 2441 691 2322 
L 691 4666 
z
" transform="scale(0.015625)"/>
       </defs>
       <use xlink:href="#DejaVuSans-31"/>
       <use xlink:href="#DejaVuSans-35" transform="translate(63.623047 0)"/>
      </g>
     </g>
    </g>
    <g id="xtick_2">
     <g id="line2d_2">
      <g>
       <use xlink:href="#md4fbd8c0a7" x="194.005399" y="304.56" style="stroke: #000000; stroke-width: 0.8"/>
      </g>
     </g>
     <g id="text_2">
      <!-- 20 -->
      <g transform="translate(187.642899 319.158437) scale(0.1 -0.1)">
       <defs>
        <path id="DejaVuSans-32" d="M 1228 531 
L 3431 531 
L 3431 0 
L 469 0 
L 469 531 
Q 828 903 1448 1529 
Q 2069 2156 2228 2338 
Q 2531 2678 2651 2914 
Q 2772 3150 2772 3378 
Q 2772 3750 2511 3984 
Q 2250 4219 1831 4219 
Q 1534 4219 1204 4116 
Q 875 4013 500 3803 
L 500 4441 
Q 881 4594 1212 4672 
Q 1544 4750 1819 4750 
Q 2544 4750 2975 4387 
Q 3406 4025 3406 3419 
Q 3406 3131 3298 2873 
Q 3191 2616 2906 2266 
Q 2828 2175 2409 1742 
Q 1991 1309 1228 531 
z
" transform="scale(0.015625)"/>
        <path id="DejaVuSans-30" d="M 2034 4250 
Q 1547 4250 1301 3770 
Q 1056 3291 1056 2328 
Q 1056 1369 1301 889 
Q 1547 409 2034 409 
Q 2525 409 2770 889 
Q 3016 1369 3016 2328 
Q 3016 3291 2770 3770 
Q 2525 4250 2034 4250 
z
M 2034 4750 
Q 2819 4750 3233 4129 
Q 3647 3509 3647 2328 
Q 3647 1150 3233 529 
Q 2819 -91 2034 -91 
Q 1250 -91 836 529 
Q 422 1150 422 2328 
Q 422 3509 836 4129 
Q 1250 4750 2034 4750 
z
" transform="scale(0.015625)"/>
       </defs>
       <use xlink:href="#DejaVuSans-32"/>
       <use xlink:href="#DejaVuSans-30" transform="translate(63.623047 0)"/>
      </g>
     </g>
    </g>
    <g id="xtick_3">
     <g id="line2d_3">
      <g>
       <use xlink:href="#md4fbd8c0a7" x="269.055887" y="304.56" style="stroke: #000000; stroke-width: 0.8"/>
      </g>
     </g>
     <g id="text_3">
      <!-- 25 -->
      <g transform="translate(262.693387 319.158437) scale(0.1 -0.1)">
       <use xlink:href="#DejaVuSans-32"/>
       <use xlink:href="#DejaVuSans-35" transform="translate(63.623047 0)"/>
      </g>
     </g>
    </g>
    <g id="xtick_4">
     <g id="line2d_4">
      <g>
       <use xlink:href="#md4fbd8c0a7" x="344.106375" y="304.56" style="stroke: #000000; stroke-width: 0.8"/>
      </g>
     </g>
     <g id="text_4">
      <!-- 30 -->
      <g transform="translate(337.743875 319.158437) scale(0.1 -0.1)">
       <defs>
        <path id="DejaVuSans-33" d="M 2597 2516 
Q 3050 2419 3304 2112 
Q 3559 1806 3559 1356 
Q 3559 666 3084 287 
Q 2609 -91 1734 -91 
Q 1441 -91 1130 -33 
Q 819 25 488 141 
L 488 750 
Q 750 597 1062 519 
Q 1375 441 1716 441 
Q 2309 441 2620 675 
Q 2931 909 2931 1356 
Q 2931 1769 2642 2001 
Q 2353 2234 1838 2234 
L 1294 2234 
L 1294 2753 
L 1863 2753 
Q 2328 2753 2575 2939 
Q 2822 3125 2822 3475 
Q 2822 3834 2567 4026 
Q 2313 4219 1838 4219 
Q 1578 4219 1281 4162 
Q 984 4106 628 3988 
L 628 4550 
Q 988 4650 1302 4700 
Q 1616 4750 1894 4750 
Q 2613 4750 3031 4423 
Q 3450 4097 3450 3541 
Q 3450 3153 3228 2886 
Q 3006 2619 2597 2516 
z
" transform="scale(0.015625)"/>
       </defs>
       <use xlink:href="#DejaVuSans-33"/>
       <use xlink:href="#DejaVuSans-30" transform="translate(63.623047 0)"/>
      </g>
     </g>
    </g>
    <g id="xtick_5">
     <g id="line2d_5">
      <g>
       <use xlink:href="#md4fbd8c0a7" x="419.156863" y="304.56" style="stroke: #000000; stroke-width: 0.8"/>
      </g>
     </g>
     <g id="text_5">
      <!-- 35 -->
      <g transform="translate(412.794363 319.158437) scale(0.1 -0.1)">
       <use xlink:href="#DejaVuSans-33"/>
       <use xlink:href="#DejaVuSans-35" transform="translate(63.623047 0)"/>
      </g>
     </g>
    </g>
    <g id="xtick_6">
     <g id="line2d_6">
      <g>
       <use xlink:href="#md4fbd8c0a7" x="494.20735" y="304.56" style="stroke: #000000; stroke-width: 0.8"/>
      </g>
     </g>
     <g id="text_6">
      <!-- 40 -->
      <g transform="translate(487.84485 319.158437) scale(0.1 -0.1)">
       <defs>
        <path id="DejaVuSans-34" d="M 2419 4116 
L 825 1625 
L 2419 1625 
L 2419 4116 
z
M 2253 4666 
L 3047 4666 
L 3047 1625 
L 3713 1625 
L 3713 1100 
L 3047 1100 
L 3047 0 
L 2419 0 
L 2419 1100 
L 313 1100 
L 313 1709 
L 2253 4666 
z
" transform="scale(0.015625)"/>
       </defs>
       <use xlink:href="#DejaVuSans-34"/>
       <use xlink:href="#DejaVuSans-30" transform="translate(63.623047 0)"/>
      </g>
     </g>
    </g>
    <g id="xtick_7">
     <g id="line2d_7">
      <g>
       <use xlink:href="#md4fbd8c0a7" x="569.257838" y="304.56" style="stroke: #000000; stroke-width: 0.8"/>
      </g>
     </g>
     <g id="text_7">
      <!-- 45 -->
      <g transform="translate(562.895338 319.158437) scale(0.1 -0.1)">
       <use xlink:href="#DejaVuSans-34"/>
       <use xlink:href="#DejaVuSans-35" transform="translate(63.623047 0)"/>
      </g>
     </g>
    </g>
    <g id="xtick_8">
     <g id="line2d_8">
      <g>
       <use xlink:href="#md4fbd8c0a7" x="644.308326" y="304.56" style="stroke: #000000; stroke-width: 0.8"/>
      </g>
     </g>
     <g id="text_8">
      <!-- 50 -->
      <g transform="translate(637.945826 319.158437) scale(0.1 -0.1)">
       <use xlink:href="#DejaVuSans-35"/>
       <use xlink:href="#DejaVuSans-30" transform="translate(63.623047 0)"/>
      </g>
     </g>
    </g>
    <g id="text_9">
     <!-- ch4_area -->
     <g transform="translate(346.253125 332.836563) scale(0.1 -0.1)">
      <defs>
       <path id="DejaVuSans-63" d="M 3122 3366 
L 3122 2828 
Q 2878 2963 2633 3030 
Q 2388 3097 2138 3097 
Q 1578 3097 1268 2742 
Q 959 2388 959 1747 
Q 959 1106 1268 751 
Q 1578 397 2138 397 
Q 2388 397 2633 464 
Q 2878 531 3122 666 
L 3122 134 
Q 2881 22 2623 -34 
Q 2366 -91 2075 -91 
Q 1284 -91 818 406 
Q 353 903 353 1747 
Q 353 2603 823 3093 
Q 1294 3584 2113 3584 
Q 2378 3584 2631 3529 
Q 2884 3475 3122 3366 
z
" transform="scale(0.015625)"/>
       <path id="DejaVuSans-68" d="M 3513 2113 
L 3513 0 
L 2938 0 
L 2938 2094 
Q 2938 2591 2744 2837 
Q 2550 3084 2163 3084 
Q 1697 3084 1428 2787 
Q 1159 2491 1159 1978 
L 1159 0 
L 581 0 
L 581 4863 
L 1159 4863 
L 1159 2956 
Q 1366 3272 1645 3428 
Q 1925 3584 2291 3584 
Q 2894 3584 3203 3211 
Q 3513 2838 3513 2113 
z
" transform="scale(0.015625)"/>
       <path id="DejaVuSans-5f" d="M 3263 -1063 
L 3263 -1509 
L -63 -1509 
L -63 -1063 
L 3263 -1063 
z
" transform="scale(0.015625)"/>
       <path id="DejaVuSans-61" d="M 2194 1759 
Q 1497 1759 1228 1600 
Q 959 1441 959 1056 
Q 959 750 1161 570 
Q 1363 391 1709 391 
Q 2188 391 2477 730 
Q 2766 1069 2766 1631 
L 2766 1759 
L 2194 1759 
z
M 3341 1997 
L 3341 0 
L 2766 0 
L 2766 531 
Q 2569 213 2275 61 
Q 1981 -91 1556 -91 
Q 1019 -91 701 211 
Q 384 513 384 1019 
Q 384 1609 779 1909 
Q 1175 2209 1959 2209 
L 2766 2209 
L 2766 2266 
Q 2766 2663 2505 2880 
Q 2244 3097 1772 3097 
Q 1472 3097 1187 3025 
Q 903 2953 641 2809 
L 641 3341 
Q 956 3463 1253 3523 
Q 1550 3584 1831 3584 
Q 2591 3584 2966 3190 
Q 3341 2797 3341 1997 
z
" transform="scale(0.015625)"/>
       <path id="DejaVuSans-72" d="M 2631 2963 
Q 2534 3019 2420 3045 
Q 2306 3072 2169 3072 
Q 1681 3072 1420 2755 
Q 1159 2438 1159 1844 
L 1159 0 
L 581 0 
L 581 3500 
L 1159 3500 
L 1159 2956 
Q 1341 3275 1631 3429 
Q 1922 3584 2338 3584 
Q 2397 3584 2469 3576 
Q 2541 3569 2628 3553 
L 2631 2963 
z
" transform="scale(0.015625)"/>
       <path id="DejaVuSans-65" d="M 3597 1894 
L 3597 1613 
L 953 1613 
Q 991 1019 1311 708 
Q 1631 397 2203 397 
Q 2534 397 2845 478 
Q 3156 559 3463 722 
L 3463 178 
Q 3153 47 2828 -22 
Q 2503 -91 2169 -91 
Q 1331 -91 842 396 
Q 353 884 353 1716 
Q 353 2575 817 3079 
Q 1281 3584 2069 3584 
Q 2775 3584 3186 3129 
Q 3597 2675 3597 1894 
z
M 3022 2063 
Q 3016 2534 2758 2815 
Q 2500 3097 2075 3097 
Q 1594 3097 1305 2825 
Q 1016 2553 972 2059 
L 3022 2063 
z
" transform="scale(0.015625)"/>
      </defs>
      <use xlink:href="#DejaVuSans-63"/>
      <use xlink:href="#DejaVuSans-68" transform="translate(54.980469 0)"/>
      <use xlink:href="#DejaVuSans-34" transform="translate(118.359375 0)"/>
      <use xlink:href="#DejaVuSans-5f" transform="translate(181.982422 0)"/>
      <use xlink:href="#DejaVuSans-61" transform="translate(231.982422 0)"/>
      <use xlink:href="#DejaVuSans-72" transform="translate(293.261719 0)"/>
      <use xlink:href="#DejaVuSans-65" transform="translate(332.125 0)"/>
      <use xlink:href="#DejaVuSans-61" transform="translate(393.648438 0)"/>
     </g>
    </g>
   </g>
   <g id="matplotlib.axis_2">
    <g id="ytick_1">
     <g id="line2d_9">
      <defs>
       <path id="m4bf016ef42" d="M 0 0 
L -3.5 0 
" style="stroke: #000000; stroke-width: 0.8"/>
      </defs>
      <g>
       <use xlink:href="#m4bf016ef42" x="90" y="304.56" style="stroke: #000000; stroke-width: 0.8"/>
      </g>
     </g>
     <g id="text_10">
      <!-- 0 -->
      <g transform="translate(76.6375 308.359219) scale(0.1 -0.1)">
       <use xlink:href="#DejaVuSans-30"/>
      </g>
     </g>
    </g>
    <g id="ytick_2">
     <g id="line2d_10">
      <g>
       <use xlink:href="#m4bf016ef42" x="90" y="277.247832" style="stroke: #000000; stroke-width: 0.8"/>
      </g>
     </g>
     <g id="text_11">
      <!-- 200 -->
      <g transform="translate(63.9125 281.047051) scale(0.1 -0.1)">
       <use xlink:href="#DejaVuSans-32"/>
       <use xlink:href="#DejaVuSans-30" transform="translate(63.623047 0)"/>
       <use xlink:href="#DejaVuSans-30" transform="translate(127.246094 0)"/>
      </g>
     </g>
    </g>
    <g id="ytick_3">
     <g id="line2d_11">
      <g>
       <use xlink:href="#m4bf016ef42" x="90" y="249.935664" style="stroke: #000000; stroke-width: 0.8"/>
      </g>
     </g>
     <g id="text_12">
      <!-- 400 -->
      <g transform="translate(63.9125 253.734883) scale(0.1 -0.1)">
       <use xlink:href="#DejaVuSans-34"/>
       <use xlink:href="#DejaVuSans-30" transform="translate(63.623047 0)"/>
       <use xlink:href="#DejaVuSans-30" transform="translate(127.246094 0)"/>
      </g>
     </g>
    </g>
    <g id="ytick_4">
     <g id="line2d_12">
      <g>
       <use xlink:href="#m4bf016ef42" x="90" y="222.623497" style="stroke: #000000; stroke-width: 0.8"/>
      </g>
     </g>
     <g id="text_13">
      <!-- 600 -->
      <g transform="translate(63.9125 226.422715) scale(0.1 -0.1)">
       <defs>
        <path id="DejaVuSans-36" d="M 2113 2584 
Q 1688 2584 1439 2293 
Q 1191 2003 1191 1497 
Q 1191 994 1439 701 
Q 1688 409 2113 409 
Q 2538 409 2786 701 
Q 3034 994 3034 1497 
Q 3034 2003 2786 2293 
Q 2538 2584 2113 2584 
z
M 3366 4563 
L 3366 3988 
Q 3128 4100 2886 4159 
Q 2644 4219 2406 4219 
Q 1781 4219 1451 3797 
Q 1122 3375 1075 2522 
Q 1259 2794 1537 2939 
Q 1816 3084 2150 3084 
Q 2853 3084 3261 2657 
Q 3669 2231 3669 1497 
Q 3669 778 3244 343 
Q 2819 -91 2113 -91 
Q 1303 -91 875 529 
Q 447 1150 447 2328 
Q 447 3434 972 4092 
Q 1497 4750 2381 4750 
Q 2619 4750 2861 4703 
Q 3103 4656 3366 4563 
z
" transform="scale(0.015625)"/>
       </defs>
       <use xlink:href="#DejaVuSans-36"/>
       <use xlink:href="#DejaVuSans-30" transform="translate(63.623047 0)"/>
       <use xlink:href="#DejaVuSans-30" transform="translate(127.246094 0)"/>
      </g>
     </g>
    </g>
    <g id="ytick_5">
     <g id="line2d_13">
      <g>
       <use xlink:href="#m4bf016ef42" x="90" y="195.311329" style="stroke: #000000; stroke-width: 0.8"/>
      </g>
     </g>
     <g id="text_14">
      <!-- 800 -->
      <g transform="translate(63.9125 199.110547) scale(0.1 -0.1)">
       <defs>
        <path id="DejaVuSans-38" d="M 2034 2216 
Q 1584 2216 1326 1975 
Q 1069 1734 1069 1313 
Q 1069 891 1326 650 
Q 1584 409 2034 409 
Q 2484 409 2743 651 
Q 3003 894 3003 1313 
Q 3003 1734 2745 1975 
Q 2488 2216 2034 2216 
z
M 1403 2484 
Q 997 2584 770 2862 
Q 544 3141 544 3541 
Q 544 4100 942 4425 
Q 1341 4750 2034 4750 
Q 2731 4750 3128 4425 
Q 3525 4100 3525 3541 
Q 3525 3141 3298 2862 
Q 3072 2584 2669 2484 
Q 3125 2378 3379 2068 
Q 3634 1759 3634 1313 
Q 3634 634 3220 271 
Q 2806 -91 2034 -91 
Q 1263 -91 848 271 
Q 434 634 434 1313 
Q 434 1759 690 2068 
Q 947 2378 1403 2484 
z
M 1172 3481 
Q 1172 3119 1398 2916 
Q 1625 2713 2034 2713 
Q 2441 2713 2670 2916 
Q 2900 3119 2900 3481 
Q 2900 3844 2670 4047 
Q 2441 4250 2034 4250 
Q 1625 4250 1398 4047 
Q 1172 3844 1172 3481 
z
" transform="scale(0.015625)"/>
       </defs>
       <use xlink:href="#DejaVuSans-38"/>
       <use xlink:href="#DejaVuSans-30" transform="translate(63.623047 0)"/>
       <use xlink:href="#DejaVuSans-30" transform="translate(127.246094 0)"/>
      </g>
     </g>
    </g>
    <g id="ytick_6">
     <g id="line2d_14">
      <g>
       <use xlink:href="#m4bf016ef42" x="90" y="167.999161" style="stroke: #000000; stroke-width: 0.8"/>
      </g>
     </g>
     <g id="text_15">
      <!-- 1000 -->
      <g transform="translate(57.55 171.79838) scale(0.1 -0.1)">
       <use xlink:href="#DejaVuSans-31"/>
       <use xlink:href="#DejaVuSans-30" transform="translate(63.623047 0)"/>
       <use xlink:href="#DejaVuSans-30" transform="translate(127.246094 0)"/>
       <use xlink:href="#DejaVuSans-30" transform="translate(190.869141 0)"/>
      </g>
     </g>
    </g>
    <g id="ytick_7">
     <g id="line2d_15">
      <g>
       <use xlink:href="#m4bf016ef42" x="90" y="140.686993" style="stroke: #000000; stroke-width: 0.8"/>
      </g>
     </g>
     <g id="text_16">
      <!-- 1200 -->
      <g transform="translate(57.55 144.486212) scale(0.1 -0.1)">
       <use xlink:href="#DejaVuSans-31"/>
       <use xlink:href="#DejaVuSans-32" transform="translate(63.623047 0)"/>
       <use xlink:href="#DejaVuSans-30" transform="translate(127.246094 0)"/>
       <use xlink:href="#DejaVuSans-30" transform="translate(190.869141 0)"/>
      </g>
     </g>
    </g>
    <g id="ytick_8">
     <g id="line2d_16">
      <g>
       <use xlink:href="#m4bf016ef42" x="90" y="113.374825" style="stroke: #000000; stroke-width: 0.8"/>
      </g>
     </g>
     <g id="text_17">
      <!-- 1400 -->
      <g transform="translate(57.55 117.174044) scale(0.1 -0.1)">
       <use xlink:href="#DejaVuSans-31"/>
       <use xlink:href="#DejaVuSans-34" transform="translate(63.623047 0)"/>
       <use xlink:href="#DejaVuSans-30" transform="translate(127.246094 0)"/>
       <use xlink:href="#DejaVuSans-30" transform="translate(190.869141 0)"/>
      </g>
     </g>
    </g>
    <g id="ytick_9">
     <g id="line2d_17">
      <g>
       <use xlink:href="#m4bf016ef42" x="90" y="86.062657" style="stroke: #000000; stroke-width: 0.8"/>
      </g>
     </g>
     <g id="text_18">
      <!-- 1600 -->
      <g transform="translate(57.55 89.861876) scale(0.1 -0.1)">
       <use xlink:href="#DejaVuSans-31"/>
       <use xlink:href="#DejaVuSans-36" transform="translate(63.623047 0)"/>
       <use xlink:href="#DejaVuSans-30" transform="translate(127.246094 0)"/>
       <use xlink:href="#DejaVuSans-30" transform="translate(190.869141 0)"/>
      </g>
     </g>
    </g>
    <g id="text_19">
     <!-- Count -->
     <g transform="translate(51.470312 206.008437) rotate(-90) scale(0.1 -0.1)">
      <defs>
       <path id="DejaVuSans-43" d="M 4122 4306 
L 4122 3641 
Q 3803 3938 3442 4084 
Q 3081 4231 2675 4231 
Q 1875 4231 1450 3742 
Q 1025 3253 1025 2328 
Q 1025 1406 1450 917 
Q 1875 428 2675 428 
Q 3081 428 3442 575 
Q 3803 722 4122 1019 
L 4122 359 
Q 3791 134 3420 21 
Q 3050 -91 2638 -91 
Q 1578 -91 968 557 
Q 359 1206 359 2328 
Q 359 3453 968 4101 
Q 1578 4750 2638 4750 
Q 3056 4750 3426 4639 
Q 3797 4528 4122 4306 
z
" transform="scale(0.015625)"/>
       <path id="DejaVuSans-6f" d="M 1959 3097 
Q 1497 3097 1228 2736 
Q 959 2375 959 1747 
Q 959 1119 1226 758 
Q 1494 397 1959 397 
Q 2419 397 2687 759 
Q 2956 1122 2956 1747 
Q 2956 2369 2687 2733 
Q 2419 3097 1959 3097 
z
M 1959 3584 
Q 2709 3584 3137 3096 
Q 3566 2609 3566 1747 
Q 3566 888 3137 398 
Q 2709 -91 1959 -91 
Q 1206 -91 779 398 
Q 353 888 353 1747 
Q 353 2609 779 3096 
Q 1206 3584 1959 3584 
z
" transform="scale(0.015625)"/>
       <path id="DejaVuSans-75" d="M 544 1381 
L 544 3500 
L 1119 3500 
L 1119 1403 
Q 1119 906 1312 657 
Q 1506 409 1894 409 
Q 2359 409 2629 706 
Q 2900 1003 2900 1516 
L 2900 3500 
L 3475 3500 
L 3475 0 
L 2900 0 
L 2900 538 
Q 2691 219 2414 64 
Q 2138 -91 1772 -91 
Q 1169 -91 856 284 
Q 544 659 544 1381 
z
M 1991 3584 
L 1991 3584 
z
" transform="scale(0.015625)"/>
       <path id="DejaVuSans-6e" d="M 3513 2113 
L 3513 0 
L 2938 0 
L 2938 2094 
Q 2938 2591 2744 2837 
Q 2550 3084 2163 3084 
Q 1697 3084 1428 2787 
Q 1159 2491 1159 1978 
L 1159 0 
L 581 0 
L 581 3500 
L 1159 3500 
L 1159 2956 
Q 1366 3272 1645 3428 
Q 1925 3584 2291 3584 
Q 2894 3584 3203 3211 
Q 3513 2838 3513 2113 
z
" transform="scale(0.015625)"/>
       <path id="DejaVuSans-74" d="M 1172 4494 
L 1172 3500 
L 2356 3500 
L 2356 3053 
L 1172 3053 
L 1172 1153 
Q 1172 725 1289 603 
Q 1406 481 1766 481 
L 2356 481 
L 2356 0 
L 1766 0 
Q 1100 0 847 248 
Q 594 497 594 1153 
L 594 3053 
L 172 3053 
L 172 3500 
L 594 3500 
L 594 4494 
L 1172 4494 
z
" transform="scale(0.015625)"/>
      </defs>
      <use xlink:href="#DejaVuSans-43"/>
      <use xlink:href="#DejaVuSans-6f" transform="translate(69.824219 0)"/>
      <use xlink:href="#DejaVuSans-75" transform="translate(131.005859 0)"/>
      <use xlink:href="#DejaVuSans-6e" transform="translate(194.384766 0)"/>
      <use xlink:href="#DejaVuSans-74" transform="translate(257.763672 0)"/>
     </g>
    </g>
   </g>
   <g id="LineCollection_1">
    <path d="M 385.050519 304.56 
L 385.050519 304.544469 
" clip-path="url(#p4af9d8f04c)" style="fill: none; stroke: #ff0000; stroke-width: 1.5"/>
    <path d="M 445.090909 304.56 
L 445.090909 304.544469 
" clip-path="url(#p4af9d8f04c)" style="fill: none; stroke: #ff0000; stroke-width: 1.5"/>
    <path d="M 505.131299 304.56 
L 505.131299 304.544469 
" clip-path="url(#p4af9d8f04c)" style="fill: none; stroke: #ff0000; stroke-width: 1.5"/>
   </g>
   <g id="line2d_18">
    <path d="M 385.050519 296.894096 
L 386.975662 295.255011 
L 388.900804 293.3307 
L 390.825947 291.086705 
L 392.75109 288.487653 
L 394.676233 285.497972 
L 396.601375 282.082748 
L 398.526518 278.208724 
L 400.451661 273.845432 
L 402.376804 268.966434 
L 404.542589 262.835133 
L 406.708375 256.004939 
L 408.874161 248.469391 
L 411.280589 239.281024 
L 413.92766 228.228321 
L 416.815375 215.149718 
L 420.184374 198.789816 
L 424.997231 174.168323 
L 431.013303 143.588982 
L 433.901017 130.001745 
L 436.307445 119.657058 
L 438.473231 111.324853 
L 440.398374 104.836764 
L 442.082874 99.955766 
L 443.526731 96.413245 
L 444.970588 93.498216 
L 446.173802 91.568658 
L 447.136373 90.361566 
L 448.098945 89.459354 
L 449.061516 88.865923 
L 450.024087 88.583846 
L 450.746016 88.577401 
L 451.467945 88.746824 
L 452.430516 89.245517 
L 453.393087 90.053918 
L 454.355659 91.168528 
L 455.558873 92.98495 
L 456.762087 95.260034 
L 457.965301 97.978618 
L 459.409158 101.800852 
L 461.093658 106.986151 
L 462.778158 112.89077 
L 464.703301 120.425804 
L 467.10973 130.850189 
L 469.997444 144.507066 
L 473.847729 163.940842 
L 482.270229 206.840055 
L 485.639229 222.661443 
L 488.526943 235.154249 
L 491.174014 245.603412 
L 493.580443 254.211789 
L 495.746228 261.21592 
L 497.912014 267.518239 
L 500.0778 273.135414 
L 502.243585 278.095505 
L 504.168728 281.982581 
L 505.131299 283.751717 
L 505.131299 283.751717 
" clip-path="url(#p4af9d8f04c)" style="fill: none; stroke-dasharray: 5.55,2.4; stroke-dashoffset: 0; stroke: #ff0000; stroke-width: 1.5"/>
   </g>
   <g id="patch_53">
    <path d="M 90 304.56 
L 90 77.76 
" style="fill: none; stroke: #000000; stroke-width: 0.8; stroke-linejoin: miter; stroke-linecap: square"/>
   </g>
   <g id="patch_54">
    <path d="M 648 304.56 
L 648 77.76 
" style="fill: none; stroke: #000000; stroke-width: 0.8; stroke-linejoin: miter; stroke-linecap: square"/>
   </g>
   <g id="patch_55">
    <path d="M 90 304.56 
L 648 304.56 
" style="fill: none; stroke: #000000; stroke-width: 0.8; stroke-linejoin: miter; stroke-linecap: square"/>
   </g>
   <g id="patch_56">
    <path d="M 90 77.76 
L 648 77.76 
" style="fill: none; stroke: #000000; stroke-width: 0.8; stroke-linejoin: miter; stroke-linecap: square"/>
   </g>
  </g>
  <g id="axes_2">
   <g id="patch_57">
    <path d="M 90 576.72 
L 648 576.72 
L 648 349.92 
L 90 349.92 
z
" style="fill: #ffffff"/>
   </g>
   <g id="patch_58">
    <path d="M 115.363636 576.72 
L 125.509091 576.72 
L 125.509091 576.288647 
L 115.363636 576.288647 
z
" clip-path="url(#p7c6053f90a)" style="fill: #808080; fill-opacity: 0.5; stroke: #000000; stroke-linejoin: miter"/>
   </g>
   <g id="patch_59">
    <path d="M 125.509091 576.72 
L 135.654545 576.72 
L 135.654545 575.533779 
L 125.509091 575.533779 
z
" clip-path="url(#p7c6053f90a)" style="fill: #808080; fill-opacity: 0.5; stroke: #000000; stroke-linejoin: miter"/>
   </g>
   <g id="patch_60">
    <path d="M 135.654545 576.72 
L 145.8 576.72 
L 145.8 571.543764 
L 135.654545 571.543764 
z
" clip-path="url(#p7c6053f90a)" style="fill: #808080; fill-opacity: 0.5; stroke: #000000; stroke-linejoin: miter"/>
   </g>
   <g id="patch_61">
    <path d="M 145.8 576.72 
L 155.945455 576.72 
L 155.945455 558.063984 
L 145.8 558.063984 
z
" clip-path="url(#p7c6053f90a)" style="fill: #808080; fill-opacity: 0.5; stroke: #000000; stroke-linejoin: miter"/>
   </g>
   <g id="patch_62">
    <path d="M 155.945455 576.72 
L 166.090909 576.72 
L 166.090909 541.996086 
L 155.945455 541.996086 
z
" clip-path="url(#p7c6053f90a)" style="fill: #808080; fill-opacity: 0.5; stroke: #000000; stroke-linejoin: miter"/>
   </g>
   <g id="patch_63">
    <path d="M 166.090909 576.72 
L 176.236364 576.72 
L 176.236364 533.584703 
L 166.090909 533.584703 
z
" clip-path="url(#p7c6053f90a)" style="fill: #808080; fill-opacity: 0.5; stroke: #000000; stroke-linejoin: miter"/>
   </g>
   <g id="patch_64">
    <path d="M 176.236364 576.72 
L 186.381818 576.72 
L 186.381818 530.241717 
L 176.236364 530.241717 
z
" clip-path="url(#p7c6053f90a)" style="fill: #808080; fill-opacity: 0.5; stroke: #000000; stroke-linejoin: miter"/>
   </g>
   <g id="patch_65">
    <path d="M 186.381818 576.72 
L 196.527273 576.72 
L 196.527273 526.143864 
L 186.381818 526.143864 
z
" clip-path="url(#p7c6053f90a)" style="fill: #808080; fill-opacity: 0.5; stroke: #000000; stroke-linejoin: miter"/>
   </g>
   <g id="patch_66">
    <path d="M 196.527273 576.72 
L 206.672727 576.72 
L 206.672727 526.359541 
L 196.527273 526.359541 
z
" clip-path="url(#p7c6053f90a)" style="fill: #808080; fill-opacity: 0.5; stroke: #000000; stroke-linejoin: miter"/>
   </g>
   <g id="patch_67">
    <path d="M 206.672727 576.72 
L 216.818182 576.72 
L 216.818182 524.094938 
L 206.672727 524.094938 
z
" clip-path="url(#p7c6053f90a)" style="fill: #808080; fill-opacity: 0.5; stroke: #000000; stroke-linejoin: miter"/>
   </g>
   <g id="patch_68">
    <path d="M 216.818182 576.72 
L 226.963636 576.72 
L 226.963636 526.683055 
L 216.818182 526.683055 
z
" clip-path="url(#p7c6053f90a)" style="fill: #808080; fill-opacity: 0.5; stroke: #000000; stroke-linejoin: miter"/>
   </g>
   <g id="patch_69">
    <path d="M 226.963636 576.72 
L 237.109091 576.72 
L 237.109091 526.036026 
L 226.963636 526.036026 
z
" clip-path="url(#p7c6053f90a)" style="fill: #808080; fill-opacity: 0.5; stroke: #000000; stroke-linejoin: miter"/>
   </g>
   <g id="patch_70">
    <path d="M 237.109091 576.72 
L 247.254545 576.72 
L 247.254545 530.565232 
L 237.109091 530.565232 
z
" clip-path="url(#p7c6053f90a)" style="fill: #808080; fill-opacity: 0.5; stroke: #000000; stroke-linejoin: miter"/>
   </g>
   <g id="patch_71">
    <path d="M 247.254545 576.72 
L 257.4 576.72 
L 257.4 532.937673 
L 247.254545 532.937673 
z
" clip-path="url(#p7c6053f90a)" style="fill: #808080; fill-opacity: 0.5; stroke: #000000; stroke-linejoin: miter"/>
   </g>
   <g id="patch_72">
    <path d="M 257.4 576.72 
L 267.545455 576.72 
L 267.545455 540.054998 
L 257.4 540.054998 
z
" clip-path="url(#p7c6053f90a)" style="fill: #808080; fill-opacity: 0.5; stroke: #000000; stroke-linejoin: miter"/>
   </g>
   <g id="patch_73">
    <path d="M 267.545455 576.72 
L 277.690909 576.72 
L 277.690909 546.201777 
L 267.545455 546.201777 
z
" clip-path="url(#p7c6053f90a)" style="fill: #808080; fill-opacity: 0.5; stroke: #000000; stroke-linejoin: miter"/>
   </g>
   <g id="patch_74">
    <path d="M 277.690909 576.72 
L 287.836364 576.72 
L 287.836364 556.877763 
L 277.690909 556.877763 
z
" clip-path="url(#p7c6053f90a)" style="fill: #808080; fill-opacity: 0.5; stroke: #000000; stroke-linejoin: miter"/>
   </g>
   <g id="patch_75">
    <path d="M 287.836364 576.72 
L 297.981818 576.72 
L 297.981818 561.40697 
L 287.836364 561.40697 
z
" clip-path="url(#p7c6053f90a)" style="fill: #808080; fill-opacity: 0.5; stroke: #000000; stroke-linejoin: miter"/>
   </g>
   <g id="patch_76">
    <path d="M 297.981818 576.72 
L 308.127273 576.72 
L 308.127273 562.59319 
L 297.981818 562.59319 
z
" clip-path="url(#p7c6053f90a)" style="fill: #808080; fill-opacity: 0.5; stroke: #000000; stroke-linejoin: miter"/>
   </g>
   <g id="patch_77">
    <path d="M 308.127273 576.72 
L 318.272727 576.72 
L 318.272727 565.936176 
L 308.127273 565.936176 
z
" clip-path="url(#p7c6053f90a)" style="fill: #808080; fill-opacity: 0.5; stroke: #000000; stroke-linejoin: miter"/>
   </g>
   <g id="patch_78">
    <path d="M 318.272727 576.72 
L 328.418182 576.72 
L 328.418182 563.995087 
L 318.272727 563.995087 
z
" clip-path="url(#p7c6053f90a)" style="fill: #808080; fill-opacity: 0.5; stroke: #000000; stroke-linejoin: miter"/>
   </g>
   <g id="patch_79">
    <path d="M 328.418182 576.72 
L 338.563636 576.72 
L 338.563636 559.034528 
L 328.418182 559.034528 
z
" clip-path="url(#p7c6053f90a)" style="fill: #808080; fill-opacity: 0.5; stroke: #000000; stroke-linejoin: miter"/>
   </g>
   <g id="patch_80">
    <path d="M 338.563636 576.72 
L 348.709091 576.72 
L 348.709091 552.672072 
L 338.563636 552.672072 
z
" clip-path="url(#p7c6053f90a)" style="fill: #808080; fill-opacity: 0.5; stroke: #000000; stroke-linejoin: miter"/>
   </g>
   <g id="patch_81">
    <path d="M 348.709091 576.72 
L 358.854545 576.72 
L 358.854545 541.241218 
L 348.709091 541.241218 
z
" clip-path="url(#p7c6053f90a)" style="fill: #808080; fill-opacity: 0.5; stroke: #000000; stroke-linejoin: miter"/>
   </g>
   <g id="patch_82">
    <path d="M 358.854545 576.72 
L 369 576.72 
L 369 519.781408 
L 358.854545 519.781408 
z
" clip-path="url(#p7c6053f90a)" style="fill: #808080; fill-opacity: 0.5; stroke: #000000; stroke-linejoin: miter"/>
   </g>
   <g id="patch_83">
    <path d="M 369 576.72 
L 379.145455 576.72 
L 379.145455 468.558243 
L 369 468.558243 
z
" clip-path="url(#p7c6053f90a)" style="fill: #808080; fill-opacity: 0.5; stroke: #000000; stroke-linejoin: miter"/>
   </g>
   <g id="patch_84">
    <path d="M 379.145455 576.72 
L 389.290909 576.72 
L 389.290909 398.032032 
L 379.145455 398.032032 
z
" clip-path="url(#p7c6053f90a)" style="fill: #808080; fill-opacity: 0.5; stroke: #000000; stroke-linejoin: miter"/>
   </g>
   <g id="patch_85">
    <path d="M 389.290909 576.72 
L 399.436364 576.72 
L 399.436364 360.72 
L 389.290909 360.72 
z
" clip-path="url(#p7c6053f90a)" style="fill: #808080; fill-opacity: 0.5; stroke: #000000; stroke-linejoin: miter"/>
   </g>
   <g id="patch_86">
    <path d="M 399.436364 576.72 
L 409.581818 576.72 
L 409.581818 377.650604 
L 399.436364 377.650604 
z
" clip-path="url(#p7c6053f90a)" style="fill: #808080; fill-opacity: 0.5; stroke: #000000; stroke-linejoin: miter"/>
   </g>
   <g id="patch_87">
    <path d="M 409.581818 576.72 
L 419.727273 576.72 
L 419.727273 429.412961 
L 409.581818 429.412961 
z
" clip-path="url(#p7c6053f90a)" style="fill: #808080; fill-opacity: 0.5; stroke: #000000; stroke-linejoin: miter"/>
   </g>
   <g id="patch_88">
    <path d="M 419.727273 576.72 
L 429.872727 576.72 
L 429.872727 471.362037 
L 419.727273 471.362037 
z
" clip-path="url(#p7c6053f90a)" style="fill: #808080; fill-opacity: 0.5; stroke: #000000; stroke-linejoin: miter"/>
   </g>
   <g id="patch_89">
    <path d="M 429.872727 576.72 
L 440.018182 576.72 
L 440.018182 498.537274 
L 429.872727 498.537274 
z
" clip-path="url(#p7c6053f90a)" style="fill: #808080; fill-opacity: 0.5; stroke: #000000; stroke-linejoin: miter"/>
   </g>
   <g id="patch_90">
    <path d="M 440.018182 576.72 
L 450.163636 576.72 
L 450.163636 512.124893 
L 440.018182 512.124893 
z
" clip-path="url(#p7c6053f90a)" style="fill: #808080; fill-opacity: 0.5; stroke: #000000; stroke-linejoin: miter"/>
   </g>
   <g id="patch_91">
    <path d="M 450.163636 576.72 
L 460.309091 576.72 
L 460.309091 523.987099 
L 450.163636 523.987099 
z
" clip-path="url(#p7c6053f90a)" style="fill: #808080; fill-opacity: 0.5; stroke: #000000; stroke-linejoin: miter"/>
   </g>
   <g id="patch_92">
    <path d="M 460.309091 576.72 
L 470.454545 576.72 
L 470.454545 535.202277 
L 460.309091 535.202277 
z
" clip-path="url(#p7c6053f90a)" style="fill: #808080; fill-opacity: 0.5; stroke: #000000; stroke-linejoin: miter"/>
   </g>
   <g id="patch_93">
    <path d="M 470.454545 576.72 
L 480.6 576.72 
L 480.6 542.643115 
L 470.454545 542.643115 
z
" clip-path="url(#p7c6053f90a)" style="fill: #808080; fill-opacity: 0.5; stroke: #000000; stroke-linejoin: miter"/>
   </g>
   <g id="patch_94">
    <path d="M 480.6 576.72 
L 490.745455 576.72 
L 490.745455 545.554748 
L 480.6 545.554748 
z
" clip-path="url(#p7c6053f90a)" style="fill: #808080; fill-opacity: 0.5; stroke: #000000; stroke-linejoin: miter"/>
   </g>
   <g id="patch_95">
    <path d="M 490.745455 576.72 
L 500.890909 576.72 
L 500.890909 550.515307 
L 490.745455 550.515307 
z
" clip-path="url(#p7c6053f90a)" style="fill: #808080; fill-opacity: 0.5; stroke: #000000; stroke-linejoin: miter"/>
   </g>
   <g id="patch_96">
    <path d="M 500.890909 576.72 
L 511.036364 576.72 
L 511.036364 553.211263 
L 500.890909 553.211263 
z
" clip-path="url(#p7c6053f90a)" style="fill: #808080; fill-opacity: 0.5; stroke: #000000; stroke-linejoin: miter"/>
   </g>
   <g id="patch_97">
    <path d="M 511.036364 576.72 
L 521.181818 576.72 
L 521.181818 557.309116 
L 511.036364 557.309116 
z
" clip-path="url(#p7c6053f90a)" style="fill: #808080; fill-opacity: 0.5; stroke: #000000; stroke-linejoin: miter"/>
   </g>
   <g id="patch_98">
    <path d="M 521.181818 576.72 
L 531.327273 576.72 
L 531.327273 562.161837 
L 521.181818 562.161837 
z
" clip-path="url(#p7c6053f90a)" style="fill: #808080; fill-opacity: 0.5; stroke: #000000; stroke-linejoin: miter"/>
   </g>
   <g id="patch_99">
    <path d="M 531.327273 576.72 
L 541.472727 576.72 
L 541.472727 568.308617 
L 531.327273 568.308617 
z
" clip-path="url(#p7c6053f90a)" style="fill: #808080; fill-opacity: 0.5; stroke: #000000; stroke-linejoin: miter"/>
   </g>
   <g id="patch_100">
    <path d="M 541.472727 576.72 
L 551.618182 576.72 
L 551.618182 574.131882 
L 541.472727 574.131882 
z
" clip-path="url(#p7c6053f90a)" style="fill: #808080; fill-opacity: 0.5; stroke: #000000; stroke-linejoin: miter"/>
   </g>
   <g id="patch_101">
    <path d="M 551.618182 576.72 
L 561.763636 576.72 
L 561.763636 575.857294 
L 551.618182 575.857294 
z
" clip-path="url(#p7c6053f90a)" style="fill: #808080; fill-opacity: 0.5; stroke: #000000; stroke-linejoin: miter"/>
   </g>
   <g id="patch_102">
    <path d="M 561.763636 576.72 
L 571.909091 576.72 
L 571.909091 576.288647 
L 561.763636 576.288647 
z
" clip-path="url(#p7c6053f90a)" style="fill: #808080; fill-opacity: 0.5; stroke: #000000; stroke-linejoin: miter"/>
   </g>
   <g id="patch_103">
    <path d="M 571.909091 576.72 
L 582.054545 576.72 
L 582.054545 576.72 
L 571.909091 576.72 
z
" clip-path="url(#p7c6053f90a)" style="fill: #808080; fill-opacity: 0.5; stroke: #000000; stroke-linejoin: miter"/>
   </g>
   <g id="patch_104">
    <path d="M 582.054545 576.72 
L 592.2 576.72 
L 592.2 576.72 
L 582.054545 576.72 
z
" clip-path="url(#p7c6053f90a)" style="fill: #808080; fill-opacity: 0.5; stroke: #000000; stroke-linejoin: miter"/>
   </g>
   <g id="patch_105">
    <path d="M 592.2 576.72 
L 602.345455 576.72 
L 602.345455 576.72 
L 592.2 576.72 
z
" clip-path="url(#p7c6053f90a)" style="fill: #808080; fill-opacity: 0.5; stroke: #000000; stroke-linejoin: miter"/>
   </g>
   <g id="patch_106">
    <path d="M 602.345455 576.72 
L 612.490909 576.72 
L 612.490909 576.72 
L 602.345455 576.72 
z
" clip-path="url(#p7c6053f90a)" style="fill: #808080; fill-opacity: 0.5; stroke: #000000; stroke-linejoin: miter"/>
   </g>
   <g id="patch_107">
    <path d="M 612.490909 576.72 
L 622.636364 576.72 
L 622.636364 576.612162 
L 612.490909 576.612162 
z
" clip-path="url(#p7c6053f90a)" style="fill: #808080; fill-opacity: 0.5; stroke: #000000; stroke-linejoin: miter"/>
   </g>
   <g id="matplotlib.axis_3">
    <g id="xtick_9">
     <g id="line2d_19">
      <g>
       <use xlink:href="#md4fbd8c0a7" x="111.32868" y="576.72" style="stroke: #000000; stroke-width: 0.8"/>
      </g>
     </g>
     <g id="text_20">
      <!-- 15 -->
      <g transform="translate(104.96618 591.318438) scale(0.1 -0.1)">
       <use xlink:href="#DejaVuSans-31"/>
       <use xlink:href="#DejaVuSans-35" transform="translate(63.623047 0)"/>
      </g>
     </g>
    </g>
    <g id="xtick_10">
     <g id="line2d_20">
      <g>
       <use xlink:href="#md4fbd8c0a7" x="185.869882" y="576.72" style="stroke: #000000; stroke-width: 0.8"/>
      </g>
     </g>
     <g id="text_21">
      <!-- 20 -->
      <g transform="translate(179.507382 591.318438) scale(0.1 -0.1)">
       <use xlink:href="#DejaVuSans-32"/>
       <use xlink:href="#DejaVuSans-30" transform="translate(63.623047 0)"/>
      </g>
     </g>
    </g>
    <g id="xtick_11">
     <g id="line2d_21">
      <g>
       <use xlink:href="#md4fbd8c0a7" x="260.411083" y="576.72" style="stroke: #000000; stroke-width: 0.8"/>
      </g>
     </g>
     <g id="text_22">
      <!-- 25 -->
      <g transform="translate(254.048583 591.318438) scale(0.1 -0.1)">
       <use xlink:href="#DejaVuSans-32"/>
       <use xlink:href="#DejaVuSans-35" transform="translate(63.623047 0)"/>
      </g>
     </g>
    </g>
    <g id="xtick_12">
     <g id="line2d_22">
      <g>
       <use xlink:href="#md4fbd8c0a7" x="334.952285" y="576.72" style="stroke: #000000; stroke-width: 0.8"/>
      </g>
     </g>
     <g id="text_23">
      <!-- 30 -->
      <g transform="translate(328.589785 591.318438) scale(0.1 -0.1)">
       <use xlink:href="#DejaVuSans-33"/>
       <use xlink:href="#DejaVuSans-30" transform="translate(63.623047 0)"/>
      </g>
     </g>
    </g>
    <g id="xtick_13">
     <g id="line2d_23">
      <g>
       <use xlink:href="#md4fbd8c0a7" x="409.493487" y="576.72" style="stroke: #000000; stroke-width: 0.8"/>
      </g>
     </g>
     <g id="text_24">
      <!-- 35 -->
      <g transform="translate(403.130987 591.318438) scale(0.1 -0.1)">
       <use xlink:href="#DejaVuSans-33"/>
       <use xlink:href="#DejaVuSans-35" transform="translate(63.623047 0)"/>
      </g>
     </g>
    </g>
    <g id="xtick_14">
     <g id="line2d_24">
      <g>
       <use xlink:href="#md4fbd8c0a7" x="484.034689" y="576.72" style="stroke: #000000; stroke-width: 0.8"/>
      </g>
     </g>
     <g id="text_25">
      <!-- 40 -->
      <g transform="translate(477.672189 591.318438) scale(0.1 -0.1)">
       <use xlink:href="#DejaVuSans-34"/>
       <use xlink:href="#DejaVuSans-30" transform="translate(63.623047 0)"/>
      </g>
     </g>
    </g>
    <g id="xtick_15">
     <g id="line2d_25">
      <g>
       <use xlink:href="#md4fbd8c0a7" x="558.575891" y="576.72" style="stroke: #000000; stroke-width: 0.8"/>
      </g>
     </g>
     <g id="text_26">
      <!-- 45 -->
      <g transform="translate(552.213391 591.318438) scale(0.1 -0.1)">
       <use xlink:href="#DejaVuSans-34"/>
       <use xlink:href="#DejaVuSans-35" transform="translate(63.623047 0)"/>
      </g>
     </g>
    </g>
    <g id="xtick_16">
     <g id="line2d_26">
      <g>
       <use xlink:href="#md4fbd8c0a7" x="633.117093" y="576.72" style="stroke: #000000; stroke-width: 0.8"/>
      </g>
     </g>
     <g id="text_27">
      <!-- 50 -->
      <g transform="translate(626.754593 591.318438) scale(0.1 -0.1)">
       <use xlink:href="#DejaVuSans-35"/>
       <use xlink:href="#DejaVuSans-30" transform="translate(63.623047 0)"/>
      </g>
     </g>
    </g>
    <g id="text_28">
     <!-- ch5_area -->
     <g transform="translate(346.253125 604.996562) scale(0.1 -0.1)">
      <use xlink:href="#DejaVuSans-63"/>
      <use xlink:href="#DejaVuSans-68" transform="translate(54.980469 0)"/>
      <use xlink:href="#DejaVuSans-35" transform="translate(118.359375 0)"/>
      <use xlink:href="#DejaVuSans-5f" transform="translate(181.982422 0)"/>
      <use xlink:href="#DejaVuSans-61" transform="translate(231.982422 0)"/>
      <use xlink:href="#DejaVuSans-72" transform="translate(293.261719 0)"/>
      <use xlink:href="#DejaVuSans-65" transform="translate(332.125 0)"/>
      <use xlink:href="#DejaVuSans-61" transform="translate(393.648438 0)"/>
     </g>
    </g>
   </g>
   <g id="matplotlib.axis_4">
    <g id="ytick_10">
     <g id="line2d_27">
      <g>
       <use xlink:href="#m4bf016ef42" x="90" y="576.72" style="stroke: #000000; stroke-width: 0.8"/>
      </g>
     </g>
     <g id="text_29">
      <!-- 0 -->
      <g transform="translate(76.6375 580.519219) scale(0.1 -0.1)">
       <use xlink:href="#DejaVuSans-30"/>
      </g>
     </g>
    </g>
    <g id="ytick_11">
     <g id="line2d_28">
      <g>
       <use xlink:href="#m4bf016ef42" x="90" y="549.760439" style="stroke: #000000; stroke-width: 0.8"/>
      </g>
     </g>
     <g id="text_30">
      <!-- 250 -->
      <g transform="translate(63.9125 553.559658) scale(0.1 -0.1)">
       <use xlink:href="#DejaVuSans-32"/>
       <use xlink:href="#DejaVuSans-35" transform="translate(63.623047 0)"/>
       <use xlink:href="#DejaVuSans-30" transform="translate(127.246094 0)"/>
      </g>
     </g>
    </g>
    <g id="ytick_12">
     <g id="line2d_29">
      <g>
       <use xlink:href="#m4bf016ef42" x="90" y="522.800879" style="stroke: #000000; stroke-width: 0.8"/>
      </g>
     </g>
     <g id="text_31">
      <!-- 500 -->
      <g transform="translate(63.9125 526.600097) scale(0.1 -0.1)">
       <use xlink:href="#DejaVuSans-35"/>
       <use xlink:href="#DejaVuSans-30" transform="translate(63.623047 0)"/>
       <use xlink:href="#DejaVuSans-30" transform="translate(127.246094 0)"/>
      </g>
     </g>
    </g>
    <g id="ytick_13">
     <g id="line2d_30">
      <g>
       <use xlink:href="#m4bf016ef42" x="90" y="495.841318" style="stroke: #000000; stroke-width: 0.8"/>
      </g>
     </g>
     <g id="text_32">
      <!-- 750 -->
      <g transform="translate(63.9125 499.640537) scale(0.1 -0.1)">
       <defs>
        <path id="DejaVuSans-37" d="M 525 4666 
L 3525 4666 
L 3525 4397 
L 1831 0 
L 1172 0 
L 2766 4134 
L 525 4134 
L 525 4666 
z
" transform="scale(0.015625)"/>
       </defs>
       <use xlink:href="#DejaVuSans-37"/>
       <use xlink:href="#DejaVuSans-35" transform="translate(63.623047 0)"/>
       <use xlink:href="#DejaVuSans-30" transform="translate(127.246094 0)"/>
      </g>
     </g>
    </g>
    <g id="ytick_14">
     <g id="line2d_31">
      <g>
       <use xlink:href="#m4bf016ef42" x="90" y="468.881757" style="stroke: #000000; stroke-width: 0.8"/>
      </g>
     </g>
     <g id="text_33">
      <!-- 1000 -->
      <g transform="translate(57.55 472.680976) scale(0.1 -0.1)">
       <use xlink:href="#DejaVuSans-31"/>
       <use xlink:href="#DejaVuSans-30" transform="translate(63.623047 0)"/>
       <use xlink:href="#DejaVuSans-30" transform="translate(127.246094 0)"/>
       <use xlink:href="#DejaVuSans-30" transform="translate(190.869141 0)"/>
      </g>
     </g>
    </g>
    <g id="ytick_15">
     <g id="line2d_32">
      <g>
       <use xlink:href="#m4bf016ef42" x="90" y="441.922197" style="stroke: #000000; stroke-width: 0.8"/>
      </g>
     </g>
     <g id="text_34">
      <!-- 1250 -->
      <g transform="translate(57.55 445.721415) scale(0.1 -0.1)">
       <use xlink:href="#DejaVuSans-31"/>
       <use xlink:href="#DejaVuSans-32" transform="translate(63.623047 0)"/>
       <use xlink:href="#DejaVuSans-35" transform="translate(127.246094 0)"/>
       <use xlink:href="#DejaVuSans-30" transform="translate(190.869141 0)"/>
      </g>
     </g>
    </g>
    <g id="ytick_16">
     <g id="line2d_33">
      <g>
       <use xlink:href="#m4bf016ef42" x="90" y="414.962636" style="stroke: #000000; stroke-width: 0.8"/>
      </g>
     </g>
     <g id="text_35">
      <!-- 1500 -->
      <g transform="translate(57.55 418.761855) scale(0.1 -0.1)">
       <use xlink:href="#DejaVuSans-31"/>
       <use xlink:href="#DejaVuSans-35" transform="translate(63.623047 0)"/>
       <use xlink:href="#DejaVuSans-30" transform="translate(127.246094 0)"/>
       <use xlink:href="#DejaVuSans-30" transform="translate(190.869141 0)"/>
      </g>
     </g>
    </g>
    <g id="ytick_17">
     <g id="line2d_34">
      <g>
       <use xlink:href="#m4bf016ef42" x="90" y="388.003075" style="stroke: #000000; stroke-width: 0.8"/>
      </g>
     </g>
     <g id="text_36">
      <!-- 1750 -->
      <g transform="translate(57.55 391.802294) scale(0.1 -0.1)">
       <use xlink:href="#DejaVuSans-31"/>
       <use xlink:href="#DejaVuSans-37" transform="translate(63.623047 0)"/>
       <use xlink:href="#DejaVuSans-35" transform="translate(127.246094 0)"/>
       <use xlink:href="#DejaVuSans-30" transform="translate(190.869141 0)"/>
      </g>
     </g>
    </g>
    <g id="ytick_18">
     <g id="line2d_35">
      <g>
       <use xlink:href="#m4bf016ef42" x="90" y="361.043515" style="stroke: #000000; stroke-width: 0.8"/>
      </g>
     </g>
     <g id="text_37">
      <!-- 2000 -->
      <g transform="translate(57.55 364.842733) scale(0.1 -0.1)">
       <use xlink:href="#DejaVuSans-32"/>
       <use xlink:href="#DejaVuSans-30" transform="translate(63.623047 0)"/>
       <use xlink:href="#DejaVuSans-30" transform="translate(127.246094 0)"/>
       <use xlink:href="#DejaVuSans-30" transform="translate(190.869141 0)"/>
      </g>
     </g>
    </g>
    <g id="text_38">
     <!-- Count -->
     <g transform="translate(51.470312 478.168437) rotate(-90) scale(0.1 -0.1)">
      <use xlink:href="#DejaVuSans-43"/>
      <use xlink:href="#DejaVuSans-6f" transform="translate(69.824219 0)"/>
      <use xlink:href="#DejaVuSans-75" transform="translate(131.005859 0)"/>
      <use xlink:href="#DejaVuSans-6e" transform="translate(194.384766 0)"/>
      <use xlink:href="#DejaVuSans-74" transform="translate(257.763672 0)"/>
     </g>
    </g>
   </g>
   <g id="LineCollection_2">
    <path d="M 334.730675 576.72 
L 334.730675 576.703863 
" clip-path="url(#p7c6053f90a)" style="fill: none; stroke: #ff0000; stroke-width: 1.5"/>
    <path d="M 394.363636 576.72 
L 394.363636 576.703863 
" clip-path="url(#p7c6053f90a)" style="fill: none; stroke: #ff0000; stroke-width: 1.5"/>
    <path d="M 453.996598 576.72 
L 453.996598 576.703863 
" clip-path="url(#p7c6053f90a)" style="fill: none; stroke: #ff0000; stroke-width: 1.5"/>
   </g>
   <g id="line2d_36">
    <path d="M 334.730675 571.885357 
L 336.881764 570.539353 
L 338.793843 569.084664 
L 340.705921 567.349192 
L 342.618 565.294358 
L 344.530079 562.87991 
L 346.442158 560.06472 
L 348.354237 556.807783 
L 350.266316 553.069408 
L 352.178395 548.812617 
L 354.090474 544.0047 
L 356.002553 538.618909 
L 358.153642 531.845855 
L 360.30473 524.305205 
L 362.694829 515.034457 
L 365.084928 504.863325 
L 367.714036 492.72676 
L 370.821165 477.314764 
L 375.123342 454.733769 
L 381.576609 420.888586 
L 384.444727 407.084803 
L 386.834826 396.69075 
L 388.746905 389.30524 
L 390.419974 383.63529 
L 391.854033 379.428231 
L 393.288092 375.871049 
L 394.483141 373.430876 
L 395.678191 371.486961 
L 396.63423 370.29916 
L 397.59027 369.444257 
L 398.546309 368.926435 
L 399.263339 368.760867 
L 399.980368 368.786827 
L 400.697398 369.004242 
L 401.414427 369.412514 
L 402.370467 370.251739 
L 403.326506 371.424095 
L 404.282546 372.923862 
L 405.477595 375.247754 
L 406.672644 378.054223 
L 408.106704 382.029235 
L 409.779773 387.449967 
L 411.452842 393.640409 
L 413.364921 401.546904 
L 415.755019 412.471829 
L 418.623138 426.726695 
L 423.164325 450.667832 
L 428.900562 480.732554 
L 432.2467 497.038154 
L 435.114819 509.867194 
L 437.504917 519.612104 
L 439.895016 528.43337 
L 442.046105 535.563028 
L 444.197193 541.929646 
L 446.348282 547.554247 
L 448.260361 551.958672 
L 450.17244 555.835246 
L 452.084519 559.219942 
L 453.996598 562.151853 
L 453.996598 562.151853 
" clip-path="url(#p7c6053f90a)" style="fill: none; stroke-dasharray: 5.55,2.4; stroke-dashoffset: 0; stroke: #ff0000; stroke-width: 1.5"/>
   </g>
   <g id="patch_108">
    <path d="M 90 576.72 
L 90 349.92 
" style="fill: none; stroke: #000000; stroke-width: 0.8; stroke-linejoin: miter; stroke-linecap: square"/>
   </g>
   <g id="patch_109">
    <path d="M 648 576.72 
L 648 349.92 
" style="fill: none; stroke: #000000; stroke-width: 0.8; stroke-linejoin: miter; stroke-linecap: square"/>
   </g>
   <g id="patch_110">
    <path d="M 90 576.72 
L 648 576.72 
" style="fill: none; stroke: #000000; stroke-width: 0.8; stroke-linejoin: miter; stroke-linecap: square"/>
   </g>
   <g id="patch_111">
    <path d="M 90 349.92 
L 648 349.92 
" style="fill: none; stroke: #000000; stroke-width: 0.8; stroke-linejoin: miter; stroke-linecap: square"/>
   </g>
  </g>
 </g>
 <defs>
  <clipPath id="p4af9d8f04c">
   <rect x="90" y="77.76" width="558" height="226.8"/>
  </clipPath>
  <clipPath id="p7c6053f90a">
   <rect x="90" y="349.92" width="558" height="226.8"/>
  </clipPath>
 </defs>
</svg>
