<?xml version="1.0" encoding="utf-8" standalone="no"?>
<!DOCTYPE svg PUBLIC "-//W3C//DTD SVG 1.1//EN"
  "http://www.w3.org/Graphics/SVG/1.1/DTD/svg11.dtd">
<svg xmlns:xlink="http://www.w3.org/1999/xlink" width="432pt" height="432pt" viewBox="0 0 432 432" xmlns="http://www.w3.org/2000/svg" version="1.1">
 <metadata>
  <rdf:RDF xmlns:dc="http://purl.org/dc/elements/1.1/" xmlns:cc="http://creativecommons.org/ns#" xmlns:rdf="http://www.w3.org/1999/02/22-rdf-syntax-ns#">
   <cc:Work>
    <dc:type rdf:resource="http://purl.org/dc/dcmitype/StillImage"/>
    <dc:date>2025-05-16T09:52:09.767779</dc:date>
    <dc:format>image/svg+xml</dc:format>
    <dc:creator>
     <cc:Agent>
      <dc:title>Matplotlib v3.8.3, https://matplotlib.org/</dc:title>
     </cc:Agent>
    </dc:creator>
   </cc:Work>
  </rdf:RDF>
 </metadata>
 <defs>
  <style type="text/css">*{stroke-linejoin: round; stroke-linecap: butt}</style>
 </defs>
 <g id="figure_1">
  <g id="patch_1">
   <path d="M 0 432 
L 432 432 
L 432 0 
L 0 0 
z
" style="fill: #ffffff"/>
  </g>
  <g id="axes_1">
   <g id="patch_2">
    <path d="M 54 384.48 
L 388.8 384.48 
L 388.8 51.84 
L 54 51.84 
z
" style="fill: #ffffff"/>
   </g>
   <g id="matplotlib.axis_1">
    <g id="xtick_1">
     <g id="line2d_1">
      <defs>
       <path id="m64a5f56535" d="M 0 0 
L 0 3.5 
" style="stroke: #000000; stroke-width: 0.8"/>
      </defs>
      <g>
       <use xlink:href="#m64a5f56535" x="109.8" y="384.48" style="stroke: #000000; stroke-width: 0.8"/>
      </g>
     </g>
     <g id="text_1">
      <!-- 400 -->
      <g transform="translate(100.25625 399.078438) scale(0.1 -0.1)">
       <defs>
        <path id="DejaVuSans-34" d="M 2419 4116 
L 825 1625 
L 2419 1625 
L 2419 4116 
z
M 2253 4666 
L 3047 4666 
L 3047 1625 
L 3713 1625 
L 3713 1100 
L 3047 1100 
L 3047 0 
L 2419 0 
L 2419 1100 
L 313 1100 
L 313 1709 
L 2253 4666 
z
" transform="scale(0.015625)"/>
        <path id="DejaVuSans-30" d="M 2034 4250 
Q 1547 4250 1301 3770 
Q 1056 3291 1056 2328 
Q 1056 1369 1301 889 
Q 1547 409 2034 409 
Q 2525 409 2770 889 
Q 3016 1369 3016 2328 
Q 3016 3291 2770 3770 
Q 2525 4250 2034 4250 
z
M 2034 4750 
Q 2819 4750 3233 4129 
Q 3647 3509 3647 2328 
Q 3647 1150 3233 529 
Q 2819 -91 2034 -91 
Q 1250 -91 836 529 
Q 422 1150 422 2328 
Q 422 3509 836 4129 
Q 1250 4750 2034 4750 
z
" transform="scale(0.015625)"/>
       </defs>
       <use xlink:href="#DejaVuSans-34"/>
       <use xlink:href="#DejaVuSans-30" x="63.623047"/>
       <use xlink:href="#DejaVuSans-30" x="127.246094"/>
      </g>
     </g>
    </g>
    <g id="xtick_2">
     <g id="line2d_2">
      <g>
       <use xlink:href="#m64a5f56535" x="179.55" y="384.48" style="stroke: #000000; stroke-width: 0.8"/>
      </g>
     </g>
     <g id="text_2">
      <!-- 500 -->
      <g transform="translate(170.00625 399.078438) scale(0.1 -0.1)">
       <defs>
        <path id="DejaVuSans-35" d="M 691 4666 
L 3169 4666 
L 3169 4134 
L 1269 4134 
L 1269 2991 
Q 1406 3038 1543 3061 
Q 1681 3084 1819 3084 
Q 2600 3084 3056 2656 
Q 3513 2228 3513 1497 
Q 3513 744 3044 326 
Q 2575 -91 1722 -91 
Q 1428 -91 1123 -41 
Q 819 9 494 109 
L 494 744 
Q 775 591 1075 516 
Q 1375 441 1709 441 
Q 2250 441 2565 725 
Q 2881 1009 2881 1497 
Q 2881 1984 2565 2268 
Q 2250 2553 1709 2553 
Q 1456 2553 1204 2497 
Q 953 2441 691 2322 
L 691 4666 
z
" transform="scale(0.015625)"/>
       </defs>
       <use xlink:href="#DejaVuSans-35"/>
       <use xlink:href="#DejaVuSans-30" x="63.623047"/>
       <use xlink:href="#DejaVuSans-30" x="127.246094"/>
      </g>
     </g>
    </g>
    <g id="xtick_3">
     <g id="line2d_3">
      <g>
       <use xlink:href="#m64a5f56535" x="249.3" y="384.48" style="stroke: #000000; stroke-width: 0.8"/>
      </g>
     </g>
     <g id="text_3">
      <!-- 600 -->
      <g transform="translate(239.75625 399.078438) scale(0.1 -0.1)">
       <defs>
        <path id="DejaVuSans-36" d="M 2113 2584 
Q 1688 2584 1439 2293 
Q 1191 2003 1191 1497 
Q 1191 994 1439 701 
Q 1688 409 2113 409 
Q 2538 409 2786 701 
Q 3034 994 3034 1497 
Q 3034 2003 2786 2293 
Q 2538 2584 2113 2584 
z
M 3366 4563 
L 3366 3988 
Q 3128 4100 2886 4159 
Q 2644 4219 2406 4219 
Q 1781 4219 1451 3797 
Q 1122 3375 1075 2522 
Q 1259 2794 1537 2939 
Q 1816 3084 2150 3084 
Q 2853 3084 3261 2657 
Q 3669 2231 3669 1497 
Q 3669 778 3244 343 
Q 2819 -91 2113 -91 
Q 1303 -91 875 529 
Q 447 1150 447 2328 
Q 447 3434 972 4092 
Q 1497 4750 2381 4750 
Q 2619 4750 2861 4703 
Q 3103 4656 3366 4563 
z
" transform="scale(0.015625)"/>
       </defs>
       <use xlink:href="#DejaVuSans-36"/>
       <use xlink:href="#DejaVuSans-30" x="63.623047"/>
       <use xlink:href="#DejaVuSans-30" x="127.246094"/>
      </g>
     </g>
    </g>
    <g id="xtick_4">
     <g id="line2d_4">
      <g>
       <use xlink:href="#m64a5f56535" x="319.05" y="384.48" style="stroke: #000000; stroke-width: 0.8"/>
      </g>
     </g>
     <g id="text_4">
      <!-- 700 -->
      <g transform="translate(309.50625 399.078438) scale(0.1 -0.1)">
       <defs>
        <path id="DejaVuSans-37" d="M 525 4666 
L 3525 4666 
L 3525 4397 
L 1831 0 
L 1172 0 
L 2766 4134 
L 525 4134 
L 525 4666 
z
" transform="scale(0.015625)"/>
       </defs>
       <use xlink:href="#DejaVuSans-37"/>
       <use xlink:href="#DejaVuSans-30" x="63.623047"/>
       <use xlink:href="#DejaVuSans-30" x="127.246094"/>
      </g>
     </g>
    </g>
    <g id="xtick_5">
     <g id="line2d_5">
      <g>
       <use xlink:href="#m64a5f56535" x="388.8" y="384.48" style="stroke: #000000; stroke-width: 0.8"/>
      </g>
     </g>
     <g id="text_5">
      <!-- 800 -->
      <g transform="translate(379.25625 399.078438) scale(0.1 -0.1)">
       <defs>
        <path id="DejaVuSans-38" d="M 2034 2216 
Q 1584 2216 1326 1975 
Q 1069 1734 1069 1313 
Q 1069 891 1326 650 
Q 1584 409 2034 409 
Q 2484 409 2743 651 
Q 3003 894 3003 1313 
Q 3003 1734 2745 1975 
Q 2488 2216 2034 2216 
z
M 1403 2484 
Q 997 2584 770 2862 
Q 544 3141 544 3541 
Q 544 4100 942 4425 
Q 1341 4750 2034 4750 
Q 2731 4750 3128 4425 
Q 3525 4100 3525 3541 
Q 3525 3141 3298 2862 
Q 3072 2584 2669 2484 
Q 3125 2378 3379 2068 
Q 3634 1759 3634 1313 
Q 3634 634 3220 271 
Q 2806 -91 2034 -91 
Q 1263 -91 848 271 
Q 434 634 434 1313 
Q 434 1759 690 2068 
Q 947 2378 1403 2484 
z
M 1172 3481 
Q 1172 3119 1398 2916 
Q 1625 2713 2034 2713 
Q 2441 2713 2670 2916 
Q 2900 3119 2900 3481 
Q 2900 3844 2670 4047 
Q 2441 4250 2034 4250 
Q 1625 4250 1398 4047 
Q 1172 3844 1172 3481 
z
" transform="scale(0.015625)"/>
       </defs>
       <use xlink:href="#DejaVuSans-38"/>
       <use xlink:href="#DejaVuSans-30" x="63.623047"/>
       <use xlink:href="#DejaVuSans-30" x="127.246094"/>
      </g>
     </g>
    </g>
    <g id="text_6">
     <!-- Wavelength (nm) -->
     <g transform="translate(169.569375 414.27625) scale(0.12 -0.12)">
      <defs>
       <path id="DejaVuSans-57" d="M 213 4666 
L 850 4666 
L 1831 722 
L 2809 4666 
L 3519 4666 
L 4500 722 
L 5478 4666 
L 6119 4666 
L 4947 0 
L 4153 0 
L 3169 4050 
L 2175 0 
L 1381 0 
L 213 4666 
z
" transform="scale(0.015625)"/>
       <path id="DejaVuSans-61" d="M 2194 1759 
Q 1497 1759 1228 1600 
Q 959 1441 959 1056 
Q 959 750 1161 570 
Q 1363 391 1709 391 
Q 2188 391 2477 730 
Q 2766 1069 2766 1631 
L 2766 1759 
L 2194 1759 
z
M 3341 1997 
L 3341 0 
L 2766 0 
L 2766 531 
Q 2569 213 2275 61 
Q 1981 -91 1556 -91 
Q 1019 -91 701 211 
Q 384 513 384 1019 
Q 384 1609 779 1909 
Q 1175 2209 1959 2209 
L 2766 2209 
L 2766 2266 
Q 2766 2663 2505 2880 
Q 2244 3097 1772 3097 
Q 1472 3097 1187 3025 
Q 903 2953 641 2809 
L 641 3341 
Q 956 3463 1253 3523 
Q 1550 3584 1831 3584 
Q 2591 3584 2966 3190 
Q 3341 2797 3341 1997 
z
" transform="scale(0.015625)"/>
       <path id="DejaVuSans-76" d="M 191 3500 
L 800 3500 
L 1894 563 
L 2988 3500 
L 3597 3500 
L 2284 0 
L 1503 0 
L 191 3500 
z
" transform="scale(0.015625)"/>
       <path id="DejaVuSans-65" d="M 3597 1894 
L 3597 1613 
L 953 1613 
Q 991 1019 1311 708 
Q 1631 397 2203 397 
Q 2534 397 2845 478 
Q 3156 559 3463 722 
L 3463 178 
Q 3153 47 2828 -22 
Q 2503 -91 2169 -91 
Q 1331 -91 842 396 
Q 353 884 353 1716 
Q 353 2575 817 3079 
Q 1281 3584 2069 3584 
Q 2775 3584 3186 3129 
Q 3597 2675 3597 1894 
z
M 3022 2063 
Q 3016 2534 2758 2815 
Q 2500 3097 2075 3097 
Q 1594 3097 1305 2825 
Q 1016 2553 972 2059 
L 3022 2063 
z
" transform="scale(0.015625)"/>
       <path id="DejaVuSans-6c" d="M 603 4863 
L 1178 4863 
L 1178 0 
L 603 0 
L 603 4863 
z
" transform="scale(0.015625)"/>
       <path id="DejaVuSans-6e" d="M 3513 2113 
L 3513 0 
L 2938 0 
L 2938 2094 
Q 2938 2591 2744 2837 
Q 2550 3084 2163 3084 
Q 1697 3084 1428 2787 
Q 1159 2491 1159 1978 
L 1159 0 
L 581 0 
L 581 3500 
L 1159 3500 
L 1159 2956 
Q 1366 3272 1645 3428 
Q 1925 3584 2291 3584 
Q 2894 3584 3203 3211 
Q 3513 2838 3513 2113 
z
" transform="scale(0.015625)"/>
       <path id="DejaVuSans-67" d="M 2906 1791 
Q 2906 2416 2648 2759 
Q 2391 3103 1925 3103 
Q 1463 3103 1205 2759 
Q 947 2416 947 1791 
Q 947 1169 1205 825 
Q 1463 481 1925 481 
Q 2391 481 2648 825 
Q 2906 1169 2906 1791 
z
M 3481 434 
Q 3481 -459 3084 -895 
Q 2688 -1331 1869 -1331 
Q 1566 -1331 1297 -1286 
Q 1028 -1241 775 -1147 
L 775 -588 
Q 1028 -725 1275 -790 
Q 1522 -856 1778 -856 
Q 2344 -856 2625 -561 
Q 2906 -266 2906 331 
L 2906 616 
Q 2728 306 2450 153 
Q 2172 0 1784 0 
Q 1141 0 747 490 
Q 353 981 353 1791 
Q 353 2603 747 3093 
Q 1141 3584 1784 3584 
Q 2172 3584 2450 3431 
Q 2728 3278 2906 2969 
L 2906 3500 
L 3481 3500 
L 3481 434 
z
" transform="scale(0.015625)"/>
       <path id="DejaVuSans-74" d="M 1172 4494 
L 1172 3500 
L 2356 3500 
L 2356 3053 
L 1172 3053 
L 1172 1153 
Q 1172 725 1289 603 
Q 1406 481 1766 481 
L 2356 481 
L 2356 0 
L 1766 0 
Q 1100 0 847 248 
Q 594 497 594 1153 
L 594 3053 
L 172 3053 
L 172 3500 
L 594 3500 
L 594 4494 
L 1172 4494 
z
" transform="scale(0.015625)"/>
       <path id="DejaVuSans-68" d="M 3513 2113 
L 3513 0 
L 2938 0 
L 2938 2094 
Q 2938 2591 2744 2837 
Q 2550 3084 2163 3084 
Q 1697 3084 1428 2787 
Q 1159 2491 1159 1978 
L 1159 0 
L 581 0 
L 581 4863 
L 1159 4863 
L 1159 2956 
Q 1366 3272 1645 3428 
Q 1925 3584 2291 3584 
Q 2894 3584 3203 3211 
Q 3513 2838 3513 2113 
z
" transform="scale(0.015625)"/>
       <path id="DejaVuSans-20" transform="scale(0.015625)"/>
       <path id="DejaVuSans-28" d="M 1984 4856 
Q 1566 4138 1362 3434 
Q 1159 2731 1159 2009 
Q 1159 1288 1364 580 
Q 1569 -128 1984 -844 
L 1484 -844 
Q 1016 -109 783 600 
Q 550 1309 550 2009 
Q 550 2706 781 3412 
Q 1013 4119 1484 4856 
L 1984 4856 
z
" transform="scale(0.015625)"/>
       <path id="DejaVuSans-6d" d="M 3328 2828 
Q 3544 3216 3844 3400 
Q 4144 3584 4550 3584 
Q 5097 3584 5394 3201 
Q 5691 2819 5691 2113 
L 5691 0 
L 5113 0 
L 5113 2094 
Q 5113 2597 4934 2840 
Q 4756 3084 4391 3084 
Q 3944 3084 3684 2787 
Q 3425 2491 3425 1978 
L 3425 0 
L 2847 0 
L 2847 2094 
Q 2847 2600 2669 2842 
Q 2491 3084 2119 3084 
Q 1678 3084 1418 2786 
Q 1159 2488 1159 1978 
L 1159 0 
L 581 0 
L 581 3500 
L 1159 3500 
L 1159 2956 
Q 1356 3278 1631 3431 
Q 1906 3584 2284 3584 
Q 2666 3584 2933 3390 
Q 3200 3197 3328 2828 
z
" transform="scale(0.015625)"/>
       <path id="DejaVuSans-29" d="M 513 4856 
L 1013 4856 
Q 1481 4119 1714 3412 
Q 1947 2706 1947 2009 
Q 1947 1309 1714 600 
Q 1481 -109 1013 -844 
L 513 -844 
Q 928 -128 1133 580 
Q 1338 1288 1338 2009 
Q 1338 2731 1133 3434 
Q 928 4138 513 4856 
z
" transform="scale(0.015625)"/>
      </defs>
      <use xlink:href="#DejaVuSans-57"/>
      <use xlink:href="#DejaVuSans-61" x="92.501953"/>
      <use xlink:href="#DejaVuSans-76" x="153.78125"/>
      <use xlink:href="#DejaVuSans-65" x="212.960938"/>
      <use xlink:href="#DejaVuSans-6c" x="274.484375"/>
      <use xlink:href="#DejaVuSans-65" x="302.267578"/>
      <use xlink:href="#DejaVuSans-6e" x="363.791016"/>
      <use xlink:href="#DejaVuSans-67" x="427.169922"/>
      <use xlink:href="#DejaVuSans-74" x="490.646484"/>
      <use xlink:href="#DejaVuSans-68" x="529.855469"/>
      <use xlink:href="#DejaVuSans-20" x="593.234375"/>
      <use xlink:href="#DejaVuSans-28" x="625.021484"/>
      <use xlink:href="#DejaVuSans-6e" x="664.035156"/>
      <use xlink:href="#DejaVuSans-6d" x="727.414062"/>
      <use xlink:href="#DejaVuSans-29" x="824.826172"/>
     </g>
    </g>
   </g>
   <g id="matplotlib.axis_2">
    <g id="ytick_1">
     <g id="line2d_6">
      <defs>
       <path id="m52e705a4e8" d="M 0 0 
L -3.5 0 
" style="stroke: #000000; stroke-width: 0.8"/>
      </defs>
      <g>
       <use xlink:href="#m52e705a4e8" x="54" y="318.085123" style="stroke: #000000; stroke-width: 0.8"/>
      </g>
     </g>
     <g id="text_7">
      <!-- 20 -->
      <g transform="translate(34.275 321.884341) scale(0.1 -0.1)">
       <defs>
        <path id="DejaVuSans-32" d="M 1228 531 
L 3431 531 
L 3431 0 
L 469 0 
L 469 531 
Q 828 903 1448 1529 
Q 2069 2156 2228 2338 
Q 2531 2678 2651 2914 
Q 2772 3150 2772 3378 
Q 2772 3750 2511 3984 
Q 2250 4219 1831 4219 
Q 1534 4219 1204 4116 
Q 875 4013 500 3803 
L 500 4441 
Q 881 4594 1212 4672 
Q 1544 4750 1819 4750 
Q 2544 4750 2975 4387 
Q 3406 4025 3406 3419 
Q 3406 3131 3298 2873 
Q 3191 2616 2906 2266 
Q 2828 2175 2409 1742 
Q 1991 1309 1228 531 
z
" transform="scale(0.015625)"/>
       </defs>
       <use xlink:href="#DejaVuSans-32"/>
       <use xlink:href="#DejaVuSans-30" x="63.623047"/>
      </g>
     </g>
    </g>
    <g id="ytick_2">
     <g id="line2d_7">
      <g>
       <use xlink:href="#m52e705a4e8" x="54" y="251.523842" style="stroke: #000000; stroke-width: 0.8"/>
      </g>
     </g>
     <g id="text_8">
      <!-- 40 -->
      <g transform="translate(34.275 255.323061) scale(0.1 -0.1)">
       <use xlink:href="#DejaVuSans-34"/>
       <use xlink:href="#DejaVuSans-30" x="63.623047"/>
      </g>
     </g>
    </g>
    <g id="ytick_3">
     <g id="line2d_8">
      <g>
       <use xlink:href="#m52e705a4e8" x="54" y="184.962561" style="stroke: #000000; stroke-width: 0.8"/>
      </g>
     </g>
     <g id="text_9">
      <!-- 60 -->
      <g transform="translate(34.275 188.76178) scale(0.1 -0.1)">
       <use xlink:href="#DejaVuSans-36"/>
       <use xlink:href="#DejaVuSans-30" x="63.623047"/>
      </g>
     </g>
    </g>
    <g id="ytick_4">
     <g id="line2d_9">
      <g>
       <use xlink:href="#m52e705a4e8" x="54" y="118.401281" style="stroke: #000000; stroke-width: 0.8"/>
      </g>
     </g>
     <g id="text_10">
      <!-- 80 -->
      <g transform="translate(34.275 122.200499) scale(0.1 -0.1)">
       <use xlink:href="#DejaVuSans-38"/>
       <use xlink:href="#DejaVuSans-30" x="63.623047"/>
      </g>
     </g>
    </g>
    <g id="ytick_5">
     <g id="line2d_10">
      <g>
       <use xlink:href="#m52e705a4e8" x="54" y="51.84" style="stroke: #000000; stroke-width: 0.8"/>
      </g>
     </g>
     <g id="text_11">
      <!-- 100 -->
      <g transform="translate(27.9125 55.639219) scale(0.1 -0.1)">
       <defs>
        <path id="DejaVuSans-31" d="M 794 531 
L 1825 531 
L 1825 4091 
L 703 3866 
L 703 4441 
L 1819 4666 
L 2450 4666 
L 2450 531 
L 3481 531 
L 3481 0 
L 794 0 
L 794 531 
z
" transform="scale(0.015625)"/>
       </defs>
       <use xlink:href="#DejaVuSans-31"/>
       <use xlink:href="#DejaVuSans-30" x="63.623047"/>
       <use xlink:href="#DejaVuSans-30" x="127.246094"/>
      </g>
     </g>
    </g>
    <g id="text_12">
     <!-- % Transmittance -->
     <g transform="translate(21.416875 268.305) rotate(-90) scale(0.12 -0.12)">
      <defs>
       <path id="DejaVuSans-25" d="M 4653 2053 
Q 4381 2053 4226 1822 
Q 4072 1591 4072 1178 
Q 4072 772 4226 539 
Q 4381 306 4653 306 
Q 4919 306 5073 539 
Q 5228 772 5228 1178 
Q 5228 1588 5073 1820 
Q 4919 2053 4653 2053 
z
M 4653 2450 
Q 5147 2450 5437 2106 
Q 5728 1763 5728 1178 
Q 5728 594 5436 251 
Q 5144 -91 4653 -91 
Q 4153 -91 3862 251 
Q 3572 594 3572 1178 
Q 3572 1766 3864 2108 
Q 4156 2450 4653 2450 
z
M 1428 4353 
Q 1159 4353 1004 4120 
Q 850 3888 850 3481 
Q 850 3069 1003 2837 
Q 1156 2606 1428 2606 
Q 1700 2606 1854 2837 
Q 2009 3069 2009 3481 
Q 2009 3884 1853 4118 
Q 1697 4353 1428 4353 
z
M 4250 4750 
L 4750 4750 
L 1831 -91 
L 1331 -91 
L 4250 4750 
z
M 1428 4750 
Q 1922 4750 2215 4408 
Q 2509 4066 2509 3481 
Q 2509 2891 2217 2550 
Q 1925 2209 1428 2209 
Q 931 2209 642 2551 
Q 353 2894 353 3481 
Q 353 4063 643 4406 
Q 934 4750 1428 4750 
z
" transform="scale(0.015625)"/>
       <path id="DejaVuSans-54" d="M -19 4666 
L 3928 4666 
L 3928 4134 
L 2272 4134 
L 2272 0 
L 1638 0 
L 1638 4134 
L -19 4134 
L -19 4666 
z
" transform="scale(0.015625)"/>
       <path id="DejaVuSans-72" d="M 2631 2963 
Q 2534 3019 2420 3045 
Q 2306 3072 2169 3072 
Q 1681 3072 1420 2755 
Q 1159 2438 1159 1844 
L 1159 0 
L 581 0 
L 581 3500 
L 1159 3500 
L 1159 2956 
Q 1341 3275 1631 3429 
Q 1922 3584 2338 3584 
Q 2397 3584 2469 3576 
Q 2541 3569 2628 3553 
L 2631 2963 
z
" transform="scale(0.015625)"/>
       <path id="DejaVuSans-73" d="M 2834 3397 
L 2834 2853 
Q 2591 2978 2328 3040 
Q 2066 3103 1784 3103 
Q 1356 3103 1142 2972 
Q 928 2841 928 2578 
Q 928 2378 1081 2264 
Q 1234 2150 1697 2047 
L 1894 2003 
Q 2506 1872 2764 1633 
Q 3022 1394 3022 966 
Q 3022 478 2636 193 
Q 2250 -91 1575 -91 
Q 1294 -91 989 -36 
Q 684 19 347 128 
L 347 722 
Q 666 556 975 473 
Q 1284 391 1588 391 
Q 1994 391 2212 530 
Q 2431 669 2431 922 
Q 2431 1156 2273 1281 
Q 2116 1406 1581 1522 
L 1381 1569 
Q 847 1681 609 1914 
Q 372 2147 372 2553 
Q 372 3047 722 3315 
Q 1072 3584 1716 3584 
Q 2034 3584 2315 3537 
Q 2597 3491 2834 3397 
z
" transform="scale(0.015625)"/>
       <path id="DejaVuSans-69" d="M 603 3500 
L 1178 3500 
L 1178 0 
L 603 0 
L 603 3500 
z
M 603 4863 
L 1178 4863 
L 1178 4134 
L 603 4134 
L 603 4863 
z
" transform="scale(0.015625)"/>
       <path id="DejaVuSans-63" d="M 3122 3366 
L 3122 2828 
Q 2878 2963 2633 3030 
Q 2388 3097 2138 3097 
Q 1578 3097 1268 2742 
Q 959 2388 959 1747 
Q 959 1106 1268 751 
Q 1578 397 2138 397 
Q 2388 397 2633 464 
Q 2878 531 3122 666 
L 3122 134 
Q 2881 22 2623 -34 
Q 2366 -91 2075 -91 
Q 1284 -91 818 406 
Q 353 903 353 1747 
Q 353 2603 823 3093 
Q 1294 3584 2113 3584 
Q 2378 3584 2631 3529 
Q 2884 3475 3122 3366 
z
" transform="scale(0.015625)"/>
      </defs>
      <use xlink:href="#DejaVuSans-25"/>
      <use xlink:href="#DejaVuSans-20" x="95.019531"/>
      <use xlink:href="#DejaVuSans-54" x="126.806641"/>
      <use xlink:href="#DejaVuSans-72" x="173.140625"/>
      <use xlink:href="#DejaVuSans-61" x="214.253906"/>
      <use xlink:href="#DejaVuSans-6e" x="275.533203"/>
      <use xlink:href="#DejaVuSans-73" x="338.912109"/>
      <use xlink:href="#DejaVuSans-6d" x="391.011719"/>
      <use xlink:href="#DejaVuSans-69" x="488.423828"/>
      <use xlink:href="#DejaVuSans-74" x="516.207031"/>
      <use xlink:href="#DejaVuSans-74" x="555.416016"/>
      <use xlink:href="#DejaVuSans-61" x="594.625"/>
      <use xlink:href="#DejaVuSans-6e" x="655.904297"/>
      <use xlink:href="#DejaVuSans-63" x="719.283203"/>
      <use xlink:href="#DejaVuSans-65" x="774.263672"/>
     </g>
    </g>
   </g>
   <g id="line2d_11">
    <path d="M 388.8 207.726519 
L 388.1025 220.339882 
L 387.405 217.278063 
L 386.7075 220.373163 
L 386.01 217.11166 
L 385.3125 219.907234 
L 384.615 220.106917 
L 383.22 214.382647 
L 382.5225 214.648892 
L 381.825 213.683754 
L 381.1275 218.14336 
L 380.43 224.233717 
L 379.7325 213.750315 
L 379.035 225.598223 
L 378.3375 216.512608 
L 377.64 210.255848 
L 376.9425 215.514189 
L 376.245 218.808972 
L 375.5475 216.346205 
L 374.85 222.203598 
L 374.1525 221.970633 
L 373.455 218.542727 
L 372.7575 207.593397 
L 372.06 220.406443 
L 371.3625 214.116402 
L 370.665 219.607708 
L 369.9675 218.842253 
L 369.27 215.747154 
L 368.5725 219.541147 
L 367.1775 221.770949 
L 366.48 221.937353 
L 365.7825 219.441305 
L 365.085 219.441305 
L 364.3875 219.807392 
L 363.69 219.70755 
L 362.9925 223.268578 
L 362.295 223.301859 
L 361.5975 222.33672 
L 360.9 220.73925 
L 360.2025 218.442885 
L 359.505 228.293955 
L 358.8075 224.167156 
L 358.11 224.40012 
L 357.4125 221.504704 
L 356.715 219.807392 
L 356.0175 219.374743 
L 354.6225 225.43182 
L 353.925 222.636246 
L 353.2275 221.770949 
L 351.8325 225.465101 
L 351.135 223.634665 
L 350.4375 224.965891 
L 349.74 224.167156 
L 349.0425 228.360516 
L 348.345 223.468262 
L 347.6475 224.366839 
L 346.95 224.266997 
L 346.2525 226.263836 
L 345.555 223.36842 
L 344.8575 224.333559 
L 344.16 222.403282 
L 342.765 224.965891 
L 342.0675 225.831188 
L 341.37 226.230555 
L 340.6725 225.032452 
L 339.975 225.132294 
L 339.2775 223.86763 
L 338.58 225.831188 
L 337.8825 225.564942 
L 337.185 222.003914 
L 336.4875 224.333559 
L 335.79 227.728184 
L 335.0925 228.094271 
L 334.395 227.595062 
L 333.6975 223.834349 
L 333 222.935772 
L 332.3025 227.395378 
L 330.9075 225.831188 
L 330.21 226.163994 
L 329.5125 227.428658 
L 328.815 227.961149 
L 327.42 223.767788 
L 326.7225 227.228974 
L 326.025 228.293955 
L 325.3275 228.526919 
L 324.63 227.162413 
L 323.9325 228.260674 
L 323.235 227.927868 
L 322.5375 227.395378 
L 321.84 228.5602 
L 321.1425 229.425497 
L 320.445 228.526919 
L 319.7475 226.896168 
L 319.05 227.162413 
L 318.3525 230.12439 
L 317.655 229.658461 
L 316.9575 228.460358 
L 316.26 228.094271 
L 315.5625 227.395378 
L 314.865 226.363678 
L 314.1675 228.526919 
L 313.47 229.725023 
L 312.7725 228.526919 
L 312.075 227.861307 
L 311.3775 228.460358 
L 310.68 229.5919 
L 309.9825 229.658461 
L 308.5875 228.160832 
L 307.89 228.293955 
L 306.495 230.457197 
L 305.7975 230.856564 
L 305.1 229.891426 
L 304.4025 229.525339 
L 303.705 230.12439 
L 303.0075 231.588738 
L 302.31 231.854983 
L 301.6125 230.690161 
L 300.915 230.09111 
L 299.52 232.753561 
L 298.8225 233.119648 
L 297.4275 231.056248 
L 296.73 232.953245 
L 296.0325 233.984944 
L 295.335 233.053087 
L 294.6375 233.419174 
L 293.94 232.919964 
L 293.2425 232.254351 
L 292.545 232.354193 
L 291.8475 232.18779 
L 291.15 232.653719 
L 290.4525 234.617277 
L 289.755 234.81696 
L 289.0575 234.151348 
L 288.36 235.183048 
L 287.6625 235.083206 
L 286.965 234.81696 
L 286.2675 235.615696 
L 285.57 235.582415 
L 284.175 235.881941 
L 283.4775 234.916802 
L 282.78 235.149767 
L 282.0825 236.414431 
L 280.6875 237.246447 
L 279.99 237.013483 
L 277.8975 235.615696 
L 277.2 236.480992 
L 276.5025 237.146605 
L 275.805 236.381151 
L 275.1075 235.981783 
L 274.41 236.980202 
L 273.7125 238.178305 
L 273.015 238.44455 
L 272.3175 238.211586 
L 271.62 238.644234 
L 270.225 237.679096 
L 269.5275 239.409689 
L 268.83 240.108582 
L 268.1325 239.343128 
L 267.435 239.276566 
L 266.7375 238.677515 
L 266.04 238.744076 
L 265.3425 239.409689 
L 264.645 240.774195 
L 263.9475 241.306685 
L 263.25 241.240124 
L 261.855 239.842337 
L 261.1575 240.341547 
L 260.46 241.306685 
L 259.7625 241.972298 
L 258.3675 241.306685 
L 257.67 240.341547 
L 256.275 242.005579 
L 254.88 241.439808 
L 254.1825 240.907318 
L 253.485 241.073721 
L 252.7875 242.438227 
L 252.09 242.038859 
L 251.3925 242.504788 
L 250.695 242.404946 
L 249.3 243.070559 
L 248.6025 242.704472 
L 247.905 243.336804 
L 247.2075 243.60305 
L 246.51 242.837595 
L 245.8125 244.068978 
L 245.115 244.468346 
L 244.4175 244.601469 
L 243.0225 243.702891 
L 242.325 244.601469 
L 241.6275 246.165659 
L 240.2325 244.834433 
L 239.535 244.534907 
L 238.8375 245.000836 
L 238.14 245.866133 
L 237.4425 244.734591 
L 235.35 246.797991 
L 234.6525 246.897833 
L 233.955 246.698149 
L 232.56 246.598307 
L 231.8625 247.230639 
L 231.165 247.097517 
L 230.4675 246.365343 
L 229.77 246.997675 
L 229.0725 248.162497 
L 228.375 248.229059 
L 227.6775 247.896252 
L 226.98 248.229059 
L 226.2825 247.862971 
L 225.585 248.728268 
L 224.8875 248.927952 
L 224.19 248.3289 
L 223.4925 249.294039 
L 222.795 248.229059 
L 222.0975 248.961233 
L 220.7025 250.991352 
L 219.3075 249.527004 
L 218.61 249.493723 
L 217.215 250.824948 
L 216.5175 251.257597 
L 215.82 251.124474 
L 215.1225 251.157755 
L 213.7275 252.755226 
L 213.03 252.555542 
L 212.3325 251.756806 
L 211.635 252.023052 
L 210.9375 252.48898 
L 210.24 254.186293 
L 209.5425 253.953329 
L 208.845 253.454119 
L 208.1475 253.4874 
L 207.45 253.886767 
L 206.7525 254.685503 
L 206.055 254.885187 
L 205.3575 254.55238 
L 204.66 253.786925 
L 203.9625 254.752064 
L 203.265 255.05159 
L 202.5675 255.484238 
L 201.87 255.650641 
L 201.1725 255.650641 
L 199.7775 256.649061 
L 199.08 256.748902 
L 197.685 256.316254 
L 196.9875 257.580918 
L 196.29 258.17997 
L 195.5925 257.847164 
L 194.895 257.880444 
L 194.1975 257.780602 
L 193.5 258.612618 
L 192.8025 259.677599 
L 192.105 258.845583 
L 191.4075 259.378073 
L 190.71 259.078547 
L 190.0125 259.611038 
L 189.315 260.709299 
L 188.6175 260.27665 
L 187.92 260.343212 
L 186.525 260.875702 
L 185.8275 261.641157 
L 184.4325 262.639576 
L 183.0375 261.940682 
L 182.34 262.539734 
L 181.6425 263.438311 
L 180.945 263.504872 
L 180.2475 263.937521 
L 179.55 263.138785 
L 178.8525 265.734675 
L 178.155 266.167324 
L 177.4575 266.300446 
L 176.76 265.867798 
L 176.0625 267.631672 
L 175.365 266.100762 
L 173.97 267.964478 
L 173.2725 269.495388 
L 172.575 268.230723 
L 171.8775 269.262423 
L 171.18 270.760052 
L 169.785 270.027878 
L 169.0875 270.893175 
L 168.39 272.490645 
L 167.6925 273.78859 
L 166.995 273.522345 
L 166.2975 274.054835 
L 165.6 274.187958 
L 164.9025 274.620606 
L 164.205 276.184796 
L 163.5075 276.517603 
L 162.1125 277.748986 
L 161.415 277.216496 
L 160.7175 278.348038 
L 160.02 277.782267 
L 159.3225 279.413019 
L 158.625 279.945509 
L 157.9275 281.542979 
L 157.23 280.54456 
L 156.5325 281.443138 
L 155.835 283.273573 
L 155.1375 283.473257 
L 153.7425 285.237131 
L 153.045 285.869463 
L 152.3475 287.167408 
L 151.65 286.568356 
L 150.9525 287.833021 
L 150.255 289.730017 
L 149.5575 289.763298 
L 148.86 291.227646 
L 148.1625 291.627014 
L 147.465 292.359188 
L 146.7675 293.856816 
L 145.3725 295.653971 
L 144.675 295.554129 
L 142.5825 299.115158 
L 141.885 299.048596 
L 141.1875 300.77919 
L 140.49 301.944012 
L 139.7925 302.842589 
L 139.095 304.273657 
L 138.3975 305.305357 
L 137.7 306.936108 
L 137.0025 307.335476 
L 136.305 307.302195 
L 134.91 309.864804 
L 134.2125 311.69524 
L 133.515 312.660378 
L 132.8175 313.226149 
L 132.12 314.590655 
L 131.4225 316.654055 
L 130.725 317.352948 
L 130.0275 317.852158 
L 128.6325 320.814135 
L 127.935 320.880696 
L 127.2375 322.178641 
L 126.54 323.942515 
L 125.145 325.939354 
L 124.4475 326.571686 
L 123.75 328.268998 
L 123.0525 329.300698 
L 122.355 329.933031 
L 121.6575 331.530501 
L 120.96 331.563782 
L 120.2625 334.026549 
L 119.565 334.858565 
L 118.8675 335.490897 
L 118.17 337.454455 
L 114.6825 342.246867 
L 112.59 344.210425 
L 111.8925 346.240544 
L 111.195 347.838015 
L 110.4975 348.004418 
L 109.8 349.002837 
L 109.1025 350.400624 
L 108.405 350.933115 
L 107.7075 351.665289 
L 106.3125 353.861811 
L 105.615 354.394301 
L 104.9175 355.093195 
L 104.22 356.990191 
L 103.5225 358.055172 
L 102.825 358.887188 
L 101.43 359.852326 
L 100.7325 361.11699 
L 99.3375 363.113829 
L 97.9425 364.511616 
L 97.245 365.010825 
L 95.1525 369.170905 
L 94.455 371.733515 
L 93.7575 373.397547 
L 93.06 370.668534 
L 92.3625 369.869799 
L 91.665 374.62893 
L 90.9675 375.327824 
L 90.27 374.262843 
L 89.5725 374.395966 
L 88.1775 377.424504 
L 87.48 377.890433 
L 86.7825 377.025137 
L 86.085 377.091698 
L 85.3875 379.121817 
L 84.69 378.888852 
L 83.9925 378.522765 
L 83.295 379.521185 
L 82.5975 379.920552 
L 81.9 378.955414 
L 81.2025 378.955414 
L 80.505 378.822291 
L 79.11 381.651146 
L 78.4125 381.052094 
L 77.715 380.086955 
L 77.0175 379.853991 
L 76.32 381.118655 
L 75.6225 381.651146 
L 74.925 381.651146 
L 74.2275 382.250197 
L 73.53 383.215336 
L 72.8325 383.647984 
L 72.135 381.518023 
L 71.4375 381.484742 
L 70.74 382.250197 
L 70.0425 381.850829 
L 69.345 383.681265 
L 68.6475 383.281897 
L 67.95 383.048932 
L 67.2525 383.315178 
L 66.555 381.784268 
L 65.8575 381.318339 
L 65.16 382.017233 
L 63.765 384.313597 
L 63.0675 383.647984 
L 62.37 384.247036 
L 61.6725 381.717707 
L 60.975 382.649565 
L 60.2775 383.215336 
L 59.58 381.018813 
L 58.8825 383.215336 
L 57.4875 381.717707 
L 56.79 384.346877 
L 56.0925 385.01249 
L 55.395 382.283478 
L 54.6975 381.484742 
L 54 382.083794 
L 53.3025 383.248616 
L 52.605 384.679684 
L 51.9075 384.912648 
L 50.5125 384.413439 
L 49.1175 384.945929 
L 48.42 384.613123 
L 47.7225 384.48 
L 47.025 384.945929 
L 46.3275 385.045771 
L 45.63 384.679684 
L 44.9325 384.746245 
L 43.5375 385.112332 
L 42.1425 384.579842 
L 40.7475 385.145613 
L 39.3525 384.679684 
L 38.655 384.97921 
L 37.9575 385.079052 
L 36.5625 384.413439 
L 35.865 384.97921 
L 35.1675 384.912648 
L 34.47 384.613123 
L 33.7725 384.446719 
L 33.075 384.746245 
L 32.3775 385.312016 
L 30.9825 384.546561 
L 30.285 384.712964 
L 29.5875 385.245455 
L 28.89 385.212174 
L 28.1925 384.679684 
L 27.495 384.679684 
L 26.7975 385.01249 
L 26.1 385.045771 
L 25.4025 384.712964 
L 24.705 384.546561 
L 24.0075 384.912648 
L 23.31 385.045771 
L 22.6125 384.746245 
L 21.915 384.679684 
L 20.52 385.045771 
L 19.8225 385.01249 
L 19.125 384.613123 
L 18.4275 384.746245 
L 17.73 385.01249 
L 17.0325 385.045771 
L 16.335 384.613123 
L 15.6375 384.712964 
L 14.94 385.045771 
L 14.2425 385.079052 
L 12.8475 384.380158 
L 12.15 384.679684 
L 11.4525 385.178893 
L 10.755 385.079052 
L 10.0575 384.679684 
L 9.36 384.812806 
L 7.965 385.478419 
L 6.57 384.746245 
L 5.175 385.578261 
L 4.4775 385.54498 
L 3.78 385.245455 
L 3.0825 385.079052 
L 1.6875 385.5117 
L 0.99 385.345297 
L 0.2925 385.01249 
L -0.405 384.97921 
L -1 385.206329 
L -1 385.206329 
" clip-path="url(#p2e54bc0077)" style="fill: none; stroke: #000000; stroke-opacity: 0.8; stroke-linecap: square"/>
   </g>
   <g id="line2d_12">
    <path d="M 388.8 233.984944 
L 388.1025 232.820122 
L 387.405 237.91206 
L 386.7075 237.645815 
L 386.01 233.951664 
L 385.3125 234.084786 
L 384.615 235.149767 
L 383.9175 233.75198 
L 383.22 228.693323 
L 382.5225 233.286051 
L 381.825 231.68858 
L 381.1275 239.809057 
L 380.43 233.552296 
L 379.7325 235.249609 
L 379.035 235.216328 
L 378.3375 229.991268 
L 377.64 234.417593 
L 376.9425 233.485735 
L 376.245 233.186209 
L 375.5475 237.978621 
L 374.85 235.249609 
L 374.1525 234.683838 
L 373.455 229.957987 
L 372.06 233.352612 
L 371.3625 231.455616 
L 370.665 235.748818 
L 369.9675 234.78368 
L 369.27 235.981783 
L 368.5725 236.447712 
L 367.875 236.547554 
L 367.1775 233.552296 
L 366.48 236.580834 
L 365.7825 236.913641 
L 365.085 235.349451 
L 364.3875 235.016644 
L 363.69 235.881941 
L 362.9925 233.385893 
L 362.295 235.84866 
L 360.9 235.183048 
L 360.2025 238.178305 
L 359.505 237.812218 
L 358.8075 239.576092 
L 358.11 236.84708 
L 357.4125 238.477831 
L 356.715 236.480992 
L 356.0175 239.409689 
L 355.32 237.346289 
L 354.6225 237.778937 
L 353.925 239.576092 
L 353.2275 237.346289 
L 352.53 236.214747 
L 351.8325 240.108582 
L 351.135 239.076882 
L 350.4375 239.043602 
L 349.74 240.940598 
L 349.0425 240.574511 
L 348.345 241.073721 
L 347.6475 240.341547 
L 346.95 238.977041 
L 346.2525 239.243286 
L 345.555 238.544392 
L 344.16 240.574511 
L 343.4625 240.274985 
L 342.765 239.043602 
L 342.0675 240.707634 
L 341.37 241.506369 
L 340.6725 240.408108 
L 339.975 241.872456 
L 339.2775 242.005579 
L 338.58 240.474669 
L 337.8825 239.442969 
L 337.185 241.073721 
L 336.4875 241.140282 
L 335.79 242.438227 
L 335.0925 241.905737 
L 334.395 241.53965 
L 333.6975 240.607792 
L 333 241.839176 
L 332.3025 240.840756 
L 330.9075 243.736172 
L 329.5125 244.934275 
L 328.815 242.671192 
L 328.1175 242.504788 
L 327.42 241.639492 
L 326.7225 243.769453 
L 326.025 242.837595 
L 325.3275 243.836014 
L 324.63 244.268662 
L 323.9325 243.203682 
L 323.235 243.170401 
L 322.5375 245.067398 
L 321.84 245.766291 
L 321.1425 245.100678 
L 320.445 244.601469 
L 319.05 246.132378 
L 318.3525 245.965975 
L 317.655 246.165659 
L 316.9575 245.233801 
L 316.26 244.66803 
L 315.5625 244.801153 
L 314.865 245.866133 
L 314.1675 245.965975 
L 312.7725 246.598307 
L 312.075 246.165659 
L 310.68 245.666449 
L 309.9825 246.065817 
L 309.285 245.866133 
L 308.5875 246.431904 
L 307.89 247.197359 
L 307.1925 245.999256 
L 306.495 246.298781 
L 305.7975 248.162497 
L 305.1 247.76313 
L 304.4025 247.729849 
L 303.705 248.395462 
L 303.0075 248.362181 
L 302.31 248.129217 
L 301.6125 248.062655 
L 300.915 247.729849 
L 300.2175 247.596726 
L 299.52 249.160916 
L 298.8225 249.294039 
L 298.125 248.82811 
L 297.4275 247.996094 
L 296.73 249.460442 
L 296.0325 249.893091 
L 295.335 250.026213 
L 294.6375 250.658545 
L 293.94 250.658545 
L 293.2425 250.525423 
L 292.545 249.726687 
L 291.8475 249.793249 
L 290.4525 251.490561 
L 289.755 250.92479 
L 289.0575 251.091194 
L 288.36 251.823368 
L 286.2675 252.189455 
L 285.57 251.790087 
L 284.8725 251.523842 
L 284.175 252.788506 
L 283.4775 253.387558 
L 282.78 252.888348 
L 282.0825 253.187874 
L 281.385 253.886767 
L 280.6875 253.454119 
L 279.99 253.287716 
L 279.2925 253.953329 
L 278.595 254.385977 
L 277.8975 254.352696 
L 277.2 254.086451 
L 275.805 254.718783 
L 275.1075 254.885187 
L 273.7125 255.817045 
L 272.3175 255.484238 
L 271.62 256.582499 
L 270.9225 256.482657 
L 270.225 256.515938 
L 269.5275 256.981867 
L 268.83 256.449377 
L 268.1325 256.449377 
L 267.435 257.913725 
L 266.7375 258.546057 
L 266.04 257.747322 
L 265.3425 257.248112 
L 264.645 258.379654 
L 263.9475 259.078547 
L 263.25 259.411354 
L 262.5525 259.477915 
L 261.855 259.378073 
L 261.1575 258.71246 
L 260.46 259.577757 
L 259.7625 260.809141 
L 259.065 260.509615 
L 258.3675 260.975544 
L 257.67 260.676018 
L 256.9725 259.577757 
L 256.275 260.24337 
L 255.5775 261.707718 
L 254.88 261.508034 
L 254.1825 260.908982 
L 253.485 260.676018 
L 252.7875 261.374911 
L 252.09 261.341631 
L 251.3925 262.805979 
L 250.695 263.937521 
L 249.9975 263.405031 
L 249.3 262.473173 
L 248.6025 262.506453 
L 247.905 263.704556 
L 246.51 263.937521 
L 245.115 263.405031 
L 244.4175 264.503292 
L 243.72 264.43673 
L 241.6275 265.601553 
L 240.93 265.668114 
L 239.535 266.566691 
L 237.4425 266.766375 
L 236.745 267.598391 
L 236.0475 267.332146 
L 235.35 267.565111 
L 234.6525 268.297285 
L 233.955 268.763214 
L 233.2575 268.929617 
L 232.56 268.829775 
L 231.8625 269.262423 
L 231.165 269.09602 
L 230.4675 269.794913 
L 229.77 269.761633 
L 229.0725 270.294123 
L 228.375 270.626929 
L 227.6775 271.225981 
L 226.98 272.357523 
L 226.2825 271.758471 
L 225.585 271.592068 
L 224.8875 272.490645 
L 223.4925 273.688748 
L 222.795 273.2561 
L 222.0975 273.156258 
L 221.4 273.78859 
L 220.7025 273.921713 
L 220.005 274.620606 
L 219.3075 274.520764 
L 218.61 274.986693 
L 217.9125 274.853571 
L 217.215 275.619026 
L 216.5175 275.286219 
L 215.82 275.585745 
L 215.1225 276.317919 
L 214.425 276.517603 
L 213.7275 276.417761 
L 213.03 276.717287 
L 212.3325 277.682425 
L 210.9375 278.614283 
L 210.24 278.214915 
L 209.5425 277.94867 
L 208.845 279.878947 
L 208.1475 280.311596 
L 207.45 280.01207 
L 206.7525 280.245035 
L 204.66 282.142031 
L 203.9625 282.574679 
L 203.265 282.308434 
L 202.5675 283.406695 
L 201.1725 284.405115 
L 200.475 284.571518 
L 199.7775 284.571518 
L 199.08 285.104008 
L 198.3825 285.936024 
L 197.685 286.501795 
L 196.9875 286.601637 
L 196.29 286.901163 
L 195.5925 287.533495 
L 194.895 288.531914 
L 194.1975 288.964562 
L 193.5 288.298949 
L 192.8025 289.230807 
L 192.105 290.42891 
L 191.4075 291.926539 
L 190.71 291.593733 
L 190.0125 291.493891 
L 188.6175 292.259346 
L 187.92 293.956658 
L 187.2225 294.522429 
L 186.525 294.622271 
L 185.8275 294.522429 
L 185.13 295.387726 
L 184.4325 295.687252 
L 183.735 296.852074 
L 183.0375 297.251442 
L 182.34 297.950335 
L 181.6425 297.550967 
L 180.2475 299.381403 
L 179.55 300.146857 
L 178.8525 300.512944 
L 178.155 300.246699 
L 177.4575 300.77919 
L 176.76 301.810889 
L 176.0625 302.34338 
L 175.365 303.441641 
L 174.6675 303.641325 
L 173.97 303.042273 
L 173.2725 305.604882 
L 172.575 306.337057 
L 171.8775 306.636582 
L 171.18 307.734843 
L 170.4825 307.069231 
L 169.785 309.032788 
L 169.0875 310.16433 
L 168.39 310.796662 
L 167.6925 311.029627 
L 166.995 312.294291 
L 164.9025 316.820458 
L 164.205 317.319668 
L 162.81 319.316506 
L 162.1125 320.814135 
L 161.415 321.413187 
L 160.7175 321.679432 
L 160.02 323.14378 
L 159.3225 325.007496 
L 158.625 326.039196 
L 157.23 326.871212 
L 156.5325 327.969473 
L 155.1375 331.696904 
L 154.44 332.162833 
L 153.7425 333.261095 
L 153.045 333.394217 
L 151.65 336.589159 
L 150.9525 337.587578 
L 150.255 339.018645 
L 149.5575 339.085207 
L 148.1625 341.381571 
L 147.465 343.44497 
L 146.7675 344.044022 
L 146.07 345.175564 
L 145.3725 345.608212 
L 144.675 346.606631 
L 143.9775 348.60347 
L 143.28 349.934695 
L 142.5825 350.267502 
L 141.885 350.799992 
L 141.1875 352.896672 
L 140.49 353.662127 
L 139.095 355.925211 
L 138.3975 356.124894 
L 137.7 358.021891 
L 134.91 361.11699 
L 133.515 363.879284 
L 131.4225 366.075806 
L 130.725 367.30719 
L 128.6325 369.503712 
L 127.2375 370.535412 
L 126.54 372.266005 
L 125.8425 372.199444 
L 124.4475 373.197863 
L 123.75 373.963318 
L 123.0525 375.227982 
L 122.355 375.860314 
L 121.6575 375.860314 
L 120.96 375.693911 
L 119.565 377.757311 
L 118.8675 378.056836 
L 118.17 377.990275 
L 117.4725 378.090117 
L 116.0775 379.654307 
L 115.38 379.987114 
L 113.985 379.987114 
L 112.59 381.052094 
L 111.8925 381.185217 
L 111.195 381.118655 
L 109.8 381.651146 
L 108.405 382.549723 
L 107.01 382.017233 
L 106.3125 382.583004 
L 104.9175 383.281897 
L 103.5225 382.782687 
L 102.825 383.281897 
L 102.1275 384.047352 
L 101.43 384.047352 
L 100.7325 383.581423 
L 100.035 383.581423 
L 99.3375 383.814387 
L 98.64 384.446719 
L 97.9425 384.613123 
L 96.5475 384.113913 
L 95.85 384.513281 
L 94.455 385.877787 
L 93.7575 385.977629 
L 93.06 385.278735 
L 91.665 385.478419 
L 90.27 386.177313 
L 89.5725 385.877787 
L 88.875 385.378577 
L 88.1775 385.278735 
L 87.48 385.54498 
L 86.7825 386.243874 
L 86.085 385.711384 
L 85.3875 384.912648 
L 84.69 384.812806 
L 83.9925 385.411858 
L 83.295 385.611542 
L 82.5975 385.145613 
L 81.9 385.678103 
L 81.2025 385.5117 
L 80.505 384.779526 
L 79.8075 385.145613 
L 77.715 384.945929 
L 77.0175 385.378577 
L 76.32 385.245455 
L 75.6225 384.247036 
L 74.925 383.847668 
L 74.2275 384.779526 
L 73.53 385.911068 
L 72.8325 385.01249 
L 72.135 384.613123 
L 70.74 384.147194 
L 70.0425 385.01249 
L 68.6475 383.015652 
L 67.95 384.546561 
L 67.2525 385.578261 
L 66.555 384.846087 
L 65.8575 384.513281 
L 65.16 384.945929 
L 64.4625 384.646403 
L 63.765 384.879368 
L 63.0675 384.97921 
L 61.6725 383.581423 
L 60.2775 382.749407 
L 59.58 383.215336 
L 58.8825 384.812806 
L 58.185 384.280316 
L 57.4875 381.717707 
L 56.0925 385.145613 
L 55.395 383.714545 
L 54.6975 384.712964 
L 54 383.747826 
L 53.3025 383.41502 
L 52.605 384.579842 
L 51.9075 384.513281 
L 51.21 384.945929 
L 50.5125 385.212174 
L 49.815 384.812806 
L 49.1175 384.546561 
L 47.7225 385.178893 
L 47.025 385.01249 
L 46.3275 384.646403 
L 45.63 384.546561 
L 44.9325 385.01249 
L 44.235 385.112332 
L 43.5375 384.712964 
L 42.84 384.546561 
L 41.445 385.045771 
L 40.05 384.579842 
L 39.3525 384.646403 
L 38.655 385.112332 
L 37.9575 384.879368 
L 37.26 384.48 
L 36.5625 384.546561 
L 35.865 384.879368 
L 35.1675 384.812806 
L 34.47 384.346877 
L 33.7725 384.579842 
L 33.075 384.945929 
L 32.3775 384.912648 
L 31.68 384.513281 
L 30.285 384.912648 
L 29.5875 384.879368 
L 28.89 384.546561 
L 28.1925 384.546561 
L 27.495 385.01249 
L 26.7975 384.912648 
L 26.1 384.513281 
L 25.4025 384.346877 
L 24.705 384.746245 
L 24.0075 384.912648 
L 22.6125 384.513281 
L 21.915 384.613123 
L 21.2175 385.112332 
L 20.52 385.01249 
L 19.8225 384.48 
L 19.125 384.613123 
L 17.73 385.112332 
L 17.0325 384.846087 
L 16.335 384.380158 
L 15.6375 384.346877 
L 14.94 384.679684 
L 14.2425 384.779526 
L 13.545 384.613123 
L 12.8475 384.280316 
L 12.15 384.380158 
L 11.4525 385.079052 
L 10.755 385.079052 
L 9.36 384.313597 
L 7.965 385.378577 
L 7.2675 385.278735 
L 6.57 384.779526 
L 5.8725 384.613123 
L 5.175 384.945929 
L 4.4775 385.411858 
L 3.78 385.278735 
L 3.0825 384.613123 
L 2.385 384.679684 
L 1.6875 385.312016 
L 0.99 385.54498 
L 0.2925 385.5117 
L -0.405 384.945929 
L -1 384.974319 
L -1 384.974319 
" clip-path="url(#p2e54bc0077)" style="fill: none; stroke: #69422a; stroke-opacity: 0.8; stroke-linecap: square"/>
   </g>
   <g id="line2d_13">
    <path d="M 388.8 248.129217 
L 388.1025 246.465185 
L 387.405 250.725107 
L 386.7075 245.100678 
L 386.01 248.82811 
L 385.3125 246.997675 
L 384.615 247.330481 
L 383.9175 249.85981 
L 383.22 249.427162 
L 382.5225 249.427162 
L 381.825 247.630007 
L 381.1275 248.927952 
L 380.43 249.027794 
L 379.7325 253.154593 
L 379.035 251.523842 
L 378.3375 248.095936 
L 377.64 251.157755 
L 376.9425 251.989771 
L 376.245 253.853487 
L 375.5475 247.26392 
L 374.85 250.591984 
L 374.1525 247.430323 
L 373.455 252.222735 
L 372.7575 253.420838 
L 372.06 248.927952 
L 371.3625 252.921629 
L 370.665 250.35902 
L 369.9675 252.622103 
L 369.27 251.95649 
L 368.5725 252.289297 
L 367.875 253.786925 
L 367.1775 255.783764 
L 366.48 253.088032 
L 365.7825 252.788506 
L 365.085 254.685503 
L 364.3875 255.351116 
L 363.69 254.685503 
L 362.9925 257.114989 
L 362.295 252.755226 
L 361.5975 253.52068 
L 360.9 253.52068 
L 360.2025 257.447796 
L 359.505 258.279812 
L 358.8075 255.883606 
L 358.11 256.183132 
L 356.715 257.381235 
L 356.0175 258.412934 
L 355.32 256.649061 
L 354.6225 259.710879 
L 353.925 257.880444 
L 353.2275 259.145109 
L 352.53 257.447796 
L 351.135 259.411354 
L 350.4375 258.978705 
L 349.74 259.311512 
L 349.0425 260.576176 
L 348.345 259.178389 
L 347.6475 258.978705 
L 346.95 260.642737 
L 346.2525 259.977125 
L 345.555 258.945425 
L 344.8575 258.17997 
L 344.16 261.208508 
L 343.4625 261.474753 
L 342.765 260.043686 
L 342.0675 260.809141 
L 341.37 261.108666 
L 340.6725 260.309931 
L 339.975 263.072224 
L 339.2775 263.637995 
L 338.58 262.83926 
L 337.8825 262.573015 
L 337.185 263.870959 
L 336.4875 262.473173 
L 335.79 263.37175 
L 335.0925 263.338469 
L 334.395 265.002501 
L 333.6975 265.668114 
L 333 266.699814 
L 332.3025 264.802817 
L 331.605 264.370169 
L 330.9075 264.702975 
L 330.21 265.168904 
L 329.5125 264.470011 
L 328.815 264.603134 
L 328.1175 267.598391 
L 327.42 268.164162 
L 326.7225 267.964478 
L 326.025 267.431988 
L 325.3275 267.764794 
L 324.63 269.62851 
L 323.9325 269.59523 
L 323.235 268.696652 
L 322.5375 268.962897 
L 321.84 268.729933 
L 321.1425 269.328984 
L 320.445 270.726771 
L 319.7475 269.961317 
L 319.05 269.59523 
L 318.3525 270.260842 
L 317.655 269.362265 
L 316.9575 270.826613 
L 316.26 270.993017 
L 315.5625 270.859894 
L 314.865 270.294123 
L 314.1675 271.1927 
L 313.47 272.790171 
L 312.7725 271.858313 
L 311.3775 271.359104 
L 310.68 273.855152 
L 309.9825 273.655468 
L 309.285 273.122977 
L 308.5875 272.989855 
L 307.89 274.154677 
L 307.1925 273.921713 
L 306.495 274.753729 
L 305.7975 276.184796 
L 305.1 276.684006 
L 304.4025 275.718867 
L 303.705 275.985113 
L 303.0075 276.484322 
L 300.2175 277.216496 
L 299.52 277.283058 
L 298.8225 277.216496 
L 298.125 277.848828 
L 296.0325 279.046931 
L 295.335 278.714125 
L 294.6375 278.913809 
L 293.94 280.344876 
L 292.545 279.413019 
L 291.8475 280.744244 
L 291.15 282.60796 
L 290.4525 282.641241 
L 289.755 281.775944 
L 289.0575 282.441557 
L 288.36 282.474837 
L 287.6625 281.642821 
L 286.965 282.474837 
L 286.2675 283.539818 
L 285.57 283.772782 
L 284.8725 283.839344 
L 284.175 283.506537 
L 283.4775 284.504956 
L 282.78 285.070727 
L 282.0825 285.170569 
L 280.6875 285.769621 
L 279.2925 285.73634 
L 278.595 286.934443 
L 277.8975 287.600056 
L 277.2 287.067566 
L 276.5025 287.367092 
L 275.805 288.132546 
L 275.1075 288.465353 
L 274.41 288.298949 
L 273.7125 287.833021 
L 273.015 289.097685 
L 272.3175 289.696736 
L 271.62 289.996262 
L 270.9225 290.828278 
L 270.225 290.162665 
L 269.5275 289.929701 
L 268.83 290.362349 
L 267.435 291.493891 
L 266.7375 291.593733 
L 266.04 291.926539 
L 265.3425 293.224484 
L 264.645 293.52401 
L 263.9475 293.623852 
L 263.25 294.0565 
L 262.5525 294.0565 
L 261.855 294.356026 
L 261.1575 295.188042 
L 260.46 295.254603 
L 259.7625 295.58741 
L 259.065 295.753813 
L 258.3675 295.454287 
L 257.67 295.720532 
L 256.275 298.050177 
L 255.5775 298.083458 
L 254.88 297.650809 
L 254.1825 298.150019 
L 253.485 298.848912 
L 252.7875 299.181719 
L 252.09 298.316422 
L 251.3925 298.982035 
L 250.695 300.080296 
L 249.3 301.111996 
L 248.6025 300.81247 
L 247.2075 302.010573 
L 246.51 302.809309 
L 245.8125 302.676186 
L 245.115 302.909151 
L 244.4175 303.474921 
L 243.72 303.774447 
L 243.0225 304.44006 
L 242.325 304.806147 
L 241.6275 304.905989 
L 240.93 305.172234 
L 240.2325 305.937689 
L 239.535 306.037531 
L 238.8375 306.603302 
L 238.14 306.570021 
L 236.745 307.967808 
L 236.0475 307.402037 
L 235.35 307.801405 
L 233.2575 310.563698 
L 232.56 310.596978 
L 231.8625 309.63184 
L 231.165 310.230891 
L 229.77 312.094607 
L 229.0725 312.627098 
L 227.6775 312.22773 
L 226.98 313.558955 
L 226.2825 314.424252 
L 225.585 314.490813 
L 224.8875 313.991604 
L 224.19 313.958323 
L 223.4925 315.256268 
L 222.795 314.990023 
L 222.0975 315.688916 
L 220.7025 317.352948 
L 220.005 317.652474 
L 219.3075 317.186545 
L 218.61 317.352948 
L 217.9125 318.45121 
L 216.5175 319.649313 
L 215.82 320.0154 
L 215.1225 320.148522 
L 213.7275 321.146941 
L 213.03 321.379906 
L 212.3325 321.379906 
L 210.9375 322.61129 
L 210.24 323.742831 
L 208.1475 323.842673 
L 206.7525 325.173899 
L 206.055 326.005915 
L 203.9625 326.505125 
L 203.265 327.503544 
L 202.5675 328.135876 
L 201.1725 328.202437 
L 200.475 328.967892 
L 199.7775 329.267418 
L 199.08 329.933031 
L 198.3825 330.132714 
L 196.9875 331.131134 
L 196.29 331.96315 
L 194.1975 332.029711 
L 192.8025 333.926707 
L 192.105 334.392636 
L 191.4075 334.05983 
L 190.71 334.392636 
L 190.0125 334.958407 
L 189.315 336.289633 
L 188.6175 336.456036 
L 187.92 336.389475 
L 187.2225 336.489317 
L 186.525 337.121649 
L 185.8275 338.319752 
L 185.13 339.051926 
L 184.4325 339.28489 
L 183.735 338.985365 
L 183.0375 339.451294 
L 181.6425 342.047184 
L 180.945 342.37999 
L 180.2475 342.246867 
L 179.55 342.513113 
L 178.155 343.811058 
L 177.4575 345.375248 
L 176.76 345.841177 
L 175.365 346.273825 
L 173.97 348.703312 
L 173.2725 348.836434 
L 171.8775 349.768292 
L 170.4825 352.031376 
L 169.785 352.563866 
L 169.0875 353.529005 
L 168.39 353.928372 
L 167.6925 354.727108 
L 166.995 355.925211 
L 166.2975 356.857069 
L 165.6 357.389559 
L 164.9025 357.555962 
L 164.205 358.021891 
L 162.81 359.852326 
L 162.1125 360.651062 
L 161.415 360.784184 
L 160.02 361.716042 
L 159.3225 363.413355 
L 157.23 364.611458 
L 156.5325 365.643158 
L 155.1375 367.207348 
L 154.44 367.34047 
L 152.3475 369.803238 
L 150.9525 370.002921 
L 150.255 371.567112 
L 149.5575 371.966479 
L 148.86 372.033041 
L 148.1625 372.299286 
L 147.465 373.231144 
L 146.7675 374.462527 
L 146.07 374.728772 
L 145.3725 374.795334 
L 144.675 375.460946 
L 143.28 376.592488 
L 142.5825 376.625769 
L 141.885 376.858733 
L 140.49 378.75573 
L 139.7925 378.689169 
L 139.095 378.75573 
L 138.3975 379.221659 
L 137.7 380.086955 
L 136.305 380.153517 
L 135.6075 380.652726 
L 134.91 381.3849 
L 133.515 381.218497 
L 132.8175 381.684426 
L 132.12 382.38332 
L 131.4225 382.4166 
L 130.725 382.017233 
L 129.33 383.048932 
L 127.935 382.749407 
L 127.2375 383.4483 
L 126.54 383.98079 
L 125.8425 383.581423 
L 125.145 383.481581 
L 124.4475 383.98079 
L 123.75 384.180474 
L 123.0525 383.880948 
L 122.355 383.714545 
L 121.6575 384.313597 
L 120.96 384.48 
L 120.2625 383.847668 
L 119.565 383.98079 
L 118.8675 384.247036 
L 118.17 384.746245 
L 117.4725 384.413439 
L 116.0775 384.846087 
L 114.6825 384.613123 
L 113.985 384.413439 
L 113.2875 384.812806 
L 112.59 385.045771 
L 111.8925 384.679684 
L 109.8 384.97921 
L 109.1025 384.48 
L 107.7075 385.045771 
L 107.01 385.145613 
L 106.3125 384.712964 
L 105.615 384.846087 
L 104.9175 385.345297 
L 104.22 385.079052 
L 103.5225 384.613123 
L 102.825 384.579842 
L 102.1275 384.945929 
L 101.43 384.97921 
L 100.7325 384.679684 
L 100.035 384.97921 
L 99.3375 385.145613 
L 97.9425 384.812806 
L 97.245 384.879368 
L 96.5475 385.212174 
L 95.85 385.178893 
L 95.1525 384.513281 
L 94.455 386.277155 
L 93.7575 389.405535 
L 93.06 386.942767 
L 92.3625 387.142451 
L 91.665 386.343716 
L 90.9675 386.210593 
L 90.27 385.811226 
L 89.5725 386.210593 
L 88.875 386.443558 
L 88.1775 385.245455 
L 87.48 385.245455 
L 86.7825 385.411858 
L 86.085 385.079052 
L 85.3875 385.54498 
L 83.295 385.611542 
L 81.9 384.779526 
L 81.2025 385.245455 
L 80.505 385.145613 
L 79.8075 384.912648 
L 79.11 385.478419 
L 78.4125 385.644822 
L 77.715 385.278735 
L 77.0175 385.045771 
L 76.32 385.611542 
L 74.925 384.446719 
L 73.53 385.54498 
L 72.8325 385.112332 
L 72.135 384.080632 
L 71.4375 383.614703 
L 70.74 384.912648 
L 70.0425 385.312016 
L 69.345 384.313597 
L 68.6475 384.380158 
L 67.95 385.445139 
L 67.2525 386.010909 
L 66.555 385.744664 
L 65.16 384.047352 
L 64.4625 385.378577 
L 63.765 385.611542 
L 63.0675 385.212174 
L 62.37 385.079052 
L 61.6725 384.346877 
L 60.975 384.579842 
L 60.2775 384.646403 
L 59.58 384.48 
L 58.8825 385.178893 
L 58.185 386.310435 
L 57.4875 385.079052 
L 55.395 382.882529 
L 54.6975 385.312016 
L 54 386.842925 
L 53.3025 377.923714 
L 52.605 367.373751 
L 51.21 367.972802 
L 50.5125 367.972802 
L 49.815 367.673277 
L 49.1175 367.207348 
L 47.7225 368.105925 
L 47.025 368.006083 
L 45.63 367.140786 
L 44.9325 367.506873 
L 44.235 368.205767 
L 43.5375 368.172486 
L 42.84 367.240628 
L 42.1425 367.273909 
L 41.445 367.972802 
L 40.7475 368.239048 
L 40.05 367.83968 
L 39.3525 367.30719 
L 38.655 367.606715 
L 37.9575 368.205767 
L 37.26 368.205767 
L 36.5625 367.87296 
L 35.865 367.30719 
L 35.1675 367.440312 
L 34.47 367.706557 
L 33.7725 368.272328 
L 33.075 368.205767 
L 32.3775 367.240628 
L 31.68 367.007664 
L 30.9825 367.906241 
L 30.285 368.505293 
L 29.5875 367.87296 
L 28.89 367.407032 
L 28.1925 367.273909 
L 26.7975 368.172486 
L 26.1 367.806399 
L 25.4025 367.273909 
L 24.705 367.706557 
L 24.0075 368.538573 
L 23.31 368.239048 
L 22.6125 367.506873 
L 21.915 367.506873 
L 20.52 368.139206 
L 19.125 367.140786 
L 18.4275 367.407032 
L 17.73 368.272328 
L 17.0325 368.272328 
L 15.6375 367.473593 
L 14.2425 368.505293 
L 13.545 368.006083 
L 12.8475 367.207348 
L 12.15 367.174067 
L 11.4525 367.906241 
L 10.755 368.139206 
L 10.0575 367.87296 
L 9.36 367.739838 
L 8.6625 367.972802 
L 7.965 368.671696 
L 7.2675 368.638415 
L 6.57 368.105925 
L 5.8725 367.83968 
L 5.175 367.939522 
L 4.4775 368.771538 
L 3.78 368.804818 
L 2.385 367.83968 
L 1.6875 368.039364 
L 0.99 369.104344 
L 0.2925 369.037783 
L -0.405 368.105925 
L -1 367.992365 
L -1 367.992365 
" clip-path="url(#p2e54bc0077)" style="fill: none; stroke: #d28555; stroke-opacity: 0.8; stroke-linecap: square"/>
   </g>
   <g id="line2d_14">
    <path d="M 388.8 367.107506 
L 388.1025 367.440312 
L 387.405 365.809561 
L 386.7075 368.272328 
L 386.01 366.674857 
L 385.3125 367.540154 
L 384.615 367.739838 
L 383.9175 368.704976 
L 382.5225 366.708138 
L 381.825 366.907822 
L 381.1275 368.738257 
L 380.43 367.074225 
L 379.7325 367.806399 
L 379.035 366.475174 
L 378.3375 367.407032 
L 377.64 367.074225 
L 376.9425 367.906241 
L 376.245 369.437151 
L 375.5475 366.874541 
L 374.1525 368.90466 
L 373.455 368.90466 
L 372.7575 367.040944 
L 372.06 368.039364 
L 371.3625 367.906241 
L 370.665 368.172486 
L 369.9675 368.838099 
L 369.27 368.671696 
L 368.5725 368.072644 
L 367.875 369.071064 
L 367.1775 369.270747 
L 366.48 368.139206 
L 365.7825 367.240628 
L 365.085 368.704976 
L 364.3875 367.673277 
L 363.69 368.438731 
L 362.9925 367.87296 
L 362.295 369.004502 
L 361.5975 369.636834 
L 360.9 367.773119 
L 360.2025 369.603554 
L 359.505 368.272328 
L 358.8075 368.937941 
L 358.11 369.836518 
L 357.4125 368.937941 
L 356.715 369.536992 
L 356.0175 369.304028 
L 355.32 368.472012 
L 354.6225 369.470431 
L 353.925 370.235886 
L 353.2275 369.703396 
L 352.53 369.969641 
L 351.8325 368.472012 
L 351.135 370.46885 
L 349.74 370.96806 
L 349.0425 370.568692 
L 348.345 369.670115 
L 347.6475 369.470431 
L 346.95 369.969641 
L 346.2525 370.668534 
L 344.8575 369.969641 
L 344.16 369.969641 
L 343.4625 369.670115 
L 342.0675 371.001341 
L 340.6725 371.300866 
L 339.975 370.43557 
L 339.2775 370.302447 
L 338.58 370.43557 
L 337.8825 371.034621 
L 337.185 371.300866 
L 336.4875 371.267586 
L 335.79 370.369009 
L 335.0925 370.169325 
L 334.395 371.46727 
L 333.6975 371.001341 
L 333 371.367428 
L 332.3025 371.433989 
L 331.605 371.167744 
L 330.9075 371.134463 
L 330.21 371.300866 
L 329.5125 371.300866 
L 328.815 372.132882 
L 328.1175 372.465689 
L 326.7225 370.901499 
L 324.63 372.565531 
L 323.235 371.433989 
L 321.1425 372.399128 
L 320.445 372.632092 
L 319.7475 372.665373 
L 319.05 372.865057 
L 318.3525 372.498969 
L 316.9575 372.099602 
L 316.26 372.964898 
L 314.865 372.698653 
L 314.1675 373.06474 
L 313.47 372.731934 
L 312.7725 372.798495 
L 312.075 373.231144 
L 311.3775 372.831776 
L 310.68 372.898337 
L 309.9825 372.698653 
L 309.285 372.099602 
L 308.5875 372.498969 
L 307.89 373.164582 
L 307.1925 373.56395 
L 306.495 373.763634 
L 305.7975 373.730353 
L 304.4025 373.164582 
L 303.705 373.330985 
L 303.0075 373.763634 
L 302.31 373.896756 
L 301.6125 373.497389 
L 300.915 373.730353 
L 300.2175 373.597231 
L 299.52 373.330985 
L 298.125 373.896756 
L 297.4275 373.963318 
L 296.73 373.697073 
L 296.0325 373.630511 
L 295.335 373.730353 
L 294.6375 374.229563 
L 293.94 374.562369 
L 292.545 374.395966 
L 291.8475 374.196282 
L 291.15 374.362685 
L 290.4525 374.196282 
L 289.755 374.296124 
L 289.0575 374.995018 
L 288.36 375.327824 
L 286.965 374.129721 
L 285.57 374.828614 
L 282.78 374.728772 
L 282.0825 374.62893 
L 281.385 374.795334 
L 280.6875 375.261263 
L 279.99 375.494227 
L 278.595 374.928456 
L 277.8975 374.861895 
L 276.5025 375.693911 
L 274.41 375.960156 
L 273.7125 375.560788 
L 273.015 375.427666 
L 271.62 375.860314 
L 270.9225 376.126559 
L 270.225 376.259682 
L 269.5275 376.259682 
L 268.83 375.727192 
L 268.1325 375.62735 
L 264.645 376.525927 
L 263.9475 376.525927 
L 263.25 376.193121 
L 262.5525 376.326243 
L 261.855 376.758891 
L 261.1575 376.958575 
L 259.065 376.459366 
L 258.3675 376.625769 
L 257.67 377.19154 
L 256.9725 377.324662 
L 255.5775 376.69233 
L 254.88 376.65905 
L 254.1825 377.391224 
L 253.485 377.524346 
L 252.7875 377.491066 
L 252.09 377.025137 
L 251.3925 376.825453 
L 250.695 377.158259 
L 249.9975 377.657469 
L 249.3 377.857153 
L 248.6025 377.857153 
L 247.905 377.491066 
L 247.2075 377.391224 
L 246.51 377.491066 
L 245.8125 377.956994 
L 245.115 378.22324 
L 244.4175 378.25652 
L 243.72 377.757311 
L 243.0225 377.524346 
L 240.93 378.289801 
L 240.2325 378.356362 
L 238.8375 377.857153 
L 238.14 377.790591 
L 237.4425 378.323082 
L 236.745 378.622607 
L 235.35 378.789011 
L 234.6525 378.422923 
L 233.955 378.189959 
L 232.56 378.888852 
L 231.8625 378.855572 
L 231.165 378.988694 
L 230.4675 378.622607 
L 229.77 378.422923 
L 227.6775 379.454623 
L 226.98 379.388062 
L 225.585 378.622607 
L 223.4925 379.554465 
L 222.795 379.121817 
L 222.0975 379.654307 
L 221.4 380.020394 
L 220.005 379.687588 
L 219.3075 379.321501 
L 217.215 380.186797 
L 216.5175 379.853991 
L 215.82 379.654307 
L 215.1225 379.621027 
L 214.425 380.220078 
L 213.7275 380.519604 
L 211.635 379.82071 
L 210.9375 380.31992 
L 210.24 380.652726 
L 209.5425 380.719288 
L 208.845 380.286639 
L 208.1475 380.053675 
L 207.45 380.253359 
L 206.7525 380.81913 
L 206.055 380.985533 
L 205.3575 380.552884 
L 204.66 380.286639 
L 203.9625 380.453043 
L 203.265 381.018813 
L 202.5675 380.985533 
L 201.87 380.586165 
L 201.1725 380.386481 
L 200.475 380.686007 
L 199.7775 381.185217 
L 199.08 381.185217 
L 198.3825 380.619446 
L 197.685 380.453043 
L 196.9875 380.652726 
L 196.29 381.118655 
L 195.5925 381.35162 
L 194.895 380.652726 
L 194.1975 380.353201 
L 193.5 380.586165 
L 192.105 381.551304 
L 191.4075 380.885691 
L 190.0125 380.386481 
L 189.315 380.918971 
L 188.6175 381.285059 
L 187.92 381.251778 
L 187.2225 380.752568 
L 186.525 380.652726 
L 185.8275 380.785849 
L 185.13 381.3849 
L 184.4325 381.418181 
L 183.735 381.318339 
L 183.0375 380.686007 
L 182.34 381.018813 
L 181.6425 381.218497 
L 180.945 381.750987 
L 180.2475 381.784268 
L 178.8525 381.185217 
L 178.155 381.617865 
L 177.4575 382.216916 
L 176.76 382.4166 
L 176.0625 382.283478 
L 175.365 381.717707 
L 174.6675 382.017233 
L 173.97 382.682845 
L 173.2725 383.048932 
L 172.575 382.749407 
L 171.8775 382.716126 
L 171.18 382.483162 
L 170.4825 383.182055 
L 169.785 383.581423 
L 169.0875 383.681265 
L 168.39 383.315178 
L 167.6925 383.381739 
L 166.2975 383.98079 
L 165.6 383.98079 
L 164.9025 383.381739 
L 164.205 382.616284 
L 162.81 383.714545 
L 162.1125 383.581423 
L 160.7175 382.782687 
L 160.02 382.882529 
L 159.3225 383.481581 
L 158.625 383.681265 
L 157.9275 383.581423 
L 157.23 383.248616 
L 156.5325 382.749407 
L 155.835 383.015652 
L 155.1375 383.4483 
L 154.44 383.614703 
L 153.7425 383.348458 
L 153.045 382.91581 
L 152.3475 382.949091 
L 151.65 383.4483 
L 150.9525 383.781107 
L 150.255 383.581423 
L 149.5575 383.182055 
L 148.86 383.048932 
L 148.1625 383.315178 
L 147.465 383.847668 
L 146.7675 383.914229 
L 145.3725 383.215336 
L 144.675 383.41502 
L 143.9775 383.914229 
L 143.28 384.014071 
L 142.5825 383.581423 
L 141.885 383.315178 
L 141.1875 383.98079 
L 140.49 384.247036 
L 139.7925 384.313597 
L 139.095 383.814387 
L 138.3975 383.514861 
L 137.7 384.014071 
L 137.0025 384.180474 
L 135.6075 383.681265 
L 134.91 383.747826 
L 134.2125 384.014071 
L 132.8175 384.180474 
L 132.12 383.514861 
L 130.725 384.247036 
L 130.0275 384.313597 
L 129.33 383.714545 
L 128.6325 383.714545 
L 127.2375 384.213755 
L 126.54 384.213755 
L 125.145 383.41502 
L 124.4475 383.914229 
L 123.75 384.147194 
L 122.355 383.514861 
L 120.96 384.180474 
L 120.2625 384.147194 
L 119.565 383.548142 
L 118.8675 383.581423 
L 118.17 384.247036 
L 117.4725 384.280316 
L 116.775 383.880948 
L 116.0775 383.647984 
L 115.38 384.014071 
L 114.6825 384.113913 
L 113.985 383.747826 
L 113.2875 383.514861 
L 112.59 383.681265 
L 111.8925 384.180474 
L 110.4975 383.41502 
L 109.8 383.681265 
L 109.1025 384.213755 
L 108.405 384.147194 
L 107.7075 383.581423 
L 107.01 383.381739 
L 105.615 384.213755 
L 104.22 383.348458 
L 103.5225 383.41502 
L 102.825 383.847668 
L 102.1275 383.914229 
L 101.43 383.41502 
L 100.7325 383.381739 
L 100.035 383.847668 
L 99.3375 383.914229 
L 97.9425 383.548142 
L 96.5475 384.080632 
L 95.1525 383.880948 
L 93.7575 386.077471 
L 93.06 385.212174 
L 92.3625 385.178893 
L 91.665 386.310435 
L 90.27 384.679684 
L 89.5725 383.781107 
L 88.875 384.413439 
L 88.1775 384.48 
L 87.48 384.180474 
L 86.7825 384.812806 
L 85.3875 384.313597 
L 84.69 384.546561 
L 83.9925 384.446719 
L 83.295 383.514861 
L 82.5975 383.248616 
L 81.9 383.714545 
L 81.2025 383.481581 
L 80.505 382.91581 
L 79.8075 382.616284 
L 79.11 382.616284 
L 78.4125 382.949091 
L 77.715 383.548142 
L 77.0175 383.98079 
L 76.32 383.747826 
L 75.6225 383.315178 
L 74.925 383.481581 
L 74.2275 383.98079 
L 73.53 383.248616 
L 72.8325 382.949091 
L 72.135 383.614703 
L 71.4375 383.4483 
L 70.74 383.115494 
L 70.0425 382.350039 
L 69.345 382.782687 
L 68.6475 383.681265 
L 67.95 382.782687 
L 67.2525 383.880948 
L 66.555 383.747826 
L 65.8575 383.115494 
L 65.16 383.4483 
L 63.0675 382.250197 
L 62.37 381.218497 
L 61.6725 382.216916 
L 60.975 383.581423 
L 60.2775 382.682845 
L 59.58 382.682845 
L 58.8825 382.91581 
L 58.185 382.350039 
L 57.4875 382.4166 
L 56.79 382.91581 
L 56.0925 382.117075 
L 55.395 381.817549 
L 54.6975 383.148774 
L 54 383.814387 
L 52.605 328.169157 
L 51.21 329.267418 
L 50.5125 328.834769 
L 49.815 328.135876 
L 49.1175 327.936192 
L 48.42 328.402121 
L 47.7225 329.101015 
L 47.025 328.86805 
L 46.3275 328.302279 
L 45.63 328.768208 
L 44.9325 329.467102 
L 43.5375 327.902911 
L 42.84 328.268998 
L 42.1425 329.067734 
L 41.445 329.200856 
L 40.7475 328.701647 
L 40.05 328.468682 
L 38.655 329.200856 
L 37.9575 328.535244 
L 37.26 328.402121 
L 36.5625 329.167576 
L 35.865 329.700066 
L 35.1675 329.067734 
L 34.47 328.801489 
L 33.7725 329.40054 
L 33.075 329.333979 
L 32.3775 328.768208 
L 31.68 328.535244 
L 30.285 329.700066 
L 29.5875 329.700066 
L 28.89 328.601805 
L 28.1925 328.435402 
L 26.7975 329.766627 
L 26.1 329.500382 
L 25.4025 328.734927 
L 24.705 328.934611 
L 24.0075 329.433821 
L 21.915 329.40054 
L 21.2175 330.066153 
L 20.52 330.099434 
L 19.8225 329.433821 
L 19.125 329.40054 
L 17.73 329.666785 
L 17.0325 329.433821 
L 16.335 328.668366 
L 15.6375 328.967892 
L 14.94 329.40054 
L 14.2425 328.402121 
L 13.545 328.635086 
L 12.15 328.568524 
L 11.4525 328.801489 
L 10.755 328.568524 
L 10.0575 329.566943 
L 9.36 330.232556 
L 7.965 328.701647 
L 7.2675 329.666785 
L 6.57 330.299118 
L 5.8725 329.600224 
L 5.175 328.601805 
L 3.78 330.665205 
L 3.0825 330.698485 
L 2.385 329.533663 
L 1.6875 329.300698 
L 0.99 329.566943 
L 0.2925 330.199276 
L -0.405 329.134295 
L -1 328.963956 
L -1 328.963956 
" clip-path="url(#p2e54bc0077)" style="fill: none; stroke: #ffc77f; stroke-opacity: 0.8; stroke-linecap: square"/>
   </g>
   <g id="patch_3">
    <path d="M 54 384.48 
L 54 51.84 
" style="fill: none; stroke: #000000; stroke-width: 0.8; stroke-linejoin: miter; stroke-linecap: square"/>
   </g>
   <g id="patch_4">
    <path d="M 388.8 384.48 
L 388.8 51.84 
" style="fill: none; stroke: #000000; stroke-width: 0.8; stroke-linejoin: miter; stroke-linecap: square"/>
   </g>
   <g id="patch_5">
    <path d="M 54 384.48 
L 388.8 384.48 
" style="fill: none; stroke: #000000; stroke-width: 0.8; stroke-linejoin: miter; stroke-linecap: square"/>
   </g>
   <g id="patch_6">
    <path d="M 54 51.84 
L 388.8 51.84 
" style="fill: none; stroke: #000000; stroke-width: 0.8; stroke-linejoin: miter; stroke-linecap: square"/>
   </g>
   <g id="legend_1">
    <g id="patch_7">
     <path d="M 315.28125 151.444375 
L 380.4 151.444375 
Q 382.8 151.444375 382.8 149.044375 
L 382.8 60.24 
Q 382.8 57.84 380.4 57.84 
L 315.28125 57.84 
Q 312.88125 57.84 312.88125 60.24 
L 312.88125 149.044375 
Q 312.88125 151.444375 315.28125 151.444375 
z
" style="fill: #ffffff; opacity: 0.8; stroke: #cccccc; stroke-linejoin: miter"/>
    </g>
    <g id="text_13">
     <!-- % CdS -->
     <g transform="translate(325.189063 73.277812) scale(0.14 -0.14)">
      <defs>
       <path id="DejaVuSans-43" d="M 4122 4306 
L 4122 3641 
Q 3803 3938 3442 4084 
Q 3081 4231 2675 4231 
Q 1875 4231 1450 3742 
Q 1025 3253 1025 2328 
Q 1025 1406 1450 917 
Q 1875 428 2675 428 
Q 3081 428 3442 575 
Q 3803 722 4122 1019 
L 4122 359 
Q 3791 134 3420 21 
Q 3050 -91 2638 -91 
Q 1578 -91 968 557 
Q 359 1206 359 2328 
Q 359 3453 968 4101 
Q 1578 4750 2638 4750 
Q 3056 4750 3426 4639 
Q 3797 4528 4122 4306 
z
" transform="scale(0.015625)"/>
       <path id="DejaVuSans-64" d="M 2906 2969 
L 2906 4863 
L 3481 4863 
L 3481 0 
L 2906 0 
L 2906 525 
Q 2725 213 2448 61 
Q 2172 -91 1784 -91 
Q 1150 -91 751 415 
Q 353 922 353 1747 
Q 353 2572 751 3078 
Q 1150 3584 1784 3584 
Q 2172 3584 2448 3432 
Q 2725 3281 2906 2969 
z
M 947 1747 
Q 947 1113 1208 752 
Q 1469 391 1925 391 
Q 2381 391 2643 752 
Q 2906 1113 2906 1747 
Q 2906 2381 2643 2742 
Q 2381 3103 1925 3103 
Q 1469 3103 1208 2742 
Q 947 2381 947 1747 
z
" transform="scale(0.015625)"/>
       <path id="DejaVuSans-53" d="M 3425 4513 
L 3425 3897 
Q 3066 4069 2747 4153 
Q 2428 4238 2131 4238 
Q 1616 4238 1336 4038 
Q 1056 3838 1056 3469 
Q 1056 3159 1242 3001 
Q 1428 2844 1947 2747 
L 2328 2669 
Q 3034 2534 3370 2195 
Q 3706 1856 3706 1288 
Q 3706 609 3251 259 
Q 2797 -91 1919 -91 
Q 1588 -91 1214 -16 
Q 841 59 441 206 
L 441 856 
Q 825 641 1194 531 
Q 1563 422 1919 422 
Q 2459 422 2753 634 
Q 3047 847 3047 1241 
Q 3047 1584 2836 1778 
Q 2625 1972 2144 2069 
L 1759 2144 
Q 1053 2284 737 2584 
Q 422 2884 422 3419 
Q 422 4038 858 4394 
Q 1294 4750 2059 4750 
Q 2388 4750 2728 4690 
Q 3069 4631 3425 4513 
z
" transform="scale(0.015625)"/>
      </defs>
      <use xlink:href="#DejaVuSans-25"/>
      <use xlink:href="#DejaVuSans-20" x="95.019531"/>
      <use xlink:href="#DejaVuSans-43" x="126.806641"/>
      <use xlink:href="#DejaVuSans-64" x="196.630859"/>
      <use xlink:href="#DejaVuSans-53" x="260.107422"/>
     </g>
    </g>
    <g id="line2d_15">
     <path d="M 317.68125 87.1075 
L 329.68125 87.1075 
L 341.68125 87.1075 
" style="fill: none; stroke: #000000; stroke-opacity: 0.8; stroke-linecap: square"/>
    </g>
    <g id="text_14">
     <!-- 0.05 -->
     <g transform="translate(351.28125 91.3075) scale(0.12 -0.12)">
      <defs>
       <path id="DejaVuSans-2e" d="M 684 794 
L 1344 794 
L 1344 0 
L 684 0 
L 684 794 
z
" transform="scale(0.015625)"/>
      </defs>
      <use xlink:href="#DejaVuSans-30"/>
      <use xlink:href="#DejaVuSans-2e" x="63.623047"/>
      <use xlink:href="#DejaVuSans-30" x="95.410156"/>
      <use xlink:href="#DejaVuSans-35" x="159.033203"/>
     </g>
    </g>
    <g id="line2d_16">
     <path d="M 317.68125 104.72125 
L 329.68125 104.72125 
L 341.68125 104.72125 
" style="fill: none; stroke: #69422a; stroke-opacity: 0.8; stroke-linecap: square"/>
    </g>
    <g id="text_15">
     <!-- 0.10 -->
     <g transform="translate(351.28125 108.92125) scale(0.12 -0.12)">
      <use xlink:href="#DejaVuSans-30"/>
      <use xlink:href="#DejaVuSans-2e" x="63.623047"/>
      <use xlink:href="#DejaVuSans-31" x="95.410156"/>
      <use xlink:href="#DejaVuSans-30" x="159.033203"/>
     </g>
    </g>
    <g id="line2d_17">
     <path d="M 317.68125 122.335 
L 329.68125 122.335 
L 341.68125 122.335 
" style="fill: none; stroke: #d28555; stroke-opacity: 0.8; stroke-linecap: square"/>
    </g>
    <g id="text_16">
     <!-- 0.20 -->
     <g transform="translate(351.28125 126.535) scale(0.12 -0.12)">
      <use xlink:href="#DejaVuSans-30"/>
      <use xlink:href="#DejaVuSans-2e" x="63.623047"/>
      <use xlink:href="#DejaVuSans-32" x="95.410156"/>
      <use xlink:href="#DejaVuSans-30" x="159.033203"/>
     </g>
    </g>
    <g id="line2d_18">
     <path d="M 317.68125 139.94875 
L 329.68125 139.94875 
L 341.68125 139.94875 
" style="fill: none; stroke: #ffc77f; stroke-opacity: 0.8; stroke-linecap: square"/>
    </g>
    <g id="text_17">
     <!-- 0.30 -->
     <g transform="translate(351.28125 144.14875) scale(0.12 -0.12)">
      <defs>
       <path id="DejaVuSans-33" d="M 2597 2516 
Q 3050 2419 3304 2112 
Q 3559 1806 3559 1356 
Q 3559 666 3084 287 
Q 2609 -91 1734 -91 
Q 1441 -91 1130 -33 
Q 819 25 488 141 
L 488 750 
Q 750 597 1062 519 
Q 1375 441 1716 441 
Q 2309 441 2620 675 
Q 2931 909 2931 1356 
Q 2931 1769 2642 2001 
Q 2353 2234 1838 2234 
L 1294 2234 
L 1294 2753 
L 1863 2753 
Q 2328 2753 2575 2939 
Q 2822 3125 2822 3475 
Q 2822 3834 2567 4026 
Q 2313 4219 1838 4219 
Q 1578 4219 1281 4162 
Q 984 4106 628 3988 
L 628 4550 
Q 988 4650 1302 4700 
Q 1616 4750 1894 4750 
Q 2613 4750 3031 4423 
Q 3450 4097 3450 3541 
Q 3450 3153 3228 2886 
Q 3006 2619 2597 2516 
z
" transform="scale(0.015625)"/>
      </defs>
      <use xlink:href="#DejaVuSans-30"/>
      <use xlink:href="#DejaVuSans-2e" x="63.623047"/>
      <use xlink:href="#DejaVuSans-33" x="95.410156"/>
      <use xlink:href="#DejaVuSans-30" x="159.033203"/>
     </g>
    </g>
   </g>
  </g>
 </g>
 <defs>
  <clipPath id="p2e54bc0077">
   <rect x="54" y="51.84" width="334.8" height="332.64"/>
  </clipPath>
 </defs>
</svg>
