<?xml version="1.0" encoding="utf-8" standalone="no"?>
<!DOCTYPE svg PUBLIC "-//W3C//DTD SVG 1.1//EN"
  "http://www.w3.org/Graphics/SVG/1.1/DTD/svg11.dtd">
<svg xmlns:xlink="http://www.w3.org/1999/xlink" width="432pt" height="432pt" viewBox="0 0 432 432" xmlns="http://www.w3.org/2000/svg" version="1.1">
 <metadata>
  <rdf:RDF xmlns:dc="http://purl.org/dc/elements/1.1/" xmlns:cc="http://creativecommons.org/ns#" xmlns:rdf="http://www.w3.org/1999/02/22-rdf-syntax-ns#">
   <cc:Work>
    <dc:type rdf:resource="http://purl.org/dc/dcmitype/StillImage"/>
    <dc:date>2025-05-16T09:52:09.584955</dc:date>
    <dc:format>image/svg+xml</dc:format>
    <dc:creator>
     <cc:Agent>
      <dc:title>Matplotlib v3.8.3, https://matplotlib.org/</dc:title>
     </cc:Agent>
    </dc:creator>
   </cc:Work>
  </rdf:RDF>
 </metadata>
 <defs>
  <style type="text/css">*{stroke-linejoin: round; stroke-linecap: butt}</style>
 </defs>
 <g id="figure_1">
  <g id="patch_1">
   <path d="M 0 432 
L 432 432 
L 432 0 
L 0 0 
z
" style="fill: #ffffff"/>
  </g>
  <g id="axes_1">
   <g id="patch_2">
    <path d="M 54 384.48 
L 388.8 384.48 
L 388.8 51.84 
L 54 51.84 
z
" style="fill: #ffffff"/>
   </g>
   <g id="matplotlib.axis_1">
    <g id="xtick_1">
     <g id="line2d_1">
      <defs>
       <path id="m6fa49ebfc4" d="M 0 0 
L 0 3.5 
" style="stroke: #000000; stroke-width: 0.8"/>
      </defs>
      <g>
       <use xlink:href="#m6fa49ebfc4" x="109.8" y="384.48" style="stroke: #000000; stroke-width: 0.8"/>
      </g>
     </g>
     <g id="text_1">
      <!-- 400 -->
      <g transform="translate(100.25625 399.078438) scale(0.1 -0.1)">
       <defs>
        <path id="DejaVuSans-34" d="M 2419 4116 
L 825 1625 
L 2419 1625 
L 2419 4116 
z
M 2253 4666 
L 3047 4666 
L 3047 1625 
L 3713 1625 
L 3713 1100 
L 3047 1100 
L 3047 0 
L 2419 0 
L 2419 1100 
L 313 1100 
L 313 1709 
L 2253 4666 
z
" transform="scale(0.015625)"/>
        <path id="DejaVuSans-30" d="M 2034 4250 
Q 1547 4250 1301 3770 
Q 1056 3291 1056 2328 
Q 1056 1369 1301 889 
Q 1547 409 2034 409 
Q 2525 409 2770 889 
Q 3016 1369 3016 2328 
Q 3016 3291 2770 3770 
Q 2525 4250 2034 4250 
z
M 2034 4750 
Q 2819 4750 3233 4129 
Q 3647 3509 3647 2328 
Q 3647 1150 3233 529 
Q 2819 -91 2034 -91 
Q 1250 -91 836 529 
Q 422 1150 422 2328 
Q 422 3509 836 4129 
Q 1250 4750 2034 4750 
z
" transform="scale(0.015625)"/>
       </defs>
       <use xlink:href="#DejaVuSans-34"/>
       <use xlink:href="#DejaVuSans-30" x="63.623047"/>
       <use xlink:href="#DejaVuSans-30" x="127.246094"/>
      </g>
     </g>
    </g>
    <g id="xtick_2">
     <g id="line2d_2">
      <g>
       <use xlink:href="#m6fa49ebfc4" x="179.55" y="384.48" style="stroke: #000000; stroke-width: 0.8"/>
      </g>
     </g>
     <g id="text_2">
      <!-- 500 -->
      <g transform="translate(170.00625 399.078438) scale(0.1 -0.1)">
       <defs>
        <path id="DejaVuSans-35" d="M 691 4666 
L 3169 4666 
L 3169 4134 
L 1269 4134 
L 1269 2991 
Q 1406 3038 1543 3061 
Q 1681 3084 1819 3084 
Q 2600 3084 3056 2656 
Q 3513 2228 3513 1497 
Q 3513 744 3044 326 
Q 2575 -91 1722 -91 
Q 1428 -91 1123 -41 
Q 819 9 494 109 
L 494 744 
Q 775 591 1075 516 
Q 1375 441 1709 441 
Q 2250 441 2565 725 
Q 2881 1009 2881 1497 
Q 2881 1984 2565 2268 
Q 2250 2553 1709 2553 
Q 1456 2553 1204 2497 
Q 953 2441 691 2322 
L 691 4666 
z
" transform="scale(0.015625)"/>
       </defs>
       <use xlink:href="#DejaVuSans-35"/>
       <use xlink:href="#DejaVuSans-30" x="63.623047"/>
       <use xlink:href="#DejaVuSans-30" x="127.246094"/>
      </g>
     </g>
    </g>
    <g id="xtick_3">
     <g id="line2d_3">
      <g>
       <use xlink:href="#m6fa49ebfc4" x="249.3" y="384.48" style="stroke: #000000; stroke-width: 0.8"/>
      </g>
     </g>
     <g id="text_3">
      <!-- 600 -->
      <g transform="translate(239.75625 399.078438) scale(0.1 -0.1)">
       <defs>
        <path id="DejaVuSans-36" d="M 2113 2584 
Q 1688 2584 1439 2293 
Q 1191 2003 1191 1497 
Q 1191 994 1439 701 
Q 1688 409 2113 409 
Q 2538 409 2786 701 
Q 3034 994 3034 1497 
Q 3034 2003 2786 2293 
Q 2538 2584 2113 2584 
z
M 3366 4563 
L 3366 3988 
Q 3128 4100 2886 4159 
Q 2644 4219 2406 4219 
Q 1781 4219 1451 3797 
Q 1122 3375 1075 2522 
Q 1259 2794 1537 2939 
Q 1816 3084 2150 3084 
Q 2853 3084 3261 2657 
Q 3669 2231 3669 1497 
Q 3669 778 3244 343 
Q 2819 -91 2113 -91 
Q 1303 -91 875 529 
Q 447 1150 447 2328 
Q 447 3434 972 4092 
Q 1497 4750 2381 4750 
Q 2619 4750 2861 4703 
Q 3103 4656 3366 4563 
z
" transform="scale(0.015625)"/>
       </defs>
       <use xlink:href="#DejaVuSans-36"/>
       <use xlink:href="#DejaVuSans-30" x="63.623047"/>
       <use xlink:href="#DejaVuSans-30" x="127.246094"/>
      </g>
     </g>
    </g>
    <g id="xtick_4">
     <g id="line2d_4">
      <g>
       <use xlink:href="#m6fa49ebfc4" x="319.05" y="384.48" style="stroke: #000000; stroke-width: 0.8"/>
      </g>
     </g>
     <g id="text_4">
      <!-- 700 -->
      <g transform="translate(309.50625 399.078438) scale(0.1 -0.1)">
       <defs>
        <path id="DejaVuSans-37" d="M 525 4666 
L 3525 4666 
L 3525 4397 
L 1831 0 
L 1172 0 
L 2766 4134 
L 525 4134 
L 525 4666 
z
" transform="scale(0.015625)"/>
       </defs>
       <use xlink:href="#DejaVuSans-37"/>
       <use xlink:href="#DejaVuSans-30" x="63.623047"/>
       <use xlink:href="#DejaVuSans-30" x="127.246094"/>
      </g>
     </g>
    </g>
    <g id="xtick_5">
     <g id="line2d_5">
      <g>
       <use xlink:href="#m6fa49ebfc4" x="388.8" y="384.48" style="stroke: #000000; stroke-width: 0.8"/>
      </g>
     </g>
     <g id="text_5">
      <!-- 800 -->
      <g transform="translate(379.25625 399.078438) scale(0.1 -0.1)">
       <defs>
        <path id="DejaVuSans-38" d="M 2034 2216 
Q 1584 2216 1326 1975 
Q 1069 1734 1069 1313 
Q 1069 891 1326 650 
Q 1584 409 2034 409 
Q 2484 409 2743 651 
Q 3003 894 3003 1313 
Q 3003 1734 2745 1975 
Q 2488 2216 2034 2216 
z
M 1403 2484 
Q 997 2584 770 2862 
Q 544 3141 544 3541 
Q 544 4100 942 4425 
Q 1341 4750 2034 4750 
Q 2731 4750 3128 4425 
Q 3525 4100 3525 3541 
Q 3525 3141 3298 2862 
Q 3072 2584 2669 2484 
Q 3125 2378 3379 2068 
Q 3634 1759 3634 1313 
Q 3634 634 3220 271 
Q 2806 -91 2034 -91 
Q 1263 -91 848 271 
Q 434 634 434 1313 
Q 434 1759 690 2068 
Q 947 2378 1403 2484 
z
M 1172 3481 
Q 1172 3119 1398 2916 
Q 1625 2713 2034 2713 
Q 2441 2713 2670 2916 
Q 2900 3119 2900 3481 
Q 2900 3844 2670 4047 
Q 2441 4250 2034 4250 
Q 1625 4250 1398 4047 
Q 1172 3844 1172 3481 
z
" transform="scale(0.015625)"/>
       </defs>
       <use xlink:href="#DejaVuSans-38"/>
       <use xlink:href="#DejaVuSans-30" x="63.623047"/>
       <use xlink:href="#DejaVuSans-30" x="127.246094"/>
      </g>
     </g>
    </g>
    <g id="text_6">
     <!-- Wavelength (nm) -->
     <g transform="translate(169.569375 414.27625) scale(0.12 -0.12)">
      <defs>
       <path id="DejaVuSans-57" d="M 213 4666 
L 850 4666 
L 1831 722 
L 2809 4666 
L 3519 4666 
L 4500 722 
L 5478 4666 
L 6119 4666 
L 4947 0 
L 4153 0 
L 3169 4050 
L 2175 0 
L 1381 0 
L 213 4666 
z
" transform="scale(0.015625)"/>
       <path id="DejaVuSans-61" d="M 2194 1759 
Q 1497 1759 1228 1600 
Q 959 1441 959 1056 
Q 959 750 1161 570 
Q 1363 391 1709 391 
Q 2188 391 2477 730 
Q 2766 1069 2766 1631 
L 2766 1759 
L 2194 1759 
z
M 3341 1997 
L 3341 0 
L 2766 0 
L 2766 531 
Q 2569 213 2275 61 
Q 1981 -91 1556 -91 
Q 1019 -91 701 211 
Q 384 513 384 1019 
Q 384 1609 779 1909 
Q 1175 2209 1959 2209 
L 2766 2209 
L 2766 2266 
Q 2766 2663 2505 2880 
Q 2244 3097 1772 3097 
Q 1472 3097 1187 3025 
Q 903 2953 641 2809 
L 641 3341 
Q 956 3463 1253 3523 
Q 1550 3584 1831 3584 
Q 2591 3584 2966 3190 
Q 3341 2797 3341 1997 
z
" transform="scale(0.015625)"/>
       <path id="DejaVuSans-76" d="M 191 3500 
L 800 3500 
L 1894 563 
L 2988 3500 
L 3597 3500 
L 2284 0 
L 1503 0 
L 191 3500 
z
" transform="scale(0.015625)"/>
       <path id="DejaVuSans-65" d="M 3597 1894 
L 3597 1613 
L 953 1613 
Q 991 1019 1311 708 
Q 1631 397 2203 397 
Q 2534 397 2845 478 
Q 3156 559 3463 722 
L 3463 178 
Q 3153 47 2828 -22 
Q 2503 -91 2169 -91 
Q 1331 -91 842 396 
Q 353 884 353 1716 
Q 353 2575 817 3079 
Q 1281 3584 2069 3584 
Q 2775 3584 3186 3129 
Q 3597 2675 3597 1894 
z
M 3022 2063 
Q 3016 2534 2758 2815 
Q 2500 3097 2075 3097 
Q 1594 3097 1305 2825 
Q 1016 2553 972 2059 
L 3022 2063 
z
" transform="scale(0.015625)"/>
       <path id="DejaVuSans-6c" d="M 603 4863 
L 1178 4863 
L 1178 0 
L 603 0 
L 603 4863 
z
" transform="scale(0.015625)"/>
       <path id="DejaVuSans-6e" d="M 3513 2113 
L 3513 0 
L 2938 0 
L 2938 2094 
Q 2938 2591 2744 2837 
Q 2550 3084 2163 3084 
Q 1697 3084 1428 2787 
Q 1159 2491 1159 1978 
L 1159 0 
L 581 0 
L 581 3500 
L 1159 3500 
L 1159 2956 
Q 1366 3272 1645 3428 
Q 1925 3584 2291 3584 
Q 2894 3584 3203 3211 
Q 3513 2838 3513 2113 
z
" transform="scale(0.015625)"/>
       <path id="DejaVuSans-67" d="M 2906 1791 
Q 2906 2416 2648 2759 
Q 2391 3103 1925 3103 
Q 1463 3103 1205 2759 
Q 947 2416 947 1791 
Q 947 1169 1205 825 
Q 1463 481 1925 481 
Q 2391 481 2648 825 
Q 2906 1169 2906 1791 
z
M 3481 434 
Q 3481 -459 3084 -895 
Q 2688 -1331 1869 -1331 
Q 1566 -1331 1297 -1286 
Q 1028 -1241 775 -1147 
L 775 -588 
Q 1028 -725 1275 -790 
Q 1522 -856 1778 -856 
Q 2344 -856 2625 -561 
Q 2906 -266 2906 331 
L 2906 616 
Q 2728 306 2450 153 
Q 2172 0 1784 0 
Q 1141 0 747 490 
Q 353 981 353 1791 
Q 353 2603 747 3093 
Q 1141 3584 1784 3584 
Q 2172 3584 2450 3431 
Q 2728 3278 2906 2969 
L 2906 3500 
L 3481 3500 
L 3481 434 
z
" transform="scale(0.015625)"/>
       <path id="DejaVuSans-74" d="M 1172 4494 
L 1172 3500 
L 2356 3500 
L 2356 3053 
L 1172 3053 
L 1172 1153 
Q 1172 725 1289 603 
Q 1406 481 1766 481 
L 2356 481 
L 2356 0 
L 1766 0 
Q 1100 0 847 248 
Q 594 497 594 1153 
L 594 3053 
L 172 3053 
L 172 3500 
L 594 3500 
L 594 4494 
L 1172 4494 
z
" transform="scale(0.015625)"/>
       <path id="DejaVuSans-68" d="M 3513 2113 
L 3513 0 
L 2938 0 
L 2938 2094 
Q 2938 2591 2744 2837 
Q 2550 3084 2163 3084 
Q 1697 3084 1428 2787 
Q 1159 2491 1159 1978 
L 1159 0 
L 581 0 
L 581 4863 
L 1159 4863 
L 1159 2956 
Q 1366 3272 1645 3428 
Q 1925 3584 2291 3584 
Q 2894 3584 3203 3211 
Q 3513 2838 3513 2113 
z
" transform="scale(0.015625)"/>
       <path id="DejaVuSans-20" transform="scale(0.015625)"/>
       <path id="DejaVuSans-28" d="M 1984 4856 
Q 1566 4138 1362 3434 
Q 1159 2731 1159 2009 
Q 1159 1288 1364 580 
Q 1569 -128 1984 -844 
L 1484 -844 
Q 1016 -109 783 600 
Q 550 1309 550 2009 
Q 550 2706 781 3412 
Q 1013 4119 1484 4856 
L 1984 4856 
z
" transform="scale(0.015625)"/>
       <path id="DejaVuSans-6d" d="M 3328 2828 
Q 3544 3216 3844 3400 
Q 4144 3584 4550 3584 
Q 5097 3584 5394 3201 
Q 5691 2819 5691 2113 
L 5691 0 
L 5113 0 
L 5113 2094 
Q 5113 2597 4934 2840 
Q 4756 3084 4391 3084 
Q 3944 3084 3684 2787 
Q 3425 2491 3425 1978 
L 3425 0 
L 2847 0 
L 2847 2094 
Q 2847 2600 2669 2842 
Q 2491 3084 2119 3084 
Q 1678 3084 1418 2786 
Q 1159 2488 1159 1978 
L 1159 0 
L 581 0 
L 581 3500 
L 1159 3500 
L 1159 2956 
Q 1356 3278 1631 3431 
Q 1906 3584 2284 3584 
Q 2666 3584 2933 3390 
Q 3200 3197 3328 2828 
z
" transform="scale(0.015625)"/>
       <path id="DejaVuSans-29" d="M 513 4856 
L 1013 4856 
Q 1481 4119 1714 3412 
Q 1947 2706 1947 2009 
Q 1947 1309 1714 600 
Q 1481 -109 1013 -844 
L 513 -844 
Q 928 -128 1133 580 
Q 1338 1288 1338 2009 
Q 1338 2731 1133 3434 
Q 928 4138 513 4856 
z
" transform="scale(0.015625)"/>
      </defs>
      <use xlink:href="#DejaVuSans-57"/>
      <use xlink:href="#DejaVuSans-61" x="92.501953"/>
      <use xlink:href="#DejaVuSans-76" x="153.78125"/>
      <use xlink:href="#DejaVuSans-65" x="212.960938"/>
      <use xlink:href="#DejaVuSans-6c" x="274.484375"/>
      <use xlink:href="#DejaVuSans-65" x="302.267578"/>
      <use xlink:href="#DejaVuSans-6e" x="363.791016"/>
      <use xlink:href="#DejaVuSans-67" x="427.169922"/>
      <use xlink:href="#DejaVuSans-74" x="490.646484"/>
      <use xlink:href="#DejaVuSans-68" x="529.855469"/>
      <use xlink:href="#DejaVuSans-20" x="593.234375"/>
      <use xlink:href="#DejaVuSans-28" x="625.021484"/>
      <use xlink:href="#DejaVuSans-6e" x="664.035156"/>
      <use xlink:href="#DejaVuSans-6d" x="727.414062"/>
      <use xlink:href="#DejaVuSans-29" x="824.826172"/>
     </g>
    </g>
   </g>
   <g id="matplotlib.axis_2">
    <g id="ytick_1">
     <g id="line2d_6">
      <defs>
       <path id="m58083c7538" d="M 0 0 
L -3.5 0 
" style="stroke: #000000; stroke-width: 0.8"/>
      </defs>
      <g>
       <use xlink:href="#m58083c7538" x="54" y="318.085123" style="stroke: #000000; stroke-width: 0.8"/>
      </g>
     </g>
     <g id="text_7">
      <!-- 20 -->
      <g transform="translate(34.275 321.884341) scale(0.1 -0.1)">
       <defs>
        <path id="DejaVuSans-32" d="M 1228 531 
L 3431 531 
L 3431 0 
L 469 0 
L 469 531 
Q 828 903 1448 1529 
Q 2069 2156 2228 2338 
Q 2531 2678 2651 2914 
Q 2772 3150 2772 3378 
Q 2772 3750 2511 3984 
Q 2250 4219 1831 4219 
Q 1534 4219 1204 4116 
Q 875 4013 500 3803 
L 500 4441 
Q 881 4594 1212 4672 
Q 1544 4750 1819 4750 
Q 2544 4750 2975 4387 
Q 3406 4025 3406 3419 
Q 3406 3131 3298 2873 
Q 3191 2616 2906 2266 
Q 2828 2175 2409 1742 
Q 1991 1309 1228 531 
z
" transform="scale(0.015625)"/>
       </defs>
       <use xlink:href="#DejaVuSans-32"/>
       <use xlink:href="#DejaVuSans-30" x="63.623047"/>
      </g>
     </g>
    </g>
    <g id="ytick_2">
     <g id="line2d_7">
      <g>
       <use xlink:href="#m58083c7538" x="54" y="251.523842" style="stroke: #000000; stroke-width: 0.8"/>
      </g>
     </g>
     <g id="text_8">
      <!-- 40 -->
      <g transform="translate(34.275 255.323061) scale(0.1 -0.1)">
       <use xlink:href="#DejaVuSans-34"/>
       <use xlink:href="#DejaVuSans-30" x="63.623047"/>
      </g>
     </g>
    </g>
    <g id="ytick_3">
     <g id="line2d_8">
      <g>
       <use xlink:href="#m58083c7538" x="54" y="184.962561" style="stroke: #000000; stroke-width: 0.8"/>
      </g>
     </g>
     <g id="text_9">
      <!-- 60 -->
      <g transform="translate(34.275 188.76178) scale(0.1 -0.1)">
       <use xlink:href="#DejaVuSans-36"/>
       <use xlink:href="#DejaVuSans-30" x="63.623047"/>
      </g>
     </g>
    </g>
    <g id="ytick_4">
     <g id="line2d_9">
      <g>
       <use xlink:href="#m58083c7538" x="54" y="118.401281" style="stroke: #000000; stroke-width: 0.8"/>
      </g>
     </g>
     <g id="text_10">
      <!-- 80 -->
      <g transform="translate(34.275 122.200499) scale(0.1 -0.1)">
       <use xlink:href="#DejaVuSans-38"/>
       <use xlink:href="#DejaVuSans-30" x="63.623047"/>
      </g>
     </g>
    </g>
    <g id="ytick_5">
     <g id="line2d_10">
      <g>
       <use xlink:href="#m58083c7538" x="54" y="51.84" style="stroke: #000000; stroke-width: 0.8"/>
      </g>
     </g>
     <g id="text_11">
      <!-- 100 -->
      <g transform="translate(27.9125 55.639219) scale(0.1 -0.1)">
       <defs>
        <path id="DejaVuSans-31" d="M 794 531 
L 1825 531 
L 1825 4091 
L 703 3866 
L 703 4441 
L 1819 4666 
L 2450 4666 
L 2450 531 
L 3481 531 
L 3481 0 
L 794 0 
L 794 531 
z
" transform="scale(0.015625)"/>
       </defs>
       <use xlink:href="#DejaVuSans-31"/>
       <use xlink:href="#DejaVuSans-30" x="63.623047"/>
       <use xlink:href="#DejaVuSans-30" x="127.246094"/>
      </g>
     </g>
    </g>
    <g id="text_12">
     <!-- % Transmittance -->
     <g transform="translate(21.416875 268.305) rotate(-90) scale(0.12 -0.12)">
      <defs>
       <path id="DejaVuSans-25" d="M 4653 2053 
Q 4381 2053 4226 1822 
Q 4072 1591 4072 1178 
Q 4072 772 4226 539 
Q 4381 306 4653 306 
Q 4919 306 5073 539 
Q 5228 772 5228 1178 
Q 5228 1588 5073 1820 
Q 4919 2053 4653 2053 
z
M 4653 2450 
Q 5147 2450 5437 2106 
Q 5728 1763 5728 1178 
Q 5728 594 5436 251 
Q 5144 -91 4653 -91 
Q 4153 -91 3862 251 
Q 3572 594 3572 1178 
Q 3572 1766 3864 2108 
Q 4156 2450 4653 2450 
z
M 1428 4353 
Q 1159 4353 1004 4120 
Q 850 3888 850 3481 
Q 850 3069 1003 2837 
Q 1156 2606 1428 2606 
Q 1700 2606 1854 2837 
Q 2009 3069 2009 3481 
Q 2009 3884 1853 4118 
Q 1697 4353 1428 4353 
z
M 4250 4750 
L 4750 4750 
L 1831 -91 
L 1331 -91 
L 4250 4750 
z
M 1428 4750 
Q 1922 4750 2215 4408 
Q 2509 4066 2509 3481 
Q 2509 2891 2217 2550 
Q 1925 2209 1428 2209 
Q 931 2209 642 2551 
Q 353 2894 353 3481 
Q 353 4063 643 4406 
Q 934 4750 1428 4750 
z
" transform="scale(0.015625)"/>
       <path id="DejaVuSans-54" d="M -19 4666 
L 3928 4666 
L 3928 4134 
L 2272 4134 
L 2272 0 
L 1638 0 
L 1638 4134 
L -19 4134 
L -19 4666 
z
" transform="scale(0.015625)"/>
       <path id="DejaVuSans-72" d="M 2631 2963 
Q 2534 3019 2420 3045 
Q 2306 3072 2169 3072 
Q 1681 3072 1420 2755 
Q 1159 2438 1159 1844 
L 1159 0 
L 581 0 
L 581 3500 
L 1159 3500 
L 1159 2956 
Q 1341 3275 1631 3429 
Q 1922 3584 2338 3584 
Q 2397 3584 2469 3576 
Q 2541 3569 2628 3553 
L 2631 2963 
z
" transform="scale(0.015625)"/>
       <path id="DejaVuSans-73" d="M 2834 3397 
L 2834 2853 
Q 2591 2978 2328 3040 
Q 2066 3103 1784 3103 
Q 1356 3103 1142 2972 
Q 928 2841 928 2578 
Q 928 2378 1081 2264 
Q 1234 2150 1697 2047 
L 1894 2003 
Q 2506 1872 2764 1633 
Q 3022 1394 3022 966 
Q 3022 478 2636 193 
Q 2250 -91 1575 -91 
Q 1294 -91 989 -36 
Q 684 19 347 128 
L 347 722 
Q 666 556 975 473 
Q 1284 391 1588 391 
Q 1994 391 2212 530 
Q 2431 669 2431 922 
Q 2431 1156 2273 1281 
Q 2116 1406 1581 1522 
L 1381 1569 
Q 847 1681 609 1914 
Q 372 2147 372 2553 
Q 372 3047 722 3315 
Q 1072 3584 1716 3584 
Q 2034 3584 2315 3537 
Q 2597 3491 2834 3397 
z
" transform="scale(0.015625)"/>
       <path id="DejaVuSans-69" d="M 603 3500 
L 1178 3500 
L 1178 0 
L 603 0 
L 603 3500 
z
M 603 4863 
L 1178 4863 
L 1178 4134 
L 603 4134 
L 603 4863 
z
" transform="scale(0.015625)"/>
       <path id="DejaVuSans-63" d="M 3122 3366 
L 3122 2828 
Q 2878 2963 2633 3030 
Q 2388 3097 2138 3097 
Q 1578 3097 1268 2742 
Q 959 2388 959 1747 
Q 959 1106 1268 751 
Q 1578 397 2138 397 
Q 2388 397 2633 464 
Q 2878 531 3122 666 
L 3122 134 
Q 2881 22 2623 -34 
Q 2366 -91 2075 -91 
Q 1284 -91 818 406 
Q 353 903 353 1747 
Q 353 2603 823 3093 
Q 1294 3584 2113 3584 
Q 2378 3584 2631 3529 
Q 2884 3475 3122 3366 
z
" transform="scale(0.015625)"/>
      </defs>
      <use xlink:href="#DejaVuSans-25"/>
      <use xlink:href="#DejaVuSans-20" x="95.019531"/>
      <use xlink:href="#DejaVuSans-54" x="126.806641"/>
      <use xlink:href="#DejaVuSans-72" x="173.140625"/>
      <use xlink:href="#DejaVuSans-61" x="214.253906"/>
      <use xlink:href="#DejaVuSans-6e" x="275.533203"/>
      <use xlink:href="#DejaVuSans-73" x="338.912109"/>
      <use xlink:href="#DejaVuSans-6d" x="391.011719"/>
      <use xlink:href="#DejaVuSans-69" x="488.423828"/>
      <use xlink:href="#DejaVuSans-74" x="516.207031"/>
      <use xlink:href="#DejaVuSans-74" x="555.416016"/>
      <use xlink:href="#DejaVuSans-61" x="594.625"/>
      <use xlink:href="#DejaVuSans-6e" x="655.904297"/>
      <use xlink:href="#DejaVuSans-63" x="719.283203"/>
      <use xlink:href="#DejaVuSans-65" x="774.263672"/>
     </g>
    </g>
   </g>
   <g id="line2d_11">
    <path d="M 388.8 155.77544 
L 388.1025 159.868958 
L 387.405 162.165323 
L 386.7075 154.477495 
L 386.01 157.971962 
L 385.3125 155.609037 
L 384.615 153.945005 
L 383.9175 156.906981 
L 383.22 151.548798 
L 382.5225 154.21125 
L 381.825 153.345953 
L 381.1275 156.407772 
L 380.43 156.740578 
L 379.7325 153.21283 
L 379.035 157.87212 
L 378.3375 154.277811 
L 377.64 160.834097 
L 376.9425 160.035362 
L 376.245 159.868958 
L 375.5475 160.567852 
L 374.85 157.040104 
L 374.1525 159.336468 
L 373.455 153.911724 
L 372.7575 156.274649 
L 372.06 160.800816 
L 371.3625 149.086031 
L 370.665 157.239788 
L 369.9675 160.867378 
L 369.27 158.637575 
L 368.5725 155.242949 
L 367.875 157.406191 
L 367.1775 157.472752 
L 366.48 160.767536 
L 365.7825 158.171646 
L 365.085 158.637575 
L 364.3875 159.868958 
L 363.69 164.761213 
L 362.9925 160.567852 
L 362.295 161.067062 
L 360.9 159.802397 
L 360.2025 160.168484 
L 359.505 165.1273 
L 358.8075 166.491806 
L 358.11 160.567852 
L 357.4125 159.902239 
L 356.715 163.230303 
L 356.0175 162.398287 
L 355.32 163.862635 
L 354.6225 165.027458 
L 353.925 166.525087 
L 353.2275 162.53141 
L 352.53 162.731094 
L 351.8325 160.800816 
L 351.135 163.263584 
L 350.4375 164.994177 
L 349.74 165.593229 
L 349.0425 163.330145 
L 348.345 162.464848 
L 347.6475 163.463268 
L 346.95 162.198603 
L 346.2525 163.962477 
L 345.555 164.228722 
L 344.8575 162.764374 
L 344.16 161.566271 
L 343.4625 162.597971 
L 342.765 162.731094 
L 342.0675 165.326983 
L 341.37 165.393545 
L 340.6725 162.597971 
L 339.975 166.591648 
L 339.2775 166.991016 
L 338.58 164.827774 
L 337.8825 164.894335 
L 337.185 163.396706 
L 336.4875 162.431568 
L 335.79 164.395126 
L 335.0925 165.859474 
L 334.395 165.892754 
L 333.6975 166.624928 
L 333 166.758051 
L 332.3025 165.460106 
L 331.605 165.027458 
L 330.9075 166.857893 
L 329.5125 167.423664 
L 328.815 165.426825 
L 328.1175 166.19228 
L 327.42 164.994177 
L 326.7225 168.28896 
L 326.025 167.789751 
L 325.3275 165.65979 
L 324.63 164.461687 
L 323.9325 165.293703 
L 323.235 164.827774 
L 322.5375 166.824612 
L 321.84 166.891174 
L 321.1425 167.789751 
L 319.7475 168.987854 
L 319.05 168.25568 
L 318.3525 166.924454 
L 317.655 166.358683 
L 316.9575 167.024296 
L 316.26 167.357103 
L 315.5625 167.456944 
L 314.865 165.65979 
L 314.1675 166.791332 
L 312.7725 166.957735 
L 312.075 166.525087 
L 311.3775 168.122557 
L 310.68 170.019554 
L 309.9825 169.187538 
L 309.285 167.689909 
L 308.5875 167.689909 
L 307.89 169.154257 
L 307.1925 168.122557 
L 306.495 167.856312 
L 305.1 168.655048 
L 304.4025 169.786589 
L 303.705 170.119396 
L 303.0075 169.686747 
L 302.31 168.655048 
L 301.6125 168.455364 
L 300.915 168.555206 
L 300.2175 169.81987 
L 299.52 170.751728 
L 298.8225 170.85157 
L 298.125 171.284218 
L 297.4275 171.317499 
L 296.73 172.315918 
L 294.6375 172.848408 
L 293.94 172.715286 
L 293.2425 172.914969 
L 292.545 172.748566 
L 291.8475 172.349199 
L 291.15 171.617025 
L 290.4525 172.282637 
L 289.755 173.281057 
L 289.0575 174.079792 
L 288.36 175.244614 
L 287.6625 174.279476 
L 286.965 173.713705 
L 286.2675 174.312756 
L 285.57 174.379318 
L 284.8725 174.179634 
L 283.4775 174.712124 
L 282.78 174.046511 
L 282.0825 174.212914 
L 281.385 175.377737 
L 280.6875 176.243034 
L 279.99 176.509279 
L 278.595 175.843666 
L 277.8975 176.143192 
L 277.2 176.742243 
L 276.5025 177.008488 
L 275.805 176.975208 
L 275.1075 175.910227 
L 274.41 175.54414 
L 273.7125 175.54414 
L 273.015 176.07663 
L 272.3175 177.341295 
L 271.62 177.907066 
L 270.9225 177.64082 
L 270.225 177.07505 
L 269.5275 177.707382 
L 268.83 177.540978 
L 268.1325 177.540978 
L 267.435 179.138449 
L 266.7375 178.772362 
L 266.04 177.474417 
L 265.3425 178.073469 
L 264.645 179.804062 
L 263.9475 180.070307 
L 263.25 180.702639 
L 262.5525 179.537817 
L 260.46 179.371414 
L 259.065 180.769201 
L 258.3675 181.168568 
L 257.67 180.536236 
L 256.9725 179.637659 
L 256.275 180.636078 
L 255.5775 181.002165 
L 254.88 181.634497 
L 254.1825 182.033865 
L 253.485 181.102007 
L 252.7875 181.667778 
L 252.09 181.102007 
L 250.695 182.333391 
L 249.9975 182.166987 
L 248.6025 180.436394 
L 247.905 182.033865 
L 247.2075 182.632916 
L 246.51 183.464932 
L 245.8125 183.697897 
L 244.4175 183.897581 
L 243.72 183.464932 
L 243.0225 183.198687 
L 242.325 183.464932 
L 241.6275 185.228806 
L 240.93 185.694735 
L 240.2325 185.095684 
L 239.535 183.697897 
L 238.8375 184.263668 
L 238.14 185.561613 
L 236.745 185.96098 
L 236.0475 184.829439 
L 235.35 184.962561 
L 234.6525 186.560032 
L 233.2575 186.892838 
L 232.56 186.759716 
L 231.8625 187.159084 
L 231.165 186.227226 
L 230.4675 185.661455 
L 229.0725 187.9911 
L 228.375 188.02438 
L 227.6775 187.691574 
L 225.585 187.591732 
L 224.8875 188.590151 
L 224.19 189.222483 
L 223.4925 189.488728 
L 222.795 188.656712 
L 222.0975 189.089361 
L 221.4 189.721693 
L 220.7025 190.520428 
L 219.3075 188.956238 
L 218.61 189.022799 
L 217.9125 189.721693 
L 217.215 191.285883 
L 216.5175 190.453867 
L 215.1225 190.819954 
L 213.7275 192.117899 
L 213.03 192.384144 
L 212.3325 191.818373 
L 211.635 191.918215 
L 210.24 193.349283 
L 209.5425 192.916634 
L 208.845 193.582247 
L 208.1475 194.048176 
L 207.45 194.214579 
L 206.055 194.24786 
L 205.3575 194.813631 
L 204.66 195.212998 
L 202.5675 195.27956 
L 201.1725 196.477663 
L 200.475 197.442801 
L 198.3825 196.510943 
L 197.685 196.577505 
L 196.9875 198.274817 
L 196.29 199.040272 
L 194.895 199.073553 
L 194.1975 198.94043 
L 193.5 198.640904 
L 192.8025 200.371498 
L 192.105 200.671024 
L 191.4075 201.436478 
L 190.71 200.271656 
L 190.0125 200.038691 
L 189.315 201.769285 
L 188.6175 201.602881 
L 187.2225 203.10051 
L 186.525 203.466597 
L 185.8275 203.400036 
L 185.13 203.965807 
L 184.4325 203.932526 
L 183.735 205.596558 
L 183.0375 205.330313 
L 182.34 205.596558 
L 181.6425 204.232052 
L 180.2475 208.425413 
L 179.55 207.992764 
L 178.155 207.7598 
L 177.4575 208.159168 
L 176.76 210.688496 
L 176.0625 209.85648 
L 175.365 209.690077 
L 174.6675 210.35569 
L 173.2725 212.585493 
L 171.8775 213.317667 
L 171.18 213.583912 
L 170.4825 214.549051 
L 169.785 214.648892 
L 169.0875 215.148102 
L 168.39 216.911976 
L 167.6925 216.312924 
L 166.995 216.978537 
L 166.2975 219.408024 
L 165.6 219.574427 
L 164.205 221.105337 
L 163.5075 222.30344 
L 162.81 223.967472 
L 162.1125 224.866049 
L 161.415 224.333559 
L 160.7175 225.365259 
L 160.02 225.698065 
L 159.3225 228.194113 
L 158.625 228.360516 
L 157.9275 230.690161 
L 157.23 229.492058 
L 156.5325 230.09111 
L 155.835 232.420754 
L 155.1375 233.419174 
L 154.44 234.750399 
L 153.7425 235.083206 
L 153.045 235.782099 
L 152.3475 236.114905 
L 151.65 238.311428 
L 150.9525 239.609373 
L 150.255 241.240124 
L 149.5575 241.00716 
L 148.86 242.238543 
L 147.465 245.932694 
L 146.7675 246.76471 
L 146.07 247.996094 
L 145.3725 248.794829 
L 144.675 250.758387 
L 143.9775 250.159336 
L 143.28 252.389139 
L 142.5825 255.118151 
L 141.885 255.151432 
L 141.1875 257.347954 
L 140.49 257.481077 
L 139.7925 259.477915 
L 139.095 262.506453 
L 137.0025 266.367008 
L 136.305 267.864636 
L 135.6075 268.763214 
L 134.2125 272.989855 
L 133.515 274.554045 
L 132.8175 275.119816 
L 132.12 277.349619 
L 131.4225 278.115074 
L 130.725 280.577841 
L 129.33 283.706221 
L 128.6325 284.138869 
L 127.2375 289.696736 
L 126.54 290.92812 
L 125.8425 291.094523 
L 125.145 292.924958 
L 124.4475 294.123062 
L 123.0525 298.915474 
L 122.355 300.346541 
L 121.6575 302.110415 
L 120.96 302.576344 
L 120.2625 305.105673 
L 119.565 307.135792 
L 118.17 309.498717 
L 117.4725 311.096188 
L 116.0775 314.923462 
L 113.985 319.383068 
L 113.2875 320.381487 
L 112.59 321.945677 
L 111.8925 322.944096 
L 110.4975 327.503544 
L 109.8 328.135876 
L 108.405 330.299118 
L 107.7075 333.02813 
L 107.01 334.758723 
L 105.615 336.456036 
L 104.9175 337.953665 
L 103.5225 340.116906 
L 102.1275 344.243706 
L 101.43 345.308686 
L 100.7325 346.606631 
L 100.035 347.438647 
L 98.64 350.833273 
L 97.9425 353.162917 
L 97.245 354.660546 
L 96.5475 355.625685 
L 95.85 357.256436 
L 95.1525 358.188294 
L 94.455 358.620942 
L 93.7575 360.284974 
L 93.06 363.546477 
L 92.3625 365.143948 
L 91.665 365.177229 
L 90.9675 364.844422 
L 90.27 368.072644 
L 89.5725 368.37217 
L 88.875 369.836518 
L 88.1775 372.399128 
L 87.48 372.099602 
L 86.7825 371.400708 
L 85.3875 372.798495 
L 84.69 374.029879 
L 83.9925 374.895176 
L 83.295 374.995018 
L 82.5975 375.827034 
L 81.9 375.261263 
L 81.2025 375.693911 
L 80.505 377.058417 
L 79.8075 376.825453 
L 79.11 377.424504 
L 78.4125 378.323082 
L 77.715 377.291382 
L 77.0175 377.457785 
L 76.32 378.25652 
L 74.925 380.519604 
L 74.2275 379.687588 
L 73.53 379.521185 
L 72.8325 379.887272 
L 72.135 379.687588 
L 71.4375 380.286639 
L 70.74 381.784268 
L 70.0425 381.850829 
L 69.345 381.052094 
L 68.6475 381.151936 
L 67.95 381.418181 
L 66.555 383.048932 
L 65.8575 383.41502 
L 65.16 383.115494 
L 64.4625 381.617865 
L 63.765 381.052094 
L 63.0675 382.083794 
L 62.37 383.548142 
L 61.6725 382.316758 
L 60.975 383.048932 
L 60.2775 384.047352 
L 59.58 383.048932 
L 58.8825 384.712964 
L 58.185 383.98079 
L 57.4875 383.41502 
L 56.79 381.35162 
L 56.0925 380.120236 
L 55.395 383.148774 
L 54.6975 384.613123 
L 54 385.711384 
L 53.3025 385.54498 
L 52.605 384.679684 
L 50.5125 384.247036 
L 49.1175 385.112332 
L 47.7225 384.413439 
L 46.3275 384.613123 
L 44.9325 385.245455 
L 44.235 385.145613 
L 42.84 384.579842 
L 42.1425 384.679684 
L 40.7475 385.345297 
L 40.05 385.245455 
L 39.3525 384.779526 
L 37.9575 384.579842 
L 36.5625 385.345297 
L 35.865 385.245455 
L 33.7725 384.446719 
L 31.68 385.178893 
L 30.9825 385.212174 
L 30.285 384.679684 
L 29.5875 384.380158 
L 28.89 384.446719 
L 27.495 385.01249 
L 26.1 385.045771 
L 25.4025 384.613123 
L 24.705 384.446719 
L 24.0075 384.879368 
L 23.31 385.112332 
L 22.6125 385.212174 
L 21.2175 384.579842 
L 20.52 384.613123 
L 19.8225 385.045771 
L 19.125 385.345297 
L 18.4275 385.278735 
L 17.73 384.746245 
L 17.0325 384.413439 
L 16.335 384.646403 
L 15.6375 385.01249 
L 14.94 385.112332 
L 14.2425 384.846087 
L 13.545 384.380158 
L 12.8475 384.446719 
L 11.4525 385.079052 
L 10.755 385.212174 
L 9.36 384.812806 
L 7.965 384.97921 
L 7.2675 385.345297 
L 6.57 385.578261 
L 5.175 384.912648 
L 4.4775 384.846087 
L 3.0825 385.5117 
L 2.385 385.611542 
L 1.6875 385.378577 
L 0.99 384.945929 
L 0.2925 385.01249 
L -0.405 385.411858 
L -1 385.610587 
L -1 385.610587 
" clip-path="url(#pa345f1b66d)" style="fill: none; stroke: #000000; stroke-opacity: 0.8; stroke-linecap: square"/>
   </g>
   <g id="line2d_12">
    <path d="M 388.8 179.105169 
L 388.1025 180.103588 
L 387.405 182.033865 
L 386.7075 180.037027 
L 386.01 181.534655 
L 385.3125 185.42849 
L 384.615 178.040188 
L 383.9175 182.566355 
L 383.22 179.471256 
L 382.5225 181.301691 
L 381.825 181.8009 
L 381.1275 184.596474 
L 380.43 185.628174 
L 379.7325 180.968884 
L 379.035 177.740662 
L 378.3375 179.670939 
L 377.64 183.065565 
L 376.245 185.495052 
L 375.5475 183.33181 
L 374.85 184.563194 
L 374.1525 182.366671 
L 373.455 179.437975 
L 372.7575 179.205011 
L 372.06 181.76762 
L 371.3625 177.907066 
L 370.665 187.025961 
L 369.9675 186.360348 
L 369.27 183.265249 
L 368.5725 183.132126 
L 367.875 183.731178 
L 367.1775 180.636078 
L 366.48 186.327068 
L 365.7825 182.766039 
L 364.3875 184.130545 
L 363.69 186.094103 
L 362.9925 183.165407 
L 362.295 183.83102 
L 361.5975 187.092522 
L 360.9 184.496632 
L 360.2025 183.764458 
L 359.505 187.558451 
L 358.8075 188.057661 
L 358.11 185.295368 
L 357.4125 183.265249 
L 356.715 187.791416 
L 356.0175 187.957819 
L 355.32 186.060822 
L 354.6225 186.560032 
L 353.925 190.054499 
L 353.2275 189.455448 
L 352.53 190.420586 
L 351.8325 192.384144 
L 351.135 190.154341 
L 350.4375 189.488728 
L 349.74 190.487148 
L 348.345 193.815212 
L 347.6475 192.583828 
L 346.95 188.689993 
L 346.2525 189.122641 
L 345.555 187.824696 
L 344.8575 191.818373 
L 344.16 192.350863 
L 343.4625 190.553709 
L 342.765 190.686831 
L 342.0675 191.252602 
L 341.37 192.517267 
L 340.6725 192.483986 
L 339.975 193.249441 
L 338.58 189.721693 
L 337.8825 191.785093 
L 337.185 191.252602 
L 336.4875 191.884934 
L 335.79 194.214579 
L 335.0925 195.246279 
L 334.395 194.314421 
L 333.6975 191.718531 
L 333 192.217741 
L 332.3025 194.913473 
L 331.605 193.615528 
L 330.9075 195.81205 
L 330.21 194.613947 
L 329.5125 195.179718 
L 328.815 194.613947 
L 327.42 194.114737 
L 326.7225 197.176556 
L 326.025 195.412682 
L 325.3275 194.24786 
L 324.63 194.380982 
L 323.9325 196.677347 
L 323.235 195.81205 
L 322.5375 197.276398 
L 321.84 198.474501 
L 321.1425 197.476082 
L 320.445 198.374659 
L 319.7475 199.073553 
L 319.05 198.374659 
L 318.3525 200.47134 
L 317.655 199.106833 
L 316.9575 197.442801 
L 316.26 196.510943 
L 315.5625 196.178137 
L 314.865 198.374659 
L 314.1675 199.506201 
L 313.47 199.639324 
L 312.7725 198.973711 
L 310.68 198.707466 
L 309.9825 200.671024 
L 309.285 200.304936 
L 308.5875 198.308098 
L 307.89 199.373079 
L 307.1925 200.138533 
L 306.495 200.171814 
L 305.7975 202.06881 
L 305.1 201.403198 
L 304.4025 200.404778 
L 303.705 201.203514 
L 303.0075 202.335056 
L 302.31 203.10051 
L 301.6125 202.03553 
L 300.915 201.203514 
L 300.2175 202.301775 
L 299.52 202.800984 
L 298.8225 203.865965 
L 298.125 203.932526 
L 297.4275 203.59972 
L 296.0325 203.799404 
L 295.335 203.699562 
L 293.94 206.661539 
L 293.2425 206.129049 
L 292.545 206.295452 
L 291.8475 205.529997 
L 291.15 203.300194 
L 290.4525 205.762961 
L 289.755 207.26059 
L 289.0575 206.7281 
L 288.36 208.125887 
L 287.6625 209.257429 
L 286.965 208.525255 
L 286.2675 208.758219 
L 285.57 207.859642 
L 284.8725 207.7598 
L 284.175 209.656796 
L 283.4775 209.656796 
L 282.78 208.957903 
L 282.0825 209.690077 
L 281.385 211.021303 
L 279.99 210.122725 
L 278.595 210.821619 
L 277.8975 212.219406 
L 277.2 212.119564 
L 275.805 211.187706 
L 275.1075 211.354109 
L 274.41 212.552212 
L 273.7125 213.98328 
L 273.015 213.750315 
L 272.3175 213.717035 
L 270.9225 214.216244 
L 270.225 214.282805 
L 269.5275 214.482489 
L 268.83 215.314505 
L 268.1325 215.281225 
L 267.435 215.946837 
L 266.7375 215.980118 
L 266.04 215.480908 
L 265.3425 216.07996 
L 263.9475 217.810553 
L 263.25 217.677431 
L 262.5525 216.978537 
L 261.855 217.078379 
L 261.1575 216.978537 
L 260.46 219.20834 
L 259.7625 220.24004 
L 258.3675 219.973795 
L 257.67 218.975376 
L 256.9725 218.908814 
L 255.5775 221.471424 
L 254.88 220.639408 
L 254.1825 220.373163 
L 253.485 220.905653 
L 252.7875 221.671108 
L 252.09 221.637827 
L 251.3925 222.236878 
L 250.695 222.270159 
L 249.9975 222.935772 
L 249.3 222.503124 
L 248.6025 222.270159 
L 247.905 223.102175 
L 247.2075 223.36842 
L 246.51 223.86763 
L 245.8125 224.766207 
L 245.115 225.198855 
L 244.4175 225.498381 
L 243.72 225.165575 
L 243.0225 225.365259 
L 242.325 225.132294 
L 241.6275 227.095852 
L 240.93 227.728184 
L 240.2325 227.628342 
L 239.535 227.029291 
L 238.8375 226.763046 
L 238.14 227.595062 
L 237.4425 227.428658 
L 236.745 228.726603 
L 236.0475 229.458777 
L 235.35 230.024548 
L 234.6525 230.12439 
L 233.955 229.425497 
L 233.2575 229.425497 
L 232.56 230.423916 
L 231.8625 232.087948 
L 231.165 231.6553 
L 229.77 232.054667 
L 229.0725 231.788422 
L 227.6775 233.718699 
L 226.98 234.417593 
L 226.2825 234.217909 
L 225.585 234.384312 
L 224.8875 235.449293 
L 224.19 236.214747 
L 223.4925 236.480992 
L 222.0975 235.615696 
L 220.7025 238.644234 
L 220.005 238.311428 
L 219.3075 237.479412 
L 218.61 237.778937 
L 217.9125 238.644234 
L 217.215 240.541231 
L 216.5175 240.740914 
L 215.82 240.474669 
L 215.1225 239.875618 
L 214.425 240.408108 
L 213.7275 241.240124 
L 213.03 241.805895 
L 211.635 242.60463 
L 210.9375 243.137121 
L 210.24 243.503208 
L 208.845 244.501627 
L 208.1475 243.969137 
L 207.45 244.335224 
L 206.7525 246.76471 
L 206.055 246.631588 
L 204.66 247.097517 
L 203.9625 247.496884 
L 203.265 247.76313 
L 202.5675 248.82811 
L 201.87 249.32732 
L 201.1725 249.660126 
L 199.7775 250.89151 
L 198.3825 251.324158 
L 196.9875 253.154593 
L 196.29 253.653803 
L 195.5925 253.720364 
L 194.895 253.920048 
L 194.1975 254.352696 
L 193.5 255.550799 
L 192.8025 256.416096 
L 191.4075 257.447796 
L 190.71 257.281393 
L 190.0125 258.945425 
L 188.6175 259.910563 
L 187.92 259.844002 
L 187.2225 259.910563 
L 186.525 261.075386 
L 185.8275 262.639576 
L 185.13 261.27507 
L 184.4325 262.805979 
L 183.735 262.539734 
L 183.0375 263.671276 
L 182.34 265.734675 
L 181.6425 266.799656 
L 180.945 266.866217 
L 180.2475 267.931198 
L 179.55 267.997759 
L 178.8525 269.129301 
L 178.155 269.295704 
L 177.4575 269.728352 
L 176.76 271.492226 
L 175.365 271.525507 
L 174.6675 272.457365 
L 173.97 273.722029 
L 173.2725 275.85199 
L 172.575 276.517603 
L 171.18 278.547722 
L 170.4825 279.013651 
L 169.785 280.211754 
L 169.0875 281.709383 
L 168.39 284.072308 
L 167.6925 284.471676 
L 166.995 284.238711 
L 165.6 286.734759 
L 164.9025 288.898001 
L 164.205 290.129385 
L 163.5075 290.728436 
L 162.81 291.693575 
L 162.1125 293.324326 
L 161.415 293.856816 
L 160.7175 296.153181 
L 160.02 297.085039 
L 159.3225 298.782351 
L 158.625 299.281561 
L 157.9275 300.745909 
L 157.23 301.744328 
L 156.5325 303.674605 
L 155.1375 306.736424 
L 154.44 307.102511 
L 152.3475 311.229311 
L 151.65 312.793501 
L 150.9525 314.657217 
L 150.255 315.389391 
L 149.5575 315.788758 
L 147.465 321.57959 
L 146.7675 322.511448 
L 145.3725 324.907654 
L 143.9775 328.468682 
L 142.5825 331.197695 
L 141.885 332.029711 
L 141.1875 333.427498 
L 140.49 334.359356 
L 139.7925 335.856984 
L 139.095 338.419594 
L 138.3975 339.218329 
L 136.305 342.91248 
L 135.6075 344.44339 
L 134.91 346.506789 
L 134.2125 348.070979 
L 133.515 348.63675 
L 132.8175 349.601889 
L 130.0275 355.725527 
L 129.33 355.958491 
L 128.6325 356.690665 
L 127.935 358.288136 
L 126.54 360.684342 
L 125.8425 361.6162 
L 125.145 362.814303 
L 124.4475 363.280232 
L 123.75 364.245371 
L 123.0525 365.709719 
L 121.6575 367.540154 
L 120.96 367.806399 
L 120.2625 368.405451 
L 119.565 369.204186 
L 118.17 371.433989 
L 117.4725 371.933199 
L 116.0775 372.498969 
L 115.38 373.297705 
L 114.6825 374.296124 
L 113.985 375.094859 
L 113.2875 375.527508 
L 112.59 375.560788 
L 111.195 376.426085 
L 110.4975 377.357943 
L 109.8 377.823872 
L 109.1025 377.956994 
L 108.405 378.356362 
L 107.7075 378.323082 
L 107.01 378.422923 
L 106.3125 379.587746 
L 105.615 380.120236 
L 104.9175 380.31992 
L 104.22 379.920552 
L 103.5225 379.987114 
L 102.825 380.85241 
L 102.1275 381.451462 
L 101.43 381.850829 
L 100.7325 381.88411 
L 100.035 381.35162 
L 99.3375 381.551304 
L 98.64 382.017233 
L 97.9425 382.849249 
L 97.245 383.082213 
L 96.5475 383.115494 
L 95.85 383.41502 
L 95.1525 383.548142 
L 94.455 384.646403 
L 93.7575 385.5117 
L 92.3625 385.611542 
L 91.665 385.445139 
L 90.9675 384.846087 
L 90.27 385.644822 
L 89.5725 385.145613 
L 88.875 384.879368 
L 88.1775 384.446719 
L 87.48 384.579842 
L 86.7825 385.445139 
L 85.3875 384.945929 
L 84.69 384.912648 
L 83.295 384.247036 
L 82.5975 384.346877 
L 81.9 385.01249 
L 81.2025 384.97921 
L 80.505 384.346877 
L 79.8075 384.613123 
L 79.11 384.213755 
L 78.4125 384.280316 
L 77.715 385.478419 
L 77.0175 385.345297 
L 76.32 384.712964 
L 75.6225 384.779526 
L 74.2275 385.54498 
L 73.53 385.079052 
L 72.8325 384.380158 
L 72.135 383.481581 
L 71.4375 383.914229 
L 70.74 384.679684 
L 69.345 384.113913 
L 68.6475 384.213755 
L 67.95 383.647984 
L 67.2525 384.313597 
L 66.555 384.779526 
L 65.8575 383.281897 
L 65.16 383.41502 
L 64.4625 384.080632 
L 63.0675 385.911068 
L 61.6725 382.682845 
L 60.975 383.647984 
L 60.2775 383.548142 
L 59.58 382.849249 
L 58.8825 383.481581 
L 58.185 385.578261 
L 57.4875 385.877787 
L 56.79 383.681265 
L 56.0925 382.91581 
L 55.395 384.113913 
L 54.6975 385.711384 
L 54 385.644822 
L 53.3025 384.97921 
L 52.605 384.646403 
L 51.9075 384.546561 
L 51.21 384.646403 
L 49.815 385.245455 
L 47.7225 384.513281 
L 47.025 384.579842 
L 46.3275 384.945929 
L 45.63 385.045771 
L 44.9325 384.945929 
L 44.235 384.48 
L 43.5375 384.413439 
L 42.84 384.579842 
L 41.445 385.178893 
L 40.7475 385.045771 
L 40.05 384.579842 
L 39.3525 384.446719 
L 38.655 384.646403 
L 37.9575 385.145613 
L 37.26 385.112332 
L 36.5625 384.912648 
L 35.865 384.546561 
L 35.1675 384.380158 
L 33.7725 384.912648 
L 33.075 385.045771 
L 32.3775 385.01249 
L 30.9825 384.380158 
L 30.285 384.48 
L 29.5875 384.912648 
L 28.89 384.97921 
L 27.495 384.446719 
L 26.7975 384.346877 
L 26.1 384.546561 
L 25.4025 384.879368 
L 24.705 384.879368 
L 24.0075 384.746245 
L 23.31 384.280316 
L 22.6125 384.313597 
L 21.915 384.579842 
L 21.2175 385.01249 
L 20.52 385.01249 
L 19.8225 384.679684 
L 18.4275 384.346877 
L 17.0325 384.846087 
L 16.335 385.112332 
L 15.6375 384.97921 
L 14.94 384.446719 
L 14.2425 384.180474 
L 13.545 384.446719 
L 12.8475 384.912648 
L 12.15 385.045771 
L 11.4525 384.812806 
L 10.755 384.446719 
L 10.0575 384.513281 
L 9.36 384.712964 
L 8.6625 385.178893 
L 7.965 385.278735 
L 6.57 384.712964 
L 5.8725 384.646403 
L 4.4775 385.411858 
L 3.78 385.5117 
L 1.6875 384.812806 
L 0.2925 385.312016 
L -0.405 385.578261 
L -1 385.237582 
L -1 385.237582 
" clip-path="url(#pa345f1b66d)" style="fill: none; stroke: #69422a; stroke-opacity: 0.8; stroke-linecap: square"/>
   </g>
   <g id="line2d_13">
    <path d="M 388.8 188.357187 
L 388.1025 184.496632 
L 387.405 187.025961 
L 386.7075 184.962561 
L 386.01 186.094103 
L 385.3125 185.029123 
L 384.615 182.865881 
L 383.9175 186.027542 
L 383.22 186.792996 
L 382.5225 188.756554 
L 381.825 189.05608 
L 381.1275 187.558451 
L 380.43 188.956238 
L 378.3375 182.399952 
L 377.64 189.289045 
L 376.9425 188.989519 
L 376.245 189.954657 
L 375.5475 190.420586 
L 374.85 191.65197 
L 374.1525 188.390467 
L 373.455 187.49189 
L 372.7575 188.789835 
L 372.06 191.285883 
L 371.3625 188.52359 
L 370.665 189.987938 
L 369.9675 189.455448 
L 369.27 189.55529 
L 368.5725 190.686831 
L 367.875 191.086199 
L 367.1775 189.754973 
L 366.48 191.818373 
L 365.7825 190.919796 
L 365.085 188.52359 
L 364.3875 190.254183 
L 363.69 194.880192 
L 362.9925 191.618689 
L 362.295 192.251022 
L 361.5975 192.251022 
L 360.9 191.452286 
L 360.2025 192.018057 
L 359.505 196.011734 
L 358.8075 195.878611 
L 358.11 196.84375 
L 357.4125 196.111576 
L 356.715 195.878611 
L 356.0175 196.444382 
L 355.32 198.707466 
L 354.6225 198.674185 
L 353.925 196.710627 
L 353.2275 193.615528 
L 352.53 195.31284 
L 351.8325 198.774027 
L 351.135 199.43964 
L 350.4375 198.807308 
L 349.74 200.837427 
L 349.0425 200.537901 
L 348.345 201.00383 
L 347.6475 201.203514 
L 346.95 197.87545 
L 346.2525 199.606043 
L 345.555 200.338217 
L 344.8575 199.739166 
L 344.16 201.602881 
L 343.4625 200.271656 
L 342.765 200.837427 
L 342.0675 201.736004 
L 341.37 201.436478 
L 340.6725 200.238375 
L 339.975 201.070391 
L 339.2775 202.534739 
L 338.58 202.235214 
L 337.185 200.50462 
L 336.4875 200.071972 
L 335.0925 203.167072 
L 334.395 205.330313 
L 333.6975 203.266913 
L 333 202.56802 
L 332.3025 201.00383 
L 331.605 202.934107 
L 330.9075 204.032368 
L 329.5125 207.194029 
L 328.815 205.6964 
L 328.1175 206.262171 
L 327.42 204.997507 
L 326.7225 205.529997 
L 326.025 205.862803 
L 325.3275 205.929365 
L 324.63 206.794661 
L 323.9325 206.22889 
L 323.235 206.761381 
L 321.84 208.658377 
L 321.1425 209.556954 
L 320.445 211.021303 
L 319.05 208.82478 
L 318.3525 208.625097 
L 317.655 207.859642 
L 316.9575 210.122725 
L 316.26 209.556954 
L 315.5625 209.32399 
L 314.865 210.488812 
L 313.47 209.124306 
L 312.7725 210.788338 
L 312.075 210.721777 
L 311.3775 211.520512 
L 309.9825 211.453951 
L 309.285 212.918299 
L 308.5875 212.851738 
L 307.89 212.618773 
L 307.1925 212.186125 
L 305.7975 215.148102 
L 305.1 215.614031 
L 304.4025 215.281225 
L 303.705 215.614031 
L 303.0075 216.113241 
L 302.31 215.214663 
L 301.6125 215.347786 
L 300.915 215.980118 
L 300.2175 217.577589 
L 299.52 216.878695 
L 298.8225 217.011818 
L 298.125 216.945257 
L 297.4275 216.179802 
L 296.73 217.910395 
L 296.0325 218.609289 
L 295.335 218.343044 
L 294.6375 220.073637 
L 293.94 220.339882 
L 293.2425 219.108498 
L 292.545 219.907234 
L 291.15 220.77253 
L 290.4525 221.937353 
L 289.755 222.137037 
L 288.36 222.902491 
L 287.6625 223.601385 
L 286.965 223.035614 
L 286.2675 222.969053 
L 284.175 224.466681 
L 283.4775 223.834349 
L 282.78 223.568104 
L 282.0825 224.89933 
L 281.385 226.829607 
L 280.6875 226.297117 
L 279.99 225.598223 
L 279.2925 226.563362 
L 278.595 226.396958 
L 277.8975 226.696484 
L 277.2 228.293955 
L 276.5025 228.926287 
L 275.805 228.626761 
L 275.1075 228.593481 
L 274.41 228.926287 
L 273.7125 229.691742 
L 273.015 229.725023 
L 272.3175 230.590319 
L 270.9225 230.490477 
L 270.225 231.622019 
L 269.5275 232.387474 
L 268.83 232.121229 
L 268.1325 231.422335 
L 267.435 232.354193 
L 266.7375 233.585577 
L 266.04 234.25119 
L 265.3425 234.184628 
L 264.645 234.384312 
L 263.9475 234.717119 
L 263.25 235.482573 
L 261.855 236.447712 
L 261.1575 235.482573 
L 260.46 236.214747 
L 259.7625 237.645815 
L 259.065 237.91206 
L 258.3675 238.877199 
L 257.67 238.011902 
L 256.9725 238.610953 
L 256.275 239.642653 
L 255.5775 239.875618 
L 254.88 239.542811 
L 254.1825 239.542811 
L 253.485 239.742495 
L 252.7875 240.707634 
L 252.09 240.707634 
L 250.695 242.171982 
L 249.9975 241.839176 
L 248.6025 243.702891 
L 247.905 244.435066 
L 247.2075 244.435066 
L 245.115 245.16724 
L 244.4175 246.531746 
L 243.0225 245.932694 
L 241.6275 248.82811 
L 239.535 248.661707 
L 238.8375 248.894671 
L 238.14 250.325739 
L 237.4425 250.824948 
L 236.745 250.558703 
L 236.0475 250.725107 
L 235.35 252.189455 
L 234.6525 253.054751 
L 233.955 253.52068 
L 233.2575 253.786925 
L 232.56 253.52068 
L 231.8625 253.553961 
L 231.165 254.186293 
L 230.4675 255.450957 
L 229.77 255.484238 
L 229.0725 256.149851 
L 228.375 257.015148 
L 227.6775 256.748902 
L 226.98 257.780602 
L 225.585 258.945425 
L 224.8875 259.21167 
L 224.19 259.145109 
L 223.4925 259.74416 
L 222.795 259.810721 
L 222.0975 260.77586 
L 221.4 260.975544 
L 220.7025 262.406611 
L 219.3075 263.238627 
L 218.61 263.072224 
L 217.9125 263.538153 
L 217.215 264.769537 
L 215.82 266.267166 
L 215.1225 266.100762 
L 214.425 266.766375 
L 213.7275 266.932778 
L 212.3325 268.962897 
L 211.635 269.661791 
L 210.9375 269.029459 
L 210.24 270.161001 
L 209.5425 270.227562 
L 208.845 271.392384 
L 208.1475 271.592068 
L 207.45 272.523926 
L 206.7525 272.424084 
L 206.055 272.75689 
L 205.3575 273.588906 
L 204.66 274.653887 
L 203.9625 274.953413 
L 203.265 275.019974 
L 202.5675 275.752148 
L 200.475 278.813967 
L 199.7775 278.514441 
L 199.08 278.44788 
L 196.9875 280.910647 
L 196.29 280.943928 
L 195.5925 281.210173 
L 194.895 282.374995 
L 194.1975 282.840924 
L 193.5 283.007328 
L 192.8025 283.939186 
L 192.105 283.839344 
L 191.4075 285.336972 
L 190.0125 286.535076 
L 189.315 286.302111 
L 188.6175 286.867882 
L 187.92 287.932862 
L 187.2225 289.463772 
L 186.525 290.195946 
L 185.8275 290.42891 
L 185.13 290.329069 
L 184.4325 290.861559 
L 183.735 291.760136 
L 183.0375 293.357607 
L 182.34 294.58899 
L 181.6425 293.723694 
L 180.945 293.823536 
L 180.2475 295.986777 
L 179.55 297.051758 
L 178.8525 299.081877 
L 178.155 298.382983 
L 177.4575 299.181719 
L 176.76 300.313261 
L 176.0625 302.276818 
L 175.365 302.37666 
L 174.6675 303.774447 
L 173.97 303.508202 
L 173.2725 305.970969 
L 171.8775 308.167492 
L 169.785 310.364014 
L 168.39 314.091446 
L 167.6925 314.524094 
L 166.995 315.489233 
L 166.2975 316.787178 
L 165.6 317.619194 
L 164.9025 319.150103 
L 163.5075 320.814135 
L 162.81 322.245203 
L 162.1125 324.009077 
L 160.7175 325.706389 
L 160.02 326.338721 
L 159.3225 328.102595 
L 158.625 329.333979 
L 157.9275 331.896588 
L 157.23 331.430659 
L 156.5325 332.295956 
L 155.835 333.693743 
L 155.1375 335.557459 
L 153.7425 337.986945 
L 153.045 338.685839 
L 150.9525 342.213587 
L 150.255 343.511532 
L 148.86 344.909319 
L 146.7675 349.701731 
L 146.07 349.901415 
L 145.3725 351.066237 
L 143.9775 352.963234 
L 143.28 355.059914 
L 142.5825 356.025053 
L 141.885 356.158175 
L 140.49 358.654223 
L 139.7925 360.517939 
L 138.3975 361.782603 
L 137.7 362.11541 
L 136.305 364.511616 
L 135.6075 365.643158 
L 134.91 366.208928 
L 134.2125 367.040944 
L 132.8175 368.139206 
L 132.12 369.769957 
L 130.725 371.400708 
L 130.0275 371.234305 
L 129.33 371.433989 
L 128.6325 372.731934 
L 127.935 373.763634 
L 127.2375 374.395966 
L 126.54 374.662211 
L 125.8425 375.261263 
L 125.145 375.227982 
L 123.75 377.158259 
L 122.355 377.491066 
L 121.6575 377.491066 
L 120.96 377.890433 
L 120.2625 378.822291 
L 119.565 379.554465 
L 118.8675 379.887272 
L 118.17 379.687588 
L 117.4725 379.687588 
L 116.775 380.386481 
L 115.38 381.251778 
L 113.2875 381.251778 
L 111.195 382.316758 
L 110.4975 382.350039 
L 109.8 381.983952 
L 108.405 382.583004 
L 107.7075 383.315178 
L 107.01 383.481581 
L 106.3125 383.381739 
L 105.615 383.082213 
L 104.9175 383.082213 
L 104.22 383.248616 
L 102.825 384.113913 
L 102.1275 384.113913 
L 101.43 383.747826 
L 100.7325 383.647984 
L 100.035 383.714545 
L 99.3375 384.014071 
L 98.64 384.613123 
L 97.9425 384.679684 
L 97.245 384.413439 
L 95.85 384.313597 
L 95.1525 384.579842 
L 94.455 385.644822 
L 93.7575 386.310435 
L 93.06 386.110751 
L 92.3625 386.5434 
L 91.665 385.411858 
L 90.9675 385.678103 
L 90.27 385.178893 
L 88.1775 385.578261 
L 87.48 384.779526 
L 86.7825 384.712964 
L 84.69 385.278735 
L 83.9925 384.679684 
L 83.295 384.513281 
L 81.9 384.513281 
L 80.505 385.378577 
L 79.11 385.045771 
L 77.715 384.280316 
L 77.0175 384.446719 
L 76.32 384.047352 
L 75.6225 384.579842 
L 74.925 385.411858 
L 73.53 385.744664 
L 72.8325 384.613123 
L 72.135 384.014071 
L 71.4375 384.712964 
L 70.74 385.212174 
L 70.0425 385.079052 
L 69.345 384.579842 
L 67.95 385.378577 
L 67.2525 385.178893 
L 65.8575 383.4483 
L 65.16 383.98079 
L 64.4625 384.180474 
L 63.0675 386.110751 
L 62.37 384.513281 
L 61.6725 384.779526 
L 60.975 384.779526 
L 60.2775 384.346877 
L 59.58 384.846087 
L 58.8825 384.113913 
L 58.185 383.714545 
L 57.4875 385.178893 
L 56.79 385.944348 
L 56.0925 386.077471 
L 55.395 384.679684 
L 54.6975 384.014071 
L 54 385.378577 
L 53.3025 377.657469 
L 52.605 371.533831 
L 51.9075 371.800076 
L 51.21 371.899918 
L 49.815 371.267586 
L 49.1175 371.533831 
L 48.42 371.966479 
L 47.025 371.134463 
L 46.3275 371.46727 
L 45.63 372.033041 
L 44.9325 371.833357 
L 44.235 371.300866 
L 43.5375 371.433989 
L 42.84 371.866637 
L 42.1425 372.066321 
L 41.445 371.633673 
L 40.7475 371.533831 
L 40.05 371.966479 
L 39.3525 372.099602 
L 38.655 371.600392 
L 37.9575 371.367428 
L 36.5625 372.266005 
L 35.1675 371.567112 
L 34.47 371.766795 
L 33.7725 372.232724 
L 33.075 371.99976 
L 32.3775 371.533831 
L 31.68 371.666953 
L 30.9825 372.099602 
L 30.285 372.332566 
L 29.5875 371.733515 
L 28.89 371.666953 
L 28.1925 371.99976 
L 27.495 371.99976 
L 26.1 371.367428 
L 25.4025 371.633673 
L 24.705 372.132882 
L 24.0075 371.933199 
L 23.31 371.966479 
L 22.6125 371.700234 
L 21.2175 372.166163 
L 20.52 372.066321 
L 19.8225 371.833357 
L 19.125 371.733515 
L 17.73 372.166163 
L 16.335 371.400708 
L 14.94 372.099602 
L 14.2425 371.933199 
L 13.545 371.567112 
L 12.8475 371.833357 
L 12.15 372.299286 
L 11.4525 372.033041 
L 10.755 371.633673 
L 10.0575 371.933199 
L 9.36 372.365847 
L 8.6625 372.598811 
L 7.965 372.066321 
L 7.2675 371.933199 
L 5.8725 372.598811 
L 5.175 372.498969 
L 4.4775 372.099602 
L 3.78 372.166163 
L 3.0825 372.565531 
L 2.385 372.798495 
L 1.6875 372.498969 
L 0.99 371.99976 
L 0.2925 372.698653 
L -0.405 372.831776 
L -1 372.519487 
L -1 372.519487 
" clip-path="url(#pa345f1b66d)" style="fill: none; stroke: #d28555; stroke-opacity: 0.8; stroke-linecap: square"/>
   </g>
   <g id="line2d_14">
    <path d="M 388.8 301.145277 
L 388.1025 299.74749 
L 387.405 299.581087 
L 386.7075 304.673025 
L 386.01 300.013735 
L 385.3125 301.744328 
L 384.615 300.413103 
L 383.9175 302.609625 
L 383.22 304.273657 
L 382.5225 298.749071 
L 381.825 301.111996 
L 381.1275 301.577925 
L 380.43 302.543064 
L 379.7325 304.539902 
L 379.035 303.641325 
L 378.3375 303.674605 
L 377.64 304.539902 
L 376.9425 305.205515 
L 376.245 305.172234 
L 375.5475 301.777609 
L 374.85 305.305357 
L 374.1525 304.306937 
L 373.455 307.002669 
L 372.7575 304.306937 
L 372.06 308.433737 
L 371.3625 307.601721 
L 370.665 304.772866 
L 369.9675 307.867966 
L 369.27 309.465437 
L 368.5725 305.47176 
L 367.875 307.402037 
L 367.1775 310.330733 
L 366.48 307.801405 
L 365.7825 308.200772 
L 365.085 308.467018 
L 364.3875 311.162749 
L 363.69 308.866385 
L 362.9925 311.428994 
L 362.295 310.66354 
L 361.5975 309.09935 
L 360.9 310.630259 
L 360.2025 310.863224 
L 359.505 311.295872 
L 358.8075 310.829943 
L 358.11 312.826781 
L 357.4125 311.861643 
L 356.715 312.926623 
L 356.0175 311.595398 
L 355.32 312.660378 
L 354.6225 315.35611 
L 353.925 315.589075 
L 353.2275 314.058165 
L 352.53 313.425833 
L 351.8325 313.525675 
L 351.135 315.655636 
L 350.4375 314.657217 
L 349.74 316.454371 
L 349.0425 315.123146 
L 348.345 315.8886 
L 347.6475 315.522513 
L 346.95 316.620774 
L 346.2525 316.188126 
L 345.555 316.853739 
L 344.8575 315.688916 
L 344.16 316.221407 
L 343.4625 317.619194 
L 342.765 316.221407 
L 342.0675 316.454371 
L 341.37 317.119984 
L 340.6725 317.219826 
L 339.975 319.283226 
L 339.2775 318.018561 
L 337.8825 319.449629 
L 337.185 318.883858 
L 336.4875 319.150103 
L 335.79 318.817297 
L 335.0925 319.416348 
L 334.395 320.381487 
L 333.6975 320.448048 
L 333 321.180222 
L 332.3025 321.57959 
L 331.605 321.845835 
L 330.9075 321.845835 
L 330.21 321.413187 
L 328.815 323.509867 
L 328.1175 324.108918 
L 327.42 323.67627 
L 326.7225 322.910815 
L 326.025 324.674689 
L 325.3275 325.273741 
L 324.63 326.072476 
L 323.9325 325.340302 
L 323.235 324.974215 
L 322.5375 324.341883 
L 321.84 325.273741 
L 320.445 325.872792 
L 319.05 327.603386 
L 318.3525 327.470263 
L 317.655 326.937773 
L 316.9575 326.837931 
L 316.26 328.468682 
L 315.5625 328.36884 
L 314.1675 328.734927 
L 313.47 327.902911 
L 312.7725 327.636666 
L 311.3775 329.566943 
L 310.68 330.066153 
L 309.9825 329.833189 
L 309.285 330.265837 
L 308.5875 330.299118 
L 307.89 330.199276 
L 306.495 331.730185 
L 305.7975 332.229395 
L 305.1 333.127972 
L 304.4025 333.02813 
L 303.705 332.595482 
L 303.0075 333.56062 
L 302.31 333.760304 
L 300.915 333.593901 
L 300.2175 333.993269 
L 299.52 334.958407 
L 298.8225 334.858565 
L 298.125 334.625601 
L 297.4275 334.991688 
L 296.73 335.158091 
L 294.6375 336.422755 
L 293.2425 335.457617 
L 292.545 336.389475 
L 291.8475 337.521017 
L 289.755 338.419594 
L 289.0575 338.053507 
L 288.36 338.552716 
L 287.6625 338.885523 
L 286.965 338.552716 
L 286.2675 338.852242 
L 285.57 339.983784 
L 284.8725 340.416432 
L 284.175 340.183468 
L 282.78 340.183468 
L 282.0825 341.248448 
L 281.385 341.814219 
L 279.2925 341.8475 
L 278.595 342.679516 
L 277.8975 343.112164 
L 277.2 343.112164 
L 276.5025 343.378409 
L 275.805 343.877619 
L 274.41 343.977461 
L 273.7125 344.44339 
L 273.015 344.376828 
L 272.3175 344.609793 
L 271.62 345.308686 
L 270.225 346.207264 
L 269.5275 346.140702 
L 268.83 345.807896 
L 268.1325 346.273825 
L 267.435 347.105841 
L 266.04 347.804734 
L 264.645 347.605051 
L 262.5525 348.703312 
L 261.855 349.169241 
L 260.46 349.069399 
L 259.7625 349.901415 
L 259.065 350.334063 
L 258.3675 350.367344 
L 257.67 350.134379 
L 256.9725 350.633589 
L 256.275 351.465605 
L 255.5775 351.964814 
L 254.88 351.931534 
L 254.1825 351.765131 
L 253.485 351.864972 
L 252.09 353.395882 
L 251.3925 353.196198 
L 250.695 352.730269 
L 249.9975 353.229479 
L 248.6025 354.693827 
L 247.905 354.926791 
L 247.2075 354.627266 
L 246.51 354.627266 
L 245.8125 355.492562 
L 245.115 355.925211 
L 243.72 355.792088 
L 243.0225 355.89193 
L 241.6275 356.990191 
L 240.93 357.389559 
L 240.2325 357.655804 
L 239.535 357.522681 
L 238.8375 357.555962 
L 238.14 357.755646 
L 237.4425 358.620942 
L 236.745 359.120152 
L 235.35 358.587662 
L 234.6525 359.02031 
L 233.955 359.819046 
L 233.2575 360.318255 
L 232.56 360.118571 
L 231.165 359.918887 
L 230.4675 360.55122 
L 229.77 361.449797 
L 229.0725 362.015568 
L 228.375 361.982287 
L 227.6775 361.449797 
L 226.98 361.882445 
L 226.2825 362.548058 
L 225.585 362.980706 
L 224.8875 363.14711 
L 224.19 362.614619 
L 222.0975 364.078967 
L 221.4 364.112248 
L 220.7025 364.411774 
L 220.005 365.077387 
L 219.3075 365.376912 
L 217.9125 365.044106 
L 217.215 365.476754 
L 216.5175 366.408612 
L 215.82 366.741419 
L 215.1225 366.408612 
L 214.425 366.242209 
L 213.7275 366.641577 
L 213.03 367.373751 
L 212.3325 367.906241 
L 211.635 367.87296 
L 210.9375 367.606715 
L 210.24 367.673277 
L 209.5425 368.006083 
L 208.1475 368.971222 
L 206.7525 369.004502 
L 206.055 369.037783 
L 205.3575 369.304028 
L 204.66 369.969641 
L 203.9625 370.369009 
L 203.265 370.102763 
L 202.5675 370.069483 
L 201.1725 370.668534 
L 200.475 371.267586 
L 199.7775 371.400708 
L 199.08 371.134463 
L 198.3825 371.067902 
L 197.685 371.433989 
L 196.29 372.432408 
L 195.5925 372.232724 
L 194.895 371.899918 
L 194.1975 372.099602 
L 192.8025 373.297705 
L 192.105 373.430827 
L 190.71 372.931618 
L 190.0125 372.998179 
L 189.315 373.697073 
L 187.92 374.529089 
L 187.2225 374.562369 
L 186.525 374.09644 
L 185.8275 374.06316 
L 184.4325 375.294543 
L 183.735 375.693911 
L 183.0375 375.494227 
L 182.34 375.494227 
L 180.945 375.860314 
L 179.55 376.991856 
L 178.8525 377.058417 
L 178.155 376.892014 
L 177.4575 377.291382 
L 176.76 377.424504 
L 176.0625 377.72403 
L 175.365 378.722449 
L 173.97 379.121817 
L 173.2725 378.622607 
L 172.575 378.988694 
L 171.8775 379.554465 
L 171.18 380.586165 
L 170.4825 380.752568 
L 169.0875 380.752568 
L 168.39 381.018813 
L 166.995 382.150355 
L 166.2975 382.250197 
L 165.6 382.017233 
L 164.9025 381.518023 
L 164.205 381.551304 
L 163.5075 381.917391 
L 162.81 382.4166 
L 162.1125 382.583004 
L 160.7175 382.283478 
L 158.625 383.41502 
L 157.9275 383.248616 
L 157.23 382.91581 
L 156.5325 382.815968 
L 155.1375 383.614703 
L 154.44 383.681265 
L 153.045 383.082213 
L 152.3475 383.215336 
L 151.65 383.747826 
L 150.9525 384.113913 
L 150.255 384.180474 
L 149.5575 383.747826 
L 148.1625 383.847668 
L 147.465 384.313597 
L 146.7675 384.48 
L 145.3725 383.98079 
L 143.9775 384.712964 
L 143.28 384.679684 
L 141.885 384.280316 
L 141.1875 384.48 
L 140.49 384.945929 
L 139.7925 385.178893 
L 139.095 385.178893 
L 138.3975 384.646403 
L 137.7 384.48 
L 136.305 385.345297 
L 135.6075 385.112332 
L 134.91 384.746245 
L 134.2125 384.579842 
L 132.12 385.212174 
L 131.4225 385.079052 
L 130.725 384.679684 
L 128.6325 385.145613 
L 127.935 385.079052 
L 127.2375 384.712964 
L 126.54 384.546561 
L 125.8425 385.045771 
L 125.145 385.245455 
L 124.4475 385.112332 
L 123.75 384.712964 
L 122.355 384.646403 
L 121.6575 385.112332 
L 120.96 385.245455 
L 119.565 384.48 
L 118.8675 384.613123 
L 117.4725 385.212174 
L 116.775 384.879368 
L 116.0775 384.679684 
L 115.38 384.712964 
L 114.6825 385.079052 
L 113.985 385.079052 
L 112.59 384.446719 
L 111.8925 384.48 
L 111.195 385.145613 
L 110.4975 384.945929 
L 109.8 384.413439 
L 109.1025 384.380158 
L 108.405 384.679684 
L 107.7075 385.212174 
L 107.01 385.112332 
L 106.3125 384.446719 
L 105.615 384.147194 
L 104.9175 384.446719 
L 104.22 384.912648 
L 103.5225 384.912648 
L 102.825 384.380158 
L 102.1275 384.247036 
L 100.7325 385.045771 
L 100.035 385.245455 
L 98.64 383.880948 
L 97.9425 384.180474 
L 97.245 384.846087 
L 96.5475 385.145613 
L 95.85 384.646403 
L 95.1525 385.145613 
L 94.455 386.743084 
L 93.7575 386.876206 
L 93.06 385.678103 
L 92.3625 386.376996 
L 91.665 386.709803 
L 90.9675 385.944348 
L 90.27 385.578261 
L 88.875 385.711384 
L 88.1775 385.611542 
L 87.48 385.877787 
L 86.085 384.413439 
L 85.3875 383.747826 
L 84.69 384.579842 
L 83.9925 385.145613 
L 83.295 384.247036 
L 82.5975 383.98079 
L 81.9 384.213755 
L 81.2025 385.278735 
L 80.505 384.97921 
L 79.11 385.212174 
L 78.4125 384.812806 
L 77.715 384.147194 
L 77.0175 384.513281 
L 76.32 385.01249 
L 75.6225 384.346877 
L 74.925 383.315178 
L 74.2275 384.047352 
L 73.53 385.212174 
L 72.8325 384.147194 
L 72.135 384.014071 
L 71.4375 384.247036 
L 70.74 383.481581 
L 70.0425 383.814387 
L 69.345 384.846087 
L 68.6475 384.779526 
L 67.95 384.846087 
L 66.555 385.278735 
L 65.16 384.846087 
L 64.4625 384.280316 
L 63.765 383.4483 
L 62.37 384.513281 
L 61.6725 385.777945 
L 60.975 386.177313 
L 60.2775 384.779526 
L 59.58 384.047352 
L 58.185 385.811226 
L 57.4875 384.280316 
L 56.79 383.082213 
L 56.0925 382.549723 
L 55.395 383.548142 
L 54.6975 385.644822 
L 54 384.014071 
L 52.605 317.585913 
L 51.9075 317.519352 
L 50.5125 318.917139 
L 49.1175 316.88702 
L 48.42 317.386229 
L 47.7225 318.085123 
L 47.025 319.050261 
L 46.3275 318.617613 
L 45.63 317.818877 
L 44.9325 317.652474 
L 44.235 318.584332 
L 43.5375 318.917139 
L 42.84 318.684174 
L 42.1425 317.519352 
L 41.445 316.953581 
L 40.7475 318.251526 
L 40.05 318.48449 
L 39.3525 317.785597 
L 38.655 317.652474 
L 37.9575 317.952 
L 37.26 318.517771 
L 36.5625 318.318087 
L 35.1675 317.519352 
L 33.7725 318.45121 
L 33.075 318.251526 
L 32.3775 318.218245 
L 31.68 317.386229 
L 30.9825 317.652474 
L 30.285 318.351368 
L 29.5875 318.517771 
L 28.89 318.817297 
L 28.1925 317.752316 
L 27.495 317.685755 
L 26.7975 318.617613 
L 26.1 319.083542 
L 25.4025 319.316506 
L 24.705 317.685755 
L 24.0075 317.186545 
L 23.31 317.885439 
L 22.6125 318.9837 
L 21.915 319.449629 
L 20.52 318.018561 
L 19.8225 317.685755 
L 19.125 317.985281 
L 18.4275 318.118403 
L 17.73 318.650893 
L 17.0325 318.717455 
L 16.335 317.752316 
L 15.6375 317.885439 
L 14.94 317.486071 
L 14.2425 317.685755 
L 13.545 318.917139 
L 12.8475 318.184964 
L 12.15 317.719036 
L 11.4525 317.585913 
L 10.755 317.818877 
L 10.0575 318.517771 
L 9.36 318.417929 
L 7.965 317.652474 
L 7.2675 318.051842 
L 6.57 318.284806 
L 5.8725 318.850577 
L 5.175 318.384648 
L 4.4775 318.584332 
L 3.0825 318.184964 
L 2.385 319.116822 
L 1.6875 319.083542 
L 0.99 318.850577 
L -0.405 317.785597 
L -1 318.580515 
L -1 318.580515 
" clip-path="url(#pa345f1b66d)" style="fill: none; stroke: #ffc77f; stroke-opacity: 0.8; stroke-linecap: square"/>
   </g>
   <g id="patch_3">
    <path d="M 54 384.48 
L 54 51.84 
" style="fill: none; stroke: #000000; stroke-width: 0.8; stroke-linejoin: miter; stroke-linecap: square"/>
   </g>
   <g id="patch_4">
    <path d="M 388.8 384.48 
L 388.8 51.84 
" style="fill: none; stroke: #000000; stroke-width: 0.8; stroke-linejoin: miter; stroke-linecap: square"/>
   </g>
   <g id="patch_5">
    <path d="M 54 384.48 
L 388.8 384.48 
" style="fill: none; stroke: #000000; stroke-width: 0.8; stroke-linejoin: miter; stroke-linecap: square"/>
   </g>
   <g id="patch_6">
    <path d="M 54 51.84 
L 388.8 51.84 
" style="fill: none; stroke: #000000; stroke-width: 0.8; stroke-linejoin: miter; stroke-linecap: square"/>
   </g>
   <g id="text_13">
    <!-- CdS epoxy resin -->
    <g transform="translate(156.96375 45.84) scale(0.16 -0.16)">
     <defs>
      <path id="DejaVuSans-43" d="M 4122 4306 
L 4122 3641 
Q 3803 3938 3442 4084 
Q 3081 4231 2675 4231 
Q 1875 4231 1450 3742 
Q 1025 3253 1025 2328 
Q 1025 1406 1450 917 
Q 1875 428 2675 428 
Q 3081 428 3442 575 
Q 3803 722 4122 1019 
L 4122 359 
Q 3791 134 3420 21 
Q 3050 -91 2638 -91 
Q 1578 -91 968 557 
Q 359 1206 359 2328 
Q 359 3453 968 4101 
Q 1578 4750 2638 4750 
Q 3056 4750 3426 4639 
Q 3797 4528 4122 4306 
z
" transform="scale(0.015625)"/>
      <path id="DejaVuSans-64" d="M 2906 2969 
L 2906 4863 
L 3481 4863 
L 3481 0 
L 2906 0 
L 2906 525 
Q 2725 213 2448 61 
Q 2172 -91 1784 -91 
Q 1150 -91 751 415 
Q 353 922 353 1747 
Q 353 2572 751 3078 
Q 1150 3584 1784 3584 
Q 2172 3584 2448 3432 
Q 2725 3281 2906 2969 
z
M 947 1747 
Q 947 1113 1208 752 
Q 1469 391 1925 391 
Q 2381 391 2643 752 
Q 2906 1113 2906 1747 
Q 2906 2381 2643 2742 
Q 2381 3103 1925 3103 
Q 1469 3103 1208 2742 
Q 947 2381 947 1747 
z
" transform="scale(0.015625)"/>
      <path id="DejaVuSans-53" d="M 3425 4513 
L 3425 3897 
Q 3066 4069 2747 4153 
Q 2428 4238 2131 4238 
Q 1616 4238 1336 4038 
Q 1056 3838 1056 3469 
Q 1056 3159 1242 3001 
Q 1428 2844 1947 2747 
L 2328 2669 
Q 3034 2534 3370 2195 
Q 3706 1856 3706 1288 
Q 3706 609 3251 259 
Q 2797 -91 1919 -91 
Q 1588 -91 1214 -16 
Q 841 59 441 206 
L 441 856 
Q 825 641 1194 531 
Q 1563 422 1919 422 
Q 2459 422 2753 634 
Q 3047 847 3047 1241 
Q 3047 1584 2836 1778 
Q 2625 1972 2144 2069 
L 1759 2144 
Q 1053 2284 737 2584 
Q 422 2884 422 3419 
Q 422 4038 858 4394 
Q 1294 4750 2059 4750 
Q 2388 4750 2728 4690 
Q 3069 4631 3425 4513 
z
" transform="scale(0.015625)"/>
      <path id="DejaVuSans-70" d="M 1159 525 
L 1159 -1331 
L 581 -1331 
L 581 3500 
L 1159 3500 
L 1159 2969 
Q 1341 3281 1617 3432 
Q 1894 3584 2278 3584 
Q 2916 3584 3314 3078 
Q 3713 2572 3713 1747 
Q 3713 922 3314 415 
Q 2916 -91 2278 -91 
Q 1894 -91 1617 61 
Q 1341 213 1159 525 
z
M 3116 1747 
Q 3116 2381 2855 2742 
Q 2594 3103 2138 3103 
Q 1681 3103 1420 2742 
Q 1159 2381 1159 1747 
Q 1159 1113 1420 752 
Q 1681 391 2138 391 
Q 2594 391 2855 752 
Q 3116 1113 3116 1747 
z
" transform="scale(0.015625)"/>
      <path id="DejaVuSans-6f" d="M 1959 3097 
Q 1497 3097 1228 2736 
Q 959 2375 959 1747 
Q 959 1119 1226 758 
Q 1494 397 1959 397 
Q 2419 397 2687 759 
Q 2956 1122 2956 1747 
Q 2956 2369 2687 2733 
Q 2419 3097 1959 3097 
z
M 1959 3584 
Q 2709 3584 3137 3096 
Q 3566 2609 3566 1747 
Q 3566 888 3137 398 
Q 2709 -91 1959 -91 
Q 1206 -91 779 398 
Q 353 888 353 1747 
Q 353 2609 779 3096 
Q 1206 3584 1959 3584 
z
" transform="scale(0.015625)"/>
      <path id="DejaVuSans-78" d="M 3513 3500 
L 2247 1797 
L 3578 0 
L 2900 0 
L 1881 1375 
L 863 0 
L 184 0 
L 1544 1831 
L 300 3500 
L 978 3500 
L 1906 2253 
L 2834 3500 
L 3513 3500 
z
" transform="scale(0.015625)"/>
      <path id="DejaVuSans-79" d="M 2059 -325 
Q 1816 -950 1584 -1140 
Q 1353 -1331 966 -1331 
L 506 -1331 
L 506 -850 
L 844 -850 
Q 1081 -850 1212 -737 
Q 1344 -625 1503 -206 
L 1606 56 
L 191 3500 
L 800 3500 
L 1894 763 
L 2988 3500 
L 3597 3500 
L 2059 -325 
z
" transform="scale(0.015625)"/>
     </defs>
     <use xlink:href="#DejaVuSans-43"/>
     <use xlink:href="#DejaVuSans-64" x="69.824219"/>
     <use xlink:href="#DejaVuSans-53" x="133.300781"/>
     <use xlink:href="#DejaVuSans-20" x="196.777344"/>
     <use xlink:href="#DejaVuSans-65" x="228.564453"/>
     <use xlink:href="#DejaVuSans-70" x="290.087891"/>
     <use xlink:href="#DejaVuSans-6f" x="353.564453"/>
     <use xlink:href="#DejaVuSans-78" x="411.621094"/>
     <use xlink:href="#DejaVuSans-79" x="470.800781"/>
     <use xlink:href="#DejaVuSans-20" x="529.980469"/>
     <use xlink:href="#DejaVuSans-72" x="561.767578"/>
     <use xlink:href="#DejaVuSans-65" x="600.630859"/>
     <use xlink:href="#DejaVuSans-73" x="662.154297"/>
     <use xlink:href="#DejaVuSans-69" x="714.253906"/>
     <use xlink:href="#DejaVuSans-6e" x="742.037109"/>
    </g>
   </g>
   <g id="legend_1">
    <g id="patch_7">
     <path d="M 62.4 151.444375 
L 127.51875 151.444375 
Q 129.91875 151.444375 129.91875 149.044375 
L 129.91875 60.24 
Q 129.91875 57.84 127.51875 57.84 
L 62.4 57.84 
Q 60 57.84 60 60.24 
L 60 149.044375 
Q 60 151.444375 62.4 151.444375 
z
" style="fill: #ffffff; opacity: 0.8; stroke: #cccccc; stroke-linejoin: miter"/>
    </g>
    <g id="text_14">
     <!-- % CdS -->
     <g transform="translate(72.307812 73.277812) scale(0.14 -0.14)">
      <use xlink:href="#DejaVuSans-25"/>
      <use xlink:href="#DejaVuSans-20" x="95.019531"/>
      <use xlink:href="#DejaVuSans-43" x="126.806641"/>
      <use xlink:href="#DejaVuSans-64" x="196.630859"/>
      <use xlink:href="#DejaVuSans-53" x="260.107422"/>
     </g>
    </g>
    <g id="line2d_15">
     <path d="M 64.8 87.1075 
L 76.8 87.1075 
L 88.8 87.1075 
" style="fill: none; stroke: #000000; stroke-opacity: 0.8; stroke-linecap: square"/>
    </g>
    <g id="text_15">
     <!-- 0.05 -->
     <g transform="translate(98.4 91.3075) scale(0.12 -0.12)">
      <defs>
       <path id="DejaVuSans-2e" d="M 684 794 
L 1344 794 
L 1344 0 
L 684 0 
L 684 794 
z
" transform="scale(0.015625)"/>
      </defs>
      <use xlink:href="#DejaVuSans-30"/>
      <use xlink:href="#DejaVuSans-2e" x="63.623047"/>
      <use xlink:href="#DejaVuSans-30" x="95.410156"/>
      <use xlink:href="#DejaVuSans-35" x="159.033203"/>
     </g>
    </g>
    <g id="line2d_16">
     <path d="M 64.8 104.72125 
L 76.8 104.72125 
L 88.8 104.72125 
" style="fill: none; stroke: #69422a; stroke-opacity: 0.8; stroke-linecap: square"/>
    </g>
    <g id="text_16">
     <!-- 0.10 -->
     <g transform="translate(98.4 108.92125) scale(0.12 -0.12)">
      <use xlink:href="#DejaVuSans-30"/>
      <use xlink:href="#DejaVuSans-2e" x="63.623047"/>
      <use xlink:href="#DejaVuSans-31" x="95.410156"/>
      <use xlink:href="#DejaVuSans-30" x="159.033203"/>
     </g>
    </g>
    <g id="line2d_17">
     <path d="M 64.8 122.335 
L 76.8 122.335 
L 88.8 122.335 
" style="fill: none; stroke: #d28555; stroke-opacity: 0.8; stroke-linecap: square"/>
    </g>
    <g id="text_17">
     <!-- 0.20 -->
     <g transform="translate(98.4 126.535) scale(0.12 -0.12)">
      <use xlink:href="#DejaVuSans-30"/>
      <use xlink:href="#DejaVuSans-2e" x="63.623047"/>
      <use xlink:href="#DejaVuSans-32" x="95.410156"/>
      <use xlink:href="#DejaVuSans-30" x="159.033203"/>
     </g>
    </g>
    <g id="line2d_18">
     <path d="M 64.8 139.94875 
L 76.8 139.94875 
L 88.8 139.94875 
" style="fill: none; stroke: #ffc77f; stroke-opacity: 0.8; stroke-linecap: square"/>
    </g>
    <g id="text_18">
     <!-- 0.30 -->
     <g transform="translate(98.4 144.14875) scale(0.12 -0.12)">
      <defs>
       <path id="DejaVuSans-33" d="M 2597 2516 
Q 3050 2419 3304 2112 
Q 3559 1806 3559 1356 
Q 3559 666 3084 287 
Q 2609 -91 1734 -91 
Q 1441 -91 1130 -33 
Q 819 25 488 141 
L 488 750 
Q 750 597 1062 519 
Q 1375 441 1716 441 
Q 2309 441 2620 675 
Q 2931 909 2931 1356 
Q 2931 1769 2642 2001 
Q 2353 2234 1838 2234 
L 1294 2234 
L 1294 2753 
L 1863 2753 
Q 2328 2753 2575 2939 
Q 2822 3125 2822 3475 
Q 2822 3834 2567 4026 
Q 2313 4219 1838 4219 
Q 1578 4219 1281 4162 
Q 984 4106 628 3988 
L 628 4550 
Q 988 4650 1302 4700 
Q 1616 4750 1894 4750 
Q 2613 4750 3031 4423 
Q 3450 4097 3450 3541 
Q 3450 3153 3228 2886 
Q 3006 2619 2597 2516 
z
" transform="scale(0.015625)"/>
      </defs>
      <use xlink:href="#DejaVuSans-30"/>
      <use xlink:href="#DejaVuSans-2e" x="63.623047"/>
      <use xlink:href="#DejaVuSans-33" x="95.410156"/>
      <use xlink:href="#DejaVuSans-30" x="159.033203"/>
     </g>
    </g>
   </g>
  </g>
 </g>
 <defs>
  <clipPath id="pa345f1b66d">
   <rect x="54" y="51.84" width="334.8" height="332.64"/>
  </clipPath>
 </defs>
</svg>
