<?xml version="1.0" encoding="utf-8" standalone="no"?>
<!DOCTYPE svg PUBLIC "-//W3C//DTD SVG 1.1//EN"
  "http://www.w3.org/Graphics/SVG/1.1/DTD/svg11.dtd">
<svg xmlns:xlink="http://www.w3.org/1999/xlink" width="432pt" height="432pt" viewBox="0 0 432 432" xmlns="http://www.w3.org/2000/svg" version="1.1">
 <metadata>
  <rdf:RDF xmlns:dc="http://purl.org/dc/elements/1.1/" xmlns:cc="http://creativecommons.org/ns#" xmlns:rdf="http://www.w3.org/1999/02/22-rdf-syntax-ns#">
   <cc:Work>
    <dc:type rdf:resource="http://purl.org/dc/dcmitype/StillImage"/>
    <dc:date>2025-05-16T09:52:26.961635</dc:date>
    <dc:format>image/svg+xml</dc:format>
    <dc:creator>
     <cc:Agent>
      <dc:title>Matplotlib v3.8.3, https://matplotlib.org/</dc:title>
     </cc:Agent>
    </dc:creator>
   </cc:Work>
  </rdf:RDF>
 </metadata>
 <defs>
  <style type="text/css">*{stroke-linejoin: round; stroke-linecap: butt}</style>
 </defs>
 <g id="figure_1">
  <g id="patch_1">
   <path d="M 0 432 
L 432 432 
L 432 0 
L 0 0 
z
" style="fill: #ffffff"/>
  </g>
  <g id="axes_1">
   <g id="patch_2">
    <path d="M 54 384.48 
L 388.8 384.48 
L 388.8 51.84 
L 54 51.84 
z
" style="fill: #ffffff"/>
   </g>
   <g id="matplotlib.axis_1">
    <g id="xtick_1">
     <g id="line2d_1">
      <defs>
       <path id="mf39785c2f9" d="M 0 0 
L 0 3.5 
" style="stroke: #000000; stroke-width: 0.8"/>
      </defs>
      <g>
       <use xlink:href="#mf39785c2f9" x="109.8" y="384.48" style="stroke: #000000; stroke-width: 0.8"/>
      </g>
     </g>
     <g id="text_1">
      <!-- 400 -->
      <g transform="translate(100.25625 399.078438) scale(0.1 -0.1)">
       <defs>
        <path id="DejaVuSans-34" d="M 2419 4116 
L 825 1625 
L 2419 1625 
L 2419 4116 
z
M 2253 4666 
L 3047 4666 
L 3047 1625 
L 3713 1625 
L 3713 1100 
L 3047 1100 
L 3047 0 
L 2419 0 
L 2419 1100 
L 313 1100 
L 313 1709 
L 2253 4666 
z
" transform="scale(0.015625)"/>
        <path id="DejaVuSans-30" d="M 2034 4250 
Q 1547 4250 1301 3770 
Q 1056 3291 1056 2328 
Q 1056 1369 1301 889 
Q 1547 409 2034 409 
Q 2525 409 2770 889 
Q 3016 1369 3016 2328 
Q 3016 3291 2770 3770 
Q 2525 4250 2034 4250 
z
M 2034 4750 
Q 2819 4750 3233 4129 
Q 3647 3509 3647 2328 
Q 3647 1150 3233 529 
Q 2819 -91 2034 -91 
Q 1250 -91 836 529 
Q 422 1150 422 2328 
Q 422 3509 836 4129 
Q 1250 4750 2034 4750 
z
" transform="scale(0.015625)"/>
       </defs>
       <use xlink:href="#DejaVuSans-34"/>
       <use xlink:href="#DejaVuSans-30" x="63.623047"/>
       <use xlink:href="#DejaVuSans-30" x="127.246094"/>
      </g>
     </g>
    </g>
    <g id="xtick_2">
     <g id="line2d_2">
      <g>
       <use xlink:href="#mf39785c2f9" x="179.55" y="384.48" style="stroke: #000000; stroke-width: 0.8"/>
      </g>
     </g>
     <g id="text_2">
      <!-- 500 -->
      <g transform="translate(170.00625 399.078438) scale(0.1 -0.1)">
       <defs>
        <path id="DejaVuSans-35" d="M 691 4666 
L 3169 4666 
L 3169 4134 
L 1269 4134 
L 1269 2991 
Q 1406 3038 1543 3061 
Q 1681 3084 1819 3084 
Q 2600 3084 3056 2656 
Q 3513 2228 3513 1497 
Q 3513 744 3044 326 
Q 2575 -91 1722 -91 
Q 1428 -91 1123 -41 
Q 819 9 494 109 
L 494 744 
Q 775 591 1075 516 
Q 1375 441 1709 441 
Q 2250 441 2565 725 
Q 2881 1009 2881 1497 
Q 2881 1984 2565 2268 
Q 2250 2553 1709 2553 
Q 1456 2553 1204 2497 
Q 953 2441 691 2322 
L 691 4666 
z
" transform="scale(0.015625)"/>
       </defs>
       <use xlink:href="#DejaVuSans-35"/>
       <use xlink:href="#DejaVuSans-30" x="63.623047"/>
       <use xlink:href="#DejaVuSans-30" x="127.246094"/>
      </g>
     </g>
    </g>
    <g id="xtick_3">
     <g id="line2d_3">
      <g>
       <use xlink:href="#mf39785c2f9" x="249.3" y="384.48" style="stroke: #000000; stroke-width: 0.8"/>
      </g>
     </g>
     <g id="text_3">
      <!-- 600 -->
      <g transform="translate(239.75625 399.078438) scale(0.1 -0.1)">
       <defs>
        <path id="DejaVuSans-36" d="M 2113 2584 
Q 1688 2584 1439 2293 
Q 1191 2003 1191 1497 
Q 1191 994 1439 701 
Q 1688 409 2113 409 
Q 2538 409 2786 701 
Q 3034 994 3034 1497 
Q 3034 2003 2786 2293 
Q 2538 2584 2113 2584 
z
M 3366 4563 
L 3366 3988 
Q 3128 4100 2886 4159 
Q 2644 4219 2406 4219 
Q 1781 4219 1451 3797 
Q 1122 3375 1075 2522 
Q 1259 2794 1537 2939 
Q 1816 3084 2150 3084 
Q 2853 3084 3261 2657 
Q 3669 2231 3669 1497 
Q 3669 778 3244 343 
Q 2819 -91 2113 -91 
Q 1303 -91 875 529 
Q 447 1150 447 2328 
Q 447 3434 972 4092 
Q 1497 4750 2381 4750 
Q 2619 4750 2861 4703 
Q 3103 4656 3366 4563 
z
" transform="scale(0.015625)"/>
       </defs>
       <use xlink:href="#DejaVuSans-36"/>
       <use xlink:href="#DejaVuSans-30" x="63.623047"/>
       <use xlink:href="#DejaVuSans-30" x="127.246094"/>
      </g>
     </g>
    </g>
    <g id="xtick_4">
     <g id="line2d_4">
      <g>
       <use xlink:href="#mf39785c2f9" x="319.05" y="384.48" style="stroke: #000000; stroke-width: 0.8"/>
      </g>
     </g>
     <g id="text_4">
      <!-- 700 -->
      <g transform="translate(309.50625 399.078438) scale(0.1 -0.1)">
       <defs>
        <path id="DejaVuSans-37" d="M 525 4666 
L 3525 4666 
L 3525 4397 
L 1831 0 
L 1172 0 
L 2766 4134 
L 525 4134 
L 525 4666 
z
" transform="scale(0.015625)"/>
       </defs>
       <use xlink:href="#DejaVuSans-37"/>
       <use xlink:href="#DejaVuSans-30" x="63.623047"/>
       <use xlink:href="#DejaVuSans-30" x="127.246094"/>
      </g>
     </g>
    </g>
    <g id="xtick_5">
     <g id="line2d_5">
      <g>
       <use xlink:href="#mf39785c2f9" x="388.8" y="384.48" style="stroke: #000000; stroke-width: 0.8"/>
      </g>
     </g>
     <g id="text_5">
      <!-- 800 -->
      <g transform="translate(379.25625 399.078438) scale(0.1 -0.1)">
       <defs>
        <path id="DejaVuSans-38" d="M 2034 2216 
Q 1584 2216 1326 1975 
Q 1069 1734 1069 1313 
Q 1069 891 1326 650 
Q 1584 409 2034 409 
Q 2484 409 2743 651 
Q 3003 894 3003 1313 
Q 3003 1734 2745 1975 
Q 2488 2216 2034 2216 
z
M 1403 2484 
Q 997 2584 770 2862 
Q 544 3141 544 3541 
Q 544 4100 942 4425 
Q 1341 4750 2034 4750 
Q 2731 4750 3128 4425 
Q 3525 4100 3525 3541 
Q 3525 3141 3298 2862 
Q 3072 2584 2669 2484 
Q 3125 2378 3379 2068 
Q 3634 1759 3634 1313 
Q 3634 634 3220 271 
Q 2806 -91 2034 -91 
Q 1263 -91 848 271 
Q 434 634 434 1313 
Q 434 1759 690 2068 
Q 947 2378 1403 2484 
z
M 1172 3481 
Q 1172 3119 1398 2916 
Q 1625 2713 2034 2713 
Q 2441 2713 2670 2916 
Q 2900 3119 2900 3481 
Q 2900 3844 2670 4047 
Q 2441 4250 2034 4250 
Q 1625 4250 1398 4047 
Q 1172 3844 1172 3481 
z
" transform="scale(0.015625)"/>
       </defs>
       <use xlink:href="#DejaVuSans-38"/>
       <use xlink:href="#DejaVuSans-30" x="63.623047"/>
       <use xlink:href="#DejaVuSans-30" x="127.246094"/>
      </g>
     </g>
    </g>
    <g id="text_6">
     <!-- Wavelength (nm) -->
     <g transform="translate(169.569375 414.27625) scale(0.12 -0.12)">
      <defs>
       <path id="DejaVuSans-57" d="M 213 4666 
L 850 4666 
L 1831 722 
L 2809 4666 
L 3519 4666 
L 4500 722 
L 5478 4666 
L 6119 4666 
L 4947 0 
L 4153 0 
L 3169 4050 
L 2175 0 
L 1381 0 
L 213 4666 
z
" transform="scale(0.015625)"/>
       <path id="DejaVuSans-61" d="M 2194 1759 
Q 1497 1759 1228 1600 
Q 959 1441 959 1056 
Q 959 750 1161 570 
Q 1363 391 1709 391 
Q 2188 391 2477 730 
Q 2766 1069 2766 1631 
L 2766 1759 
L 2194 1759 
z
M 3341 1997 
L 3341 0 
L 2766 0 
L 2766 531 
Q 2569 213 2275 61 
Q 1981 -91 1556 -91 
Q 1019 -91 701 211 
Q 384 513 384 1019 
Q 384 1609 779 1909 
Q 1175 2209 1959 2209 
L 2766 2209 
L 2766 2266 
Q 2766 2663 2505 2880 
Q 2244 3097 1772 3097 
Q 1472 3097 1187 3025 
Q 903 2953 641 2809 
L 641 3341 
Q 956 3463 1253 3523 
Q 1550 3584 1831 3584 
Q 2591 3584 2966 3190 
Q 3341 2797 3341 1997 
z
" transform="scale(0.015625)"/>
       <path id="DejaVuSans-76" d="M 191 3500 
L 800 3500 
L 1894 563 
L 2988 3500 
L 3597 3500 
L 2284 0 
L 1503 0 
L 191 3500 
z
" transform="scale(0.015625)"/>
       <path id="DejaVuSans-65" d="M 3597 1894 
L 3597 1613 
L 953 1613 
Q 991 1019 1311 708 
Q 1631 397 2203 397 
Q 2534 397 2845 478 
Q 3156 559 3463 722 
L 3463 178 
Q 3153 47 2828 -22 
Q 2503 -91 2169 -91 
Q 1331 -91 842 396 
Q 353 884 353 1716 
Q 353 2575 817 3079 
Q 1281 3584 2069 3584 
Q 2775 3584 3186 3129 
Q 3597 2675 3597 1894 
z
M 3022 2063 
Q 3016 2534 2758 2815 
Q 2500 3097 2075 3097 
Q 1594 3097 1305 2825 
Q 1016 2553 972 2059 
L 3022 2063 
z
" transform="scale(0.015625)"/>
       <path id="DejaVuSans-6c" d="M 603 4863 
L 1178 4863 
L 1178 0 
L 603 0 
L 603 4863 
z
" transform="scale(0.015625)"/>
       <path id="DejaVuSans-6e" d="M 3513 2113 
L 3513 0 
L 2938 0 
L 2938 2094 
Q 2938 2591 2744 2837 
Q 2550 3084 2163 3084 
Q 1697 3084 1428 2787 
Q 1159 2491 1159 1978 
L 1159 0 
L 581 0 
L 581 3500 
L 1159 3500 
L 1159 2956 
Q 1366 3272 1645 3428 
Q 1925 3584 2291 3584 
Q 2894 3584 3203 3211 
Q 3513 2838 3513 2113 
z
" transform="scale(0.015625)"/>
       <path id="DejaVuSans-67" d="M 2906 1791 
Q 2906 2416 2648 2759 
Q 2391 3103 1925 3103 
Q 1463 3103 1205 2759 
Q 947 2416 947 1791 
Q 947 1169 1205 825 
Q 1463 481 1925 481 
Q 2391 481 2648 825 
Q 2906 1169 2906 1791 
z
M 3481 434 
Q 3481 -459 3084 -895 
Q 2688 -1331 1869 -1331 
Q 1566 -1331 1297 -1286 
Q 1028 -1241 775 -1147 
L 775 -588 
Q 1028 -725 1275 -790 
Q 1522 -856 1778 -856 
Q 2344 -856 2625 -561 
Q 2906 -266 2906 331 
L 2906 616 
Q 2728 306 2450 153 
Q 2172 0 1784 0 
Q 1141 0 747 490 
Q 353 981 353 1791 
Q 353 2603 747 3093 
Q 1141 3584 1784 3584 
Q 2172 3584 2450 3431 
Q 2728 3278 2906 2969 
L 2906 3500 
L 3481 3500 
L 3481 434 
z
" transform="scale(0.015625)"/>
       <path id="DejaVuSans-74" d="M 1172 4494 
L 1172 3500 
L 2356 3500 
L 2356 3053 
L 1172 3053 
L 1172 1153 
Q 1172 725 1289 603 
Q 1406 481 1766 481 
L 2356 481 
L 2356 0 
L 1766 0 
Q 1100 0 847 248 
Q 594 497 594 1153 
L 594 3053 
L 172 3053 
L 172 3500 
L 594 3500 
L 594 4494 
L 1172 4494 
z
" transform="scale(0.015625)"/>
       <path id="DejaVuSans-68" d="M 3513 2113 
L 3513 0 
L 2938 0 
L 2938 2094 
Q 2938 2591 2744 2837 
Q 2550 3084 2163 3084 
Q 1697 3084 1428 2787 
Q 1159 2491 1159 1978 
L 1159 0 
L 581 0 
L 581 4863 
L 1159 4863 
L 1159 2956 
Q 1366 3272 1645 3428 
Q 1925 3584 2291 3584 
Q 2894 3584 3203 3211 
Q 3513 2838 3513 2113 
z
" transform="scale(0.015625)"/>
       <path id="DejaVuSans-20" transform="scale(0.015625)"/>
       <path id="DejaVuSans-28" d="M 1984 4856 
Q 1566 4138 1362 3434 
Q 1159 2731 1159 2009 
Q 1159 1288 1364 580 
Q 1569 -128 1984 -844 
L 1484 -844 
Q 1016 -109 783 600 
Q 550 1309 550 2009 
Q 550 2706 781 3412 
Q 1013 4119 1484 4856 
L 1984 4856 
z
" transform="scale(0.015625)"/>
       <path id="DejaVuSans-6d" d="M 3328 2828 
Q 3544 3216 3844 3400 
Q 4144 3584 4550 3584 
Q 5097 3584 5394 3201 
Q 5691 2819 5691 2113 
L 5691 0 
L 5113 0 
L 5113 2094 
Q 5113 2597 4934 2840 
Q 4756 3084 4391 3084 
Q 3944 3084 3684 2787 
Q 3425 2491 3425 1978 
L 3425 0 
L 2847 0 
L 2847 2094 
Q 2847 2600 2669 2842 
Q 2491 3084 2119 3084 
Q 1678 3084 1418 2786 
Q 1159 2488 1159 1978 
L 1159 0 
L 581 0 
L 581 3500 
L 1159 3500 
L 1159 2956 
Q 1356 3278 1631 3431 
Q 1906 3584 2284 3584 
Q 2666 3584 2933 3390 
Q 3200 3197 3328 2828 
z
" transform="scale(0.015625)"/>
       <path id="DejaVuSans-29" d="M 513 4856 
L 1013 4856 
Q 1481 4119 1714 3412 
Q 1947 2706 1947 2009 
Q 1947 1309 1714 600 
Q 1481 -109 1013 -844 
L 513 -844 
Q 928 -128 1133 580 
Q 1338 1288 1338 2009 
Q 1338 2731 1133 3434 
Q 928 4138 513 4856 
z
" transform="scale(0.015625)"/>
      </defs>
      <use xlink:href="#DejaVuSans-57"/>
      <use xlink:href="#DejaVuSans-61" x="92.501953"/>
      <use xlink:href="#DejaVuSans-76" x="153.78125"/>
      <use xlink:href="#DejaVuSans-65" x="212.960938"/>
      <use xlink:href="#DejaVuSans-6c" x="274.484375"/>
      <use xlink:href="#DejaVuSans-65" x="302.267578"/>
      <use xlink:href="#DejaVuSans-6e" x="363.791016"/>
      <use xlink:href="#DejaVuSans-67" x="427.169922"/>
      <use xlink:href="#DejaVuSans-74" x="490.646484"/>
      <use xlink:href="#DejaVuSans-68" x="529.855469"/>
      <use xlink:href="#DejaVuSans-20" x="593.234375"/>
      <use xlink:href="#DejaVuSans-28" x="625.021484"/>
      <use xlink:href="#DejaVuSans-6e" x="664.035156"/>
      <use xlink:href="#DejaVuSans-6d" x="727.414062"/>
      <use xlink:href="#DejaVuSans-29" x="824.826172"/>
     </g>
    </g>
   </g>
   <g id="matplotlib.axis_2">
    <g id="ytick_1">
     <g id="line2d_6">
      <defs>
       <path id="mbe4b1856ee" d="M 0 0 
L -3.5 0 
" style="stroke: #000000; stroke-width: 0.8"/>
      </defs>
      <g>
       <use xlink:href="#mbe4b1856ee" x="54" y="354.145644" style="stroke: #000000; stroke-width: 0.8"/>
      </g>
     </g>
     <g id="text_7">
      <!-- $\mathdefault{10^{-1}}$ -->
      <g transform="translate(23.5 357.944863) scale(0.1 -0.1)">
       <defs>
        <path id="DejaVuSans-31" d="M 794 531 
L 1825 531 
L 1825 4091 
L 703 3866 
L 703 4441 
L 1819 4666 
L 2450 4666 
L 2450 531 
L 3481 531 
L 3481 0 
L 794 0 
L 794 531 
z
" transform="scale(0.015625)"/>
        <path id="DejaVuSans-2212" d="M 678 2272 
L 4684 2272 
L 4684 1741 
L 678 1741 
L 678 2272 
z
" transform="scale(0.015625)"/>
       </defs>
       <use xlink:href="#DejaVuSans-31" transform="translate(0 0.684375)"/>
       <use xlink:href="#DejaVuSans-30" transform="translate(63.623047 0.684375)"/>
       <use xlink:href="#DejaVuSans-2212" transform="translate(128.203125 38.965625) scale(0.7)"/>
       <use xlink:href="#DejaVuSans-31" transform="translate(186.855469 38.965625) scale(0.7)"/>
      </g>
     </g>
    </g>
    <g id="ytick_2">
     <g id="line2d_7">
      <g>
       <use xlink:href="#mbe4b1856ee" x="54" y="253.377096" style="stroke: #000000; stroke-width: 0.8"/>
      </g>
     </g>
     <g id="text_8">
      <!-- $\mathdefault{10^{0}}$ -->
      <g transform="translate(29.4 257.176315) scale(0.1 -0.1)">
       <use xlink:href="#DejaVuSans-31" transform="translate(0 0.765625)"/>
       <use xlink:href="#DejaVuSans-30" transform="translate(63.623047 0.765625)"/>
       <use xlink:href="#DejaVuSans-30" transform="translate(128.203125 39.046875) scale(0.7)"/>
      </g>
     </g>
    </g>
    <g id="ytick_3">
     <g id="line2d_8">
      <g>
       <use xlink:href="#mbe4b1856ee" x="54" y="152.608548" style="stroke: #000000; stroke-width: 0.8"/>
      </g>
     </g>
     <g id="text_9">
      <!-- $\mathdefault{10^{1}}$ -->
      <g transform="translate(29.4 156.407767) scale(0.1 -0.1)">
       <use xlink:href="#DejaVuSans-31" transform="translate(0 0.684375)"/>
       <use xlink:href="#DejaVuSans-30" transform="translate(63.623047 0.684375)"/>
       <use xlink:href="#DejaVuSans-31" transform="translate(128.203125 38.965625) scale(0.7)"/>
      </g>
     </g>
    </g>
    <g id="ytick_4">
     <g id="line2d_9">
      <g>
       <use xlink:href="#mbe4b1856ee" x="54" y="51.84" style="stroke: #000000; stroke-width: 0.8"/>
      </g>
     </g>
     <g id="text_10">
      <!-- $\mathdefault{10^{2}}$ -->
      <g transform="translate(29.4 55.639219) scale(0.1 -0.1)">
       <defs>
        <path id="DejaVuSans-32" d="M 1228 531 
L 3431 531 
L 3431 0 
L 469 0 
L 469 531 
Q 828 903 1448 1529 
Q 2069 2156 2228 2338 
Q 2531 2678 2651 2914 
Q 2772 3150 2772 3378 
Q 2772 3750 2511 3984 
Q 2250 4219 1831 4219 
Q 1534 4219 1204 4116 
Q 875 4013 500 3803 
L 500 4441 
Q 881 4594 1212 4672 
Q 1544 4750 1819 4750 
Q 2544 4750 2975 4387 
Q 3406 4025 3406 3419 
Q 3406 3131 3298 2873 
Q 3191 2616 2906 2266 
Q 2828 2175 2409 1742 
Q 1991 1309 1228 531 
z
" transform="scale(0.015625)"/>
       </defs>
       <use xlink:href="#DejaVuSans-31" transform="translate(0 0.765625)"/>
       <use xlink:href="#DejaVuSans-30" transform="translate(63.623047 0.765625)"/>
       <use xlink:href="#DejaVuSans-32" transform="translate(128.203125 39.046875) scale(0.7)"/>
      </g>
     </g>
    </g>
    <g id="ytick_5">
     <g id="line2d_10">
      <defs>
       <path id="m47798b0768" d="M 0 0 
L -2 0 
" style="stroke: #000000; stroke-width: 0.6"/>
      </defs>
      <g>
       <use xlink:href="#m47798b0768" x="54" y="384.48" style="stroke: #000000; stroke-width: 0.6"/>
      </g>
     </g>
    </g>
    <g id="ytick_6">
     <g id="line2d_11">
      <g>
       <use xlink:href="#m47798b0768" x="54" y="376.501021" style="stroke: #000000; stroke-width: 0.6"/>
      </g>
     </g>
    </g>
    <g id="ytick_7">
     <g id="line2d_12">
      <g>
       <use xlink:href="#m47798b0768" x="54" y="369.75489" style="stroke: #000000; stroke-width: 0.6"/>
      </g>
     </g>
    </g>
    <g id="ytick_8">
     <g id="line2d_13">
      <g>
       <use xlink:href="#m47798b0768" x="54" y="363.911126" style="stroke: #000000; stroke-width: 0.6"/>
      </g>
     </g>
    </g>
    <g id="ytick_9">
     <g id="line2d_14">
      <g>
       <use xlink:href="#m47798b0768" x="54" y="358.75656" style="stroke: #000000; stroke-width: 0.6"/>
      </g>
     </g>
    </g>
    <g id="ytick_10">
     <g id="line2d_15">
      <g>
       <use xlink:href="#m47798b0768" x="54" y="323.811289" style="stroke: #000000; stroke-width: 0.6"/>
      </g>
     </g>
    </g>
    <g id="ytick_11">
     <g id="line2d_16">
      <g>
       <use xlink:href="#m47798b0768" x="54" y="306.066828" style="stroke: #000000; stroke-width: 0.6"/>
      </g>
     </g>
    </g>
    <g id="ytick_12">
     <g id="line2d_17">
      <g>
       <use xlink:href="#m47798b0768" x="54" y="293.476933" style="stroke: #000000; stroke-width: 0.6"/>
      </g>
     </g>
    </g>
    <g id="ytick_13">
     <g id="line2d_18">
      <g>
       <use xlink:href="#m47798b0768" x="54" y="283.711452" style="stroke: #000000; stroke-width: 0.6"/>
      </g>
     </g>
    </g>
    <g id="ytick_14">
     <g id="line2d_19">
      <g>
       <use xlink:href="#m47798b0768" x="54" y="275.732473" style="stroke: #000000; stroke-width: 0.6"/>
      </g>
     </g>
    </g>
    <g id="ytick_15">
     <g id="line2d_20">
      <g>
       <use xlink:href="#m47798b0768" x="54" y="268.986342" style="stroke: #000000; stroke-width: 0.6"/>
      </g>
     </g>
    </g>
    <g id="ytick_16">
     <g id="line2d_21">
      <g>
       <use xlink:href="#m47798b0768" x="54" y="263.142578" style="stroke: #000000; stroke-width: 0.6"/>
      </g>
     </g>
    </g>
    <g id="ytick_17">
     <g id="line2d_22">
      <g>
       <use xlink:href="#m47798b0768" x="54" y="257.988012" style="stroke: #000000; stroke-width: 0.6"/>
      </g>
     </g>
    </g>
    <g id="ytick_18">
     <g id="line2d_23">
      <g>
       <use xlink:href="#m47798b0768" x="54" y="223.042741" style="stroke: #000000; stroke-width: 0.6"/>
      </g>
     </g>
    </g>
    <g id="ytick_19">
     <g id="line2d_24">
      <g>
       <use xlink:href="#m47798b0768" x="54" y="205.29828" style="stroke: #000000; stroke-width: 0.6"/>
      </g>
     </g>
    </g>
    <g id="ytick_20">
     <g id="line2d_25">
      <g>
       <use xlink:href="#m47798b0768" x="54" y="192.708385" style="stroke: #000000; stroke-width: 0.6"/>
      </g>
     </g>
    </g>
    <g id="ytick_21">
     <g id="line2d_26">
      <g>
       <use xlink:href="#m47798b0768" x="54" y="182.942904" style="stroke: #000000; stroke-width: 0.6"/>
      </g>
     </g>
    </g>
    <g id="ytick_22">
     <g id="line2d_27">
      <g>
       <use xlink:href="#m47798b0768" x="54" y="174.963925" style="stroke: #000000; stroke-width: 0.6"/>
      </g>
     </g>
    </g>
    <g id="ytick_23">
     <g id="line2d_28">
      <g>
       <use xlink:href="#m47798b0768" x="54" y="168.217794" style="stroke: #000000; stroke-width: 0.6"/>
      </g>
     </g>
    </g>
    <g id="ytick_24">
     <g id="line2d_29">
      <g>
       <use xlink:href="#m47798b0768" x="54" y="162.374029" style="stroke: #000000; stroke-width: 0.6"/>
      </g>
     </g>
    </g>
    <g id="ytick_25">
     <g id="line2d_30">
      <g>
       <use xlink:href="#m47798b0768" x="54" y="157.219464" style="stroke: #000000; stroke-width: 0.6"/>
      </g>
     </g>
    </g>
    <g id="ytick_26">
     <g id="line2d_31">
      <g>
       <use xlink:href="#m47798b0768" x="54" y="122.274193" style="stroke: #000000; stroke-width: 0.6"/>
      </g>
     </g>
    </g>
    <g id="ytick_27">
     <g id="line2d_32">
      <g>
       <use xlink:href="#m47798b0768" x="54" y="104.529732" style="stroke: #000000; stroke-width: 0.6"/>
      </g>
     </g>
    </g>
    <g id="ytick_28">
     <g id="line2d_33">
      <g>
       <use xlink:href="#m47798b0768" x="54" y="91.939837" style="stroke: #000000; stroke-width: 0.6"/>
      </g>
     </g>
    </g>
    <g id="ytick_29">
     <g id="line2d_34">
      <g>
       <use xlink:href="#m47798b0768" x="54" y="82.174356" style="stroke: #000000; stroke-width: 0.6"/>
      </g>
     </g>
    </g>
    <g id="ytick_30">
     <g id="line2d_35">
      <g>
       <use xlink:href="#m47798b0768" x="54" y="74.195376" style="stroke: #000000; stroke-width: 0.6"/>
      </g>
     </g>
    </g>
    <g id="ytick_31">
     <g id="line2d_36">
      <g>
       <use xlink:href="#m47798b0768" x="54" y="67.449246" style="stroke: #000000; stroke-width: 0.6"/>
      </g>
     </g>
    </g>
    <g id="ytick_32">
     <g id="line2d_37">
      <g>
       <use xlink:href="#m47798b0768" x="54" y="61.605481" style="stroke: #000000; stroke-width: 0.6"/>
      </g>
     </g>
    </g>
    <g id="ytick_33">
     <g id="line2d_38">
      <g>
       <use xlink:href="#m47798b0768" x="54" y="56.450916" style="stroke: #000000; stroke-width: 0.6"/>
      </g>
     </g>
    </g>
    <g id="text_11">
     <!-- % Transmittance -->
     <g transform="translate(17.004375 268.305) rotate(-90) scale(0.12 -0.12)">
      <defs>
       <path id="DejaVuSans-25" d="M 4653 2053 
Q 4381 2053 4226 1822 
Q 4072 1591 4072 1178 
Q 4072 772 4226 539 
Q 4381 306 4653 306 
Q 4919 306 5073 539 
Q 5228 772 5228 1178 
Q 5228 1588 5073 1820 
Q 4919 2053 4653 2053 
z
M 4653 2450 
Q 5147 2450 5437 2106 
Q 5728 1763 5728 1178 
Q 5728 594 5436 251 
Q 5144 -91 4653 -91 
Q 4153 -91 3862 251 
Q 3572 594 3572 1178 
Q 3572 1766 3864 2108 
Q 4156 2450 4653 2450 
z
M 1428 4353 
Q 1159 4353 1004 4120 
Q 850 3888 850 3481 
Q 850 3069 1003 2837 
Q 1156 2606 1428 2606 
Q 1700 2606 1854 2837 
Q 2009 3069 2009 3481 
Q 2009 3884 1853 4118 
Q 1697 4353 1428 4353 
z
M 4250 4750 
L 4750 4750 
L 1831 -91 
L 1331 -91 
L 4250 4750 
z
M 1428 4750 
Q 1922 4750 2215 4408 
Q 2509 4066 2509 3481 
Q 2509 2891 2217 2550 
Q 1925 2209 1428 2209 
Q 931 2209 642 2551 
Q 353 2894 353 3481 
Q 353 4063 643 4406 
Q 934 4750 1428 4750 
z
" transform="scale(0.015625)"/>
       <path id="DejaVuSans-54" d="M -19 4666 
L 3928 4666 
L 3928 4134 
L 2272 4134 
L 2272 0 
L 1638 0 
L 1638 4134 
L -19 4134 
L -19 4666 
z
" transform="scale(0.015625)"/>
       <path id="DejaVuSans-72" d="M 2631 2963 
Q 2534 3019 2420 3045 
Q 2306 3072 2169 3072 
Q 1681 3072 1420 2755 
Q 1159 2438 1159 1844 
L 1159 0 
L 581 0 
L 581 3500 
L 1159 3500 
L 1159 2956 
Q 1341 3275 1631 3429 
Q 1922 3584 2338 3584 
Q 2397 3584 2469 3576 
Q 2541 3569 2628 3553 
L 2631 2963 
z
" transform="scale(0.015625)"/>
       <path id="DejaVuSans-73" d="M 2834 3397 
L 2834 2853 
Q 2591 2978 2328 3040 
Q 2066 3103 1784 3103 
Q 1356 3103 1142 2972 
Q 928 2841 928 2578 
Q 928 2378 1081 2264 
Q 1234 2150 1697 2047 
L 1894 2003 
Q 2506 1872 2764 1633 
Q 3022 1394 3022 966 
Q 3022 478 2636 193 
Q 2250 -91 1575 -91 
Q 1294 -91 989 -36 
Q 684 19 347 128 
L 347 722 
Q 666 556 975 473 
Q 1284 391 1588 391 
Q 1994 391 2212 530 
Q 2431 669 2431 922 
Q 2431 1156 2273 1281 
Q 2116 1406 1581 1522 
L 1381 1569 
Q 847 1681 609 1914 
Q 372 2147 372 2553 
Q 372 3047 722 3315 
Q 1072 3584 1716 3584 
Q 2034 3584 2315 3537 
Q 2597 3491 2834 3397 
z
" transform="scale(0.015625)"/>
       <path id="DejaVuSans-69" d="M 603 3500 
L 1178 3500 
L 1178 0 
L 603 0 
L 603 3500 
z
M 603 4863 
L 1178 4863 
L 1178 4134 
L 603 4134 
L 603 4863 
z
" transform="scale(0.015625)"/>
       <path id="DejaVuSans-63" d="M 3122 3366 
L 3122 2828 
Q 2878 2963 2633 3030 
Q 2388 3097 2138 3097 
Q 1578 3097 1268 2742 
Q 959 2388 959 1747 
Q 959 1106 1268 751 
Q 1578 397 2138 397 
Q 2388 397 2633 464 
Q 2878 531 3122 666 
L 3122 134 
Q 2881 22 2623 -34 
Q 2366 -91 2075 -91 
Q 1284 -91 818 406 
Q 353 903 353 1747 
Q 353 2603 823 3093 
Q 1294 3584 2113 3584 
Q 2378 3584 2631 3529 
Q 2884 3475 3122 3366 
z
" transform="scale(0.015625)"/>
      </defs>
      <use xlink:href="#DejaVuSans-25"/>
      <use xlink:href="#DejaVuSans-20" x="95.019531"/>
      <use xlink:href="#DejaVuSans-54" x="126.806641"/>
      <use xlink:href="#DejaVuSans-72" x="173.140625"/>
      <use xlink:href="#DejaVuSans-61" x="214.253906"/>
      <use xlink:href="#DejaVuSans-6e" x="275.533203"/>
      <use xlink:href="#DejaVuSans-73" x="338.912109"/>
      <use xlink:href="#DejaVuSans-6d" x="391.011719"/>
      <use xlink:href="#DejaVuSans-69" x="488.423828"/>
      <use xlink:href="#DejaVuSans-74" x="516.207031"/>
      <use xlink:href="#DejaVuSans-74" x="555.416016"/>
      <use xlink:href="#DejaVuSans-61" x="594.625"/>
      <use xlink:href="#DejaVuSans-6e" x="655.904297"/>
      <use xlink:href="#DejaVuSans-63" x="719.283203"/>
      <use xlink:href="#DejaVuSans-65" x="774.263672"/>
     </g>
    </g>
   </g>
   <g id="line2d_39">
    <path d="M 388.8 79.492404 
L 388.1025 82.729276 
L 387.405 81.921262 
L 386.7075 82.738141 
L 386.01 81.877773 
L 385.3125 82.614191 
L 384.615 82.667269 
L 383.22 81.170647 
L 382.5225 81.239134 
L 381.825 80.991377 
L 381.1275 82.148106 
L 380.43 83.77889 
L 379.7325 81.008419 
L 379.035 84.152742 
L 378.3375 81.721569 
L 377.64 80.122579 
L 376.9425 81.46246 
L 376.245 82.323404 
L 375.5475 81.678277 
L 374.85 83.228515 
L 374.1525 83.165798 
L 373.455 82.2532 
L 372.7575 79.459487 
L 372.06 82.747008 
L 371.3625 81.102267 
L 370.665 82.534693 
L 369.9675 82.332187 
L 369.27 81.522782 
L 368.5725 82.517047 
L 367.1775 83.112112 
L 366.48 83.156846 
L 365.7825 82.490591 
L 363.69 82.561177 
L 362.9925 83.516373 
L 362.295 83.525399 
L 361.5975 83.264394 
L 360.9 82.835777 
L 360.2025 82.226903 
L 359.505 84.900849 
L 358.8075 83.760735 
L 358.11 83.824311 
L 357.4125 83.040632 
L 356.715 82.587676 
L 356.0175 82.472962 
L 354.6225 84.106979 
L 353.925 83.345229 
L 353.2275 83.112112 
L 351.8325 84.116128 
L 351.135 83.615763 
L 350.4375 83.979096 
L 349.74 83.760735 
L 349.0425 84.919484 
L 348.345 83.570558 
L 347.6475 83.815223 
L 346.95 83.78797 
L 346.2525 84.336274 
L 345.555 83.543457 
L 344.8575 83.806137 
L 344.16 83.282345 
L 342.765 83.979096 
L 342.0675 84.216891 
L 341.37 84.327079 
L 340.6725 83.997342 
L 339.975 84.024726 
L 339.2775 83.679129 
L 338.58 84.216891 
L 337.8825 84.143585 
L 337.185 83.174752 
L 336.4875 83.806137 
L 335.79 84.742775 
L 335.0925 84.844993 
L 334.395 84.705664 
L 333.6975 83.670071 
L 333 83.426214 
L 332.3025 84.650057 
L 330.9075 84.216891 
L 330.21 84.308695 
L 329.5125 84.65932 
L 328.815 84.807796 
L 327.42 83.651961 
L 326.7225 84.603771 
L 326.025 84.900849 
L 325.3275 84.966105 
L 324.63 84.58527 
L 323.9325 84.891535 
L 322.5375 84.650057 
L 321.1425 85.218721 
L 320.445 84.966105 
L 319.7475 84.511346 
L 319.05 84.58527 
L 318.3525 85.416213 
L 317.655 85.284453 
L 316.9575 84.947451 
L 315.5625 84.650057 
L 314.865 84.363871 
L 314.1675 84.966105 
L 313.47 85.303251 
L 312.7725 84.966105 
L 312.075 84.779918 
L 311.3775 84.947451 
L 310.68 85.265662 
L 309.9825 85.284453 
L 308.5875 84.863604 
L 307.89 84.900849 
L 306.495 85.510571 
L 305.7975 85.62407 
L 305.1 85.350283 
L 304.4025 85.246879 
L 303.705 85.416213 
L 303.0075 85.832918 
L 302.31 85.909111 
L 301.6125 85.576743 
L 300.915 85.406788 
L 299.52 86.167246 
L 298.8225 86.27285 
L 297.4275 85.68093 
L 296.73 86.224816 
L 296.0325 86.523477 
L 295.335 86.25363 
L 294.6375 86.359443 
L 293.2425 86.02365 
L 291.15 86.138489 
L 290.4525 86.707539 
L 289.755 86.765825 
L 289.0575 86.571839 
L 288.36 86.872886 
L 286.965 86.765825 
L 286.2675 86.99975 
L 284.175 87.078003 
L 283.4775 86.794998 
L 282.78 86.863142 
L 282.0825 87.234931 
L 280.6875 87.481263 
L 279.2925 87.264418 
L 277.8975 86.99975 
L 276.5025 87.45163 
L 275.1075 87.107384 
L 273.7125 87.758811 
L 273.015 87.838435 
L 272.3175 87.768756 
L 271.62 87.898248 
L 270.225 87.609906 
L 269.5275 88.128292 
L 268.83 88.339393 
L 268.1325 88.10824 
L 267.435 88.088197 
L 266.7375 87.908225 
L 266.04 87.928185 
L 265.3425 88.128292 
L 264.645 88.541393 
L 263.9475 88.703667 
L 263.25 88.68335 
L 261.855 88.258853 
L 261.1575 88.409987 
L 259.7625 88.907359 
L 258.3675 88.703667 
L 257.67 88.409987 
L 256.275 88.917569 
L 253.485 88.632598 
L 252.7875 89.05051 
L 252.09 88.927781 
L 251.3925 89.070999 
L 250.695 89.04027 
L 249.3 89.245538 
L 248.6025 89.132521 
L 247.2075 89.41045 
L 246.51 89.173585 
L 245.8125 89.555258 
L 244.4175 89.721343 
L 243.0225 89.44144 
L 242.325 89.721343 
L 241.6275 90.212893 
L 240.2325 89.794203 
L 239.535 89.700548 
L 238.8375 89.846321 
L 238.14 90.118338 
L 237.4425 89.762963 
L 235.35 90.413183 
L 233.955 90.381497 
L 232.56 90.349835 
L 231.8625 90.550753 
L 231.165 90.508378 
L 230.4675 90.276044 
L 229.77 90.476623 
L 229.0725 90.848536 
L 228.375 90.869884 
L 227.6775 90.763248 
L 226.98 90.869884 
L 226.2825 90.752599 
L 225.585 91.030326 
L 224.8875 91.094668 
L 224.19 90.901925 
L 223.4925 91.212874 
L 222.795 90.869884 
L 221.4 91.406994 
L 220.7025 91.765133 
L 219.3075 91.288263 
L 218.61 91.277485 
L 216.5175 91.852398 
L 215.1225 91.819653 
L 213.7275 92.346531 
L 213.03 92.280323 
L 212.3325 92.01649 
L 210.9375 92.258276 
L 210.24 92.823973 
L 208.1475 92.590152 
L 207.45 92.723611 
L 206.7525 92.991755 
L 206.055 93.059049 
L 205.3575 92.94695 
L 204.66 92.690208 
L 203.9625 93.014175 
L 199.08 93.692162 
L 197.685 93.544371 
L 196.9875 93.977787 
L 196.29 94.184597 
L 195.5925 94.069582 
L 194.1975 94.046615 
L 192.8025 94.705939 
L 192.105 94.415538 
L 191.4075 94.601172 
L 190.71 94.496656 
L 190.0125 94.682635 
L 189.315 95.068732 
L 188.6175 94.916227 
L 187.2225 95.021751 
L 186.525 95.12753 
L 185.13 95.588885 
L 184.4325 95.755693 
L 183.0375 95.505719 
L 180.945 96.067176 
L 180.2475 96.223753 
L 179.55 95.935124 
L 178.8525 96.880214 
L 177.4575 97.088932 
L 176.76 96.929235 
L 176.0625 97.583997 
L 175.365 97.015153 
L 173.97 97.708643 
L 173.2725 98.286632 
L 172.575 97.808616 
L 171.8775 98.198183 
L 171.18 98.769928 
L 169.785 98.489475 
L 169.0875 98.821113 
L 167.6925 99.949461 
L 166.995 99.844482 
L 166.2975 100.054693 
L 165.6 100.107404 
L 164.9025 100.279154 
L 164.205 100.905782 
L 163.5075 101.040273 
L 162.1125 101.541513 
L 161.415 101.324056 
L 160.7175 101.787451 
L 160.02 101.55514 
L 159.3225 102.228117 
L 158.625 102.450125 
L 157.9275 103.122987 
L 157.23 102.701237 
L 156.5325 103.080629 
L 155.835 103.863789 
L 155.1375 103.950078 
L 153.7425 104.719785 
L 153.045 104.999047 
L 152.3475 105.577915 
L 151.65 105.309793 
L 150.9525 105.877767 
L 150.255 106.743792 
L 149.5575 106.759139 
L 148.86 107.439811 
L 148.1625 107.627301 
L 147.465 107.973133 
L 146.7675 108.689144 
L 145.3725 109.564114 
L 144.675 109.515043 
L 142.5825 111.300182 
L 141.885 111.266139 
L 141.1875 112.159998 
L 138.3975 114.587945 
L 137.7 115.496813 
L 137.0025 115.722301 
L 136.305 115.703466 
L 134.91 117.178017 
L 134.2125 118.262541 
L 133.515 118.845389 
L 132.8175 119.190703 
L 132.12 120.034903 
L 131.4225 121.343255 
L 130.0275 122.121289 
L 128.6325 124.106305 
L 127.935 124.151963 
L 127.2375 125.05195 
L 126.54 126.305455 
L 125.145 127.769244 
L 124.4475 128.243174 
L 123.75 129.541277 
L 123.0525 130.349557 
L 122.355 130.852436 
L 121.6575 132.149219 
L 120.96 132.176648 
L 120.2625 134.255652 
L 119.565 134.980945 
L 118.8675 135.540322 
L 118.17 137.324355 
L 113.2875 143.548941 
L 112.59 144.085919 
L 111.8925 146.340159 
L 111.195 148.199408 
L 110.4975 148.397701 
L 109.8 149.606706 
L 109.1025 151.357469 
L 108.405 152.043292 
L 107.7075 153.0042 
L 106.3125 156.020397 
L 105.615 156.784005 
L 104.9175 157.806899 
L 104.22 160.710236 
L 103.5225 162.428768 
L 102.825 163.81996 
L 101.43 165.491175 
L 100.7325 167.782335 
L 99.3375 171.663449 
L 97.9425 174.600742 
L 97.245 175.699458 
L 95.1525 186.118831 
L 94.455 194.041378 
L 93.7575 200.078928 
L 93.06 190.57317 
L 92.3625 188.141254 
L 91.665 205.152645 
L 90.9675 208.317631 
L 90.27 203.581855 
L 89.5725 204.14655 
L 88.875 210.562391 
L 88.1775 219.472537 
L 87.48 222.391167 
L 86.7825 217.116997 
L 86.085 217.500888 
L 85.3875 231.197124 
L 84.69 229.389536 
L 83.9925 226.691789 
L 83.295 234.480905 
L 82.5975 238.031221 
L 81.9 229.898416 
L 81.2025 229.898416 
L 80.505 228.886505 
L 79.8075 239.920574 
L 79.11 257.988012 
L 78.4125 250.009033 
L 77.715 239.599963 
L 77.0175 237.419138 
L 76.32 250.827061 
L 75.6225 257.988012 
L 74.925 257.988012 
L 74.2275 267.753493 
L 73.53 290.311948 
L 72.8325 306.066828 
L 72.135 256.084963 
L 71.4375 255.621856 
L 70.74 267.753493 
L 70.0425 261.007363 
L 69.345 307.550469 
L 68.6475 292.396305 
L 67.95 285.497954 
L 67.2525 293.476933 
L 66.555 259.977592 
L 65.8575 253.377096 
L 65.16 263.693066 
L 64.4625 291.341718 
L 63.765 354.145644 
L 63.0675 306.066828 
L 62.37 346.166665 
L 61.6725 258.971497 
L 60.2775 290.311948 
L 59.58 249.605682 
L 58.8825 290.311948 
L 58.185 270.25493 
L 57.4875 258.971497 
L 56.79 358.75656 
L 56.789486 433 
M 55.39614 433 
L 55.395 268.365577 
L 54.6975 255.621856 
L 54 264.815261 
L 53.3025 291.341718 
L 53.301519 433 
M 50.512938 433 
L 50.5125 369.75489 
L 50.512062 433 
M 48.202987 433 
L 47.7225 384.48 
L 47.722164 433 
M 42.142558 433 
L 42.1425 424.579837 
L 42.142442 433 
M 36.562938 433 
L 36.5625 369.75489 
L 36.562062 433 
M 34.275069 433 
L 33.7725 376.501021 
L 33.772108 433 
M 30.982681 433 
L 30.9825 406.835376 
L 30.982319 433 
M 24.705181 433 
L 24.705 406.835376 
L 24.704819 433 
M 12.847979 433 
L 12.8475 363.911126 
L 12.847021 433 
" clip-path="url(#pe8df4419a2)" style="fill: none; stroke: #000000; stroke-opacity: 0.8; stroke-linecap: square"/>
   </g>
   <g id="line2d_40">
    <path d="M 388.8 86.523477 
L 388.1025 86.186427 
L 387.405 87.679332 
L 386.7075 87.599997 
L 386.01 86.513811 
L 385.3125 86.552488 
L 384.615 86.863142 
L 383.9175 86.455859 
L 383.22 85.012776 
L 382.5225 86.320936 
L 381.825 85.861475 
L 381.1275 88.248796 
L 380.43 86.397984 
L 379.7325 86.892379 
L 379.035 86.882631 
L 378.3375 85.378527 
L 377.64 86.649331 
L 376.9425 86.378709 
L 376.245 86.292078 
L 375.5475 87.699188 
L 374.85 86.892379 
L 374.1525 86.726959 
L 373.455 85.36911 
L 372.06 86.340185 
L 371.3625 85.794872 
L 370.665 87.038859 
L 369.9675 86.756106 
L 369.27 87.107384 
L 367.875 87.274251 
L 367.1775 86.397984 
L 366.48 87.284087 
L 365.7825 87.382564 
L 365.085 86.921636 
L 364.3875 86.824189 
L 363.69 87.078003 
L 362.9925 86.349813 
L 362.295 87.068214 
L 360.9 86.872886 
L 360.2025 87.758811 
L 359.505 87.649564 
L 358.8075 88.178462 
L 358.11 87.362851 
L 357.4125 87.848398 
L 356.715 87.254587 
L 356.0175 88.128292 
L 355.32 87.510916 
L 354.6225 87.639646 
L 353.925 88.178462 
L 353.2275 87.510916 
L 352.53 87.176017 
L 351.8325 88.339393 
L 351.135 88.028124 
L 350.4375 88.01812 
L 349.74 88.592039 
L 349.0425 88.480695 
L 348.345 88.632598 
L 347.6475 88.409987 
L 346.95 87.998118 
L 346.2525 88.078179 
L 345.555 87.868331 
L 344.16 88.480695 
L 343.4625 88.389806 
L 342.765 88.01812 
L 342.0675 88.521151 
L 341.37 88.764675 
L 340.6725 88.430178 
L 339.975 88.876745 
L 339.2775 88.917569 
L 338.58 88.450378 
L 337.8825 88.138321 
L 337.185 88.632598 
L 336.4875 88.652892 
L 335.79 89.05051 
L 333.6975 88.490806 
L 333 88.866545 
L 332.3025 88.561644 
L 330.9075 89.451775 
L 329.5125 89.825467 
L 328.815 89.122262 
L 328.1175 89.070999 
L 327.42 88.805395 
L 326.7225 89.462112 
L 326.025 89.173585 
L 325.3275 89.482794 
L 324.63 89.617466 
L 323.9325 89.286708 
L 323.235 89.276412 
L 322.5375 89.867186 
L 321.84 90.086865 
L 320.445 89.721343 
L 319.05 90.202377 
L 318.3525 90.149834 
L 317.655 90.212893 
L 316.26 89.742148 
L 315.5625 89.783787 
L 314.865 90.118338 
L 313.47 90.233933 
L 312.7725 90.349835 
L 311.3775 90.118338 
L 310.68 90.055415 
L 309.9825 90.181352 
L 309.285 90.118338 
L 307.89 90.540156 
L 307.1925 90.160337 
L 306.495 90.254983 
L 305.7975 90.848536 
L 305.1 90.720667 
L 304.4025 90.710028 
L 303.705 90.923299 
L 301.6125 90.816534 
L 300.2175 90.667498 
L 299.52 91.169853 
L 298.8225 91.212874 
L 298.125 91.062485 
L 297.4275 90.795212 
L 296.73 91.26671 
L 294.6375 91.656296 
L 293.2425 91.612837 
L 292.545 91.352986 
L 291.8475 91.374581 
L 290.4525 91.928897 
L 289.755 91.743344 
L 289.0575 91.797837 
L 288.36 92.038415 
L 286.2675 92.159202 
L 284.8725 91.939837 
L 284.175 92.357575 
L 283.4775 92.556851 
L 282.78 92.390725 
L 282.0825 92.490325 
L 281.385 92.723611 
L 279.99 92.523576 
L 278.595 92.891008 
L 276.5025 92.913376 
L 273.015 93.329262 
L 272.3175 93.261552 
L 271.62 93.63526 
L 270.225 93.61252 
L 269.5275 93.771949 
L 268.83 93.589792 
L 268.1325 93.589792 
L 267.435 94.092561 
L 266.7375 94.311464 
L 265.3425 93.863313 
L 264.645 94.253751 
L 263.9475 94.496656 
L 262.5525 94.636066 
L 261.855 94.601172 
L 261.1575 94.369252 
L 260.46 94.670989 
L 259.7625 95.104002 
L 259.065 94.998279 
L 258.3675 95.162847 
L 257.67 95.056982 
L 256.9725 94.670989 
L 256.275 94.904518 
L 255.5775 95.42271 
L 254.88 95.351685 
L 254.1825 95.139299 
L 253.485 95.056982 
L 252.7875 95.304399 
L 252.09 95.292586 
L 250.695 96.223753 
L 249.9975 96.031123 
L 249.3 95.696046 
L 248.6025 95.707969 
L 247.905 96.139373 
L 245.8125 96.127332 
L 245.115 96.031123 
L 244.4175 96.429357 
L 243.72 96.405118 
L 241.6275 96.831248 
L 240.93 96.855724 
L 238.8375 97.199834 
L 237.4425 97.261568 
L 236.745 97.571552 
L 236.0475 97.472118 
L 235.35 97.55911 
L 233.955 98.00925 
L 231.8625 98.198183 
L 231.165 98.135115 
L 230.4675 98.400616 
L 229.77 98.387936 
L 227.6775 98.949338 
L 226.98 99.388135 
L 226.2825 99.155283 
L 225.585 99.090821 
L 224.8875 99.440049 
L 223.4925 99.910064 
L 222.795 99.739754 
L 222.0975 99.700545 
L 221.4 99.949461 
L 220.7025 100.002045 
L 220.005 100.279154 
L 219.3075 100.239459 
L 218.61 100.425009 
L 217.9125 100.371915 
L 217.215 100.678092 
L 216.5175 100.544708 
L 215.82 100.664736 
L 215.1225 100.959529 
L 214.425 101.040273 
L 213.7275 100.999882 
L 213.03 101.121166 
L 212.3325 101.514272 
L 210.9375 101.897202 
L 209.5425 101.623339 
L 208.845 102.422312 
L 208.1475 102.603411 
L 207.45 102.477955 
L 206.7525 102.575501 
L 204.66 103.378002 
L 203.9625 103.563108 
L 203.265 103.449104 
L 202.5675 103.921296 
L 201.1725 104.355028 
L 199.08 104.661219 
L 197.685 105.280103 
L 196.29 105.458547 
L 195.5925 105.742579 
L 194.895 106.194838 
L 194.1975 106.392278 
L 193.5 106.088892 
L 192.105 107.067224 
L 191.4075 107.768448 
L 190.0125 107.564715 
L 188.6175 107.925813 
L 187.92 108.737297 
L 187.2225 109.011171 
L 185.8275 109.011171 
L 185.13 109.43338 
L 184.4325 109.580483 
L 183.735 110.157299 
L 183.0375 110.356828 
L 182.34 110.708207 
L 181.6425 110.507074 
L 179.55 111.831275 
L 178.8525 112.021288 
L 178.155 111.883015 
L 177.4575 112.159998 
L 176.76 112.701694 
L 176.0625 112.983925 
L 175.365 113.571838 
L 174.6675 113.679585 
L 173.97 113.357136 
L 173.2725 114.753471 
L 172.575 115.160746 
L 171.8775 115.328457 
L 171.18 115.948956 
L 170.4825 115.571847 
L 169.785 116.693798 
L 169.0875 117.353656 
L 168.39 117.726779 
L 167.6925 117.865052 
L 166.995 118.623394 
L 164.9025 121.450492 
L 164.205 121.773787 
L 162.81 123.091395 
L 162.1125 124.106305 
L 161.415 124.518952 
L 160.7175 124.703608 
L 160.02 125.733378 
L 159.3225 127.080045 
L 158.625 127.843735 
L 157.23 128.469471 
L 156.5325 129.309384 
L 155.1375 132.286537 
L 154.44 132.673336 
L 153.7425 133.598834 
L 153.045 133.712357 
L 151.65 136.529194 
L 150.9525 137.44798 
L 150.255 138.799483 
L 149.5575 138.863371 
L 148.1625 141.126642 
L 147.465 143.265223 
L 146.7675 143.906193 
L 146.07 145.143142 
L 145.3725 145.625488 
L 144.675 146.759314 
L 143.9775 149.119089 
L 143.28 150.766065 
L 142.5825 151.187679 
L 141.885 151.870826 
L 141.1875 154.669429 
L 140.49 155.737444 
L 139.095 159.056647 
L 138.3975 159.361973 
L 137.7 162.374029 
L 134.91 167.782335 
L 133.515 173.2475 
L 131.4225 178.139852 
L 130.725 181.1424 
L 128.6325 187.070243 
L 127.935 188.437955 
L 127.2375 190.15835 
L 126.54 195.884313 
L 125.8425 195.649657 
L 124.4475 199.308881 
L 123.75 202.33732 
L 123.0525 207.851233 
L 122.355 210.892681 
L 121.6575 210.892681 
L 120.96 210.071583 
L 119.565 221.537223 
L 118.8675 223.482576 
L 118.17 223.042741 
L 117.4725 223.704162 
L 116.0775 235.632636 
L 115.38 238.651986 
L 114.6825 238.340503 
L 113.985 238.651986 
L 112.59 250.009033 
L 111.8925 251.660671 
L 111.195 250.827061 
L 110.4975 253.816931 
L 109.8 257.988012 
L 109.1025 264.815261 
L 108.405 273.597258 
L 107.01 263.693066 
L 106.3125 274.297484 
L 105.615 281.995027 
L 104.9175 292.396305 
L 103.5225 278.751823 
L 102.825 292.396305 
L 102.1275 328.422205 
L 101.43 328.422205 
L 100.7325 303.242414 
L 100.035 303.242414 
L 99.3375 314.045807 
L 98.64 376.501021 
L 98.137431 433 
M 97.790814 433 
L 97.245 354.145644 
L 96.5475 333.57677 
L 95.85 394.245481 
L 95.849731 433 
M 75.623102 433 
L 75.6225 346.166665 
L 74.925 315.83231 
L 74.924188 433 
M 71.955511 433 
L 71.4375 369.75489 
L 70.74 336.401184 
L 70.739331 433 
M 69.345756 433 
L 69.345 323.811289 
L 68.6475 284.595587 
L 67.95 406.835376 
L 67.949819 433 
M 65.857769 433 
L 65.8575 394.245481 
L 65.857231 433 
M 62.370602 433 
L 62.37 346.166665 
L 61.6725 303.242414 
L 60.975 288.322368 
L 60.2775 277.977233 
L 59.58 290.311948 
L 59.579012 433 
M 58.185575 433 
L 58.185 349.974564 
L 57.4875 258.971497 
L 56.79 295.721693 
L 56.789049 433 
M 55.395858 433 
L 55.395 309.086179 
L 55.394142 433 
M 54.000847 433 
L 54 310.677744 
L 53.3025 296.888782 
L 52.605 424.579837 
L 51.9075 394.245481 
L 51.907231 433 
M 49.117681 433 
L 49.1175 406.835376 
L 49.117319 433 
M 45.630181 433 
L 45.63 406.835376 
L 45.629819 433 
M 42.840181 433 
L 42.84 406.835376 
L 42.839819 433 
M 40.050058 433 
L 40.05 424.579837 
L 40.049942 433 
M 37.260336 433 
L 37.26 384.48 
L 36.5625 406.835376 
L 36.562319 433 
M 34.470514 433 
L 34.47 358.75656 
L 33.772442 433 
M 31.680269 433 
L 31.68 394.245481 
L 31.679731 433 
M 28.890181 433 
L 28.89 406.835376 
L 28.1925 406.835376 
L 28.192319 433 
M 26.100269 433 
L 26.1 394.245481 
L 25.4025 358.75656 
L 25.401986 433 
M 22.612769 433 
L 22.6125 394.245481 
L 22.166945 433 
M 19.822836 433 
L 19.8225 384.48 
L 19.342013 433 
M 16.335479 433 
L 16.335 363.911126 
L 15.6375 358.75656 
L 15.636986 433 
M 13.399343 433 
L 12.8475 349.974564 
L 12.15 363.911126 
L 12.149521 433 
M 9.360546 433 
L 9.36 354.145644 
L 9.359454 433 
" clip-path="url(#pe8df4419a2)" style="fill: none; stroke: #69422a; stroke-opacity: 0.8; stroke-linecap: square"/>
   </g>
   <g id="line2d_41">
    <path d="M 388.8 90.837866 
L 388.1025 90.307653 
L 387.405 91.678042 
L 386.7075 89.877622 
L 386.01 91.062485 
L 385.3125 90.476623 
L 384.615 90.582562 
L 383.9175 91.396187 
L 383.22 91.255938 
L 382.5225 91.255938 
L 381.825 90.678126 
L 381.1275 91.094668 
L 380.43 91.126874 
L 379.7325 92.479247 
L 379.035 91.939837 
L 378.3375 90.827198 
L 377.64 91.819653 
L 376.9425 92.093277 
L 376.245 92.712474 
L 375.5475 90.561354 
L 374.85 91.634562 
L 374.1525 90.614394 
L 373.455 92.170199 
L 372.7575 92.567949 
L 372.06 91.094668 
L 371.3625 92.40178 
L 370.665 91.558574 
L 369.9675 92.302381 
L 369.27 92.082299 
L 368.5725 92.192202 
L 367.875 92.690208 
L 367.1775 93.363157 
L 366.48 92.4571 
L 365.7825 92.357575 
L 365.085 92.991755 
L 364.3875 93.21647 
L 363.69 92.991755 
L 362.9925 93.817608 
L 362.295 92.346531 
L 361.5975 92.601258 
L 360.9 92.601258 
L 360.2025 93.931961 
L 359.505 94.21916 
L 358.8075 93.397077 
L 358.11 93.498997 
L 356.0175 94.265288 
L 355.32 93.658012 
L 354.6225 94.717595 
L 353.925 94.08107 
L 353.2275 94.51986 
L 352.53 93.931961 
L 351.135 94.612801 
L 350.4375 94.461873 
L 349.74 94.577925 
L 349.0425 95.021751 
L 348.345 94.531467 
L 347.6475 94.461873 
L 346.95 95.045235 
L 346.2525 94.810956 
L 344.8575 94.184597 
L 344.16 95.245364 
L 343.4625 95.339859 
L 342.765 94.834328 
L 342.0675 95.104002 
L 341.37 95.20998 
L 340.6725 94.927939 
L 339.975 95.911158 
L 339.2775 96.115294 
L 338.58 95.827377 
L 337.8825 95.731824 
L 337.185 96.199628 
L 336.4875 95.696046 
L 335.79 96.019111 
L 335.0925 96.007103 
L 334.395 96.611577 
L 333.6975 96.855724 
L 333 97.236864 
L 332.3025 96.538598 
L 331.605 96.380893 
L 330.21 96.672486 
L 329.5125 96.417236 
L 328.815 96.46574 
L 328.1175 97.571552 
L 327.42 97.783601 
L 326.7225 97.708643 
L 326.025 97.509379 
L 325.3275 97.633813 
L 324.63 98.337255 
L 323.9325 98.324594 
L 323.235 97.98412 
L 322.5375 98.084726 
L 321.84 97.996683 
L 321.1425 98.223436 
L 320.445 98.757141 
L 319.7475 98.464068 
L 319.05 98.324594 
L 318.3525 98.578515 
L 317.655 98.236068 
L 316.9575 98.795513 
L 316.26 98.859541 
L 315.5625 98.808311 
L 314.865 98.59125 
L 314.1675 98.936499 
L 313.47 99.55708 
L 312.7725 99.194006 
L 311.3775 99.000733 
L 310.68 99.975745 
L 309.9825 99.89694 
L 309.285 99.687484 
L 308.5875 99.635276 
L 307.89 100.09422 
L 307.1925 100.002045 
L 306.495 100.332136 
L 305.7975 100.905782 
L 305.1 101.107673 
L 304.4025 100.718187 
L 300.2175 101.324056 
L 298.8225 101.324056 
L 297.4275 101.732679 
L 296.0325 102.076137 
L 295.335 101.93843 
L 294.6375 102.021002 
L 293.94 102.617373 
L 292.545 102.228117 
L 291.8475 102.785263 
L 291.15 103.577379 
L 290.4525 103.591655 
L 289.755 103.221983 
L 289.0575 103.506068 
L 288.36 103.520321 
L 287.6625 103.165386 
L 286.2675 103.978879 
L 284.8725 104.108719 
L 284.175 103.964476 
L 283.4775 104.398639 
L 282.78 104.64659 
L 281.385 104.822464 
L 280.6875 104.954835 
L 279.2925 104.940107 
L 278.595 105.47345 
L 277.8975 105.772585 
L 277.2 105.533114 
L 276.5025 105.667655 
L 275.805 106.013373 
L 275.1075 106.164542 
L 274.41 106.088892 
L 273.7125 105.877767 
L 273.015 106.453208 
L 272.3175 106.72845 
L 271.62 106.866722 
L 270.9225 107.253121 
L 270.225 106.943729 
L 269.5275 106.835957 
L 268.1325 107.315262 
L 267.435 107.564715 
L 266.04 107.768448 
L 265.3425 108.385398 
L 263.25 108.785504 
L 262.5525 108.785504 
L 261.855 108.930442 
L 261.1575 109.335585 
L 260.46 109.368159 
L 259.065 109.61324 
L 258.3675 109.466027 
L 257.67 109.596858 
L 256.275 110.758635 
L 255.5775 110.775458 
L 254.88 110.55727 
L 252.7875 111.334253 
L 252.09 110.893395 
L 251.3925 111.232121 
L 250.695 111.796816 
L 249.3 112.334007 
L 248.6025 112.177368 
L 247.2075 112.807318 
L 246.51 113.232379 
L 245.8125 113.161248 
L 245.115 113.285803 
L 244.4175 113.589777 
L 243.72 113.751564 
L 243.0225 114.113245 
L 242.325 114.313452 
L 240.93 114.514578 
L 240.2325 114.938126 
L 239.535 114.993675 
L 238.8375 115.309791 
L 238.14 115.291132 
L 236.745 116.081715 
L 236.0475 115.759995 
L 235.35 115.986846 
L 233.2575 117.588942 
L 232.56 117.608607 
L 231.8625 117.041895 
L 231.165 117.392782 
L 229.77 118.502779 
L 229.0725 118.825161 
L 227.6775 118.583152 
L 226.98 119.395109 
L 226.2825 119.931076 
L 225.585 119.972577 
L 224.8875 119.662272 
L 224.19 119.641663 
L 223.4925 120.452694 
L 222.795 120.285099 
L 222.0975 120.726412 
L 220.7025 121.795425 
L 220.005 121.990652 
L 219.3075 121.687341 
L 218.61 121.795425 
L 217.9125 122.515555 
L 216.5175 123.314905 
L 215.82 123.562092 
L 215.1225 123.652326 
L 213.7275 124.335073 
L 213.03 124.495925 
L 212.3325 124.495925 
L 210.9375 125.356107 
L 210.24 126.161733 
L 208.1475 126.233535 
L 206.7525 127.202323 
L 206.055 127.81889 
L 203.9625 128.193044 
L 203.265 128.951086 
L 202.5675 129.438061 
L 201.1725 129.489639 
L 200.475 130.087187 
L 199.7775 130.323249 
L 199.08 130.852436 
L 198.3825 131.012448 
L 196.9875 131.821403 
L 196.29 132.507146 
L 194.1975 132.562472 
L 192.8025 134.169419 
L 192.105 134.573301 
L 191.4075 134.284434 
L 190.71 134.573301 
L 190.0125 135.068794 
L 189.315 136.257278 
L 188.6175 136.408134 
L 187.92 136.347729 
L 187.2225 136.438367 
L 186.525 137.016811 
L 185.8275 138.134231 
L 185.13 138.831415 
L 184.4325 139.055596 
L 183.735 138.767574 
L 183.0375 139.216431 
L 181.6425 141.805155 
L 180.945 142.148398 
L 180.2475 142.010778 
L 179.55 142.286452 
L 178.155 143.655811 
L 177.4575 145.365103 
L 176.76 145.887432 
L 175.365 146.378099 
L 173.97 149.240485 
L 173.2725 149.402872 
L 171.8775 150.556771 
L 170.4825 153.492684 
L 169.785 154.213082 
L 169.0875 155.54982 
L 168.39 156.115122 
L 167.6925 157.268117 
L 166.995 159.056647 
L 166.2975 160.500088 
L 165.6 161.346803 
L 164.9025 161.614797 
L 164.205 162.374029 
L 162.81 165.491175 
L 162.1125 166.924205 
L 161.415 167.167673 
L 160.02 168.910962 
L 159.3225 172.276485 
L 157.23 174.81829 
L 156.5325 177.131974 
L 155.1375 180.891127 
L 154.44 181.226479 
L 153.7425 183.294417 
L 152.3475 187.944565 
L 151.65 188.338831 
L 150.9525 188.537304 
L 150.255 193.481022 
L 149.5575 194.83813 
L 148.86 195.068463 
L 148.1625 196.002114 
L 147.465 199.436285 
L 146.7675 204.431653 
L 146.07 205.591012 
L 145.3725 205.885715 
L 144.675 208.947328 
L 143.9775 211.392837 
L 143.28 214.700579 
L 142.5825 214.881794 
L 141.885 216.17175 
L 141.1875 221.326316 
L 140.49 228.38919 
L 139.7925 227.897463 
L 139.095 228.38919 
L 138.3975 231.995259 
L 137.7 239.599963 
L 137.0025 239.599963 
L 136.305 240.243552 
L 135.6075 245.398117 
L 134.91 254.261232 
L 134.2125 253.816931 
L 133.515 252.083508 
L 132.8175 258.476992 
L 132.12 270.25493 
L 131.4225 270.903286 
L 130.725 263.693066 
L 130.0275 272.229546 
L 129.33 285.497954 
L 128.6325 281.161417 
L 127.935 277.977233 
L 127.2375 298.087849 
L 126.54 323.811289 
L 125.8425 303.242414 
L 125.145 299.320697 
L 124.4475 323.811289 
L 123.75 339.420534 
L 123.0525 317.694856 
L 122.355 309.086179 
L 121.6575 354.145644 
L 120.96 384.48 
L 120.2625 315.83231 
L 119.565 323.811289 
L 118.8675 346.166665 
L 118.866898 433 
M 117.472938 433 
L 117.4725 369.75489 
L 116.774942 433 
M 114.503011 433 
L 113.985 369.75489 
L 113.984562 433 
M 109.102836 433 
L 109.1025 384.48 
L 109.102164 433 
M 103.018611 433 
L 102.825 424.579837 
L 102.824942 433 
M 95.152769 433 
L 95.1525 394.245481 
L 95.152231 433 
M 74.925392 433 
L 74.925 376.501021 
L 74.924608 433 
M 72.135707 433 
L 72.135 330.923641 
L 71.4375 304.63184 
L 71.436611 433 
M 69.345546 433 
L 69.345 354.145644 
L 68.6475 363.911126 
L 68.647021 433 
M 65.160724 433 
L 65.16 328.422205 
L 65.159276 433 
M 61.673014 433 
L 61.6725 358.75656 
L 60.974942 433 
M 59.580336 433 
L 59.58 384.48 
L 59.579664 433 
M 56.790479 433 
L 56.79 363.911126 
L 56.0925 304.63184 
L 55.395 281.161417 
L 55.393949 433 
M 53.303956 433 
L 53.3025 222.607282 
L 52.605 181.31072 
L 51.9075 181.990551 
L 51.21 182.855465 
L 50.5125 182.855465 
L 49.815 182.076277 
L 49.1175 180.891127 
L 47.7225 183.206274 
L 47.025 182.942904 
L 45.63 180.72441 
L 44.9325 181.649315 
L 44.235 183.471239 
L 43.5375 183.382739 
L 42.84 180.974724 
L 42.1425 181.058482 
L 41.445 182.855465 
L 40.7475 183.559918 
L 40.05 182.507445 
L 39.3525 181.1424 
L 38.655 181.904992 
L 37.9575 183.471239 
L 37.26 183.471239 
L 36.5625 182.594191 
L 35.865 181.1424 
L 35.1675 181.47969 
L 34.47 182.162171 
L 33.7725 183.648777 
L 33.075 183.471239 
L 32.3775 180.974724 
L 31.68 180.392868 
L 30.9825 182.681109 
L 30.285 184.275897 
L 29.5875 182.594191 
L 28.89 181.395123 
L 28.1925 181.058482 
L 26.7975 183.382739 
L 26.1 182.420871 
L 25.4025 181.058482 
L 24.705 182.162171 
L 24.0075 184.366223 
L 23.31 183.559918 
L 22.6125 181.649315 
L 21.915 181.649315 
L 20.52 183.294417 
L 19.125 180.72441 
L 18.4275 181.395123 
L 17.73 183.648777 
L 17.0325 183.648777 
L 15.6375 181.564421 
L 14.2425 184.275897 
L 13.545 182.942904 
L 12.8475 180.891127 
L 12.15 180.807689 
L 11.4525 182.681109 
L 10.755 183.294417 
L 10.0575 182.594191 
L 9.36 182.248235 
L 8.6625 182.855465 
L 7.965 184.729406 
L 7.2675 184.638327 
L 6.57 183.206274 
L 5.8725 182.507445 
L 5.175 182.7682 
L 4.4775 185.003784 
L 3.78 185.095627 
L 3.0825 183.916443 
L 2.385 182.507445 
L 1.6875 183.030518 
L 0.99 185.931006 
L 0.2925 185.743983 
L -0.405 183.206274 
L -1 182.907017 
L -1 182.907017 
" clip-path="url(#pe8df4419a2)" style="fill: none; stroke: #d28555; stroke-opacity: 0.8; stroke-linecap: square"/>
   </g>
   <g id="line2d_42">
    <path d="M 388.8 180.641289 
L 388.1025 181.47969 
L 387.405 177.516877 
L 386.7075 183.648777 
L 386.01 179.57484 
L 385.3125 181.734375 
L 384.615 182.248235 
L 383.9175 184.820674 
L 382.5225 179.655959 
L 381.825 180.145851 
L 381.1275 184.912134 
L 380.43 180.558325 
L 379.7325 182.420871 
L 379.035 179.091264 
L 378.3375 181.395123 
L 377.64 180.558325 
L 376.9425 182.681109 
L 376.245 186.878299 
L 375.5475 180.06382 
L 374.1525 185.372319 
L 373.455 185.372319 
L 372.7575 180.475519 
L 372.06 183.030518 
L 371.3625 182.681109 
L 370.665 183.382739 
L 369.9675 185.187664 
L 369.27 184.729406 
L 368.5725 183.118308 
L 367.875 185.837395 
L 367.1775 186.402089 
L 366.48 183.294417 
L 365.7825 180.974724 
L 365.085 184.820674 
L 364.3875 182.076277 
L 363.69 184.095801 
L 362.9925 182.594191 
L 362.295 185.650771 
L 361.5975 187.456676 
L 360.9 182.334468 
L 360.2025 187.359747 
L 359.505 183.648777 
L 358.8075 185.46494 
L 358.11 188.042799 
L 357.4125 185.46494 
L 356.715 187.166532 
L 356.0175 186.496918 
L 355.32 184.185756 
L 354.6225 186.974166 
L 353.925 189.239135 
L 353.2275 187.651179 
L 352.53 188.437955 
L 351.8325 184.185756 
L 351.135 189.952405 
L 349.74 191.521147 
L 349.0425 190.261687 
L 348.345 187.55382 
L 347.6475 186.974166 
L 346.95 188.437955 
L 346.2525 190.57317 
L 344.8575 188.437955 
L 344.16 188.437955 
L 343.4625 187.55382 
L 342.0675 191.627757 
L 341.37 191.949153 
L 340.6725 192.599114 
L 339.975 189.849795 
L 339.2775 189.441743 
L 338.58 189.849795 
L 337.8825 191.734627 
L 337.185 192.599114 
L 336.4875 192.490114 
L 335.79 189.645293 
L 335.0925 189.037461 
L 334.395 193.14822 
L 333.6975 191.627757 
L 333 192.81793 
L 332.3025 193.037846 
L 331.605 192.164736 
L 330.9075 192.056811 
L 330.21 192.599114 
L 329.5125 192.599114 
L 328.815 195.416252 
L 328.1175 196.595925 
L 327.42 193.592521 
L 326.7225 191.308704 
L 325.3275 194.609003 
L 324.63 196.956119 
L 323.9325 195.184086 
L 323.235 193.037846 
L 321.1425 196.357433 
L 320.445 197.197905 
L 319.7475 197.319301 
L 319.05 198.054835 
L 318.3525 196.715661 
L 316.9575 195.300015 
L 316.26 198.42729 
L 315.5625 197.808281 
L 314.865 197.441035 
L 314.1675 198.802942 
L 313.47 197.563108 
L 312.7725 197.808281 
L 312.075 199.436285 
L 311.3775 197.931384 
L 310.68 198.178634 
L 309.9825 197.441035 
L 309.285 195.300015 
L 308.5875 196.715661 
L 307.89 199.181847 
L 307.1925 200.731149 
L 306.495 201.526866 
L 305.7975 201.393238 
L 305.1 200.078928 
L 304.4025 199.181847 
L 303.705 199.820737 
L 303.0075 201.526866 
L 302.31 202.065497 
L 301.6125 200.469093 
L 300.915 201.393238 
L 300.2175 200.862768 
L 299.52 199.820737 
L 298.8225 201.127199 
L 298.125 202.065497 
L 297.4275 202.33732 
L 296.73 201.260017 
L 296.0325 200.994784 
L 295.335 201.393238 
L 294.6375 203.441813 
L 293.94 204.862822 
L 293.2425 204.574905 
L 292.545 204.14655 
L 291.8475 203.302217 
L 291.15 204.004692 
L 290.4525 203.302217 
L 289.755 203.722347 
L 289.0575 206.781921 
L 288.36 208.317631 
L 286.965 203.024354 
L 286.2675 204.718626 
L 285.57 206.033814 
L 284.8725 206.033814 
L 284.175 206.331524 
L 283.4775 205.885715 
L 282.78 205.591012 
L 282.0825 205.152645 
L 281.385 205.885715 
L 280.6875 208.006147 
L 279.99 209.106179 
L 278.595 206.481142 
L 277.8975 206.182416 
L 277.2 207.851233 
L 276.5025 210.071583 
L 275.805 210.398176 
L 275.1075 210.562391 
L 274.41 211.392837 
L 273.7125 209.42562 
L 273.015 208.789052 
L 272.3175 209.586219 
L 270.9225 212.239348 
L 270.225 212.928547 
L 269.5275 212.928547 
L 268.83 210.234575 
L 268.1325 209.747409 
L 267.435 210.727224 
L 266.7375 211.392837 
L 266.04 213.277259 
L 265.3425 213.452663 
L 264.645 214.340386 
L 263.9475 214.340386 
L 263.25 212.58259 
L 262.5525 213.277259 
L 261.855 215.61425 
L 261.1575 216.736445 
L 260.46 215.985127 
L 259.065 213.983133 
L 258.3675 214.881794 
L 257.67 218.083112 
L 256.9725 218.87166 
L 255.5775 215.246489 
L 254.88 215.063761 
L 254.1825 219.271327 
L 253.485 220.08178 
L 252.7875 219.877755 
L 252.09 217.116997 
L 251.3925 215.985127 
L 250.695 217.888175 
L 249.9975 220.907526 
L 249.3 222.176114 
L 248.6025 222.176114 
L 247.905 219.877755 
L 247.2075 219.271327 
L 246.51 219.877755 
L 245.8125 222.82447 
L 245.115 224.601901 
L 244.4175 224.829243 
L 243.72 221.537223 
L 243.0225 220.08178 
L 242.325 221.749152 
L 241.6275 223.926876 
L 240.93 225.057772 
L 240.2325 225.518442 
L 239.535 223.482576 
L 238.8375 222.176114 
L 238.14 221.749152 
L 237.4425 225.287501 
L 236.745 227.4112 
L 236.0475 228.142636 
L 235.35 228.637141 
L 234.6525 225.984012 
L 233.955 224.375734 
L 232.56 229.389536 
L 231.8625 229.137298 
L 231.165 230.155093 
L 230.4675 227.4112 
L 229.77 225.984012 
L 229.0725 228.637141 
L 228.375 231.727594 
L 227.6775 233.916211 
L 226.98 233.35871 
L 225.585 227.4112 
L 224.8875 229.898416 
L 224.19 232.808222 
L 223.4925 234.766009 
L 222.795 231.197124 
L 222.0975 235.632636 
L 221.4 238.965702 
L 220.005 235.925367 
L 219.3075 232.808222 
L 217.215 240.56893 
L 216.5175 237.419138 
L 215.82 235.632636 
L 215.1225 235.341849 
L 214.425 240.896746 
L 213.7275 243.963129 
L 211.635 237.116277 
L 210.9375 241.89519 
L 210.24 245.398117 
L 209.5425 246.133651 
L 208.845 241.559838 
L 208.1475 239.281684 
L 207.45 241.227036 
L 206.7525 247.260663 
L 206.055 249.206015 
L 205.3575 244.317489 
L 204.66 241.559838 
L 203.9625 243.262902 
L 203.265 249.605682 
L 202.5675 249.206015 
L 201.87 244.674742 
L 201.1725 242.573703 
L 200.475 245.764339 
L 199.7775 251.660671 
L 199.08 251.660671 
L 198.3825 245.034935 
L 197.685 243.262902 
L 196.9875 245.398117 
L 196.29 250.827061 
L 195.5925 253.816931 
L 194.895 245.398117 
L 194.1975 242.233132 
L 193.5 244.674742 
L 192.105 256.553024 
L 191.4075 248.028459 
L 190.71 245.034935 
L 190.0125 242.573703 
L 189.315 248.417468 
L 188.6175 252.941638 
L 187.92 252.510469 
L 187.2225 246.506106 
L 186.525 245.398117 
L 185.8275 246.881758 
L 185.13 254.261232 
L 184.4325 254.710089 
L 183.735 253.377096 
L 183.0375 245.764339 
L 182.34 249.605682 
L 181.6425 252.083508 
L 180.945 259.471653 
L 180.2475 259.977592 
L 179.55 255.163598 
L 178.8525 251.660671 
L 178.155 257.504436 
L 177.4575 267.149853 
L 176.76 270.903286 
L 176.0625 268.365577 
L 175.365 258.971497 
L 174.6675 263.693066 
L 173.97 276.468006 
L 173.2725 285.497954 
L 172.575 277.977233 
L 171.8775 277.216114 
L 171.18 272.229546 
L 170.4825 289.305852 
L 169.785 303.242414 
L 169.0875 307.550469 
L 168.39 293.476933 
L 167.6925 295.721693 
L 166.995 306.066828 
L 166.2975 323.811289 
L 165.6 323.811289 
L 164.9025 295.721693 
L 164.205 275.009097 
L 163.5075 288.322368 
L 162.81 309.086179 
L 162.1125 303.242414 
L 160.7175 278.751823 
L 160.02 281.161417 
L 159.3225 299.320697 
L 158.625 307.550469 
L 157.9275 303.242414 
L 156.5325 277.977233 
L 155.835 284.595587 
L 155.1375 298.087849 
L 154.44 304.63184 
L 153.7425 294.584922 
L 153.045 281.995027 
L 152.3475 282.844825 
L 150.9525 312.329383 
L 150.255 303.242414 
L 149.5575 289.305852 
L 148.86 285.497954 
L 148.1625 293.476933 
L 147.465 315.83231 
L 146.7675 319.640208 
L 145.3725 290.311948 
L 144.675 296.888782 
L 143.9775 319.640208 
L 143.28 326.056049 
L 142.5825 303.242414 
L 141.885 293.476933 
L 141.1875 323.811289 
L 140.49 346.166665 
L 139.7925 354.145644 
L 139.095 314.045807 
L 138.3975 300.589286 
L 137.7 326.056049 
L 137.0025 339.420534 
L 136.305 321.676074 
L 135.6075 307.550469 
L 134.91 310.677744 
L 134.2125 326.056049 
L 133.515 336.401184 
L 132.8175 339.420534 
L 132.12 300.589286 
L 131.4225 317.694856 
L 130.725 346.166665 
L 130.0275 354.145644 
L 129.33 309.086179 
L 128.6325 309.086179 
L 127.935 323.811289 
L 127.2375 342.663738 
L 126.54 342.663738 
L 125.8425 312.329383 
L 125.145 296.888782 
L 124.4475 319.640208 
L 123.75 336.401184 
L 123.0525 315.83231 
L 122.355 300.589286 
L 121.6575 317.694856 
L 120.96 339.420534 
L 120.2625 336.401184 
L 119.565 301.895747 
L 118.8675 303.242414 
L 118.17 346.166665 
L 117.4725 349.974564 
L 116.775 317.694856 
L 116.0775 306.066828 
L 115.38 326.056049 
L 114.6825 333.57677 
L 113.985 310.677744 
L 113.2875 300.589286 
L 112.59 307.550469 
L 111.8925 339.420534 
L 111.195 315.83231 
L 110.4975 296.888782 
L 109.8 307.550469 
L 109.1025 342.663738 
L 108.405 336.401184 
L 107.7075 303.242414 
L 107.01 295.721693 
L 106.3125 315.83231 
L 105.615 342.663738 
L 104.9175 309.086179 
L 104.22 294.584922 
L 103.5225 296.888782 
L 102.825 315.83231 
L 102.1275 319.640208 
L 101.43 296.888782 
L 100.7325 295.721693 
L 100.035 315.83231 
L 99.3375 319.640208 
L 98.64 307.550469 
L 97.9425 301.895747 
L 97.245 312.329383 
L 96.5475 330.923641 
L 95.1525 317.694856 
L 95.151701 433 
M 89.573336 433 
L 89.5725 312.329383 
L 88.875 369.75489 
L 88.1775 384.48 
L 87.48 339.420534 
L 87.479352 433 
M 86.085058 433 
L 86.085 424.579837 
L 85.3875 354.145644 
L 84.69 406.835376 
L 83.9925 376.501021 
L 83.295 300.589286 
L 82.5975 291.341718 
L 81.9 309.086179 
L 81.2025 299.320697 
L 80.505 281.995027 
L 79.8075 275.009097 
L 79.11 275.009097 
L 78.4125 282.844825 
L 77.0175 323.811289 
L 76.32 310.677744 
L 75.6225 293.476933 
L 74.925 299.320697 
L 74.2275 323.811289 
L 73.53 291.341718 
L 72.8325 282.844825 
L 72.135 304.63184 
L 71.4375 298.087849 
L 70.74 287.3605 
L 70.0425 269.616039 
L 69.345 278.751823 
L 68.6475 307.550469 
L 67.95 278.751823 
L 67.2525 317.694856 
L 66.555 310.677744 
L 65.8575 287.3605 
L 65.16 298.087849 
L 64.4625 286.419319 
L 63.765 277.977233 
L 63.0675 267.753493 
L 62.37 252.083508 
L 61.6725 267.149853 
L 60.975 303.242414 
L 60.2775 276.468006 
L 59.58 276.468006 
L 58.8825 281.995027 
L 58.185 269.616039 
L 57.4875 270.903286 
L 56.79 281.995027 
L 56.0925 265.387338 
L 55.395 260.489449 
L 54 314.045807 
L 53.3025 162.210224 
L 52.605 129.463842 
L 51.21 130.323249 
L 50.5125 129.982677 
L 49.815 129.438061 
L 49.1175 129.283694 
L 48.42 129.644736 
L 47.7225 130.191946 
L 47.025 130.008781 
L 46.3275 129.567118 
L 45.63 129.930516 
L 44.9325 130.481334 
L 43.5375 129.258018 
L 42.84 129.541277 
L 42.1425 130.165733 
L 41.445 130.270681 
L 40.7475 129.878417 
L 40.05 129.696557 
L 38.655 130.270681 
L 37.9575 129.74844 
L 37.26 129.644736 
L 36.5625 130.24442 
L 35.865 130.666492 
L 35.1675 130.165733 
L 34.47 129.956589 
L 33.7725 130.428576 
L 33.075 130.375881 
L 32.3775 129.930516 
L 31.68 129.74844 
L 30.285 130.666492 
L 29.5875 130.666492 
L 28.89 129.800385 
L 28.1925 129.670639 
L 26.7975 130.719538 
L 26.1 130.507737 
L 25.4025 129.904459 
L 24.705 130.061036 
L 24.0075 130.454947 
L 21.915 130.428576 
L 21.2175 130.959045 
L 20.52 130.985739 
L 19.8225 130.454947 
L 19.125 130.428576 
L 17.73 130.639993 
L 17.0325 130.454947 
L 16.335 129.852391 
L 14.94 130.428576 
L 14.2425 129.644736 
L 13.545 129.82638 
L 12.15 129.774405 
L 11.4525 129.956589 
L 10.755 129.774405 
L 10.0575 130.560592 
L 9.36 131.092674 
L 7.965 129.878417 
L 7.2675 130.639993 
L 6.57 131.14624 
L 5.8725 130.587043 
L 5.175 129.800385 
L 3.78 131.442029 
L 3.0825 131.469018 
L 2.385 130.534156 
L 1.6875 130.349557 
L 0.99 130.560592 
L 0.2925 131.065915 
L -0.405 130.218175 
L -1 130.084128 
L -1 130.084128 
" clip-path="url(#pe8df4419a2)" style="fill: none; stroke: #ffc77f; stroke-opacity: 0.8; stroke-linecap: square"/>
   </g>
   <g id="patch_3">
    <path d="M 54 384.48 
L 54 51.84 
" style="fill: none; stroke: #000000; stroke-width: 0.8; stroke-linejoin: miter; stroke-linecap: square"/>
   </g>
   <g id="patch_4">
    <path d="M 388.8 384.48 
L 388.8 51.84 
" style="fill: none; stroke: #000000; stroke-width: 0.8; stroke-linejoin: miter; stroke-linecap: square"/>
   </g>
   <g id="patch_5">
    <path d="M 54 384.48 
L 388.8 384.48 
" style="fill: none; stroke: #000000; stroke-width: 0.8; stroke-linejoin: miter; stroke-linecap: square"/>
   </g>
   <g id="patch_6">
    <path d="M 54 51.84 
L 388.8 51.84 
" style="fill: none; stroke: #000000; stroke-width: 0.8; stroke-linejoin: miter; stroke-linecap: square"/>
   </g>
   <g id="legend_1">
    <g id="patch_7">
     <path d="M 315.28125 378.48 
L 380.4 378.48 
Q 382.8 378.48 382.8 376.08 
L 382.8 287.275625 
Q 382.8 284.875625 380.4 284.875625 
L 315.28125 284.875625 
Q 312.88125 284.875625 312.88125 287.275625 
L 312.88125 376.08 
Q 312.88125 378.48 315.28125 378.48 
z
" style="fill: #ffffff; opacity: 0.8; stroke: #cccccc; stroke-linejoin: miter"/>
    </g>
    <g id="text_12">
     <!-- % CdS -->
     <g transform="translate(325.189063 300.313438) scale(0.14 -0.14)">
      <defs>
       <path id="DejaVuSans-43" d="M 4122 4306 
L 4122 3641 
Q 3803 3938 3442 4084 
Q 3081 4231 2675 4231 
Q 1875 4231 1450 3742 
Q 1025 3253 1025 2328 
Q 1025 1406 1450 917 
Q 1875 428 2675 428 
Q 3081 428 3442 575 
Q 3803 722 4122 1019 
L 4122 359 
Q 3791 134 3420 21 
Q 3050 -91 2638 -91 
Q 1578 -91 968 557 
Q 359 1206 359 2328 
Q 359 3453 968 4101 
Q 1578 4750 2638 4750 
Q 3056 4750 3426 4639 
Q 3797 4528 4122 4306 
z
" transform="scale(0.015625)"/>
       <path id="DejaVuSans-64" d="M 2906 2969 
L 2906 4863 
L 3481 4863 
L 3481 0 
L 2906 0 
L 2906 525 
Q 2725 213 2448 61 
Q 2172 -91 1784 -91 
Q 1150 -91 751 415 
Q 353 922 353 1747 
Q 353 2572 751 3078 
Q 1150 3584 1784 3584 
Q 2172 3584 2448 3432 
Q 2725 3281 2906 2969 
z
M 947 1747 
Q 947 1113 1208 752 
Q 1469 391 1925 391 
Q 2381 391 2643 752 
Q 2906 1113 2906 1747 
Q 2906 2381 2643 2742 
Q 2381 3103 1925 3103 
Q 1469 3103 1208 2742 
Q 947 2381 947 1747 
z
" transform="scale(0.015625)"/>
       <path id="DejaVuSans-53" d="M 3425 4513 
L 3425 3897 
Q 3066 4069 2747 4153 
Q 2428 4238 2131 4238 
Q 1616 4238 1336 4038 
Q 1056 3838 1056 3469 
Q 1056 3159 1242 3001 
Q 1428 2844 1947 2747 
L 2328 2669 
Q 3034 2534 3370 2195 
Q 3706 1856 3706 1288 
Q 3706 609 3251 259 
Q 2797 -91 1919 -91 
Q 1588 -91 1214 -16 
Q 841 59 441 206 
L 441 856 
Q 825 641 1194 531 
Q 1563 422 1919 422 
Q 2459 422 2753 634 
Q 3047 847 3047 1241 
Q 3047 1584 2836 1778 
Q 2625 1972 2144 2069 
L 1759 2144 
Q 1053 2284 737 2584 
Q 422 2884 422 3419 
Q 422 4038 858 4394 
Q 1294 4750 2059 4750 
Q 2388 4750 2728 4690 
Q 3069 4631 3425 4513 
z
" transform="scale(0.015625)"/>
      </defs>
      <use xlink:href="#DejaVuSans-25"/>
      <use xlink:href="#DejaVuSans-20" x="95.019531"/>
      <use xlink:href="#DejaVuSans-43" x="126.806641"/>
      <use xlink:href="#DejaVuSans-64" x="196.630859"/>
      <use xlink:href="#DejaVuSans-53" x="260.107422"/>
     </g>
    </g>
    <g id="line2d_43">
     <path d="M 317.68125 314.143125 
L 329.68125 314.143125 
L 341.68125 314.143125 
" style="fill: none; stroke: #000000; stroke-opacity: 0.8; stroke-linecap: square"/>
    </g>
    <g id="text_13">
     <!-- 0.05 -->
     <g transform="translate(351.28125 318.343125) scale(0.12 -0.12)">
      <defs>
       <path id="DejaVuSans-2e" d="M 684 794 
L 1344 794 
L 1344 0 
L 684 0 
L 684 794 
z
" transform="scale(0.015625)"/>
      </defs>
      <use xlink:href="#DejaVuSans-30"/>
      <use xlink:href="#DejaVuSans-2e" x="63.623047"/>
      <use xlink:href="#DejaVuSans-30" x="95.410156"/>
      <use xlink:href="#DejaVuSans-35" x="159.033203"/>
     </g>
    </g>
    <g id="line2d_44">
     <path d="M 317.68125 331.756875 
L 329.68125 331.756875 
L 341.68125 331.756875 
" style="fill: none; stroke: #69422a; stroke-opacity: 0.8; stroke-linecap: square"/>
    </g>
    <g id="text_14">
     <!-- 0.10 -->
     <g transform="translate(351.28125 335.956875) scale(0.12 -0.12)">
      <use xlink:href="#DejaVuSans-30"/>
      <use xlink:href="#DejaVuSans-2e" x="63.623047"/>
      <use xlink:href="#DejaVuSans-31" x="95.410156"/>
      <use xlink:href="#DejaVuSans-30" x="159.033203"/>
     </g>
    </g>
    <g id="line2d_45">
     <path d="M 317.68125 349.370625 
L 329.68125 349.370625 
L 341.68125 349.370625 
" style="fill: none; stroke: #d28555; stroke-opacity: 0.8; stroke-linecap: square"/>
    </g>
    <g id="text_15">
     <!-- 0.20 -->
     <g transform="translate(351.28125 353.570625) scale(0.12 -0.12)">
      <use xlink:href="#DejaVuSans-30"/>
      <use xlink:href="#DejaVuSans-2e" x="63.623047"/>
      <use xlink:href="#DejaVuSans-32" x="95.410156"/>
      <use xlink:href="#DejaVuSans-30" x="159.033203"/>
     </g>
    </g>
    <g id="line2d_46">
     <path d="M 317.68125 366.984375 
L 329.68125 366.984375 
L 341.68125 366.984375 
" style="fill: none; stroke: #ffc77f; stroke-opacity: 0.8; stroke-linecap: square"/>
    </g>
    <g id="text_16">
     <!-- 0.30 -->
     <g transform="translate(351.28125 371.184375) scale(0.12 -0.12)">
      <defs>
       <path id="DejaVuSans-33" d="M 2597 2516 
Q 3050 2419 3304 2112 
Q 3559 1806 3559 1356 
Q 3559 666 3084 287 
Q 2609 -91 1734 -91 
Q 1441 -91 1130 -33 
Q 819 25 488 141 
L 488 750 
Q 750 597 1062 519 
Q 1375 441 1716 441 
Q 2309 441 2620 675 
Q 2931 909 2931 1356 
Q 2931 1769 2642 2001 
Q 2353 2234 1838 2234 
L 1294 2234 
L 1294 2753 
L 1863 2753 
Q 2328 2753 2575 2939 
Q 2822 3125 2822 3475 
Q 2822 3834 2567 4026 
Q 2313 4219 1838 4219 
Q 1578 4219 1281 4162 
Q 984 4106 628 3988 
L 628 4550 
Q 988 4650 1302 4700 
Q 1616 4750 1894 4750 
Q 2613 4750 3031 4423 
Q 3450 4097 3450 3541 
Q 3450 3153 3228 2886 
Q 3006 2619 2597 2516 
z
" transform="scale(0.015625)"/>
      </defs>
      <use xlink:href="#DejaVuSans-30"/>
      <use xlink:href="#DejaVuSans-2e" x="63.623047"/>
      <use xlink:href="#DejaVuSans-33" x="95.410156"/>
      <use xlink:href="#DejaVuSans-30" x="159.033203"/>
     </g>
    </g>
   </g>
  </g>
 </g>
 <defs>
  <clipPath id="pe8df4419a2">
   <rect x="54" y="51.84" width="334.8" height="332.64"/>
  </clipPath>
 </defs>
</svg>
