<?xml version="1.0" encoding="utf-8" standalone="no"?>
<!DOCTYPE svg PUBLIC "-//W3C//DTD SVG 1.1//EN"
  "http://www.w3.org/Graphics/SVG/1.1/DTD/svg11.dtd">
<svg xmlns:xlink="http://www.w3.org/1999/xlink" width="432pt" height="432pt" viewBox="0 0 432 432" xmlns="http://www.w3.org/2000/svg" version="1.1">
 <metadata>
  <rdf:RDF xmlns:dc="http://purl.org/dc/elements/1.1/" xmlns:cc="http://creativecommons.org/ns#" xmlns:rdf="http://www.w3.org/1999/02/22-rdf-syntax-ns#">
   <cc:Work>
    <dc:type rdf:resource="http://purl.org/dc/dcmitype/StillImage"/>
    <dc:date>2025-05-16T09:52:26.648546</dc:date>
    <dc:format>image/svg+xml</dc:format>
    <dc:creator>
     <cc:Agent>
      <dc:title>Matplotlib v3.8.3, https://matplotlib.org/</dc:title>
     </cc:Agent>
    </dc:creator>
   </cc:Work>
  </rdf:RDF>
 </metadata>
 <defs>
  <style type="text/css">*{stroke-linejoin: round; stroke-linecap: butt}</style>
 </defs>
 <g id="figure_1">
  <g id="patch_1">
   <path d="M 0 432 
L 432 432 
L 432 0 
L 0 0 
z
" style="fill: #ffffff"/>
  </g>
  <g id="axes_1">
   <g id="patch_2">
    <path d="M 54 384.48 
L 388.8 384.48 
L 388.8 51.84 
L 54 51.84 
z
" style="fill: #ffffff"/>
   </g>
   <g id="matplotlib.axis_1">
    <g id="xtick_1">
     <g id="line2d_1">
      <defs>
       <path id="m57fede89f5" d="M 0 0 
L 0 3.5 
" style="stroke: #000000; stroke-width: 0.8"/>
      </defs>
      <g>
       <use xlink:href="#m57fede89f5" x="109.8" y="384.48" style="stroke: #000000; stroke-width: 0.8"/>
      </g>
     </g>
     <g id="text_1">
      <!-- 400 -->
      <g transform="translate(100.25625 399.078438) scale(0.1 -0.1)">
       <defs>
        <path id="DejaVuSans-34" d="M 2419 4116 
L 825 1625 
L 2419 1625 
L 2419 4116 
z
M 2253 4666 
L 3047 4666 
L 3047 1625 
L 3713 1625 
L 3713 1100 
L 3047 1100 
L 3047 0 
L 2419 0 
L 2419 1100 
L 313 1100 
L 313 1709 
L 2253 4666 
z
" transform="scale(0.015625)"/>
        <path id="DejaVuSans-30" d="M 2034 4250 
Q 1547 4250 1301 3770 
Q 1056 3291 1056 2328 
Q 1056 1369 1301 889 
Q 1547 409 2034 409 
Q 2525 409 2770 889 
Q 3016 1369 3016 2328 
Q 3016 3291 2770 3770 
Q 2525 4250 2034 4250 
z
M 2034 4750 
Q 2819 4750 3233 4129 
Q 3647 3509 3647 2328 
Q 3647 1150 3233 529 
Q 2819 -91 2034 -91 
Q 1250 -91 836 529 
Q 422 1150 422 2328 
Q 422 3509 836 4129 
Q 1250 4750 2034 4750 
z
" transform="scale(0.015625)"/>
       </defs>
       <use xlink:href="#DejaVuSans-34"/>
       <use xlink:href="#DejaVuSans-30" x="63.623047"/>
       <use xlink:href="#DejaVuSans-30" x="127.246094"/>
      </g>
     </g>
    </g>
    <g id="xtick_2">
     <g id="line2d_2">
      <g>
       <use xlink:href="#m57fede89f5" x="179.55" y="384.48" style="stroke: #000000; stroke-width: 0.8"/>
      </g>
     </g>
     <g id="text_2">
      <!-- 500 -->
      <g transform="translate(170.00625 399.078438) scale(0.1 -0.1)">
       <defs>
        <path id="DejaVuSans-35" d="M 691 4666 
L 3169 4666 
L 3169 4134 
L 1269 4134 
L 1269 2991 
Q 1406 3038 1543 3061 
Q 1681 3084 1819 3084 
Q 2600 3084 3056 2656 
Q 3513 2228 3513 1497 
Q 3513 744 3044 326 
Q 2575 -91 1722 -91 
Q 1428 -91 1123 -41 
Q 819 9 494 109 
L 494 744 
Q 775 591 1075 516 
Q 1375 441 1709 441 
Q 2250 441 2565 725 
Q 2881 1009 2881 1497 
Q 2881 1984 2565 2268 
Q 2250 2553 1709 2553 
Q 1456 2553 1204 2497 
Q 953 2441 691 2322 
L 691 4666 
z
" transform="scale(0.015625)"/>
       </defs>
       <use xlink:href="#DejaVuSans-35"/>
       <use xlink:href="#DejaVuSans-30" x="63.623047"/>
       <use xlink:href="#DejaVuSans-30" x="127.246094"/>
      </g>
     </g>
    </g>
    <g id="xtick_3">
     <g id="line2d_3">
      <g>
       <use xlink:href="#m57fede89f5" x="249.3" y="384.48" style="stroke: #000000; stroke-width: 0.8"/>
      </g>
     </g>
     <g id="text_3">
      <!-- 600 -->
      <g transform="translate(239.75625 399.078438) scale(0.1 -0.1)">
       <defs>
        <path id="DejaVuSans-36" d="M 2113 2584 
Q 1688 2584 1439 2293 
Q 1191 2003 1191 1497 
Q 1191 994 1439 701 
Q 1688 409 2113 409 
Q 2538 409 2786 701 
Q 3034 994 3034 1497 
Q 3034 2003 2786 2293 
Q 2538 2584 2113 2584 
z
M 3366 4563 
L 3366 3988 
Q 3128 4100 2886 4159 
Q 2644 4219 2406 4219 
Q 1781 4219 1451 3797 
Q 1122 3375 1075 2522 
Q 1259 2794 1537 2939 
Q 1816 3084 2150 3084 
Q 2853 3084 3261 2657 
Q 3669 2231 3669 1497 
Q 3669 778 3244 343 
Q 2819 -91 2113 -91 
Q 1303 -91 875 529 
Q 447 1150 447 2328 
Q 447 3434 972 4092 
Q 1497 4750 2381 4750 
Q 2619 4750 2861 4703 
Q 3103 4656 3366 4563 
z
" transform="scale(0.015625)"/>
       </defs>
       <use xlink:href="#DejaVuSans-36"/>
       <use xlink:href="#DejaVuSans-30" x="63.623047"/>
       <use xlink:href="#DejaVuSans-30" x="127.246094"/>
      </g>
     </g>
    </g>
    <g id="xtick_4">
     <g id="line2d_4">
      <g>
       <use xlink:href="#m57fede89f5" x="319.05" y="384.48" style="stroke: #000000; stroke-width: 0.8"/>
      </g>
     </g>
     <g id="text_4">
      <!-- 700 -->
      <g transform="translate(309.50625 399.078438) scale(0.1 -0.1)">
       <defs>
        <path id="DejaVuSans-37" d="M 525 4666 
L 3525 4666 
L 3525 4397 
L 1831 0 
L 1172 0 
L 2766 4134 
L 525 4134 
L 525 4666 
z
" transform="scale(0.015625)"/>
       </defs>
       <use xlink:href="#DejaVuSans-37"/>
       <use xlink:href="#DejaVuSans-30" x="63.623047"/>
       <use xlink:href="#DejaVuSans-30" x="127.246094"/>
      </g>
     </g>
    </g>
    <g id="xtick_5">
     <g id="line2d_5">
      <g>
       <use xlink:href="#m57fede89f5" x="388.8" y="384.48" style="stroke: #000000; stroke-width: 0.8"/>
      </g>
     </g>
     <g id="text_5">
      <!-- 800 -->
      <g transform="translate(379.25625 399.078438) scale(0.1 -0.1)">
       <defs>
        <path id="DejaVuSans-38" d="M 2034 2216 
Q 1584 2216 1326 1975 
Q 1069 1734 1069 1313 
Q 1069 891 1326 650 
Q 1584 409 2034 409 
Q 2484 409 2743 651 
Q 3003 894 3003 1313 
Q 3003 1734 2745 1975 
Q 2488 2216 2034 2216 
z
M 1403 2484 
Q 997 2584 770 2862 
Q 544 3141 544 3541 
Q 544 4100 942 4425 
Q 1341 4750 2034 4750 
Q 2731 4750 3128 4425 
Q 3525 4100 3525 3541 
Q 3525 3141 3298 2862 
Q 3072 2584 2669 2484 
Q 3125 2378 3379 2068 
Q 3634 1759 3634 1313 
Q 3634 634 3220 271 
Q 2806 -91 2034 -91 
Q 1263 -91 848 271 
Q 434 634 434 1313 
Q 434 1759 690 2068 
Q 947 2378 1403 2484 
z
M 1172 3481 
Q 1172 3119 1398 2916 
Q 1625 2713 2034 2713 
Q 2441 2713 2670 2916 
Q 2900 3119 2900 3481 
Q 2900 3844 2670 4047 
Q 2441 4250 2034 4250 
Q 1625 4250 1398 4047 
Q 1172 3844 1172 3481 
z
" transform="scale(0.015625)"/>
       </defs>
       <use xlink:href="#DejaVuSans-38"/>
       <use xlink:href="#DejaVuSans-30" x="63.623047"/>
       <use xlink:href="#DejaVuSans-30" x="127.246094"/>
      </g>
     </g>
    </g>
    <g id="text_6">
     <!-- Wavelength (nm) -->
     <g transform="translate(169.569375 414.27625) scale(0.12 -0.12)">
      <defs>
       <path id="DejaVuSans-57" d="M 213 4666 
L 850 4666 
L 1831 722 
L 2809 4666 
L 3519 4666 
L 4500 722 
L 5478 4666 
L 6119 4666 
L 4947 0 
L 4153 0 
L 3169 4050 
L 2175 0 
L 1381 0 
L 213 4666 
z
" transform="scale(0.015625)"/>
       <path id="DejaVuSans-61" d="M 2194 1759 
Q 1497 1759 1228 1600 
Q 959 1441 959 1056 
Q 959 750 1161 570 
Q 1363 391 1709 391 
Q 2188 391 2477 730 
Q 2766 1069 2766 1631 
L 2766 1759 
L 2194 1759 
z
M 3341 1997 
L 3341 0 
L 2766 0 
L 2766 531 
Q 2569 213 2275 61 
Q 1981 -91 1556 -91 
Q 1019 -91 701 211 
Q 384 513 384 1019 
Q 384 1609 779 1909 
Q 1175 2209 1959 2209 
L 2766 2209 
L 2766 2266 
Q 2766 2663 2505 2880 
Q 2244 3097 1772 3097 
Q 1472 3097 1187 3025 
Q 903 2953 641 2809 
L 641 3341 
Q 956 3463 1253 3523 
Q 1550 3584 1831 3584 
Q 2591 3584 2966 3190 
Q 3341 2797 3341 1997 
z
" transform="scale(0.015625)"/>
       <path id="DejaVuSans-76" d="M 191 3500 
L 800 3500 
L 1894 563 
L 2988 3500 
L 3597 3500 
L 2284 0 
L 1503 0 
L 191 3500 
z
" transform="scale(0.015625)"/>
       <path id="DejaVuSans-65" d="M 3597 1894 
L 3597 1613 
L 953 1613 
Q 991 1019 1311 708 
Q 1631 397 2203 397 
Q 2534 397 2845 478 
Q 3156 559 3463 722 
L 3463 178 
Q 3153 47 2828 -22 
Q 2503 -91 2169 -91 
Q 1331 -91 842 396 
Q 353 884 353 1716 
Q 353 2575 817 3079 
Q 1281 3584 2069 3584 
Q 2775 3584 3186 3129 
Q 3597 2675 3597 1894 
z
M 3022 2063 
Q 3016 2534 2758 2815 
Q 2500 3097 2075 3097 
Q 1594 3097 1305 2825 
Q 1016 2553 972 2059 
L 3022 2063 
z
" transform="scale(0.015625)"/>
       <path id="DejaVuSans-6c" d="M 603 4863 
L 1178 4863 
L 1178 0 
L 603 0 
L 603 4863 
z
" transform="scale(0.015625)"/>
       <path id="DejaVuSans-6e" d="M 3513 2113 
L 3513 0 
L 2938 0 
L 2938 2094 
Q 2938 2591 2744 2837 
Q 2550 3084 2163 3084 
Q 1697 3084 1428 2787 
Q 1159 2491 1159 1978 
L 1159 0 
L 581 0 
L 581 3500 
L 1159 3500 
L 1159 2956 
Q 1366 3272 1645 3428 
Q 1925 3584 2291 3584 
Q 2894 3584 3203 3211 
Q 3513 2838 3513 2113 
z
" transform="scale(0.015625)"/>
       <path id="DejaVuSans-67" d="M 2906 1791 
Q 2906 2416 2648 2759 
Q 2391 3103 1925 3103 
Q 1463 3103 1205 2759 
Q 947 2416 947 1791 
Q 947 1169 1205 825 
Q 1463 481 1925 481 
Q 2391 481 2648 825 
Q 2906 1169 2906 1791 
z
M 3481 434 
Q 3481 -459 3084 -895 
Q 2688 -1331 1869 -1331 
Q 1566 -1331 1297 -1286 
Q 1028 -1241 775 -1147 
L 775 -588 
Q 1028 -725 1275 -790 
Q 1522 -856 1778 -856 
Q 2344 -856 2625 -561 
Q 2906 -266 2906 331 
L 2906 616 
Q 2728 306 2450 153 
Q 2172 0 1784 0 
Q 1141 0 747 490 
Q 353 981 353 1791 
Q 353 2603 747 3093 
Q 1141 3584 1784 3584 
Q 2172 3584 2450 3431 
Q 2728 3278 2906 2969 
L 2906 3500 
L 3481 3500 
L 3481 434 
z
" transform="scale(0.015625)"/>
       <path id="DejaVuSans-74" d="M 1172 4494 
L 1172 3500 
L 2356 3500 
L 2356 3053 
L 1172 3053 
L 1172 1153 
Q 1172 725 1289 603 
Q 1406 481 1766 481 
L 2356 481 
L 2356 0 
L 1766 0 
Q 1100 0 847 248 
Q 594 497 594 1153 
L 594 3053 
L 172 3053 
L 172 3500 
L 594 3500 
L 594 4494 
L 1172 4494 
z
" transform="scale(0.015625)"/>
       <path id="DejaVuSans-68" d="M 3513 2113 
L 3513 0 
L 2938 0 
L 2938 2094 
Q 2938 2591 2744 2837 
Q 2550 3084 2163 3084 
Q 1697 3084 1428 2787 
Q 1159 2491 1159 1978 
L 1159 0 
L 581 0 
L 581 4863 
L 1159 4863 
L 1159 2956 
Q 1366 3272 1645 3428 
Q 1925 3584 2291 3584 
Q 2894 3584 3203 3211 
Q 3513 2838 3513 2113 
z
" transform="scale(0.015625)"/>
       <path id="DejaVuSans-20" transform="scale(0.015625)"/>
       <path id="DejaVuSans-28" d="M 1984 4856 
Q 1566 4138 1362 3434 
Q 1159 2731 1159 2009 
Q 1159 1288 1364 580 
Q 1569 -128 1984 -844 
L 1484 -844 
Q 1016 -109 783 600 
Q 550 1309 550 2009 
Q 550 2706 781 3412 
Q 1013 4119 1484 4856 
L 1984 4856 
z
" transform="scale(0.015625)"/>
       <path id="DejaVuSans-6d" d="M 3328 2828 
Q 3544 3216 3844 3400 
Q 4144 3584 4550 3584 
Q 5097 3584 5394 3201 
Q 5691 2819 5691 2113 
L 5691 0 
L 5113 0 
L 5113 2094 
Q 5113 2597 4934 2840 
Q 4756 3084 4391 3084 
Q 3944 3084 3684 2787 
Q 3425 2491 3425 1978 
L 3425 0 
L 2847 0 
L 2847 2094 
Q 2847 2600 2669 2842 
Q 2491 3084 2119 3084 
Q 1678 3084 1418 2786 
Q 1159 2488 1159 1978 
L 1159 0 
L 581 0 
L 581 3500 
L 1159 3500 
L 1159 2956 
Q 1356 3278 1631 3431 
Q 1906 3584 2284 3584 
Q 2666 3584 2933 3390 
Q 3200 3197 3328 2828 
z
" transform="scale(0.015625)"/>
       <path id="DejaVuSans-29" d="M 513 4856 
L 1013 4856 
Q 1481 4119 1714 3412 
Q 1947 2706 1947 2009 
Q 1947 1309 1714 600 
Q 1481 -109 1013 -844 
L 513 -844 
Q 928 -128 1133 580 
Q 1338 1288 1338 2009 
Q 1338 2731 1133 3434 
Q 928 4138 513 4856 
z
" transform="scale(0.015625)"/>
      </defs>
      <use xlink:href="#DejaVuSans-57"/>
      <use xlink:href="#DejaVuSans-61" x="92.501953"/>
      <use xlink:href="#DejaVuSans-76" x="153.78125"/>
      <use xlink:href="#DejaVuSans-65" x="212.960938"/>
      <use xlink:href="#DejaVuSans-6c" x="274.484375"/>
      <use xlink:href="#DejaVuSans-65" x="302.267578"/>
      <use xlink:href="#DejaVuSans-6e" x="363.791016"/>
      <use xlink:href="#DejaVuSans-67" x="427.169922"/>
      <use xlink:href="#DejaVuSans-74" x="490.646484"/>
      <use xlink:href="#DejaVuSans-68" x="529.855469"/>
      <use xlink:href="#DejaVuSans-20" x="593.234375"/>
      <use xlink:href="#DejaVuSans-28" x="625.021484"/>
      <use xlink:href="#DejaVuSans-6e" x="664.035156"/>
      <use xlink:href="#DejaVuSans-6d" x="727.414062"/>
      <use xlink:href="#DejaVuSans-29" x="824.826172"/>
     </g>
    </g>
   </g>
   <g id="matplotlib.axis_2">
    <g id="ytick_1">
     <g id="line2d_6">
      <defs>
       <path id="m7fecb0e4fc" d="M 0 0 
L -3.5 0 
" style="stroke: #000000; stroke-width: 0.8"/>
      </defs>
      <g>
       <use xlink:href="#m7fecb0e4fc" x="54" y="354.145644" style="stroke: #000000; stroke-width: 0.8"/>
      </g>
     </g>
     <g id="text_7">
      <!-- $\mathdefault{10^{-1}}$ -->
      <g transform="translate(23.5 357.944863) scale(0.1 -0.1)">
       <defs>
        <path id="DejaVuSans-31" d="M 794 531 
L 1825 531 
L 1825 4091 
L 703 3866 
L 703 4441 
L 1819 4666 
L 2450 4666 
L 2450 531 
L 3481 531 
L 3481 0 
L 794 0 
L 794 531 
z
" transform="scale(0.015625)"/>
        <path id="DejaVuSans-2212" d="M 678 2272 
L 4684 2272 
L 4684 1741 
L 678 1741 
L 678 2272 
z
" transform="scale(0.015625)"/>
       </defs>
       <use xlink:href="#DejaVuSans-31" transform="translate(0 0.684375)"/>
       <use xlink:href="#DejaVuSans-30" transform="translate(63.623047 0.684375)"/>
       <use xlink:href="#DejaVuSans-2212" transform="translate(128.203125 38.965625) scale(0.7)"/>
       <use xlink:href="#DejaVuSans-31" transform="translate(186.855469 38.965625) scale(0.7)"/>
      </g>
     </g>
    </g>
    <g id="ytick_2">
     <g id="line2d_7">
      <g>
       <use xlink:href="#m7fecb0e4fc" x="54" y="253.377096" style="stroke: #000000; stroke-width: 0.8"/>
      </g>
     </g>
     <g id="text_8">
      <!-- $\mathdefault{10^{0}}$ -->
      <g transform="translate(29.4 257.176315) scale(0.1 -0.1)">
       <use xlink:href="#DejaVuSans-31" transform="translate(0 0.765625)"/>
       <use xlink:href="#DejaVuSans-30" transform="translate(63.623047 0.765625)"/>
       <use xlink:href="#DejaVuSans-30" transform="translate(128.203125 39.046875) scale(0.7)"/>
      </g>
     </g>
    </g>
    <g id="ytick_3">
     <g id="line2d_8">
      <g>
       <use xlink:href="#m7fecb0e4fc" x="54" y="152.608548" style="stroke: #000000; stroke-width: 0.8"/>
      </g>
     </g>
     <g id="text_9">
      <!-- $\mathdefault{10^{1}}$ -->
      <g transform="translate(29.4 156.407767) scale(0.1 -0.1)">
       <use xlink:href="#DejaVuSans-31" transform="translate(0 0.684375)"/>
       <use xlink:href="#DejaVuSans-30" transform="translate(63.623047 0.684375)"/>
       <use xlink:href="#DejaVuSans-31" transform="translate(128.203125 38.965625) scale(0.7)"/>
      </g>
     </g>
    </g>
    <g id="ytick_4">
     <g id="line2d_9">
      <g>
       <use xlink:href="#m7fecb0e4fc" x="54" y="51.84" style="stroke: #000000; stroke-width: 0.8"/>
      </g>
     </g>
     <g id="text_10">
      <!-- $\mathdefault{10^{2}}$ -->
      <g transform="translate(29.4 55.639219) scale(0.1 -0.1)">
       <defs>
        <path id="DejaVuSans-32" d="M 1228 531 
L 3431 531 
L 3431 0 
L 469 0 
L 469 531 
Q 828 903 1448 1529 
Q 2069 2156 2228 2338 
Q 2531 2678 2651 2914 
Q 2772 3150 2772 3378 
Q 2772 3750 2511 3984 
Q 2250 4219 1831 4219 
Q 1534 4219 1204 4116 
Q 875 4013 500 3803 
L 500 4441 
Q 881 4594 1212 4672 
Q 1544 4750 1819 4750 
Q 2544 4750 2975 4387 
Q 3406 4025 3406 3419 
Q 3406 3131 3298 2873 
Q 3191 2616 2906 2266 
Q 2828 2175 2409 1742 
Q 1991 1309 1228 531 
z
" transform="scale(0.015625)"/>
       </defs>
       <use xlink:href="#DejaVuSans-31" transform="translate(0 0.765625)"/>
       <use xlink:href="#DejaVuSans-30" transform="translate(63.623047 0.765625)"/>
       <use xlink:href="#DejaVuSans-32" transform="translate(128.203125 39.046875) scale(0.7)"/>
      </g>
     </g>
    </g>
    <g id="ytick_5">
     <g id="line2d_10">
      <defs>
       <path id="mddf50423bd" d="M 0 0 
L -2 0 
" style="stroke: #000000; stroke-width: 0.6"/>
      </defs>
      <g>
       <use xlink:href="#mddf50423bd" x="54" y="384.48" style="stroke: #000000; stroke-width: 0.6"/>
      </g>
     </g>
    </g>
    <g id="ytick_6">
     <g id="line2d_11">
      <g>
       <use xlink:href="#mddf50423bd" x="54" y="376.501021" style="stroke: #000000; stroke-width: 0.6"/>
      </g>
     </g>
    </g>
    <g id="ytick_7">
     <g id="line2d_12">
      <g>
       <use xlink:href="#mddf50423bd" x="54" y="369.75489" style="stroke: #000000; stroke-width: 0.6"/>
      </g>
     </g>
    </g>
    <g id="ytick_8">
     <g id="line2d_13">
      <g>
       <use xlink:href="#mddf50423bd" x="54" y="363.911126" style="stroke: #000000; stroke-width: 0.6"/>
      </g>
     </g>
    </g>
    <g id="ytick_9">
     <g id="line2d_14">
      <g>
       <use xlink:href="#mddf50423bd" x="54" y="358.75656" style="stroke: #000000; stroke-width: 0.6"/>
      </g>
     </g>
    </g>
    <g id="ytick_10">
     <g id="line2d_15">
      <g>
       <use xlink:href="#mddf50423bd" x="54" y="323.811289" style="stroke: #000000; stroke-width: 0.6"/>
      </g>
     </g>
    </g>
    <g id="ytick_11">
     <g id="line2d_16">
      <g>
       <use xlink:href="#mddf50423bd" x="54" y="306.066828" style="stroke: #000000; stroke-width: 0.6"/>
      </g>
     </g>
    </g>
    <g id="ytick_12">
     <g id="line2d_17">
      <g>
       <use xlink:href="#mddf50423bd" x="54" y="293.476933" style="stroke: #000000; stroke-width: 0.6"/>
      </g>
     </g>
    </g>
    <g id="ytick_13">
     <g id="line2d_18">
      <g>
       <use xlink:href="#mddf50423bd" x="54" y="283.711452" style="stroke: #000000; stroke-width: 0.6"/>
      </g>
     </g>
    </g>
    <g id="ytick_14">
     <g id="line2d_19">
      <g>
       <use xlink:href="#mddf50423bd" x="54" y="275.732473" style="stroke: #000000; stroke-width: 0.6"/>
      </g>
     </g>
    </g>
    <g id="ytick_15">
     <g id="line2d_20">
      <g>
       <use xlink:href="#mddf50423bd" x="54" y="268.986342" style="stroke: #000000; stroke-width: 0.6"/>
      </g>
     </g>
    </g>
    <g id="ytick_16">
     <g id="line2d_21">
      <g>
       <use xlink:href="#mddf50423bd" x="54" y="263.142578" style="stroke: #000000; stroke-width: 0.6"/>
      </g>
     </g>
    </g>
    <g id="ytick_17">
     <g id="line2d_22">
      <g>
       <use xlink:href="#mddf50423bd" x="54" y="257.988012" style="stroke: #000000; stroke-width: 0.6"/>
      </g>
     </g>
    </g>
    <g id="ytick_18">
     <g id="line2d_23">
      <g>
       <use xlink:href="#mddf50423bd" x="54" y="223.042741" style="stroke: #000000; stroke-width: 0.6"/>
      </g>
     </g>
    </g>
    <g id="ytick_19">
     <g id="line2d_24">
      <g>
       <use xlink:href="#mddf50423bd" x="54" y="205.29828" style="stroke: #000000; stroke-width: 0.6"/>
      </g>
     </g>
    </g>
    <g id="ytick_20">
     <g id="line2d_25">
      <g>
       <use xlink:href="#mddf50423bd" x="54" y="192.708385" style="stroke: #000000; stroke-width: 0.6"/>
      </g>
     </g>
    </g>
    <g id="ytick_21">
     <g id="line2d_26">
      <g>
       <use xlink:href="#mddf50423bd" x="54" y="182.942904" style="stroke: #000000; stroke-width: 0.6"/>
      </g>
     </g>
    </g>
    <g id="ytick_22">
     <g id="line2d_27">
      <g>
       <use xlink:href="#mddf50423bd" x="54" y="174.963925" style="stroke: #000000; stroke-width: 0.6"/>
      </g>
     </g>
    </g>
    <g id="ytick_23">
     <g id="line2d_28">
      <g>
       <use xlink:href="#mddf50423bd" x="54" y="168.217794" style="stroke: #000000; stroke-width: 0.6"/>
      </g>
     </g>
    </g>
    <g id="ytick_24">
     <g id="line2d_29">
      <g>
       <use xlink:href="#mddf50423bd" x="54" y="162.374029" style="stroke: #000000; stroke-width: 0.6"/>
      </g>
     </g>
    </g>
    <g id="ytick_25">
     <g id="line2d_30">
      <g>
       <use xlink:href="#mddf50423bd" x="54" y="157.219464" style="stroke: #000000; stroke-width: 0.6"/>
      </g>
     </g>
    </g>
    <g id="ytick_26">
     <g id="line2d_31">
      <g>
       <use xlink:href="#mddf50423bd" x="54" y="122.274193" style="stroke: #000000; stroke-width: 0.6"/>
      </g>
     </g>
    </g>
    <g id="ytick_27">
     <g id="line2d_32">
      <g>
       <use xlink:href="#mddf50423bd" x="54" y="104.529732" style="stroke: #000000; stroke-width: 0.6"/>
      </g>
     </g>
    </g>
    <g id="ytick_28">
     <g id="line2d_33">
      <g>
       <use xlink:href="#mddf50423bd" x="54" y="91.939837" style="stroke: #000000; stroke-width: 0.6"/>
      </g>
     </g>
    </g>
    <g id="ytick_29">
     <g id="line2d_34">
      <g>
       <use xlink:href="#mddf50423bd" x="54" y="82.174356" style="stroke: #000000; stroke-width: 0.6"/>
      </g>
     </g>
    </g>
    <g id="ytick_30">
     <g id="line2d_35">
      <g>
       <use xlink:href="#mddf50423bd" x="54" y="74.195376" style="stroke: #000000; stroke-width: 0.6"/>
      </g>
     </g>
    </g>
    <g id="ytick_31">
     <g id="line2d_36">
      <g>
       <use xlink:href="#mddf50423bd" x="54" y="67.449246" style="stroke: #000000; stroke-width: 0.6"/>
      </g>
     </g>
    </g>
    <g id="ytick_32">
     <g id="line2d_37">
      <g>
       <use xlink:href="#mddf50423bd" x="54" y="61.605481" style="stroke: #000000; stroke-width: 0.6"/>
      </g>
     </g>
    </g>
    <g id="ytick_33">
     <g id="line2d_38">
      <g>
       <use xlink:href="#mddf50423bd" x="54" y="56.450916" style="stroke: #000000; stroke-width: 0.6"/>
      </g>
     </g>
    </g>
    <g id="text_11">
     <!-- % Transmittance -->
     <g transform="translate(17.004375 268.305) rotate(-90) scale(0.12 -0.12)">
      <defs>
       <path id="DejaVuSans-25" d="M 4653 2053 
Q 4381 2053 4226 1822 
Q 4072 1591 4072 1178 
Q 4072 772 4226 539 
Q 4381 306 4653 306 
Q 4919 306 5073 539 
Q 5228 772 5228 1178 
Q 5228 1588 5073 1820 
Q 4919 2053 4653 2053 
z
M 4653 2450 
Q 5147 2450 5437 2106 
Q 5728 1763 5728 1178 
Q 5728 594 5436 251 
Q 5144 -91 4653 -91 
Q 4153 -91 3862 251 
Q 3572 594 3572 1178 
Q 3572 1766 3864 2108 
Q 4156 2450 4653 2450 
z
M 1428 4353 
Q 1159 4353 1004 4120 
Q 850 3888 850 3481 
Q 850 3069 1003 2837 
Q 1156 2606 1428 2606 
Q 1700 2606 1854 2837 
Q 2009 3069 2009 3481 
Q 2009 3884 1853 4118 
Q 1697 4353 1428 4353 
z
M 4250 4750 
L 4750 4750 
L 1831 -91 
L 1331 -91 
L 4250 4750 
z
M 1428 4750 
Q 1922 4750 2215 4408 
Q 2509 4066 2509 3481 
Q 2509 2891 2217 2550 
Q 1925 2209 1428 2209 
Q 931 2209 642 2551 
Q 353 2894 353 3481 
Q 353 4063 643 4406 
Q 934 4750 1428 4750 
z
" transform="scale(0.015625)"/>
       <path id="DejaVuSans-54" d="M -19 4666 
L 3928 4666 
L 3928 4134 
L 2272 4134 
L 2272 0 
L 1638 0 
L 1638 4134 
L -19 4134 
L -19 4666 
z
" transform="scale(0.015625)"/>
       <path id="DejaVuSans-72" d="M 2631 2963 
Q 2534 3019 2420 3045 
Q 2306 3072 2169 3072 
Q 1681 3072 1420 2755 
Q 1159 2438 1159 1844 
L 1159 0 
L 581 0 
L 581 3500 
L 1159 3500 
L 1159 2956 
Q 1341 3275 1631 3429 
Q 1922 3584 2338 3584 
Q 2397 3584 2469 3576 
Q 2541 3569 2628 3553 
L 2631 2963 
z
" transform="scale(0.015625)"/>
       <path id="DejaVuSans-73" d="M 2834 3397 
L 2834 2853 
Q 2591 2978 2328 3040 
Q 2066 3103 1784 3103 
Q 1356 3103 1142 2972 
Q 928 2841 928 2578 
Q 928 2378 1081 2264 
Q 1234 2150 1697 2047 
L 1894 2003 
Q 2506 1872 2764 1633 
Q 3022 1394 3022 966 
Q 3022 478 2636 193 
Q 2250 -91 1575 -91 
Q 1294 -91 989 -36 
Q 684 19 347 128 
L 347 722 
Q 666 556 975 473 
Q 1284 391 1588 391 
Q 1994 391 2212 530 
Q 2431 669 2431 922 
Q 2431 1156 2273 1281 
Q 2116 1406 1581 1522 
L 1381 1569 
Q 847 1681 609 1914 
Q 372 2147 372 2553 
Q 372 3047 722 3315 
Q 1072 3584 1716 3584 
Q 2034 3584 2315 3537 
Q 2597 3491 2834 3397 
z
" transform="scale(0.015625)"/>
       <path id="DejaVuSans-69" d="M 603 3500 
L 1178 3500 
L 1178 0 
L 603 0 
L 603 3500 
z
M 603 4863 
L 1178 4863 
L 1178 4134 
L 603 4134 
L 603 4863 
z
" transform="scale(0.015625)"/>
       <path id="DejaVuSans-63" d="M 3122 3366 
L 3122 2828 
Q 2878 2963 2633 3030 
Q 2388 3097 2138 3097 
Q 1578 3097 1268 2742 
Q 959 2388 959 1747 
Q 959 1106 1268 751 
Q 1578 397 2138 397 
Q 2388 397 2633 464 
Q 2878 531 3122 666 
L 3122 134 
Q 2881 22 2623 -34 
Q 2366 -91 2075 -91 
Q 1284 -91 818 406 
Q 353 903 353 1747 
Q 353 2603 823 3093 
Q 1294 3584 2113 3584 
Q 2378 3584 2631 3529 
Q 2884 3475 3122 3366 
z
" transform="scale(0.015625)"/>
      </defs>
      <use xlink:href="#DejaVuSans-25"/>
      <use xlink:href="#DejaVuSans-20" x="95.019531"/>
      <use xlink:href="#DejaVuSans-54" x="126.806641"/>
      <use xlink:href="#DejaVuSans-72" x="173.140625"/>
      <use xlink:href="#DejaVuSans-61" x="214.253906"/>
      <use xlink:href="#DejaVuSans-6e" x="275.533203"/>
      <use xlink:href="#DejaVuSans-73" x="338.912109"/>
      <use xlink:href="#DejaVuSans-6d" x="391.011719"/>
      <use xlink:href="#DejaVuSans-69" x="488.423828"/>
      <use xlink:href="#DejaVuSans-74" x="516.207031"/>
      <use xlink:href="#DejaVuSans-74" x="555.416016"/>
      <use xlink:href="#DejaVuSans-61" x="594.625"/>
      <use xlink:href="#DejaVuSans-6e" x="655.904297"/>
      <use xlink:href="#DejaVuSans-63" x="719.283203"/>
      <use xlink:href="#DejaVuSans-65" x="774.263672"/>
     </g>
    </g>
   </g>
   <g id="line2d_39">
    <path d="M 388.8 68.225064 
L 388.1025 69.014885 
L 387.405 69.464277 
L 386.7075 67.977581 
L 386.01 68.647097 
L 385.3125 68.193257 
L 384.615 67.876452 
L 383.9175 68.441967 
L 383.22 67.424245 
L 382.5225 67.926987 
L 381.825 67.762962 
L 381.1275 68.346142 
L 380.43 68.410002 
L 379.7325 67.737782 
L 379.035 68.627826 
L 378.3375 67.93963 
L 377.64 69.203198 
L 376.9425 69.047295 
L 376.245 69.014885 
L 375.5475 69.151169 
L 374.85 68.467556 
L 374.1525 68.911334 
L 373.455 67.87014 
L 372.7575 68.320624 
L 372.06 69.196691 
L 371.3625 66.964295 
L 370.665 68.505967 
L 369.9675 69.209706 
L 369.27 68.775794 
L 368.5725 68.123363 
L 367.875 68.538002 
L 367.1775 68.550823 
L 366.48 69.190185 
L 365.7825 68.685667 
L 365.085 68.775794 
L 364.3875 69.014885 
L 363.69 69.977905 
L 362.9925 69.151169 
L 362.295 69.248774 
L 360.9 69.001928 
L 360.2025 69.07324 
L 359.505 70.050827 
L 358.8075 70.323703 
L 358.11 69.151169 
L 357.4125 69.021365 
L 356.715 69.674267 
L 356.0175 69.510126 
L 353.925 70.33038 
L 353.2275 69.536347 
L 352.53 69.575709 
L 351.8325 69.196691 
L 351.135 69.680846 
L 350.4375 70.024296 
L 349.74 70.143813 
L 349.0425 69.694006 
L 348.345 69.523235 
L 347.6475 69.720337 
L 346.95 69.470824 
L 346.2525 69.819222 
L 345.555 69.872053 
L 344.16 69.346599 
L 343.4625 69.549464 
L 342.765 69.575709 
L 342.0675 70.090654 
L 341.37 70.103938 
L 340.6725 69.549464 
L 339.975 70.343737 
L 339.2775 70.423963 
L 338.58 69.991154 
L 337.8825 70.004408 
L 336.4875 69.51668 
L 335.0925 70.197037 
L 334.395 70.203694 
L 333.6975 70.350417 
L 333 70.377146 
L 332.3025 70.117225 
L 331.605 70.030927 
L 330.9075 70.397204 
L 329.5125 70.51104 
L 328.815 70.110581 
L 328.1175 70.263658 
L 327.42 70.024296 
L 326.7225 70.685717 
L 326.025 70.584857 
L 325.3275 70.157113 
L 324.63 69.918331 
L 323.9325 70.084013 
L 323.235 69.991154 
L 322.5375 70.390517 
L 321.84 70.403892 
L 320.445 70.692449 
L 319.7475 70.827313 
L 319.05 70.678986 
L 318.3525 70.410581 
L 317.655 70.297006 
L 316.26 70.497632 
L 315.5625 70.517746 
L 314.865 70.157113 
L 314.1675 70.383831 
L 312.7725 70.417271 
L 312.075 70.33038 
L 310.68 71.037177 
L 309.9825 70.867853 
L 309.285 70.564713 
L 308.5875 70.564713 
L 307.89 70.861094 
L 307.1925 70.652071 
L 306.495 70.598292 
L 305.1 70.759829 
L 304.4025 70.9897 
L 303.705 71.057539 
L 303.0075 70.969369 
L 302.31 70.759829 
L 300.915 70.739604 
L 299.52 71.186725 
L 297.4275 71.302636 
L 296.73 71.507937 
L 293.2425 71.631581 
L 291.8475 71.514797 
L 291.15 71.364125 
L 289.0575 71.873006 
L 288.36 72.115769 
L 286.965 71.796986 
L 285.57 71.935302 
L 284.175 71.942229 
L 283.4775 72.004624 
L 282.78 71.866089 
L 282.0825 71.900682 
L 280.6875 72.324929 
L 279.99 72.380875 
L 278.595 72.241145 
L 275.805 72.478952 
L 275.1075 72.255098 
L 273.7125 72.178412 
L 273.015 72.29 
L 272.3175 72.556166 
L 271.62 72.675767 
L 270.225 72.499997 
L 269.5275 72.633518 
L 268.1325 72.598341 
L 267.435 72.937209 
L 266.7375 72.85932 
L 266.04 72.584278 
L 265.3425 72.711006 
L 264.645 73.079183 
L 263.25 73.27158 
L 262.5525 73.022338 
L 260.46 72.986848 
L 258.3675 73.371676 
L 256.9725 73.043646 
L 256.275 73.257299 
L 254.1825 73.558177 
L 253.485 73.357362 
L 252.7875 73.479176 
L 252.09 73.357362 
L 250.695 73.622921 
L 249.9975 73.58694 
L 248.6025 73.214485 
L 247.905 73.558177 
L 245.8125 73.919083 
L 244.4175 73.962593 
L 243.0225 73.810499 
L 242.325 73.868377 
L 241.6275 74.253766 
L 240.93 74.356136 
L 240.2325 74.224562 
L 239.535 73.919083 
L 238.8375 74.042473 
L 238.14 74.326863 
L 236.745 74.414741 
L 236.0475 74.166211 
L 235.35 74.195376 
L 234.6525 74.54689 
L 231.8625 74.679439 
L 230.4675 74.348816 
L 229.0725 74.864203 
L 226.98 74.782811 
L 225.585 74.775419 
L 224.19 75.139094 
L 223.4925 75.198758 
L 222.795 75.012579 
L 221.4 75.25103 
L 220.7025 75.430726 
L 219.3075 75.079512 
L 218.61 75.0944 
L 217.9125 75.25103 
L 217.215 75.603629 
L 216.5175 75.415723 
L 214.425 75.641307 
L 213.03 75.852906 
L 212.3325 75.724313 
L 211.635 75.746979 
L 210.24 76.073147 
L 209.5425 75.974281 
L 208.1475 76.233326 
L 201.87 76.671077 
L 199.7775 76.942058 
L 197.685 76.817973 
L 196.9875 77.214727 
L 196.29 77.394839 
L 194.1975 77.371304 
L 193.5 77.300775 
L 192.8025 77.709854 
L 191.4075 77.963508 
L 190.71 77.686149 
L 190.0125 77.630887 
L 189.315 78.043078 
L 188.6175 78.003275 
L 186.525 78.451148 
L 185.8275 78.435073 
L 185.13 78.571896 
L 184.4325 78.563836 
L 183.735 78.968679 
L 183.0375 78.903652 
L 182.34 78.968679 
L 181.6425 78.636432 
L 180.2475 79.665626 
L 178.8525 79.525346 
L 178.155 79.500637 
L 177.4575 79.599556 
L 176.76 80.231287 
L 176.0625 80.022472 
L 175.365 79.980829 
L 174.6675 80.147641 
L 173.2725 80.711142 
L 169.0875 81.367837 
L 168.39 81.825643 
L 167.6925 81.669624 
L 166.995 81.843013 
L 166.2975 82.481775 
L 165.6 82.525869 
L 163.5075 83.255422 
L 162.81 83.706314 
L 162.1125 83.951741 
L 161.415 83.806137 
L 160.7175 84.088687 
L 160.02 84.180223 
L 159.3225 84.872912 
L 158.625 84.919484 
L 157.9275 85.576743 
L 157.23 85.237491 
L 156.5325 85.406788 
L 155.835 86.071463 
L 153.7425 86.843661 
L 152.3475 87.14659 
L 151.65 87.798605 
L 150.255 88.68335 
L 149.5575 88.612314 
L 148.86 88.989103 
L 147.465 90.139333 
L 146.7675 90.402619 
L 146.07 90.795212 
L 145.3725 91.051763 
L 144.675 91.688919 
L 143.9775 91.493547 
L 143.28 92.225226 
L 142.5825 93.137689 
L 141.885 93.148935 
L 141.1875 93.897624 
L 140.49 93.943413 
L 139.7925 94.636066 
L 139.095 95.707969 
L 137.0025 97.113553 
L 136.305 97.671212 
L 135.6075 98.00925 
L 134.2125 99.635276 
L 133.515 100.252687 
L 132.8175 100.478169 
L 132.12 101.378319 
L 131.4225 101.691644 
L 130.725 102.71523 
L 129.33 104.050965 
L 128.6325 104.238945 
L 127.2375 106.72845 
L 126.54 107.299719 
L 125.8425 107.377492 
L 125.145 108.242251 
L 124.4475 108.817671 
L 122.355 111.934816 
L 121.6575 112.860225 
L 120.96 113.107975 
L 119.565 115.609412 
L 118.17 116.964301 
L 117.4725 117.904639 
L 116.0775 120.2433 
L 113.985 123.136006 
L 113.2875 123.810683 
L 112.59 124.889045 
L 111.8925 125.59152 
L 110.4975 128.951086 
L 109.8 129.438061 
L 108.405 131.14624 
L 107.7075 133.400874 
L 107.01 134.893273 
L 105.615 136.408134 
L 104.9175 137.78976 
L 103.5225 139.865749 
L 102.1275 144.121953 
L 101.43 145.29099 
L 100.7325 146.759314 
L 100.035 147.727138 
L 98.64 151.913879 
L 97.9425 155.037963 
L 97.245 157.170865 
L 96.5475 158.602616 
L 95.85 161.133584 
L 95.1525 162.648408 
L 94.455 163.369949 
L 93.7575 166.26157 
L 93.06 172.551726 
L 92.3625 175.997168 
L 91.665 176.071913 
L 90.9675 175.330146 
L 90.27 183.118308 
L 89.5725 183.916443 
L 88.875 188.042799 
L 88.1775 196.357433 
L 87.48 195.300015 
L 86.7825 192.92775 
L 85.3875 197.808281 
L 84.69 202.610841 
L 83.9925 206.331524 
L 83.295 206.781921 
L 82.5975 210.727224 
L 81.9 208.006147 
L 81.2025 210.071583 
L 80.505 217.308521 
L 79.8075 215.985127 
L 79.11 219.472537 
L 78.4125 225.287501 
L 77.715 218.673187 
L 77.0175 219.674677 
L 76.32 224.829243 
L 74.925 243.963129 
L 74.2275 235.925367 
L 73.53 234.480905 
L 72.8325 237.724109 
L 72.135 235.925367 
L 71.4375 241.559838 
L 70.74 259.977592 
L 70.0425 261.007363 
L 69.345 250.009033 
L 68.6475 251.241881 
L 67.95 254.710089 
L 67.2525 268.365577 
L 66.555 285.497954 
L 65.8575 296.888782 
L 65.16 287.3605 
L 64.4625 257.504436 
L 63.765 250.009033 
L 63.0675 264.815261 
L 62.37 301.895747 
L 61.6725 268.986342 
L 60.975 285.497954 
L 60.2775 328.422205 
L 59.58 285.497954 
L 59.578979 433 
M 58.185756 433 
L 58.185 323.811289 
L 57.4875 296.888782 
L 56.79 253.816931 
L 56.0925 239.920574 
L 55.395 288.322368 
L 54.789252 433 
M 51.907769 433 
L 51.9075 394.245481 
L 51.21 358.75656 
L 50.5125 346.166665 
L 50.511898 433 
M 47.722938 433 
L 47.7225 369.75489 
L 47.025 394.245481 
L 46.579445 433 
M 42.840058 433 
L 42.84 424.579837 
L 42.839942 433 
M 37.957558 433 
L 37.9575 424.579837 
L 37.957442 433 
M 33.772892 433 
L 33.7725 376.501021 
L 33.772108 433 
M 29.587979 433 
L 29.5875 363.911126 
L 28.89 376.501021 
L 28.889608 433 
M 25.207569 433 
L 24.705 376.501021 
L 24.704608 433 
M 21.217558 433 
L 21.2175 424.579837 
L 21.023889 433 
M 17.032938 433 
L 17.0325 369.75489 
L 17.032062 433 
M 13.545479 433 
L 13.545 363.911126 
L 12.8475 376.501021 
L 12.847108 433 
L 12.847108 433 
" clip-path="url(#p4491e6603e)" style="fill: none; stroke: #000000; stroke-opacity: 0.8; stroke-linecap: square"/>
   </g>
   <g id="line2d_40">
    <path d="M 388.8 72.930123 
L 388.1025 73.143221 
L 387.405 73.558177 
L 386.7075 73.128982 
L 386.01 73.450483 
L 385.3125 74.29761 
L 384.615 72.703956 
L 383.9175 73.673344 
L 383.22 73.008138 
L 382.5225 73.400317 
L 381.825 73.507887 
L 381.1275 74.115217 
L 380.43 74.341497 
L 379.7325 73.32875 
L 379.035 72.640556 
L 378.3375 73.050751 
L 377.64 73.781588 
L 376.245 74.312234 
L 375.5475 73.839428 
L 374.85 74.107937 
L 374.1525 73.630121 
L 373.455 73.00104 
L 372.7575 72.951386 
L 372.06 73.500707 
L 371.3625 72.675767 
L 370.665 74.649949 
L 369.9675 74.502796 
L 369.27 73.824961 
L 368.5725 73.796041 
L 367.875 73.926332 
L 367.1775 73.257299 
L 366.48 74.495452 
L 365.7825 73.716609 
L 364.3875 74.013408 
L 363.69 74.444073 
L 362.9925 73.803269 
L 362.295 73.948085 
L 361.5975 74.664692 
L 360.9 74.093381 
L 360.2025 73.933582 
L 359.505 74.768029 
L 358.8075 74.879018 
L 358.11 74.268376 
L 357.4125 73.824961 
L 356.715 74.819789 
L 356.0175 74.856798 
L 355.32 74.436738 
L 354.6225 74.54689 
L 353.925 75.325814 
L 353.2275 75.191296 
L 352.53 75.408223 
L 351.8325 75.852906 
L 351.135 75.348274 
L 350.4375 75.198758 
L 349.74 75.423224 
L 348.345 76.179868 
L 347.6475 75.898383 
L 346.95 75.020011 
L 346.2525 75.116741 
L 345.555 74.827188 
L 344.8575 75.724313 
L 344.16 75.845332 
L 343.4625 75.438229 
L 342.0675 75.596097 
L 341.37 75.883219 
L 340.6725 75.875639 
L 339.975 76.050312 
L 338.58 75.25103 
L 337.8825 75.716761 
L 337.185 75.596097 
L 336.4875 75.739422 
L 335.79 76.271551 
L 335.0925 76.509291 
L 334.395 76.294502 
L 333.6975 75.70166 
L 333 75.815046 
L 332.3025 76.432459 
L 331.605 76.134099 
L 330.9075 76.640215 
L 330.21 76.363426 
L 329.5125 76.493914 
L 328.1175 76.317464 
L 327.42 76.248612 
L 326.7225 76.957593 
L 326.025 76.547757 
L 325.3275 76.2792 
L 324.63 76.309809 
L 323.9325 76.841212 
L 323.235 76.640215 
L 321.84 77.261641 
L 321.1425 77.027571 
L 319.7475 77.402687 
L 319.05 77.238178 
L 318.3525 77.733571 
L 316.26 76.802487 
L 315.5625 76.725139 
L 314.865 77.238178 
L 314.1675 77.504836 
L 313.47 77.536315 
L 312.7725 77.379147 
L 310.68 77.316438 
L 309.9825 77.781045 
L 309.285 77.694049 
L 308.5875 77.222542 
L 307.1925 77.654562 
L 306.495 77.662457 
L 305.7975 78.114814 
L 304.4025 77.717758 
L 302.31 78.36281 
L 300.915 77.907895 
L 300.2175 78.170691 
L 299.52 78.290667 
L 298.8225 78.54772 
L 296.0325 78.53161 
L 295.335 78.507456 
L 293.94 79.229758 
L 293.2425 79.099024 
L 292.545 79.139836 
L 291.8475 78.952413 
L 291.15 78.410972 
L 290.4525 79.00937 
L 289.755 79.377302 
L 289.0575 79.246127 
L 287.6625 79.87274 
L 286.965 79.690428 
L 286.2675 79.748354 
L 285.57 79.525346 
L 284.8725 79.500637 
L 284.175 79.972505 
L 283.4775 79.972505 
L 282.78 79.798066 
L 282.0825 79.980829 
L 281.385 80.315092 
L 279.99 80.089184 
L 278.595 80.264789 
L 277.8975 80.618128 
L 276.5025 80.457931 
L 275.805 80.357055 
L 275.1075 80.399058 
L 273.7125 81.068117 
L 272.3175 80.999897 
L 266.7375 81.583187 
L 266.04 81.45385 
L 264.645 81.843013 
L 263.9475 82.060719 
L 263.25 82.025813 
L 262.5525 81.843013 
L 261.1575 81.843013 
L 260.46 82.428921 
L 259.7625 82.702691 
L 258.3675 82.631876 
L 257.67 82.367339 
L 256.9725 82.34976 
L 255.5775 83.031706 
L 254.88 82.809127 
L 254.1825 82.738141 
L 251.3925 83.237482 
L 250.695 83.246451 
L 249.9975 83.426214 
L 248.6025 83.246451 
L 247.905 83.47127 
L 246.51 83.679129 
L 245.8125 83.924404 
L 244.4175 84.125278 
L 243.72 84.033857 
L 243.0225 84.088687 
L 242.325 84.024726 
L 241.6275 84.566777 
L 240.93 84.742775 
L 240.2325 84.714939 
L 238.8375 84.47443 
L 238.14 84.705664 
L 237.4425 84.65932 
L 236.745 85.022116 
L 235.35 85.387945 
L 234.6525 85.416213 
L 233.955 85.218721 
L 233.2575 85.218721 
L 232.56 85.501126 
L 231.8625 85.975889 
L 231.165 85.851954 
L 229.77 85.966343 
L 229.0725 85.890051 
L 226.98 86.649331 
L 225.585 86.639637 
L 224.19 87.176017 
L 223.4925 87.254587 
L 222.0975 86.99975 
L 220.7025 87.898248 
L 220.005 87.798605 
L 219.3075 87.550485 
L 218.61 87.639646 
L 217.9125 87.898248 
L 217.215 88.470587 
L 216.5175 88.531271 
L 215.1225 88.268913 
L 208.845 89.690154 
L 208.1475 89.524187 
L 207.45 89.638222 
L 206.7525 90.402619 
L 205.3575 90.42375 
L 203.265 90.720667 
L 202.5675 91.062485 
L 199.08 91.786933 
L 198.3825 91.874241 
L 196.9875 92.479247 
L 196.29 92.645711 
L 194.895 92.734751 
L 194.1975 92.879829 
L 192.8025 93.578432 
L 191.4075 93.931961 
L 190.71 93.874747 
L 190.0125 94.450284 
L 188.6175 94.787597 
L 187.2225 94.787597 
L 186.525 95.198192 
L 185.8275 95.755693 
L 185.13 95.268968 
L 184.4325 95.815422 
L 183.735 95.719895 
L 183.0375 96.127332 
L 182.34 96.880214 
L 181.6425 97.273926 
L 180.945 97.298651 
L 180.2475 97.696162 
L 179.55 97.721127 
L 178.8525 98.147721 
L 177.4575 98.37526 
L 176.76 99.052189 
L 175.365 99.065063 
L 174.6675 99.427065 
L 173.97 99.923193 
L 173.2725 100.771703 
L 172.575 101.040273 
L 171.18 101.869739 
L 170.4825 102.062347 
L 169.0875 103.193676 
L 168.39 104.209973 
L 167.6925 104.384097 
L 166.995 104.28244 
L 165.6 105.384107 
L 164.9025 106.361845 
L 164.205 106.928317 
L 163.5075 107.206572 
L 162.81 107.658628 
L 162.1125 108.433218 
L 161.415 108.689144 
L 160.7175 109.810298 
L 160.02 110.27358 
L 159.3225 111.130228 
L 158.625 111.385408 
L 157.9275 112.142636 
L 157.23 112.666543 
L 156.5325 113.697568 
L 155.1375 115.384504 
L 154.44 115.590625 
L 152.3475 117.98392 
L 151.65 118.926395 
L 150.9525 120.076503 
L 150.255 120.536733 
L 149.5575 120.789822 
L 148.1625 123.337319 
L 147.465 124.634271 
L 146.7675 125.285729 
L 145.3725 127.006842 
L 143.28 130.799228 
L 142.5825 131.875869 
L 141.885 132.562472 
L 141.1875 133.740784 
L 140.49 134.544328 
L 139.7925 135.867469 
L 139.095 138.22865 
L 138.3975 138.991427 
L 136.305 142.703248 
L 135.6075 144.338782 
L 134.91 146.6446 
L 134.2125 148.47727 
L 133.515 149.159517 
L 132.8175 150.348474 
L 131.4225 154.715326 
L 130.725 157.025392 
L 130.0275 158.753437 
L 129.33 159.107387 
L 128.6325 160.238815 
L 127.935 162.813865 
L 125.145 171.058882 
L 124.4475 172.002964 
L 123.75 174.025848 
L 123.0525 177.28553 
L 121.6575 181.734375 
L 120.96 182.420871 
L 120.2625 184.00603 
L 119.565 186.213047 
L 118.17 193.037846 
L 117.4725 194.723416 
L 116.0775 196.715661 
L 115.38 199.692211 
L 113.985 207.237002 
L 113.2875 209.265608 
L 112.59 209.42562 
L 111.195 213.805594 
L 110.4975 219.071037 
L 109.8 221.962112 
L 109.1025 222.82447 
L 108.405 225.518442 
L 107.7075 225.287501 
L 107.01 225.984012 
L 106.3125 235.052982 
L 105.615 239.920574 
L 104.9175 241.89519 
L 104.22 238.031221 
L 103.5225 238.651986 
L 102.825 247.642877 
L 102.1275 255.163598 
L 101.43 261.007363 
L 100.7325 261.531479 
L 100.035 253.816931 
L 99.3375 256.553024 
L 98.64 263.693066 
L 97.9425 280.343389 
L 97.245 286.419319 
L 96.5475 287.3605 
L 95.85 296.888782 
L 95.1525 301.895747 
L 95.151592 433 
M 88.177892 433 
L 88.1775 376.501021 
L 87.48 424.579837 
L 87.479942 433 
M 83.992558 433 
L 83.9925 424.579837 
L 83.295 346.166665 
L 82.5975 358.75656 
L 82.596986 433 
M 80.505514 433 
L 80.505 358.75656 
L 79.966459 433 
M 79.67133 433 
L 79.11 342.663738 
L 78.4125 349.974564 
L 78.411925 433 
M 72.832979 433 
L 72.8325 363.911126 
L 72.135 299.320697 
L 71.4375 319.640208 
L 71.436715 433 
M 70.042892 433 
L 70.0425 376.501021 
L 69.345 333.57677 
L 68.6475 342.663738 
L 67.95 306.066828 
L 67.2525 354.145644 
L 67.251954 433 
M 65.858474 433 
L 65.8575 292.396305 
L 65.16 296.888782 
L 64.4625 330.923641 
L 64.461793 433 
M 62.370546 433 
L 62.37 354.145644 
L 61.6725 276.468006 
L 60.975 306.066828 
L 60.2775 301.895747 
L 59.58 280.343389 
L 58.8825 299.320697 
L 58.881574 433 
M 56.790869 433 
L 56.79 307.550469 
L 56.0925 281.995027 
L 55.395 333.57677 
L 55.394311 433 
M 51.907681 433 
L 51.9075 406.835376 
L 51.907319 433 
M 48.168055 433 
L 47.7225 394.245481 
L 47.025 424.579837 
L 47.024942 433 
M 44.235336 433 
L 44.235 384.48 
L 43.5375 369.75489 
L 42.839942 433 
M 40.050058 433 
L 40.05 424.579837 
L 39.3525 376.501021 
L 39.352108 433 
M 35.865181 433 
L 35.865 406.835376 
L 35.1675 363.911126 
L 35.167021 433 
M 30.982979 433 
L 30.9825 363.911126 
L 30.285 384.48 
L 30.284664 433 
M 27.495392 433 
L 27.495 376.501021 
L 26.7975 358.75656 
L 26.1 406.835376 
L 26.099819 433 
M 23.310575 433 
L 23.31 349.974564 
L 22.6125 354.145644 
L 21.914942 433 
M 19.125336 433 
L 19.125 384.48 
L 18.4275 358.75656 
L 18.426986 433 
M 14.940392 433 
L 14.94 376.501021 
L 14.2425 339.420534 
L 13.545 376.501021 
L 13.544608 433 
M 10.755392 433 
L 10.755 376.501021 
L 10.0575 394.245481 
L 10.057231 433 
L 10.057231 433 
" clip-path="url(#p4491e6603e)" style="fill: none; stroke: #69422a; stroke-opacity: 0.8; stroke-linecap: square"/>
   </g>
   <g id="line2d_41">
    <path d="M 388.8 74.945748 
L 388.1025 74.093381 
L 387.405 74.649949 
L 386.7075 74.195376 
L 386.01 74.444073 
L 385.3125 74.209967 
L 384.615 73.738258 
L 383.9175 74.429405 
L 383.22 74.598389 
L 382.5225 75.034878 
L 381.825 75.101846 
L 381.1275 74.768029 
L 380.43 75.079512 
L 378.3375 73.637322 
L 377.64 75.154003 
L 376.9425 75.086955 
L 374.85 75.686564 
L 374.1525 74.953168 
L 373.455 74.753251 
L 372.7575 75.042314 
L 372.06 75.603629 
L 371.3625 74.982863 
L 370.665 75.310847 
L 369.9675 75.191296 
L 369.27 75.213687 
L 368.5725 75.468255 
L 367.875 75.558458 
L 367.1775 75.258503 
L 366.48 75.724313 
L 365.7825 75.520851 
L 365.085 74.982863 
L 364.3875 75.370745 
L 363.69 76.424784 
L 362.9925 75.679018 
L 362.295 75.822615 
L 361.5975 75.822615 
L 360.9 75.641307 
L 360.2025 75.769656 
L 359.505 76.686517 
L 358.8075 76.655643 
L 358.11 76.879971 
L 357.4125 76.709686 
L 356.715 76.655643 
L 356.0175 76.787007 
L 355.32 77.316438 
L 354.6225 77.308606 
L 353.925 76.848961 
L 353.2275 76.134099 
L 352.53 76.524673 
L 351.8325 77.332107 
L 351.135 77.489105 
L 350.4375 77.339944 
L 349.74 77.820647 
L 349.0425 77.74939 
L 347.6475 77.907895 
L 346.95 77.121049 
L 346.2525 77.528443 
L 345.555 77.70195 
L 344.8575 77.559939 
L 344.16 78.003275 
L 343.4625 77.686149 
L 342.0675 78.035114 
L 341.37 77.963508 
L 340.6725 77.67825 
L 339.975 77.876148 
L 339.2775 78.226638 
L 338.58 78.154719 
L 336.4875 77.638777 
L 335.0925 78.378859 
L 334.395 78.903652 
L 333.6975 78.402942 
L 333 78.234637 
L 332.3025 77.860284 
L 331.605 78.322716 
L 330.9075 78.588021 
L 329.5125 79.360884 
L 328.815 78.993089 
L 328.1175 79.131671 
L 327.42 78.822504 
L 326.025 79.033803 
L 325.3275 79.050099 
L 324.63 79.262503 
L 323.9325 79.123507 
L 323.235 79.254314 
L 320.445 80.315092 
L 319.05 79.764919 
L 318.3525 79.715244 
L 317.655 79.525346 
L 316.9575 80.089184 
L 315.5625 79.889352 
L 314.865 80.18108 
L 313.47 79.839536 
L 312.7725 80.256411 
L 312.075 80.23966 
L 311.3775 80.441102 
L 309.9825 80.42428 
L 309.285 80.795872 
L 307.89 80.719608 
L 307.1925 80.609682 
L 305.7975 81.367837 
L 305.1 81.488302 
L 304.4025 81.402222 
L 303.0075 81.617741 
L 302.31 81.385026 
L 301.6125 81.419425 
L 300.915 81.583187 
L 300.2175 81.999652 
L 299.52 81.81696 
L 298.125 81.834327 
L 297.4275 81.635029 
L 296.73 82.086917 
L 296.0325 82.270741 
L 295.335 82.200621 
L 294.6375 82.658418 
L 293.94 82.729276 
L 293.2425 82.402518 
L 291.8475 82.747008 
L 291.15 82.844664 
L 290.4525 83.156846 
L 288.36 83.417208 
L 287.6625 83.606718 
L 286.965 83.453242 
L 286.2675 83.435221 
L 284.175 83.842493 
L 282.78 83.597675 
L 282.0825 83.960858 
L 281.385 84.492884 
L 279.99 84.152742 
L 279.2925 84.419116 
L 278.595 84.373073 
L 277.8975 84.455984 
L 277.2 84.900849 
L 276.5025 85.078199 
L 275.1075 84.984767 
L 274.41 85.078199 
L 273.7125 85.293851 
L 273.015 85.303251 
L 272.3175 85.548371 
L 270.9225 85.520018 
L 269.5275 86.061896 
L 268.83 85.985437 
L 268.1325 85.785365 
L 266.04 86.600882 
L 264.645 86.639637 
L 263.9475 86.736673 
L 262.5525 87.117182 
L 261.855 87.244758 
L 261.1575 86.960675 
L 260.46 87.176017 
L 259.7625 87.599997 
L 259.065 87.679332 
L 258.3675 87.968133 
L 257.67 87.70912 
L 256.9725 87.888273 
L 256.275 88.198546 
L 255.5775 88.268913 
L 254.1825 88.168423 
L 253.485 88.228689 
L 252.7875 88.521151 
L 252.09 88.521151 
L 250.695 88.968652 
L 249.9975 88.866545 
L 247.905 89.669374 
L 246.51 89.742148 
L 245.115 89.898501 
L 244.4175 90.328739 
L 243.0225 90.139333 
L 241.6275 91.062485 
L 238.8375 91.083938 
L 238.14 91.54773 
L 237.4425 91.710681 
L 236.745 91.623698 
L 236.0475 91.678042 
L 235.35 92.159202 
L 234.6525 92.44603 
L 233.2575 92.690208 
L 231.8625 92.612367 
L 231.165 92.823973 
L 230.4675 93.250277 
L 229.77 93.261552 
L 228.375 93.78336 
L 227.6775 93.692162 
L 226.98 94.046615 
L 225.585 94.450284 
L 224.8875 94.543077 
L 224.19 94.51986 
L 223.4925 94.729254 
L 222.795 94.752582 
L 222.0975 95.092242 
L 221.4 95.162847 
L 220.7025 95.67221 
L 219.3075 95.971099 
L 218.61 95.911158 
L 217.9125 96.079201 
L 217.215 96.526447 
L 215.82 97.076627 
L 215.1225 97.015153 
L 214.425 97.261568 
L 213.7275 97.32339 
L 212.3325 98.084726 
L 211.635 98.34992 
L 210.9375 98.109913 
L 210.24 98.540333 
L 209.5425 98.565784 
L 208.845 99.013592 
L 208.1475 99.090821 
L 207.45 99.453037 
L 206.7525 99.414085 
L 206.055 99.544062 
L 203.9625 100.41173 
L 203.265 100.438293 
L 201.87 101.134663 
L 200.475 101.979697 
L 199.08 101.828576 
L 196.9875 102.855407 
L 195.5925 102.981952 
L 194.895 103.477577 
L 194.1975 103.677409 
L 193.5 103.749 
L 192.8025 104.152085 
L 192.105 104.108719 
L 191.4075 104.763761 
L 190.0125 105.294946 
L 189.315 105.191154 
L 188.6175 105.443649 
L 187.92 105.922922 
L 187.2225 106.621206 
L 186.525 106.959147 
L 185.8275 107.067224 
L 185.13 107.020872 
L 184.4325 107.268648 
L 183.735 107.689977 
L 183.0375 108.44917 
L 182.34 109.043504 
L 181.6425 108.625022 
L 180.945 108.673105 
L 180.2475 109.728083 
L 179.55 110.25695 
L 178.8525 111.283157 
L 178.155 110.92715 
L 177.4575 111.334253 
L 176.76 111.917542 
L 176.0625 112.948546 
L 175.365 113.001625 
L 174.6675 113.751564 
L 173.97 113.607724 
L 173.2725 114.956635 
L 171.18 116.616818 
L 169.785 117.471141 
L 168.39 119.724157 
L 167.6925 119.993343 
L 166.995 120.599868 
L 166.2975 121.429024 
L 165.6 121.968917 
L 164.9025 122.980066 
L 163.5075 124.106305 
L 162.81 125.098606 
L 162.1125 126.353467 
L 160.7175 127.595924 
L 160.02 128.06797 
L 159.3225 129.412296 
L 158.625 130.375881 
L 157.9275 132.451889 
L 157.23 132.067034 
L 156.5325 132.78448 
L 155.835 133.968867 
L 155.1375 135.599621 
L 153.7425 137.820964 
L 153.045 138.481435 
L 151.65 140.591305 
L 150.255 143.33598 
L 148.86 144.848934 
L 148.1625 146.682805 
L 147.465 148.837134 
L 146.7675 150.473333 
L 146.07 150.724126 
L 144.675 153.44805 
L 143.9775 154.761272 
L 143.28 157.757643 
L 142.5825 159.209044 
L 141.885 159.413069 
L 141.1875 161.240064 
L 140.49 163.425948 
L 139.7925 166.682084 
L 138.3975 169.038181 
L 137.7 169.679882 
L 137.0025 171.866842 
L 135.6075 177.131974 
L 134.91 178.454697 
L 134.2125 180.475519 
L 132.8175 183.294417 
L 132.12 187.846551 
L 130.725 192.92775 
L 130.0275 192.381386 
L 129.33 193.037846 
L 127.935 201.526866 
L 127.2375 204.14655 
L 126.54 205.29828 
L 125.8425 208.006147 
L 125.145 207.851233 
L 124.4475 212.239348 
L 123.75 217.888175 
L 122.355 219.877755 
L 121.6575 219.877755 
L 120.96 222.391167 
L 119.565 234.766009 
L 118.8675 237.724109 
L 118.17 235.925367 
L 117.4725 235.925367 
L 116.775 242.573703 
L 116.0775 248.028459 
L 115.38 252.510469 
L 114.6825 252.083508 
L 113.985 250.416136 
L 113.2875 252.510469 
L 112.59 257.504436 
L 111.195 268.986342 
L 110.4975 269.616039 
L 109.8 263.142578 
L 108.405 274.297484 
L 107.7075 293.476933 
L 107.01 299.320697 
L 106.3125 295.721693 
L 105.615 286.419319 
L 104.9175 286.419319 
L 104.22 291.341718 
L 103.5225 310.677744 
L 102.825 333.57677 
L 102.1275 333.57677 
L 101.43 310.677744 
L 100.7325 306.066828 
L 100.035 309.086179 
L 99.3375 326.056049 
L 98.75862 433 
M 97.245438 433 
L 97.245 369.75489 
L 96.5475 354.145644 
L 95.85 354.145644 
L 95.152442 433 
M 83.295269 433 
L 83.295 394.245481 
L 82.5975 384.48 
L 81.9 394.245481 
L 81.899731 433 
M 77.715575 433 
L 77.715 349.974564 
L 77.0175 376.501021 
L 76.32 328.422205 
L 75.622442 433 
M 72.71388 433 
L 72.135 326.056049 
L 72.134259 433 
M 69.345058 433 
L 69.345 424.579837 
L 69.344942 433 
M 66.555479 433 
L 66.555 363.911126 
L 65.8575 298.087849 
L 65.16 323.811289 
L 64.4625 339.420534 
L 64.461852 433 
M 62.370269 433 
L 62.37 394.245481 
L 62.369731 433 
M 60.278014 433 
L 60.2775 358.75656 
L 60.276986 433 
M 58.883189 433 
L 58.8825 333.57677 
L 58.185 309.086179 
L 58.184142 433 
M 54.698241 433 
L 54.6975 326.056049 
L 54.696759 433 
M 53.303968 433 
L 53.3025 220.907526 
L 52.605 193.369807 
L 51.9075 194.267545 
L 51.21 194.609003 
L 50.5125 193.369807 
L 49.815 192.490114 
L 49.1175 193.369807 
L 48.42 194.83813 
L 47.7225 193.592521 
L 47.025 192.056811 
L 46.3275 193.14822 
L 45.63 195.068463 
L 44.9325 194.381069 
L 44.235 192.599114 
L 43.5375 193.037846 
L 42.84 194.494887 
L 42.1425 195.184086 
L 41.445 193.704304 
L 40.7475 193.369807 
L 40.05 194.83813 
L 39.3525 195.300015 
L 38.655 193.592521 
L 37.9575 192.81793 
L 36.5625 195.884313 
L 35.1675 193.481022 
L 34.47 194.154316 
L 33.7725 195.766827 
L 33.075 194.953145 
L 32.3775 193.369807 
L 31.68 193.816374 
L 30.9825 195.300015 
L 30.285 196.120233 
L 29.5875 194.041378 
L 28.89 193.816374 
L 28.1925 194.953145 
L 27.495 194.953145 
L 26.1 192.81793 
L 25.4025 193.704304 
L 24.705 195.416252 
L 24.0075 194.723416 
L 23.31 194.83813 
L 22.6125 193.928731 
L 21.2175 195.532799 
L 20.52 195.184086 
L 19.8225 194.381069 
L 19.125 194.041378 
L 18.4275 194.953145 
L 17.73 195.532799 
L 16.335 192.92775 
L 15.6375 194.267545 
L 14.94 195.300015 
L 14.2425 194.723416 
L 13.545 193.481022 
L 12.8475 194.381069 
L 12.15 196.002114 
L 11.4525 195.068463 
L 10.755 193.704304 
L 10.0575 194.723416 
L 9.36 196.238673 
L 8.6625 197.076845 
L 7.965 195.184086 
L 7.2675 194.723416 
L 5.8725 197.076845 
L 5.175 196.715661 
L 4.4775 195.300015 
L 3.78 195.532799 
L 3.0825 196.956119 
L 2.385 197.808281 
L 1.6875 196.715661 
L 0.99 194.953145 
L 0.2925 197.441035 
L -0.405 197.931384 
L -1 196.792176 
L -1 196.792176 
" clip-path="url(#p4491e6603e)" style="fill: none; stroke: #d28555; stroke-opacity: 0.8; stroke-linecap: square"/>
   </g>
   <g id="line2d_42">
    <path d="M 388.8 112.351447 
L 388.1025 111.624926 
L 387.405 111.539233 
L 386.7075 114.240543 
L 386.01 111.762384 
L 385.3125 112.666543 
L 384.615 111.969384 
L 383.9175 113.125726 
L 383.22 114.022544 
L 382.5225 111.113269 
L 381.825 112.334007 
L 381.1275 112.578788 
L 380.43 113.090232 
L 379.7325 114.167756 
L 379.035 113.679585 
L 378.3375 113.697568 
L 376.9425 114.532908 
L 376.245 114.514578 
L 375.5475 112.684115 
L 374.85 114.587945 
L 374.1525 114.04067 
L 373.455 115.534314 
L 372.7575 114.04067 
L 372.06 116.348449 
L 371.3625 115.873274 
L 370.665 114.295213 
L 369.9675 116.024769 
L 369.27 116.944923 
L 368.5725 114.679827 
L 367.875 115.759995 
L 367.1775 117.451538 
L 366.48 115.986846 
L 365.085 116.367564 
L 364.3875 117.944261 
L 363.69 116.597594 
L 362.9925 118.103112 
L 362.295 117.647962 
L 361.5975 116.732339 
L 360.9 117.62828 
L 360.2025 117.766241 
L 359.505 118.023614 
L 358.8075 117.746506 
L 358.11 118.946669 
L 357.4125 118.36248 
L 356.715 119.00755 
L 356.0175 118.202687 
L 355.32 118.845389 
L 354.6225 120.515708 
L 353.925 120.663094 
L 353.2275 119.703519 
L 352.53 119.313232 
L 351.8325 119.374625 
L 351.135 120.705296 
L 350.4375 120.076503 
L 349.74 121.214917 
L 349.0425 120.368816 
L 348.345 120.853324 
L 347.6475 120.620933 
L 346.95 121.321839 
L 346.2525 121.044383 
L 345.555 121.471971 
L 344.8575 120.726412 
L 344.16 121.065664 
L 343.4625 121.968917 
L 342.765 121.065664 
L 342.0675 121.214917 
L 341.37 121.644182 
L 340.6725 121.708937 
L 339.975 123.069106 
L 339.2775 122.230451 
L 337.8825 123.180662 
L 337.185 122.802528 
L 336.4875 122.980066 
L 335.79 122.758255 
L 335.0925 123.158328 
L 334.395 123.810683 
L 333.6975 123.856034 
L 333 124.358016 
L 331.605 124.819414 
L 330.9075 124.819414 
L 330.21 124.518952 
L 328.815 125.994652 
L 328.1175 126.425584 
L 327.42 126.11393 
L 326.7225 125.567922 
L 326.025 126.83651 
L 325.3275 127.275854 
L 324.63 127.868593 
L 323.9325 127.324944 
L 323.235 127.055631 
L 322.5375 126.594322 
L 321.84 127.275854 
L 320.445 127.719654 
L 319.05 129.027618 
L 318.3525 128.925606 
L 317.655 128.519918 
L 316.9575 128.444269 
L 316.26 129.696557 
L 315.5625 129.618848 
L 314.1675 129.904459 
L 313.47 129.258018 
L 312.7725 129.053158 
L 311.3775 130.560592 
L 310.68 130.959045 
L 309.9825 130.772649 
L 309.285 131.119448 
L 307.89 131.065915 
L 306.495 132.314052 
L 305.7975 132.728873 
L 305.1 133.485604 
L 304.4025 133.400874 
L 303.705 133.035593 
L 303.0075 133.854677 
L 302.31 134.026074 
L 300.915 133.883196 
L 300.2175 134.226888 
L 299.52 135.068794 
L 298.8225 134.980945 
L 298.125 134.776649 
L 297.4275 135.098116 
L 296.73 135.245022 
L 294.6375 136.377921 
L 293.2425 135.510702 
L 292.545 136.347729 
L 291.8475 137.386123 
L 289.755 138.22865 
L 289.0575 137.883438 
L 288.36 138.35486 
L 287.6625 138.671986 
L 286.965 138.35486 
L 286.2675 138.64017 
L 285.57 139.735113 
L 284.8725 140.161115 
L 284.175 139.931214 
L 282.78 139.931214 
L 282.0825 140.992193 
L 281.385 141.566477 
L 279.2925 141.600494 
L 278.595 142.459635 
L 277.8975 142.913144 
L 277.2 142.913144 
L 276.5025 143.194581 
L 275.805 143.727202 
L 274.41 143.834509 
L 273.7125 144.338782 
L 273.015 144.266387 
L 272.3175 144.520297 
L 271.62 145.29099 
L 270.225 146.302252 
L 269.5275 146.226538 
L 268.83 145.849915 
L 268.1325 146.378099 
L 267.435 147.337436 
L 266.04 148.159856 
L 264.645 147.923298 
L 263.25 148.596896 
L 261.855 149.811495 
L 261.1575 149.688507 
L 260.46 149.688507 
L 259.7625 150.724126 
L 259.065 151.272492 
L 258.3675 151.31496 
L 257.67 151.018546 
L 256.9725 151.656195 
L 256.275 152.740035 
L 255.5775 153.403462 
L 254.88 153.358919 
L 254.1825 153.136883 
L 253.485 153.26997 
L 252.09 155.362997 
L 251.3925 155.084249 
L 250.695 154.440661 
L 249.9975 155.130584 
L 248.6025 157.219464 
L 247.905 157.561175 
L 247.2075 157.12232 
L 246.51 157.12232 
L 245.8125 158.402326 
L 245.115 159.056647 
L 243.72 158.854274 
L 243.0225 159.005966 
L 241.6275 160.710236 
L 240.93 161.346803 
L 240.2325 161.776385 
L 239.535 161.561067 
L 238.8375 161.614797 
L 238.14 161.938571 
L 237.4425 163.369949 
L 236.745 164.217552 
L 235.35 163.314021 
L 234.6525 164.046713 
L 233.955 165.432472 
L 233.2575 166.321396 
L 232.56 165.963657 
L 231.8625 165.845057 
L 231.165 165.608818 
L 230.4675 166.742489 
L 229.77 168.405753 
L 229.0725 169.486382 
L 228.375 169.422071 
L 227.6775 168.405753 
L 226.98 169.229705 
L 226.2825 170.528413 
L 225.585 171.393721 
L 224.8875 171.731142 
L 224.19 170.660428 
L 223.4925 171.595861 
L 222.795 172.82871 
L 222.0975 173.670336 
L 221.4 173.741208 
L 220.7025 174.384271 
L 220.005 175.84806 
L 219.3075 176.523085 
L 218.61 176.221788 
L 217.9125 175.773696 
L 217.215 176.750427 
L 216.5175 178.931252 
L 215.82 179.737227 
L 215.1225 178.931252 
L 214.425 178.533763 
L 213.7275 179.493872 
L 213.03 181.31072 
L 212.3325 182.681109 
L 211.635 182.594191 
L 210.9375 181.904992 
L 210.24 182.076277 
L 209.5425 182.942904 
L 208.1475 185.557757 
L 207.45 185.743983 
L 206.7525 185.650771 
L 206.055 185.743983 
L 205.3575 186.496918 
L 204.66 188.437955 
L 203.9625 189.645293 
L 203.265 188.836712 
L 202.5675 188.736681 
L 201.87 189.5434 
L 201.1725 190.57317 
L 200.475 192.490114 
L 199.7775 192.92775 
L 199.08 192.056811 
L 198.3825 191.841758 
L 197.685 193.037846 
L 196.29 196.476517 
L 195.5925 195.766827 
L 194.895 194.609003 
L 194.1975 195.300015 
L 193.5 197.197905 
L 192.8025 199.692211 
L 192.105 200.208597 
L 190.71 198.302786 
L 190.0125 198.552149 
L 189.315 201.260017 
L 187.92 204.718626 
L 187.2225 204.862822 
L 186.525 202.886082 
L 185.8275 202.748245 
L 183.735 210.071583 
L 183.0375 209.106179 
L 182.34 209.106179 
L 180.945 210.892681 
L 179.55 216.926307 
L 178.8525 217.308521 
L 178.155 216.359173 
L 177.4575 218.673187 
L 176.76 219.472537 
L 176.0625 221.326316 
L 175.365 228.142636 
L 174.6675 229.898416 
L 173.97 231.197124 
L 173.2725 227.4112 
L 172.575 230.155093 
L 171.8775 234.766009 
L 171.18 244.674742 
L 170.4825 246.506106 
L 169.0875 246.506106 
L 168.39 249.605682 
L 166.995 265.966991 
L 166.2975 267.753493 
L 165.6 263.693066 
L 164.9025 256.084963 
L 164.205 256.553024 
L 163.5075 262.061949 
L 162.81 270.903286 
L 162.1125 274.297484 
L 161.415 271.561392 
L 160.7175 268.365577 
L 160.02 275.732473 
L 159.3225 285.497954 
L 158.625 296.888782 
L 157.9275 291.341718 
L 157.23 281.995027 
L 156.5325 279.540371 
L 155.1375 304.63184 
L 154.44 307.550469 
L 153.045 286.419319 
L 152.3475 290.311948 
L 150.9525 333.57677 
L 150.255 339.420534 
L 149.5575 310.677744 
L 148.86 310.677744 
L 148.1625 315.83231 
L 147.465 354.145644 
L 146.7675 384.48 
L 146.07 342.663738 
L 145.3725 323.811289 
L 144.675 358.75656 
L 144.674486 433 
M 142.582836 433 
L 142.5825 384.48 
L 141.885 349.974564 
L 141.1875 384.48 
L 141.187164 433 
M 137.700336 433 
L 137.7 384.48 
L 137.699664 433 
M 134.212558 433 
L 134.2125 424.579837 
L 134.212442 433 
M 126.540181 433 
L 126.54 406.835376 
L 126.539819 433 
M 119.565336 433 
L 119.565 384.48 
L 119.084513 433 
M 112.590392 433 
L 112.59 376.501021 
L 111.8925 384.48 
L 111.892164 433 
M 109.800438 433 
L 109.8 369.75489 
L 109.1025 363.911126 
L 109.102021 433 
M 106.312892 433 
L 106.3125 376.501021 
L 105.615 336.401184 
L 104.9175 376.501021 
L 104.917108 433 
M 102.825479 433 
L 102.825 363.911126 
L 102.1275 346.166665 
L 102.126898 433 
M 99.226108 433 
L 98.64 317.694856 
L 97.9425 339.420534 
L 97.941852 433 
M 86.085438 433 
L 86.085 369.75489 
L 85.3875 310.677744 
L 84.689942 433 
M 83.295602 433 
L 83.295 346.166665 
L 82.5975 323.811289 
L 81.9 342.663738 
L 81.899374 433 
M 77.715669 433 
L 77.715 336.401184 
L 77.0175 394.245481 
L 77.017231 433 
M 75.623014 433 
L 75.6225 358.75656 
L 74.925 293.476933 
L 74.2275 328.422205 
L 74.226776 433 
M 72.833169 433 
L 72.8325 336.401184 
L 72.135 326.056049 
L 71.4375 346.166665 
L 70.74 299.320697 
L 70.0425 314.045807 
L 70.041676 433 
M 64.463075 433 
L 64.4625 349.974564 
L 63.765 298.087849 
L 63.0675 321.676074 
L 62.37 394.245481 
L 62.369731 433 
M 59.580724 433 
L 59.58 328.422205 
L 59.579276 433 
M 57.488075 433 
L 57.4875 349.974564 
L 56.79 286.419319 
L 56.0925 273.597258 
L 55.395 301.895747 
L 55.394092 433 
M 54.000741 433 
L 54 326.056049 
L 53.3025 153.8064 
L 52.605 121.947193 
L 51.9075 121.903777 
L 50.5125 122.824681 
L 49.1175 121.49346 
L 48.42 121.817074 
L 47.7225 122.274193 
L 47.025 122.913405 
L 46.3275 122.625706 
L 45.63 122.099489 
L 44.9325 121.990652 
L 44.235 122.603654 
L 43.5375 122.824681 
L 42.84 122.669845 
L 42.1425 121.903777 
L 41.445 121.536471 
L 40.7475 122.383738 
L 40.05 122.537563 
L 39.3525 122.0777 
L 38.655 121.990652 
L 37.9575 122.186753 
L 37.26 122.559582 
L 36.5625 122.427632 
L 35.1675 121.903777 
L 33.7725 122.515555 
L 32.3775 122.361807 
L 31.68 121.817074 
L 30.9825 121.990652 
L 30.285 122.449596 
L 28.89 122.758255 
L 28.1925 122.055922 
L 27.495 122.012398 
L 26.7975 122.625706 
L 26.1 122.935614 
L 25.4025 123.091395 
L 24.705 122.012398 
L 24.0075 121.687341 
L 23.31 122.143099 
L 22.6125 122.86902 
L 21.915 123.180662 
L 20.52 122.230451 
L 19.8225 122.012398 
L 17.0325 122.691931 
L 16.335 122.055922 
L 15.6375 122.143099 
L 14.94 121.882085 
L 14.2425 122.012398 
L 13.545 122.824681 
L 12.8475 122.339887 
L 12.15 122.034154 
L 11.4525 121.947193 
L 10.755 122.099489 
L 10.0575 122.559582 
L 9.36 122.493558 
L 7.965 121.990652 
L 5.8725 122.780386 
L 5.175 122.471571 
L 4.4775 122.603654 
L 3.0825 122.339887 
L 2.385 122.957835 
L 1.6875 122.935614 
L 0.99 122.780386 
L -0.405 122.0777 
L -1 122.601667 
L -1 122.601667 
" clip-path="url(#p4491e6603e)" style="fill: none; stroke: #ffc77f; stroke-opacity: 0.8; stroke-linecap: square"/>
   </g>
   <g id="patch_3">
    <path d="M 54 384.48 
L 54 51.84 
" style="fill: none; stroke: #000000; stroke-width: 0.8; stroke-linejoin: miter; stroke-linecap: square"/>
   </g>
   <g id="patch_4">
    <path d="M 388.8 384.48 
L 388.8 51.84 
" style="fill: none; stroke: #000000; stroke-width: 0.8; stroke-linejoin: miter; stroke-linecap: square"/>
   </g>
   <g id="patch_5">
    <path d="M 54 384.48 
L 388.8 384.48 
" style="fill: none; stroke: #000000; stroke-width: 0.8; stroke-linejoin: miter; stroke-linecap: square"/>
   </g>
   <g id="patch_6">
    <path d="M 54 51.84 
L 388.8 51.84 
" style="fill: none; stroke: #000000; stroke-width: 0.8; stroke-linejoin: miter; stroke-linecap: square"/>
   </g>
   <g id="text_12">
    <!-- CdS epoxy resin -->
    <g transform="translate(156.96375 45.84) scale(0.16 -0.16)">
     <defs>
      <path id="DejaVuSans-43" d="M 4122 4306 
L 4122 3641 
Q 3803 3938 3442 4084 
Q 3081 4231 2675 4231 
Q 1875 4231 1450 3742 
Q 1025 3253 1025 2328 
Q 1025 1406 1450 917 
Q 1875 428 2675 428 
Q 3081 428 3442 575 
Q 3803 722 4122 1019 
L 4122 359 
Q 3791 134 3420 21 
Q 3050 -91 2638 -91 
Q 1578 -91 968 557 
Q 359 1206 359 2328 
Q 359 3453 968 4101 
Q 1578 4750 2638 4750 
Q 3056 4750 3426 4639 
Q 3797 4528 4122 4306 
z
" transform="scale(0.015625)"/>
      <path id="DejaVuSans-64" d="M 2906 2969 
L 2906 4863 
L 3481 4863 
L 3481 0 
L 2906 0 
L 2906 525 
Q 2725 213 2448 61 
Q 2172 -91 1784 -91 
Q 1150 -91 751 415 
Q 353 922 353 1747 
Q 353 2572 751 3078 
Q 1150 3584 1784 3584 
Q 2172 3584 2448 3432 
Q 2725 3281 2906 2969 
z
M 947 1747 
Q 947 1113 1208 752 
Q 1469 391 1925 391 
Q 2381 391 2643 752 
Q 2906 1113 2906 1747 
Q 2906 2381 2643 2742 
Q 2381 3103 1925 3103 
Q 1469 3103 1208 2742 
Q 947 2381 947 1747 
z
" transform="scale(0.015625)"/>
      <path id="DejaVuSans-53" d="M 3425 4513 
L 3425 3897 
Q 3066 4069 2747 4153 
Q 2428 4238 2131 4238 
Q 1616 4238 1336 4038 
Q 1056 3838 1056 3469 
Q 1056 3159 1242 3001 
Q 1428 2844 1947 2747 
L 2328 2669 
Q 3034 2534 3370 2195 
Q 3706 1856 3706 1288 
Q 3706 609 3251 259 
Q 2797 -91 1919 -91 
Q 1588 -91 1214 -16 
Q 841 59 441 206 
L 441 856 
Q 825 641 1194 531 
Q 1563 422 1919 422 
Q 2459 422 2753 634 
Q 3047 847 3047 1241 
Q 3047 1584 2836 1778 
Q 2625 1972 2144 2069 
L 1759 2144 
Q 1053 2284 737 2584 
Q 422 2884 422 3419 
Q 422 4038 858 4394 
Q 1294 4750 2059 4750 
Q 2388 4750 2728 4690 
Q 3069 4631 3425 4513 
z
" transform="scale(0.015625)"/>
      <path id="DejaVuSans-70" d="M 1159 525 
L 1159 -1331 
L 581 -1331 
L 581 3500 
L 1159 3500 
L 1159 2969 
Q 1341 3281 1617 3432 
Q 1894 3584 2278 3584 
Q 2916 3584 3314 3078 
Q 3713 2572 3713 1747 
Q 3713 922 3314 415 
Q 2916 -91 2278 -91 
Q 1894 -91 1617 61 
Q 1341 213 1159 525 
z
M 3116 1747 
Q 3116 2381 2855 2742 
Q 2594 3103 2138 3103 
Q 1681 3103 1420 2742 
Q 1159 2381 1159 1747 
Q 1159 1113 1420 752 
Q 1681 391 2138 391 
Q 2594 391 2855 752 
Q 3116 1113 3116 1747 
z
" transform="scale(0.015625)"/>
      <path id="DejaVuSans-6f" d="M 1959 3097 
Q 1497 3097 1228 2736 
Q 959 2375 959 1747 
Q 959 1119 1226 758 
Q 1494 397 1959 397 
Q 2419 397 2687 759 
Q 2956 1122 2956 1747 
Q 2956 2369 2687 2733 
Q 2419 3097 1959 3097 
z
M 1959 3584 
Q 2709 3584 3137 3096 
Q 3566 2609 3566 1747 
Q 3566 888 3137 398 
Q 2709 -91 1959 -91 
Q 1206 -91 779 398 
Q 353 888 353 1747 
Q 353 2609 779 3096 
Q 1206 3584 1959 3584 
z
" transform="scale(0.015625)"/>
      <path id="DejaVuSans-78" d="M 3513 3500 
L 2247 1797 
L 3578 0 
L 2900 0 
L 1881 1375 
L 863 0 
L 184 0 
L 1544 1831 
L 300 3500 
L 978 3500 
L 1906 2253 
L 2834 3500 
L 3513 3500 
z
" transform="scale(0.015625)"/>
      <path id="DejaVuSans-79" d="M 2059 -325 
Q 1816 -950 1584 -1140 
Q 1353 -1331 966 -1331 
L 506 -1331 
L 506 -850 
L 844 -850 
Q 1081 -850 1212 -737 
Q 1344 -625 1503 -206 
L 1606 56 
L 191 3500 
L 800 3500 
L 1894 763 
L 2988 3500 
L 3597 3500 
L 2059 -325 
z
" transform="scale(0.015625)"/>
     </defs>
     <use xlink:href="#DejaVuSans-43"/>
     <use xlink:href="#DejaVuSans-64" x="69.824219"/>
     <use xlink:href="#DejaVuSans-53" x="133.300781"/>
     <use xlink:href="#DejaVuSans-20" x="196.777344"/>
     <use xlink:href="#DejaVuSans-65" x="228.564453"/>
     <use xlink:href="#DejaVuSans-70" x="290.087891"/>
     <use xlink:href="#DejaVuSans-6f" x="353.564453"/>
     <use xlink:href="#DejaVuSans-78" x="411.621094"/>
     <use xlink:href="#DejaVuSans-79" x="470.800781"/>
     <use xlink:href="#DejaVuSans-20" x="529.980469"/>
     <use xlink:href="#DejaVuSans-72" x="561.767578"/>
     <use xlink:href="#DejaVuSans-65" x="600.630859"/>
     <use xlink:href="#DejaVuSans-73" x="662.154297"/>
     <use xlink:href="#DejaVuSans-69" x="714.253906"/>
     <use xlink:href="#DejaVuSans-6e" x="742.037109"/>
    </g>
   </g>
   <g id="legend_1">
    <g id="patch_7">
     <path d="M 315.28125 378.48 
L 380.4 378.48 
Q 382.8 378.48 382.8 376.08 
L 382.8 287.275625 
Q 382.8 284.875625 380.4 284.875625 
L 315.28125 284.875625 
Q 312.88125 284.875625 312.88125 287.275625 
L 312.88125 376.08 
Q 312.88125 378.48 315.28125 378.48 
z
" style="fill: #ffffff; opacity: 0.8; stroke: #cccccc; stroke-linejoin: miter"/>
    </g>
    <g id="text_13">
     <!-- % CdS -->
     <g transform="translate(325.189063 300.313438) scale(0.14 -0.14)">
      <use xlink:href="#DejaVuSans-25"/>
      <use xlink:href="#DejaVuSans-20" x="95.019531"/>
      <use xlink:href="#DejaVuSans-43" x="126.806641"/>
      <use xlink:href="#DejaVuSans-64" x="196.630859"/>
      <use xlink:href="#DejaVuSans-53" x="260.107422"/>
     </g>
    </g>
    <g id="line2d_43">
     <path d="M 317.68125 314.143125 
L 329.68125 314.143125 
L 341.68125 314.143125 
" style="fill: none; stroke: #000000; stroke-opacity: 0.8; stroke-linecap: square"/>
    </g>
    <g id="text_14">
     <!-- 0.05 -->
     <g transform="translate(351.28125 318.343125) scale(0.12 -0.12)">
      <defs>
       <path id="DejaVuSans-2e" d="M 684 794 
L 1344 794 
L 1344 0 
L 684 0 
L 684 794 
z
" transform="scale(0.015625)"/>
      </defs>
      <use xlink:href="#DejaVuSans-30"/>
      <use xlink:href="#DejaVuSans-2e" x="63.623047"/>
      <use xlink:href="#DejaVuSans-30" x="95.410156"/>
      <use xlink:href="#DejaVuSans-35" x="159.033203"/>
     </g>
    </g>
    <g id="line2d_44">
     <path d="M 317.68125 331.756875 
L 329.68125 331.756875 
L 341.68125 331.756875 
" style="fill: none; stroke: #69422a; stroke-opacity: 0.8; stroke-linecap: square"/>
    </g>
    <g id="text_15">
     <!-- 0.10 -->
     <g transform="translate(351.28125 335.956875) scale(0.12 -0.12)">
      <use xlink:href="#DejaVuSans-30"/>
      <use xlink:href="#DejaVuSans-2e" x="63.623047"/>
      <use xlink:href="#DejaVuSans-31" x="95.410156"/>
      <use xlink:href="#DejaVuSans-30" x="159.033203"/>
     </g>
    </g>
    <g id="line2d_45">
     <path d="M 317.68125 349.370625 
L 329.68125 349.370625 
L 341.68125 349.370625 
" style="fill: none; stroke: #d28555; stroke-opacity: 0.8; stroke-linecap: square"/>
    </g>
    <g id="text_16">
     <!-- 0.20 -->
     <g transform="translate(351.28125 353.570625) scale(0.12 -0.12)">
      <use xlink:href="#DejaVuSans-30"/>
      <use xlink:href="#DejaVuSans-2e" x="63.623047"/>
      <use xlink:href="#DejaVuSans-32" x="95.410156"/>
      <use xlink:href="#DejaVuSans-30" x="159.033203"/>
     </g>
    </g>
    <g id="line2d_46">
     <path d="M 317.68125 366.984375 
L 329.68125 366.984375 
L 341.68125 366.984375 
" style="fill: none; stroke: #ffc77f; stroke-opacity: 0.8; stroke-linecap: square"/>
    </g>
    <g id="text_17">
     <!-- 0.30 -->
     <g transform="translate(351.28125 371.184375) scale(0.12 -0.12)">
      <defs>
       <path id="DejaVuSans-33" d="M 2597 2516 
Q 3050 2419 3304 2112 
Q 3559 1806 3559 1356 
Q 3559 666 3084 287 
Q 2609 -91 1734 -91 
Q 1441 -91 1130 -33 
Q 819 25 488 141 
L 488 750 
Q 750 597 1062 519 
Q 1375 441 1716 441 
Q 2309 441 2620 675 
Q 2931 909 2931 1356 
Q 2931 1769 2642 2001 
Q 2353 2234 1838 2234 
L 1294 2234 
L 1294 2753 
L 1863 2753 
Q 2328 2753 2575 2939 
Q 2822 3125 2822 3475 
Q 2822 3834 2567 4026 
Q 2313 4219 1838 4219 
Q 1578 4219 1281 4162 
Q 984 4106 628 3988 
L 628 4550 
Q 988 4650 1302 4700 
Q 1616 4750 1894 4750 
Q 2613 4750 3031 4423 
Q 3450 4097 3450 3541 
Q 3450 3153 3228 2886 
Q 3006 2619 2597 2516 
z
" transform="scale(0.015625)"/>
      </defs>
      <use xlink:href="#DejaVuSans-30"/>
      <use xlink:href="#DejaVuSans-2e" x="63.623047"/>
      <use xlink:href="#DejaVuSans-33" x="95.410156"/>
      <use xlink:href="#DejaVuSans-30" x="159.033203"/>
     </g>
    </g>
   </g>
  </g>
 </g>
 <defs>
  <clipPath id="p4491e6603e">
   <rect x="54" y="51.84" width="334.8" height="332.64"/>
  </clipPath>
 </defs>
</svg>
