<?xml version="1.0" encoding="utf-8" standalone="no"?>
<!DOCTYPE svg PUBLIC "-//W3C//DTD SVG 1.1//EN"
  "http://www.w3.org/Graphics/SVG/1.1/DTD/svg11.dtd">
<svg xmlns:xlink="http://www.w3.org/1999/xlink" width="432pt" height="432pt" viewBox="0 0 432 432" xmlns="http://www.w3.org/2000/svg" version="1.1">
 <metadata>
  <rdf:RDF xmlns:dc="http://purl.org/dc/elements/1.1/" xmlns:cc="http://creativecommons.org/ns#" xmlns:rdf="http://www.w3.org/1999/02/22-rdf-syntax-ns#">
   <cc:Work>
    <dc:type rdf:resource="http://purl.org/dc/dcmitype/StillImage"/>
    <dc:date>2025-05-16T09:52:27.471335</dc:date>
    <dc:format>image/svg+xml</dc:format>
    <dc:creator>
     <cc:Agent>
      <dc:title>Matplotlib v3.8.3, https://matplotlib.org/</dc:title>
     </cc:Agent>
    </dc:creator>
   </cc:Work>
  </rdf:RDF>
 </metadata>
 <defs>
  <style type="text/css">*{stroke-linejoin: round; stroke-linecap: butt}</style>
 </defs>
 <g id="figure_1">
  <g id="patch_1">
   <path d="M 0 432 
L 432 432 
L 432 0 
L 0 0 
z
" style="fill: #ffffff"/>
  </g>
  <g id="axes_1">
   <g id="patch_2">
    <path d="M 54 384.48 
L 388.8 384.48 
L 388.8 51.84 
L 54 51.84 
z
" style="fill: #ffffff"/>
   </g>
   <g id="matplotlib.axis_1">
    <g id="xtick_1">
     <g id="line2d_1">
      <defs>
       <path id="m84ee1eae34" d="M 0 0 
L 0 3.5 
" style="stroke: #000000; stroke-width: 0.8"/>
      </defs>
      <g>
       <use xlink:href="#m84ee1eae34" x="109.8" y="384.48" style="stroke: #000000; stroke-width: 0.8"/>
      </g>
     </g>
     <g id="text_1">
      <!-- 400 -->
      <g transform="translate(100.25625 399.078438) scale(0.1 -0.1)">
       <defs>
        <path id="DejaVuSans-34" d="M 2419 4116 
L 825 1625 
L 2419 1625 
L 2419 4116 
z
M 2253 4666 
L 3047 4666 
L 3047 1625 
L 3713 1625 
L 3713 1100 
L 3047 1100 
L 3047 0 
L 2419 0 
L 2419 1100 
L 313 1100 
L 313 1709 
L 2253 4666 
z
" transform="scale(0.015625)"/>
        <path id="DejaVuSans-30" d="M 2034 4250 
Q 1547 4250 1301 3770 
Q 1056 3291 1056 2328 
Q 1056 1369 1301 889 
Q 1547 409 2034 409 
Q 2525 409 2770 889 
Q 3016 1369 3016 2328 
Q 3016 3291 2770 3770 
Q 2525 4250 2034 4250 
z
M 2034 4750 
Q 2819 4750 3233 4129 
Q 3647 3509 3647 2328 
Q 3647 1150 3233 529 
Q 2819 -91 2034 -91 
Q 1250 -91 836 529 
Q 422 1150 422 2328 
Q 422 3509 836 4129 
Q 1250 4750 2034 4750 
z
" transform="scale(0.015625)"/>
       </defs>
       <use xlink:href="#DejaVuSans-34"/>
       <use xlink:href="#DejaVuSans-30" x="63.623047"/>
       <use xlink:href="#DejaVuSans-30" x="127.246094"/>
      </g>
     </g>
    </g>
    <g id="xtick_2">
     <g id="line2d_2">
      <g>
       <use xlink:href="#m84ee1eae34" x="179.55" y="384.48" style="stroke: #000000; stroke-width: 0.8"/>
      </g>
     </g>
     <g id="text_2">
      <!-- 500 -->
      <g transform="translate(170.00625 399.078438) scale(0.1 -0.1)">
       <defs>
        <path id="DejaVuSans-35" d="M 691 4666 
L 3169 4666 
L 3169 4134 
L 1269 4134 
L 1269 2991 
Q 1406 3038 1543 3061 
Q 1681 3084 1819 3084 
Q 2600 3084 3056 2656 
Q 3513 2228 3513 1497 
Q 3513 744 3044 326 
Q 2575 -91 1722 -91 
Q 1428 -91 1123 -41 
Q 819 9 494 109 
L 494 744 
Q 775 591 1075 516 
Q 1375 441 1709 441 
Q 2250 441 2565 725 
Q 2881 1009 2881 1497 
Q 2881 1984 2565 2268 
Q 2250 2553 1709 2553 
Q 1456 2553 1204 2497 
Q 953 2441 691 2322 
L 691 4666 
z
" transform="scale(0.015625)"/>
       </defs>
       <use xlink:href="#DejaVuSans-35"/>
       <use xlink:href="#DejaVuSans-30" x="63.623047"/>
       <use xlink:href="#DejaVuSans-30" x="127.246094"/>
      </g>
     </g>
    </g>
    <g id="xtick_3">
     <g id="line2d_3">
      <g>
       <use xlink:href="#m84ee1eae34" x="249.3" y="384.48" style="stroke: #000000; stroke-width: 0.8"/>
      </g>
     </g>
     <g id="text_3">
      <!-- 600 -->
      <g transform="translate(239.75625 399.078438) scale(0.1 -0.1)">
       <defs>
        <path id="DejaVuSans-36" d="M 2113 2584 
Q 1688 2584 1439 2293 
Q 1191 2003 1191 1497 
Q 1191 994 1439 701 
Q 1688 409 2113 409 
Q 2538 409 2786 701 
Q 3034 994 3034 1497 
Q 3034 2003 2786 2293 
Q 2538 2584 2113 2584 
z
M 3366 4563 
L 3366 3988 
Q 3128 4100 2886 4159 
Q 2644 4219 2406 4219 
Q 1781 4219 1451 3797 
Q 1122 3375 1075 2522 
Q 1259 2794 1537 2939 
Q 1816 3084 2150 3084 
Q 2853 3084 3261 2657 
Q 3669 2231 3669 1497 
Q 3669 778 3244 343 
Q 2819 -91 2113 -91 
Q 1303 -91 875 529 
Q 447 1150 447 2328 
Q 447 3434 972 4092 
Q 1497 4750 2381 4750 
Q 2619 4750 2861 4703 
Q 3103 4656 3366 4563 
z
" transform="scale(0.015625)"/>
       </defs>
       <use xlink:href="#DejaVuSans-36"/>
       <use xlink:href="#DejaVuSans-30" x="63.623047"/>
       <use xlink:href="#DejaVuSans-30" x="127.246094"/>
      </g>
     </g>
    </g>
    <g id="xtick_4">
     <g id="line2d_4">
      <g>
       <use xlink:href="#m84ee1eae34" x="319.05" y="384.48" style="stroke: #000000; stroke-width: 0.8"/>
      </g>
     </g>
     <g id="text_4">
      <!-- 700 -->
      <g transform="translate(309.50625 399.078438) scale(0.1 -0.1)">
       <defs>
        <path id="DejaVuSans-37" d="M 525 4666 
L 3525 4666 
L 3525 4397 
L 1831 0 
L 1172 0 
L 2766 4134 
L 525 4134 
L 525 4666 
z
" transform="scale(0.015625)"/>
       </defs>
       <use xlink:href="#DejaVuSans-37"/>
       <use xlink:href="#DejaVuSans-30" x="63.623047"/>
       <use xlink:href="#DejaVuSans-30" x="127.246094"/>
      </g>
     </g>
    </g>
    <g id="xtick_5">
     <g id="line2d_5">
      <g>
       <use xlink:href="#m84ee1eae34" x="388.8" y="384.48" style="stroke: #000000; stroke-width: 0.8"/>
      </g>
     </g>
     <g id="text_5">
      <!-- 800 -->
      <g transform="translate(379.25625 399.078438) scale(0.1 -0.1)">
       <defs>
        <path id="DejaVuSans-38" d="M 2034 2216 
Q 1584 2216 1326 1975 
Q 1069 1734 1069 1313 
Q 1069 891 1326 650 
Q 1584 409 2034 409 
Q 2484 409 2743 651 
Q 3003 894 3003 1313 
Q 3003 1734 2745 1975 
Q 2488 2216 2034 2216 
z
M 1403 2484 
Q 997 2584 770 2862 
Q 544 3141 544 3541 
Q 544 4100 942 4425 
Q 1341 4750 2034 4750 
Q 2731 4750 3128 4425 
Q 3525 4100 3525 3541 
Q 3525 3141 3298 2862 
Q 3072 2584 2669 2484 
Q 3125 2378 3379 2068 
Q 3634 1759 3634 1313 
Q 3634 634 3220 271 
Q 2806 -91 2034 -91 
Q 1263 -91 848 271 
Q 434 634 434 1313 
Q 434 1759 690 2068 
Q 947 2378 1403 2484 
z
M 1172 3481 
Q 1172 3119 1398 2916 
Q 1625 2713 2034 2713 
Q 2441 2713 2670 2916 
Q 2900 3119 2900 3481 
Q 2900 3844 2670 4047 
Q 2441 4250 2034 4250 
Q 1625 4250 1398 4047 
Q 1172 3844 1172 3481 
z
" transform="scale(0.015625)"/>
       </defs>
       <use xlink:href="#DejaVuSans-38"/>
       <use xlink:href="#DejaVuSans-30" x="63.623047"/>
       <use xlink:href="#DejaVuSans-30" x="127.246094"/>
      </g>
     </g>
    </g>
    <g id="text_6">
     <!-- Wavelength (nm) -->
     <g transform="translate(169.569375 414.27625) scale(0.12 -0.12)">
      <defs>
       <path id="DejaVuSans-57" d="M 213 4666 
L 850 4666 
L 1831 722 
L 2809 4666 
L 3519 4666 
L 4500 722 
L 5478 4666 
L 6119 4666 
L 4947 0 
L 4153 0 
L 3169 4050 
L 2175 0 
L 1381 0 
L 213 4666 
z
" transform="scale(0.015625)"/>
       <path id="DejaVuSans-61" d="M 2194 1759 
Q 1497 1759 1228 1600 
Q 959 1441 959 1056 
Q 959 750 1161 570 
Q 1363 391 1709 391 
Q 2188 391 2477 730 
Q 2766 1069 2766 1631 
L 2766 1759 
L 2194 1759 
z
M 3341 1997 
L 3341 0 
L 2766 0 
L 2766 531 
Q 2569 213 2275 61 
Q 1981 -91 1556 -91 
Q 1019 -91 701 211 
Q 384 513 384 1019 
Q 384 1609 779 1909 
Q 1175 2209 1959 2209 
L 2766 2209 
L 2766 2266 
Q 2766 2663 2505 2880 
Q 2244 3097 1772 3097 
Q 1472 3097 1187 3025 
Q 903 2953 641 2809 
L 641 3341 
Q 956 3463 1253 3523 
Q 1550 3584 1831 3584 
Q 2591 3584 2966 3190 
Q 3341 2797 3341 1997 
z
" transform="scale(0.015625)"/>
       <path id="DejaVuSans-76" d="M 191 3500 
L 800 3500 
L 1894 563 
L 2988 3500 
L 3597 3500 
L 2284 0 
L 1503 0 
L 191 3500 
z
" transform="scale(0.015625)"/>
       <path id="DejaVuSans-65" d="M 3597 1894 
L 3597 1613 
L 953 1613 
Q 991 1019 1311 708 
Q 1631 397 2203 397 
Q 2534 397 2845 478 
Q 3156 559 3463 722 
L 3463 178 
Q 3153 47 2828 -22 
Q 2503 -91 2169 -91 
Q 1331 -91 842 396 
Q 353 884 353 1716 
Q 353 2575 817 3079 
Q 1281 3584 2069 3584 
Q 2775 3584 3186 3129 
Q 3597 2675 3597 1894 
z
M 3022 2063 
Q 3016 2534 2758 2815 
Q 2500 3097 2075 3097 
Q 1594 3097 1305 2825 
Q 1016 2553 972 2059 
L 3022 2063 
z
" transform="scale(0.015625)"/>
       <path id="DejaVuSans-6c" d="M 603 4863 
L 1178 4863 
L 1178 0 
L 603 0 
L 603 4863 
z
" transform="scale(0.015625)"/>
       <path id="DejaVuSans-6e" d="M 3513 2113 
L 3513 0 
L 2938 0 
L 2938 2094 
Q 2938 2591 2744 2837 
Q 2550 3084 2163 3084 
Q 1697 3084 1428 2787 
Q 1159 2491 1159 1978 
L 1159 0 
L 581 0 
L 581 3500 
L 1159 3500 
L 1159 2956 
Q 1366 3272 1645 3428 
Q 1925 3584 2291 3584 
Q 2894 3584 3203 3211 
Q 3513 2838 3513 2113 
z
" transform="scale(0.015625)"/>
       <path id="DejaVuSans-67" d="M 2906 1791 
Q 2906 2416 2648 2759 
Q 2391 3103 1925 3103 
Q 1463 3103 1205 2759 
Q 947 2416 947 1791 
Q 947 1169 1205 825 
Q 1463 481 1925 481 
Q 2391 481 2648 825 
Q 2906 1169 2906 1791 
z
M 3481 434 
Q 3481 -459 3084 -895 
Q 2688 -1331 1869 -1331 
Q 1566 -1331 1297 -1286 
Q 1028 -1241 775 -1147 
L 775 -588 
Q 1028 -725 1275 -790 
Q 1522 -856 1778 -856 
Q 2344 -856 2625 -561 
Q 2906 -266 2906 331 
L 2906 616 
Q 2728 306 2450 153 
Q 2172 0 1784 0 
Q 1141 0 747 490 
Q 353 981 353 1791 
Q 353 2603 747 3093 
Q 1141 3584 1784 3584 
Q 2172 3584 2450 3431 
Q 2728 3278 2906 2969 
L 2906 3500 
L 3481 3500 
L 3481 434 
z
" transform="scale(0.015625)"/>
       <path id="DejaVuSans-74" d="M 1172 4494 
L 1172 3500 
L 2356 3500 
L 2356 3053 
L 1172 3053 
L 1172 1153 
Q 1172 725 1289 603 
Q 1406 481 1766 481 
L 2356 481 
L 2356 0 
L 1766 0 
Q 1100 0 847 248 
Q 594 497 594 1153 
L 594 3053 
L 172 3053 
L 172 3500 
L 594 3500 
L 594 4494 
L 1172 4494 
z
" transform="scale(0.015625)"/>
       <path id="DejaVuSans-68" d="M 3513 2113 
L 3513 0 
L 2938 0 
L 2938 2094 
Q 2938 2591 2744 2837 
Q 2550 3084 2163 3084 
Q 1697 3084 1428 2787 
Q 1159 2491 1159 1978 
L 1159 0 
L 581 0 
L 581 4863 
L 1159 4863 
L 1159 2956 
Q 1366 3272 1645 3428 
Q 1925 3584 2291 3584 
Q 2894 3584 3203 3211 
Q 3513 2838 3513 2113 
z
" transform="scale(0.015625)"/>
       <path id="DejaVuSans-20" transform="scale(0.015625)"/>
       <path id="DejaVuSans-28" d="M 1984 4856 
Q 1566 4138 1362 3434 
Q 1159 2731 1159 2009 
Q 1159 1288 1364 580 
Q 1569 -128 1984 -844 
L 1484 -844 
Q 1016 -109 783 600 
Q 550 1309 550 2009 
Q 550 2706 781 3412 
Q 1013 4119 1484 4856 
L 1984 4856 
z
" transform="scale(0.015625)"/>
       <path id="DejaVuSans-6d" d="M 3328 2828 
Q 3544 3216 3844 3400 
Q 4144 3584 4550 3584 
Q 5097 3584 5394 3201 
Q 5691 2819 5691 2113 
L 5691 0 
L 5113 0 
L 5113 2094 
Q 5113 2597 4934 2840 
Q 4756 3084 4391 3084 
Q 3944 3084 3684 2787 
Q 3425 2491 3425 1978 
L 3425 0 
L 2847 0 
L 2847 2094 
Q 2847 2600 2669 2842 
Q 2491 3084 2119 3084 
Q 1678 3084 1418 2786 
Q 1159 2488 1159 1978 
L 1159 0 
L 581 0 
L 581 3500 
L 1159 3500 
L 1159 2956 
Q 1356 3278 1631 3431 
Q 1906 3584 2284 3584 
Q 2666 3584 2933 3390 
Q 3200 3197 3328 2828 
z
" transform="scale(0.015625)"/>
       <path id="DejaVuSans-29" d="M 513 4856 
L 1013 4856 
Q 1481 4119 1714 3412 
Q 1947 2706 1947 2009 
Q 1947 1309 1714 600 
Q 1481 -109 1013 -844 
L 513 -844 
Q 928 -128 1133 580 
Q 1338 1288 1338 2009 
Q 1338 2731 1133 3434 
Q 928 4138 513 4856 
z
" transform="scale(0.015625)"/>
      </defs>
      <use xlink:href="#DejaVuSans-57"/>
      <use xlink:href="#DejaVuSans-61" x="92.501953"/>
      <use xlink:href="#DejaVuSans-76" x="153.78125"/>
      <use xlink:href="#DejaVuSans-65" x="212.960938"/>
      <use xlink:href="#DejaVuSans-6c" x="274.484375"/>
      <use xlink:href="#DejaVuSans-65" x="302.267578"/>
      <use xlink:href="#DejaVuSans-6e" x="363.791016"/>
      <use xlink:href="#DejaVuSans-67" x="427.169922"/>
      <use xlink:href="#DejaVuSans-74" x="490.646484"/>
      <use xlink:href="#DejaVuSans-68" x="529.855469"/>
      <use xlink:href="#DejaVuSans-20" x="593.234375"/>
      <use xlink:href="#DejaVuSans-28" x="625.021484"/>
      <use xlink:href="#DejaVuSans-6e" x="664.035156"/>
      <use xlink:href="#DejaVuSans-6d" x="727.414062"/>
      <use xlink:href="#DejaVuSans-29" x="824.826172"/>
     </g>
    </g>
   </g>
   <g id="matplotlib.axis_2">
    <g id="ytick_1">
     <g id="line2d_6">
      <defs>
       <path id="mab43675148" d="M 0 0 
L -3.5 0 
" style="stroke: #000000; stroke-width: 0.8"/>
      </defs>
      <g>
       <use xlink:href="#mab43675148" x="54" y="354.145644" style="stroke: #000000; stroke-width: 0.8"/>
      </g>
     </g>
     <g id="text_7">
      <!-- $\mathdefault{10^{-1}}$ -->
      <g transform="translate(23.5 357.944863) scale(0.1 -0.1)">
       <defs>
        <path id="DejaVuSans-31" d="M 794 531 
L 1825 531 
L 1825 4091 
L 703 3866 
L 703 4441 
L 1819 4666 
L 2450 4666 
L 2450 531 
L 3481 531 
L 3481 0 
L 794 0 
L 794 531 
z
" transform="scale(0.015625)"/>
        <path id="DejaVuSans-2212" d="M 678 2272 
L 4684 2272 
L 4684 1741 
L 678 1741 
L 678 2272 
z
" transform="scale(0.015625)"/>
       </defs>
       <use xlink:href="#DejaVuSans-31" transform="translate(0 0.684375)"/>
       <use xlink:href="#DejaVuSans-30" transform="translate(63.623047 0.684375)"/>
       <use xlink:href="#DejaVuSans-2212" transform="translate(128.203125 38.965625) scale(0.7)"/>
       <use xlink:href="#DejaVuSans-31" transform="translate(186.855469 38.965625) scale(0.7)"/>
      </g>
     </g>
    </g>
    <g id="ytick_2">
     <g id="line2d_7">
      <g>
       <use xlink:href="#mab43675148" x="54" y="253.377096" style="stroke: #000000; stroke-width: 0.8"/>
      </g>
     </g>
     <g id="text_8">
      <!-- $\mathdefault{10^{0}}$ -->
      <g transform="translate(29.4 257.176315) scale(0.1 -0.1)">
       <use xlink:href="#DejaVuSans-31" transform="translate(0 0.765625)"/>
       <use xlink:href="#DejaVuSans-30" transform="translate(63.623047 0.765625)"/>
       <use xlink:href="#DejaVuSans-30" transform="translate(128.203125 39.046875) scale(0.7)"/>
      </g>
     </g>
    </g>
    <g id="ytick_3">
     <g id="line2d_8">
      <g>
       <use xlink:href="#mab43675148" x="54" y="152.608548" style="stroke: #000000; stroke-width: 0.8"/>
      </g>
     </g>
     <g id="text_9">
      <!-- $\mathdefault{10^{1}}$ -->
      <g transform="translate(29.4 156.407767) scale(0.1 -0.1)">
       <use xlink:href="#DejaVuSans-31" transform="translate(0 0.684375)"/>
       <use xlink:href="#DejaVuSans-30" transform="translate(63.623047 0.684375)"/>
       <use xlink:href="#DejaVuSans-31" transform="translate(128.203125 38.965625) scale(0.7)"/>
      </g>
     </g>
    </g>
    <g id="ytick_4">
     <g id="line2d_9">
      <g>
       <use xlink:href="#mab43675148" x="54" y="51.84" style="stroke: #000000; stroke-width: 0.8"/>
      </g>
     </g>
     <g id="text_10">
      <!-- $\mathdefault{10^{2}}$ -->
      <g transform="translate(29.4 55.639219) scale(0.1 -0.1)">
       <defs>
        <path id="DejaVuSans-32" d="M 1228 531 
L 3431 531 
L 3431 0 
L 469 0 
L 469 531 
Q 828 903 1448 1529 
Q 2069 2156 2228 2338 
Q 2531 2678 2651 2914 
Q 2772 3150 2772 3378 
Q 2772 3750 2511 3984 
Q 2250 4219 1831 4219 
Q 1534 4219 1204 4116 
Q 875 4013 500 3803 
L 500 4441 
Q 881 4594 1212 4672 
Q 1544 4750 1819 4750 
Q 2544 4750 2975 4387 
Q 3406 4025 3406 3419 
Q 3406 3131 3298 2873 
Q 3191 2616 2906 2266 
Q 2828 2175 2409 1742 
Q 1991 1309 1228 531 
z
" transform="scale(0.015625)"/>
       </defs>
       <use xlink:href="#DejaVuSans-31" transform="translate(0 0.765625)"/>
       <use xlink:href="#DejaVuSans-30" transform="translate(63.623047 0.765625)"/>
       <use xlink:href="#DejaVuSans-32" transform="translate(128.203125 39.046875) scale(0.7)"/>
      </g>
     </g>
    </g>
    <g id="ytick_5">
     <g id="line2d_10">
      <defs>
       <path id="m4da9c0859c" d="M 0 0 
L -2 0 
" style="stroke: #000000; stroke-width: 0.6"/>
      </defs>
      <g>
       <use xlink:href="#m4da9c0859c" x="54" y="384.48" style="stroke: #000000; stroke-width: 0.6"/>
      </g>
     </g>
    </g>
    <g id="ytick_6">
     <g id="line2d_11">
      <g>
       <use xlink:href="#m4da9c0859c" x="54" y="376.501021" style="stroke: #000000; stroke-width: 0.6"/>
      </g>
     </g>
    </g>
    <g id="ytick_7">
     <g id="line2d_12">
      <g>
       <use xlink:href="#m4da9c0859c" x="54" y="369.75489" style="stroke: #000000; stroke-width: 0.6"/>
      </g>
     </g>
    </g>
    <g id="ytick_8">
     <g id="line2d_13">
      <g>
       <use xlink:href="#m4da9c0859c" x="54" y="363.911126" style="stroke: #000000; stroke-width: 0.6"/>
      </g>
     </g>
    </g>
    <g id="ytick_9">
     <g id="line2d_14">
      <g>
       <use xlink:href="#m4da9c0859c" x="54" y="358.75656" style="stroke: #000000; stroke-width: 0.6"/>
      </g>
     </g>
    </g>
    <g id="ytick_10">
     <g id="line2d_15">
      <g>
       <use xlink:href="#m4da9c0859c" x="54" y="323.811289" style="stroke: #000000; stroke-width: 0.6"/>
      </g>
     </g>
    </g>
    <g id="ytick_11">
     <g id="line2d_16">
      <g>
       <use xlink:href="#m4da9c0859c" x="54" y="306.066828" style="stroke: #000000; stroke-width: 0.6"/>
      </g>
     </g>
    </g>
    <g id="ytick_12">
     <g id="line2d_17">
      <g>
       <use xlink:href="#m4da9c0859c" x="54" y="293.476933" style="stroke: #000000; stroke-width: 0.6"/>
      </g>
     </g>
    </g>
    <g id="ytick_13">
     <g id="line2d_18">
      <g>
       <use xlink:href="#m4da9c0859c" x="54" y="283.711452" style="stroke: #000000; stroke-width: 0.6"/>
      </g>
     </g>
    </g>
    <g id="ytick_14">
     <g id="line2d_19">
      <g>
       <use xlink:href="#m4da9c0859c" x="54" y="275.732473" style="stroke: #000000; stroke-width: 0.6"/>
      </g>
     </g>
    </g>
    <g id="ytick_15">
     <g id="line2d_20">
      <g>
       <use xlink:href="#m4da9c0859c" x="54" y="268.986342" style="stroke: #000000; stroke-width: 0.6"/>
      </g>
     </g>
    </g>
    <g id="ytick_16">
     <g id="line2d_21">
      <g>
       <use xlink:href="#m4da9c0859c" x="54" y="263.142578" style="stroke: #000000; stroke-width: 0.6"/>
      </g>
     </g>
    </g>
    <g id="ytick_17">
     <g id="line2d_22">
      <g>
       <use xlink:href="#m4da9c0859c" x="54" y="257.988012" style="stroke: #000000; stroke-width: 0.6"/>
      </g>
     </g>
    </g>
    <g id="ytick_18">
     <g id="line2d_23">
      <g>
       <use xlink:href="#m4da9c0859c" x="54" y="223.042741" style="stroke: #000000; stroke-width: 0.6"/>
      </g>
     </g>
    </g>
    <g id="ytick_19">
     <g id="line2d_24">
      <g>
       <use xlink:href="#m4da9c0859c" x="54" y="205.29828" style="stroke: #000000; stroke-width: 0.6"/>
      </g>
     </g>
    </g>
    <g id="ytick_20">
     <g id="line2d_25">
      <g>
       <use xlink:href="#m4da9c0859c" x="54" y="192.708385" style="stroke: #000000; stroke-width: 0.6"/>
      </g>
     </g>
    </g>
    <g id="ytick_21">
     <g id="line2d_26">
      <g>
       <use xlink:href="#m4da9c0859c" x="54" y="182.942904" style="stroke: #000000; stroke-width: 0.6"/>
      </g>
     </g>
    </g>
    <g id="ytick_22">
     <g id="line2d_27">
      <g>
       <use xlink:href="#m4da9c0859c" x="54" y="174.963925" style="stroke: #000000; stroke-width: 0.6"/>
      </g>
     </g>
    </g>
    <g id="ytick_23">
     <g id="line2d_28">
      <g>
       <use xlink:href="#m4da9c0859c" x="54" y="168.217794" style="stroke: #000000; stroke-width: 0.6"/>
      </g>
     </g>
    </g>
    <g id="ytick_24">
     <g id="line2d_29">
      <g>
       <use xlink:href="#m4da9c0859c" x="54" y="162.374029" style="stroke: #000000; stroke-width: 0.6"/>
      </g>
     </g>
    </g>
    <g id="ytick_25">
     <g id="line2d_30">
      <g>
       <use xlink:href="#m4da9c0859c" x="54" y="157.219464" style="stroke: #000000; stroke-width: 0.6"/>
      </g>
     </g>
    </g>
    <g id="ytick_26">
     <g id="line2d_31">
      <g>
       <use xlink:href="#m4da9c0859c" x="54" y="122.274193" style="stroke: #000000; stroke-width: 0.6"/>
      </g>
     </g>
    </g>
    <g id="ytick_27">
     <g id="line2d_32">
      <g>
       <use xlink:href="#m4da9c0859c" x="54" y="104.529732" style="stroke: #000000; stroke-width: 0.6"/>
      </g>
     </g>
    </g>
    <g id="ytick_28">
     <g id="line2d_33">
      <g>
       <use xlink:href="#m4da9c0859c" x="54" y="91.939837" style="stroke: #000000; stroke-width: 0.6"/>
      </g>
     </g>
    </g>
    <g id="ytick_29">
     <g id="line2d_34">
      <g>
       <use xlink:href="#m4da9c0859c" x="54" y="82.174356" style="stroke: #000000; stroke-width: 0.6"/>
      </g>
     </g>
    </g>
    <g id="ytick_30">
     <g id="line2d_35">
      <g>
       <use xlink:href="#m4da9c0859c" x="54" y="74.195376" style="stroke: #000000; stroke-width: 0.6"/>
      </g>
     </g>
    </g>
    <g id="ytick_31">
     <g id="line2d_36">
      <g>
       <use xlink:href="#m4da9c0859c" x="54" y="67.449246" style="stroke: #000000; stroke-width: 0.6"/>
      </g>
     </g>
    </g>
    <g id="ytick_32">
     <g id="line2d_37">
      <g>
       <use xlink:href="#m4da9c0859c" x="54" y="61.605481" style="stroke: #000000; stroke-width: 0.6"/>
      </g>
     </g>
    </g>
    <g id="ytick_33">
     <g id="line2d_38">
      <g>
       <use xlink:href="#m4da9c0859c" x="54" y="56.450916" style="stroke: #000000; stroke-width: 0.6"/>
      </g>
     </g>
    </g>
    <g id="text_11">
     <!-- % Transmittance -->
     <g transform="translate(17.004375 268.305) rotate(-90) scale(0.12 -0.12)">
      <defs>
       <path id="DejaVuSans-25" d="M 4653 2053 
Q 4381 2053 4226 1822 
Q 4072 1591 4072 1178 
Q 4072 772 4226 539 
Q 4381 306 4653 306 
Q 4919 306 5073 539 
Q 5228 772 5228 1178 
Q 5228 1588 5073 1820 
Q 4919 2053 4653 2053 
z
M 4653 2450 
Q 5147 2450 5437 2106 
Q 5728 1763 5728 1178 
Q 5728 594 5436 251 
Q 5144 -91 4653 -91 
Q 4153 -91 3862 251 
Q 3572 594 3572 1178 
Q 3572 1766 3864 2108 
Q 4156 2450 4653 2450 
z
M 1428 4353 
Q 1159 4353 1004 4120 
Q 850 3888 850 3481 
Q 850 3069 1003 2837 
Q 1156 2606 1428 2606 
Q 1700 2606 1854 2837 
Q 2009 3069 2009 3481 
Q 2009 3884 1853 4118 
Q 1697 4353 1428 4353 
z
M 4250 4750 
L 4750 4750 
L 1831 -91 
L 1331 -91 
L 4250 4750 
z
M 1428 4750 
Q 1922 4750 2215 4408 
Q 2509 4066 2509 3481 
Q 2509 2891 2217 2550 
Q 1925 2209 1428 2209 
Q 931 2209 642 2551 
Q 353 2894 353 3481 
Q 353 4063 643 4406 
Q 934 4750 1428 4750 
z
" transform="scale(0.015625)"/>
       <path id="DejaVuSans-54" d="M -19 4666 
L 3928 4666 
L 3928 4134 
L 2272 4134 
L 2272 0 
L 1638 0 
L 1638 4134 
L -19 4134 
L -19 4666 
z
" transform="scale(0.015625)"/>
       <path id="DejaVuSans-72" d="M 2631 2963 
Q 2534 3019 2420 3045 
Q 2306 3072 2169 3072 
Q 1681 3072 1420 2755 
Q 1159 2438 1159 1844 
L 1159 0 
L 581 0 
L 581 3500 
L 1159 3500 
L 1159 2956 
Q 1341 3275 1631 3429 
Q 1922 3584 2338 3584 
Q 2397 3584 2469 3576 
Q 2541 3569 2628 3553 
L 2631 2963 
z
" transform="scale(0.015625)"/>
       <path id="DejaVuSans-73" d="M 2834 3397 
L 2834 2853 
Q 2591 2978 2328 3040 
Q 2066 3103 1784 3103 
Q 1356 3103 1142 2972 
Q 928 2841 928 2578 
Q 928 2378 1081 2264 
Q 1234 2150 1697 2047 
L 1894 2003 
Q 2506 1872 2764 1633 
Q 3022 1394 3022 966 
Q 3022 478 2636 193 
Q 2250 -91 1575 -91 
Q 1294 -91 989 -36 
Q 684 19 347 128 
L 347 722 
Q 666 556 975 473 
Q 1284 391 1588 391 
Q 1994 391 2212 530 
Q 2431 669 2431 922 
Q 2431 1156 2273 1281 
Q 2116 1406 1581 1522 
L 1381 1569 
Q 847 1681 609 1914 
Q 372 2147 372 2553 
Q 372 3047 722 3315 
Q 1072 3584 1716 3584 
Q 2034 3584 2315 3537 
Q 2597 3491 2834 3397 
z
" transform="scale(0.015625)"/>
       <path id="DejaVuSans-69" d="M 603 3500 
L 1178 3500 
L 1178 0 
L 603 0 
L 603 3500 
z
M 603 4863 
L 1178 4863 
L 1178 4134 
L 603 4134 
L 603 4863 
z
" transform="scale(0.015625)"/>
       <path id="DejaVuSans-63" d="M 3122 3366 
L 3122 2828 
Q 2878 2963 2633 3030 
Q 2388 3097 2138 3097 
Q 1578 3097 1268 2742 
Q 959 2388 959 1747 
Q 959 1106 1268 751 
Q 1578 397 2138 397 
Q 2388 397 2633 464 
Q 2878 531 3122 666 
L 3122 134 
Q 2881 22 2623 -34 
Q 2366 -91 2075 -91 
Q 1284 -91 818 406 
Q 353 903 353 1747 
Q 353 2603 823 3093 
Q 1294 3584 2113 3584 
Q 2378 3584 2631 3529 
Q 2884 3475 3122 3366 
z
" transform="scale(0.015625)"/>
      </defs>
      <use xlink:href="#DejaVuSans-25"/>
      <use xlink:href="#DejaVuSans-20" x="95.019531"/>
      <use xlink:href="#DejaVuSans-54" x="126.806641"/>
      <use xlink:href="#DejaVuSans-72" x="173.140625"/>
      <use xlink:href="#DejaVuSans-61" x="214.253906"/>
      <use xlink:href="#DejaVuSans-6e" x="275.533203"/>
      <use xlink:href="#DejaVuSans-73" x="338.912109"/>
      <use xlink:href="#DejaVuSans-6d" x="391.011719"/>
      <use xlink:href="#DejaVuSans-69" x="488.423828"/>
      <use xlink:href="#DejaVuSans-74" x="516.207031"/>
      <use xlink:href="#DejaVuSans-74" x="555.416016"/>
      <use xlink:href="#DejaVuSans-61" x="594.625"/>
      <use xlink:href="#DejaVuSans-6e" x="655.904297"/>
      <use xlink:href="#DejaVuSans-63" x="719.283203"/>
      <use xlink:href="#DejaVuSans-65" x="774.263672"/>
     </g>
    </g>
   </g>
   <g id="line2d_39">
    <path d="M 388.8 57.854147 
L 388.1025 57.834067 
L 386.7075 57.573869 
L 386.01 57.64377 
L 385.3125 57.265641 
L 384.615 57.678763 
L 383.22 57.369798 
L 382.5225 57.524008 
L 381.825 57.934557 
L 381.1275 57.854147 
L 380.43 57.479181 
L 379.7325 57.859168 
L 379.035 57.608806 
L 378.3375 57.618793 
L 377.64 57.803965 
L 376.9425 57.628782 
L 376.245 57.748832 
L 375.5475 57.509061 
L 374.85 57.693768 
L 374.1525 57.598821 
L 372.06 57.748832 
L 371.3625 57.613799 
L 370.665 57.613799 
L 369.9675 57.783909 
L 369.27 57.603813 
L 368.5725 57.603813 
L 367.1775 58.05545 
L 366.48 58.045363 
L 365.7825 57.824031 
L 365.085 57.743824 
L 364.3875 58.050406 
L 362.295 57.954683 
L 361.5975 58.161506 
L 360.9 58.04032 
L 360.2025 58.110971 
L 359.505 58.045363 
L 356.0175 58.379474 
L 355.32 58.257683 
L 354.6225 58.348994 
L 352.53 58.252616 
L 349.74 58.465947 
L 349.0425 58.288099 
L 346.95 58.364231 
L 346.2525 58.237418 
L 345.555 58.394721 
L 344.8575 58.242483 
L 343.4625 58.257683 
L 342.0675 58.511796 
L 340.6725 58.277958 
L 334.395 58.670091 
L 333.6975 58.803297 
L 333 58.772521 
L 332.3025 58.854638 
L 331.605 58.711034 
L 327.42 58.900896 
L 326.7225 58.670091 
L 325.3275 58.68544 
L 324.63 58.5679 
L 323.235 58.736643 
L 321.84 58.598532 
L 319.7475 58.680323 
L 319.05 58.573004 
L 318.3525 58.695676 
L 316.9575 58.511796 
L 315.5625 58.68544 
L 313.47 58.460856 
L 312.075 58.711034 
L 310.68 58.767394 
L 309.285 58.54749 
L 307.89 58.68544 
L 306.495 58.654747 
L 299.52 58.670091 
L 298.8225 58.54749 
L 291.15 58.608748 
L 289.755 58.700795 
L 286.965 58.644521 
L 284.8725 58.711034 
L 283.4775 58.618966 
L 277.8975 58.757141 
L 274.41 58.81356 
L 266.7375 59.003869 
L 265.3425 58.870052 
L 257.67 59.324632 
L 255.5775 59.340212 
L 253.485 59.340212 
L 246.51 59.350602 
L 245.115 59.355798 
L 243.72 59.392187 
L 242.325 59.303866 
L 241.6275 59.423402 
L 238.8375 59.277923 
L 232.56 59.444225 
L 231.8625 59.392187 
L 230.4675 59.470266 
L 228.375 59.407792 
L 226.98 59.501537 
L 226.2825 59.423402 
L 224.19 59.53283 
L 223.4925 59.475477 
L 222.0975 59.579811 
L 220.005 59.553704 
L 216.5175 59.773489 
L 215.82 59.705342 
L 213.7275 59.82073 
L 209.5425 59.962759 
L 208.845 59.952222 
L 208.1475 60.099964 
L 207.45 60.015479 
L 206.7525 60.126399 
L 205.3575 60.147559 
L 203.9625 60.174022 
L 203.265 60.147559 
L 201.87 60.290654 
L 200.475 60.2058 
L 199.7775 60.285346 
L 198.3825 60.248206 
L 195.5925 60.269425 
L 194.1975 60.25351 
L 185.8275 60.306582 
L 185.13 60.583599 
L 180.945 60.50351 
L 180.2475 60.604981 
L 179.55 60.556887 
L 178.8525 60.674544 
L 178.155 60.476846 
L 177.4575 60.690613 
L 175.365 60.765678 
L 174.6675 61.029427 
L 173.97 60.86776 
L 171.8775 61.040226 
L 171.18 60.873139 
L 170.4825 61.072639 
L 169.0875 60.997045 
L 168.39 60.889281 
L 166.2975 61.051027 
L 164.9025 61.148363 
L 158.625 61.316506 
L 157.9275 61.300206 
L 157.23 61.474388 
L 155.835 61.376325 
L 155.1375 61.56174 
L 153.7425 61.485298 
L 153.045 61.572671 
L 152.3475 61.507125 
L 151.65 61.583605 
L 150.9525 61.518042 
L 150.255 61.687614 
L 149.5575 61.632842 
L 146.7675 61.841343 
L 141.885 62.228044 
L 141.1875 62.133816 
L 139.7925 62.16705 
L 138.3975 62.250245 
L 130.725 62.899015 
L 130.0275 62.820203 
L 127.2375 63.238398 
L 125.8425 63.374892 
L 123.75 63.591881 
L 120.96 63.954014 
L 118.8675 64.307529 
L 117.4725 64.447404 
L 115.38 64.734377 
L 113.2875 65.248584 
L 112.59 65.493022 
L 111.195 65.805017 
L 107.7075 66.890162 
L 106.3125 67.530596 
L 104.9175 68.269633 
L 103.5225 69.040811 
L 102.1275 70.117225 
L 100.035 72.528072 
L 97.9425 76.050312 
L 96.5475 78.984951 
L 95.85 80.575914 
L 92.3625 91.580271 
L 91.665 94.682635 
L 90.9675 98.975028 
L 90.27 104.022116 
L 89.5725 110.607525 
L 88.875 119.354151 
L 88.1775 130.799228 
L 87.48 145.924981 
L 86.7825 165.726778 
L 86.085 190.677493 
L 85.3875 221.326316 
L 83.9925 291.341718 
L 83.295 314.045807 
L 82.5975 321.676074 
L 81.9 321.676074 
L 81.2025 319.640208 
L 80.505 319.640208 
L 79.8075 317.694856 
L 78.4125 321.676074 
L 77.715 319.640208 
L 77.0175 315.83231 
L 75.6225 315.83231 
L 74.925 317.694856 
L 73.53 317.694856 
L 72.8325 319.640208 
L 72.135 319.640208 
L 71.4375 317.694856 
L 70.0425 321.676074 
L 69.345 315.83231 
L 68.6475 312.329383 
L 67.2525 315.83231 
L 66.555 315.83231 
L 65.16 319.640208 
L 64.4625 317.694856 
L 63.765 314.045807 
L 62.37 314.045807 
L 61.6725 317.694856 
L 60.975 317.694856 
L 58.8825 312.329383 
L 58.185 312.329383 
L 56.0925 317.694856 
L 55.395 312.329383 
L 54.6975 310.677744 
L 54 312.329383 
L 53.3025 303.242414 
L 52.605 292.396305 
L 51.21 292.396305 
L 50.5125 293.476933 
L 49.1175 291.341718 
L 47.025 291.341718 
L 46.3275 290.311948 
L 44.235 290.311948 
L 43.5375 289.305852 
L 42.1425 289.305852 
L 41.445 288.322368 
L 39.3525 288.322368 
L 38.655 287.3605 
L 36.5625 287.3605 
L 35.865 286.419319 
L 33.7725 286.419319 
L 33.075 285.497954 
L 30.9825 285.497954 
L 30.285 284.595587 
L 28.1925 284.595587 
L 26.7975 282.844825 
L 26.1 283.711452 
L 24.705 283.711452 
L 24.0075 282.844825 
L 22.6125 284.595587 
L 21.915 283.711452 
L 19.8225 283.711452 
L 19.125 284.595587 
L 18.4275 283.711452 
L 17.73 283.711452 
L 17.0325 284.595587 
L 16.335 284.595587 
L 14.94 282.844825 
L 14.2425 282.844825 
L 13.545 283.711452 
L 12.15 281.995027 
L 10.755 283.711452 
L 10.0575 283.711452 
L 9.36 282.844825 
L 8.6625 282.844825 
L 7.965 283.711452 
L 7.2675 283.711452 
L 6.57 282.844825 
L 5.8725 282.844825 
L 5.175 283.711452 
L 2.385 283.711452 
L 1.6875 284.595587 
L 0.2925 282.844825 
L -1 284.465661 
L -1 284.465661 
" clip-path="url(#pff361516a8)" style="fill: none; stroke: #000000; stroke-opacity: 0.8; stroke-width: 1.25; stroke-linecap: square"/>
   </g>
   <g id="line2d_40">
    <path d="M 388.8 152.477455 
L 388.1025 152.871918 
L 387.405 152.960062 
L 386.01 152.740035 
L 385.3125 152.871918 
L 384.615 152.433844 
L 383.9175 152.783952 
L 383.22 153.403462 
L 382.5225 153.26997 
L 380.43 153.492684 
L 379.7325 152.827913 
L 379.035 152.960062 
L 378.3375 153.492684 
L 376.9425 154.031868 
L 376.245 153.761445 
L 375.5475 153.896448 
L 374.85 153.403462 
L 374.1525 153.941541 
L 373.455 154.213082 
L 372.7575 153.851401 
L 372.06 154.258503 
L 369.9675 153.896448 
L 369.27 154.213082 
L 368.5725 154.349487 
L 367.875 153.941541 
L 366.48 154.167708 
L 365.7825 154.486319 
L 364.3875 154.213082 
L 363.69 154.761272 
L 362.9925 154.440661 
L 361.5975 154.761272 
L 360.9 155.176968 
L 360.2025 154.945538 
L 359.505 154.991726 
L 358.8075 154.807266 
L 358.11 155.362997 
L 356.0175 155.316415 
L 355.32 155.037963 
L 353.925 155.643531 
L 352.53 155.409628 
L 351.8325 155.643531 
L 349.74 155.973111 
L 348.345 155.878691 
L 346.95 156.257596 
L 346.2525 155.973111 
L 344.8575 156.162562 
L 344.16 156.257596 
L 343.4625 156.067734 
L 342.765 156.115122 
L 341.37 156.63981 
L 340.6725 156.448286 
L 339.2775 156.352837 
L 338.58 156.735888 
L 337.8825 156.63981 
L 335.79 156.977008 
L 335.0925 156.784005 
L 334.395 157.025392 
L 333.6975 156.832176 
L 332.3025 157.316824 
L 331.605 157.025392 
L 328.815 157.806899 
L 327.42 157.463271 
L 326.7225 157.512196 
L 326.025 157.757643 
L 325.3275 157.806899 
L 324.63 157.61021 
L 322.5375 157.954998 
L 320.445 158.05401 
L 319.05 158.352396 
L 314.865 158.452312 
L 314.1675 158.502356 
L 313.47 158.703105 
L 311.3775 158.753437 
L 308.5875 159.056647 
L 306.495 159.107387 
L 305.1 159.259961 
L 304.4025 159.259961 
L 303.705 159.515439 
L 301.6125 159.618049 
L 300.915 159.464224 
L 299.52 159.772417 
L 297.4275 159.823994 
L 294.6375 160.186746 
L 291.8475 160.186746 
L 289.0575 160.710236 
L 287.6625 160.605036 
L 284.175 161.080441 
L 282.0825 161.080441 
L 281.385 161.346803 
L 277.8975 161.453804 
L 276.5025 161.614797 
L 275.805 161.83038 
L 274.41 161.83038 
L 272.3175 161.884442 
L 270.9225 162.155759 
L 270.225 162.04703 
L 268.1325 162.31936 
L 266.7375 162.428768 
L 260.46 162.979949 
L 258.3675 163.20238 
L 254.88 163.482018 
L 253.485 163.707023 
L 252.7875 163.650663 
L 251.3925 163.93319 
L 250.695 163.876538 
L 245.115 164.389061 
L 244.4175 164.274647 
L 242.325 164.561244 
L 241.6275 164.561244 
L 240.2325 164.734108 
L 238.14 164.907657 
L 237.4425 165.081897 
L 236.0475 165.198443 
L 235.35 165.081897 
L 232.56 165.491175 
L 231.165 165.608818 
L 229.77 165.549957 
L 229.0725 165.549957 
L 228.375 165.785878 
L 226.98 165.963657 
L 224.19 166.142161 
L 223.4925 166.082579 
L 221.4 166.501369 
L 220.7025 166.441296 
L 220.005 166.501369 
L 219.3075 166.742489 
L 216.5175 166.802977 
L 215.1225 167.351167 
L 214.425 167.106679 
L 213.7275 167.167673 
L 213.03 167.351167 
L 211.635 167.412503 
L 210.9375 167.720479 
L 208.845 167.597028 
L 208.1475 167.65871 
L 207.45 167.844279 
L 206.7525 167.844279 
L 204.66 168.34301 
L 202.5675 168.405753 
L 201.87 168.468587 
L 201.1725 168.720825 
L 200.475 168.657629 
L 199.08 168.847491 
L 197.685 169.229705 
L 195.5925 169.293733 
L 194.895 169.550787 
L 192.8025 169.615287 
L 191.4075 170.004296 
L 190.71 169.874242 
L 190.0125 170.069468 
L 188.6175 170.134738 
L 187.92 170.331133 
L 186.525 170.462554 
L 185.8275 170.396794 
L 185.13 170.528413 
L 183.735 170.528413 
L 183.0375 170.859202 
L 182.34 170.925661 
L 181.6425 170.859202 
L 180.945 170.925661 
L 180.2475 170.859202 
L 179.55 171.259478 
L 178.8525 171.192511 
L 177.4575 171.393721 
L 176.76 171.192511 
L 175.365 171.393721 
L 173.97 171.595861 
L 173.2725 171.460998 
L 172.575 171.798939 
L 171.8775 171.731142 
L 167.6925 172.071184 
L 166.995 172.002964 
L 166.2975 172.207944 
L 165.6 172.207944 
L 163.5075 172.689999 
L 162.1125 172.551726 
L 160.02 172.89823 
L 159.3225 172.89823 
L 158.625 173.107457 
L 155.835 173.317689 
L 155.1375 173.599579 
L 153.7425 173.741208 
L 153.045 173.599579 
L 152.3475 173.599579 
L 151.65 173.741208 
L 150.9525 174.025848 
L 150.255 173.812194 
L 149.5575 174.097298 
L 148.86 173.954514 
L 147.465 174.168865 
L 145.3725 174.528466 
L 143.9775 174.456309 
L 143.28 174.745654 
L 142.5825 174.891047 
L 141.885 174.600742 
L 141.1875 174.963925 
L 140.49 175.18329 
L 139.7925 175.036924 
L 139.095 175.110046 
L 138.3975 175.330146 
L 133.515 175.84806 
L 132.8175 175.773696 
L 132.12 175.922551 
L 131.4225 175.922551 
L 130.0275 176.372177 
L 125.145 176.978956 
L 122.355 177.516877 
L 121.6575 177.439626 
L 120.96 177.671792 
L 120.2625 177.671792 
L 119.565 177.983275 
L 118.8675 178.139852 
L 118.17 178.454697 
L 116.0775 178.771823 
L 115.38 179.251863 
L 113.985 179.900219 
L 113.2875 180.06382 
L 112.59 180.475519 
L 111.8925 180.641289 
L 111.195 180.974724 
L 110.4975 181.649315 
L 109.8 182.162171 
L 109.1025 182.855465 
L 108.405 183.382739 
L 107.01 184.912134 
L 106.3125 185.743983 
L 104.9175 188.736681 
L 103.5225 192.81793 
L 102.1275 197.685523 
L 101.43 201.393238 
L 100.7325 205.738115 
L 99.3375 216.926307 
L 98.64 223.926876 
L 97.9425 232.535553 
L 97.245 242.573703 
L 95.85 267.149853 
L 93.7575 314.045807 
L 93.06 326.056049 
L 92.3625 326.056049 
L 91.665 323.811289 
L 90.9675 323.811289 
L 90.27 326.056049 
L 89.5725 326.056049 
L 88.875 328.422205 
L 88.1775 326.056049 
L 87.48 321.676074 
L 86.7825 319.640208 
L 86.085 319.640208 
L 85.3875 317.694856 
L 84.69 317.694856 
L 83.9925 319.640208 
L 82.5975 315.83231 
L 81.9 317.694856 
L 81.2025 317.694856 
L 80.505 315.83231 
L 79.8075 315.83231 
L 79.11 317.694856 
L 77.0175 317.694856 
L 76.32 314.045807 
L 75.6225 314.045807 
L 74.925 315.83231 
L 74.2275 315.83231 
L 72.135 321.676074 
L 70.74 321.676074 
L 70.0425 323.811289 
L 69.345 321.676074 
L 68.6475 323.811289 
L 67.95 330.923641 
L 66.555 330.923641 
L 65.8575 333.57677 
L 63.765 333.57677 
L 63.0675 336.401184 
L 61.6725 336.401184 
L 60.975 333.57677 
L 60.2775 333.57677 
L 59.58 330.923641 
L 58.8825 330.923641 
L 58.185 339.420534 
L 57.4875 339.420534 
L 56.79 336.401184 
L 56.0925 336.401184 
L 54.6975 342.663738 
L 54 346.166665 
L 53.3025 330.923641 
L 52.605 319.640208 
L 51.9075 317.694856 
L 48.42 317.694856 
L 46.3275 312.329383 
L 44.9325 312.329383 
L 44.235 310.677744 
L 43.5375 312.329383 
L 42.84 312.329383 
L 40.7475 307.550469 
L 39.3525 307.550469 
L 38.655 309.086179 
L 37.9575 309.086179 
L 37.26 307.550469 
L 33.7725 307.550469 
L 33.075 309.086179 
L 32.3775 309.086179 
L 31.68 307.550469 
L 30.9825 307.550469 
L 30.285 306.066828 
L 28.89 309.086179 
L 26.7975 309.086179 
L 26.1 307.550469 
L 25.4025 307.550469 
L 24.0075 310.677744 
L 23.31 310.677744 
L 22.6125 309.086179 
L 21.915 309.086179 
L 21.2175 307.550469 
L 20.52 307.550469 
L 19.8225 309.086179 
L 18.4275 309.086179 
L 17.73 307.550469 
L 15.6375 307.550469 
L 14.2425 310.677744 
L 13.545 309.086179 
L 11.4525 309.086179 
L 10.755 310.677744 
L 10.0575 314.045807 
L 7.2675 314.045807 
L 5.175 319.640208 
L 3.0825 319.640208 
L 2.385 317.694856 
L 1.6875 319.640208 
L 0.99 319.640208 
L 0.2925 321.676074 
L -1 321.676074 
L -1 321.676074 
" clip-path="url(#pff361516a8)" style="fill: none; stroke: #69422a; stroke-opacity: 0.8; stroke-width: 1.25; stroke-linecap: square"/>
   </g>
   <g id="line2d_41">
    <path d="M 388.8 140.326073 
L 388.1025 140.558063 
L 387.405 140.524846 
L 386.7075 140.161115 
L 384.615 140.657865 
L 383.9175 140.757896 
L 383.22 140.691183 
L 382.5225 140.891626 
L 381.825 140.624573 
L 381.1275 141.396786 
L 380.43 140.891626 
L 379.7325 140.79129 
L 379.035 141.059366 
L 378.3375 140.858155 
L 377.64 141.092991 
L 376.9425 141.160319 
L 376.245 140.858155 
L 375.5475 141.126642 
L 374.85 140.992193 
L 374.1525 141.160319 
L 373.455 141.498522 
L 372.7575 140.992193 
L 371.3625 141.736828 
L 370.665 141.770978 
L 369.9675 141.566477 
L 369.27 141.702705 
L 368.5725 141.566477 
L 367.875 141.907846 
L 367.1775 141.907846 
L 366.48 142.079534 
L 365.7825 142.079534 
L 365.085 141.805155 
L 364.3875 141.97644 
L 363.69 142.010778 
L 362.9925 142.251898 
L 362.295 142.148398 
L 361.5975 142.39028 
L 360.2025 142.494354 
L 358.8075 142.668363 
L 358.11 142.529101 
L 357.4125 142.983334 
L 356.0175 142.529101 
L 355.32 142.738161 
L 354.6225 142.633506 
L 352.53 143.124052 
L 351.135 143.159302 
L 349.74 143.265223 
L 349.0425 143.265223 
L 347.6475 143.548941 
L 346.2525 143.300588 
L 345.555 143.477839 
L 344.8575 143.870337 
L 343.4625 144.049915 
L 342.765 143.727202 
L 342.0675 143.977995 
L 341.37 144.085919 
L 340.6725 143.762942 
L 339.2775 144.266387 
L 338.58 144.121953 
L 335.79 144.230234 
L 335.0925 144.629569 
L 333 144.338782 
L 332.3025 144.375025 
L 331.605 144.593115 
L 330.21 144.666053 
L 328.815 145.069404 
L 328.1175 144.77569 
L 327.42 144.848934 
L 326.7225 145.180057 
L 326.025 144.995791 
L 325.3275 144.95903 
L 324.63 145.217004 
L 323.235 145.253981 
L 321.84 145.217004 
L 319.05 145.550934 
L 318.3525 145.476507 
L 316.26 145.924981 
L 315.5625 146.037821 
L 314.865 145.962562 
L 313.47 146.188729 
L 312.7725 146.037821 
L 311.3775 146.340159 
L 310.68 146.188729 
L 308.5875 146.454076 
L 307.89 146.340159 
L 307.1925 146.492115 
L 306.495 146.835957 
L 305.1 146.721042 
L 303.705 146.912735 
L 303.0075 146.835957 
L 300.2175 147.298656 
L 299.52 147.25991 
L 298.8225 147.10527 
L 298.125 147.298656 
L 296.73 147.37625 
L 296.0325 147.648919 
L 294.6375 147.648919 
L 293.2425 147.805496 
L 291.8475 147.7663 
L 289.0575 148.278617 
L 287.6625 148.080861 
L 286.965 148.199408 
L 286.2675 148.437467 
L 285.57 148.437467 
L 284.8725 148.318276 
L 283.4775 148.636845 
L 282.78 148.797003 
L 281.385 148.877302 
L 280.6875 148.917508 
L 279.99 148.837134 
L 278.595 148.998029 
L 277.8975 149.078698 
L 277.2 149.281025 
L 273.015 149.565863 
L 271.62 149.729464 
L 270.225 149.77046 
L 268.1325 149.976019 
L 267.435 149.893679 
L 262.5525 150.431674 
L 261.855 150.390054 
L 260.46 150.59855 
L 256.9725 150.850063 
L 256.275 151.018546 
L 254.88 150.976364 
L 253.485 151.272492 
L 249.9975 151.52792 
L 249.3 151.656195 
L 247.2075 151.699037 
L 245.8125 151.956974 
L 245.115 151.827816 
L 244.4175 151.827816 
L 243.72 152.043292 
L 242.325 152.043292 
L 241.6275 152.000112 
L 240.2325 152.216441 
L 239.535 152.390277 
L 238.14 152.564807 
L 236.745 152.827913 
L 235.35 152.827913 
L 227.6775 153.403462 
L 226.2825 153.582088 
L 225.585 153.537363 
L 220.7025 154.077101 
L 219.3075 154.077101 
L 217.9125 154.303972 
L 215.82 154.486319 
L 215.1225 154.623579 
L 214.425 154.577778 
L 213.7275 154.761272 
L 208.845 155.176968 
L 203.9625 155.878691 
L 203.265 156.115122 
L 200.475 156.59185 
L 199.08 157.073829 
L 198.3825 157.414401 
L 196.29 158.05401 
L 194.1975 159.310938 
L 192.8025 160.447709 
L 191.4075 161.776385 
L 190.71 162.53845 
L 188.6175 165.904317 
L 187.2225 168.910962 
L 185.8275 173.037604 
L 185.13 175.551359 
L 183.735 181.649315 
L 181.6425 194.381069 
L 180.945 199.308881 
L 180.2475 205.444401 
L 178.155 228.637141 
L 177.4575 238.340503 
L 175.365 272.908059 
L 173.2725 314.045807 
L 172.575 326.056049 
L 171.8775 342.663738 
L 171.18 349.974564 
L 169.785 358.75656 
L 169.0875 363.911126 
L 165.6 363.911126 
L 164.9025 358.75656 
L 164.205 358.75656 
L 163.5075 363.911126 
L 162.81 358.75656 
L 162.1125 358.75656 
L 161.415 363.911126 
L 160.7175 358.75656 
L 157.9275 358.75656 
L 157.23 354.145644 
L 156.5325 358.75656 
L 155.835 358.75656 
L 155.1375 354.145644 
L 154.44 354.145644 
L 153.7425 358.75656 
L 153.045 358.75656 
L 152.3475 354.145644 
L 151.65 354.145644 
L 150.9525 358.75656 
L 150.255 358.75656 
L 149.5575 354.145644 
L 148.86 354.145644 
L 148.1625 358.75656 
L 147.465 358.75656 
L 146.7675 354.145644 
L 146.07 358.75656 
L 144.675 358.75656 
L 143.9775 354.145644 
L 143.28 354.145644 
L 142.5825 358.75656 
L 141.885 358.75656 
L 141.1875 354.145644 
L 140.49 358.75656 
L 136.305 358.75656 
L 135.6075 354.145644 
L 134.91 354.145644 
L 134.2125 358.75656 
L 133.515 358.75656 
L 132.8175 354.145644 
L 132.12 354.145644 
L 131.4225 358.75656 
L 130.725 354.145644 
L 128.6325 354.145644 
L 127.935 358.75656 
L 127.2375 354.145644 
L 126.54 354.145644 
L 125.8425 358.75656 
L 125.145 358.75656 
L 124.4475 354.145644 
L 120.96 354.145644 
L 120.2625 358.75656 
L 118.8675 349.974564 
L 118.17 349.974564 
L 117.4725 354.145644 
L 116.0775 354.145644 
L 115.38 349.974564 
L 114.6825 354.145644 
L 113.985 354.145644 
L 112.59 346.166665 
L 111.195 346.166665 
L 110.4975 336.401184 
L 109.8 323.811289 
L 106.3125 251.241881 
L 104.9175 229.389536 
L 104.22 221.326316 
L 102.825 208.947328 
L 102.1275 204.862822 
L 101.43 201.795353 
L 100.7325 199.692211 
L 100.035 198.42729 
L 99.3375 198.302786 
L 98.64 199.05518 
L 97.9425 200.599925 
L 97.245 202.748245 
L 95.85 209.586219 
L 94.455 221.537223 
L 93.7575 228.142636 
L 91.665 254.261232 
L 90.9675 263.693066 
L 88.875 299.320697 
L 88.1775 314.045807 
L 86.085 349.974564 
L 85.3875 346.166665 
L 84.69 346.166665 
L 83.9925 349.974564 
L 81.9 349.974564 
L 81.2025 342.663738 
L 79.11 342.663738 
L 78.4125 339.420534 
L 77.715 339.420534 
L 77.0175 346.166665 
L 76.32 346.166665 
L 75.6225 342.663738 
L 74.2275 342.663738 
L 73.53 333.57677 
L 72.135 339.420534 
L 71.4375 339.420534 
L 70.74 333.57677 
L 70.0425 333.57677 
L 69.345 336.401184 
L 67.95 330.923641 
L 67.2525 342.663738 
L 66.555 342.663738 
L 65.8575 333.57677 
L 64.4625 339.420534 
L 63.765 339.420534 
L 63.0675 333.57677 
L 62.37 330.923641 
L 61.6725 336.401184 
L 60.975 339.420534 
L 60.2775 336.401184 
L 59.58 336.401184 
L 58.8825 330.923641 
L 57.4875 336.401184 
L 56.79 330.923641 
L 56.0925 330.923641 
L 55.395 339.420534 
L 54.6975 349.974564 
L 54 336.401184 
L 53.3025 326.056049 
L 52.605 321.676074 
L 50.5125 321.676074 
L 49.815 319.640208 
L 48.42 319.640208 
L 47.7225 321.676074 
L 47.025 321.676074 
L 45.63 317.694856 
L 44.9325 317.694856 
L 44.235 319.640208 
L 43.5375 319.640208 
L 42.1425 315.83231 
L 41.445 315.83231 
L 40.7475 317.694856 
L 40.05 317.694856 
L 39.3525 315.83231 
L 35.865 315.83231 
L 35.1675 314.045807 
L 32.3775 314.045807 
L 31.68 312.329383 
L 30.285 312.329383 
L 29.5875 314.045807 
L 28.1925 310.677744 
L 27.495 312.329383 
L 26.1 312.329383 
L 25.4025 309.086179 
L 21.915 309.086179 
L 20.52 312.329383 
L 19.125 312.329383 
L 18.4275 310.677744 
L 17.73 312.329383 
L 14.2425 312.329383 
L 13.545 314.045807 
L 11.4525 314.045807 
L 10.755 315.83231 
L 10.0575 315.83231 
L 9.36 314.045807 
L 7.965 317.694856 
L 7.2675 317.694856 
L 6.57 315.83231 
L 5.175 315.83231 
L 4.4775 319.640208 
L 3.78 319.640208 
L 3.0825 317.694856 
L 1.6875 317.694856 
L 0.99 319.640208 
L 0.2925 319.640208 
L -0.405 317.694856 
L -1 317.694856 
L -1 317.694856 
" clip-path="url(#pff361516a8)" style="fill: none; stroke: #d28555; stroke-opacity: 0.8; stroke-width: 1.25; stroke-linecap: square"/>
   </g>
   <g id="line2d_42">
    <path d="M 388.8 376.501021 
L 388.1025 376.501021 
L 387.405 406.835376 
L 386.7075 394.245481 
L 386.01 376.501021 
L 385.3125 384.48 
L 384.615 384.48 
L 383.9175 394.245481 
L 383.22 369.75489 
L 382.5225 384.48 
L 381.825 394.245481 
L 381.1275 394.245481 
L 380.43 369.75489 
L 379.7325 384.48 
L 379.035 376.501021 
L 378.3375 384.48 
L 377.64 384.48 
L 376.9425 376.501021 
L 376.245 384.48 
L 375.5475 384.48 
L 374.85 394.245481 
L 374.1525 384.48 
L 372.7575 384.48 
L 372.06 376.501021 
L 371.3625 384.48 
L 368.5725 384.48 
L 367.875 376.501021 
L 367.1775 394.245481 
L 366.48 376.501021 
L 365.7825 394.245481 
L 365.085 384.48 
L 362.9925 384.48 
L 362.295 376.501021 
L 361.5975 384.48 
L 360.9 376.501021 
L 360.2025 384.48 
L 359.505 376.501021 
L 358.8075 376.501021 
L 358.11 384.48 
L 357.4125 384.48 
L 356.0175 369.75489 
L 355.32 376.501021 
L 354.6225 384.48 
L 353.925 376.501021 
L 352.53 376.501021 
L 351.8325 384.48 
L 351.135 384.48 
L 349.74 369.75489 
L 349.0425 369.75489 
L 348.345 376.501021 
L 345.555 376.501021 
L 344.8575 384.48 
L 344.16 384.48 
L 343.4625 376.501021 
L 342.0675 376.501021 
L 341.37 384.48 
L 340.6725 376.501021 
L 339.2775 376.501021 
L 338.58 384.48 
L 337.185 384.48 
L 336.4875 376.501021 
L 335.79 376.501021 
L 335.0925 384.48 
L 333.6975 384.48 
L 333 376.501021 
L 332.3025 376.501021 
L 331.605 384.48 
L 330.9075 384.48 
L 330.21 376.501021 
L 328.815 376.501021 
L 328.1175 384.48 
L 327.42 384.48 
L 326.7225 376.501021 
L 324.63 376.501021 
L 323.9325 384.48 
L 322.5375 369.75489 
L 321.84 384.48 
L 319.7475 384.48 
L 319.05 376.501021 
L 317.655 376.501021 
L 316.9575 384.48 
L 316.26 384.48 
L 315.5625 376.501021 
L 311.3775 376.501021 
L 310.68 384.48 
L 309.9825 384.48 
L 309.285 376.501021 
L 304.4025 376.501021 
L 303.705 384.48 
L 303.0075 384.48 
L 302.31 376.501021 
L 301.6125 376.501021 
L 300.915 384.48 
L 299.52 384.48 
L 298.8225 376.501021 
L 297.4275 376.501021 
L 296.73 384.48 
L 296.0325 384.48 
L 295.335 376.501021 
L 293.2425 376.501021 
L 292.545 384.48 
L 291.8475 376.501021 
L 289.755 376.501021 
L 289.0575 384.48 
L 288.36 384.48 
L 287.6625 376.501021 
L 286.2675 376.501021 
L 285.57 384.48 
L 284.8725 384.48 
L 284.175 376.501021 
L 282.78 376.501021 
L 282.0825 384.48 
L 281.385 384.48 
L 280.6875 376.501021 
L 278.595 376.501021 
L 277.8975 384.48 
L 277.2 376.501021 
L 275.1075 376.501021 
L 274.41 384.48 
L 273.7125 376.501021 
L 271.62 376.501021 
L 270.9225 384.48 
L 270.225 384.48 
L 269.5275 376.501021 
L 267.435 376.501021 
L 266.7375 384.48 
L 266.04 384.48 
L 265.3425 376.501021 
L 263.9475 376.501021 
L 263.25 384.48 
L 261.855 384.48 
L 261.1575 376.501021 
L 259.7625 376.501021 
L 259.065 384.48 
L 258.3675 384.48 
L 257.67 376.501021 
L 256.275 376.501021 
L 255.5775 384.48 
L 254.88 384.48 
L 254.1825 376.501021 
L 253.485 376.501021 
L 252.7875 384.48 
L 252.09 384.48 
L 251.3925 376.501021 
L 249.9975 376.501021 
L 249.3 384.48 
L 248.6025 384.48 
L 247.905 376.501021 
L 245.8125 376.501021 
L 245.115 384.48 
L 244.4175 376.501021 
L 242.325 376.501021 
L 241.6275 384.48 
L 240.93 384.48 
L 240.2325 376.501021 
L 238.8375 376.501021 
L 238.14 384.48 
L 237.4425 384.48 
L 236.745 376.501021 
L 235.35 376.501021 
L 234.6525 384.48 
L 233.955 384.48 
L 233.2575 376.501021 
L 231.8625 376.501021 
L 231.165 384.48 
L 230.4675 384.48 
L 229.77 376.501021 
L 228.375 376.501021 
L 227.6775 384.48 
L 226.98 376.501021 
L 224.8875 376.501021 
L 224.19 384.48 
L 223.4925 376.501021 
L 222.795 384.48 
L 222.0975 384.48 
L 221.4 376.501021 
L 220.005 376.501021 
L 219.3075 384.48 
L 218.61 384.48 
L 217.9125 376.501021 
L 217.215 376.501021 
L 216.5175 384.48 
L 215.82 384.48 
L 215.1225 376.501021 
L 214.425 376.501021 
L 213.7275 384.48 
L 213.03 384.48 
L 212.3325 376.501021 
L 210.9375 376.501021 
L 210.24 384.48 
L 209.5425 384.48 
L 208.845 376.501021 
L 208.1475 376.501021 
L 207.45 384.48 
L 206.7525 384.48 
L 206.055 376.501021 
L 204.66 376.501021 
L 203.9625 384.48 
L 203.265 384.48 
L 202.5675 376.501021 
L 200.475 376.501021 
L 199.7775 384.48 
L 198.3825 369.75489 
L 197.685 376.501021 
L 195.5925 376.501021 
L 194.895 369.75489 
L 194.1975 369.75489 
L 193.5 376.501021 
L 192.8025 376.501021 
L 192.105 369.75489 
L 190.71 369.75489 
L 190.0125 376.501021 
L 189.315 376.501021 
L 187.92 363.911126 
L 186.525 376.501021 
L 185.8275 369.75489 
L 183.735 369.75489 
L 183.0375 376.501021 
L 182.34 369.75489 
L 180.945 369.75489 
L 180.2475 376.501021 
L 179.55 369.75489 
L 178.155 369.75489 
L 177.4575 376.501021 
L 176.0625 376.501021 
L 175.365 369.75489 
L 174.6675 376.501021 
L 171.8775 376.501021 
L 171.18 384.48 
L 170.4825 384.48 
L 169.785 376.501021 
L 169.0875 376.501021 
L 168.39 384.48 
L 167.6925 394.245481 
L 166.995 384.48 
L 166.2975 376.501021 
L 165.6 384.48 
L 164.9025 384.48 
L 163.5075 369.75489 
L 162.81 376.501021 
L 161.415 376.501021 
L 160.7175 369.75489 
L 160.02 369.75489 
L 159.3225 376.501021 
L 158.625 376.501021 
L 157.9275 369.75489 
L 156.5325 369.75489 
L 155.835 376.501021 
L 154.44 363.911126 
L 153.7425 369.75489 
L 153.045 369.75489 
L 152.3475 363.911126 
L 151.65 369.75489 
L 150.255 369.75489 
L 149.5575 363.911126 
L 148.86 369.75489 
L 148.1625 369.75489 
L 147.465 376.501021 
L 146.07 363.911126 
L 144.675 376.501021 
L 143.9775 369.75489 
L 141.885 369.75489 
L 141.1875 376.501021 
L 140.49 369.75489 
L 139.7925 369.75489 
L 139.095 376.501021 
L 138.3975 376.501021 
L 137.7 369.75489 
L 136.305 369.75489 
L 135.6075 376.501021 
L 134.2125 363.911126 
L 133.515 363.911126 
L 132.8175 369.75489 
L 132.12 369.75489 
L 131.4225 363.911126 
L 130.725 363.911126 
L 130.0275 369.75489 
L 128.6325 369.75489 
L 127.935 363.911126 
L 127.2375 369.75489 
L 125.8425 369.75489 
L 125.145 363.911126 
L 124.4475 369.75489 
L 123.75 369.75489 
L 123.0525 376.501021 
L 121.6575 363.911126 
L 120.96 363.911126 
L 120.2625 369.75489 
L 119.565 363.911126 
L 114.6825 363.911126 
L 113.985 369.75489 
L 112.59 358.75656 
L 111.8925 363.911126 
L 111.195 363.911126 
L 110.4975 358.75656 
L 109.1025 358.75656 
L 108.405 363.911126 
L 107.7075 363.911126 
L 107.01 358.75656 
L 105.615 358.75656 
L 104.9175 363.911126 
L 104.22 363.911126 
L 103.5225 354.145644 
L 102.825 358.75656 
L 98.64 358.75656 
L 97.9425 354.145644 
L 96.5475 354.145644 
L 95.85 358.75656 
L 95.1525 349.974564 
L 94.455 358.75656 
L 93.7575 406.835376 
L 93.06 376.501021 
L 92.3625 363.911126 
L 89.5725 363.911126 
L 88.875 369.75489 
L 88.1775 369.75489 
L 87.48 363.911126 
L 86.7825 363.911126 
L 85.3875 354.145644 
L 83.295 354.145644 
L 82.5975 358.75656 
L 81.2025 349.974564 
L 79.8075 358.75656 
L 78.4125 349.974564 
L 77.715 349.974564 
L 77.0175 354.145644 
L 76.32 349.974564 
L 75.6225 349.974564 
L 74.925 354.145644 
L 73.53 346.166665 
L 72.8325 342.663738 
L 71.4375 349.974564 
L 70.0425 349.974564 
L 68.6475 342.663738 
L 67.95 346.166665 
L 67.2525 346.166665 
L 66.555 342.663738 
L 65.8575 342.663738 
L 65.16 349.974564 
L 63.765 342.663738 
L 63.0675 346.166665 
L 62.37 342.663738 
L 60.975 349.974564 
L 60.2775 342.663738 
L 59.58 346.166665 
L 58.185 339.420534 
L 57.4875 342.663738 
L 56.79 339.420534 
L 56.0925 339.420534 
L 55.395 342.663738 
L 54 342.663738 
L 53.3025 330.923641 
L 52.605 323.811289 
L 51.9075 323.811289 
L 50.5125 319.640208 
L 49.815 319.640208 
L 49.1175 321.676074 
L 48.42 319.640208 
L 46.3275 319.640208 
L 45.63 317.694856 
L 44.9325 317.694856 
L 44.235 319.640208 
L 43.5375 317.694856 
L 41.445 317.694856 
L 40.7475 315.83231 
L 38.655 315.83231 
L 37.9575 314.045807 
L 35.865 314.045807 
L 35.1675 312.329383 
L 34.47 312.329383 
L 33.7725 314.045807 
L 33.075 312.329383 
L 30.285 312.329383 
L 29.5875 310.677744 
L 28.89 310.677744 
L 28.1925 312.329383 
L 26.7975 309.086179 
L 25.4025 312.329383 
L 24.705 310.677744 
L 18.4275 310.677744 
L 17.73 312.329383 
L 17.0325 310.677744 
L 16.335 310.677744 
L 14.94 314.045807 
L 14.2425 312.329383 
L 13.545 312.329383 
L 12.8475 314.045807 
L 10.755 314.045807 
L 10.0575 315.83231 
L 9.36 314.045807 
L 8.6625 314.045807 
L 7.965 317.694856 
L 7.2675 319.640208 
L 6.57 317.694856 
L 5.8725 317.694856 
L 5.175 319.640208 
L 3.0825 319.640208 
L 2.385 321.676074 
L 1.6875 321.676074 
L 0.99 319.640208 
L 0.2925 319.640208 
L -0.405 321.676074 
L -1 321.676074 
L -1 321.676074 
" clip-path="url(#pff361516a8)" style="fill: none; stroke: #ffc77f; stroke-opacity: 0.8; stroke-width: 1.25; stroke-linecap: square"/>
   </g>
   <g id="patch_3">
    <path d="M 54 384.48 
L 54 51.84 
" style="fill: none; stroke: #000000; stroke-width: 0.8; stroke-linejoin: miter; stroke-linecap: square"/>
   </g>
   <g id="patch_4">
    <path d="M 388.8 384.48 
L 388.8 51.84 
" style="fill: none; stroke: #000000; stroke-width: 0.8; stroke-linejoin: miter; stroke-linecap: square"/>
   </g>
   <g id="patch_5">
    <path d="M 54 384.48 
L 388.8 384.48 
" style="fill: none; stroke: #000000; stroke-width: 0.8; stroke-linejoin: miter; stroke-linecap: square"/>
   </g>
   <g id="patch_6">
    <path d="M 54 51.84 
L 388.8 51.84 
" style="fill: none; stroke: #000000; stroke-width: 0.8; stroke-linejoin: miter; stroke-linecap: square"/>
   </g>
   <g id="text_12">
    <!-- Industry standard -->
    <g transform="translate(150.46625 45.84) scale(0.16 -0.16)">
     <defs>
      <path id="DejaVuSans-49" d="M 628 4666 
L 1259 4666 
L 1259 0 
L 628 0 
L 628 4666 
z
" transform="scale(0.015625)"/>
      <path id="DejaVuSans-64" d="M 2906 2969 
L 2906 4863 
L 3481 4863 
L 3481 0 
L 2906 0 
L 2906 525 
Q 2725 213 2448 61 
Q 2172 -91 1784 -91 
Q 1150 -91 751 415 
Q 353 922 353 1747 
Q 353 2572 751 3078 
Q 1150 3584 1784 3584 
Q 2172 3584 2448 3432 
Q 2725 3281 2906 2969 
z
M 947 1747 
Q 947 1113 1208 752 
Q 1469 391 1925 391 
Q 2381 391 2643 752 
Q 2906 1113 2906 1747 
Q 2906 2381 2643 2742 
Q 2381 3103 1925 3103 
Q 1469 3103 1208 2742 
Q 947 2381 947 1747 
z
" transform="scale(0.015625)"/>
      <path id="DejaVuSans-75" d="M 544 1381 
L 544 3500 
L 1119 3500 
L 1119 1403 
Q 1119 906 1312 657 
Q 1506 409 1894 409 
Q 2359 409 2629 706 
Q 2900 1003 2900 1516 
L 2900 3500 
L 3475 3500 
L 3475 0 
L 2900 0 
L 2900 538 
Q 2691 219 2414 64 
Q 2138 -91 1772 -91 
Q 1169 -91 856 284 
Q 544 659 544 1381 
z
M 1991 3584 
L 1991 3584 
z
" transform="scale(0.015625)"/>
      <path id="DejaVuSans-79" d="M 2059 -325 
Q 1816 -950 1584 -1140 
Q 1353 -1331 966 -1331 
L 506 -1331 
L 506 -850 
L 844 -850 
Q 1081 -850 1212 -737 
Q 1344 -625 1503 -206 
L 1606 56 
L 191 3500 
L 800 3500 
L 1894 763 
L 2988 3500 
L 3597 3500 
L 2059 -325 
z
" transform="scale(0.015625)"/>
     </defs>
     <use xlink:href="#DejaVuSans-49"/>
     <use xlink:href="#DejaVuSans-6e" x="29.492188"/>
     <use xlink:href="#DejaVuSans-64" x="92.871094"/>
     <use xlink:href="#DejaVuSans-75" x="156.347656"/>
     <use xlink:href="#DejaVuSans-73" x="219.726562"/>
     <use xlink:href="#DejaVuSans-74" x="271.826172"/>
     <use xlink:href="#DejaVuSans-72" x="311.035156"/>
     <use xlink:href="#DejaVuSans-79" x="352.148438"/>
     <use xlink:href="#DejaVuSans-20" x="411.328125"/>
     <use xlink:href="#DejaVuSans-73" x="443.115234"/>
     <use xlink:href="#DejaVuSans-74" x="495.214844"/>
     <use xlink:href="#DejaVuSans-61" x="534.423828"/>
     <use xlink:href="#DejaVuSans-6e" x="595.703125"/>
     <use xlink:href="#DejaVuSans-64" x="659.082031"/>
     <use xlink:href="#DejaVuSans-61" x="722.558594"/>
     <use xlink:href="#DejaVuSans-72" x="783.837891"/>
     <use xlink:href="#DejaVuSans-64" x="823.201172"/>
    </g>
   </g>
   <g id="legend_1">
    <g id="patch_7">
     <path d="M 298.52625 255.1875 
L 380.4 255.1875 
Q 382.8 255.1875 382.8 252.7875 
L 382.8 183.5325 
Q 382.8 181.1325 380.4 181.1325 
L 298.52625 181.1325 
Q 296.12625 181.1325 296.12625 183.5325 
L 296.12625 252.7875 
Q 296.12625 255.1875 298.52625 255.1875 
z
" style="fill: #ffffff; opacity: 0.8; stroke: #cccccc; stroke-linejoin: miter"/>
    </g>
    <g id="line2d_43">
     <path d="M 300.92625 190.850625 
L 312.92625 190.850625 
L 324.92625 190.850625 
" style="fill: none; stroke: #000000; stroke-opacity: 0.8; stroke-width: 1.25; stroke-linecap: square"/>
    </g>
    <g id="text_13">
     <!-- EJ232Q -->
     <g transform="translate(334.52625 195.050625) scale(0.12 -0.12)">
      <defs>
       <path id="DejaVuSans-45" d="M 628 4666 
L 3578 4666 
L 3578 4134 
L 1259 4134 
L 1259 2753 
L 3481 2753 
L 3481 2222 
L 1259 2222 
L 1259 531 
L 3634 531 
L 3634 0 
L 628 0 
L 628 4666 
z
" transform="scale(0.015625)"/>
       <path id="DejaVuSans-4a" d="M 628 4666 
L 1259 4666 
L 1259 325 
Q 1259 -519 939 -900 
Q 619 -1281 -91 -1281 
L -331 -1281 
L -331 -750 
L -134 -750 
Q 284 -750 456 -515 
Q 628 -281 628 325 
L 628 4666 
z
" transform="scale(0.015625)"/>
       <path id="DejaVuSans-33" d="M 2597 2516 
Q 3050 2419 3304 2112 
Q 3559 1806 3559 1356 
Q 3559 666 3084 287 
Q 2609 -91 1734 -91 
Q 1441 -91 1130 -33 
Q 819 25 488 141 
L 488 750 
Q 750 597 1062 519 
Q 1375 441 1716 441 
Q 2309 441 2620 675 
Q 2931 909 2931 1356 
Q 2931 1769 2642 2001 
Q 2353 2234 1838 2234 
L 1294 2234 
L 1294 2753 
L 1863 2753 
Q 2328 2753 2575 2939 
Q 2822 3125 2822 3475 
Q 2822 3834 2567 4026 
Q 2313 4219 1838 4219 
Q 1578 4219 1281 4162 
Q 984 4106 628 3988 
L 628 4550 
Q 988 4650 1302 4700 
Q 1616 4750 1894 4750 
Q 2613 4750 3031 4423 
Q 3450 4097 3450 3541 
Q 3450 3153 3228 2886 
Q 3006 2619 2597 2516 
z
" transform="scale(0.015625)"/>
       <path id="DejaVuSans-51" d="M 2522 4238 
Q 1834 4238 1429 3725 
Q 1025 3213 1025 2328 
Q 1025 1447 1429 934 
Q 1834 422 2522 422 
Q 3209 422 3611 934 
Q 4013 1447 4013 2328 
Q 4013 3213 3611 3725 
Q 3209 4238 2522 4238 
z
M 3406 84 
L 4238 -825 
L 3475 -825 
L 2784 -78 
Q 2681 -84 2626 -87 
Q 2572 -91 2522 -91 
Q 1538 -91 948 567 
Q 359 1225 359 2328 
Q 359 3434 948 4092 
Q 1538 4750 2522 4750 
Q 3503 4750 4090 4092 
Q 4678 3434 4678 2328 
Q 4678 1516 4351 937 
Q 4025 359 3406 84 
z
" transform="scale(0.015625)"/>
      </defs>
      <use xlink:href="#DejaVuSans-45"/>
      <use xlink:href="#DejaVuSans-4a" x="63.183594"/>
      <use xlink:href="#DejaVuSans-32" x="92.675781"/>
      <use xlink:href="#DejaVuSans-33" x="156.298828"/>
      <use xlink:href="#DejaVuSans-32" x="219.921875"/>
      <use xlink:href="#DejaVuSans-51" x="283.544922"/>
     </g>
    </g>
    <g id="line2d_44">
     <path d="M 300.92625 208.464375 
L 312.92625 208.464375 
L 324.92625 208.464375 
" style="fill: none; stroke: #69422a; stroke-opacity: 0.8; stroke-width: 1.25; stroke-linecap: square"/>
    </g>
    <g id="text_14">
     <!-- LYSO -->
     <g transform="translate(334.52625 212.664375) scale(0.12 -0.12)">
      <defs>
       <path id="DejaVuSans-4c" d="M 628 4666 
L 1259 4666 
L 1259 531 
L 3531 531 
L 3531 0 
L 628 0 
L 628 4666 
z
" transform="scale(0.015625)"/>
       <path id="DejaVuSans-59" d="M -13 4666 
L 666 4666 
L 1959 2747 
L 3244 4666 
L 3922 4666 
L 2272 2222 
L 2272 0 
L 1638 0 
L 1638 2222 
L -13 4666 
z
" transform="scale(0.015625)"/>
       <path id="DejaVuSans-53" d="M 3425 4513 
L 3425 3897 
Q 3066 4069 2747 4153 
Q 2428 4238 2131 4238 
Q 1616 4238 1336 4038 
Q 1056 3838 1056 3469 
Q 1056 3159 1242 3001 
Q 1428 2844 1947 2747 
L 2328 2669 
Q 3034 2534 3370 2195 
Q 3706 1856 3706 1288 
Q 3706 609 3251 259 
Q 2797 -91 1919 -91 
Q 1588 -91 1214 -16 
Q 841 59 441 206 
L 441 856 
Q 825 641 1194 531 
Q 1563 422 1919 422 
Q 2459 422 2753 634 
Q 3047 847 3047 1241 
Q 3047 1584 2836 1778 
Q 2625 1972 2144 2069 
L 1759 2144 
Q 1053 2284 737 2584 
Q 422 2884 422 3419 
Q 422 4038 858 4394 
Q 1294 4750 2059 4750 
Q 2388 4750 2728 4690 
Q 3069 4631 3425 4513 
z
" transform="scale(0.015625)"/>
       <path id="DejaVuSans-4f" d="M 2522 4238 
Q 1834 4238 1429 3725 
Q 1025 3213 1025 2328 
Q 1025 1447 1429 934 
Q 1834 422 2522 422 
Q 3209 422 3611 934 
Q 4013 1447 4013 2328 
Q 4013 3213 3611 3725 
Q 3209 4238 2522 4238 
z
M 2522 4750 
Q 3503 4750 4090 4092 
Q 4678 3434 4678 2328 
Q 4678 1225 4090 567 
Q 3503 -91 2522 -91 
Q 1538 -91 948 565 
Q 359 1222 359 2328 
Q 359 3434 948 4092 
Q 1538 4750 2522 4750 
z
" transform="scale(0.015625)"/>
      </defs>
      <use xlink:href="#DejaVuSans-4c"/>
      <use xlink:href="#DejaVuSans-59" x="42.462891"/>
      <use xlink:href="#DejaVuSans-53" x="103.546875"/>
      <use xlink:href="#DejaVuSans-4f" x="167.023438"/>
     </g>
    </g>
    <g id="line2d_45">
     <path d="M 300.92625 226.078125 
L 312.92625 226.078125 
L 324.92625 226.078125 
" style="fill: none; stroke: #d28555; stroke-opacity: 0.8; stroke-width: 1.25; stroke-linecap: square"/>
    </g>
    <g id="text_15">
     <!-- GAGG -->
     <g transform="translate(334.52625 230.278125) scale(0.12 -0.12)">
      <defs>
       <path id="DejaVuSans-47" d="M 3809 666 
L 3809 1919 
L 2778 1919 
L 2778 2438 
L 4434 2438 
L 4434 434 
Q 4069 175 3628 42 
Q 3188 -91 2688 -91 
Q 1594 -91 976 548 
Q 359 1188 359 2328 
Q 359 3472 976 4111 
Q 1594 4750 2688 4750 
Q 3144 4750 3555 4637 
Q 3966 4525 4313 4306 
L 4313 3634 
Q 3963 3931 3569 4081 
Q 3175 4231 2741 4231 
Q 1884 4231 1454 3753 
Q 1025 3275 1025 2328 
Q 1025 1384 1454 906 
Q 1884 428 2741 428 
Q 3075 428 3337 486 
Q 3600 544 3809 666 
z
" transform="scale(0.015625)"/>
       <path id="DejaVuSans-41" d="M 2188 4044 
L 1331 1722 
L 3047 1722 
L 2188 4044 
z
M 1831 4666 
L 2547 4666 
L 4325 0 
L 3669 0 
L 3244 1197 
L 1141 1197 
L 716 0 
L 50 0 
L 1831 4666 
z
" transform="scale(0.015625)"/>
      </defs>
      <use xlink:href="#DejaVuSans-47"/>
      <use xlink:href="#DejaVuSans-41" x="77.490234"/>
      <use xlink:href="#DejaVuSans-47" x="144.148438"/>
      <use xlink:href="#DejaVuSans-47" x="221.638672"/>
     </g>
    </g>
    <g id="line2d_46">
     <path d="M 300.92625 243.691875 
L 312.92625 243.691875 
L 324.92625 243.691875 
" style="fill: none; stroke: #ffc77f; stroke-opacity: 0.8; stroke-width: 1.25; stroke-linecap: square"/>
    </g>
    <g id="text_16">
     <!-- GGAG -->
     <g transform="translate(334.52625 247.891875) scale(0.12 -0.12)">
      <use xlink:href="#DejaVuSans-47"/>
      <use xlink:href="#DejaVuSans-47" x="77.490234"/>
      <use xlink:href="#DejaVuSans-41" x="154.980469"/>
      <use xlink:href="#DejaVuSans-47" x="221.638672"/>
     </g>
    </g>
   </g>
  </g>
 </g>
 <defs>
  <clipPath id="pff361516a8">
   <rect x="54" y="51.84" width="334.8" height="332.64"/>
  </clipPath>
 </defs>
</svg>
