<?xml version="1.0" encoding="utf-8" standalone="no"?>
<!DOCTYPE svg PUBLIC "-//W3C//DTD SVG 1.1//EN"
  "http://www.w3.org/Graphics/SVG/1.1/DTD/svg11.dtd">
<svg xmlns:xlink="http://www.w3.org/1999/xlink" width="432pt" height="432pt" viewBox="0 0 432 432" xmlns="http://www.w3.org/2000/svg" version="1.1">
 <metadata>
  <rdf:RDF xmlns:dc="http://purl.org/dc/elements/1.1/" xmlns:cc="http://creativecommons.org/ns#" xmlns:rdf="http://www.w3.org/1999/02/22-rdf-syntax-ns#">
   <cc:Work>
    <dc:type rdf:resource="http://purl.org/dc/dcmitype/StillImage"/>
    <dc:date>2025-05-16T09:52:09.959067</dc:date>
    <dc:format>image/svg+xml</dc:format>
    <dc:creator>
     <cc:Agent>
      <dc:title>Matplotlib v3.8.3, https://matplotlib.org/</dc:title>
     </cc:Agent>
    </dc:creator>
   </cc:Work>
  </rdf:RDF>
 </metadata>
 <defs>
  <style type="text/css">*{stroke-linejoin: round; stroke-linecap: butt}</style>
 </defs>
 <g id="figure_1">
  <g id="patch_1">
   <path d="M 0 432 
L 432 432 
L 432 0 
L 0 0 
z
" style="fill: #ffffff"/>
  </g>
  <g id="axes_1">
   <g id="patch_2">
    <path d="M 54 384.48 
L 388.8 384.48 
L 388.8 51.84 
L 54 51.84 
z
" style="fill: #ffffff"/>
   </g>
   <g id="matplotlib.axis_1">
    <g id="xtick_1">
     <g id="line2d_1">
      <defs>
       <path id="m086af668fe" d="M 0 0 
L 0 3.5 
" style="stroke: #000000; stroke-width: 0.8"/>
      </defs>
      <g>
       <use xlink:href="#m086af668fe" x="109.8" y="384.48" style="stroke: #000000; stroke-width: 0.8"/>
      </g>
     </g>
     <g id="text_1">
      <!-- 400 -->
      <g transform="translate(100.25625 399.078438) scale(0.1 -0.1)">
       <defs>
        <path id="DejaVuSans-34" d="M 2419 4116 
L 825 1625 
L 2419 1625 
L 2419 4116 
z
M 2253 4666 
L 3047 4666 
L 3047 1625 
L 3713 1625 
L 3713 1100 
L 3047 1100 
L 3047 0 
L 2419 0 
L 2419 1100 
L 313 1100 
L 313 1709 
L 2253 4666 
z
" transform="scale(0.015625)"/>
        <path id="DejaVuSans-30" d="M 2034 4250 
Q 1547 4250 1301 3770 
Q 1056 3291 1056 2328 
Q 1056 1369 1301 889 
Q 1547 409 2034 409 
Q 2525 409 2770 889 
Q 3016 1369 3016 2328 
Q 3016 3291 2770 3770 
Q 2525 4250 2034 4250 
z
M 2034 4750 
Q 2819 4750 3233 4129 
Q 3647 3509 3647 2328 
Q 3647 1150 3233 529 
Q 2819 -91 2034 -91 
Q 1250 -91 836 529 
Q 422 1150 422 2328 
Q 422 3509 836 4129 
Q 1250 4750 2034 4750 
z
" transform="scale(0.015625)"/>
       </defs>
       <use xlink:href="#DejaVuSans-34"/>
       <use xlink:href="#DejaVuSans-30" x="63.623047"/>
       <use xlink:href="#DejaVuSans-30" x="127.246094"/>
      </g>
     </g>
    </g>
    <g id="xtick_2">
     <g id="line2d_2">
      <g>
       <use xlink:href="#m086af668fe" x="179.55" y="384.48" style="stroke: #000000; stroke-width: 0.8"/>
      </g>
     </g>
     <g id="text_2">
      <!-- 500 -->
      <g transform="translate(170.00625 399.078438) scale(0.1 -0.1)">
       <defs>
        <path id="DejaVuSans-35" d="M 691 4666 
L 3169 4666 
L 3169 4134 
L 1269 4134 
L 1269 2991 
Q 1406 3038 1543 3061 
Q 1681 3084 1819 3084 
Q 2600 3084 3056 2656 
Q 3513 2228 3513 1497 
Q 3513 744 3044 326 
Q 2575 -91 1722 -91 
Q 1428 -91 1123 -41 
Q 819 9 494 109 
L 494 744 
Q 775 591 1075 516 
Q 1375 441 1709 441 
Q 2250 441 2565 725 
Q 2881 1009 2881 1497 
Q 2881 1984 2565 2268 
Q 2250 2553 1709 2553 
Q 1456 2553 1204 2497 
Q 953 2441 691 2322 
L 691 4666 
z
" transform="scale(0.015625)"/>
       </defs>
       <use xlink:href="#DejaVuSans-35"/>
       <use xlink:href="#DejaVuSans-30" x="63.623047"/>
       <use xlink:href="#DejaVuSans-30" x="127.246094"/>
      </g>
     </g>
    </g>
    <g id="xtick_3">
     <g id="line2d_3">
      <g>
       <use xlink:href="#m086af668fe" x="249.3" y="384.48" style="stroke: #000000; stroke-width: 0.8"/>
      </g>
     </g>
     <g id="text_3">
      <!-- 600 -->
      <g transform="translate(239.75625 399.078438) scale(0.1 -0.1)">
       <defs>
        <path id="DejaVuSans-36" d="M 2113 2584 
Q 1688 2584 1439 2293 
Q 1191 2003 1191 1497 
Q 1191 994 1439 701 
Q 1688 409 2113 409 
Q 2538 409 2786 701 
Q 3034 994 3034 1497 
Q 3034 2003 2786 2293 
Q 2538 2584 2113 2584 
z
M 3366 4563 
L 3366 3988 
Q 3128 4100 2886 4159 
Q 2644 4219 2406 4219 
Q 1781 4219 1451 3797 
Q 1122 3375 1075 2522 
Q 1259 2794 1537 2939 
Q 1816 3084 2150 3084 
Q 2853 3084 3261 2657 
Q 3669 2231 3669 1497 
Q 3669 778 3244 343 
Q 2819 -91 2113 -91 
Q 1303 -91 875 529 
Q 447 1150 447 2328 
Q 447 3434 972 4092 
Q 1497 4750 2381 4750 
Q 2619 4750 2861 4703 
Q 3103 4656 3366 4563 
z
" transform="scale(0.015625)"/>
       </defs>
       <use xlink:href="#DejaVuSans-36"/>
       <use xlink:href="#DejaVuSans-30" x="63.623047"/>
       <use xlink:href="#DejaVuSans-30" x="127.246094"/>
      </g>
     </g>
    </g>
    <g id="xtick_4">
     <g id="line2d_4">
      <g>
       <use xlink:href="#m086af668fe" x="319.05" y="384.48" style="stroke: #000000; stroke-width: 0.8"/>
      </g>
     </g>
     <g id="text_4">
      <!-- 700 -->
      <g transform="translate(309.50625 399.078438) scale(0.1 -0.1)">
       <defs>
        <path id="DejaVuSans-37" d="M 525 4666 
L 3525 4666 
L 3525 4397 
L 1831 0 
L 1172 0 
L 2766 4134 
L 525 4134 
L 525 4666 
z
" transform="scale(0.015625)"/>
       </defs>
       <use xlink:href="#DejaVuSans-37"/>
       <use xlink:href="#DejaVuSans-30" x="63.623047"/>
       <use xlink:href="#DejaVuSans-30" x="127.246094"/>
      </g>
     </g>
    </g>
    <g id="xtick_5">
     <g id="line2d_5">
      <g>
       <use xlink:href="#m086af668fe" x="388.8" y="384.48" style="stroke: #000000; stroke-width: 0.8"/>
      </g>
     </g>
     <g id="text_5">
      <!-- 800 -->
      <g transform="translate(379.25625 399.078438) scale(0.1 -0.1)">
       <defs>
        <path id="DejaVuSans-38" d="M 2034 2216 
Q 1584 2216 1326 1975 
Q 1069 1734 1069 1313 
Q 1069 891 1326 650 
Q 1584 409 2034 409 
Q 2484 409 2743 651 
Q 3003 894 3003 1313 
Q 3003 1734 2745 1975 
Q 2488 2216 2034 2216 
z
M 1403 2484 
Q 997 2584 770 2862 
Q 544 3141 544 3541 
Q 544 4100 942 4425 
Q 1341 4750 2034 4750 
Q 2731 4750 3128 4425 
Q 3525 4100 3525 3541 
Q 3525 3141 3298 2862 
Q 3072 2584 2669 2484 
Q 3125 2378 3379 2068 
Q 3634 1759 3634 1313 
Q 3634 634 3220 271 
Q 2806 -91 2034 -91 
Q 1263 -91 848 271 
Q 434 634 434 1313 
Q 434 1759 690 2068 
Q 947 2378 1403 2484 
z
M 1172 3481 
Q 1172 3119 1398 2916 
Q 1625 2713 2034 2713 
Q 2441 2713 2670 2916 
Q 2900 3119 2900 3481 
Q 2900 3844 2670 4047 
Q 2441 4250 2034 4250 
Q 1625 4250 1398 4047 
Q 1172 3844 1172 3481 
z
" transform="scale(0.015625)"/>
       </defs>
       <use xlink:href="#DejaVuSans-38"/>
       <use xlink:href="#DejaVuSans-30" x="63.623047"/>
       <use xlink:href="#DejaVuSans-30" x="127.246094"/>
      </g>
     </g>
    </g>
    <g id="text_6">
     <!-- Wavelength (nm) -->
     <g transform="translate(169.569375 414.27625) scale(0.12 -0.12)">
      <defs>
       <path id="DejaVuSans-57" d="M 213 4666 
L 850 4666 
L 1831 722 
L 2809 4666 
L 3519 4666 
L 4500 722 
L 5478 4666 
L 6119 4666 
L 4947 0 
L 4153 0 
L 3169 4050 
L 2175 0 
L 1381 0 
L 213 4666 
z
" transform="scale(0.015625)"/>
       <path id="DejaVuSans-61" d="M 2194 1759 
Q 1497 1759 1228 1600 
Q 959 1441 959 1056 
Q 959 750 1161 570 
Q 1363 391 1709 391 
Q 2188 391 2477 730 
Q 2766 1069 2766 1631 
L 2766 1759 
L 2194 1759 
z
M 3341 1997 
L 3341 0 
L 2766 0 
L 2766 531 
Q 2569 213 2275 61 
Q 1981 -91 1556 -91 
Q 1019 -91 701 211 
Q 384 513 384 1019 
Q 384 1609 779 1909 
Q 1175 2209 1959 2209 
L 2766 2209 
L 2766 2266 
Q 2766 2663 2505 2880 
Q 2244 3097 1772 3097 
Q 1472 3097 1187 3025 
Q 903 2953 641 2809 
L 641 3341 
Q 956 3463 1253 3523 
Q 1550 3584 1831 3584 
Q 2591 3584 2966 3190 
Q 3341 2797 3341 1997 
z
" transform="scale(0.015625)"/>
       <path id="DejaVuSans-76" d="M 191 3500 
L 800 3500 
L 1894 563 
L 2988 3500 
L 3597 3500 
L 2284 0 
L 1503 0 
L 191 3500 
z
" transform="scale(0.015625)"/>
       <path id="DejaVuSans-65" d="M 3597 1894 
L 3597 1613 
L 953 1613 
Q 991 1019 1311 708 
Q 1631 397 2203 397 
Q 2534 397 2845 478 
Q 3156 559 3463 722 
L 3463 178 
Q 3153 47 2828 -22 
Q 2503 -91 2169 -91 
Q 1331 -91 842 396 
Q 353 884 353 1716 
Q 353 2575 817 3079 
Q 1281 3584 2069 3584 
Q 2775 3584 3186 3129 
Q 3597 2675 3597 1894 
z
M 3022 2063 
Q 3016 2534 2758 2815 
Q 2500 3097 2075 3097 
Q 1594 3097 1305 2825 
Q 1016 2553 972 2059 
L 3022 2063 
z
" transform="scale(0.015625)"/>
       <path id="DejaVuSans-6c" d="M 603 4863 
L 1178 4863 
L 1178 0 
L 603 0 
L 603 4863 
z
" transform="scale(0.015625)"/>
       <path id="DejaVuSans-6e" d="M 3513 2113 
L 3513 0 
L 2938 0 
L 2938 2094 
Q 2938 2591 2744 2837 
Q 2550 3084 2163 3084 
Q 1697 3084 1428 2787 
Q 1159 2491 1159 1978 
L 1159 0 
L 581 0 
L 581 3500 
L 1159 3500 
L 1159 2956 
Q 1366 3272 1645 3428 
Q 1925 3584 2291 3584 
Q 2894 3584 3203 3211 
Q 3513 2838 3513 2113 
z
" transform="scale(0.015625)"/>
       <path id="DejaVuSans-67" d="M 2906 1791 
Q 2906 2416 2648 2759 
Q 2391 3103 1925 3103 
Q 1463 3103 1205 2759 
Q 947 2416 947 1791 
Q 947 1169 1205 825 
Q 1463 481 1925 481 
Q 2391 481 2648 825 
Q 2906 1169 2906 1791 
z
M 3481 434 
Q 3481 -459 3084 -895 
Q 2688 -1331 1869 -1331 
Q 1566 -1331 1297 -1286 
Q 1028 -1241 775 -1147 
L 775 -588 
Q 1028 -725 1275 -790 
Q 1522 -856 1778 -856 
Q 2344 -856 2625 -561 
Q 2906 -266 2906 331 
L 2906 616 
Q 2728 306 2450 153 
Q 2172 0 1784 0 
Q 1141 0 747 490 
Q 353 981 353 1791 
Q 353 2603 747 3093 
Q 1141 3584 1784 3584 
Q 2172 3584 2450 3431 
Q 2728 3278 2906 2969 
L 2906 3500 
L 3481 3500 
L 3481 434 
z
" transform="scale(0.015625)"/>
       <path id="DejaVuSans-74" d="M 1172 4494 
L 1172 3500 
L 2356 3500 
L 2356 3053 
L 1172 3053 
L 1172 1153 
Q 1172 725 1289 603 
Q 1406 481 1766 481 
L 2356 481 
L 2356 0 
L 1766 0 
Q 1100 0 847 248 
Q 594 497 594 1153 
L 594 3053 
L 172 3053 
L 172 3500 
L 594 3500 
L 594 4494 
L 1172 4494 
z
" transform="scale(0.015625)"/>
       <path id="DejaVuSans-68" d="M 3513 2113 
L 3513 0 
L 2938 0 
L 2938 2094 
Q 2938 2591 2744 2837 
Q 2550 3084 2163 3084 
Q 1697 3084 1428 2787 
Q 1159 2491 1159 1978 
L 1159 0 
L 581 0 
L 581 4863 
L 1159 4863 
L 1159 2956 
Q 1366 3272 1645 3428 
Q 1925 3584 2291 3584 
Q 2894 3584 3203 3211 
Q 3513 2838 3513 2113 
z
" transform="scale(0.015625)"/>
       <path id="DejaVuSans-20" transform="scale(0.015625)"/>
       <path id="DejaVuSans-28" d="M 1984 4856 
Q 1566 4138 1362 3434 
Q 1159 2731 1159 2009 
Q 1159 1288 1364 580 
Q 1569 -128 1984 -844 
L 1484 -844 
Q 1016 -109 783 600 
Q 550 1309 550 2009 
Q 550 2706 781 3412 
Q 1013 4119 1484 4856 
L 1984 4856 
z
" transform="scale(0.015625)"/>
       <path id="DejaVuSans-6d" d="M 3328 2828 
Q 3544 3216 3844 3400 
Q 4144 3584 4550 3584 
Q 5097 3584 5394 3201 
Q 5691 2819 5691 2113 
L 5691 0 
L 5113 0 
L 5113 2094 
Q 5113 2597 4934 2840 
Q 4756 3084 4391 3084 
Q 3944 3084 3684 2787 
Q 3425 2491 3425 1978 
L 3425 0 
L 2847 0 
L 2847 2094 
Q 2847 2600 2669 2842 
Q 2491 3084 2119 3084 
Q 1678 3084 1418 2786 
Q 1159 2488 1159 1978 
L 1159 0 
L 581 0 
L 581 3500 
L 1159 3500 
L 1159 2956 
Q 1356 3278 1631 3431 
Q 1906 3584 2284 3584 
Q 2666 3584 2933 3390 
Q 3200 3197 3328 2828 
z
" transform="scale(0.015625)"/>
       <path id="DejaVuSans-29" d="M 513 4856 
L 1013 4856 
Q 1481 4119 1714 3412 
Q 1947 2706 1947 2009 
Q 1947 1309 1714 600 
Q 1481 -109 1013 -844 
L 513 -844 
Q 928 -128 1133 580 
Q 1338 1288 1338 2009 
Q 1338 2731 1133 3434 
Q 928 4138 513 4856 
z
" transform="scale(0.015625)"/>
      </defs>
      <use xlink:href="#DejaVuSans-57"/>
      <use xlink:href="#DejaVuSans-61" x="92.501953"/>
      <use xlink:href="#DejaVuSans-76" x="153.78125"/>
      <use xlink:href="#DejaVuSans-65" x="212.960938"/>
      <use xlink:href="#DejaVuSans-6c" x="274.484375"/>
      <use xlink:href="#DejaVuSans-65" x="302.267578"/>
      <use xlink:href="#DejaVuSans-6e" x="363.791016"/>
      <use xlink:href="#DejaVuSans-67" x="427.169922"/>
      <use xlink:href="#DejaVuSans-74" x="490.646484"/>
      <use xlink:href="#DejaVuSans-68" x="529.855469"/>
      <use xlink:href="#DejaVuSans-20" x="593.234375"/>
      <use xlink:href="#DejaVuSans-28" x="625.021484"/>
      <use xlink:href="#DejaVuSans-6e" x="664.035156"/>
      <use xlink:href="#DejaVuSans-6d" x="727.414062"/>
      <use xlink:href="#DejaVuSans-29" x="824.826172"/>
     </g>
    </g>
   </g>
   <g id="matplotlib.axis_2">
    <g id="ytick_1">
     <g id="line2d_6">
      <defs>
       <path id="m43f1b93313" d="M 0 0 
L -3.5 0 
" style="stroke: #000000; stroke-width: 0.8"/>
      </defs>
      <g>
       <use xlink:href="#m43f1b93313" x="54" y="318.085123" style="stroke: #000000; stroke-width: 0.8"/>
      </g>
     </g>
     <g id="text_7">
      <!-- 20 -->
      <g transform="translate(34.275 321.884341) scale(0.1 -0.1)">
       <defs>
        <path id="DejaVuSans-32" d="M 1228 531 
L 3431 531 
L 3431 0 
L 469 0 
L 469 531 
Q 828 903 1448 1529 
Q 2069 2156 2228 2338 
Q 2531 2678 2651 2914 
Q 2772 3150 2772 3378 
Q 2772 3750 2511 3984 
Q 2250 4219 1831 4219 
Q 1534 4219 1204 4116 
Q 875 4013 500 3803 
L 500 4441 
Q 881 4594 1212 4672 
Q 1544 4750 1819 4750 
Q 2544 4750 2975 4387 
Q 3406 4025 3406 3419 
Q 3406 3131 3298 2873 
Q 3191 2616 2906 2266 
Q 2828 2175 2409 1742 
Q 1991 1309 1228 531 
z
" transform="scale(0.015625)"/>
       </defs>
       <use xlink:href="#DejaVuSans-32"/>
       <use xlink:href="#DejaVuSans-30" x="63.623047"/>
      </g>
     </g>
    </g>
    <g id="ytick_2">
     <g id="line2d_7">
      <g>
       <use xlink:href="#m43f1b93313" x="54" y="251.523842" style="stroke: #000000; stroke-width: 0.8"/>
      </g>
     </g>
     <g id="text_8">
      <!-- 40 -->
      <g transform="translate(34.275 255.323061) scale(0.1 -0.1)">
       <use xlink:href="#DejaVuSans-34"/>
       <use xlink:href="#DejaVuSans-30" x="63.623047"/>
      </g>
     </g>
    </g>
    <g id="ytick_3">
     <g id="line2d_8">
      <g>
       <use xlink:href="#m43f1b93313" x="54" y="184.962561" style="stroke: #000000; stroke-width: 0.8"/>
      </g>
     </g>
     <g id="text_9">
      <!-- 60 -->
      <g transform="translate(34.275 188.76178) scale(0.1 -0.1)">
       <use xlink:href="#DejaVuSans-36"/>
       <use xlink:href="#DejaVuSans-30" x="63.623047"/>
      </g>
     </g>
    </g>
    <g id="ytick_4">
     <g id="line2d_9">
      <g>
       <use xlink:href="#m43f1b93313" x="54" y="118.401281" style="stroke: #000000; stroke-width: 0.8"/>
      </g>
     </g>
     <g id="text_10">
      <!-- 80 -->
      <g transform="translate(34.275 122.200499) scale(0.1 -0.1)">
       <use xlink:href="#DejaVuSans-38"/>
       <use xlink:href="#DejaVuSans-30" x="63.623047"/>
      </g>
     </g>
    </g>
    <g id="ytick_5">
     <g id="line2d_10">
      <g>
       <use xlink:href="#m43f1b93313" x="54" y="51.84" style="stroke: #000000; stroke-width: 0.8"/>
      </g>
     </g>
     <g id="text_11">
      <!-- 100 -->
      <g transform="translate(27.9125 55.639219) scale(0.1 -0.1)">
       <defs>
        <path id="DejaVuSans-31" d="M 794 531 
L 1825 531 
L 1825 4091 
L 703 3866 
L 703 4441 
L 1819 4666 
L 2450 4666 
L 2450 531 
L 3481 531 
L 3481 0 
L 794 0 
L 794 531 
z
" transform="scale(0.015625)"/>
       </defs>
       <use xlink:href="#DejaVuSans-31"/>
       <use xlink:href="#DejaVuSans-30" x="63.623047"/>
       <use xlink:href="#DejaVuSans-30" x="127.246094"/>
      </g>
     </g>
    </g>
    <g id="text_12">
     <!-- % Transmittance -->
     <g transform="translate(21.416875 268.305) rotate(-90) scale(0.12 -0.12)">
      <defs>
       <path id="DejaVuSans-25" d="M 4653 2053 
Q 4381 2053 4226 1822 
Q 4072 1591 4072 1178 
Q 4072 772 4226 539 
Q 4381 306 4653 306 
Q 4919 306 5073 539 
Q 5228 772 5228 1178 
Q 5228 1588 5073 1820 
Q 4919 2053 4653 2053 
z
M 4653 2450 
Q 5147 2450 5437 2106 
Q 5728 1763 5728 1178 
Q 5728 594 5436 251 
Q 5144 -91 4653 -91 
Q 4153 -91 3862 251 
Q 3572 594 3572 1178 
Q 3572 1766 3864 2108 
Q 4156 2450 4653 2450 
z
M 1428 4353 
Q 1159 4353 1004 4120 
Q 850 3888 850 3481 
Q 850 3069 1003 2837 
Q 1156 2606 1428 2606 
Q 1700 2606 1854 2837 
Q 2009 3069 2009 3481 
Q 2009 3884 1853 4118 
Q 1697 4353 1428 4353 
z
M 4250 4750 
L 4750 4750 
L 1831 -91 
L 1331 -91 
L 4250 4750 
z
M 1428 4750 
Q 1922 4750 2215 4408 
Q 2509 4066 2509 3481 
Q 2509 2891 2217 2550 
Q 1925 2209 1428 2209 
Q 931 2209 642 2551 
Q 353 2894 353 3481 
Q 353 4063 643 4406 
Q 934 4750 1428 4750 
z
" transform="scale(0.015625)"/>
       <path id="DejaVuSans-54" d="M -19 4666 
L 3928 4666 
L 3928 4134 
L 2272 4134 
L 2272 0 
L 1638 0 
L 1638 4134 
L -19 4134 
L -19 4666 
z
" transform="scale(0.015625)"/>
       <path id="DejaVuSans-72" d="M 2631 2963 
Q 2534 3019 2420 3045 
Q 2306 3072 2169 3072 
Q 1681 3072 1420 2755 
Q 1159 2438 1159 1844 
L 1159 0 
L 581 0 
L 581 3500 
L 1159 3500 
L 1159 2956 
Q 1341 3275 1631 3429 
Q 1922 3584 2338 3584 
Q 2397 3584 2469 3576 
Q 2541 3569 2628 3553 
L 2631 2963 
z
" transform="scale(0.015625)"/>
       <path id="DejaVuSans-73" d="M 2834 3397 
L 2834 2853 
Q 2591 2978 2328 3040 
Q 2066 3103 1784 3103 
Q 1356 3103 1142 2972 
Q 928 2841 928 2578 
Q 928 2378 1081 2264 
Q 1234 2150 1697 2047 
L 1894 2003 
Q 2506 1872 2764 1633 
Q 3022 1394 3022 966 
Q 3022 478 2636 193 
Q 2250 -91 1575 -91 
Q 1294 -91 989 -36 
Q 684 19 347 128 
L 347 722 
Q 666 556 975 473 
Q 1284 391 1588 391 
Q 1994 391 2212 530 
Q 2431 669 2431 922 
Q 2431 1156 2273 1281 
Q 2116 1406 1581 1522 
L 1381 1569 
Q 847 1681 609 1914 
Q 372 2147 372 2553 
Q 372 3047 722 3315 
Q 1072 3584 1716 3584 
Q 2034 3584 2315 3537 
Q 2597 3491 2834 3397 
z
" transform="scale(0.015625)"/>
       <path id="DejaVuSans-69" d="M 603 3500 
L 1178 3500 
L 1178 0 
L 603 0 
L 603 3500 
z
M 603 4863 
L 1178 4863 
L 1178 4134 
L 603 4134 
L 603 4863 
z
" transform="scale(0.015625)"/>
       <path id="DejaVuSans-63" d="M 3122 3366 
L 3122 2828 
Q 2878 2963 2633 3030 
Q 2388 3097 2138 3097 
Q 1578 3097 1268 2742 
Q 959 2388 959 1747 
Q 959 1106 1268 751 
Q 1578 397 2138 397 
Q 2388 397 2633 464 
Q 2878 531 3122 666 
L 3122 134 
Q 2881 22 2623 -34 
Q 2366 -91 2075 -91 
Q 1284 -91 818 406 
Q 353 903 353 1747 
Q 353 2603 823 3093 
Q 1294 3584 2113 3584 
Q 2378 3584 2631 3529 
Q 2884 3475 3122 3366 
z
" transform="scale(0.015625)"/>
      </defs>
      <use xlink:href="#DejaVuSans-25"/>
      <use xlink:href="#DejaVuSans-20" x="95.019531"/>
      <use xlink:href="#DejaVuSans-54" x="126.806641"/>
      <use xlink:href="#DejaVuSans-72" x="173.140625"/>
      <use xlink:href="#DejaVuSans-61" x="214.253906"/>
      <use xlink:href="#DejaVuSans-6e" x="275.533203"/>
      <use xlink:href="#DejaVuSans-73" x="338.912109"/>
      <use xlink:href="#DejaVuSans-6d" x="391.011719"/>
      <use xlink:href="#DejaVuSans-69" x="488.423828"/>
      <use xlink:href="#DejaVuSans-74" x="516.207031"/>
      <use xlink:href="#DejaVuSans-74" x="555.416016"/>
      <use xlink:href="#DejaVuSans-61" x="594.625"/>
      <use xlink:href="#DejaVuSans-6e" x="655.904297"/>
      <use xlink:href="#DejaVuSans-63" x="719.283203"/>
      <use xlink:href="#DejaVuSans-65" x="774.263672"/>
     </g>
    </g>
   </g>
   <g id="line2d_11">
    <path d="M 388.8 94.572342 
L 388.1025 94.43922 
L 387.405 93.207836 
L 386.7075 92.708626 
L 386.01 93.174555 
L 385.3125 90.645227 
L 384.615 93.40752 
L 383.9175 92.542223 
L 383.22 91.34412 
L 382.5225 92.37582 
L 381.825 95.104832 
L 381.1275 94.572342 
L 380.43 92.076294 
L 379.7325 94.605623 
L 379.035 92.941591 
L 378.3375 93.008152 
L 377.64 94.239536 
L 376.9425 93.074713 
L 376.245 93.873449 
L 375.5475 92.275978 
L 374.85 93.507362 
L 374.1525 92.87503 
L 373.455 93.4408 
L 372.7575 94.705465 
L 371.3625 92.974871 
L 370.665 92.974871 
L 369.9675 94.106413 
L 369.27 92.90831 
L 368.5725 92.90831 
L 367.875 94.772026 
L 367.1775 95.903568 
L 366.48 95.837007 
L 365.7825 94.372658 
L 365.085 93.840168 
L 364.3875 95.870287 
L 363.69 95.570761 
L 362.9925 95.537481 
L 362.295 95.237955 
L 361.5975 96.602461 
L 360.9 95.803726 
L 360.2025 96.269655 
L 359.505 95.837007 
L 358.8075 96.402777 
L 358.11 97.268074 
L 357.4125 97.168232 
L 356.715 97.401197 
L 356.0175 98.033529 
L 355.32 97.234793 
L 354.6225 97.833845 
L 353.925 97.501039 
L 353.2275 96.502619 
L 352.53 97.201513 
L 351.8325 97.401197 
L 351.135 97.434477 
L 350.4375 98.10009 
L 349.74 98.5993 
L 349.0425 97.434477 
L 348.345 97.800564 
L 347.6475 98.299774 
L 346.95 97.933687 
L 346.2525 97.101671 
L 345.555 98.133371 
L 344.8575 97.134951 
L 344.16 97.06839 
L 343.4625 97.234793 
L 342.0675 98.898825 
L 341.37 97.900406 
L 340.6725 97.367916 
L 339.975 97.60088 
L 339.2775 98.466177 
L 337.8825 97.933687 
L 337.185 98.832264 
L 336.4875 99.098509 
L 335.79 98.665861 
L 335.0925 99.830683 
L 334.395 99.930525 
L 333.6975 100.795822 
L 333 100.596138 
L 332.3025 101.128628 
L 331.605 100.19677 
L 330.9075 100.329893 
L 330.21 100.762541 
L 329.5125 100.995506 
L 328.815 100.729261 
L 328.1175 100.962225 
L 327.42 101.428154 
L 326.7225 99.930525 
L 325.3275 100.030367 
L 324.63 99.264912 
L 323.9325 99.630999 
L 323.235 100.363174 
L 322.5375 99.630999 
L 321.84 99.464596 
L 320.445 100.19677 
L 319.7475 99.997087 
L 319.05 99.298193 
L 318.3525 100.096928 
L 317.655 99.630999 
L 316.9575 98.898825 
L 315.5625 100.030367 
L 314.865 99.497877 
L 314.1675 98.466177 
L 313.47 98.566019 
L 312.7725 99.630999 
L 311.3775 100.729261 
L 310.68 100.562857 
L 309.9825 99.630999 
L 309.285 99.13179 
L 308.5875 99.930525 
L 307.89 100.030367 
L 307.1925 99.630999 
L 306.495 99.830683 
L 305.1 99.997087 
L 304.4025 100.096928 
L 303.0075 99.630999 
L 302.31 99.464596 
L 301.6125 99.597719 
L 300.915 99.564438 
L 299.52 99.930525 
L 298.8225 99.13179 
L 298.125 99.13179 
L 297.4275 99.431316 
L 296.73 98.965387 
L 296.0325 98.832264 
L 295.335 98.932106 
L 294.6375 98.865545 
L 293.94 98.965387 
L 292.545 99.66428 
L 291.15 99.531158 
L 290.4525 99.930525 
L 289.755 100.130209 
L 289.0575 99.863964 
L 288.36 99.331474 
L 287.6625 99.298193 
L 286.965 99.764122 
L 286.2675 100.063648 
L 284.8725 100.19677 
L 284.175 99.764122 
L 283.4775 99.597719 
L 282.78 99.797403 
L 282.0825 99.764122 
L 281.385 99.597719 
L 280.6875 100.19677 
L 279.99 101.095348 
L 278.595 100.829103 
L 277.8975 100.496296 
L 277.2 100.463016 
L 276.5025 100.795822 
L 275.805 100.762541 
L 275.1075 100.596138 
L 273.7125 101.028786 
L 273.015 100.529577 
L 271.62 100.862383 
L 270.9225 101.361593 
L 269.5275 101.494715 
L 268.83 101.993925 
L 266.7375 102.093767 
L 266.04 101.428154 
L 265.3425 101.22847 
L 264.645 101.527996 
L 263.9475 101.993925 
L 263.25 102.293451 
L 262.5525 102.459854 
L 261.855 102.892502 
L 261.1575 102.825941 
L 260.46 103.358431 
L 259.7625 103.458273 
L 258.3675 104.123886 
L 257.67 104.157167 
L 256.275 103.657957 
L 255.5775 104.257009 
L 254.88 104.456692 
L 254.1825 104.257009 
L 252.7875 104.32357 
L 252.09 104.556534 
L 251.3925 104.489973 
L 250.695 104.589815 
L 249.3 104.190447 
L 248.6025 104.390131 
L 247.2075 104.955902 
L 246.51 104.32357 
L 245.8125 104.223728 
L 245.115 104.35685 
L 244.4175 104.789499 
L 243.72 104.589815 
L 243.0225 104.123886 
L 242.325 104.024044 
L 241.6275 104.789499 
L 240.93 104.390131 
L 240.2325 104.523254 
L 239.535 104.290289 
L 238.8375 103.857641 
L 238.14 104.024044 
L 237.4425 104.489973 
L 236.745 104.057325 
L 236.0475 103.990763 
L 235.35 104.589815 
L 234.6525 104.689657 
L 233.955 104.922621 
L 233.2575 105.455112 
L 232.56 104.922621 
L 231.8625 104.589815 
L 231.165 105.122305 
L 230.4675 105.089025 
L 229.77 104.85606 
L 229.0725 104.456692 
L 228.375 104.689657 
L 227.6775 105.155586 
L 226.98 105.288708 
L 226.2825 104.789499 
L 225.585 105.122305 
L 224.19 105.488392 
L 223.4925 105.122305 
L 222.795 105.688076 
L 222.0975 105.787918 
L 221.4 105.588234 
L 220.7025 105.754637 
L 220.005 105.621515 
L 218.61 106.320408 
L 217.9125 106.520092 
L 217.215 106.553373 
L 216.5175 107.019302 
L 215.82 106.586653 
L 214.425 107.352108 
L 213.7275 107.318827 
L 213.03 107.585073 
L 211.635 107.585073 
L 210.9375 108.217405 
L 210.24 108.084282 
L 209.5425 108.217405 
L 208.845 108.150843 
L 208.1475 109.082701 
L 207.45 108.550211 
L 206.7525 109.249105 
L 206.055 109.049421 
L 204.66 109.648472 
L 203.265 109.382227 
L 202.5675 109.914717 
L 201.87 110.280804 
L 201.1725 109.914717 
L 200.475 109.748314 
L 199.7775 110.247524 
L 199.08 109.947998 
L 196.9875 110.147682 
L 196.29 110.04784 
L 195.5925 110.147682 
L 194.895 109.881437 
L 193.5 110.114401 
L 190.71 110.247524 
L 190.0125 110.447208 
L 188.6175 110.380646 
L 187.92 111.212662 
L 187.2225 110.380646 
L 186.525 110.54705 
L 185.8275 110.380646 
L 185.13 112.11124 
L 183.735 111.778433 
L 181.6425 111.944836 
L 180.945 111.61203 
L 180.2475 112.244362 
L 179.55 111.944836 
L 178.8525 112.677011 
L 178.155 111.445627 
L 177.4575 112.776852 
L 176.76 112.876694 
L 176.0625 113.142939 
L 175.365 113.242781 
L 174.6675 114.873533 
L 173.97 113.875114 
L 172.575 114.640568 
L 171.8775 114.940094 
L 171.18 113.908394 
L 170.4825 115.139778 
L 169.785 115.173059 
L 169.0875 114.673849 
L 168.39 114.008236 
L 167.6925 114.440884 
L 166.995 115.206339 
L 166.2975 115.006655 
L 165.6 114.973375 
L 164.9025 115.605707 
L 164.205 115.77211 
L 163.5075 115.406023 
L 162.81 115.77211 
L 162.1125 115.938513 
L 161.415 116.570845 
L 160.7175 116.337881 
L 160.02 116.504284 
L 159.3225 116.437723 
L 158.625 116.637407 
L 157.9275 116.537565 
L 157.23 117.602545 
L 156.5325 117.169897 
L 155.835 117.003494 
L 155.1375 118.135036 
L 154.44 117.83551 
L 153.7425 117.669107 
L 153.045 118.201597 
L 152.3475 117.802229 
L 151.65 118.268158 
L 150.9525 117.86879 
L 150.255 118.90049 
L 149.5575 118.567684 
L 148.86 119.033613 
L 148.1625 119.732506 
L 147.465 119.93219 
L 146.7675 119.832348 
L 146.07 120.165155 
L 145.3725 120.331558 
L 144.675 120.997171 
L 143.9775 121.230135 
L 143.28 121.097013 
L 142.5825 121.929029 
L 141.885 122.161993 
L 141.1875 121.596222 
L 140.49 121.99559 
L 139.7925 121.795906 
L 139.095 121.729345 
L 138.3975 122.295116 
L 137.0025 123.160412 
L 136.305 123.659622 
L 135.6075 123.826025 
L 134.91 123.759464 
L 134.2125 124.857725 
L 133.515 125.12397 
L 132.12 125.223812 
L 131.4225 125.922705 
L 130.725 126.15567 
L 130.0275 125.689741 
L 129.33 126.421915 
L 128.6325 127.653299 
L 127.935 127.553457 
L 127.2375 128.152508 
L 126.54 128.352192 
L 124.4475 130.116066 
L 123.75 130.215908 
L 123.0525 130.615276 
L 122.355 131.480572 
L 121.6575 131.979782 
L 120.96 132.312588 
L 120.2625 133.078043 
L 119.565 133.610533 
L 118.8675 134.342707 
L 118.17 134.509111 
L 117.4725 135.141443 
L 116.775 135.574091 
L 115.38 136.772194 
L 114.6825 137.570929 
L 113.2875 139.66761 
L 112.59 141.032116 
L 111.8925 141.664448 
L 108.405 147.122473 
L 107.01 150.184292 
L 106.3125 152.114569 
L 105.615 154.377653 
L 104.22 157.738997 
L 102.825 162.53141 
L 102.1275 165.460106 
L 100.035 177.208172 
L 97.9425 193.249441 
L 96.5475 205.66312 
L 95.85 212.053003 
L 94.455 228.926287 
L 92.3625 250.425581 
L 91.665 259.611038 
L 90.27 283.63966 
L 88.875 313.492394 
L 87.48 345.874457 
L 86.7825 359.985449 
L 86.085 370.701815 
L 85.3875 377.72403 
L 84.69 381.617865 
L 83.9925 383.248616 
L 83.295 383.814387 
L 82.5975 383.94751 
L 69.345 383.847668 
L 67.95 383.814387 
L 64.4625 383.880948 
L 63.0675 383.814387 
L 54 383.781107 
L 51.9075 383.281897 
L 42.1425 383.182055 
L 38.655 383.115494 
L 28.1925 383.015652 
L 25.4025 382.982371 
L -1 383.010761 
L -1 383.010761 
" clip-path="url(#pfe358ecabf)" style="fill: none; stroke: #000000; stroke-opacity: 0.8; stroke-width: 1.25; stroke-linecap: square"/>
   </g>
   <g id="line2d_12">
    <path d="M 388.8 351.265921 
L 388.1025 351.565447 
L 387.405 351.632008 
L 386.01 351.465605 
L 385.3125 351.565447 
L 384.615 351.23264 
L 383.9175 351.498885 
L 383.22 351.964814 
L 382.5225 351.864972 
L 380.43 352.031376 
L 379.7325 351.532166 
L 379.035 351.632008 
L 378.3375 352.031376 
L 376.9425 352.430743 
L 376.245 352.23106 
L 375.5475 352.330901 
L 374.85 351.964814 
L 374.1525 352.364182 
L 373.455 352.563866 
L 372.7575 352.297621 
L 372.06 352.597147 
L 369.9675 352.330901 
L 369.27 352.563866 
L 368.5725 352.663708 
L 367.875 352.364182 
L 365.085 352.663708 
L 364.3875 352.563866 
L 363.69 352.963234 
L 362.9925 352.730269 
L 361.5975 352.963234 
L 360.9 353.262759 
L 360.2025 353.096356 
L 359.505 353.129637 
L 358.8075 352.996514 
L 358.11 353.395882 
L 355.32 353.162917 
L 353.925 353.595566 
L 352.53 353.429163 
L 351.135 353.662127 
L 349.74 353.82853 
L 348.345 353.761969 
L 346.95 354.028214 
L 346.2525 353.82853 
L 344.16 354.028214 
L 343.4625 353.895092 
L 342.765 353.928372 
L 341.37 354.294459 
L 340.6725 354.161337 
L 339.2775 354.094775 
L 338.58 354.361021 
L 337.8825 354.294459 
L 335.79 354.527424 
L 335.0925 354.394301 
L 334.395 354.560704 
L 333.6975 354.427582 
L 332.3025 354.760388 
L 331.605 354.560704 
L 328.815 355.093195 
L 326.7225 354.893511 
L 326.025 355.059914 
L 325.3275 355.093195 
L 324.63 354.960072 
L 322.5375 355.193037 
L 320.445 355.259598 
L 319.05 355.459282 
L 314.1675 355.559124 
L 313.47 355.692246 
L 310.68 355.792088 
L 308.5875 355.925211 
L 305.7975 356.025053 
L 290.4525 356.823788 
L 289.0575 356.990191 
L 286.965 356.990191 
L 282.0825 357.223156 
L 281.385 357.389559 
L 277.2 357.489401 
L 274.41 357.689085 
L 271.62 357.788926 
L 270.9225 357.888768 
L 270.225 357.822207 
L 266.7375 358.055172 
L 254.88 358.687504 
L 253.485 358.820626 
L 252.7875 358.787346 
L 251.3925 358.953749 
L 249.3 358.953749 
L 246.51 359.120152 
L 220.005 360.418097 
L 219.3075 360.55122 
L 216.5175 360.5845 
L 215.1225 360.884026 
L 214.425 360.750903 
L 211.635 360.917307 
L 210.9375 361.08371 
L 208.1475 361.050429 
L 205.3575 361.349955 
L 203.265 361.449797 
L 201.87 361.483078 
L 201.1725 361.6162 
L 199.7775 361.6162 
L 194.1975 362.048848 
L 192.8025 362.082129 
L 191.4075 362.281813 
L 190.71 362.215252 
L 189.315 362.315094 
L 180.2475 362.714461 
L 179.55 362.914145 
L 178.155 362.914145 
L 177.4575 362.980706 
L 176.76 362.880864 
L 173.97 363.080548 
L 173.2725 363.013987 
L 172.575 363.18039 
L 170.4825 363.18039 
L 168.39 363.313513 
L 165.6 363.380074 
L 162.81 363.579758 
L 161.415 363.613039 
L 160.02 363.71288 
L 158.625 363.812722 
L 130.725 365.210509 
L 129.33 365.343632 
L 124.4475 365.643158 
L 123.0525 365.809561 
L 120.2625 365.876122 
L 118.17 366.208928 
L 116.0775 366.342051 
L 114.6825 366.674857 
L 109.8 367.706557 
L 106.3125 369.037783 
L 104.9175 370.069483 
L 102.825 372.066321 
L 102.1275 372.765215 
L 100.7325 374.762053 
L 96.5475 381.3849 
L 95.1525 382.949091 
L 93.7575 383.814387 
L 93.06 384.014071 
L 86.085 383.914229 
L 82.5975 383.847668 
L 80.505 383.847668 
L 70.74 383.94751 
L 65.16 384.113913 
L 54.6975 384.213755 
L 54 384.247036 
L 52.605 383.914229 
L 49.815 383.880948 
L 44.9325 383.781107 
L 40.7475 383.681265 
L 10.755 383.747826 
L 9.36 383.814387 
L 0.99 383.914229 
L -1 383.94751 
L -1 383.94751 
" clip-path="url(#pfe358ecabf)" style="fill: none; stroke: #69422a; stroke-opacity: 0.8; stroke-width: 1.25; stroke-linecap: square"/>
   </g>
   <g id="line2d_13">
    <path d="M 388.8 340.582835 
L 388.1025 340.8158 
L 387.405 340.782519 
L 386.7075 340.416432 
L 384.615 340.915642 
L 383.9175 341.015484 
L 383.22 340.948922 
L 382.5225 341.148606 
L 381.825 340.882361 
L 381.1275 341.647816 
L 380.43 341.148606 
L 379.7325 341.048764 
L 379.035 341.31501 
L 378.3375 341.115326 
L 377.64 341.34829 
L 376.9425 341.414851 
L 376.245 341.115326 
L 375.5475 341.381571 
L 374.85 341.248448 
L 374.1525 341.414851 
L 373.455 341.747658 
L 372.7575 341.248448 
L 371.3625 341.980622 
L 370.665 342.013903 
L 369.9675 341.814219 
L 369.27 341.947342 
L 368.5725 341.814219 
L 367.875 342.147026 
L 367.1775 342.147026 
L 366.48 342.313429 
L 365.7825 342.313429 
L 365.085 342.047184 
L 364.3875 342.213587 
L 363.69 342.246867 
L 362.9925 342.479832 
L 362.295 342.37999 
L 361.5975 342.612954 
L 360.2025 342.712796 
L 358.8075 342.8792 
L 358.11 342.746077 
L 357.4125 343.178725 
L 356.0175 342.746077 
L 355.32 342.945761 
L 354.6225 342.845919 
L 352.53 343.311848 
L 351.135 343.345129 
L 349.74 343.44497 
L 349.0425 343.44497 
L 347.6475 343.711216 
L 346.2525 343.478251 
L 345.555 343.644654 
L 344.8575 344.010741 
L 343.4625 344.177145 
L 342.765 343.877619 
L 342.0675 344.110583 
L 341.37 344.210425 
L 340.6725 343.910899 
L 339.2775 344.376828 
L 338.58 344.243706 
L 335.79 344.343548 
L 335.0925 344.709635 
L 333 344.44339 
L 332.3025 344.47667 
L 331.605 344.676354 
L 330.21 344.742915 
L 328.815 345.109003 
L 328.1175 344.842757 
L 327.42 344.909319 
L 326.7225 345.208844 
L 326.025 345.042441 
L 325.3275 345.009161 
L 324.63 345.242125 
L 323.235 345.275406 
L 321.84 345.242125 
L 319.05 345.541651 
L 318.3525 345.47509 
L 316.26 345.874457 
L 315.5625 345.974299 
L 314.865 345.907738 
L 313.47 346.107422 
L 312.7725 345.974299 
L 311.3775 346.240544 
L 310.68 346.107422 
L 308.5875 346.340386 
L 307.89 346.240544 
L 307.1925 346.373667 
L 306.495 346.673193 
L 304.4025 346.673193 
L 303.705 346.739754 
L 303.0075 346.673193 
L 300.2175 347.07256 
L 298.125 347.07256 
L 296.73 347.139122 
L 296.0325 347.372086 
L 293.94 347.471928 
L 290.4525 347.671612 
L 289.0575 347.904576 
L 287.6625 347.738173 
L 285.57 348.037699 
L 284.8725 347.937857 
L 280.6875 348.437067 
L 279.99 348.370505 
L 276.5025 348.769873 
L 269.5275 349.202521 
L 268.1325 349.302363 
L 267.435 349.235802 
L 262.5525 349.66845 
L 261.855 349.63517 
L 259.7625 349.834853 
L 256.275 350.134379 
L 254.88 350.101099 
L 253.485 350.334063 
L 247.2075 350.666869 
L 245.8125 350.866553 
L 244.4175 350.766711 
L 243.72 350.933115 
L 242.325 350.933115 
L 240.93 350.966395 
L 236.745 351.532166 
L 235.35 351.532166 
L 227.6775 351.964814 
L 226.2825 352.097937 
L 224.8875 352.131218 
L 220.7025 352.464024 
L 218.61 352.563866 
L 215.1225 352.863392 
L 214.425 352.830111 
L 213.03 352.996514 
L 211.635 353.096356 
L 206.7525 353.429163 
L 204.66 353.728688 
L 203.9625 353.761969 
L 202.5675 353.994933 
L 199.08 354.593985 
L 197.685 354.960072 
L 196.29 355.259598 
L 193.5 356.42442 
L 190.71 358.121733 
L 188.6175 360.085291 
L 187.2225 361.716042 
L 185.13 364.944264 
L 182.34 370.369009 
L 178.8525 377.557627 
L 177.4575 379.953833 
L 176.76 381.018813 
L 175.365 382.516442 
L 174.6675 383.115494 
L 173.97 383.548142 
L 172.575 384.014071 
L 171.8775 384.213755 
L 169.0875 384.380158 
L 113.2875 384.280316 
L 110.4975 384.147194 
L 109.1025 383.714545 
L 108.405 383.348458 
L 107.7075 382.782687 
L 107.01 382.050513 
L 105.615 380.086955 
L 102.825 375.460946 
L 101.43 373.830195 
L 100.7325 373.297705 
L 100.035 372.964898 
L 99.3375 372.931618 
L 98.64 373.131302 
L 97.9425 373.530669 
L 97.245 374.06316 
L 95.85 375.594069 
L 93.7575 378.722449 
L 93.06 379.754149 
L 92.3625 380.486323 
L 91.665 381.3849 
L 90.27 382.649565 
L 88.875 383.481581 
L 88.1775 383.814387 
L 86.7825 384.147194 
L 86.085 384.280316 
L 83.9925 384.280316 
L 74.2275 384.213755 
L 73.53 384.113913 
L 71.4375 384.180474 
L 70.0425 384.113913 
L 68.6475 384.113913 
L 67.95 384.080632 
L 67.2525 384.213755 
L 63.0675 384.113913 
L 61.6725 384.147194 
L 59.58 384.147194 
L 58.185 384.113913 
L 56.79 384.080632 
L 55.395 384.180474 
L 54.6975 384.280316 
L 52.605 383.94751 
L 35.865 383.847668 
L 33.075 383.814387 
L -1 383.880948 
L -1 383.880948 
" clip-path="url(#pfe358ecabf)" style="fill: none; stroke: #d28555; stroke-opacity: 0.8; stroke-width: 1.25; stroke-linecap: square"/>
   </g>
   <g id="line2d_14">
    <path d="M 388.8 384.446719 
L 104.22 384.380158 
L 102.825 384.346877 
L 94.455 384.346877 
L 93.7575 384.546561 
L 92.3625 384.380158 
L 74.2275 384.280316 
L 72.135 384.247036 
L 70.0425 384.280316 
L 66.555 384.213755 
L 54 384.213755 
L 52.605 383.98079 
L 41.445 383.880948 
L 37.9575 383.814387 
L 3.0825 383.914229 
L 0.99 383.914229 
L -1 383.94751 
L -1 383.94751 
" clip-path="url(#pfe358ecabf)" style="fill: none; stroke: #ffc77f; stroke-opacity: 0.8; stroke-width: 1.25; stroke-linecap: square"/>
   </g>
   <g id="patch_3">
    <path d="M 54 384.48 
L 54 51.84 
" style="fill: none; stroke: #000000; stroke-width: 0.8; stroke-linejoin: miter; stroke-linecap: square"/>
   </g>
   <g id="patch_4">
    <path d="M 388.8 384.48 
L 388.8 51.84 
" style="fill: none; stroke: #000000; stroke-width: 0.8; stroke-linejoin: miter; stroke-linecap: square"/>
   </g>
   <g id="patch_5">
    <path d="M 54 384.48 
L 388.8 384.48 
" style="fill: none; stroke: #000000; stroke-width: 0.8; stroke-linejoin: miter; stroke-linecap: square"/>
   </g>
   <g id="patch_6">
    <path d="M 54 51.84 
L 388.8 51.84 
" style="fill: none; stroke: #000000; stroke-width: 0.8; stroke-linejoin: miter; stroke-linecap: square"/>
   </g>
   <g id="text_13">
    <!-- Industry standard -->
    <g transform="translate(150.46625 45.84) scale(0.16 -0.16)">
     <defs>
      <path id="DejaVuSans-49" d="M 628 4666 
L 1259 4666 
L 1259 0 
L 628 0 
L 628 4666 
z
" transform="scale(0.015625)"/>
      <path id="DejaVuSans-64" d="M 2906 2969 
L 2906 4863 
L 3481 4863 
L 3481 0 
L 2906 0 
L 2906 525 
Q 2725 213 2448 61 
Q 2172 -91 1784 -91 
Q 1150 -91 751 415 
Q 353 922 353 1747 
Q 353 2572 751 3078 
Q 1150 3584 1784 3584 
Q 2172 3584 2448 3432 
Q 2725 3281 2906 2969 
z
M 947 1747 
Q 947 1113 1208 752 
Q 1469 391 1925 391 
Q 2381 391 2643 752 
Q 2906 1113 2906 1747 
Q 2906 2381 2643 2742 
Q 2381 3103 1925 3103 
Q 1469 3103 1208 2742 
Q 947 2381 947 1747 
z
" transform="scale(0.015625)"/>
      <path id="DejaVuSans-75" d="M 544 1381 
L 544 3500 
L 1119 3500 
L 1119 1403 
Q 1119 906 1312 657 
Q 1506 409 1894 409 
Q 2359 409 2629 706 
Q 2900 1003 2900 1516 
L 2900 3500 
L 3475 3500 
L 3475 0 
L 2900 0 
L 2900 538 
Q 2691 219 2414 64 
Q 2138 -91 1772 -91 
Q 1169 -91 856 284 
Q 544 659 544 1381 
z
M 1991 3584 
L 1991 3584 
z
" transform="scale(0.015625)"/>
      <path id="DejaVuSans-79" d="M 2059 -325 
Q 1816 -950 1584 -1140 
Q 1353 -1331 966 -1331 
L 506 -1331 
L 506 -850 
L 844 -850 
Q 1081 -850 1212 -737 
Q 1344 -625 1503 -206 
L 1606 56 
L 191 3500 
L 800 3500 
L 1894 763 
L 2988 3500 
L 3597 3500 
L 2059 -325 
z
" transform="scale(0.015625)"/>
     </defs>
     <use xlink:href="#DejaVuSans-49"/>
     <use xlink:href="#DejaVuSans-6e" x="29.492188"/>
     <use xlink:href="#DejaVuSans-64" x="92.871094"/>
     <use xlink:href="#DejaVuSans-75" x="156.347656"/>
     <use xlink:href="#DejaVuSans-73" x="219.726562"/>
     <use xlink:href="#DejaVuSans-74" x="271.826172"/>
     <use xlink:href="#DejaVuSans-72" x="311.035156"/>
     <use xlink:href="#DejaVuSans-79" x="352.148438"/>
     <use xlink:href="#DejaVuSans-20" x="411.328125"/>
     <use xlink:href="#DejaVuSans-73" x="443.115234"/>
     <use xlink:href="#DejaVuSans-74" x="495.214844"/>
     <use xlink:href="#DejaVuSans-61" x="534.423828"/>
     <use xlink:href="#DejaVuSans-6e" x="595.703125"/>
     <use xlink:href="#DejaVuSans-64" x="659.082031"/>
     <use xlink:href="#DejaVuSans-61" x="722.558594"/>
     <use xlink:href="#DejaVuSans-72" x="783.837891"/>
     <use xlink:href="#DejaVuSans-64" x="823.201172"/>
    </g>
   </g>
   <g id="legend_1">
    <g id="patch_7">
     <path d="M 298.52625 255.1875 
L 380.4 255.1875 
Q 382.8 255.1875 382.8 252.7875 
L 382.8 183.5325 
Q 382.8 181.1325 380.4 181.1325 
L 298.52625 181.1325 
Q 296.12625 181.1325 296.12625 183.5325 
L 296.12625 252.7875 
Q 296.12625 255.1875 298.52625 255.1875 
z
" style="fill: #ffffff; opacity: 0.8; stroke: #cccccc; stroke-linejoin: miter"/>
    </g>
    <g id="line2d_15">
     <path d="M 300.92625 190.850625 
L 312.92625 190.850625 
L 324.92625 190.850625 
" style="fill: none; stroke: #000000; stroke-opacity: 0.8; stroke-width: 1.25; stroke-linecap: square"/>
    </g>
    <g id="text_14">
     <!-- EJ232Q -->
     <g transform="translate(334.52625 195.050625) scale(0.12 -0.12)">
      <defs>
       <path id="DejaVuSans-45" d="M 628 4666 
L 3578 4666 
L 3578 4134 
L 1259 4134 
L 1259 2753 
L 3481 2753 
L 3481 2222 
L 1259 2222 
L 1259 531 
L 3634 531 
L 3634 0 
L 628 0 
L 628 4666 
z
" transform="scale(0.015625)"/>
       <path id="DejaVuSans-4a" d="M 628 4666 
L 1259 4666 
L 1259 325 
Q 1259 -519 939 -900 
Q 619 -1281 -91 -1281 
L -331 -1281 
L -331 -750 
L -134 -750 
Q 284 -750 456 -515 
Q 628 -281 628 325 
L 628 4666 
z
" transform="scale(0.015625)"/>
       <path id="DejaVuSans-33" d="M 2597 2516 
Q 3050 2419 3304 2112 
Q 3559 1806 3559 1356 
Q 3559 666 3084 287 
Q 2609 -91 1734 -91 
Q 1441 -91 1130 -33 
Q 819 25 488 141 
L 488 750 
Q 750 597 1062 519 
Q 1375 441 1716 441 
Q 2309 441 2620 675 
Q 2931 909 2931 1356 
Q 2931 1769 2642 2001 
Q 2353 2234 1838 2234 
L 1294 2234 
L 1294 2753 
L 1863 2753 
Q 2328 2753 2575 2939 
Q 2822 3125 2822 3475 
Q 2822 3834 2567 4026 
Q 2313 4219 1838 4219 
Q 1578 4219 1281 4162 
Q 984 4106 628 3988 
L 628 4550 
Q 988 4650 1302 4700 
Q 1616 4750 1894 4750 
Q 2613 4750 3031 4423 
Q 3450 4097 3450 3541 
Q 3450 3153 3228 2886 
Q 3006 2619 2597 2516 
z
" transform="scale(0.015625)"/>
       <path id="DejaVuSans-51" d="M 2522 4238 
Q 1834 4238 1429 3725 
Q 1025 3213 1025 2328 
Q 1025 1447 1429 934 
Q 1834 422 2522 422 
Q 3209 422 3611 934 
Q 4013 1447 4013 2328 
Q 4013 3213 3611 3725 
Q 3209 4238 2522 4238 
z
M 3406 84 
L 4238 -825 
L 3475 -825 
L 2784 -78 
Q 2681 -84 2626 -87 
Q 2572 -91 2522 -91 
Q 1538 -91 948 567 
Q 359 1225 359 2328 
Q 359 3434 948 4092 
Q 1538 4750 2522 4750 
Q 3503 4750 4090 4092 
Q 4678 3434 4678 2328 
Q 4678 1516 4351 937 
Q 4025 359 3406 84 
z
" transform="scale(0.015625)"/>
      </defs>
      <use xlink:href="#DejaVuSans-45"/>
      <use xlink:href="#DejaVuSans-4a" x="63.183594"/>
      <use xlink:href="#DejaVuSans-32" x="92.675781"/>
      <use xlink:href="#DejaVuSans-33" x="156.298828"/>
      <use xlink:href="#DejaVuSans-32" x="219.921875"/>
      <use xlink:href="#DejaVuSans-51" x="283.544922"/>
     </g>
    </g>
    <g id="line2d_16">
     <path d="M 300.92625 208.464375 
L 312.92625 208.464375 
L 324.92625 208.464375 
" style="fill: none; stroke: #69422a; stroke-opacity: 0.8; stroke-width: 1.25; stroke-linecap: square"/>
    </g>
    <g id="text_15">
     <!-- LYSO -->
     <g transform="translate(334.52625 212.664375) scale(0.12 -0.12)">
      <defs>
       <path id="DejaVuSans-4c" d="M 628 4666 
L 1259 4666 
L 1259 531 
L 3531 531 
L 3531 0 
L 628 0 
L 628 4666 
z
" transform="scale(0.015625)"/>
       <path id="DejaVuSans-59" d="M -13 4666 
L 666 4666 
L 1959 2747 
L 3244 4666 
L 3922 4666 
L 2272 2222 
L 2272 0 
L 1638 0 
L 1638 2222 
L -13 4666 
z
" transform="scale(0.015625)"/>
       <path id="DejaVuSans-53" d="M 3425 4513 
L 3425 3897 
Q 3066 4069 2747 4153 
Q 2428 4238 2131 4238 
Q 1616 4238 1336 4038 
Q 1056 3838 1056 3469 
Q 1056 3159 1242 3001 
Q 1428 2844 1947 2747 
L 2328 2669 
Q 3034 2534 3370 2195 
Q 3706 1856 3706 1288 
Q 3706 609 3251 259 
Q 2797 -91 1919 -91 
Q 1588 -91 1214 -16 
Q 841 59 441 206 
L 441 856 
Q 825 641 1194 531 
Q 1563 422 1919 422 
Q 2459 422 2753 634 
Q 3047 847 3047 1241 
Q 3047 1584 2836 1778 
Q 2625 1972 2144 2069 
L 1759 2144 
Q 1053 2284 737 2584 
Q 422 2884 422 3419 
Q 422 4038 858 4394 
Q 1294 4750 2059 4750 
Q 2388 4750 2728 4690 
Q 3069 4631 3425 4513 
z
" transform="scale(0.015625)"/>
       <path id="DejaVuSans-4f" d="M 2522 4238 
Q 1834 4238 1429 3725 
Q 1025 3213 1025 2328 
Q 1025 1447 1429 934 
Q 1834 422 2522 422 
Q 3209 422 3611 934 
Q 4013 1447 4013 2328 
Q 4013 3213 3611 3725 
Q 3209 4238 2522 4238 
z
M 2522 4750 
Q 3503 4750 4090 4092 
Q 4678 3434 4678 2328 
Q 4678 1225 4090 567 
Q 3503 -91 2522 -91 
Q 1538 -91 948 565 
Q 359 1222 359 2328 
Q 359 3434 948 4092 
Q 1538 4750 2522 4750 
z
" transform="scale(0.015625)"/>
      </defs>
      <use xlink:href="#DejaVuSans-4c"/>
      <use xlink:href="#DejaVuSans-59" x="42.462891"/>
      <use xlink:href="#DejaVuSans-53" x="103.546875"/>
      <use xlink:href="#DejaVuSans-4f" x="167.023438"/>
     </g>
    </g>
    <g id="line2d_17">
     <path d="M 300.92625 226.078125 
L 312.92625 226.078125 
L 324.92625 226.078125 
" style="fill: none; stroke: #d28555; stroke-opacity: 0.8; stroke-width: 1.25; stroke-linecap: square"/>
    </g>
    <g id="text_16">
     <!-- GAGG -->
     <g transform="translate(334.52625 230.278125) scale(0.12 -0.12)">
      <defs>
       <path id="DejaVuSans-47" d="M 3809 666 
L 3809 1919 
L 2778 1919 
L 2778 2438 
L 4434 2438 
L 4434 434 
Q 4069 175 3628 42 
Q 3188 -91 2688 -91 
Q 1594 -91 976 548 
Q 359 1188 359 2328 
Q 359 3472 976 4111 
Q 1594 4750 2688 4750 
Q 3144 4750 3555 4637 
Q 3966 4525 4313 4306 
L 4313 3634 
Q 3963 3931 3569 4081 
Q 3175 4231 2741 4231 
Q 1884 4231 1454 3753 
Q 1025 3275 1025 2328 
Q 1025 1384 1454 906 
Q 1884 428 2741 428 
Q 3075 428 3337 486 
Q 3600 544 3809 666 
z
" transform="scale(0.015625)"/>
       <path id="DejaVuSans-41" d="M 2188 4044 
L 1331 1722 
L 3047 1722 
L 2188 4044 
z
M 1831 4666 
L 2547 4666 
L 4325 0 
L 3669 0 
L 3244 1197 
L 1141 1197 
L 716 0 
L 50 0 
L 1831 4666 
z
" transform="scale(0.015625)"/>
      </defs>
      <use xlink:href="#DejaVuSans-47"/>
      <use xlink:href="#DejaVuSans-41" x="77.490234"/>
      <use xlink:href="#DejaVuSans-47" x="144.148438"/>
      <use xlink:href="#DejaVuSans-47" x="221.638672"/>
     </g>
    </g>
    <g id="line2d_18">
     <path d="M 300.92625 243.691875 
L 312.92625 243.691875 
L 324.92625 243.691875 
" style="fill: none; stroke: #ffc77f; stroke-opacity: 0.8; stroke-width: 1.25; stroke-linecap: square"/>
    </g>
    <g id="text_17">
     <!-- GGAG -->
     <g transform="translate(334.52625 247.891875) scale(0.12 -0.12)">
      <use xlink:href="#DejaVuSans-47"/>
      <use xlink:href="#DejaVuSans-47" x="77.490234"/>
      <use xlink:href="#DejaVuSans-41" x="154.980469"/>
      <use xlink:href="#DejaVuSans-47" x="221.638672"/>
     </g>
    </g>
   </g>
  </g>
 </g>
 <defs>
  <clipPath id="pfe358ecabf">
   <rect x="54" y="51.84" width="334.8" height="332.64"/>
  </clipPath>
 </defs>
</svg>
