<?xml version="1.0" encoding="utf-8" standalone="no"?>
<!DOCTYPE svg PUBLIC "-//W3C//DTD SVG 1.1//EN"
  "http://www.w3.org/Graphics/SVG/1.1/DTD/svg11.dtd">
<svg xmlns:xlink="http://www.w3.org/1999/xlink" width="402.48pt" height="402.48pt" viewBox="0 0 402.48 402.48" xmlns="http://www.w3.org/2000/svg" version="1.1">
 <metadata>
  <rdf:RDF xmlns:dc="http://purl.org/dc/elements/1.1/" xmlns:cc="http://creativecommons.org/ns#" xmlns:rdf="http://www.w3.org/1999/02/22-rdf-syntax-ns#">
   <cc:Work>
    <dc:type rdf:resource="http://purl.org/dc/dcmitype/StillImage"/>
    <dc:date>2026-05-06T11:59:55.788250</dc:date>
    <dc:format>image/svg+xml</dc:format>
    <dc:creator>
     <cc:Agent>
      <dc:title>Matplotlib v3.10.6, https://matplotlib.org/</dc:title>
     </cc:Agent>
    </dc:creator>
   </cc:Work>
  </rdf:RDF>
 </metadata>
 <defs>
  <style type="text/css">*{stroke-linejoin: round; stroke-linecap: butt}</style>
 </defs>
 <g id="figure_1">
  <g id="patch_1">
   <path d="M 0 402.48 
L 402.48 402.48 
L 402.48 -0 
L 0 -0 
z
" style="fill: #ffffff"/>
  </g>
  <g id="axes_1">
   <g id="PathCollection_1">
    <defs>
     <path id="m45793c0794" d="M 0 3 
C 0.795609 3 1.55874 2.683901 2.12132 2.12132 
C 2.683901 1.55874 3 0.795609 3 0 
C 3 -0.795609 2.683901 -1.55874 2.12132 -2.12132 
C 1.55874 -2.683901 0.795609 -3 0 -3 
C -0.795609 -3 -1.55874 -2.683901 -2.12132 -2.12132 
C -2.683901 -1.55874 -3 -0.795609 -3 0 
C -3 0.795609 -2.683901 1.55874 -2.12132 2.12132 
C -1.55874 2.683901 -0.795609 3 0 3 
z
" style="stroke: #ff0000; stroke-opacity: 0.3"/>
    </defs>
    <g clip-path="url(#p2e320c5ce1)">
     <use xlink:href="#m45793c0794" x="204.1506" y="212.10624" style="fill: #ff0000; fill-opacity: 0.3; stroke: #ff0000; stroke-opacity: 0.3"/>
    </g>
   </g>
   <g id="PathCollection_2">
    <defs>
     <path id="me80497b5b9" d="M 0 1.5 
C 0.397805 1.5 0.77937 1.341951 1.06066 1.06066 
C 1.341951 0.77937 1.5 0.397805 1.5 0 
C 1.5 -0.397805 1.341951 -0.77937 1.06066 -1.06066 
C 0.77937 -1.341951 0.397805 -1.5 0 -1.5 
C -0.397805 -1.5 -0.77937 -1.341951 -1.06066 -1.06066 
C -1.341951 -0.77937 -1.5 -0.397805 -1.5 0 
C -1.5 0.397805 -1.341951 0.77937 -1.06066 1.06066 
C -0.77937 1.341951 -0.397805 1.5 0 1.5 
z
" style="stroke: #000000; stroke-opacity: 0.05"/>
    </defs>
    <g clip-path="url(#p2e320c5ce1)">
     <use xlink:href="#me80497b5b9" x="200.2698" y="248.7798" style="fill-opacity: 0.05; stroke: #000000; stroke-opacity: 0.05"/>
     <use xlink:href="#me80497b5b9" x="200.2698" y="248.7798" style="fill-opacity: 0.05; stroke: #000000; stroke-opacity: 0.05"/>
     <use xlink:href="#me80497b5b9" x="189.01548" y="206.67312" style="fill-opacity: 0.05; stroke: #000000; stroke-opacity: 0.05"/>
     <use xlink:href="#me80497b5b9" x="189.01548" y="206.67312" style="fill-opacity: 0.05; stroke: #000000; stroke-opacity: 0.05"/>
     <use xlink:href="#me80497b5b9" x="200.85192" y="154.08828" style="fill-opacity: 0.05; stroke: #000000; stroke-opacity: 0.05"/>
     <use xlink:href="#me80497b5b9" x="200.85192" y="154.08828" style="fill-opacity: 0.05; stroke: #000000; stroke-opacity: 0.05"/>
     <use xlink:href="#me80497b5b9" x="227.82348" y="174.0744" style="fill-opacity: 0.05; stroke: #000000; stroke-opacity: 0.05"/>
     <use xlink:href="#me80497b5b9" x="227.82348" y="174.0744" style="fill-opacity: 0.05; stroke: #000000; stroke-opacity: 0.05"/>
     <use xlink:href="#me80497b5b9" x="248.97384" y="187.6572" style="fill-opacity: 0.05; stroke: #000000; stroke-opacity: 0.05"/>
     <use xlink:href="#me80497b5b9" x="248.97384" y="187.6572" style="fill-opacity: 0.05; stroke: #000000; stroke-opacity: 0.05"/>
     <use xlink:href="#me80497b5b9" x="233.64468" y="204.53868" style="fill-opacity: 0.05; stroke: #000000; stroke-opacity: 0.05"/>
     <use xlink:href="#me80497b5b9" x="233.64468" y="204.53868" style="fill-opacity: 0.05; stroke: #000000; stroke-opacity: 0.05"/>
     <use xlink:href="#me80497b5b9" x="237.71952" y="203.56848" style="fill-opacity: 0.05; stroke: #000000; stroke-opacity: 0.05"/>
     <use xlink:href="#me80497b5b9" x="237.71952" y="203.56848" style="fill-opacity: 0.05; stroke: #000000; stroke-opacity: 0.05"/>
     <use xlink:href="#me80497b5b9" x="233.2566" y="217.34532" style="fill-opacity: 0.05; stroke: #000000; stroke-opacity: 0.05"/>
     <use xlink:href="#me80497b5b9" x="233.2566" y="217.34532" style="fill-opacity: 0.05; stroke: #000000; stroke-opacity: 0.05"/>
     <use xlink:href="#me80497b5b9" x="224.13672" y="192.31416" style="fill-opacity: 0.05; stroke: #000000; stroke-opacity: 0.05"/>
     <use xlink:href="#me80497b5b9" x="224.13672" y="192.31416" style="fill-opacity: 0.05; stroke: #000000; stroke-opacity: 0.05"/>
     <use xlink:href="#me80497b5b9" x="250.13808" y="224.13672" style="fill-opacity: 0.05; stroke: #000000; stroke-opacity: 0.05"/>
     <use xlink:href="#me80497b5b9" x="250.13808" y="224.13672" style="fill-opacity: 0.05; stroke: #000000; stroke-opacity: 0.05"/>
     <use xlink:href="#me80497b5b9" x="244.31688" y="185.32872" style="fill-opacity: 0.05; stroke: #000000; stroke-opacity: 0.05"/>
     <use xlink:href="#me80497b5b9" x="244.31688" y="185.32872" style="fill-opacity: 0.05; stroke: #000000; stroke-opacity: 0.05"/>
     <use xlink:href="#me80497b5b9" x="156.22272" y="176.985" style="fill-opacity: 0.05; stroke: #000000; stroke-opacity: 0.05"/>
     <use xlink:href="#me80497b5b9" x="156.22272" y="176.985" style="fill-opacity: 0.05; stroke: #000000; stroke-opacity: 0.05"/>
     <use xlink:href="#me80497b5b9" x="234.42084" y="208.61352" style="fill-opacity: 0.05; stroke: #000000; stroke-opacity: 0.05"/>
     <use xlink:href="#me80497b5b9" x="234.42084" y="208.61352" style="fill-opacity: 0.05; stroke: #000000; stroke-opacity: 0.05"/>
     <use xlink:href="#me80497b5b9" x="248.58576" y="201.24" style="fill-opacity: 0.05; stroke: #000000; stroke-opacity: 0.05"/>
     <use xlink:href="#me80497b5b9" x="248.58576" y="201.24" style="fill-opacity: 0.05; stroke: #000000; stroke-opacity: 0.05"/>
     <use xlink:href="#me80497b5b9" x="197.16516" y="191.14992" style="fill-opacity: 0.05; stroke: #000000; stroke-opacity: 0.05"/>
     <use xlink:href="#me80497b5b9" x="197.16516" y="191.14992" style="fill-opacity: 0.05; stroke: #000000; stroke-opacity: 0.05"/>
    </g>
   </g>
   <g id="patch_2">
    <path d="M 317.664 186.687 
L 317.664 215.793 
L 375.876 215.793 
L 375.876 186.687 
z
" clip-path="url(#p2e320c5ce1)" style="fill: #0000ff; opacity: 0.1"/>
   </g>
   <g id="patch_3">
    <path d="M 303.232559 143.241245 
L 314.370943 170.131683 
L 368.151818 147.854915 
L 357.013434 120.964477 
z
" clip-path="url(#p2e320c5ce1)" style="fill: #0000ff; opacity: 0.1"/>
   </g>
   <g id="patch_4">
    <path d="M 273.273675 108.625275 
L 293.854725 129.206325 
L 335.016825 88.044225 
L 314.435775 67.463175 
z
" clip-path="url(#p2e320c5ce1)" style="fill: #00ffff; opacity: 0.4"/>
   </g>
   <g id="patch_5">
    <path d="M 232.348317 88.109057 
L 259.238755 99.247441 
L 281.515523 45.466566 
L 254.625085 34.328182 
z
" clip-path="url(#p2e320c5ce1)" style="fill: #0000ff; opacity: 0.1"/>
   </g>
   <g id="patch_6">
    <path d="M 186.687 84.816 
L 215.793 84.816 
L 215.793 26.604 
L 186.687 26.604 
z
" clip-path="url(#p2e320c5ce1)" style="fill: #0000ff; opacity: 0.1"/>
   </g>
   <g id="patch_7">
    <path d="M 143.241245 99.247441 
L 170.131683 88.109057 
L 147.854915 34.328182 
L 120.964477 45.466566 
z
" clip-path="url(#p2e320c5ce1)" style="fill: #0000ff; opacity: 0.1"/>
   </g>
   <g id="patch_8">
    <path d="M 108.625275 129.206325 
L 129.206325 108.625275 
L 88.044225 67.463175 
L 67.463175 88.044225 
z
" clip-path="url(#p2e320c5ce1)" style="fill: #0000ff; opacity: 0.1"/>
   </g>
   <g id="patch_9">
    <path d="M 88.109057 170.131683 
L 99.247441 143.241245 
L 45.466566 120.964477 
L 34.328182 147.854915 
z
" clip-path="url(#p2e320c5ce1)" style="fill: #0000ff; opacity: 0.1"/>
   </g>
   <g id="patch_10">
    <path d="M 84.816 215.793 
L 84.816 186.687 
L 26.604 186.687 
L 26.604 215.793 
z
" clip-path="url(#p2e320c5ce1)" style="fill: #0000ff; opacity: 0.1"/>
   </g>
   <g id="patch_11">
    <path d="M 99.247441 259.238755 
L 88.109057 232.348317 
L 34.328182 254.625085 
L 45.466566 281.515523 
z
" clip-path="url(#p2e320c5ce1)" style="fill: #0000ff; opacity: 0.1"/>
   </g>
   <g id="patch_12">
    <path d="M 129.206325 293.854725 
L 108.625275 273.273675 
L 67.463175 314.435775 
L 88.044225 335.016825 
z
" clip-path="url(#p2e320c5ce1)" style="fill: #0000ff; opacity: 0.1"/>
   </g>
   <g id="patch_13">
    <path d="M 170.131683 314.370943 
L 143.241245 303.232559 
L 120.964477 357.013434 
L 147.854915 368.151818 
z
" clip-path="url(#p2e320c5ce1)" style="fill: #0000ff; opacity: 0.1"/>
   </g>
   <g id="patch_14">
    <path d="M 215.793 317.664 
L 186.687 317.664 
L 186.687 375.876 
L 215.793 375.876 
z
" clip-path="url(#p2e320c5ce1)" style="fill: #0000ff; opacity: 0.1"/>
   </g>
   <g id="patch_15">
    <path d="M 259.238755 303.232559 
L 232.348317 314.370943 
L 254.625085 368.151818 
L 281.515523 357.013434 
z
" clip-path="url(#p2e320c5ce1)" style="fill: #0000ff; opacity: 0.1"/>
   </g>
   <g id="patch_16">
    <path d="M 293.854725 273.273675 
L 273.273675 293.854725 
L 314.435775 335.016825 
L 335.016825 314.435775 
z
" clip-path="url(#p2e320c5ce1)" style="fill: #0000ff; opacity: 0.1"/>
   </g>
   <g id="patch_17">
    <path d="M 314.370943 232.348317 
L 303.232559 259.238755 
L 357.013434 281.515523 
L 368.151818 254.625085 
z
" clip-path="url(#p2e320c5ce1)" style="fill: #0000ff; opacity: 0.1"/>
   </g>
   <g id="line2d_1">
    <path d="M 49.175859 403.48 
L 376.724334 -1 
" clip-path="url(#p2e320c5ce1)" style="fill: none; stroke: #ff0000; stroke-opacity: 0.3; stroke-linecap: square"/>
   </g>
   <g id="line2d_2">
    <path d="M 91.458822 403.48 
L 375.956608 -1 
" clip-path="url(#p2e320c5ce1)" style="fill: none; stroke: #000000; stroke-opacity: 0.05; stroke-width: 2; stroke-linecap: square"/>
   </g>
   <g id="line2d_3">
    <path d="M 91.458822 403.48 
L 375.956608 -1 
" clip-path="url(#p2e320c5ce1)" style="fill: none; stroke: #000000; stroke-opacity: 0.05; stroke-width: 2; stroke-linecap: square"/>
   </g>
   <g id="line2d_4">
    <path d="M 113.31416 403.48 
L 268.896475 -1 
" clip-path="url(#p2e320c5ce1)" style="fill: none; stroke: #000000; stroke-opacity: 0.05; stroke-width: 2; stroke-linecap: square"/>
   </g>
   <g id="line2d_5">
    <path d="M 113.31416 403.48 
L 268.896475 -1 
" clip-path="url(#p2e320c5ce1)" style="fill: none; stroke: #000000; stroke-opacity: 0.05; stroke-width: 2; stroke-linecap: square"/>
   </g>
   <g id="line2d_6">
    <path d="M 192.952035 403.48 
L 205.764592 -1 
" clip-path="url(#p2e320c5ce1)" style="fill: none; stroke: #000000; stroke-opacity: 0.05; stroke-width: 2; stroke-linecap: square"/>
   </g>
   <g id="line2d_7">
    <path d="M 192.952035 403.48 
L 205.764592 -1 
" clip-path="url(#p2e320c5ce1)" style="fill: none; stroke: #000000; stroke-opacity: 0.05; stroke-width: 2; stroke-linecap: square"/>
   </g>
   <g id="line2d_8">
    <path d="M 109.149594 -1 
L 383.325678 403.48 
" clip-path="url(#p2e320c5ce1)" style="fill: none; stroke: #000000; stroke-opacity: 0.05; stroke-width: 2; stroke-linecap: square"/>
   </g>
   <g id="line2d_9">
    <path d="M 109.149594 -1 
L 383.325678 403.48 
" clip-path="url(#p2e320c5ce1)" style="fill: none; stroke: #000000; stroke-opacity: 0.05; stroke-width: 2; stroke-linecap: square"/>
   </g>
   <g id="line2d_10">
    <path d="M 101.202239 403.48 
L 378.14544 -1 
" clip-path="url(#p2e320c5ce1)" style="fill: none; stroke: #000000; stroke-opacity: 0.05; stroke-width: 2; stroke-linecap: square"/>
   </g>
   <g id="line2d_11">
    <path d="M 101.202239 403.48 
L 378.14544 -1 
" clip-path="url(#p2e320c5ce1)" style="fill: none; stroke: #000000; stroke-opacity: 0.05; stroke-width: 2; stroke-linecap: square"/>
   </g>
   <g id="line2d_12">
    <path d="M 351.472993 -1 
L 119.598409 403.48 
" clip-path="url(#p2e320c5ce1)" style="fill: none; stroke: #000000; stroke-opacity: 0.05; stroke-width: 2; stroke-linecap: square"/>
   </g>
   <g id="line2d_13">
    <path d="M 351.472993 -1 
L 119.598409 403.48 
" clip-path="url(#p2e320c5ce1)" style="fill: none; stroke: #000000; stroke-opacity: 0.05; stroke-width: 2; stroke-linecap: square"/>
   </g>
   <g id="line2d_14">
    <path d="M 403.48 323.084235 
L -1 31.44818 
" clip-path="url(#p2e320c5ce1)" style="fill: none; stroke: #000000; stroke-opacity: 0.05; stroke-width: 2; stroke-linecap: square"/>
   </g>
   <g id="line2d_15">
    <path d="M 403.48 323.084235 
L -1 31.44818 
" clip-path="url(#p2e320c5ce1)" style="fill: none; stroke: #000000; stroke-opacity: 0.05; stroke-width: 2; stroke-linecap: square"/>
   </g>
   <g id="line2d_16">
    <path d="M 283.525885 403.48 
L 174.288206 -1 
" clip-path="url(#p2e320c5ce1)" style="fill: none; stroke: #000000; stroke-opacity: 0.05; stroke-width: 2; stroke-linecap: square"/>
   </g>
   <g id="line2d_17">
    <path d="M 283.525885 403.48 
L 174.288206 -1 
" clip-path="url(#p2e320c5ce1)" style="fill: none; stroke: #000000; stroke-opacity: 0.05; stroke-width: 2; stroke-linecap: square"/>
   </g>
   <g id="line2d_18">
    <path d="M 270.95442 403.48 
L 181.276926 -1 
" clip-path="url(#p2e320c5ce1)" style="fill: none; stroke: #000000; stroke-opacity: 0.05; stroke-width: 2; stroke-linecap: square"/>
   </g>
   <g id="line2d_19">
    <path d="M 270.95442 403.48 
L 181.276926 -1 
" clip-path="url(#p2e320c5ce1)" style="fill: none; stroke: #000000; stroke-opacity: 0.05; stroke-width: 2; stroke-linecap: square"/>
   </g>
   <g id="line2d_20">
    <path d="M 403.48 285.681805 
L -1 123.340313 
" clip-path="url(#p2e320c5ce1)" style="fill: none; stroke: #000000; stroke-opacity: 0.05; stroke-width: 2; stroke-linecap: square"/>
   </g>
   <g id="line2d_21">
    <path d="M 403.48 285.681805 
L -1 123.340313 
" clip-path="url(#p2e320c5ce1)" style="fill: none; stroke: #000000; stroke-opacity: 0.05; stroke-width: 2; stroke-linecap: square"/>
   </g>
   <g id="line2d_22">
    <path d="M -1 143.646386 
L 403.48 212.372478 
" clip-path="url(#p2e320c5ce1)" style="fill: none; stroke: #000000; stroke-opacity: 0.05; stroke-width: 2; stroke-linecap: square"/>
   </g>
   <g id="line2d_23">
    <path d="M -1 143.646386 
L 403.48 212.372478 
" clip-path="url(#p2e320c5ce1)" style="fill: none; stroke: #000000; stroke-opacity: 0.05; stroke-width: 2; stroke-linecap: square"/>
   </g>
   <g id="line2d_24">
    <path d="M 226.416678 -1 
L 66.897324 403.48 
" clip-path="url(#p2e320c5ce1)" style="fill: none; stroke: #000000; stroke-opacity: 0.05; stroke-width: 2; stroke-linecap: square"/>
   </g>
   <g id="line2d_25">
    <path d="M 226.416678 -1 
L 66.897324 403.48 
" clip-path="url(#p2e320c5ce1)" style="fill: none; stroke: #000000; stroke-opacity: 0.05; stroke-width: 2; stroke-linecap: square"/>
   </g>
   <g id="line2d_26">
    <path d="M -1 389.962427 
L 403.48 78.384209 
" clip-path="url(#p2e320c5ce1)" style="fill: none; stroke: #000000; stroke-opacity: 0.05; stroke-width: 2; stroke-linecap: square"/>
   </g>
   <g id="line2d_27">
    <path d="M -1 389.962427 
L 403.48 78.384209 
" clip-path="url(#p2e320c5ce1)" style="fill: none; stroke: #000000; stroke-opacity: 0.05; stroke-width: 2; stroke-linecap: square"/>
   </g>
   <g id="line2d_28">
    <path d="M -1 -0.242253 
L 403.48 326.28095 
" clip-path="url(#p2e320c5ce1)" style="fill: none; stroke: #000000; stroke-opacity: 0.05; stroke-width: 2; stroke-linecap: square"/>
   </g>
   <g id="line2d_29">
    <path d="M -1 -0.242253 
L 403.48 326.28095 
" clip-path="url(#p2e320c5ce1)" style="fill: none; stroke: #000000; stroke-opacity: 0.05; stroke-width: 2; stroke-linecap: square"/>
   </g>
   <g id="line2d_30">
    <path d="M -1 2.990389 
L 403.48 387.047643 
" clip-path="url(#p2e320c5ce1)" style="fill: none; stroke: #000000; stroke-opacity: 0.05; stroke-width: 2; stroke-linecap: square"/>
   </g>
   <g id="line2d_31">
    <path d="M -1 2.990389 
L 403.48 387.047643 
" clip-path="url(#p2e320c5ce1)" style="fill: none; stroke: #000000; stroke-opacity: 0.05; stroke-width: 2; stroke-linecap: square"/>
   </g>
  </g>
 </g>
 <defs>
  <clipPath id="p2e320c5ce1">
   <rect x="7.2" y="7.2" width="388.08" height="388.08"/>
  </clipPath>
 </defs>
</svg>
