  0
SECTION
  2
HEADER
  9
$ACADVER
  1
AC1015
  9
$ACADMAINTVER
 70
     6
  9
$DWGCODEPAGE
  3
ANSI_1252
  9
$INSBASE
 10
0.0
 20
0.0
 30
0.0
  9
$EXTMIN
 10
0.0
 20
0.0
 30
0.0
  9
$EXTMAX
 10
11.0
 20
8.5
 30
0.0
  9
$LIMMIN
 10
0.0
 20
0.0
  9
$LIMMAX
 10
11.0
 20
8.5
  9
$ORTHOMODE
 70
     0
  9
$REGENMODE
 70
     1
  9
$FILLMODE
 70
     1
  9
$QTEXTMODE
 70
     0
  9
$MIRRTEXT
 70
     1
  9
$LTSCALE
 40
1.0
  9
$ATTMODE
 70
     1
  9
$TEXTSIZE
 40
0.1111111111
  9
$TRACEWID
 40
0.05
  9
$TEXTSTYLE
  7
Standard
  9
$CLAYER
  8
0
  9
$CELTYPE
  6
ByLayer
  9
$CECOLOR
 62
   256
  9
$CELTSCALE
 40
1.0
  9
$DISPSILH
 70
     0
  9
$DIMSCALE
 40
1.0
  9
$DIMASZ
 40
0.125
  9
$DIMEXO
 40
0.05
  9
$DIMDLI
 40
0.38
  9
$DIMRND
 40
0.0
  9
$DIMDLE
 40
0.0
  9
$DIMEXE
 40
0.07
  9
$DIMTP
 40
0.0
  9
$DIMTM
 40
0.0
  9
$DIMTXT
 40
0.1111111111
  9
$DIMCEN
 40
0.09
  9
$DIMTSZ
 40
0.0
  9
$DIMTOL
 70
     0
  9
$DIMLIM
 70
     0
  9
$DIMTIH
 70
     1
  9
$DIMTOH
 70
     1
  9
$DIMSE1
 70
     0
  9
$DIMSE2
 70
     0
  9
$DIMTAD
 70
     0
  9
$DIMZIN
 70
     1
  9
$DIMBLK
  1

  9
$DIMASO
 70
     1
  9
$DIMSHO
 70
     1
  9
$DIMPOST
  1

  9
$DIMAPOST
  1

  9
$DIMALT
 70
     0
  9
$DIMALTD
 70
     2
  9
$DIMALTF
 40
25.4
  9
$DIMLFAC
 40
0.5
  9
$DIMTOFL
 70
     0
  9
$DIMTVP
 40
0.0
  9
$DIMTIX
 70
     0
  9
$DIMSOXD
 70
     0
  9
$DIMSAH
 70
     0
  9
$DIMBLK1
  1

  9
$DIMBLK2
  1

  9
$DIMSTYLE
  2
Standard
  9
$DIMCLRD
 70
     0
  9
$DIMCLRE
 70
     0
  9
$DIMCLRT
 70
     0
  9
$DIMTFAC
 40
1.0
  9
$DIMGAP
 40
0.1
  9
$DIMJUST
 70
     0
  9
$DIMSD1
 70
     0
  9
$DIMSD2
 70
     0
  9
$DIMTOLJ
 70
     1
  9
$DIMTZIN
 70
     1
  9
$DIMALTZ
 70
     0
  9
$DIMALTTZ
 70
     0
  9
$DIMUPT
 70
     0
  9
$DIMDEC
 70
     2
  9
$DIMTDEC
 70
     2
  9
$DIMALTU
 70
     2
  9
$DIMALTTD
 70
     2
  9
$DIMTXSTY
  7
Standard
  9
$DIMAUNIT
 70
     0
  9
$DIMADEC
 70
     0
  9
$DIMALTRND
 40
0.0
  9
$DIMAZIN
 70
     0
  9
$DIMDSEP
 70
    46
  9
$DIMATFIT
 70
     3
  9
$DIMFRAC
 70
     0
  9
$DIMLDRBLK
  1

  9
$DIMLUNIT
 70
     2
  9
$DIMLWD
 70
    -2
  9
$DIMLWE
 70
    -2
  9
$DIMTMOVE
 70
     0
  9
$LUNITS
 70
     2
  9
$LUPREC
 70
     2
  9
$SKETCHINC
 40
0.1
  9
$FILLETRAD
 40
0.5
  9
$AUNITS
 70
     0
  9
$AUPREC
 70
     0
  9
$MENU
  1
.
  9
$ELEVATION
 40
0.0
  9
$PELEVATION
 40
0.0
  9
$THICKNESS
 40
0.0
  9
$LIMCHECK
 70
     0
  9
$CHAMFERA
 40
0.0
  9
$CHAMFERB
 40
0.0
  9
$CHAMFERC
 40
0.0
  9
$CHAMFERD
 40
0.0
  9
$SKPOLY
 70
     0
  9
$TDCREATE
 40
2458617.682266042
  9
$TDUCREATE
 40
2458617.848932708
  9
$TDUPDATE
 40
2458617.682268924
  9
$TDUUPDATE
 40
2458617.84893559
  9
$TDINDWG
 40
0.0000000116
  9
$TDUSRTIMER
 40
0.0000000116
  9
$USRTIMER
 70
     1
  9
$ANGBASE
 50
0.0
  9
$ANGDIR
 70
     0
  9
$PDMODE
 70
     0
  9
$PDSIZE
 40
-1.0
  9
$PLINEWID
 40
0.0
  9
$SPLFRAME
 70
     0
  9
$SPLINETYPE
 70
     6
  9
$SPLINESEGS
 70
     8
  9
$HANDSEED
  5
346
  9
$SURFTAB1
 70
     6
  9
$SURFTAB2
 70
     6
  9
$SURFTYPE
 70
     6
  9
$SURFU
 70
     6
  9
$SURFV
 70
     6
  9
$UCSBASE
  2

  9
$UCSNAME
  2

  9
$UCSORG
 10
0.0
 20
0.0
 30
0.0
  9
$UCSXDIR
 10
1.0
 20
0.0
 30
0.0
  9
$UCSYDIR
 10
0.0
 20
1.0
 30
0.0
  9
$UCSORTHOREF
  2

  9
$UCSORTHOVIEW
 70
     0
  9
$UCSORGTOP
 10
0.0
 20
0.0
 30
0.0
  9
$UCSORGBOTTOM
 10
0.0
 20
0.0
 30
0.0
  9
$UCSORGLEFT
 10
0.0
 20
0.0
 30
0.0
  9
$UCSORGRIGHT
 10
0.0
 20
0.0
 30
0.0
  9
$UCSORGFRONT
 10
0.0
 20
0.0
 30
0.0
  9
$UCSORGBACK
 10
0.0
 20
0.0
 30
0.0
  9
$PUCSBASE
  2

  9
$PUCSNAME
  2

  9
$PUCSORG
 10
0.0
 20
0.0
 30
0.0
  9
$PUCSXDIR
 10
1.0
 20
0.0
 30
0.0
  9
$PUCSYDIR
 10
0.0
 20
1.0
 30
0.0
  9
$PUCSORTHOREF
  2

  9
$PUCSORTHOVIEW
 70
     0
  9
$PUCSORGTOP
 10
0.0
 20
0.0
 30
0.0
  9
$PUCSORGBOTTOM
 10
0.0
 20
0.0
 30
0.0
  9
$PUCSORGLEFT
 10
0.0
 20
0.0
 30
0.0
  9
$PUCSORGRIGHT
 10
0.0
 20
0.0
 30
0.0
  9
$PUCSORGFRONT
 10
0.0
 20
0.0
 30
0.0
  9
$PUCSORGBACK
 10
0.0
 20
0.0
 30
0.0
  9
$USERI1
 70
     0
  9
$USERI2
 70
     0
  9
$USERI3
 70
     0
  9
$USERI4
 70
     0
  9
$USERI5
 70
     0
  9
$USERR1
 40
0.0
  9
$USERR2
 40
0.0
  9
$USERR3
 40
0.0
  9
$USERR4
 40
0.0
  9
$USERR5
 40
0.0
  9
$WORLDVIEW
 70
     1
  9
$SHADEDGE
 70
     3
  9
$SHADEDIF
 70
    70
  9
$TILEMODE
 70
     1
  9
$MAXACTVP
 70
    64
  9
$PINSBASE
 10
0.0
 20
0.0
 30
0.0
  9
$PLIMCHECK
 70
     0
  9
$PEXTMIN
 10
1.0000000000E+20
 20
1.0000000000E+20
 30
1.0000000000E+20
  9
$PEXTMAX
 10
-1.0000000000E+20
 20
-1.0000000000E+20
 30
-1.0000000000E+20
  9
$PLIMMIN
 10
0.0
 20
0.0
  9
$PLIMMAX
 10
12.0
 20
9.0
  9
$UNITMODE
 70
     0
  9
$VISRETAIN
 70
     1
  9
$PLINEGEN
 70
     0
  9
$PSLTSCALE
 70
     1
  9
$TREEDEPTH
 70
  3020
  9
$CMLSTYLE
  2
Standard
  9
$CMLJUST
 70
     0
  9
$CMLSCALE
 40
1.0
  9
$PROXYGRAPHICS
 70
     1
  9
$MEASUREMENT
 70
     0
  9
$CELWEIGHT
370
    -1
  9
$ENDCAPS
280
     0
  9
$JOINSTYLE
280
     0
  9
$LWDISPLAY
290
     1
  9
$INSUNITS
 70
     1
  9
$HYPERLINKBASE
  1

  9
$STYLESHEET
  1

  9
$XEDIT
290
     1
  9
$CEPSNTYPE
380
     0
  9
$PSTYLEMODE
290
     1
  9
$FINGERPRINTGUID
  2
{10CA91B8-8F4B-4D05-BDFD-B7412E4B82F1}
  9
$VERSIONGUID
  2
{FAEB1C32-E019-11D5-929B-00C0DF256EC4}
  9
$EXTNAMES
290
     1
  9
$PSVPSCALE
 40
0.0
  9
$OLESTARTUP
290
     0
  0
ENDSEC
  0
SECTION
  2
CLASSES
  0
CLASS
  1
ACDBDICTIONARYWDFLT
  2
AcDbDictionaryWithDefault
  3
ObjectDBX Classes
 90
        0
280
     0
281
     0
  0
CLASS
  1
VISUALSTYLE
  2
AcDbVisualStyle
  3
ObjectDBX Classes
 90
     4095
280
     0
281
     0
  0
CLASS
  1
MATERIAL
  2
AcDbMaterial
  3
ObjectDBX Classes
 90
     1153
280
     0
281
     0
  0
CLASS
  1
SCALE
  2
AcDbScale
  3
ObjectDBX Classes
 90
     1153
280
     0
281
     0
  0
CLASS
  1
TABLESTYLE
  2
AcDbTableStyle
  3
ObjectDBX Classes
 90
     4095
280
     0
281
     0
  0
CLASS
  1
MLEADERSTYLE
  2
AcDbMLeaderStyle
  3
ACDB_MLEADERSTYLE_CLASS
 90
     4095
280
     0
281
     0
  0
CLASS
  1
SUN
  2
AcDbSun
  3
SCENEOE
 90
     1153
280
     0
281
     0
  0
CLASS
  1
ACDBPLACEHOLDER
  2
AcDbPlaceHolder
  3
ObjectDBX Classes
 90
        0
280
     0
281
     0
  0
CLASS
  1
LAYOUT
  2
AcDbLayout
  3
ObjectDBX Classes
 90
        0
280
     0
281
     0
  0
ENDSEC
  0
SECTION
  2
TABLES
  0
TABLE
  2
VPORT
  5
8
330
0
100
AcDbSymbolTable
 70
     1
  0
VPORT
  5
29
330
8
100
AcDbSymbolTableRecord
100
AcDbViewportTableRecord
  2
*Active
 70
     0
 10
0.0
 20
0.0
 11
1.0
 21
1.0
 12
5.5
 22
4.25
 13
0.0
 23
0.0
 14
0.5
 24
0.5
 15
0.5
 25
0.5
 16
0.0
 26
0.0
 36
1.0
 17
0.0
 27
0.0
 37
0.0
 40
8.5
 41
1.2941176471
 42
50.0
 43
0.0
 44
0.0
 50
0.0
 51
0.0
 71
     0
 72
  2000
 73
     1
 74
     3
 75
     0
 76
     0
 77
     0
 78
     0
281
     0
 65
     1
110
0.0
120
0.0
130
0.0
111
1.0
121
0.0
131
0.0
112
0.0
122
1.0
132
0.0
 79
     0
146
0.0
  0
ENDTAB
  0
TABLE
  2
LTYPE
  5
5
330
0
100
AcDbSymbolTable
 70
     6
  0
LTYPE
  5
14
330
5
100
AcDbSymbolTableRecord
100
AcDbLinetypeTableRecord
  2
ByBlock
 70
     0
  3

 72
    65
 73
     0
 40
0.0
  0
LTYPE
  5
15
330
5
100
AcDbSymbolTableRecord
100
AcDbLinetypeTableRecord
  2
ByLayer
 70
     0
  3

 72
    65
 73
     0
 40
0.0
  0
LTYPE
  5
16
330
5
100
AcDbSymbolTableRecord
100
AcDbLinetypeTableRecord
  2
Continuous
 70
     0
  3
Solid line
 72
    65
 73
     0
 40
0.0
  0
LTYPE
  5
6E
330
5
100
AcDbSymbolTableRecord
100
AcDbLinetypeTableRecord
  2
HIDDEN
 70
     0
  3
Hidden __ __ __ __ __ __ __ __ __ __ __ __ __ __
 72
    65
 73
     2
 40
0.075
 49
0.05
 74
     0
 49
-0.025
 74
     0
  0
LTYPE
  5
6F
330
5
100
AcDbSymbolTableRecord
100
AcDbLinetypeTableRecord
  2
PHANTOM
 70
     0
  3
Phantom ______  __  __  ______  __  __  ______
 72
    65
 73
     6
 40
0.5
 49
0.25
 74
     0
 49
-0.05
 74
     0
 49
0.05
 74
     0
 49
-0.05
 74
     0
 49
0.05
 74
     0
 49
-0.05
 74
     0
  0
LTYPE
  5
70
330
5
100
AcDbSymbolTableRecord
100
AcDbLinetypeTableRecord
  2
CENTER
 70
     0
  3
Center ____ _ ____ _ ____ _ ____ _ ____ _ ____
 72
    65
 73
     4
 40
0.4
 49
0.25
 74
     0
 49
-0.05
 74
     0
 49
0.05
 74
     0
 49
-0.05
 74
     0
  0
LTYPE
  5
71
330
5
100
AcDbSymbolTableRecord
100
AcDbLinetypeTableRecord
  2
CENTERX2
 70
     0
  3
Center (2x) ________  __  ________  __  _____
 72
    65
 73
     4
 40
0.8
 49
0.5
 74
     0
 49
-0.1
 74
     0
 49
0.1
 74
     0
 49
-0.1
 74
     0
  0
LTYPE
  5
72
330
5
100
AcDbSymbolTableRecord
100
AcDbLinetypeTableRecord
  2
DOT2
 70
     0
  3
Dot (.5x) ........................................
 72
    65
 73
     2
 40
0.025
 49
0.0
 74
     0
 49
-0.025
 74
     0
  0
ENDTAB
  0
TABLE
  2
LAYER
  5
2
330
0
100
AcDbSymbolTable
 70
     2
  0
LAYER
  5
10
330
2
100
AcDbSymbolTableRecord
100
AcDbLayerTableRecord
  2
0
 70
     0
 62
     7
  6
Continuous
370
    -3
390
F
  0
LAYER
  5
73
330
2
100
AcDbSymbolTableRecord
100
AcDbLayerTableRecord
  2
FORMAT
 70
     0
 62
     7
  6
Continuous
370
    -3
390
F
  0
ENDTAB
  0
TABLE
  2
STYLE
  5
3
330
0
100
AcDbSymbolTable
 70
     3
  0
STYLE
  5
11
330
3
100
AcDbSymbolTableRecord
100
AcDbTextStyleTableRecord
  2
Standard
 70
     0
 40
0.0
 41
1.0
 50
0.0
 71
     0
 42
0.1111111111
  3
txt
  4

  0
STYLE
  5
9A
330
3
100
AcDbSymbolTableRecord
100
AcDbTextStyleTableRecord
  2
SLDTEXTSTYLE0
 70
     0
 40
0.0
 41
0.75
 50
0.0
 71
     0
 42
0.1111111111
  3
TXT
  4

  0
STYLE
  5
A7
330
3
100
AcDbSymbolTableRecord
100
AcDbTextStyleTableRecord
  2
SLDTEXTSTYLE1
 70
     0
 40
0.0
 41
0.6
 50
0.0
 71
     0
 42
0.1111111111
  3
TXT
  4

  0
ENDTAB
  0
TABLE
  2
VIEW
  5
6
330
0
100
AcDbSymbolTable
 70
     0
  0
ENDTAB
  0
TABLE
  2
UCS
  5
7
330
0
100
AcDbSymbolTable
 70
     0
  0
ENDTAB
  0
TABLE
  2
APPID
  5
9
330
0
100
AcDbSymbolTable
 70
     1
  0
APPID
  5
12
330
9
100
AcDbSymbolTableRecord
100
AcDbRegAppTableRecord
  2
ACAD
 70
     0
  0
ENDTAB
  0
TABLE
  2
DIMSTYLE
  5
A
330
0
100
AcDbSymbolTable
 70
     7
100
AcDbDimStyleTable
  0
DIMSTYLE
105
27
330
A
100
AcDbSymbolTableRecord
100
AcDbDimStyleTableRecord
  2
Standard
 70
     0
178
     0
340
11
  0
DIMSTYLE
105
F7
102
{ACAD_REACTORS
330
F6
330
148
102
}
330
A
100
AcDbSymbolTableRecord
100
AcDbDimStyleTableRecord
  2
SLDDIMSTYLE0
 70
     0
 41
0.125
 44
0.0
 45
0.000000001
 78
    12
 79
     3
140
0.0833333333
144
0.5
147
0.0208333333
148
0.000000001
170
     1
171
     1
173
     1
178
     0
271
     2
272
     2
274
     1
276
     2
284
    12
340
9A
  0
DIMSTYLE
105
10C
330
A
100
AcDbSymbolTableRecord
100
AcDbDimStyleTableRecord
  2
SLDDIMSTYLE1
 70
     0
 41
0.125
 44
0.0
 45
0.000000001
146
0.125
147
0.0
173
     1
178
     0
271
     0
272
     0
276
     2
340
11
  0
DIMSTYLE
105
15D
102
{ACAD_REACTORS
330
15C
102
}
330
A
100
AcDbSymbolTableRecord
100
AcDbDimStyleTableRecord
  2
SLDDIMSTYLE2
 70
     0
 41
0.125
 44
0.0
 45
0.000000001
140
0.0833333333
144
0.5
147
0.0208333333
148
0.000000001
170
     1
171
     1
172
     1
173
     1
178
     0
271
     2
272
     2
274
     1
276
     2
284
    12
289
     0
340
9A
  0
DIMSTYLE
105
172
102
{ACAD_REACTORS
330
171
102
}
330
A
100
AcDbSymbolTableRecord
100
AcDbDimStyleTableRecord
  2
SLDDIMSTYLE3
 70
     0
  3
<>
  4
<>
 41
0.125
 44
0.0
 45
0.000000001
 78
    12
 79
     3
140
0.0833333333
141
0.0
144
0.5
147
0.0208333333
148
0.000000001
170
     1
171
     1
173
     1
178
     0
271
     2
272
     2
274
     1
276
     2
284
    12
340
9A
  0
DIMSTYLE
105
17C
330
A
100
AcDbSymbolTableRecord
100
AcDbDimStyleTableRecord
  2
SLDDIMSTYLE4
 70
     0
 41
0.04
 44
0.0
 45
0.000000001
146
0.04
147
0.0
173
     1
178
     0
271
     0
272
     0
276
     2
340
11
341
17D
343
17D
344
17D
  0
DIMSTYLE
105
312
102
{ACAD_REACTORS
330
311
102
}
330
A
100
AcDbSymbolTableRecord
100
AcDbDimStyleTableRecord
  2
SLDDIMSTYLE5
 70
     0
 41
0.125
 44
0.0
 45
0.000000001
 78
     4
 79
     1
140
0.0833333333
144
0.5
147
0.0208333333
148
0.000000001
170
     1
171
     1
173
     1
178
     0
271
     2
272
     2
274
     1
276
     2
284
    12
340
9A
  0
ENDTAB
  0
TABLE
  2
BLOCK_RECORD
  5
1
330
0
100
AcDbSymbolTable
 70
    17
  0
BLOCK_RECORD
  5
1F
330
1
100
AcDbSymbolTableRecord
100
AcDbBlockTableRecord
  2
*Model_Space
340
22
  0
BLOCK_RECORD
  5
1B
330
1
100
AcDbSymbolTableRecord
100
AcDbBlockTableRecord
  2
*Paper_Space
340
1E
  0
BLOCK_RECORD
  5
23
330
1
100
AcDbSymbolTableRecord
100
AcDbBlockTableRecord
  2
*Paper_Space0
340
26
  0
BLOCK_RECORD
  5
74
330
1
100
AcDbSymbolTableRecord
100
AcDbBlockTableRecord
  2
Third Angle Projection Block
340
0
102
{BLKREFS
331
99
102
}
  0
BLOCK_RECORD
  5
AD
330
1
100
AcDbSymbolTableRecord
100
AcDbBlockTableRecord
  2
SW_NOTE_0
340
0
102
{BLKREFS
331
B2
102
}
  0
BLOCK_RECORD
  5
B3
330
1
100
AcDbSymbolTableRecord
100
AcDbBlockTableRecord
  2
SW_NOTE_1
340
0
102
{BLKREFS
331
B8
102
}
  0
BLOCK_RECORD
  5
BA
330
1
100
AcDbSymbolTableRecord
100
AcDbBlockTableRecord
  2
SW_NOTE_2
340
0
102
{BLKREFS
331
BF
102
}
  0
BLOCK_RECORD
  5
F8
330
1
100
AcDbSymbolTableRecord
100
AcDbBlockTableRecord
  2
_D
340
0
  0
BLOCK_RECORD
  5
149
330
1
100
AcDbSymbolTableRecord
100
AcDbBlockTableRecord
  2
_D_1
340
0
  0
BLOCK_RECORD
  5
15E
330
1
100
AcDbSymbolTableRecord
100
AcDbBlockTableRecord
  2
_D_2
340
0
  0
BLOCK_RECORD
  5
173
330
1
100
AcDbSymbolTableRecord
100
AcDbBlockTableRecord
  2
_D_3
340
0
  0
BLOCK_RECORD
  5
17D
330
1
100
AcDbSymbolTableRecord
100
AcDbBlockTableRecord
  2
_DOT
340
0
  0
BLOCK_RECORD
  5
186
330
1
100
AcDbSymbolTableRecord
100
AcDbBlockTableRecord
  2
SW_CENTERMARKSYMBOL_0
340
0
102
{BLKREFS
331
18D
102
}
  0
BLOCK_RECORD
  5
18E
330
1
100
AcDbSymbolTableRecord
100
AcDbBlockTableRecord
  2
SW_CENTERMARKSYMBOL_1
340
0
102
{BLKREFS
331
195
102
}
  0
BLOCK_RECORD
  5
313
330
1
100
AcDbSymbolTableRecord
100
AcDbBlockTableRecord
  2
_D_4
340
0
  0
BLOCK_RECORD
  5
327
330
1
100
AcDbSymbolTableRecord
100
AcDbBlockTableRecord
  2
SW_NOTE_3
340
0
102
{BLKREFS
331
32C
102
}
  0
BLOCK_RECORD
  5
32E
330
1
100
AcDbSymbolTableRecord
100
AcDbBlockTableRecord
  2
SW_NOTE_4
340
0
102
{BLKREFS
331
333
102
}
  0
BLOCK_RECORD
  5
335
330
1
100
AcDbSymbolTableRecord
100
AcDbBlockTableRecord
  2
SW_CENTERMARKSYMBOL_2
340
0
102
{BLKREFS
331
33C
102
}
  0
BLOCK_RECORD
  5
33D
330
1
100
AcDbSymbolTableRecord
100
AcDbBlockTableRecord
  2
SW_CENTERMARKSYMBOL_3
340
0
102
{BLKREFS
331
344
102
}
  0
ENDTAB
  0
ENDSEC
  0
SECTION
  2
BLOCKS
  0
BLOCK
  5
20
330
1F
100
AcDbEntity
  8
0
100
AcDbBlockBegin
  2
*Model_Space
 70
     0
 10
0.0
 20
0.0
 30
0.0
  3
*Model_Space
  1

  0
ENDBLK
  5
21
330
1F
100
AcDbEntity
  8
0
100
AcDbBlockEnd
  0
BLOCK
  5
1C
330
1B
100
AcDbEntity
 67
     1
  8
0
100
AcDbBlockBegin
  2
*Paper_Space
 70
     0
 10
0.0
 20
0.0
 30
0.0
  3
*Paper_Space
  1

  0
ENDBLK
  5
1D
330
1B
100
AcDbEntity
 67
     1
  8
0
100
AcDbBlockEnd
  0
BLOCK
  5
24
330
23
100
AcDbEntity
  8
0
100
AcDbBlockBegin
  2
*Paper_Space0
 70
     0
 10
0.0
 20
0.0
 30
0.0
  3
*Paper_Space0
  1

  0
ENDBLK
  5
25
330
23
100
AcDbEntity
  8
0
100
AcDbBlockEnd
  0
BLOCK
  5
75
330
74
100
AcDbEntity
  8
0
100
AcDbBlockBegin
  2
Third Angle Projection Block
 70
     0
 10
0.0
 20
0.0
 30
0.0
  3
Third Angle Projection Block
  1

  0
CIRCLE
  5
77
330
74
100
AcDbEntity
  8
0
  6
Continuous
 62
     7
370
    35
100
AcDbCircle
 10
3.9951432636
 20
0.7456853688
 30
0.0
 40
0.0696152422706639
  0
CIRCLE
  5
78
330
74
100
AcDbEntity
  8
0
  6
Continuous
 62
     7
370
    35
100
AcDbCircle
 10
3.9951432636
 20
0.7456853688
 30
0.0
 40
0.1535916633280245
  0
LINE
  5
79
330
74
100
AcDbEntity
  8
0
  6
CENTERX2
 62
     7
370
    18
100
AcDbLine
 10
4.3360937897
 20
0.7456853688
 30
0.0
 11
4.7028635231
 21
0.7456853688
 31
0.0
  0
LINE
  5
7A
330
74
100
AcDbEntity
  8
0
  6
Continuous
 62
     7
370
    35
100
AcDbLine
 10
4.3701432636
 20
0.815300611
 30
0.0
 11
4.3701432636
 21
0.6760701265
 31
0.0
  0
LINE
  5
7B
330
74
100
AcDbEntity
  8
0
  6
Continuous
 62
     7
370
    35
100
AcDbLine
 10
4.3701432636
 20
0.6760701265
 30
0.0
 11
4.6701432636
 21
0.5956853688
 31
0.0
  0
LINE
  5
7C
330
74
100
AcDbEntity
  8
0
  6
Continuous
 62
     7
370
    35
100
AcDbLine
 10
4.6701432636
 20
0.5956853688
 30
0.0
 11
4.6701432636
 21
0.8956853688
 31
0.0
  0
LINE
  5
7D
330
74
100
AcDbEntity
  8
0
  6
Continuous
 62
     7
370
    35
100
AcDbLine
 10
4.6701432636
 20
0.8956853688
 30
0.0
 11
4.3701432636
 21
0.815300611
 31
0.0
  0
LINE
  5
7E
330
74
100
AcDbEntity
  8
0
  6
CENTERX2
 62
     7
370
    18
100
AcDbLine
 10
3.8032513961
 20
0.7456853688
 30
0.0
 11
4.187035131
 21
0.7456853688
 31
0.0
  0
LINE
  5
7F
330
74
100
AcDbEntity
  8
0
  6
CENTERX2
 62
     7
370
    18
100
AcDbLine
 10
3.9951432636
 20
0.9375772362
 30
0.0
 11
3.9951432636
 21
0.5537935013
 31
0.0
  0
POINT
  5
80
330
74
100
AcDbEntity
  8
0
  6
Continuous
 62
     7
370
     0
100
AcDbPoint
 10
3.9951432636
 20
0.7456853688
 30
0.0
  0
ENDBLK
  5
76
330
74
100
AcDbEntity
  8
0
100
AcDbBlockEnd
  0
BLOCK
  5
AE
330
AD
100
AcDbEntity
  8
0
100
AcDbBlockBegin
  2
SW_NOTE_0
 70
     0
 10
0.0
 20
0.0
 30
0.0
  3
SW_NOTE_0
  1

  0
MTEXT
  5
B0
330
AD
100
AcDbEntity
  8
0
  6
Continuous
 62
     0
370
     0
100
AcDbMText
 10
0.78375
 20
0.0773440644
 30
0.0
 40
0.06
 41
0.0
 71
     2
 72
     1
  1
VALUES IN PARENTHESIS ARE CALCULATED
  7
SLDTEXTSTYLE0
 73
     1
 44
1.0
  0
MTEXT
  5
B1
330
AD
100
AcDbEntity
  8
0
  6
Continuous
 62
     0
370
     0
100
AcDbMText
 10
0.7825936818
 20
-0.0220260102
 30
0.0
 40
0.06
 41
0.0
 71
     2
 72
     1
  1
AND MAY CONTAIN ROUNDOFF ERRORS
  7
SLDTEXTSTYLE0
 73
     1
 44
1.0
  0
ENDBLK
  5
AF
330
AD
100
AcDbEntity
  8
0
100
AcDbBlockEnd
  0
BLOCK
  5
B4
330
B3
100
AcDbEntity
  8
0
100
AcDbBlockBegin
  2
SW_NOTE_1
 70
     0
 10
0.0
 20
0.0
 30
0.0
  3
SW_NOTE_1
  1

  0
MTEXT
  5
B6
330
B3
100
AcDbEntity
  8
0
  6
Continuous
 62
     0
370
     0
100
AcDbMText
 10
0.0
 20
0.1074223116
 30
0.0
 40
0.0833333333
 41
0.0
 71
     1
 72
     1
  1
DRAWING
  7
SLDTEXTSTYLE0
 73
     1
 44
1.0
  0
MTEXT
  5
B7
330
B3
100
AcDbEntity
  8
0
  6
Continuous
 62
     0
370
     0
100
AcDbMText
 10
0.0
 20
-0.0036887981
 30
0.0
 40
0.0833333333
 41
0.0
 71
     1
 72
     1
  1
PROJECTION
  7
SLDTEXTSTYLE0
 73
     1
 44
1.0
  0
ENDBLK
  5
B5
330
B3
100
AcDbEntity
  8
0
100
AcDbBlockEnd
  0
BLOCK
  5
BB
330
BA
100
AcDbEntity
  8
0
100
AcDbBlockBegin
  2
SW_NOTE_2
 70
     0
 10
0.0
 20
0.0
 30
0.0
  3
SW_NOTE_2
  1

  0
MTEXT
  5
BD
330
BA
100
AcDbEntity
  8
0
  6
Continuous
 62
     0
370
     0
100
AcDbMText
 10
0.986328125
 20
0.1611334675
 30
0.0
 40
0.125
 41
0.0
 71
     2
 72
     1
  1
FOR INFORMATION ONLY
  7
SLDTEXTSTYLE0
 73
     1
 44
1.0
  0
MTEXT
  5
BE
330
BA
100
AcDbEntity
  8
0
  6
Continuous
 62
     0
370
     0
100
AcDbMText
 10
0.999088459
 20
-0.0055331972
 30
0.0
 40
0.125
 41
0.0
 71
     2
 72
     1
  1
NOT FOR MANUFACTURING PURPOSES
  7
SLDTEXTSTYLE0
 73
     1
 44
1.0
  0
ENDBLK
  5
BC
330
BA
100
AcDbEntity
  8
0
100
AcDbBlockEnd
  0
BLOCK
  5
F9
330
F8
100
AcDbEntity
  8
0
100
AcDbBlockBegin
  2
_D
 70
     0
 10
0.0
 20
0.0
 30
0.0
  3
_D
  1

  0
SOLID
  5
FB
330
F8
100
AcDbEntity
  8
0
  6
Continuous
 62
     7
370
    18
100
AcDbTrace
 10
5.0226286593
 20
3.3705185813
 30
0.0
 11
5.1476286593
 21
3.3505185813
 31
0.0
 12
5.1476286593
 22
3.3905185813
 32
0.0
 13
5.1476286593
 23
3.3905185813
 33
0.0
  0
SOLID
  5
FC
330
F8
100
AcDbEntity
  8
0
  6
Continuous
 62
     7
370
    18
100
AcDbTrace
 10
7.2795212405
 20
3.3705185813
 30
0.0
 11
7.1545212405
 21
3.3905185813
 31
0.0
 12
7.1545212405
 22
3.3505185813
 32
0.0
 13
7.1545212405
 23
3.3505185813
 33
0.0
  0
LINE
  5
FD
330
F8
100
AcDbEntity
  8
0
  6
Continuous
 62
     7
370
    18
100
AcDbLine
 10
5.9391922168
 20
3.3705185721
 30
0.0
 11
5.9138449942
 21
3.3705185721
 31
0.0
  0
LINE
  5
FE
330
F8
100
AcDbEntity
  8
0
  6
Continuous
 62
     7
370
    18
100
AcDbLine
 10
5.9138449942
 20
3.3705185721
 30
0.0
 11
5.9138449942
 21
3.2381111676
 31
0.0
  0
LINE
  5
FF
330
F8
100
AcDbEntity
  8
0
  6
Continuous
 62
     7
370
    18
100
AcDbLine
 10
5.9138449942
 20
3.2381111676
 30
0.0
 11
5.9391922168
 21
3.2381111676
 31
0.0
  0
LINE
  5
100
330
F8
100
AcDbEntity
  8
0
  6
Continuous
 62
     7
370
    18
100
AcDbLine
 10
6.3629576647
 20
3.3705185721
 30
0.0
 11
6.3883048873
 21
3.3705185721
 31
0.0
  0
LINE
  5
101
330
F8
100
AcDbEntity
  8
0
  6
Continuous
 62
     7
370
    18
100
AcDbLine
 10
6.3883048873
 20
3.3705185721
 30
0.0
 11
6.3883048873
 21
3.2381111676
 31
0.0
  0
LINE
  5
102
330
F8
100
AcDbEntity
  8
0
  6
Continuous
 62
     7
370
    18
100
AcDbLine
 10
6.3883048873
 20
3.2381111676
 30
0.0
 11
6.3629576647
 21
3.2381111676
 31
0.0
  0
LINE
  5
103
330
F8
100
AcDbEntity
  8
0
  6
Continuous
 62
     7
370
    18
100
AcDbLine
 10
5.0226286593
 20
3.8008467857
 30
0.0
 11
5.0226286593
 21
3.3005185813
 31
0.0
  0
LINE
  5
104
330
F8
100
AcDbEntity
  8
0
  6
Continuous
 62
     7
370
    18
100
AcDbLine
 10
7.2795212405
 20
3.7948467864
 30
0.0
 11
7.2795212405
 21
3.3005185813
 31
0.0
  0
LINE
  5
105
330
F8
100
AcDbEntity
  8
0
  6
Continuous
 62
     7
370
    18
100
AcDbLine
 10
5.0226286593
 20
3.3705185813
 30
0.0
 11
5.8101573783
 21
3.3705185813
 31
0.0
  0
LINE
  5
106
330
F8
100
AcDbEntity
  8
0
  6
Continuous
 62
     7
370
    18
100
AcDbLine
 10
7.2795212405
 20
3.3705185813
 30
0.0
 11
6.4919925216
 21
3.3705185813
 31
0.0
  0
MTEXT
  5
107
330
F8
100
AcDbEntity
  8
0
  6
Continuous
 62
     7
370
    18
100
AcDbMText
 10
5.8895780194
 20
3.4948390307
 30
0.0
 40
0.0833333333
 41
0.0
 71
     1
 72
     1
  1

  7
SLDTEXTSTYLE0
 73
     1
 44
1.0
  0
MTEXT
  5
108
330
F8
100
AcDbEntity
  8
0
  6
Continuous
 62
     7
370
    18
100
AcDbMText
 10
5.9983743106
 20
3.4948390307
 30
0.0
 40
0.0833333333
 41
0.0
 71
     1
 72
     1
  1
1.13in
  7
SLDTEXTSTYLE0
 73
     1
 44
1.0
  0
MTEXT
  5
109
330
F8
100
AcDbEntity
  8
0
  6
Continuous
 62
     7
370
    18
100
AcDbMText
 10
5.9391922168
 20
3.3455334746
 30
0.0
 40
0.0833333333
 41
0.0
 71
     1
 72
     1
  1
28.7mm
  7
SLDTEXTSTYLE0
 73
     1
 44
1.0
  0
MTEXT
  5
10A
330
F8
100
AcDbEntity
  8
0
  6
Continuous
 62
     7
370
    18
100
AcDbMText
 10
6.4761521099
 20
3.4948390307
 30
0.0
 40
0.0833333333
 41
0.0
 71
     1
 72
     1
  1

  7
SLDTEXTSTYLE0
 73
     1
 44
1.0
  0
ENDBLK
  5
FA
330
F8
100
AcDbEntity
  8
0
100
AcDbBlockEnd
  0
BLOCK
  5
14A
330
149
100
AcDbEntity
  8
0
100
AcDbBlockBegin
  2
_D_1
 70
     0
 10
0.0
 20
0.0
 30
0.0
  3
_D_1
  1

  0
SOLID
  5
14C
330
149
100
AcDbEntity
  8
0
  6
Continuous
 62
     7
370
    18
100
AcDbTrace
 10
7.9363791166
 20
2.8980776364
 30
0.0
 11
8.0613791166
 21
2.8780776364
 31
0.0
 12
8.0613791166
 22
2.9180776364
 32
0.0
 13
8.0613791166
 23
2.9180776364
 33
0.0
  0
SOLID
  5
14D
330
149
100
AcDbEntity
  8
0
  6
Continuous
 62
     7
370
    18
100
AcDbTrace
 10
10.2963791166
 20
2.8980776364
 30
0.0
 11
10.1713791166
 21
2.9180776364
 31
0.0
 12
10.1713791166
 22
2.8780776364
 32
0.0
 13
10.1713791166
 23
2.8780776364
 33
0.0
  0
LINE
  5
14E
330
149
100
AcDbEntity
  8
0
  6
Continuous
 62
     7
370
    18
100
AcDbLine
 10
8.9044963834
 20
2.8980776272
 30
0.0
 11
8.8791491608
 21
2.8980776272
 31
0.0
  0
LINE
  5
14F
330
149
100
AcDbEntity
  8
0
  6
Continuous
 62
     7
370
    18
100
AcDbLine
 10
8.8791491608
 20
2.8980776272
 30
0.0
 11
8.8791491608
 21
2.7656702227
 31
0.0
  0
LINE
  5
150
330
149
100
AcDbEntity
  8
0
  6
Continuous
 62
     7
370
    18
100
AcDbLine
 10
8.8791491608
 20
2.7656702227
 30
0.0
 11
8.9044963834
 21
2.7656702227
 31
0.0
  0
LINE
  5
151
330
149
100
AcDbEntity
  8
0
  6
Continuous
 62
     7
370
    18
100
AcDbLine
 10
9.3282618314
 20
2.8980776272
 30
0.0
 11
9.353609054
 21
2.8980776272
 31
0.0
  0
LINE
  5
152
330
149
100
AcDbEntity
  8
0
  6
Continuous
 62
     7
370
    18
100
AcDbLine
 10
9.353609054
 20
2.8980776272
 30
0.0
 11
9.353609054
 21
2.7656702227
 31
0.0
  0
LINE
  5
153
330
149
100
AcDbEntity
  8
0
  6
Continuous
 62
     7
370
    18
100
AcDbLine
 10
9.353609054
 20
2.7656702227
 30
0.0
 11
9.3282618314
 21
2.7656702227
 31
0.0
  0
LINE
  5
154
330
149
100
AcDbEntity
  8
0
  6
Continuous
 62
     7
370
    18
100
AcDbLine
 10
7.9363791166
 20
3.7148467881
 30
0.0
 11
7.9363791166
 21
2.8280776364
 31
0.0
  0
LINE
  5
155
330
149
100
AcDbEntity
  8
0
  6
Continuous
 62
     7
370
    18
100
AcDbLine
 10
10.2963791166
 20
3.7148467881
 30
0.0
 11
10.2963791166
 21
2.8280776364
 31
0.0
  0
LINE
  5
156
330
149
100
AcDbEntity
  8
0
  6
Continuous
 62
     7
370
    18
100
AcDbLine
 10
7.9363791166
 20
2.8980776364
 30
0.0
 11
8.7754615449
 21
2.8980776364
 31
0.0
  0
LINE
  5
157
330
149
100
AcDbEntity
  8
0
  6
Continuous
 62
     7
370
    18
100
AcDbLine
 10
10.2963791166
 20
2.8980776364
 30
0.0
 11
9.4572966882
 21
2.8980776364
 31
0.0
  0
MTEXT
  5
158
330
149
100
AcDbEntity
  8
0
  6
Continuous
 62
     7
370
    18
100
AcDbMText
 10
8.8548821861
 20
3.0223980858
 30
0.0
 40
0.0833333333
 41
0.0
 71
     1
 72
     1
  1

  7
SLDTEXTSTYLE0
 73
     1
 44
1.0
  0
MTEXT
  5
159
330
149
100
AcDbEntity
  8
0
  6
Continuous
 62
     7
370
    18
100
AcDbMText
 10
8.9636784772
 20
3.0223980858
 30
0.0
 40
0.0833333333
 41
0.0
 71
     1
 72
     1
  1
1.18in
  7
SLDTEXTSTYLE0
 73
     1
 44
1.0
  0
MTEXT
  5
15A
330
149
100
AcDbEntity
  8
0
  6
Continuous
 62
     7
370
    18
100
AcDbMText
 10
8.9044963834
 20
2.8730925297
 30
0.0
 40
0.0833333333
 41
0.0
 71
     1
 72
     1
  1
30.0mm
  7
SLDTEXTSTYLE0
 73
     1
 44
1.0
  0
MTEXT
  5
15B
330
149
100
AcDbEntity
  8
0
  6
Continuous
 62
     7
370
    18
100
AcDbMText
 10
9.4414562766
 20
3.0223980858
 30
0.0
 40
0.0833333333
 41
0.0
 71
     1
 72
     1
  1

  7
SLDTEXTSTYLE0
 73
     1
 44
1.0
  0
ENDBLK
  5
14B
330
149
100
AcDbEntity
  8
0
100
AcDbBlockEnd
  0
BLOCK
  5
15F
330
15E
100
AcDbEntity
  8
0
100
AcDbBlockBegin
  2
_D_2
 70
     0
 10
0.0
 20
0.0
 30
0.0
  3
_D_2
  1

  0
SOLID
  5
161
330
15E
100
AcDbEntity
  8
0
  6
Continuous
 62
     7
370
    18
100
AcDbTrace
 10
8.6163791166
 20
3.4832550599
 30
0.0
 11
8.4913791166
 21
3.5032550599
 31
0.0
 12
8.4913791166
 22
3.4632550599
 32
0.0
 13
8.4913791166
 23
3.4632550599
 33
0.0
  0
SOLID
  5
162
330
15E
100
AcDbEntity
  8
0
  6
Continuous
 62
     7
370
    18
100
AcDbTrace
 10
9.6163791166
 20
3.4832550599
 30
0.0
 11
9.7413791166
 21
3.4632550599
 31
0.0
 12
9.7413791166
 22
3.5032550599
 32
0.0
 13
9.7413791166
 23
3.5032550599
 33
0.0
  0
LINE
  5
163
330
15E
100
AcDbEntity
  8
0
  6
Continuous
 62
     7
370
    18
100
AcDbLine
 10
8.9044963834
 20
3.4832550508
 30
0.0
 11
8.8791491608
 21
3.4832550508
 31
0.0
  0
LINE
  5
164
330
15E
100
AcDbEntity
  8
0
  6
Continuous
 62
     7
370
    18
100
AcDbLine
 10
8.8791491608
 20
3.4832550508
 30
0.0
 11
8.8791491608
 21
3.3508476462
 31
0.0
  0
LINE
  5
165
330
15E
100
AcDbEntity
  8
0
  6
Continuous
 62
     7
370
    18
100
AcDbLine
 10
8.8791491608
 20
3.3508476462
 30
0.0
 11
8.9044963834
 21
3.3508476462
 31
0.0
  0
LINE
  5
166
330
15E
100
AcDbEntity
  8
0
  6
Continuous
 62
     7
370
    18
100
AcDbLine
 10
9.3282618314
 20
3.4832550508
 30
0.0
 11
9.353609054
 21
3.4832550508
 31
0.0
  0
LINE
  5
167
330
15E
100
AcDbEntity
  8
0
  6
Continuous
 62
     7
370
    18
100
AcDbLine
 10
9.353609054
 20
3.4832550508
 30
0.0
 11
9.353609054
 21
3.3508476462
 31
0.0
  0
LINE
  5
168
330
15E
100
AcDbEntity
  8
0
  6
Continuous
 62
     7
370
    18
100
AcDbLine
 10
9.353609054
 20
3.3508476462
 30
0.0
 11
9.3282618314
 21
3.3508476462
 31
0.0
  0
LINE
  5
169
330
15E
100
AcDbEntity
  8
0
  6
Continuous
 62
     7
370
    18
100
AcDbLine
 10
8.6163791166
 20
3.9098467857
 30
0.0
 11
8.6163791166
 21
3.4132550599
 31
0.0
  0
LINE
  5
16A
330
15E
100
AcDbEntity
  8
0
  6
Continuous
 62
     7
370
    18
100
AcDbLine
 10
9.6163791166
 20
3.9098467857
 30
0.0
 11
9.6163791166
 21
3.4132550599
 31
0.0
  0
LINE
  5
16B
330
15E
100
AcDbEntity
  8
0
  6
Continuous
 62
     7
370
    18
100
AcDbLine
 10
8.6163791166
 20
3.4832550599
 30
0.0
 11
8.3663791166
 21
3.4832550599
 31
0.0
  0
LINE
  5
16C
330
15E
100
AcDbEntity
  8
0
  6
Continuous
 62
     7
370
    18
100
AcDbLine
 10
9.6163791166
 20
3.4832550599
 30
0.0
 11
9.8663791166
 21
3.4832550599
 31
0.0
  0
MTEXT
  5
16D
330
15E
100
AcDbEntity
  8
0
  6
Continuous
 62
     7
370
    18
100
AcDbMText
 10
8.8548821861
 20
3.6075755093
 30
0.0
 40
0.0833333333
 41
0.0
 71
     1
 72
     1
  1

  7
SLDTEXTSTYLE0
 73
     1
 44
1.0
  0
MTEXT
  5
16E
330
15E
100
AcDbEntity
  8
0
  6
Continuous
 62
     7
370
    18
100
AcDbMText
 10
8.9636784772
 20
3.6075755093
 30
0.0
 40
0.0833333333
 41
0.0
 71
     1
 72
     1
  1
0.50in
  7
SLDTEXTSTYLE0
 73
     1
 44
1.0
  0
MTEXT
  5
16F
330
15E
100
AcDbEntity
  8
0
  6
Continuous
 62
     7
370
    18
100
AcDbMText
 10
8.9044963834
 20
3.4582699533
 30
0.0
 40
0.0833333333
 41
0.0
 71
     1
 72
     1
  1
12.7mm
  7
SLDTEXTSTYLE0
 73
     1
 44
1.0
  0
MTEXT
  5
170
330
15E
100
AcDbEntity
  8
0
  6
Continuous
 62
     7
370
    18
100
AcDbMText
 10
9.4414562766
 20
3.6075755093
 30
0.0
 40
0.0833333333
 41
0.0
 71
     1
 72
     1
  1

  7
SLDTEXTSTYLE0
 73
     1
 44
1.0
  0
ENDBLK
  5
160
330
15E
100
AcDbEntity
  8
0
100
AcDbBlockEnd
  0
BLOCK
  5
174
330
173
100
AcDbEntity
  8
0
100
AcDbBlockBegin
  2
_D_3
 70
     0
 10
0.0
 20
0.0
 30
0.0
  3
_D_3
  1

  0
SOLID
  5
176
330
173
100
AcDbEntity
  8
0
  6
Continuous
 62
     7
370
    18
100
AcDbTrace
 10
9.5297649433
 20
4.2098669344
 30
0.0
 11
9.4845854514
 21
4.3281201099
 31
0.0
 12
9.4499444353
 22
4.3081201099
 32
0.0
 13
9.4499444353
 23
4.3081201099
 33
0.0
  0
LINE
  5
177
330
173
100
AcDbEntity
  8
0
  6
Continuous
 62
     7
370
    18
100
AcDbLine
 10
9.5297649433
 20
4.2098669344
 30
0.0
 11
9.0930278116
 21
4.9663178362
 31
0.0
  0
LINE
  5
178
330
173
100
AcDbEntity
  8
0
  6
Continuous
 62
     7
370
    18
100
AcDbLine
 10
9.0930278116
 20
4.9663178362
 30
0.0
 11
8.9430278116
 21
4.9663178362
 31
0.0
  0
MTEXT
  5
179
330
173
100
AcDbEntity
  8
0
  6
Continuous
 62
     7
370
    18
100
AcDbMText
 10
7.3238919826
 20
5.007503661
 30
0.0
 40
0.0833333333
 41
0.0
 71
     1
 72
     1
  1
M2 x 0.4 SOCKET HEAD SCREW
  7
SLDTEXTSTYLE0
 73
     1
 44
1.0
  0
MTEXT
  5
17A
330
173
100
AcDbEntity
  8
0
  6
Continuous
 62
     7
370
    18
100
AcDbMText
 10
8.3470401398
 20
4.8750962565
 30
0.0
 40
0.0833333333
 41
0.0
 71
     1
 72
     1
  1
1.5mm HEX
  7
SLDTEXTSTYLE0
 73
     1
 44
1.0
  0
ENDBLK
  5
175
330
173
100
AcDbEntity
  8
0
100
AcDbBlockEnd
  0
BLOCK
  5
17E
330
17D
100
AcDbEntity
  8
0
100
AcDbBlockBegin
  2
_DOT
 70
     0
 10
0.0
 20
0.0
 30
0.0
  3
_DOT
  1

  0
POLYLINE
  5
180
330
17D
100
AcDbEntity
  8
0
  6
ByBlock
 62
     0
100
AcDb2dPolyline
 66
     1
 10
0.0
 20
0.0
 30
0.0
 70
     1
 40
0.5
 41
0.5
  0
VERTEX
  5
182
330
180
100
AcDbEntity
  8
0
  6
ByBlock
 62
     0
100
AcDbVertex
100
AcDb2dVertex
 10
-0.25
 20
0.0
 30
0.0
 42
1.0
  0
VERTEX
  5
183
330
180
100
AcDbEntity
  8
0
  6
ByBlock
 62
     0
100
AcDbVertex
100
AcDb2dVertex
 10
0.25
 20
0.0
 30
0.0
 42
1.0
  0
SEQEND
  5
184
330
180
100
AcDbEntity
  8
0
  6
ByBlock
 62
     0
  0
LINE
  5
181
330
17D
100
AcDbEntity
  8
0
  6
ByBlock
 62
     0
370
    -2
100
AcDbLine
 10
-0.5
 20
0.0
 30
0.0
 11
-1.0
 21
0.0
 31
0.0
  0
ENDBLK
  5
17F
330
17D
100
AcDbEntity
  8
0
100
AcDbBlockEnd
  0
BLOCK
  5
187
330
186
100
AcDbEntity
  8
0
100
AcDbBlockBegin
  2
SW_CENTERMARKSYMBOL_0
 70
     0
 10
0.0
 20
0.0
 30
0.0
  3
SW_CENTERMARKSYMBOL_0
  1

  0
LINE
  5
189
330
186
100
AcDbEntity
  8
0
  6
Continuous
 62
     0
370
     0
100
AcDbLine
 10
0.0
 20
0.0
 30
0.0
 11
0.0
 21
0.1
 31
0.0
  0
LINE
  5
18A
330
186
100
AcDbEntity
  8
0
  6
Continuous
 62
     0
370
     0
100
AcDbLine
 10
0.0
 20
0.0
 30
0.0
 11
-0.1
 21
0.0
 31
0.0
  0
LINE
  5
18B
330
186
100
AcDbEntity
  8
0
  6
Continuous
 62
     0
370
     0
100
AcDbLine
 10
0.0
 20
0.0
 30
0.0
 11
0.0
 21
-0.1
 31
0.0
  0
LINE
  5
18C
330
186
100
AcDbEntity
  8
0
  6
Continuous
 62
     0
370
     0
100
AcDbLine
 10
0.0
 20
0.0
 30
0.0
 11
0.1
 21
0.0
 31
0.0
  0
ENDBLK
  5
188
330
186
100
AcDbEntity
  8
0
100
AcDbBlockEnd
  0
BLOCK
  5
18F
330
18E
100
AcDbEntity
  8
0
100
AcDbBlockBegin
  2
SW_CENTERMARKSYMBOL_1
 70
     0
 10
0.0
 20
0.0
 30
0.0
  3
SW_CENTERMARKSYMBOL_1
  1

  0
LINE
  5
191
330
18E
100
AcDbEntity
  8
0
  6
Continuous
 62
     0
370
     0
100
AcDbLine
 10
0.0
 20
0.0
 30
0.0
 11
0.0
 21
0.1
 31
0.0
  0
LINE
  5
192
330
18E
100
AcDbEntity
  8
0
  6
Continuous
 62
     0
370
     0
100
AcDbLine
 10
0.0
 20
0.0
 30
0.0
 11
-0.1
 21
0.0
 31
0.0
  0
LINE
  5
193
330
18E
100
AcDbEntity
  8
0
  6
Continuous
 62
     0
370
     0
100
AcDbLine
 10
0.0
 20
0.0
 30
0.0
 11
0.0
 21
-0.1
 31
0.0
  0
LINE
  5
194
330
18E
100
AcDbEntity
  8
0
  6
Continuous
 62
     0
370
     0
100
AcDbLine
 10
0.0
 20
0.0
 30
0.0
 11
0.1
 21
0.0
 31
0.0
  0
ENDBLK
  5
190
330
18E
100
AcDbEntity
  8
0
100
AcDbBlockEnd
  0
BLOCK
  5
314
330
313
100
AcDbEntity
  8
0
100
AcDbBlockBegin
  2
_D_4
 70
     0
 10
0.0
 20
0.0
 30
0.0
  3
_D_4
  1

  0
SOLID
  5
316
330
313
100
AcDbEntity
  8
0
  6
Continuous
 62
     7
370
    18
100
AcDbTrace
 10
0.5391111529
 20
6.4011113369
 30
0.0
 11
0.5191111529
 21
6.2761113369
 31
0.0
 12
0.5591111529
 22
6.2761113369
 32
0.0
 13
0.5591111529
 23
6.2761113369
 33
0.0
  0
SOLID
  5
317
330
313
100
AcDbEntity
  8
0
  6
Continuous
 62
     7
370
    18
100
AcDbTrace
 10
0.5391111529
 20
3.4071113369
 30
0.0
 11
0.5591111529
 21
3.5321113369
 31
0.0
 12
0.5191111529
 22
3.5321113369
 32
0.0
 13
0.5191111529
 23
3.5321113369
 33
0.0
  0
LINE
  5
318
330
313
100
AcDbEntity
  8
0
  6
Continuous
 62
     7
370
    18
100
AcDbLine
 10
0.3272284198
 20
4.9041113277
 30
0.0
 11
0.3018811972
 21
4.9041113277
 31
0.0
  0
LINE
  5
319
330
313
100
AcDbEntity
  8
0
  6
Continuous
 62
     7
370
    18
100
AcDbLine
 10
0.3018811972
 20
4.9041113277
 30
0.0
 11
0.3018811972
 21
4.7717039231
 31
0.0
  0
LINE
  5
31A
330
313
100
AcDbEntity
  8
0
  6
Continuous
 62
     7
370
    18
100
AcDbLine
 10
0.3018811972
 20
4.7717039231
 30
0.0
 11
0.3272284198
 21
4.7717039231
 31
0.0
  0
LINE
  5
31B
330
313
100
AcDbEntity
  8
0
  6
Continuous
 62
     7
370
    18
100
AcDbLine
 10
0.7509938677
 20
4.9041113277
 30
0.0
 11
0.7763410903
 21
4.9041113277
 31
0.0
  0
LINE
  5
31C
330
313
100
AcDbEntity
  8
0
  6
Continuous
 62
     7
370
    18
100
AcDbLine
 10
0.7763410903
 20
4.9041113277
 30
0.0
 11
0.7763410903
 21
4.7717039231
 31
0.0
  0
LINE
  5
31D
330
313
100
AcDbEntity
  8
0
  6
Continuous
 62
     7
370
    18
100
AcDbLine
 10
0.7763410903
 20
4.7717039231
 30
0.0
 11
0.7509938677
 21
4.7717039231
 31
0.0
  0
LINE
  5
31E
330
313
100
AcDbEntity
  8
0
  6
Continuous
 62
     7
370
    18
100
AcDbLine
 10
2.3842528852
 20
6.4011113369
 30
0.0
 11
0.4691111529
 21
6.4011113369
 31
0.0
  0
LINE
  5
31F
330
313
100
AcDbEntity
  8
0
  6
Continuous
 62
     7
370
    18
100
AcDbLine
 10
2.3842528852
 20
3.4071113369
 30
0.0
 11
0.4691111529
 21
3.4071113369
 31
0.0
  0
LINE
  5
320
330
313
100
AcDbEntity
  8
0
  6
Continuous
 62
     7
370
    18
100
AcDbLine
 10
0.5391111529
 20
6.4011113369
 30
0.0
 11
0.5391111529
 21
5.0534168837
 31
0.0
  0
LINE
  5
321
330
313
100
AcDbEntity
  8
0
  6
Continuous
 62
     7
370
    18
100
AcDbLine
 10
0.5391111529
 20
3.4071113369
 30
0.0
 11
0.5391111529
 21
4.75480579
 31
0.0
  0
MTEXT
  5
322
330
313
100
AcDbEntity
  8
0
  6
Continuous
 62
     7
370
    18
100
AcDbMText
 10
0.2776142224
 20
5.0284317862
 30
0.0
 40
0.0833333333
 41
0.0
 71
     1
 72
     1
  1

  7
SLDTEXTSTYLE0
 73
     1
 44
1.0
  0
MTEXT
  5
323
330
313
100
AcDbEntity
  8
0
  6
Continuous
 62
     7
370
    18
100
AcDbMText
 10
0.3864105136
 20
5.0284317862
 30
0.0
 40
0.0833333333
 41
0.0
 71
     1
 72
     1
  1
1.50in
  7
SLDTEXTSTYLE0
 73
     1
 44
1.0
  0
MTEXT
  5
324
330
313
100
AcDbEntity
  8
0
  6
Continuous
 62
     7
370
    18
100
AcDbMText
 10
0.3272284198
 20
4.8791262302
 30
0.0
 40
0.0833333333
 41
0.0
 71
     1
 72
     1
  1
38.0mm
  7
SLDTEXTSTYLE0
 73
     1
 44
1.0
  0
MTEXT
  5
325
330
313
100
AcDbEntity
  8
0
  6
Continuous
 62
     7
370
    18
100
AcDbMText
 10
0.8641883129
 20
5.0284317862
 30
0.0
 40
0.0833333333
 41
0.0
 71
     1
 72
     1
  1

  7
SLDTEXTSTYLE0
 73
     1
 44
1.0
  0
ENDBLK
  5
315
330
313
100
AcDbEntity
  8
0
100
AcDbBlockEnd
  0
BLOCK
  5
328
330
327
100
AcDbEntity
  8
0
100
AcDbBlockBegin
  2
SW_NOTE_3
 70
     0
 10
0.0
 20
0.0
 30
0.0
  3
SW_NOTE_3
  1

  0
MTEXT
  5
32A
330
327
100
AcDbEntity
  8
0
  6
Continuous
 62
     0
370
     0
100
AcDbMText
 10
0.0225985116
 20
0.0364617191
 30
0.0
 40
0.0833333333
 41
0.0
 71
     1
 72
     1
  1
XT34 CONSTRUCTION RAIL
  7
SLDTEXTSTYLE0
 73
     1
 44
1.0
  0
MTEXT
  5
32B
330
327
100
AcDbEntity
  8
0
  6
Continuous
 62
     0
370
     0
100
AcDbMText
 10
0.0225985116
 20
-0.0746493907
 30
0.0
 40
0.0833333333
 41
0.0
 71
     1
 72
     1
  1
NOT INCLUDED)
  7
SLDTEXTSTYLE0
 73
     1
 44
1.0
  0
ENDBLK
  5
329
330
327
100
AcDbEntity
  8
0
100
AcDbBlockEnd
  0
BLOCK
  5
32F
330
32E
100
AcDbEntity
  8
0
100
AcDbBlockBegin
  2
SW_NOTE_4
 70
     0
 10
0.0
 20
0.0
 30
0.0
  3
SW_NOTE_4
  1

  0
MTEXT
  5
331
330
32E
100
AcDbEntity
  8
0
  6
Continuous
 62
     0
370
     0
100
AcDbMText
 10
0.0234449749
 20
0.035714689
 30
0.0
 40
0.0833333333
 41
0.0
 71
     1
 72
     1
  1
XT34 CONSTRUCTION RAIL
  7
SLDTEXTSTYLE0
 73
     1
 44
1.0
  0
MTEXT
  5
332
330
32E
100
AcDbEntity
  8
0
  6
Continuous
 62
     0
370
     0
100
AcDbMText
 10
0.0234449749
 20
-0.0753964208
 30
0.0
 40
0.0833333333
 41
0.0
 71
     1
 72
     1
  1
(NOT INCLUDED)
  7
SLDTEXTSTYLE0
 73
     1
 44
1.0
  0
ENDBLK
  5
330
330
32E
100
AcDbEntity
  8
0
100
AcDbBlockEnd
  0
BLOCK
  5
336
330
335
100
AcDbEntity
  8
0
100
AcDbBlockBegin
  2
SW_CENTERMARKSYMBOL_2
 70
     0
 10
0.0
 20
0.0
 30
0.0
  3
SW_CENTERMARKSYMBOL_2
  1

  0
LINE
  5
338
330
335
100
AcDbEntity
  8
0
  6
Continuous
 62
     0
370
     0
100
AcDbLine
 10
0.0
 20
0.0
 30
0.0
 11
0.0
 21
0.1
 31
0.0
  0
LINE
  5
339
330
335
100
AcDbEntity
  8
0
  6
Continuous
 62
     0
370
     0
100
AcDbLine
 10
0.0
 20
0.0
 30
0.0
 11
-0.1
 21
0.0
 31
0.0
  0
LINE
  5
33A
330
335
100
AcDbEntity
  8
0
  6
Continuous
 62
     0
370
     0
100
AcDbLine
 10
0.0
 20
0.0
 30
0.0
 11
0.0
 21
-0.1
 31
0.0
  0
LINE
  5
33B
330
335
100
AcDbEntity
  8
0
  6
Continuous
 62
     0
370
     0
100
AcDbLine
 10
0.0
 20
0.0
 30
0.0
 11
0.1
 21
0.0
 31
0.0
  0
ENDBLK
  5
337
330
335
100
AcDbEntity
  8
0
100
AcDbBlockEnd
  0
BLOCK
  5
33E
330
33D
100
AcDbEntity
  8
0
100
AcDbBlockBegin
  2
SW_CENTERMARKSYMBOL_3
 70
     0
 10
0.0
 20
0.0
 30
0.0
  3
SW_CENTERMARKSYMBOL_3
  1

  0
LINE
  5
340
330
33D
100
AcDbEntity
  8
0
  6
Continuous
 62
     0
370
     0
100
AcDbLine
 10
0.0
 20
0.0
 30
0.0
 11
0.0
 21
0.1
 31
0.0
  0
LINE
  5
341
330
33D
100
AcDbEntity
  8
0
  6
Continuous
 62
     0
370
     0
100
AcDbLine
 10
0.0
 20
0.0
 30
0.0
 11
-0.1
 21
0.0
 31
0.0
  0
LINE
  5
342
330
33D
100
AcDbEntity
  8
0
  6
Continuous
 62
     0
370
     0
100
AcDbLine
 10
0.0
 20
0.0
 30
0.0
 11
0.0
 21
-0.1
 31
0.0
  0
LINE
  5
343
330
33D
100
AcDbEntity
  8
0
  6
Continuous
 62
     0
370
     0
100
AcDbLine
 10
0.0
 20
0.0
 30
0.0
 11
0.1
 21
0.0
 31
0.0
  0
ENDBLK
  5
33F
330
33D
100
AcDbEntity
  8
0
100
AcDbBlockEnd
  0
ENDSEC
  0
SECTION
  2
ENTITIES
  0
LINE
  5
81
330
1F
100
AcDbEntity
  8
0
  6
Continuous
 62
     7
370
    18
100
AcDbLine
 10
0.0621791378
 20
8.4506055117
 30
0.0
 11
10.9444569626
 21
8.4506055117
 31
0.0
  0
LINE
  5
82
330
1F
100
AcDbEntity
  8
0
  6
Continuous
 62
     7
370
    18
100
AcDbLine
 10
0.0621791378
 20
8.4506055117
 30
0.0
 11
0.0621791378
 21
0.035557648
 31
0.0
  0
LINE
  5
83
330
1F
100
AcDbEntity
  8
0
  6
Continuous
 62
     7
370
    18
100
AcDbLine
 10
10.9444569626
 20
0.035557648
 30
0.0
 11
0.0621791378
 21
0.035557648
 31
0.0
  0
LINE
  5
84
330
1F
100
AcDbEntity
  8
0
  6
Continuous
 62
     7
370
    18
100
AcDbLine
 10
10.9444569626
 20
0.035557648
 30
0.0
 11
10.9444569626
 21
8.4506055117
 31
0.0
  0
LINE
  5
85
330
1F
100
AcDbEntity
  8
0
  6
Continuous
 62
     7
370
    18
100
AcDbLine
 10
8.4938096065
 20
0.4840901186
 30
0.0
 11
6.7571952625
 21
0.4840901186
 31
0.0
  0
LINE
  5
86
330
1F
100
AcDbEntity
  8
0
  6
Continuous
 62
     7
370
    18
100
AcDbLine
 10
6.7571952625
 20
0.4840901186
 30
0.0
 11
6.7571952625
 21
1.030163002
 31
0.0
  0
LINE
  5
87
330
1F
100
AcDbEntity
  8
0
  6
Continuous
 62
     7
370
    18
100
AcDbLine
 10
6.7571952625
 20
0.035557648
 30
0.0
 11
6.7571952625
 21
1.030163002
 31
0.0
  0
LINE
  5
88
330
1F
100
AcDbEntity
  8
0
  6
Continuous
 62
     7
370
    18
100
AcDbLine
 10
8.4938096065
 20
0.6756085809
 30
0.0
 11
10.9444569626
 21
0.6756085809
 31
0.0
  0
LINE
  5
89
330
1F
100
AcDbEntity
  8
0
  6
Continuous
 62
     7
370
    18
100
AcDbLine
 10
8.4938096065
 20
1.3873799542
 30
0.0
 11
8.4938096065
 21
0.035557648
 31
0.0
  0
LINE
  5
8A
330
1F
100
AcDbEntity
  8
0
  6
Continuous
 62
     7
370
    18
100
AcDbLine
 10
8.4938096065
 20
1.030163002
 30
0.0
 11
6.7571952625
 21
1.030163002
 31
0.0
  0
LINE
  5
8B
330
1F
100
AcDbEntity
  8
0
  6
Continuous
 62
     7
370
    18
100
AcDbLine
 10
8.4938096065
 20
0.3598787426
 30
0.0
 11
10.9444569626
 21
0.3598787426
 31
0.0
  0
LINE
  5
8C
330
1F
100
AcDbEntity
  8
0
  6
Continuous
 62
     7
370
    18
100
AcDbLine
 10
8.4938096065
 20
0.6662079686
 30
0.0
 11
6.7571952625
 21
0.6662079686
 31
0.0
  0
LINE
  5
8D
330
1F
100
AcDbEntity
  8
0
  6
Continuous
 62
     7
370
    18
100
AcDbLine
 10
8.4938096065
 20
0.8459606517
 30
0.0
 11
6.7571952625
 21
0.8459606517
 31
0.0
  0
LINE
  5
8E
330
1F
100
AcDbEntity
  8
0
  6
Continuous
 62
     7
370
    18
100
AcDbLine
 10
7.3281027587
 20
1.030163002
 30
0.0
 11
7.3281027587
 21
0.4840901186
 31
0.0
  0
LINE
  5
8F
330
1F
100
AcDbEntity
  8
0
  6
Continuous
 62
     7
370
    18
100
AcDbLine
 10
7.8037240401
 20
1.030163002
 30
0.0
 11
7.8037240401
 21
0.4840901186
 31
0.0
  0
LINE
  5
90
330
1F
100
AcDbEntity
  8
0
  6
Continuous
 62
     7
370
    18
100
AcDbLine
 10
9.990119718
 20
0.3598787426
 30
0.0
 11
9.990119718
 21
0.035557648
 31
0.0
  0
LINE
  5
91
330
1F
100
AcDbEntity
  8
0
  6
Continuous
 62
     7
370
    18
100
AcDbLine
 10
6.7571952625
 20
0.4840901186
 30
0.0
 11
6.7571952625
 21
0.297745443
 31
0.0
  0
LINE
  5
92
330
1F
100
AcDbEntity
  8
0
  6
Continuous
 62
     7
370
    18
100
AcDbLine
 10
6.7571952625
 20
0.297745443
 30
0.0
 11
8.4938096065
 21
0.297745443
 31
0.0
  0
LINE
  5
93
330
1F
100
AcDbEntity
  8
0
  6
Continuous
 62
     7
370
    18
100
AcDbLine
 10
6.7571952625
 20
0.297745443
 30
0.0
 11
6.7571952625
 21
1.3873799542
 31
0.0
  0
LINE
  5
94
330
1F
100
AcDbEntity
  8
0
  6
Continuous
 62
     7
370
    18
100
AcDbLine
 10
6.7571952625
 20
1.3873799542
 30
0.0
 11
8.4938096065
 21
1.3873799542
 31
0.0
  0
LINE
  5
95
330
1F
100
AcDbEntity
  8
0
  6
Continuous
 62
     7
370
    18
100
AcDbLine
 10
10.6365495992
 20
0.6756085809
 30
0.0
 11
10.6365495992
 21
0.3598787426
 31
0.0
  0
LINE
  5
96
330
1F
100
AcDbEntity
  8
0
  6
Continuous
 62
     7
370
    18
100
AcDbLine
 10
8.4938096065
 20
1.3873799542
 30
0.0
 11
10.9444569626
 21
1.3873799542
 31
0.0
  0
LINE
  5
97
330
1F
100
AcDbEntity
  8
0
  6
Continuous
 62
     7
370
    18
100
AcDbLine
 10
10.9444569626
 20
1.3873799542
 30
0.0
 11
10.9444569626
 21
1.9698084888
 31
0.0
  0
LINE
  5
98
330
1F
100
AcDbEntity
  8
0
  6
Continuous
 62
     7
370
    18
100
AcDbLine
 10
8.4938096065
 20
0.9800288797
 30
0.0
 11
10.9444569626
 21
0.9800288797
 31
0.0
  0
INSERT
  5
99
330
1F
100
AcDbEntity
  8
0
  6
Continuous
 62
     7
100
AcDbBlockReference
  2
Third Angle Projection Block
 10
4.6348905679
 20
0.6108753523
 30
0.0
 41
0.8
 42
0.8
 43
0.8
  0
MTEXT
  5
9B
330
1F
100
AcDbEntity
  8
0
  6
Continuous
 62
     7
370
     0
100
AcDbMText
 10
1.4036551559
 20
0.8863817139
 30
0.0
 40
0.1041666667
 41
0.0
 71
     1
 72
     1
  1
\L  A: PART SURFACES MAY HAVE EXTRUSION MARKS
  7
SLDTEXTSTYLE0
 73
     1
 44
1.0
  0
MTEXT
  5
9C
330
1F
100
AcDbEntity
  8
0
  6
Continuous
 62
     7
370
     0
100
AcDbMText
 10
10.7937005428
 20
0.5227176726
 30
0.0
 40
0.125
 41
0.0
 71
     2
 72
     1
  1
C
  7
SLDTEXTSTYLE0
 73
     1
 44
1.0
  0
MTEXT
  5
9D
330
1F
100
AcDbEntity
  8
0
  6
Continuous
 62
     7
370
     0
100
AcDbMText
 10
9.2372137777
 20
0.2019943461
 30
0.0
 40
0.125
 41
0.0
 71
     2
 72
     1
  1
XT34C2
  7
SLDTEXTSTYLE0
 73
     1
 44
1.0
  0
MTEXT
  5
9E
330
1F
100
AcDbEntity
  8
0
  6
Continuous
 62
     7
370
     0
100
AcDbMText
 10
8.5204715199
 20
0.6623747189
 30
0.0
 40
0.0833333333
 41
0.0
 71
     1
 72
     1
  1
MATERIAL
  7
SLDTEXTSTYLE0
 73
     1
 44
1.0
  0
MTEXT
  5
9F
330
1F
100
AcDbEntity
  8
0
  6
Continuous
 62
     7
370
     0
100
AcDbMText
 10
6.8594860853
 20
0.7895493672
 30
0.0
 40
0.0729166667
 41
0.0
 71
     1
 72
     1
  1
DRAWN
  7
SLDTEXTSTYLE0
 73
     1
 44
1.0
  0
MTEXT
  5
A0
330
1F
100
AcDbEntity
  8
0
  6
Continuous
 62
     7
370
     0
100
AcDbMText
 10
6.7872445848
 20
0.613335314
 30
0.0
 40
0.0729166667
 41
0.0
 71
     1
 72
     1
  1
APPROVAL
  7
SLDTEXTSTYLE0
 73
     1
 44
1.0
  0
MTEXT
  5
A1
330
1F
100
AcDbEntity
  8
0
  6
Continuous
 62
     7
370
     0
100
AcDbMText
 10
10.6936137314
 20
0.6373332609
 30
0.0
 40
0.0833333333
 41
0.0
 71
     1
 72
     1
  1
REV
  7
SLDTEXTSTYLE0
 73
     1
 44
1.0
  0
MTEXT
  5
A2
330
1F
100
AcDbEntity
  8
0
  6
Continuous
 62
     7
370
     0
100
AcDbMText
 10
7.4919633718
 20
0.7999100272
 30
0.0
 40
0.0833333333
 41
0.0
 71
     1
 72
     1
  1
AK
  7
SLDTEXTSTYLE0
 73
     1
 44
1.0
  0
MTEXT
  5
A3
330
1F
100
AcDbEntity
  8
0
  6
Continuous
 62
     7
370
     0
100
AcDbMText
 10
7.4919633718
 20
0.623695974
 30
0.0
 40
0.0833333333
 41
0.0
 71
     1
 72
     1
  1
JC
  7
SLDTEXTSTYLE0
 73
     1
 44
1.0
  0
MTEXT
  5
A4
330
1F
100
AcDbEntity
  8
0
  6
Continuous
 62
     7
370
     0
100
AcDbMText
 10
7.8687497515
 20
0.7999100272
 30
0.0
 40
0.0833333333
 41
0.0
 71
     1
 72
     1
  1
07/OCT/13
  7
SLDTEXTSTYLE0
 73
     1
 44
1.0
  0
MTEXT
  5
A5
330
1F
100
AcDbEntity
  8
0
  6
Continuous
 62
     7
370
     0
100
AcDbMText
 10
8.0163191884
 20
0.9772495896
 30
0.0
 40
0.0833333333
 41
0.0
 71
     1
 72
     1
  1
DATE
  7
SLDTEXTSTYLE0
 73
     1
 44
1.0
  0
MTEXT
  5
A6
330
1F
100
AcDbEntity
  8
0
  6
Continuous
 62
     7
370
     0
100
AcDbMText
 10
7.8687497515
 20
0.623695974
 30
0.0
 40
0.0833333333
 41
0.0
 71
     1
 72
     1
  1
10/OCT/13
  7
SLDTEXTSTYLE0
 73
     1
 44
1.0
  0
MTEXT
  5
A8
330
1F
100
AcDbEntity
  8
0
  6
Continuous
 62
     7
370
     0
100
AcDbMText
 10
9.0316104912
 20
1.0943207896
 30
0.0
 40
0.0833333333
 41
0.0
 71
     1
 72
     1
  1
w w w . t h o r  l a b s . c o m
  7
SLDTEXTSTYLE1
 73
     1
 44
1.0
  0
MTEXT
  5
A9
330
1F
100
AcDbEntity
  8
0
  6
Continuous
 62
     7
370
     0
100
AcDbMText
 10
8.5315119501
 20
0.328719653
 30
0.0
 40
0.0833333333
 41
0.0
 71
     1
 72
     1
  1
ITEM #
  7
SLDTEXTSTYLE0
 73
     1
 44
1.0
  0
MTEXT
  5
AA
330
1F
100
AcDbEntity
  8
0
  6
Continuous
 62
     7
370
     0
100
AcDbMText
 10
10.0209370115
 20
0.328719653
 30
0.0
 40
0.0833333333
 41
0.0
 71
     1
 72
     1
  1
APPROX WEIGHT
  7
SLDTEXTSTYLE0
 73
     1
 44
1.0
  0
MTEXT
  5
AB
330
1F
100
AcDbEntity
  8
0
  6
Continuous
 62
     7
370
     0
100
AcDbMText
 10
9.5945953048
 20
0.5414715262
 30
0.0
 40
0.125
 41
0.0
 71
     2
 72
     1
  1
N/A
  7
SLDTEXTSTYLE0
 73
     1
 44
1.0
  0
MTEXT
  5
AC
330
1F
100
AcDbEntity
  8
0
  6
Continuous
 62
     7
370
     0
100
AcDbMText
 10
10.4777904479
 20
0.2019943461
 30
0.0
 40
0.125
 41
0.0
 71
     2
 72
     1
  1
0.009 kg
  7
SLDTEXTSTYLE0
 73
     1
 44
1.0
  0
INSERT
  5
B2
330
1F
100
AcDbEntity
  8
0
  6
Continuous
 62
     7
370
     0
100
AcDbBlockReference
  2
SW_NOTE_0
 10
6.8835832285
 20
0.1754273811
 30
0.0
  0
INSERT
  5
B8
330
1F
100
AcDbEntity
  8
0
  6
Continuous
 62
     7
370
     0
100
AcDbBlockReference
  2
SW_NOTE_1
 10
6.8719828753
 20
1.2001390658
 30
0.0
  0
MTEXT
  5
B9
330
1F
100
AcDbEntity
  8
0
  6
Continuous
 62
     7
370
     0
100
AcDbMText
 10
7.3987149145
 20
0.9772495896
 30
0.0
 40
0.0833333333
 41
0.0
 71
     1
 72
     1
  1
NAME
  7
SLDTEXTSTYLE0
 73
     1
 44
1.0
  0
INSERT
  5
BF
330
1F
100
AcDbEntity
  8
0
  6
Continuous
 62
     7
370
     0
100
AcDbBlockReference
  2
SW_NOTE_2
 10
2.3078923918
 20
0.3219551564
 30
0.0
  0
MTEXT
  5
C0
330
1F
100
AcDbEntity
  8
0
  6
Continuous
 62
     7
370
     0
100
AcDbMText
 10
9.7573976344
 20
0.8860243938
 30
0.0
 40
0.0833333333
 41
0.0
 71
     2
 72
     1
  1
XT34 DOUBLE DOVETAIL CLAMP, L=30mm
  7
SLDTEXTSTYLE0
 73
     1
 44
1.0
  0
MTEXT
  5
C1
330
1F
100
AcDbEntity
  8
0
  6
Continuous
 62
     7
370
     0
100
AcDbMText
 10
7.0281258754
 20
0.4200025137
 30
0.0
 40
0.0625
 41
0.0
 71
     1
 72
     1
  1
COPYRIGHT © 2013 BY THORLABS
  7
SLDTEXTSTYLE0
 73
     1
 44
1.0
  0
LINE
  5
C2
330
1F
100
AcDbEntity
  8
0
  6
Continuous
 62
     7
370
    18
100
AcDbLine
 10
6.9795212426
 20
4.1343467831
 30
0.0
 11
6.92262866
 21
4.1343467831
 31
0.0
  0
LINE
  5
C3
330
1F
100
AcDbEntity
  8
0
  6
Continuous
 62
     7
370
    18
100
AcDbLine
 10
6.92262866
 20
3.9853467852
 30
0.0
 11
6.9795212426
 21
3.9853467852
 31
0.0
  0
LINE
  5
C4
330
1F
100
AcDbEntity
  8
0
  6
Continuous
 62
     7
370
    18
100
AcDbLine
 10
7.1995212403
 20
3.7648467882
 30
0.0
 11
7.2795212261
 21
3.8448467867
 31
0.0
  0
LINE
  5
C5
330
1F
100
AcDbEntity
  8
0
  6
Continuous
 62
     7
370
    18
100
AcDbLine
 10
6.9795212426
 20
4.2173267995
 30
0.0
 11
6.9795212426
 21
3.902365788
 31
0.0
  0
LINE
  5
C6
330
1F
100
AcDbEntity
  8
0
  6
Continuous
 62
     7
370
    18
100
AcDbLine
 10
6.889762747
 20
4.3070852859
 30
0.0
 11
6.9795212426
 21
4.2173267995
 31
0.0
  0
ARC
  5
C7
330
1F
100
AcDbEntity
  8
0
  6
Continuous
 62
     7
370
    18
100
AcDbCircle
 10
6.9095461091
 20
4.3268687858
 30
0.0
 40
0.0279779998878816
100
AcDbArc
 50
89.9999998632
 51
225.0002061941
  0
LINE
  5
C8
330
1F
100
AcDbEntity
  8
0
  6
Continuous
 62
     7
370
    18
100
AcDbLine
 10
7.1995212403
 20
4.3548467709
 30
0.0
 11
6.9095461089
 21
4.3548467709
 31
0.0
  0
LINE
  5
C9
330
1F
100
AcDbEntity
  8
0
  6
Continuous
 62
     7
370
    18
100
AcDbLine
 10
7.2795212261
 20
4.274846785
 30
0.0
 11
7.1995212403
 21
4.3548467709
 31
0.0
  0
LINE
  5
CA
330
1F
100
AcDbEntity
  8
0
  6
Continuous
 62
     7
370
    18
100
AcDbLine
 10
7.2795212261
 20
3.8448467867
 30
0.0
 11
7.2795212261
 21
4.274846785
 31
0.0
  0
LINE
  5
CB
330
1F
100
AcDbEntity
  8
0
  6
Continuous
 62
     7
370
    18
100
AcDbLine
 10
6.9795212426
 20
3.902365788
 30
0.0
 11
6.8897622474
 21
3.8126077919
 31
0.0
  0
ARC
  5
CC
330
1F
100
AcDbEntity
  8
0
  6
Continuous
 62
     7
370
    18
100
AcDbCircle
 10
6.9095461091
 20
3.792824788
 30
0.0
 40
0.027977999887888
100
AcDbArc
 50
135.0012418767
 51
270.0000001364
  0
LINE
  5
CD
330
1F
100
AcDbEntity
  8
0
  6
Continuous
 62
     7
370
    18
100
AcDbLine
 10
6.9095461089
 20
3.7648467882
 30
0.0
 11
7.1995212403
 21
3.7648467882
 31
0.0
  0
LINE
  5
CE
330
1F
100
AcDbEntity
  8
0
  6
Continuous
 62
     7
370
    18
100
AcDbLine
 10
5.0273149538
 20
3.8395330772
 30
0.0
 11
5.0979423512
 21
3.7689056589
 31
0.0
  0
ARC
  5
CF
330
1F
100
AcDbEntity
  8
0
  6
Continuous
 62
     7
370
    18
100
AcDbCircle
 10
6.9066286593
 20
4.1725919517
 30
0.0
 40
0.0159999999999999
100
AcDbArc
 50
0.0
 51
45.0000000001
  0
LINE
  5
D0
330
1F
100
AcDbEntity
  8
0
  6
Continuous
 62
     7
370
    18
100
AcDbLine
 10
6.92262866
 20
3.9478467884
 30
0.0
 11
6.92262866
 21
4.1725919663
 31
0.0
  0
LINE
  5
D1
330
1F
100
AcDbEntity
  8
0
  6
Continuous
 62
     7
370
    18
100
AcDbLine
 10
5.1092560872
 20
3.7642193692
 30
0.0
 11
5.4066287052
 21
3.7642193692
 31
0.0
  0
ARC
  5
D2
330
1F
100
AcDbEntity
  8
0
  6
Continuous
 62
     7
370
    18
100
AcDbCircle
 10
5.4066286593
 20
3.7802193687
 30
0.0
 40
0.0160000000000009
100
AcDbArc
 50
270.0
 51
0.0
  0
LINE
  5
D3
330
1F
100
AcDbEntity
  8
0
  6
Continuous
 62
     7
370
    18
100
AcDbLine
 10
5.4226286804
 20
3.7802193673
 30
0.0
 11
5.4226286804
 21
3.7975919525
 31
0.0
  0
LINE
  5
D4
330
1F
100
AcDbEntity
  8
0
  6
Continuous
 62
     7
370
    18
100
AcDbLine
 10
6.9179423681
 20
4.1839056656
 30
0.0
 11
6.887314951
 21
4.2145330884
 31
0.0
  0
ARC
  5
D5
330
1F
100
AcDbEntity
  8
0
  6
Continuous
 62
     7
370
    18
100
AcDbCircle
 10
6.8760012423
 20
4.2032193687
 30
0.0
 40
0.0160000000000018
100
AcDbArc
 50
45.0000000001
 51
90.0
  0
LINE
  5
D6
330
1F
100
AcDbEntity
  8
0
  6
Continuous
 62
     7
370
    18
100
AcDbLine
 10
6.8760012413
 20
4.2192193643
 30
0.0
 11
6.7486286573
 21
4.2192193643
 31
0.0
  0
ARC
  5
D7
330
1F
100
AcDbEntity
  8
0
  6
Continuous
 62
     7
370
    18
100
AcDbCircle
 10
6.7486286593
 20
4.2032193687
 30
0.0
 40
0.0160000000000009
100
AcDbArc
 50
90.0
 51
180.0
  0
LINE
  5
D8
330
1F
100
AcDbEntity
  8
0
  6
Continuous
 62
     7
370
    18
100
AcDbLine
 10
6.7326286638
 20
4.2032193525
 30
0.0
 11
6.7326286638
 21
4.179219353
 31
0.0
  0
LINE
  5
D9
330
1F
100
AcDbEntity
  8
0
  6
Continuous
 62
     7
370
    18
100
AcDbLine
 10
5.5926286366
 20
3.9172193655
 30
0.0
 11
5.5926286366
 21
3.9412193649
 31
0.0
  0
LINE
  5
DA
330
1F
100
AcDbEntity
  8
0
  6
Continuous
 62
     7
370
    18
100
AcDbLine
 10
5.5926286366
 20
3.9412193649
 30
0.0
 11
6.7326286638
 21
3.9412193649
 31
0.0
  0
LINE
  5
DB
330
1F
100
AcDbEntity
  8
0
  6
Continuous
 62
     7
370
    18
100
AcDbLine
 10
6.7326286638
 20
4.179219353
 30
0.0
 11
5.5926286366
 21
4.179219353
 31
0.0
  0
LINE
  5
DC
330
1F
100
AcDbEntity
  8
0
  6
Continuous
 62
     7
370
    18
100
AcDbLine
 10
5.5926286366
 20
4.179219353
 30
0.0
 11
5.5926286366
 21
4.2032193525
 31
0.0
  0
ARC
  5
DD
330
1F
100
AcDbEntity
  8
0
  6
Continuous
 62
     7
370
    18
100
AcDbCircle
 10
5.5766286593
 20
4.2032193687
 30
0.0
 40
0.0160000000000036
100
AcDbArc
 50
0.0
 51
90.0
  0
LINE
  5
DE
330
1F
100
AcDbEntity
  8
0
  6
Continuous
 62
     7
370
    18
100
AcDbLine
 10
5.5766286614
 20
4.2192193643
 30
0.0
 11
5.3497708021
 21
4.2192193643
 31
0.0
  0
ARC
  5
DF
330
1F
100
AcDbEntity
  8
0
  6
Continuous
 62
     7
370
    18
100
AcDbCircle
 10
5.3497707949
 20
4.2292193687
 30
0.0
 40
0.0099999999999997
100
AcDbArc
 50
135.0
 51
270.0
  0
LINE
  5
E0
330
1F
100
AcDbEntity
  8
0
  6
Continuous
 62
     7
370
    18
100
AcDbLine
 10
5.3426997904
 20
4.2362904338
 30
0.0
 11
5.4179422946
 21
4.3115330845
 31
0.0
  0
ARC
  5
E1
330
1F
100
AcDbEntity
  8
0
  6
Continuous
 62
     7
370
    18
100
AcDbCircle
 10
5.4066286593
 20
3.7975919517
 30
0.0
 40
0.0160000000000027
100
AcDbArc
 50
0.0
 51
45.0
  0
ARC
  5
E2
330
1F
100
AcDbEntity
  8
0
  6
Continuous
 62
     7
370
    18
100
AcDbCircle
 10
5.3497707949
 20
3.8912193687
 30
0.0
 40
0.0100000000000002
100
AcDbArc
 50
89.9999999999
 51
225.0
  0
LINE
  5
E3
330
1F
100
AcDbEntity
  8
0
  6
Continuous
 62
     7
370
    18
100
AcDbLine
 10
5.3497708021
 20
3.9012193674
 30
0.0
 11
5.5766286614
 21
3.9012193674
 31
0.0
  0
ARC
  5
E4
330
1F
100
AcDbEntity
  8
0
  6
Continuous
 62
     7
370
    18
100
AcDbCircle
 10
5.5766286593
 20
3.9172193687
 30
0.0
 40
0.0159999999999991
100
AcDbArc
 50
270.0
 51
0.0
  0
LINE
  5
E5
330
1F
100
AcDbEntity
  8
0
  6
Continuous
 62
     7
370
    18
100
AcDbLine
 10
5.0979423512
 20
4.3515330591
 30
0.0
 11
5.0273149538
 21
4.2809056617
 31
0.0
  0
ARC
  5
E6
330
1F
100
AcDbEntity
  8
0
  6
Continuous
 62
     7
370
    18
100
AcDbCircle
 10
5.0386286593
 20
4.2695919517
 30
0.0
 40
0.0159999999999991
100
AcDbArc
 50
135.0
 51
180.0
  0
LINE
  5
E7
330
1F
100
AcDbEntity
  8
0
  6
Continuous
 62
     7
370
    18
100
AcDbLine
 10
5.0226287146
 20
4.2695919624
 30
0.0
 11
5.0226287146
 21
3.8508467854
 31
0.0
  0
ARC
  5
E8
330
1F
100
AcDbEntity
  8
0
  6
Continuous
 62
     7
370
    18
100
AcDbCircle
 10
5.0386286593
 20
3.8508467857
 30
0.0
 40
0.0160000000000012
100
AcDbArc
 50
180.0
 51
225.0
  0
ARC
  5
E9
330
1F
100
AcDbEntity
  8
0
  6
Continuous
 62
     7
370
    18
100
AcDbCircle
 10
6.7486286593
 20
3.9172193687
 30
0.0
 40
0.0160000000000009
100
AcDbArc
 50
180.0
 51
270.0
  0
ARC
  5
EA
330
1F
100
AcDbEntity
  8
0
  6
Continuous
 62
     7
370
    18
100
AcDbCircle
 10
5.1092560763
 20
3.7802193687
 30
0.0
 40
0.0160000000000022
100
AcDbArc
 50
225.0
 51
270.0
  0
ARC
  5
EB
330
1F
100
AcDbEntity
  8
0
  6
Continuous
 62
     7
370
    18
100
AcDbCircle
 10
6.8760012423
 20
3.9172193687
 30
0.0
 40
0.0159999999999898
100
AcDbArc
 50
270.0
 51
315.0000000001
  0
LINE
  5
EC
330
1F
100
AcDbEntity
  8
0
  6
Continuous
 62
     7
370
    18
100
AcDbLine
 10
6.887314951
 20
3.9059056616
 30
0.0
 11
6.9179423681
 21
3.9365330799
 31
0.0
  0
ARC
  5
ED
330
1F
100
AcDbEntity
  8
0
  6
Continuous
 62
     7
370
    18
100
AcDbCircle
 10
6.9066286593
 20
3.9478467857
 30
0.0
 40
0.0159999999999965
100
AcDbArc
 50
315.0000000001
 51
0.0
  0
ARC
  5
EE
330
1F
100
AcDbEntity
  8
0
  6
Continuous
 62
     7
370
    18
100
AcDbCircle
 10
5.4066286593
 20
4.3228467857
 30
0.0
 40
0.0160000000000009
100
AcDbArc
 50
315.0
 51
0.0
  0
LINE
  5
EF
330
1F
100
AcDbEntity
  8
0
  6
Continuous
 62
     7
370
    18
100
AcDbLine
 10
5.4179422946
 20
3.8089056609
 30
0.0
 11
5.3426997904
 21
3.8841483026
 31
0.0
  0
ARC
  5
F0
330
1F
100
AcDbEntity
  8
0
  6
Continuous
 62
     7
370
    18
100
AcDbCircle
 10
5.4066286593
 20
4.3402193687
 30
0.0
 40
0.0160000000000009
100
AcDbArc
 50
0.0
 51
90.0
  0
LINE
  5
F1
330
1F
100
AcDbEntity
  8
0
  6
Continuous
 62
     7
370
    18
100
AcDbLine
 10
5.4066287052
 20
4.3562193717
 30
0.0
 11
5.1092560872
 21
4.3562193717
 31
0.0
  0
ARC
  5
F2
330
1F
100
AcDbEntity
  8
0
  6
Continuous
 62
     7
370
    18
100
AcDbCircle
 10
5.1092560763
 20
4.3402193687
 30
0.0
 40
0.0159999999999993
100
AcDbArc
 50
90.0
 51
135.0
  0
LINE
  5
F3
330
1F
100
AcDbEntity
  8
0
  6
Continuous
 62
     7
370
    18
100
AcDbLine
 10
5.4226286804
 20
4.3228467839
 30
0.0
 11
5.4226286804
 21
4.3402193598
 31
0.0
  0
LINE
  5
F4
330
1F
100
AcDbEntity
  8
0
  6
Continuous
 62
     7
370
    18
100
AcDbLine
 10
6.7486286573
 20
3.9012193674
 30
0.0
 11
6.8760012413
 21
3.9012193674
 31
0.0
  0
LINE
  5
F5
330
1F
100
AcDbEntity
  8
0
  6
Continuous
 62
     7
370
    18
100
AcDbLine
 10
6.7326286638
 20
3.9412193649
 30
0.0
 11
6.7326286638
 21
3.9172193655
 31
0.0
  0
DIMENSION
  5
F6
330
1F
100
AcDbEntity
  8
0
  6
Continuous
 62
     7
370
    18
100
AcDbDimension
  2
_D
 10
7.2795212405
 20
3.3705185813
 30
0.0
 11
6.1510749499
 21
3.3705185813
 31
0.0
 70
   160
  1
<>
 71
     2
 42
-1.0
  3
SLDDIMSTYLE0
100
AcDbAlignedDimension
 13
5.0226286593
 23
3.8508467857
 33
0.0
 14
7.2795212405
 24
3.8448467864
 34
0.0
100
AcDbRotatedDimension
  0
MTEXT
  5
10B
330
1F
100
AcDbEntity
  8
0
  6
Continuous
 62
     7
370
     0
100
AcDbMText
 10
5.1994616871
 20
4.7902201696
 30
0.0
 40
0.1041666667
 41
0.0
 71
     1
 72
     1
  1
A
  7
SLDTEXTSTYLE0
 73
     1
 44
1.0
  0
LEADER
  5
10D
330
1F
100
AcDbEntity
  8
0
  6
Continuous
 62
     7
370
     0
100
AcDbLeader
  3
SLDDIMSTYLE1
 76
     3
 10
6.0694843932
 20
4.1792193687
 30
0.0
 10
5.5694403669
 20
4.7376150726
 30
0.0
 10
5.3194403669
 20
4.7376150726
 30
0.0
  0
CIRCLE
  5
10E
330
1F
100
AcDbEntity
  8
0
  6
Continuous
 62
     7
370
    18
100
AcDbCircle
 10
9.6163791166
 20
4.0598467857
 30
0.0
 40
0.1470000000000008
  0
LINE
  5
10F
330
1F
100
AcDbEntity
  8
0
  6
Continuous
 62
     7
370
    18
100
AcDbLine
 10
9.6562162786
 20
4.1288467916
 30
0.0
 11
9.696053455
 21
4.0598467887
 31
0.0
  0
LINE
  5
110
330
1F
100
AcDbEntity
  8
0
  6
Continuous
 62
     7
370
    18
100
AcDbLine
 10
9.576541944
 20
4.1288467916
 30
0.0
 11
9.6562162786
 21
4.1288467916
 31
0.0
  0
LINE
  5
111
330
1F
100
AcDbEntity
  8
0
  6
Continuous
 62
     7
370
    18
100
AcDbLine
 10
9.5367047767
 20
4.0598467887
 30
0.0
 11
9.576541944
 21
4.1288467916
 31
0.0
  0
LINE
  5
112
330
1F
100
AcDbEntity
  8
0
  6
Continuous
 62
     7
370
    18
100
AcDbLine
 10
9.576541944
 20
3.9908467858
 30
0.0
 11
9.5367047767
 21
4.0598467887
 31
0.0
  0
LINE
  5
113
330
1F
100
AcDbEntity
  8
0
  6
Continuous
 62
     7
370
    18
100
AcDbLine
 10
9.6562162786
 20
3.9908467858
 30
0.0
 11
9.576541944
 21
3.9908467858
 31
0.0
  0
LINE
  5
114
330
1F
100
AcDbEntity
  8
0
  6
Continuous
 62
     7
370
    18
100
AcDbLine
 10
9.696053455
 20
4.0598467887
 30
0.0
 11
9.6562162786
 21
3.9908467858
 31
0.0
  0
LINE
  5
115
330
1F
100
AcDbEntity
  8
0
  6
Continuous
 62
     7
370
    18
100
AcDbLine
 10
9.696053455
 20
4.0598467887
 30
0.0
 11
9.6845064484
 21
4.0598467887
 31
0.0
  0
LINE
  5
116
330
1F
100
AcDbEntity
  8
0
  6
Continuous
 62
     7
370
    18
100
AcDbLine
 10
9.6845064484
 20
4.0598467887
 30
0.0
 11
9.6504427753
 21
4.1188467888
 31
0.0
  0
LINE
  5
117
330
1F
100
AcDbEntity
  8
0
  6
Continuous
 62
     7
370
    18
100
AcDbLine
 10
9.6562162786
 20
4.1288467916
 30
0.0
 11
9.6504427753
 21
4.1188467888
 31
0.0
  0
LINE
  5
118
330
1F
100
AcDbEntity
  8
0
  6
Continuous
 62
     7
370
    18
100
AcDbLine
 10
9.6504427753
 20
4.1188467888
 30
0.0
 11
9.5823154473
 21
4.1188467888
 31
0.0
  0
LINE
  5
119
330
1F
100
AcDbEntity
  8
0
  6
Continuous
 62
     7
370
    18
100
AcDbLine
 10
9.5823154473
 20
4.1188467888
 30
0.0
 11
9.576541944
 21
4.1288467916
 31
0.0
  0
LINE
  5
11A
330
1F
100
AcDbEntity
  8
0
  6
Continuous
 62
     7
370
    18
100
AcDbLine
 10
9.6562162786
 20
3.9908467858
 30
0.0
 11
9.6504427753
 21
4.0008467886
 31
0.0
  0
LINE
  5
11B
330
1F
100
AcDbEntity
  8
0
  6
Continuous
 62
     7
370
    18
100
AcDbLine
 10
9.6504427753
 20
4.0008467886
 30
0.0
 11
9.6845064484
 21
4.0598467887
 31
0.0
  0
LINE
  5
11C
330
1F
100
AcDbEntity
  8
0
  6
Continuous
 62
     7
370
    18
100
AcDbLine
 10
9.5482517833
 20
4.0598467887
 30
0.0
 11
9.5823154473
 21
4.0008467886
 31
0.0
  0
LINE
  5
11D
330
1F
100
AcDbEntity
  8
0
  6
Continuous
 62
     7
370
    18
100
AcDbLine
 10
9.5823154473
 20
4.0008467886
 30
0.0
 11
9.576541944
 21
3.9908467858
 31
0.0
  0
LINE
  5
11E
330
1F
100
AcDbEntity
  8
0
  6
Continuous
 62
     7
370
    18
100
AcDbLine
 10
9.5482517833
 20
4.0598467887
 30
0.0
 11
9.5367047767
 21
4.0598467887
 31
0.0
  0
LINE
  5
11F
330
1F
100
AcDbEntity
  8
0
  6
Continuous
 62
     7
370
    18
100
AcDbLine
 10
9.5823154473
 20
4.1188467888
 30
0.0
 11
9.5482517833
 21
4.0598467887
 31
0.0
  0
LINE
  5
120
330
1F
100
AcDbEntity
  8
0
  6
Continuous
 62
     7
370
    18
100
AcDbLine
 10
9.5823154473
 20
4.0008467886
 30
0.0
 11
9.6504427753
 21
4.0008467886
 31
0.0
  0
CIRCLE
  5
121
330
1F
100
AcDbEntity
  8
0
  6
Continuous
 62
     7
370
    18
100
AcDbCircle
 10
8.6163791166
 20
4.0598467857
 30
0.0
 40
0.147
  0
LINE
  5
122
330
1F
100
AcDbEntity
  8
0
  6
Continuous
 62
     7
370
    18
100
AcDbLine
 10
8.5765419744
 20
4.1288467916
 30
0.0
 11
8.656216254
 21
4.1288467916
 31
0.0
  0
LINE
  5
123
330
1F
100
AcDbEntity
  8
0
  6
Continuous
 62
     7
370
    18
100
AcDbLine
 10
8.5367047613
 20
4.0598467887
 30
0.0
 11
8.5765419744
 21
4.1288467916
 31
0.0
  0
LINE
  5
124
330
1F
100
AcDbEntity
  8
0
  6
Continuous
 62
     7
370
    18
100
AcDbLine
 10
8.5765419744
 20
3.9908467858
 30
0.0
 11
8.5367047613
 21
4.0598467887
 31
0.0
  0
LINE
  5
125
330
1F
100
AcDbEntity
  8
0
  6
Continuous
 62
     7
370
    18
100
AcDbLine
 10
8.656216254
 20
3.9908467858
 30
0.0
 11
8.5765419744
 21
3.9908467858
 31
0.0
  0
LINE
  5
126
330
1F
100
AcDbEntity
  8
0
  6
Continuous
 62
     7
370
    18
100
AcDbLine
 10
8.6960534671
 20
4.0598467887
 30
0.0
 11
8.656216254
 21
3.9908467858
 31
0.0
  0
LINE
  5
127
330
1F
100
AcDbEntity
  8
0
  6
Continuous
 62
     7
370
    18
100
AcDbLine
 10
8.656216254
 20
4.1288467916
 30
0.0
 11
8.6960534671
 21
4.0598467887
 31
0.0
  0
LINE
  5
128
330
1F
100
AcDbEntity
  8
0
  6
Continuous
 62
     7
370
    18
100
AcDbLine
 10
8.6504427873
 20
4.0008467886
 30
0.0
 11
8.6845064605
 21
4.0598467887
 31
0.0
  0
LINE
  5
129
330
1F
100
AcDbEntity
  8
0
  6
Continuous
 62
     7
370
    18
100
AcDbLine
 10
8.6960534671
 20
4.0598467887
 30
0.0
 11
8.6845064605
 21
4.0598467887
 31
0.0
  0
LINE
  5
12A
330
1F
100
AcDbEntity
  8
0
  6
Continuous
 62
     7
370
    18
100
AcDbLine
 10
8.6504427873
 20
4.0008467886
 30
0.0
 11
8.656216254
 21
3.9908467858
 31
0.0
  0
LINE
  5
12B
330
1F
100
AcDbEntity
  8
0
  6
Continuous
 62
     7
370
    18
100
AcDbLine
 10
8.582315441
 20
4.0008467886
 30
0.0
 11
8.6504427873
 21
4.0008467886
 31
0.0
  0
LINE
  5
12C
330
1F
100
AcDbEntity
  8
0
  6
Continuous
 62
     7
370
    18
100
AcDbLine
 10
8.582315441
 20
4.0008467886
 30
0.0
 11
8.5765419744
 21
3.9908467858
 31
0.0
  0
LINE
  5
12D
330
1F
100
AcDbEntity
  8
0
  6
Continuous
 62
     7
370
    18
100
AcDbLine
 10
8.656216254
 20
4.1288467916
 30
0.0
 11
8.6504427873
 21
4.1188467888
 31
0.0
  0
LINE
  5
12E
330
1F
100
AcDbEntity
  8
0
  6
Continuous
 62
     7
370
    18
100
AcDbLine
 10
8.6504427873
 20
4.1188467888
 30
0.0
 11
8.582315441
 21
4.1188467888
 31
0.0
  0
LINE
  5
12F
330
1F
100
AcDbEntity
  8
0
  6
Continuous
 62
     7
370
    18
100
AcDbLine
 10
8.5765419744
 20
4.1288467916
 30
0.0
 11
8.582315441
 21
4.1188467888
 31
0.0
  0
LINE
  5
130
330
1F
100
AcDbEntity
  8
0
  6
Continuous
 62
     7
370
    18
100
AcDbLine
 10
8.6845064605
 20
4.0598467887
 30
0.0
 11
8.6504427873
 21
4.1188467888
 31
0.0
  0
LINE
  5
131
330
1F
100
AcDbEntity
  8
0
  6
Continuous
 62
     7
370
    18
100
AcDbLine
 10
8.5482517679
 20
4.0598467887
 30
0.0
 11
8.582315441
 21
4.0008467886
 31
0.0
  0
LINE
  5
132
330
1F
100
AcDbEntity
  8
0
  6
Continuous
 62
     7
370
    18
100
AcDbLine
 10
8.5482517679
 20
4.0598467887
 30
0.0
 11
8.5367047613
 21
4.0598467887
 31
0.0
  0
LINE
  5
133
330
1F
100
AcDbEntity
  8
0
  6
Continuous
 62
     7
370
    18
100
AcDbLine
 10
8.582315441
 20
4.1188467888
 30
0.0
 11
8.5482517679
 21
4.0598467887
 31
0.0
  0
LINE
  5
134
330
1F
100
AcDbEntity
  8
0
  6
Continuous
 62
     7
370
    18
100
AcDbLine
 10
10.2963791467
 20
3.8448467867
 30
0.0
 11
7.9363790696
 21
3.8448467867
 31
0.0
  0
LINE
  5
135
330
1F
100
AcDbEntity
  8
0
  6
Continuous
 62
     7
370
    18
100
AcDbLine
 10
10.2963791467
 20
3.7648467882
 30
0.0
 11
10.2963791467
 21
3.8448467867
 31
0.0
  0
LINE
  5
136
330
1F
100
AcDbEntity
  8
0
  6
Continuous
 62
     7
370
    18
100
AcDbLine
 10
10.2963791467
 20
3.7648467882
 30
0.0
 11
7.9363790696
 21
3.7648467882
 31
0.0
  0
LINE
  5
137
330
1F
100
AcDbEntity
  8
0
  6
Continuous
 62
     7
370
    18
100
AcDbLine
 10
7.9363790696
 20
3.7648467882
 30
0.0
 11
7.9363790696
 21
3.8448467867
 31
0.0
  0
LINE
  5
138
330
1F
100
AcDbEntity
  8
0
  6
Continuous
 62
     7
370
    18
100
AcDbLine
 10
10.2963791467
 20
4.3548467709
 30
0.0
 11
7.9363790696
 21
4.3548467709
 31
0.0
  0
LINE
  5
139
330
1F
100
AcDbEntity
  8
0
  6
Continuous
 62
     7
370
    18
100
AcDbLine
 10
10.2963791467
 20
4.274846785
 30
0.0
 11
10.2963791467
 21
4.3548467709
 31
0.0
  0
LINE
  5
13A
330
1F
100
AcDbEntity
  8
0
  6
Continuous
 62
     7
370
    18
100
AcDbLine
 10
10.2963791467
 20
4.274846785
 30
0.0
 11
7.9363790696
 21
4.274846785
 31
0.0
  0
LINE
  5
13B
330
1F
100
AcDbEntity
  8
0
  6
Continuous
 62
     7
370
    18
100
AcDbLine
 10
7.9363790696
 20
4.274846785
 30
0.0
 11
7.9363790696
 21
4.3548467709
 31
0.0
  0
LINE
  5
13C
330
1F
100
AcDbEntity
  8
0
  6
Continuous
 62
     7
370
    18
100
AcDbLine
 10
7.9363790696
 20
3.8448467867
 30
0.0
 11
7.9363790696
 21
4.274846785
 31
0.0
  0
CIRCLE
  5
13D
330
1F
100
AcDbEntity
  8
0
  6
Continuous
 62
     7
370
    18
100
AcDbCircle
 10
9.6163791166
 20
4.0598467857
 30
0.0
 40
0.1732283464566926
  0
CIRCLE
  5
13E
330
1F
100
AcDbEntity
  8
0
  6
Continuous
 62
     7
370
    18
100
AcDbCircle
 10
8.6163791166
 20
4.0598467857
 30
0.0
 40
0.1732283464566926
  0
LINE
  5
13F
330
1F
100
AcDbEntity
  8
0
  6
Continuous
 62
     7
370
    18
100
AcDbLine
 10
10.2963791467
 20
3.8448467867
 30
0.0
 11
10.2963791467
 21
4.274846785
 31
0.0
  0
CIRCLE
  5
140
330
1F
100
AcDbEntity
  8
0
  6
Continuous
 62
     7
370
    18
100
AcDbCircle
 10
9.6163791166
 20
4.0598467881
 30
0.0
 40
0.1710000000000012
  0
CIRCLE
  5
141
330
1F
100
AcDbEntity
  8
0
  6
Continuous
 62
     7
370
    18
100
AcDbCircle
 10
8.6163791166
 20
4.0598467881
 30
0.0
 40
0.1710000000000012
  0
LINE
  5
142
330
1F
100
AcDbEntity
  8
0
  6
Continuous
 62
     7
370
    18
100
AcDbLine
 10
10.2963791467
 20
3.7642193692
 30
0.0
 11
7.9363790696
 21
3.7642193692
 31
0.0
  0
LINE
  5
143
330
1F
100
AcDbEntity
  8
0
  6
Continuous
 62
     7
370
    18
100
AcDbLine
 10
7.9363790696
 20
3.7642193692
 30
0.0
 11
7.9363790696
 21
3.7648467882
 31
0.0
  0
LINE
  5
144
330
1F
100
AcDbEntity
  8
0
  6
Continuous
 62
     7
370
    18
100
AcDbLine
 10
10.2963791467
 20
3.7642193692
 30
0.0
 11
10.2963791467
 21
3.7648467882
 31
0.0
  0
LINE
  5
145
330
1F
100
AcDbEntity
  8
0
  6
Continuous
 62
     7
370
    18
100
AcDbLine
 10
10.2963791467
 20
4.3562193717
 30
0.0
 11
7.9363790696
 21
4.3562193717
 31
0.0
  0
LINE
  5
146
330
1F
100
AcDbEntity
  8
0
  6
Continuous
 62
     7
370
    18
100
AcDbLine
 10
7.9363790696
 20
4.3548467709
 30
0.0
 11
7.9363790696
 21
4.3562193717
 31
0.0
  0
LINE
  5
147
330
1F
100
AcDbEntity
  8
0
  6
Continuous
 62
     7
370
    18
100
AcDbLine
 10
10.2963791467
 20
4.3548467709
 30
0.0
 11
10.2963791467
 21
4.3562193717
 31
0.0
  0
DIMENSION
  5
148
330
1F
100
AcDbEntity
  8
0
  6
Continuous
 62
     7
370
    18
100
AcDbDimension
  2
_D_1
 10
10.2963791166
 20
2.8980776364
 30
0.0
 11
9.1163791166
 21
2.8980776364
 31
0.0
 70
   160
  1
<>
 71
     2
 42
-1.0
  3
SLDDIMSTYLE0
100
AcDbAlignedDimension
 13
7.9363791166
 23
3.7648467881
 33
0.0
 14
10.2963791166
 24
3.7648467881
 34
0.0
 50
0.0
100
AcDbRotatedDimension
  0
DIMENSION
  5
15C
330
1F
100
AcDbEntity
  8
0
  6
Continuous
 62
     7
370
    18
100
AcDbDimension
  2
_D_2
 10
9.6163791166
 20
3.4832550599
 30
0.0
 11
9.1163791166
 21
3.4832550599
 31
0.0
 70
   160
  1
<>
 71
     2
 42
-1.0
  3
SLDDIMSTYLE2
100
AcDbAlignedDimension
 13
8.6163791166
 23
3.9598467857
 33
0.0
 14
9.6163791166
 24
3.9598467857
 34
0.0
100
AcDbRotatedDimension
  0
DIMENSION
  5
171
330
1F
100
AcDbEntity
  8
0
  6
Continuous
 62
     7
370
    18
100
AcDbDimension
  2
_D_3
 10
9.7029932898
 20
3.909826637
 30
0.0
 11
8.1334598971
 21
4.9663178362
 31
0.0
 70
   163
  1
M2 x 0.4 SOCKET HEAD SCREW\P1.5mm HEX
 71
     1
 42
-1.0
  3
SLDDIMSTYLE3
100
AcDbDiametricDimension
 15
9.5297649433
 25
4.2098669344
 35
0.0
 40
0.0
  0
MTEXT
  5
17B
330
1F
100
AcDbEntity
  8
0
  6
Continuous
 62
     7
370
     0
100
AcDbMText
 10
7.5888317658
 20
4.6220637931
 30
0.0
 40
0.1041666667
 41
0.0
 71
     1
 72
     1
  1
A
  7
SLDTEXTSTYLE0
 73
     1
 44
1.0
  0
LEADER
  5
185
330
1F
100
AcDbEntity
  8
0
  6
Continuous
 62
     7
370
     0
100
AcDbLeader
  3
SLDDIMSTYLE4
 76
     3
 10
8.2345462605
 20
4.1085883015
 30
0.0
 10
7.9608737212
 20
4.5693290217
 30
0.0
 10
7.7108737212
 20
4.5693290217
 30
0.0
  0
INSERT
  5
18D
330
1F
100
AcDbEntity
  8
0
  6
Continuous
 62
     7
370
     0
100
AcDbBlockReference
  2
SW_CENTERMARKSYMBOL_0
 10
8.6163791166
 20
4.0598467857
 30
0.0
  0
INSERT
  5
195
330
1F
100
AcDbEntity
  8
0
  6
Continuous
 62
     7
370
     0
100
AcDbBlockReference
  2
SW_CENTERMARKSYMBOL_1
 10
9.6163791166
 20
4.0598467857
 30
0.0
  0
LINE
  5
196
330
1F
100
AcDbEntity
  8
0
  6
Continuous
 62
     7
370
    18
100
AcDbLine
 10
10.3066372683
 20
6.8365000366
 30
0.0
 11
10.2632713061
 21
6.8615346737
 31
0.0
  0
LINE
  5
197
330
1F
100
AcDbEntity
  8
0
  6
Continuous
 62
     7
370
    18
100
AcDbLine
 10
10.1162832524
 20
6.6069163081
 30
0.0
 11
10.1596492146
 21
6.5818816711
 31
0.0
  0
LINE
  5
198
330
1F
100
AcDbEntity
  8
0
  6
Continuous
 62
     7
370
    18
100
AcDbLine
 10
9.5995304871
 20
6.4282959807
 30
0.0
 11
9.5561645249
 21
6.4533306178
 31
0.0
  0
LINE
  5
199
330
1F
100
AcDbEntity
  8
0
  6
Continuous
 62
     7
370
    18
100
AcDbLine
 10
9.4091764713
 20
6.1987122522
 30
0.0
 11
9.4525424334
 21
6.1736776151
 31
0.0
  0
LINE
  5
19A
330
1F
100
AcDbEntity
  8
0
  6
Continuous
 62
     7
370
    18
100
AcDbLine
 10
10.4408370195
 20
7.3786389582
 30
0.0
 11
8.7720650159
 21
6.4152773862
 31
0.0
  0
LINE
  5
19B
330
1F
100
AcDbEntity
  8
0
  6
Continuous
 62
     7
370
    18
100
AcDbLine
 10
10.3330397128
 20
7.3329877852
 30
0.0
 11
8.6642677092
 21
6.3696262133
 31
0.0
  0
LINE
  5
19C
330
1F
100
AcDbEntity
  8
0
  6
Continuous
 62
     7
370
    18
100
AcDbLine
 10
7.8515372614
 20
6.586797131
 30
0.0
 11
7.8765125331
 21
6.6012150484
 31
0.0
  0
LINE
  5
19D
330
1F
100
AcDbEntity
  8
0
  6
Continuous
 62
     7
370
    18
100
AcDbLine
 10
7.7313291086
 20
6.5443257293
 30
0.0
 11
7.8249048867
 21
6.5983458761
 31
0.0
  0
LWPOLYLINE
  5
19E
330
1F
100
AcDbEntity
  8
0
  6
Continuous
 62
     7
370
    18
100
AcDbPolyline
 90
       58
 70
   128
 43
0.0
 10
10.181170893
 20
6.575237528
 10
10.1913891323
 20
6.5751650742
 10
10.2021142099
 20
6.5767195118
 10
10.213215938
 20
6.5798819721
 10
10.2245595564
 20
6.584614067
 10
10.2360073692
 20
6.5908583554
 10
10.2474204154
 20
6.5985390399
 10
10.258660156
 20
6.6075628877
 10
10.2695901558
 20
6.6178203612
 10
10.2800777395
 20
6.6291869488
 10
10.2899956019
 20
6.6415246753
 10
10.2992233537
 20
6.6546837777
 10
10.3076489825
 20
6.6685045221
 10
10.3151702125
 20
6.6828191434
 10
10.3216957461
 20
6.6974538816
 10
10.3271463724
 20
6.7122310908
 10
10.3314559279
 20
6.7269713955
 10
10.3345721006
 20
6.7414958686
 10
10.3364570644
 20
6.7556282026
 10
10.3370879383
 20
6.76919685
 10
10.3364570644
 20
6.782037106
 10
10.3345721006
 20
6.7939931071
 10
10.3314559279
 20
6.8049197238
 10
10.3271463724
 20
6.8146843216
 10
10.3216957461
 20
6.8231683717
 10
10.3151702125
 20
6.8302688891
 10
10.3076489825
 20
6.8358996831
 10
10.2992233537
 20
6.8399924036
 10
10.2899956019
 20
6.8424973705
 10
10.2800777395
 20
6.8433841769
 10
10.2695901558
 20
6.8426420581
 10
10.258660156
 20
6.8402800224
 10
10.2474204154
 20
6.8363267419
 10
10.2360073692
 20
6.8308302038
 10
10.2245595564
 20
6.8238571289
 10
10.213215938
 20
6.8154921606
 10
10.2021142099
 20
6.8058368386
 10
10.1913891323
 20
6.7950083652
 10
10.181170893
 20
6.7831381834
 10
10.1715835277
 20
6.7703703813
 10
10.1627434138
 20
6.7568599425
 10
10.1547578585
 20
6.7427708656
 10
10.1477237956
 20
6.7282741728
 10
10.141726609
 20
6.7135458344
 10
10.1368390965
 20
6.6987646325
 10
10.1331205859
 20
6.6841099907
 10
10.1306162148
 20
6.6697597966
 10
10.1293563829
 20
6.6558882422
 10
10.1293563829
 20
6.6426637093
 10
10.1306162148
 20
6.6302467257
 10
10.1331205859
 20
6.618788017
 10
10.1368390965
 20
6.6084266762
 10
10.141726609
 20
6.599288476
 10
10.1477237956
 20
6.5914843419
 10
10.1547578585
 20
6.5851090053
 10
10.1627434138
 20
6.5802398543
 10
10.1715835277
 20
6.5769359937
 10
10.181170893
 20
6.575237528
  0
LINE
  5
19F
330
1F
100
AcDbEntity
  8
0
  6
Continuous
 62
     7
370
    18
100
AcDbLine
 10
10.2613123735
 20
6.7817938636
 30
0.0
 11
10.2894815055
 21
6.7417142414
 31
0.0
  0
LINE
  5
1A0
330
1F
100
AcDbEntity
  8
0
  6
Continuous
 62
     7
370
    18
100
AcDbLine
 10
10.2049741094
 20
6.7492704761
 30
0.0
 11
10.2613123735
 21
6.7817938636
 31
0.0
  0
LINE
  5
1A1
330
1F
100
AcDbEntity
  8
0
  6
Continuous
 62
     7
370
    18
100
AcDbLine
 10
10.1768049774
 20
6.6766674663
 30
0.0
 11
10.2049741094
 21
6.7492704761
 31
0.0
  0
LINE
  5
1A2
330
1F
100
AcDbEntity
  8
0
  6
Continuous
 62
     7
370
    18
100
AcDbLine
 10
10.2049741094
 20
6.636587844
 30
0.0
 11
10.1768049774
 21
6.6766674663
 31
0.0
  0
LINE
  5
1A3
330
1F
100
AcDbEntity
  8
0
  6
Continuous
 62
     7
370
    18
100
AcDbLine
 10
10.2613123735
 20
6.6691112316
 30
0.0
 11
10.2049741094
 21
6.636587844
 31
0.0
  0
LINE
  5
1A4
330
1F
100
AcDbEntity
  8
0
  6
Continuous
 62
     7
370
    18
100
AcDbLine
 10
10.2894815055
 20
6.7417142414
 30
0.0
 11
10.2613123735
 21
6.6691112316
 31
0.0
  0
LINE
  5
1A5
330
1F
100
AcDbEntity
  8
0
  6
Continuous
 62
     7
370
    18
100
AcDbLine
 10
10.2501588228
 20
6.7753537289
 30
0.0
 11
10.204973446
 21
6.7492687661
 31
0.0
  0
LINE
  5
1A6
330
1F
100
AcDbEntity
  8
0
  6
Continuous
 62
     7
370
    18
100
AcDbLine
 10
10.2613123735
 20
6.7817938636
 30
0.0
 11
10.2501588228
 21
6.7753537289
 31
0.0
  0
LINE
  5
1A7
330
1F
100
AcDbEntity
  8
0
  6
Continuous
 62
     7
370
    18
100
AcDbLine
 10
10.1793928361
 20
6.6833374031
 30
0.0
 11
10.2019855245
 21
6.6511920599
 31
0.0
  0
LINE
  5
1A8
330
1F
100
AcDbEntity
  8
0
  6
Continuous
 62
     7
370
    18
100
AcDbLine
 10
10.2019855245
 20
6.6511920599
 30
0.0
 11
10.2049741094
 21
6.636587844
 31
0.0
  0
LINE
  5
1A9
330
1F
100
AcDbEntity
  8
0
  6
Continuous
 62
     7
370
    18
100
AcDbLine
 10
10.2894815055
 20
6.7417142414
 30
0.0
 11
10.2742454719
 21
6.7410827475
 31
0.0
  0
LINE
  5
1AA
330
1F
100
AcDbEntity
  8
0
  6
Continuous
 62
     7
370
    18
100
AcDbLine
 10
10.2742454719
 20
6.7410827475
 30
0.0
 11
10.2501588228
 21
6.7753537289
 31
0.0
  0
LINE
  5
1AB
330
1F
100
AcDbEntity
  8
0
  6
Continuous
 62
     7
370
    18
100
AcDbLine
 10
10.1853728838
 20
6.6987503544
 30
0.0
 11
10.2006613481
 21
6.707576197
 31
0.0
  0
LINE
  5
1AC
330
1F
100
AcDbEntity
  8
0
  6
Continuous
 62
     7
370
    18
100
AcDbLine
 10
10.2006613481
 20
6.707576197
 30
0.0
 11
10.2202619103
 21
6.7580946087
 31
0.0
  0
LINE
  5
1AD
330
1F
100
AcDbEntity
  8
0
  6
Continuous
 62
     7
370
    18
100
AcDbLine
 10
10.2325193907
 20
6.7651707015
 30
0.0
 11
10.2742454719
 21
6.7410827475
 31
0.0
  0
LINE
  5
1AE
330
1F
100
AcDbEntity
  8
0
  6
Continuous
 62
     7
370
    18
100
AcDbLine
 10
10.2019855245
 20
6.6511920599
 30
0.0
 11
10.2501588228
 21
6.6790019131
 31
0.0
  0
LINE
  5
1AF
330
1F
100
AcDbEntity
  8
0
  6
Continuous
 62
     7
370
    18
100
AcDbLine
 10
10.2613123735
 20
6.6691112316
 30
0.0
 11
10.2501588228
 21
6.6790019131
 31
0.0
  0
LINE
  5
1B0
330
1F
100
AcDbEntity
  8
0
  6
Continuous
 62
     7
370
    18
100
AcDbLine
 10
10.2006613481
 20
6.707576197
 30
0.0
 11
10.2501588228
 21
6.6790019131
 31
0.0
  0
LINE
  5
1B1
330
1F
100
AcDbEntity
  8
0
  6
Continuous
 62
     7
370
    18
100
AcDbLine
 10
10.2501588228
 20
6.6790019131
 30
0.0
 11
10.2742454719
 21
6.7410827475
 31
0.0
  0
LWPOLYLINE
  5
1B2
330
1F
100
AcDbEntity
  8
0
  6
Continuous
 62
     7
370
    18
100
AcDbPolyline
 90
       58
 70
   128
 43
0.0
 10
9.5780088087
 20
6.2270394683
 10
9.5875961741
 20
6.2398072705
 10
9.5964362879
 20
6.2533177092
 10
9.6044218432
 20
6.2674067861
 10
9.6114559061
 20
6.2819034789
 10
9.6174530927
 20
6.2966318173
 10
9.6223406052
 20
6.3114130193
 10
9.6260591158
 20
6.326067661
 10
9.6285634869
 20
6.3404178551
 10
9.6298233188
 20
6.3542894095
 10
9.6298233188
 20
6.3675139425
 10
9.6285634869
 20
6.379930926
 10
9.6260591158
 20
6.3913896348
 10
9.6223406052
 20
6.4017509755
 10
9.6174530927
 20
6.4108891757
 10
9.6114559061
 20
6.4186933099
 10
9.6044218432
 20
6.4250686464
 10
9.5964362879
 20
6.4299377974
 10
9.5875961741
 20
6.433241658
 10
9.5780088087
 20
6.4349401237
 10
9.5677905694
 20
6.4350125775
 10
9.5570654918
 20
6.4334581399
 10
9.5459637638
 20
6.4302956796
 10
9.5346201453
 20
6.4255635847
 10
9.5231723325
 20
6.4193192964
 10
9.5117592864
 20
6.4116386118
 10
9.5005195457
 20
6.4026147641
 10
9.4895895459
 20
6.3923572905
 10
9.4791019622
 20
6.380990703
 10
9.4691840998
 20
6.3686529764
 10
9.459956348
 20
6.3554938741
 10
9.4515307193
 20
6.3416731297
 10
9.4440094893
 20
6.3273585083
 10
9.4374839556
 20
6.3127237701
 10
9.4320333294
 20
6.297946561
 10
9.4277237738
 20
6.2832062562
 10
9.4246076011
 20
6.2686817831
 10
9.4227226374
 20
6.2545494492
 10
9.4220917634
 20
6.2409808017
 10
9.4227226374
 20
6.2281405457
 10
9.4246076011
 20
6.2161845446
 10
9.4277237738
 20
6.205257928
 10
9.4320333294
 20
6.1954933301
 10
9.4374839556
 20
6.1870092801
 10
9.4440094893
 20
6.1799087627
 10
9.4515307193
 20
6.1742779686
 10
9.459956348
 20
6.1701852481
 10
9.4691840998
 20
6.1676802812
 10
9.4791019622
 20
6.1667934749
 10
9.4895895459
 20
6.1675355937
 10
9.5005195457
 20
6.1698976293
 10
9.5117592864
 20
6.1738509099
 10
9.5231723325
 20
6.1793474479
 10
9.5346201453
 20
6.1863205229
 10
9.5459637638
 20
6.1946854911
 10
9.5570654918
 20
6.2043408132
 10
9.5677905694
 20
6.2151692866
 10
9.5780088087
 20
6.2270394683
  0
LINE
  5
1B3
330
1F
100
AcDbEntity
  8
0
  6
Continuous
 62
     7
370
    18
100
AcDbLine
 10
9.4978673282
 20
6.3410664202
 30
0.0
 11
9.5542055923
 21
6.3735898077
 31
0.0
  0
LINE
  5
1B4
330
1F
100
AcDbEntity
  8
0
  6
Continuous
 62
     7
370
    18
100
AcDbLine
 10
9.4696981962
 20
6.2684634103
 30
0.0
 11
9.4978673282
 21
6.3410664202
 31
0.0
  0
LINE
  5
1B5
330
1F
100
AcDbEntity
  8
0
  6
Continuous
 62
     7
370
    18
100
AcDbLine
 10
9.4978673282
 20
6.2283837881
 30
0.0
 11
9.4696981962
 21
6.2684634103
 31
0.0
  0
LINE
  5
1B6
330
1F
100
AcDbEntity
  8
0
  6
Continuous
 62
     7
370
    18
100
AcDbLine
 10
9.5542055923
 20
6.2609071757
 30
0.0
 11
9.4978673282
 21
6.2283837881
 31
0.0
  0
LINE
  5
1B7
330
1F
100
AcDbEntity
  8
0
  6
Continuous
 62
     7
370
    18
100
AcDbLine
 10
9.5823747244
 20
6.3335101855
 30
0.0
 11
9.5542055923
 21
6.2609071757
 31
0.0
  0
LINE
  5
1B8
330
1F
100
AcDbEntity
  8
0
  6
Continuous
 62
     7
370
    18
100
AcDbLine
 10
9.5542055923
 20
6.3735898077
 30
0.0
 11
9.5823747244
 21
6.3335101855
 31
0.0
  0
LINE
  5
1B9
330
1F
100
AcDbEntity
  8
0
  6
Continuous
 62
     7
370
    18
100
AcDbLine
 10
9.5542055923
 20
6.3735898077
 30
0.0
 11
9.5430520416
 21
6.367149673
 31
0.0
  0
LINE
  5
1BA
330
1F
100
AcDbEntity
  8
0
  6
Continuous
 62
     7
370
    18
100
AcDbLine
 10
9.5430520416
 20
6.367149673
 30
0.0
 11
9.4978666648
 21
6.3410647101
 31
0.0
  0
LINE
  5
1BB
330
1F
100
AcDbEntity
  8
0
  6
Continuous
 62
     7
370
    18
100
AcDbLine
 10
9.4722860549
 20
6.2751333472
 30
0.0
 11
9.4948787433
 21
6.242988004
 31
0.0
  0
LINE
  5
1BC
330
1F
100
AcDbEntity
  8
0
  6
Continuous
 62
     7
370
    18
100
AcDbLine
 10
9.4948787433
 20
6.242988004
 30
0.0
 11
9.4978673282
 21
6.2283837881
 31
0.0
  0
LINE
  5
1BD
330
1F
100
AcDbEntity
  8
0
  6
Continuous
 62
     7
370
    18
100
AcDbLine
 10
9.4935545669
 20
6.2993721411
 30
0.0
 11
9.5131551291
 21
6.3498905527
 31
0.0
  0
LINE
  5
1BE
330
1F
100
AcDbEntity
  8
0
  6
Continuous
 62
     7
370
    18
100
AcDbLine
 10
9.4782661026
 20
6.2905462985
 30
0.0
 11
9.4935545669
 21
6.2993721411
 31
0.0
  0
LINE
  5
1BF
330
1F
100
AcDbEntity
  8
0
  6
Continuous
 62
     7
370
    18
100
AcDbLine
 10
9.5823747244
 20
6.3335101855
 30
0.0
 11
9.5671386907
 21
6.3328786916
 31
0.0
  0
LINE
  5
1C0
330
1F
100
AcDbEntity
  8
0
  6
Continuous
 62
     7
370
    18
100
AcDbLine
 10
9.5671386907
 20
6.3328786916
 30
0.0
 11
9.5430520416
 21
6.367149673
 31
0.0
  0
LINE
  5
1C1
330
1F
100
AcDbEntity
  8
0
  6
Continuous
 62
     7
370
    18
100
AcDbLine
 10
9.5254126095
 20
6.3569666456
 30
0.0
 11
9.5671386907
 21
6.3328786916
 31
0.0
  0
LINE
  5
1C2
330
1F
100
AcDbEntity
  8
0
  6
Continuous
 62
     7
370
    18
100
AcDbLine
 10
9.4948787433
 20
6.242988004
 30
0.0
 11
9.5430520416
 21
6.2707978571
 31
0.0
  0
LINE
  5
1C3
330
1F
100
AcDbEntity
  8
0
  6
Continuous
 62
     7
370
    18
100
AcDbLine
 10
9.5430520416
 20
6.2707978571
 30
0.0
 11
9.5542055923
 21
6.2609071757
 31
0.0
  0
LINE
  5
1C4
330
1F
100
AcDbEntity
  8
0
  6
Continuous
 62
     7
370
    18
100
AcDbLine
 10
9.4935545669
 20
6.2993721411
 30
0.0
 11
9.5430520416
 21
6.2707978571
 31
0.0
  0
LINE
  5
1C5
330
1F
100
AcDbEntity
  8
0
  6
Continuous
 62
     7
370
    18
100
AcDbLine
 10
9.5430520416
 20
6.2707978571
 30
0.0
 11
9.5671386907
 21
6.3328786916
 31
0.0
  0
LINE
  5
1C6
330
1F
100
AcDbEntity
  8
0
  6
Continuous
 62
     7
370
    18
100
AcDbLine
 10
8.991096262
 20
5.8137641474
 30
0.0
 11
9.0476648034
 21
5.8464310872
 31
0.0
  0
LINE
  5
1C7
330
1F
100
AcDbEntity
  8
0
  6
Continuous
 62
     7
370
    18
100
AcDbLine
 10
8.7860528791
 20
5.9321331729
 30
0.0
 11
8.991096262
 21
5.8137641474
 31
0.0
  0
LWPOLYLINE
  5
1C8
330
1F
100
AcDbEntity
  8
0
  6
Continuous
 62
     7
370
    18
100
AcDbPolyline
 90
       10
 70
   128
 43
0.0
 10
8.7720635759
 20
5.9792078351
 10
8.7689197325
 20
5.9762913148
 10
8.7669434634
 20
5.9719223778
 10
8.7662694456
 20
5.9663987545
 10
8.7669436114
 20
5.9600968639
 10
8.7689200184
 20
5.9534461616
 10
8.7720639802
 20
5.9468998735
 10
8.7761612449
 20
5.9409041103
 10
8.7809325957
 20
5.9358674659
 10
8.7860528791
 20
5.9321331729
  0
LINE
  5
1C9
330
1F
100
AcDbEntity
  8
0
  6
Continuous
 62
     7
370
    18
100
AcDbLine
 10
8.8355327699
 20
6.0158589154
 30
0.0
 11
8.7720635759
 21
5.9792078351
 31
0.0
  0
LINE
  5
1CA
330
1F
100
AcDbEntity
  8
0
  6
Continuous
 62
     7
370
    18
100
AcDbLine
 10
8.8355327699
 20
6.273037425
 30
0.0
 11
8.8355327699
 21
6.0158589154
 31
0.0
  0
LINE
  5
1CB
330
1F
100
AcDbEntity
  8
0
  6
Continuous
 62
     7
370
    18
100
AcDbLine
 10
8.7720639294
 20
6.382968681
 30
0.0
 11
8.8355327699
 21
6.273037425
 31
0.0
  0
LWPOLYLINE
  5
1CC
330
1F
100
AcDbEntity
  8
0
  6
Continuous
 62
     7
370
    18
100
AcDbPolyline
 90
       10
 70
   128
 43
0.0
 10
8.7860528791
 20
6.41389225
 10
8.7809325421
 20
6.4160697246
 10
8.7761611486
 20
6.4165419417
 10
8.7720638623
 20
6.4152767201
 10
8.7689199073
 20
6.412360283
 10
8.7669435395
 20
6.4079913814
 10
8.7662694456
 20
6.4024677495
 10
8.7669435641
 20
6.3961658149
 10
8.7689199547
 20
6.3895150452
 10
8.7720639294
 20
6.382968681
  0
LINE
  5
1CD
330
1F
100
AcDbEntity
  8
0
  6
Continuous
 62
     7
370
    18
100
AcDbLine
 10
8.991096262
 20
6.2955232245
 30
0.0
 11
8.7860528791
 21
6.41389225
 31
0.0
  0
LINE
  5
1CE
330
1F
100
AcDbEntity
  8
0
  6
Continuous
 62
     7
370
    18
100
AcDbLine
 10
9.0476648034
 20
6.1975436371
 30
0.0
 11
8.991096262
 21
6.2955232245
 31
0.0
  0
LINE
  5
1CF
330
1F
100
AcDbEntity
  8
0
  6
Continuous
 62
     7
370
    18
100
AcDbLine
 10
9.0476648034
 20
5.8464310872
 30
0.0
 11
9.0476648034
 21
6.1975436371
 31
0.0
  0
LINE
  5
1D0
330
1F
100
AcDbEntity
  8
0
  6
Continuous
 62
     7
370
    18
100
AcDbLine
 10
10.6598682656
 20
7.2588847965
 30
0.0
 11
8.991096262
 21
6.2955232245
 31
0.0
  0
LINE
  5
1D1
330
1F
100
AcDbEntity
  8
0
  6
Continuous
 62
     7
370
    18
100
AcDbLine
 10
10.716436807
 20
7.1609052091
 30
0.0
 11
10.6598682656
 21
7.2588847965
 31
0.0
  0
LINE
  5
1D2
330
1F
100
AcDbEntity
  8
0
  6
Continuous
 62
     7
370
    18
100
AcDbLine
 10
10.716436807
 20
7.1609052091
 30
0.0
 11
9.0476648034
 21
6.1975436371
 31
0.0
  0
LINE
  5
1D3
330
1F
100
AcDbEntity
  8
0
  6
Continuous
 62
     7
370
    18
100
AcDbLine
 10
10.716436807
 20
6.8097926592
 30
0.0
 11
10.716436807
 21
7.1609052091
 31
0.0
  0
LINE
  5
1D4
330
1F
100
AcDbEntity
  8
0
  6
Continuous
 62
     7
370
    18
100
AcDbLine
 10
10.716436807
 20
6.8097926592
 30
0.0
 11
9.0476648034
 21
5.8464310872
 31
0.0
  0
LWPOLYLINE
  5
1D5
330
1F
100
AcDbEntity
  8
0
  6
Continuous
 62
     7
370
    18
100
AcDbPolyline
 90
       63
 70
   128
 43
0.0
 10
10.3580951342
 20
6.7784826888
 10
10.3574666729
 20
6.792429944
 10
10.3555877375
 20
6.8055084755
 10
10.3524776087
 20
6.8175840797
 10
10.3481682005
 20
6.8285328447
 10
10.3427037333
 20
6.8382424213
 10
10.33614028
 20
6.846613176
 10
10.3285451903
 20
6.8535592137
 10
10.3199964003
 20
6.8590092586
 10
10.310581632
 20
6.8629073858
 10
10.3003974938
 20
6.8652135953
 10
10.2895484887
 20
6.8659042223
 10
10.2781459421
 20
6.8649721799
 10
10.2663068597
 20
6.8624270322
 10
10.2541527264
 20
6.858294896
 10
10.24180826
 20
6.8526181723
 10
10.2294001316
 20
6.8454551123
 10
10.2170556652
 20
6.8368792184
 10
10.2049015319
 20
6.826978491
 10
10.1930624494
 20
6.8158545251
 10
10.1816599029
 20
6.8036214674
 10
10.1708108977
 20
6.7904048457
 10
10.1606267595
 20
6.7763402805
 10
10.1512119913
 20
6.7615720933
 10
10.1426632013
 20
6.7462518255
 10
10.1350681116
 20
6.730536684
 10
10.1285046582
 20
6.7145879273
 10
10.123040191
 20
6.6985692111
 10
10.1187307828
 20
6.6826449094
 10
10.115620654
 20
6.6669784269
 10
10.1137417187
 20
6.6517305229
 10
10.1131132573
 20
6.6370576615
 10
10.1137417187
 20
6.6231104063
 10
10.115620654
 20
6.6100318748
 10
10.1187307828
 20
6.5979562706
 10
10.123040191
 20
6.5870075056
 10
10.1285046582
 20
6.577297929
 10
10.1350681116
 20
6.5689271743
 10
10.1426632013
 20
6.5619811366
 10
10.1512119913
 20
6.5565310917
 10
10.1606267595
 20
6.5526329645
 10
10.1708108977
 20
6.550326755
 10
10.1816599029
 20
6.549636128
 10
10.1930624494
 20
6.5505681704
 10
10.2049015319
 20
6.553113318
 10
10.2170556652
 20
6.5572454543
 10
10.2294001316
 20
6.562922178
 10
10.24180826
 20
6.570085238
 10
10.2541527264
 20
6.5786611319
 10
10.2663068597
 20
6.5885618592
 10
10.2781459421
 20
6.5996858252
 10
10.2895484887
 20
6.6119188829
 10
10.3003974938
 20
6.6251355046
 10
10.310581632
 20
6.6392000697
 10
10.3199964003
 20
6.653968257
 10
10.3285451903
 20
6.6692885248
 10
10.33614028
 20
6.6850036663
 10
10.3427037333
 20
6.700952423
 10
10.3481682005
 20
6.7169711391
 10
10.3524776087
 20
6.7328954409
 10
10.3555877375
 20
6.7485619234
 10
10.3574666729
 20
6.7638098274
 10
10.3580951342
 20
6.7784826888
  0
LWPOLYLINE
  5
1D6
330
1F
100
AcDbEntity
  8
0
  6
Continuous
 62
     7
370
    18
100
AcDbPolyline
 90
       63
 70
   128
 43
0.0
 10
9.6509883531
 20
6.3702786329
 10
9.6503598917
 20
6.3842258881
 10
9.6484809564
 20
6.3973044196
 10
9.6453708275
 20
6.4093800238
 10
9.6410614194
 20
6.4203287888
 10
9.6355969522
 20
6.4300383653
 10
9.6290334988
 20
6.4384091201
 10
9.6214384091
 20
6.4453551578
 10
9.6128896191
 20
6.4508052027
 10
9.6034748508
 20
6.4547033299
 10
9.5932907126
 20
6.4570095394
 10
9.5824417075
 20
6.4577001663
 10
9.5710391609
 20
6.456768124
 10
9.5592000785
 20
6.4542229763
 10
9.5470459452
 20
6.45009084
 10
9.5347014788
 20
6.4444141164
 10
9.5222933504
 20
6.4372510563
 10
9.509948884
 20
6.4286751625
 10
9.4977947507
 20
6.4187744351
 10
9.4859556682
 20
6.4076504691
 10
9.4745531217
 20
6.3954174115
 10
9.4637041165
 20
6.3822007898
 10
9.4535199783
 20
6.3681362246
 10
9.4441052101
 20
6.3533680374
 10
9.4355564201
 20
6.3380477696
 10
9.4279613304
 20
6.3223326281
 10
9.421397877
 20
6.3063838713
 10
9.4159334098
 20
6.2903651552
 10
9.4116240016
 20
6.2744408535
 10
9.4085138728
 20
6.2587743709
 10
9.4066349375
 20
6.2435264669
 10
9.4060064761
 20
6.2288536056
 10
9.4066349375
 20
6.2149063504
 10
9.4085138728
 20
6.2018278189
 10
9.4116240016
 20
6.1897522147
 10
9.4159334098
 20
6.1788034497
 10
9.421397877
 20
6.1690938731
 10
9.4279613304
 20
6.1607231184
 10
9.4355564201
 20
6.1537770807
 10
9.4441052101
 20
6.1483270358
 10
9.4535199783
 20
6.1444289086
 10
9.4637041165
 20
6.1421226991
 10
9.4745531217
 20
6.1414320721
 10
9.4859556682
 20
6.1423641145
 10
9.4977947507
 20
6.1449092621
 10
9.509948884
 20
6.1490413984
 10
9.5222933504
 20
6.154718122
 10
9.5347014788
 20
6.1618811821
 10
9.5470459452
 20
6.170457076
 10
9.5592000785
 20
6.1803578033
 10
9.5710391609
 20
6.1914817693
 10
9.5824417075
 20
6.203714827
 10
9.5932907126
 20
6.2169314486
 10
9.6034748508
 20
6.2309960138
 10
9.6128896191
 20
6.2457642011
 10
9.6214384091
 20
6.2610844688
 10
9.6290334988
 20
6.2767996104
 10
9.6355969522
 20
6.2927483671
 10
9.6410614194
 20
6.3087670832
 10
9.6453708275
 20
6.324691385
 10
9.6484809564
 20
6.3403578675
 10
9.6503598917
 20
6.3556057715
 10
9.6509883531
 20
6.3702786329
  0
LINE
  5
1D7
330
1F
100
AcDbEntity
  8
0
  6
Continuous
 62
     7
370
    18
100
AcDbLine
 10
10.4548248827
 20
7.3772538219
 30
0.0
 11
8.7860528791
 21
6.41389225
 31
0.0
  0
LINE
  5
1D8
330
1F
100
AcDbEntity
  8
0
  6
Continuous
 62
     7
370
    18
100
AcDbLine
 10
10.6598682656
 20
7.2588847965
 30
0.0
 11
10.4548248827
 21
7.3772538219
 31
0.0
  0
ARC
  5
1D9
330
1F
100
AcDbEntity
  8
0
  6
Continuous
 62
     7
370
    18
100
AcDbCircle
 10
10.4466327097
 20
7.3658458927
 30
0.0
 40
0.0140446626153692
100
AcDbArc
 50
54.3174117299
 51
114.3721296577
  0
LINE
  5
1DA
330
1F
100
AcDbEntity
  8
0
  6
Continuous
 62
     7
370
    18
100
AcDbLine
 10
10.6598682656
 20
6.7771257194
 30
0.0
 11
10.716436807
 21
6.8097926592
 31
0.0
  0
LINE
  5
1DB
330
1F
100
AcDbEntity
  8
0
  6
Continuous
 62
     7
370
    18
100
AcDbLine
 10
10.6598682656
 20
6.7771257194
 30
0.0
 11
8.991096262
 21
5.8137641474
 31
0.0
  0
LINE
  5
1DC
330
1F
100
AcDbEntity
  8
0
  6
Continuous
 62
     7
370
    18
100
AcDbLine
 10
8.7703330763
 20
6.0563883478
 30
0.0
 11
8.7919899305
 21
6.0688946479
 31
0.0
  0
ARC
  5
1DD
330
1F
100
AcDbEntity
  8
0
  6
Continuous
 62
     7
370
    18
100
AcDbCircle
 10
8.7670196938
 20
6.0637219147
 30
0.0
 40
0.008047341564457
100
AcDbArc
 50
234.38182734
 51
294.3139521618
  0
LINE
  5
1DE
330
1F
100
AcDbEntity
  8
0
  6
Continuous
 62
     7
370
    18
100
AcDbLine
 10
8.6722670591
 20
6.1091741063
 30
0.0
 11
8.7623330763
 21
6.0571801013
 31
0.0
  0
ARC
  5
1DF
330
1F
100
AcDbEntity
  8
0
  6
Continuous
 62
     7
370
    18
100
AcDbCircle
 10
8.6855168082
 20
6.1298877978
 30
0.0
 40
0.024588876921148
100
AcDbArc
 50
182.6054784856
 51
237.39452166
  0
LINE
  5
1E0
330
1F
100
AcDbEntity
  8
0
  6
Continuous
 62
     7
370
    18
100
AcDbLine
 10
8.6609533506
 20
6.1483670036
 30
0.0
 11
8.6609533506
 21
6.1287700242
 31
0.0
  0
LINE
  5
1E1
330
1F
100
AcDbEntity
  8
0
  6
Continuous
 62
     7
370
    18
100
AcDbLine
 10
7.8548516201
 20
6.6137196274
 30
0.0
 11
8.6609533506
 21
6.1483670036
 31
0.0
  0
LINE
  5
1E2
330
1F
100
AcDbEntity
  8
0
  6
Continuous
 62
     7
370
    18
100
AcDbLine
 10
7.8548516201
 20
6.5941226479
 30
0.0
 11
7.8548516201
 21
6.6137196274
 31
0.0
  0
ARC
  5
1E3
330
1F
100
AcDbEntity
  8
0
  6
Continuous
 62
     7
370
    18
100
AcDbCircle
 10
7.8479544302
 20
6.5930038127
 30
0.0
 40
0.0069873471588565
100
AcDbArc
 50
230.7967147643
 51
9.2140369904
  0
LINE
  5
1E4
330
1F
100
AcDbEntity
  8
0
  6
Continuous
 62
     7
370
    18
100
AcDbLine
 10
7.6831251773
 20
6.6801935601
 30
0.0
 11
7.8435379116
 21
6.5875892598
 31
0.0
  0
LWPOLYLINE
  5
1E5
330
1F
100
AcDbEntity
  8
0
  6
Continuous
 62
     7
370
    18
100
AcDbPolyline
 90
        9
 70
   128
 43
0.0
 10
7.6781251773
 20
6.6691407751
 10
7.6768890522
 20
6.6717790437
 10
7.6761899781
 20
6.6744387652
 10
7.6760881586
 20
6.6768908864
 10
7.6765923625
 20
6.6789242322
 10
7.677659168
 20
6.6803636921
 10
7.6791967025
 20
6.681085301
 10
7.6810725547
 20
6.6810269142
 10
7.6831251773
 20
6.6801935601
  0
LINE
  5
1E6
330
1F
100
AcDbEntity
  8
0
  6
Continuous
 62
     7
370
    18
100
AcDbLine
 10
7.7313297588
 20
6.5769877371
 30
0.0
 11
7.6781251773
 21
6.6691407751
 31
0.0
  0
ARC
  5
1E7
330
1F
100
AcDbEntity
  8
0
  6
Continuous
 62
     7
370
    18
100
AcDbCircle
 10
7.7115720249
 20
6.5650485344
 30
0.0
 40
0.0230849000639772
100
AcDbArc
 50
1.956498643
 51
31.1437277994
  0
LINE
  5
1E8
330
1F
100
AcDbEntity
  8
0
  6
Continuous
 62
     7
370
    18
100
AcDbLine
 10
7.7346434673
 20
6.5516512462
 30
0.0
 11
7.7346434673
 21
6.5658366692
 31
0.0
  0
ARC
  5
1E9
330
1F
100
AcDbEntity
  8
0
  6
Continuous
 62
     7
370
    18
100
AcDbCircle
 10
7.7277462774
 20
6.550532411
 30
0.0
 40
0.0069873471588568
100
AcDbArc
 50
230.7967147643
 51
9.2140369904
  0
LINE
  5
1EA
330
1F
100
AcDbEntity
  8
0
  6
Continuous
 62
     7
370
    18
100
AcDbLine
 10
7.5130555888
 20
6.6665065526
 30
0.0
 11
7.7233297588
 21
6.5451178581
 31
0.0
  0
ARC
  5
1EB
330
1F
100
AcDbEntity
  8
0
  6
Continuous
 62
     7
370
    18
100
AcDbCircle
 10
7.5252716919
 20
6.6860908639
 30
0.0
 40
0.0230819934967609
100
AcDbArc
 50
208.8556088792
 51
238.0453283505
  0
LINE
  5
1EC
330
1F
100
AcDbEntity
  8
0
  6
Continuous
 62
     7
370
    18
100
AcDbLine
 10
7.4551144633
 20
6.761451969
 30
0.0
 11
7.5050555888
 21
6.6749514025
 31
0.0
  0
ARC
  5
1ED
330
1F
100
AcDbEntity
  8
0
  6
Continuous
 62
     7
370
    18
100
AcDbCircle
 10
7.4748721972
 20
6.7733911718
 30
0.0
 40
0.0230849000639968
100
AcDbArc
 50
181.956498643
 51
211.1437277994
  0
LINE
  5
1EE
330
1F
100
AcDbEntity
  8
0
  6
Continuous
 62
     7
370
    18
100
AcDbLine
 10
7.4518007548
 20
7.1145255548
 30
0.0
 11
7.4518007548
 21
6.7726030369
 31
0.0
  0
ARC
  5
1EF
330
1F
100
AcDbEntity
  8
0
  6
Continuous
 62
     7
370
    18
100
AcDbCircle
 10
7.459811308
 20
7.1153138731
 30
0.0
 40
0.0080492489016715
100
AcDbArc
 50
125.6980385288
 51
185.6203789636
  0
LINE
  5
1F0
330
1F
100
AcDbEntity
  8
0
  6
Continuous
 62
     7
370
    18
100
AcDbLine
 10
7.5050555888
 20
7.1506904666
 30
0.0
 11
7.4551144633
 21
7.1218506963
 31
0.0
  0
ARC
  5
1F1
330
1F
100
AcDbEntity
  8
0
  6
Continuous
 62
     7
370
    18
100
AcDbCircle
 10
7.5083689713
 20
7.1433568998
 30
0.0
 40
0.0080473415645167
100
AcDbArc
 50
54.3818273401
 51
114.3139521614
  0
LINE
  5
1F2
330
1F
100
AcDbEntity
  8
0
  6
Continuous
 62
     7
370
    18
100
AcDbLine
 10
7.7233297588
 20
7.0285100187
 30
0.0
 11
7.5130555888
 21
7.1498987132
 31
0.0
  0
ARC
  5
1F3
330
1F
100
AcDbEntity
  8
0
  6
Continuous
 62
     7
370
    18
100
AcDbCircle
 10
7.7100800096
 20
7.0077963272
 30
0.0
 40
0.0245888769211489
100
AcDbArc
 50
2.6054784856
 51
57.39452166
  0
LINE
  5
1F4
330
1F
100
AcDbEntity
  8
0
  6
Continuous
 62
     7
370
    18
100
AcDbLine
 10
7.7346434673
 20
6.9947286778
 30
0.0
 11
7.7346434673
 21
7.0089141008
 31
0.0
  0
ARC
  5
1F5
330
1F
100
AcDbEntity
  8
0
  6
Continuous
 62
     7
370
    18
100
AcDbCircle
 10
7.7266329141
 20
6.9939403595
 30
0.0
 40
0.0080492489016745
100
AcDbArc
 50
305.6980385288
 51
5.6203789636
  0
LINE
  5
1F6
330
1F
100
AcDbEntity
  8
0
  6
Continuous
 62
     7
370
    18
100
AcDbLine
 10
7.6781251773
 20
6.9566792005
 30
0.0
 11
7.7313297588
 21
6.9874035363
 31
0.0
  0
LWPOLYLINE
  5
1F7
330
1F
100
AcDbEntity
  8
0
  6
Continuous
 62
     7
370
    18
100
AcDbPolyline
 90
        9
 70
   128
 43
0.0
 10
7.6831251773
 20
6.9398535383
 10
7.6810725547
 20
6.9413900919
 10
7.6791967025
 20
6.9434975179
 10
7.677659168
 20
6.9459943264
 10
7.6765923625
 20
6.9486654938
 10
7.6760881586
 20
6.9512809809
 10
7.6761899781
 20
6.9536155438
 10
7.6768890522
 20
6.9554681316
 10
7.6781251773
 20
6.9566792005
  0
LINE
  5
1F8
330
1F
100
AcDbEntity
  8
0
  6
Continuous
 62
     7
370
    18
100
AcDbLine
 10
7.8435379116
 20
6.847249238
 30
0.0
 11
7.6831251773
 21
6.9398535383
 31
0.0
  0
ARC
  5
1F9
330
1F
100
AcDbEntity
  8
0
  6
Continuous
 62
     7
370
    18
100
AcDbCircle
 10
7.8302881624
 20
6.8265355465
 30
0.0
 40
0.0245888769211602
100
AcDbArc
 50
2.6054784857
 51
57.39452166
  0
LINE
  5
1FA
330
1F
100
AcDbEntity
  8
0
  6
Continuous
 62
     7
370
    18
100
AcDbLine
 10
7.8548516201
 20
6.8080563406
 30
0.0
 11
7.8548516201
 21
6.8276533201
 31
0.0
  0
LINE
  5
1FB
330
1F
100
AcDbEntity
  8
0
  6
Continuous
 62
     7
370
    18
100
AcDbLine
 10
8.6609533506
 20
6.3427037169
 30
0.0
 11
7.8548516201
 21
6.8080563406
 31
0.0
  0
LINE
  5
1FC
330
1F
100
AcDbEntity
  8
0
  6
Continuous
 62
     7
370
    18
100
AcDbLine
 10
8.6609533506
 20
6.3623006964
 30
0.0
 11
8.6609533506
 21
6.3427037169
 31
0.0
  0
ARC
  5
1FD
330
1F
100
AcDbEntity
  8
0
  6
Continuous
 62
     7
370
    18
100
AcDbCircle
 10
8.6678505405
 20
6.3634195315
 30
0.0
 40
0.0069873471588578
100
AcDbArc
 50
50.7967147643
 51
189.2140369905
  0
LINE
  5
1FE
330
1F
100
AcDbEntity
  8
0
  6
Continuous
 62
     7
370
    18
100
AcDbLine
 10
8.7623330763
 20
6.3168400795
 30
0.0
 11
8.6722670591
 21
6.3688340844
 31
0.0
  0
ARC
  5
1FF
330
1F
100
AcDbEntity
  8
0
  6
Continuous
 62
     7
370
    18
100
AcDbCircle
 10
8.7501169732
 20
6.2972557682
 30
0.0
 40
0.0230819934967266
100
AcDbArc
 50
28.8556088792
 51
58.0453283505
  0
LINE
  5
200
330
1F
100
AcDbEntity
  8
0
  6
Continuous
 62
     7
370
    18
100
AcDbLine
 10
8.7919899305
 20
6.2708844577
 30
0.0
 11
8.7703330763
 21
6.3083952295
 31
0.0
  0
ARC
  5
201
330
1F
100
AcDbEntity
  8
0
  6
Continuous
 62
     7
370
    18
100
AcDbCircle
 10
8.7722321966
 20
6.258945255
 30
0.0
 40
0.0230849000640114
100
AcDbArc
 50
1.9564986431
 51
31.1437277994
  0
LINE
  5
202
330
1F
100
AcDbEntity
  8
0
  6
Continuous
 62
     7
370
    18
100
AcDbLine
 10
8.795303639
 20
6.0762197895
 30
0.0
 11
8.795303639
 21
6.2597333898
 31
0.0
  0
ARC
  5
203
330
1F
100
AcDbEntity
  8
0
  6
Continuous
 62
     7
370
    18
100
AcDbCircle
 10
8.7872930859
 20
6.0754314712
 30
0.0
 40
0.0080492489017205
100
AcDbArc
 50
305.698038529
 51
5.6203789633
  0
LINE
  5
204
330
1F
100
AcDbEntity
  8
0
  6
Continuous
 62
     7
370
    18
100
AcDbLine
 10
10.3410390627
 20
7.3321956564
 30
0.0
 11
8.6722670591
 21
6.3688340844
 31
0.0
  0
LINE
  5
205
330
1F
100
AcDbEntity
  8
0
  6
Continuous
 62
     7
370
    18
100
AcDbLine
 10
10.3507126035
 20
7.3266112402
 30
0.0
 11
10.3410390627
 21
7.3321956564
 31
0.0
  0
ARC
  5
206
330
1F
100
AcDbEntity
  8
0
  6
Continuous
 62
     7
370
    18
100
AcDbCircle
 10
10.3363523418
 20
7.3256535551
 30
0.0
 40
0.0080476357744315
100
AcDbArc
 50
54.3824225248
 51
114.3071190461
  0
LINE
  5
207
330
1F
100
AcDbEntity
  8
0
  6
Continuous
 62
     7
370
    18
100
AcDbLine
 10
9.5236236237
 20
7.7714179126
 30
0.0
 11
7.8548516201
 21
6.8080563406
 31
0.0
  0
LINE
  5
208
330
1F
100
AcDbEntity
  8
0
  6
Continuous
 62
     7
370
    18
100
AcDbLine
 10
10.3080644412
 20
7.3185698678
 30
0.0
 11
9.5236236237
 21
7.7714179126
 31
0.0
  0
LINE
  5
209
330
1F
100
AcDbEntity
  8
0
  6
Continuous
 62
     7
370
    18
100
AcDbLine
 10
8.8355327699
 20
6.0940273298
 30
0.0
 11
8.7703330763
 21
6.0563883478
 31
0.0
  0
LINE
  5
20A
330
1F
100
AcDbEntity
  8
0
  6
Continuous
 62
     7
370
    18
100
AcDbLine
 10
9.5123099152
 20
7.8106108099
 30
0.0
 11
7.8435379116
 21
6.847249238
 31
0.0
  0
ARC
  5
20B
330
1F
100
AcDbEntity
  8
0
  6
Continuous
 62
     7
370
    18
100
AcDbCircle
 10
9.499060166
 20
7.7898971184
 30
0.0
 40
0.0245888769211577
100
AcDbArc
 50
2.6054784857
 51
57.39452166
  0
LINE
  5
20C
330
1F
100
AcDbEntity
  8
0
  6
Continuous
 62
     7
370
    18
100
AcDbLine
 10
9.5236236237
 20
7.791014892
 30
0.0
 11
7.8548516201
 21
6.8276533201
 31
0.0
  0
LINE
  5
20D
330
1F
100
AcDbEntity
  8
0
  6
Continuous
 62
     7
370
    18
100
AcDbLine
 10
9.5236236237
 20
7.7714179126
 30
0.0
 11
9.5236236237
 21
7.791014892
 31
0.0
  0
LINE
  5
20E
330
1F
100
AcDbEntity
  8
0
  6
Continuous
 62
     7
370
    18
100
AcDbLine
 10
9.3518971809
 20
7.9032151103
 30
0.0
 11
7.6831251773
 21
6.9398535383
 31
0.0
  0
LINE
  5
20F
330
1F
100
AcDbEntity
  8
0
  6
Continuous
 62
     7
370
    18
100
AcDbLine
 10
9.5123099152
 20
7.8106108099
 30
0.0
 11
9.3518971809
 21
7.9032151103
 31
0.0
  0
LINE
  5
210
330
1F
100
AcDbEntity
  8
0
  6
Continuous
 62
     7
370
    18
100
AcDbLine
 10
9.3921017624
 20
7.9918715907
 30
0.0
 11
7.7233297588
 21
7.0285100187
 31
0.0
  0
ARC
  5
211
330
1F
100
AcDbEntity
  8
0
  6
Continuous
 62
     7
370
    18
100
AcDbCircle
 10
9.3788520132
 20
7.9711578991
 30
0.0
 40
0.0245888769211626
100
AcDbArc
 50
2.6054784857
 51
57.39452166
  0
LINE
  5
212
330
1F
100
AcDbEntity
  8
0
  6
Continuous
 62
     7
370
    18
100
AcDbLine
 10
9.4034154709
 20
7.9722756728
 30
0.0
 11
7.7346434673
 21
7.0089141008
 31
0.0
  0
LINE
  5
213
330
1F
100
AcDbEntity
  8
0
  6
Continuous
 62
     7
370
    18
100
AcDbLine
 10
9.4034154709
 20
7.9580902497
 30
0.0
 11
9.4034154709
 21
7.9722756728
 31
0.0
  0
LINE
  5
214
330
1F
100
AcDbEntity
  8
0
  6
Continuous
 62
     7
370
    18
100
AcDbLine
 10
9.4034154709
 20
7.9580902497
 30
0.0
 11
7.7346434673
 21
6.9947286778
 31
0.0
  0
LINE
  5
215
330
1F
100
AcDbEntity
  8
0
  6
Continuous
 62
     7
370
    18
100
AcDbLine
 10
9.1818275924
 20
8.1132602852
 30
0.0
 11
7.5130555888
 21
7.1498987132
 31
0.0
  0
LINE
  5
216
330
1F
100
AcDbEntity
  8
0
  6
Continuous
 62
     7
370
    18
100
AcDbLine
 10
9.3921017624
 20
7.9918715907
 30
0.0
 11
9.1818275924
 21
8.1132602852
 31
0.0
  0
ARC
  5
217
330
1F
100
AcDbEntity
  8
0
  6
Continuous
 62
     7
370
    18
100
AcDbCircle
 10
9.3954049177
 20
7.9573019315
 30
0.0
 40
0.0080492489016782
100
AcDbArc
 50
305.6980385288
 51
5.6203789636
  0
LINE
  5
218
330
1F
100
AcDbEntity
  8
0
  6
Continuous
 62
     7
370
    18
100
AcDbLine
 10
9.4001017624
 20
7.9507651082
 30
0.0
 11
7.7313297588
 21
6.9874035363
 31
0.0
  0
LINE
  5
219
330
1F
100
AcDbEntity
  8
0
  6
Continuous
 62
     7
370
    18
100
AcDbLine
 10
9.3468971809
 20
7.9200407724
 30
0.0
 11
9.4001017624
 21
7.9507651082
 31
0.0
  0
LINE
  5
21A
330
1F
100
AcDbEntity
  8
0
  6
Continuous
 62
     7
370
    18
100
AcDbLine
 10
9.3468971809
 20
7.9200407724
 30
0.0
 11
7.6781251773
 21
6.9566792005
 31
0.0
  0
LWPOLYLINE
  5
21B
330
1F
100
AcDbEntity
  8
0
  6
Continuous
 62
     7
370
    18
100
AcDbPolyline
 90
        9
 70
   128
 43
0.0
 10
9.3518971809
 20
7.9032151103
 10
9.3498445583
 20
7.9047516638
 10
9.3479687061
 20
7.9068590899
 10
9.3464311716
 20
7.9093558983
 10
9.3453643661
 20
7.9120270657
 10
9.3448601622
 20
7.9146425529
 10
9.3449619817
 20
7.9169771158
 10
9.3456610558
 20
7.9188297035
 10
9.3468971809
 20
7.9200407724
  0
LINE
  5
21C
330
1F
100
AcDbEntity
  8
0
  6
Continuous
 62
     7
370
    18
100
AcDbLine
 10
9.1738275924
 20
8.1140520386
 30
0.0
 11
7.5050555888
 21
7.1506904666
 31
0.0
  0
ARC
  5
21D
330
1F
100
AcDbEntity
  8
0
  6
Continuous
 62
     7
370
    18
100
AcDbCircle
 10
9.1771409749
 20
8.1067184717
 30
0.0
 40
0.0080473415645181
100
AcDbArc
 50
54.3818273401
 51
114.3139521614
  0
LINE
  5
21E
330
1F
100
AcDbEntity
  8
0
  6
Continuous
 62
     8
370
    18
100
AcDbLine
 10
8.8039233778
 20
6.3277864978
 30
0.0
 11
8.7703330763
 21
6.3083952295
 31
0.0
  0
LINE
  5
21F
330
1F
100
AcDbEntity
  8
0
  6
Continuous
 62
     8
370
    18
100
AcDbLine
 10
8.8255802321
 20
6.290275726
 30
0.0
 11
8.7919899305
 21
6.2708844577
 31
0.0
  0
LINE
  5
220
330
1F
100
AcDbEntity
  8
0
  6
Continuous
 62
     8
370
    18
100
AcDbLine
 10
8.8312372768
 20
6.2804774373
 30
0.0
 11
8.795303639
 21
6.2597333898
 31
0.0
  0
LINE
  5
221
330
1F
100
AcDbEntity
  8
0
  6
Continuous
 62
     8
370
    18
100
AcDbLine
 10
8.798266714
 20
6.337584127
 30
0.0
 11
8.7623330763
 21
6.3168400795
 31
0.0
  0
LINE
  5
222
330
1F
100
AcDbEntity
  8
0
  6
Continuous
 62
     8
370
    18
100
AcDbLine
 10
8.8355327699
 20
6.0994435724
 30
0.0
 11
8.795303639
 21
6.0762197895
 31
0.0
  0
LINE
  5
223
330
1F
100
AcDbEntity
  8
0
  6
Continuous
 62
     8
370
    18
100
AcDbLine
 10
8.8355327699
 20
6.094031394
 30
0.0
 11
8.7919899305
 21
6.0688946479
 31
0.0
  0
LINE
  5
224
330
1F
100
AcDbEntity
  8
0
  6
Continuous
 62
     8
370
    18
100
AcDbLine
 10
7.8718249412
 20
6.6039211376
 30
0.0
 11
7.8548516201
 21
6.5941226479
 31
0.0
  0
LINE
  5
225
330
1F
100
AcDbEntity
  8
0
  6
Continuous
 62
     8
370
    18
100
AcDbLine
 10
7.6901982072
 20
6.6761103869
 30
0.0
 11
7.6781251773
 21
6.6691407751
 31
0.0
  0
LINE
  5
226
330
1F
100
AcDbEntity
  8
0
  6
Continuous
 62
     8
370
    18
100
AcDbLine
 10
7.796616018
 20
6.6146766924
 30
0.0
 11
7.7313297588
 21
6.5769877371
 31
0.0
  0
LINE
  5
227
330
1F
100
AcDbEntity
  8
0
  6
Continuous
 62
     8
370
    18
100
AcDbLine
 10
7.8079310269
 20
6.6081446768
 30
0.0
 11
7.7346434673
 21
6.5658366692
 31
0.0
  0
LINE
  5
228
330
1F
100
AcDbEntity
  8
0
  6
Continuous
 62
     8
370
    18
100
AcDbLine
 10
7.8202172948
 20
6.6010519653
 30
0.0
 11
7.7346434673
 21
6.5516512462
 31
0.0
  0
LINE
  5
229
330
1F
100
AcDbEntity
  8
0
  6
Continuous
 62
     7
370
    18
100
AcDbLine
 10
3.3621454676
 20
4.9782387539
 30
0.0
 11
3.3052528852
 21
4.9782387539
 31
0.0
  0
LINE
  5
22A
330
1F
100
AcDbEntity
  8
0
  6
Continuous
 62
     7
370
    18
100
AcDbLine
 10
3.3052528852
 20
4.8292387539
 30
0.0
 11
3.3621454676
 21
4.8292387539
 31
0.0
  0
CIRCLE
  5
22B
330
1F
100
AcDbEntity
  8
0
  6
Continuous
 62
     7
370
    18
100
AcDbCircle
 10
3.5182528852
 20
2.4231113369
 30
0.0
 40
0.0979999999999999
  0
CIRCLE
  5
22C
330
1F
100
AcDbEntity
  8
0
  6
Continuous
 62
     7
370
    18
100
AcDbCircle
 10
3.5182528852
 20
2.4231113369
 30
0.0
 40
0.117999999999999
  0
CIRCLE
  5
22D
330
1F
100
AcDbEntity
  8
0
  6
Continuous
 62
     7
370
    18
100
AcDbCircle
 10
3.5182528852
 20
4.3911113369
 30
0.0
 40
0.0979999999999999
  0
CIRCLE
  5
22E
330
1F
100
AcDbEntity
  8
0
  6
Continuous
 62
     7
370
    18
100
AcDbCircle
 10
3.5182528852
 20
4.3911113369
 30
0.0
 40
0.1180000000000034
  0
CIRCLE
  5
22F
330
1F
100
AcDbEntity
  8
0
  6
Continuous
 62
     7
370
    18
100
AcDbCircle
 10
1.5502528852
 20
4.3911113369
 30
0.0
 40
0.0979999999999999
  0
CIRCLE
  5
230
330
1F
100
AcDbEntity
  8
0
  6
Continuous
 62
     7
370
    18
100
AcDbCircle
 10
1.5502528852
 20
4.3911113369
 30
0.0
 40
0.117999999999999
  0
CIRCLE
  5
231
330
1F
100
AcDbEntity
  8
0
  6
Continuous
 62
     7
370
    18
100
AcDbCircle
 10
1.5502528852
 20
2.4231113369
 30
0.0
 40
0.0979999999999999
  0
CIRCLE
  5
232
330
1F
100
AcDbEntity
  8
0
  6
Continuous
 62
     7
370
    18
100
AcDbCircle
 10
1.5502528852
 20
2.4231113369
 30
0.0
 40
0.117999999999999
  0
ARC
  5
233
330
1F
100
AcDbEntity
  8
0
  6
Continuous
 62
     7
370
    18
100
AcDbCircle
 10
1.3442528852
 20
2.7149692012
 30
0.0
 40
0.0100000000000002
100
AcDbArc
 50
0.0
 51
135.0
  0
LINE
  5
234
330
1F
100
AcDbEntity
  8
0
  6
Continuous
 62
     7
370
    18
100
AcDbLine
 10
1.2391818174
 20
2.6240402691
 30
0.0
 11
1.3371818174
 21
2.7220402691
 31
0.0
  0
ARC
  5
235
330
1F
100
AcDbEntity
  8
0
  6
Continuous
 62
     7
370
    18
100
AcDbCircle
 10
1.2321107496
 20
2.6311113369
 30
0.0
 40
0.0100000000000002
100
AcDbArc
 50
270.0
 51
315.0
  0
LINE
  5
236
330
1F
100
AcDbEntity
  8
0
  6
Continuous
 62
     7
370
    18
100
AcDbLine
 10
1.2062528852
 20
2.6211113369
 30
0.0
 11
1.2321107496
 21
2.6211113369
 31
0.0
  0
ARC
  5
237
330
1F
100
AcDbEntity
  8
0
  6
Continuous
 62
     7
370
    18
100
AcDbCircle
 10
1.2062528852
 20
2.6311113369
 30
0.0
 40
0.01
100
AcDbArc
 50
180.0
 51
270.0
  0
LINE
  5
238
330
1F
100
AcDbEntity
  8
0
  6
Continuous
 62
     7
370
    18
100
AcDbLine
 10
1.1962528852
 20
3.1971113369
 30
0.0
 11
1.1962528852
 21
2.6311113369
 31
0.0
  0
ARC
  5
239
330
1F
100
AcDbEntity
  8
0
  6
Continuous
 62
     7
370
    18
100
AcDbCircle
 10
1.2062528852
 20
3.1971113369
 30
0.0
 40
0.0100000000000002
100
AcDbArc
 50
90.0
 51
180.0
  0
LINE
  5
23A
330
1F
100
AcDbEntity
  8
0
  6
Continuous
 62
     7
370
    18
100
AcDbLine
 10
1.2362528852
 20
3.2071113369
 30
0.0
 11
1.2062528852
 21
3.2071113369
 31
0.0
  0
LINE
  5
23B
330
1F
100
AcDbEntity
  8
0
  6
Continuous
 62
     7
370
    18
100
AcDbLine
 10
1.2362528852
 20
3.6071113369
 30
0.0
 11
1.2362528852
 21
3.2071113369
 31
0.0
  0
LINE
  5
23C
330
1F
100
AcDbEntity
  8
0
  6
Continuous
 62
     7
370
    18
100
AcDbLine
 10
1.2062528852
 20
3.6071113369
 30
0.0
 11
1.2362528852
 21
3.6071113369
 31
0.0
  0
ARC
  5
23D
330
1F
100
AcDbEntity
  8
0
  6
Continuous
 62
     7
370
    18
100
AcDbCircle
 10
1.2062528852
 20
3.6171113369
 30
0.0
 40
0.0100000000000002
100
AcDbArc
 50
180.0
 51
270.0
  0
LINE
  5
23E
330
1F
100
AcDbEntity
  8
0
  6
Continuous
 62
     7
370
    18
100
AcDbLine
 10
1.1962528852
 20
4.1831113369
 30
0.0
 11
1.1962528852
 21
3.6171113369
 31
0.0
  0
ARC
  5
23F
330
1F
100
AcDbEntity
  8
0
  6
Continuous
 62
     7
370
    18
100
AcDbCircle
 10
1.2062528852
 20
4.1831113369
 30
0.0
 40
0.01
100
AcDbArc
 50
90.0
 51
180.0
  0
LINE
  5
240
330
1F
100
AcDbEntity
  8
0
  6
Continuous
 62
     7
370
    18
100
AcDbLine
 10
1.2321107496
 20
4.1931113369
 30
0.0
 11
1.2062528852
 21
4.1931113369
 31
0.0
  0
ARC
  5
241
330
1F
100
AcDbEntity
  8
0
  6
Continuous
 62
     7
370
    18
100
AcDbCircle
 10
1.2321107496
 20
4.1831113369
 30
0.0
 40
0.0099999999999993
100
AcDbArc
 50
45.0
 51
90.0
  0
LINE
  5
242
330
1F
100
AcDbEntity
  8
0
  6
Continuous
 62
     7
370
    18
100
AcDbLine
 10
1.3371818174
 20
4.0921824047
 30
0.0
 11
1.2391818174
 21
4.1901824047
 31
0.0
  0
LINE
  5
243
330
1F
100
AcDbEntity
  8
0
  6
Continuous
 62
     7
370
    18
100
AcDbLine
 10
1.3542528852
 20
4.5071113369
 30
0.0
 11
1.3542528852
 21
4.0992534725
 31
0.0
  0
LINE
  5
244
330
1F
100
AcDbEntity
  8
0
  6
Continuous
 62
     7
370
    18
100
AcDbLine
 10
1.4342528852
 20
4.5871113369
 30
0.0
 11
1.3542528852
 21
4.5071113369
 31
0.0
  0
LINE
  5
245
330
1F
100
AcDbEntity
  8
0
  6
Continuous
 62
     7
370
    18
100
AcDbLine
 10
1.8421107496
 20
4.5871113369
 30
0.0
 11
1.4342528852
 21
4.5871113369
 31
0.0
  0
ARC
  5
246
330
1F
100
AcDbEntity
  8
0
  6
Continuous
 62
     7
370
    18
100
AcDbCircle
 10
1.8421107496
 20
4.5971113369
 30
0.0
 40
0.0100000000000007
100
AcDbArc
 50
270.0
 51
45.0
  0
LINE
  5
247
330
1F
100
AcDbEntity
  8
0
  6
Continuous
 62
     7
370
    18
100
AcDbLine
 10
1.7511818174
 20
4.7021824047
 30
0.0
 11
1.8491818174
 21
4.6041824047
 31
0.0
  0
LINE
  5
248
330
1F
100
AcDbEntity
  8
0
  6
Continuous
 62
     7
370
    18
100
AcDbLine
 10
2.3342528852
 20
4.7051113369
 30
0.0
 11
2.3342528852
 21
4.7351113369
 31
0.0
  0
LINE
  5
249
330
1F
100
AcDbEntity
  8
0
  6
Continuous
 62
     7
370
    18
100
AcDbLine
 10
2.7342528852
 20
4.7051113369
 30
0.0
 11
2.3342528852
 21
4.7051113369
 31
0.0
  0
LINE
  5
24A
330
1F
100
AcDbEntity
  8
0
  6
Continuous
 62
     7
370
    18
100
AcDbLine
 10
2.7342528852
 20
4.7351113369
 30
0.0
 11
2.7342528852
 21
4.7051113369
 31
0.0
  0
ARC
  5
24B
330
1F
100
AcDbEntity
  8
0
  6
Continuous
 62
     7
370
    18
100
AcDbCircle
 10
2.7442528852
 20
4.7351113369
 30
0.0
 40
0.0100000000000002
100
AcDbArc
 50
90.0
 51
180.0
  0
LINE
  5
24C
330
1F
100
AcDbEntity
  8
0
  6
Continuous
 62
     7
370
    18
100
AcDbLine
 10
3.3102528852
 20
4.7451113369
 30
0.0
 11
2.7442528852
 21
4.7451113369
 31
0.0
  0
ARC
  5
24D
330
1F
100
AcDbEntity
  8
0
  6
Continuous
 62
     7
370
    18
100
AcDbCircle
 10
3.3102528852
 20
4.7351113369
 30
0.0
 40
0.0100000000000002
100
AcDbArc
 50
0.0
 51
90.0
  0
LINE
  5
24E
330
1F
100
AcDbEntity
  8
0
  6
Continuous
 62
     7
370
    18
100
AcDbLine
 10
3.3202528852
 20
4.7092534725
 30
0.0
 11
3.3202528852
 21
4.7351113369
 31
0.0
  0
ARC
  5
24F
330
1F
100
AcDbEntity
  8
0
  6
Continuous
 62
     7
370
    18
100
AcDbCircle
 10
3.3102528852
 20
4.7092534725
 30
0.0
 40
0.0100000000000002
100
AcDbArc
 50
315.0
 51
0.0
  0
LINE
  5
250
330
1F
100
AcDbEntity
  8
0
  6
Continuous
 62
     7
370
    18
100
AcDbLine
 10
3.219323953
 20
4.6041824047
 30
0.0
 11
3.317323953
 21
4.7021824047
 31
0.0
  0
ARC
  5
251
330
1F
100
AcDbEntity
  8
0
  6
Continuous
 62
     7
370
    18
100
AcDbCircle
 10
3.2263950208
 20
4.5971113369
 30
0.0
 40
0.0100000000000007
100
AcDbArc
 50
135.0
 51
270.0
  0
LINE
  5
252
330
1F
100
AcDbEntity
  8
0
  6
Continuous
 62
     7
370
    18
100
AcDbLine
 10
3.6342528852
 20
4.5871113369
 30
0.0
 11
3.2263950208
 21
4.5871113369
 31
0.0
  0
LINE
  5
253
330
1F
100
AcDbEntity
  8
0
  6
Continuous
 62
     7
370
    18
100
AcDbLine
 10
3.7142528852
 20
4.5071113369
 30
0.0
 11
3.6342528852
 21
4.5871113369
 31
0.0
  0
LINE
  5
254
330
1F
100
AcDbEntity
  8
0
  6
Continuous
 62
     7
370
    18
100
AcDbLine
 10
3.7142528852
 20
4.0992534725
 30
0.0
 11
3.7142528852
 21
4.5071113369
 31
0.0
  0
LINE
  5
255
330
1F
100
AcDbEntity
  8
0
  6
Continuous
 62
     7
370
    18
100
AcDbLine
 10
3.829323953
 20
4.1901824047
 30
0.0
 11
3.731323953
 21
4.0921824047
 31
0.0
  0
LINE
  5
256
330
1F
100
AcDbEntity
  8
0
  6
Continuous
 62
     7
370
    18
100
AcDbLine
 10
3.8722528852
 20
2.6311113369
 30
0.0
 11
3.8722528852
 21
3.1971113369
 31
0.0
  0
ARC
  5
257
330
1F
100
AcDbEntity
  8
0
  6
Continuous
 62
     7
370
    18
100
AcDbCircle
 10
3.8622528852
 20
2.6311113369
 30
0.0
 40
0.0100000000000002
100
AcDbArc
 50
270.0
 51
0.0
  0
LINE
  5
258
330
1F
100
AcDbEntity
  8
0
  6
Continuous
 62
     7
370
    18
100
AcDbLine
 10
3.8363950208
 20
2.6211113369
 30
0.0
 11
3.8622528852
 21
2.6211113369
 31
0.0
  0
LINE
  5
259
330
1F
100
AcDbEntity
  8
0
  6
Continuous
 62
     7
370
    18
100
AcDbLine
 10
3.731323953
 20
2.7220402691
 30
0.0
 11
3.829323953
 21
2.6240402691
 31
0.0
  0
ARC
  5
25A
330
1F
100
AcDbEntity
  8
0
  6
Continuous
 62
     7
370
    18
100
AcDbCircle
 10
3.7242528852
 20
2.7149692012
 30
0.0
 40
0.01
100
AcDbArc
 50
45.0
 51
180.0
  0
LINE
  5
25B
330
1F
100
AcDbEntity
  8
0
  6
Continuous
 62
     7
370
    18
100
AcDbLine
 10
3.7142528852
 20
2.3071113369
 30
0.0
 11
3.7142528852
 21
2.7149692012
 31
0.0
  0
LINE
  5
25C
330
1F
100
AcDbEntity
  8
0
  6
Continuous
 62
     7
370
    18
100
AcDbLine
 10
3.6342528852
 20
2.2271113369
 30
0.0
 11
3.7142528852
 21
2.3071113369
 31
0.0
  0
LINE
  5
25D
330
1F
100
AcDbEntity
  8
0
  6
Continuous
 62
     7
370
    18
100
AcDbLine
 10
3.2263950208
 20
2.2271113369
 30
0.0
 11
3.6342528852
 21
2.2271113369
 31
0.0
  0
ARC
  5
25E
330
1F
100
AcDbEntity
  8
0
  6
Continuous
 62
     7
370
    18
100
AcDbCircle
 10
3.2263950208
 20
2.2171113369
 30
0.0
 40
0.0100000000000004
100
AcDbArc
 50
90.0
 51
225.0
  0
LINE
  5
25F
330
1F
100
AcDbEntity
  8
0
  6
Continuous
 62
     7
370
    18
100
AcDbLine
 10
3.317323953
 20
2.1120402691
 30
0.0
 11
3.219323953
 21
2.2100402691
 31
0.0
  0
ARC
  5
260
330
1F
100
AcDbEntity
  8
0
  6
Continuous
 62
     7
370
    18
100
AcDbCircle
 10
3.3102528852
 20
2.1049692012
 30
0.0
 40
0.0099999999999997
100
AcDbArc
 50
0.0
 51
45.0
  0
LINE
  5
261
330
1F
100
AcDbEntity
  8
0
  6
Continuous
 62
     7
370
    18
100
AcDbLine
 10
3.3202528852
 20
2.0791113369
 30
0.0
 11
3.3202528852
 21
2.1049692012
 31
0.0
  0
ARC
  5
262
330
1F
100
AcDbEntity
  8
0
  6
Continuous
 62
     7
370
    18
100
AcDbCircle
 10
3.3102528852
 20
2.0791113369
 30
0.0
 40
0.0100000000000002
100
AcDbArc
 50
270.0
 51
0.0
  0
LINE
  5
263
330
1F
100
AcDbEntity
  8
0
  6
Continuous
 62
     7
370
    18
100
AcDbLine
 10
2.7442528852
 20
2.0691113369
 30
0.0
 11
3.3102528852
 21
2.0691113369
 31
0.0
  0
ARC
  5
264
330
1F
100
AcDbEntity
  8
0
  6
Continuous
 62
     7
370
    18
100
AcDbCircle
 10
2.7442528852
 20
2.0791113369
 30
0.0
 40
0.0100000000000002
100
AcDbArc
 50
180.0
 51
270.0
  0
LINE
  5
265
330
1F
100
AcDbEntity
  8
0
  6
Continuous
 62
     7
370
    18
100
AcDbLine
 10
2.7342528852
 20
2.1091113369
 30
0.0
 11
2.7342528852
 21
2.0791113369
 31
0.0
  0
LINE
  5
266
330
1F
100
AcDbEntity
  8
0
  6
Continuous
 62
     7
370
    18
100
AcDbLine
 10
2.3342528852
 20
2.1091113369
 30
0.0
 11
2.7342528852
 21
2.1091113369
 31
0.0
  0
LINE
  5
267
330
1F
100
AcDbEntity
  8
0
  6
Continuous
 62
     7
370
    18
100
AcDbLine
 10
2.3342528852
 20
2.0791113369
 30
0.0
 11
2.3342528852
 21
2.1091113369
 31
0.0
  0
ARC
  5
268
330
1F
100
AcDbEntity
  8
0
  6
Continuous
 62
     7
370
    18
100
AcDbCircle
 10
2.3242528852
 20
2.0791113369
 30
0.0
 40
0.0100000000000002
100
AcDbArc
 50
270.0
 51
0.0
  0
LINE
  5
269
330
1F
100
AcDbEntity
  8
0
  6
Continuous
 62
     7
370
    18
100
AcDbLine
 10
1.7582528852
 20
2.0691113369
 30
0.0
 11
2.3242528852
 21
2.0691113369
 31
0.0
  0
ARC
  5
26A
330
1F
100
AcDbEntity
  8
0
  6
Continuous
 62
     7
370
    18
100
AcDbCircle
 10
1.7582528852
 20
2.0791113369
 30
0.0
 40
0.0100000000000002
100
AcDbArc
 50
180.0
 51
270.0
  0
LINE
  5
26B
330
1F
100
AcDbEntity
  8
0
  6
Continuous
 62
     7
370
    18
100
AcDbLine
 10
1.7482528852
 20
2.1049692012
 30
0.0
 11
1.7482528852
 21
2.0791113369
 31
0.0
  0
ARC
  5
26C
330
1F
100
AcDbEntity
  8
0
  6
Continuous
 62
     7
370
    18
100
AcDbCircle
 10
1.7582528852
 20
2.1049692012
 30
0.0
 40
0.0099999999999999
100
AcDbArc
 50
135.0
 51
180.0
  0
LINE
  5
26D
330
1F
100
AcDbEntity
  8
0
  6
Continuous
 62
     7
370
    18
100
AcDbLine
 10
1.8491818174
 20
2.2100402691
 30
0.0
 11
1.7511818174
 21
2.1120402691
 31
0.0
  0
ARC
  5
26E
330
1F
100
AcDbEntity
  8
0
  6
Continuous
 62
     7
370
    18
100
AcDbCircle
 10
1.8421107496
 20
2.2171113369
 30
0.0
 40
0.0100000000000002
100
AcDbArc
 50
315.0
 51
90.0
  0
LINE
  5
26F
330
1F
100
AcDbEntity
  8
0
  6
Continuous
 62
     7
370
    18
100
AcDbLine
 10
1.4342528852
 20
2.2271113369
 30
0.0
 11
1.8421107496
 21
2.2271113369
 31
0.0
  0
LINE
  5
270
330
1F
100
AcDbEntity
  8
0
  6
Continuous
 62
     7
370
    18
100
AcDbLine
 10
1.3542528852
 20
2.3071113369
 30
0.0
 11
1.4342528852
 21
2.2271113369
 31
0.0
  0
LINE
  5
271
330
1F
100
AcDbEntity
  8
0
  6
Continuous
 62
     7
370
    18
100
AcDbLine
 10
1.3542528852
 20
2.7149692012
 30
0.0
 11
1.3542528852
 21
2.3071113369
 31
0.0
  0
CIRCLE
  5
272
330
1F
100
AcDbEntity
  8
0
  6
Continuous
 62
     7
370
    18
100
AcDbCircle
 10
2.5342528852
 20
3.4071113369
 30
0.0
 40
1.162000000000015
  0
ARC
  5
273
330
1F
100
AcDbEntity
  8
0
  6
Continuous
 62
     7
370
    18
100
AcDbCircle
 10
3.8363950208
 20
2.6311113369
 30
0.0
 40
0.0100000000000002
100
AcDbArc
 50
225.0
 51
270.0
  0
ARC
  5
274
330
1F
100
AcDbEntity
  8
0
  6
Continuous
 62
     7
370
    18
100
AcDbCircle
 10
1.3442528852
 20
4.0992534725
 30
0.0
 40
0.0100000000000002
100
AcDbArc
 50
225.0
 51
0.0
  0
ARC
  5
275
330
1F
100
AcDbEntity
  8
0
  6
Continuous
 62
     7
370
    18
100
AcDbCircle
 10
3.8363950208
 20
4.1831113369
 30
0.0
 40
0.0099999999999998
100
AcDbArc
 50
90.0
 51
135.0
  0
ARC
  5
276
330
1F
100
AcDbEntity
  8
0
  6
Continuous
 62
     7
370
    18
100
AcDbCircle
 10
3.7242528852
 20
4.0992534725
 30
0.0
 40
0.0100000000000007
100
AcDbArc
 50
180.0
 51
315.0
  0
LINE
  5
277
330
1F
100
AcDbEntity
  8
0
  6
Continuous
 62
     7
370
    18
100
AcDbLine
 10
3.8622528852
 20
3.2071113369
 30
0.0
 11
3.8322528852
 21
3.2071113369
 31
0.0
  0
LINE
  5
278
330
1F
100
AcDbEntity
  8
0
  6
Continuous
 62
     7
370
    18
100
AcDbLine
 10
3.8322528852
 20
3.2071113369
 30
0.0
 11
3.8322528852
 21
3.6071113369
 31
0.0
  0
LINE
  5
279
330
1F
100
AcDbEntity
  8
0
  6
Continuous
 62
     7
370
    18
100
AcDbLine
 10
3.8322528852
 20
3.6071113369
 30
0.0
 11
3.8622528852
 21
3.6071113369
 31
0.0
  0
ARC
  5
27A
330
1F
100
AcDbEntity
  8
0
  6
Continuous
 62
     7
370
    18
100
AcDbCircle
 10
3.8622528852
 20
3.6171113369
 30
0.0
 40
0.0100000000000002
100
AcDbArc
 50
270.0
 51
0.0
  0
LINE
  5
27B
330
1F
100
AcDbEntity
  8
0
  6
Continuous
 62
     7
370
    18
100
AcDbLine
 10
3.8622528852
 20
4.1931113369
 30
0.0
 11
3.8363950208
 21
4.1931113369
 31
0.0
  0
LINE
  5
27C
330
1F
100
AcDbEntity
  8
0
  6
Continuous
 62
     7
370
    18
100
AcDbLine
 10
2.3242528852
 20
4.7451113369
 30
0.0
 11
1.7582528852
 21
4.7451113369
 31
0.0
  0
ARC
  5
27D
330
1F
100
AcDbEntity
  8
0
  6
Continuous
 62
     7
370
    18
100
AcDbCircle
 10
1.7582528852
 20
4.7351113369
 30
0.0
 40
0.01
100
AcDbArc
 50
90.0
 51
180.0
  0
ARC
  5
27E
330
1F
100
AcDbEntity
  8
0
  6
Continuous
 62
     7
370
    18
100
AcDbCircle
 10
3.8622528852
 20
3.1971113369
 30
0.0
 40
0.0100000000000002
100
AcDbArc
 50
0.0
 51
90.0
  0
ARC
  5
27F
330
1F
100
AcDbEntity
  8
0
  6
Continuous
 62
     7
370
    18
100
AcDbCircle
 10
1.7582528852
 20
4.7092534725
 30
0.0
 40
0.01
100
AcDbArc
 50
180.0
 51
225.0
  0
ARC
  5
280
330
1F
100
AcDbEntity
  8
0
  6
Continuous
 62
     7
370
    18
100
AcDbCircle
 10
2.3242528852
 20
4.7351113369
 30
0.0
 40
0.0099999999999998
100
AcDbArc
 50
0.0
 51
90.0
  0
LINE
  5
281
330
1F
100
AcDbEntity
  8
0
  6
Continuous
 62
     7
370
    18
100
AcDbLine
 10
1.7482528852
 20
4.7351113369
 30
0.0
 11
1.7482528852
 21
4.7092534725
 31
0.0
  0
ARC
  5
282
330
1F
100
AcDbEntity
  8
0
  6
Continuous
 62
     7
370
    18
100
AcDbCircle
 10
3.8622528852
 20
4.1831113369
 30
0.0
 40
0.0100000000000002
100
AcDbArc
 50
0.0
 51
90.0
  0
LINE
  5
283
330
1F
100
AcDbEntity
  8
0
  6
Continuous
 62
     7
370
    18
100
AcDbLine
 10
3.8722528852
 20
3.6171113369
 30
0.0
 11
3.8722528852
 21
4.1831113369
 31
0.0
  0
CIRCLE
  5
284
330
1F
100
AcDbEntity
  8
0
  6
Continuous
 62
     7
370
    18
100
AcDbCircle
 10
2.5342528852
 20
3.4071113369
 30
0.0
 40
1.142
  0
ARC
  5
285
330
1F
100
AcDbEntity
  8
0
  6
Continuous
 62
     7
370
    18
100
AcDbCircle
 10
1.2062528852
 20
6.1911113369
 30
0.0
 40
0.0099999999999998
100
AcDbArc
 50
90.0
 51
180.0
  0
LINE
  5
286
330
1F
100
AcDbEntity
  8
0
  6
Continuous
 62
     7
370
    18
100
AcDbLine
 10
1.2362528852
 20
6.2011113369
 30
0.0
 11
1.2062528852
 21
6.2011113369
 31
0.0
  0
LINE
  5
287
330
1F
100
AcDbEntity
  8
0
  6
Continuous
 62
     7
370
    18
100
AcDbLine
 10
1.2362528852
 20
6.6011113369
 30
0.0
 11
1.2362528852
 21
6.2011113369
 31
0.0
  0
LINE
  5
288
330
1F
100
AcDbEntity
  8
0
  6
Continuous
 62
     7
370
    18
100
AcDbLine
 10
1.2062528852
 20
6.6011113369
 30
0.0
 11
1.2362528852
 21
6.6011113369
 31
0.0
  0
ARC
  5
289
330
1F
100
AcDbEntity
  8
0
  6
Continuous
 62
     7
370
    18
100
AcDbCircle
 10
1.2062528852
 20
6.6111113369
 30
0.0
 40
0.0099999999999998
100
AcDbArc
 50
180.0
 51
270.0
  0
LINE
  5
28A
330
1F
100
AcDbEntity
  8
0
  6
Continuous
 62
     7
370
    18
100
AcDbLine
 10
1.1962528852
 20
7.1771113369
 30
0.0
 11
1.1962528852
 21
6.6111113369
 31
0.0
  0
ARC
  5
28B
330
1F
100
AcDbEntity
  8
0
  6
Continuous
 62
     7
370
    18
100
AcDbCircle
 10
1.2062528852
 20
7.1771113369
 30
0.0
 40
0.0099999999999998
100
AcDbArc
 50
90.0
 51
180.0
  0
LINE
  5
28C
330
1F
100
AcDbEntity
  8
0
  6
Continuous
 62
     7
370
    18
100
AcDbLine
 10
1.2321107496
 20
7.1871113369
 30
0.0
 11
1.2062528852
 21
7.1871113369
 31
0.0
  0
ARC
  5
28D
330
1F
100
AcDbEntity
  8
0
  6
Continuous
 62
     7
370
    18
100
AcDbCircle
 10
1.2321107496
 20
7.1771113369
 30
0.0
 40
0.01
100
AcDbArc
 50
45.0
 51
90.0
  0
LINE
  5
28E
330
1F
100
AcDbEntity
  8
0
  6
Continuous
 62
     7
370
    18
100
AcDbLine
 10
1.3371818174
 20
7.0861824047
 30
0.0
 11
1.2391818174
 21
7.1841824047
 31
0.0
  0
LINE
  5
28F
330
1F
100
AcDbEntity
  8
0
  6
Continuous
 62
     7
370
    18
100
AcDbLine
 10
1.4342528852
 20
7.5811113369
 30
0.0
 11
1.3542528852
 21
7.5011113369
 31
0.0
  0
LINE
  5
290
330
1F
100
AcDbEntity
  8
0
  6
Continuous
 62
     7
370
    18
100
AcDbLine
 10
1.7482528852
 20
7.7291113369
 30
0.0
 11
1.7482528852
 21
7.7032534725
 31
0.0
  0
ARC
  5
291
330
1F
100
AcDbEntity
  8
0
  6
Continuous
 62
     7
370
    18
100
AcDbCircle
 10
1.7582528852
 20
7.7291113369
 30
0.0
 40
0.0099999999999998
100
AcDbArc
 50
90.0
 51
180.0
  0
LINE
  5
292
330
1F
100
AcDbEntity
  8
0
  6
Continuous
 62
     7
370
    18
100
AcDbLine
 10
2.3242528852
 20
7.7391113369
 30
0.0
 11
1.7582528852
 21
7.7391113369
 31
0.0
  0
ARC
  5
293
330
1F
100
AcDbEntity
  8
0
  6
Continuous
 62
     7
370
    18
100
AcDbCircle
 10
2.3242528852
 20
7.7291113369
 30
0.0
 40
0.0099999999999998
100
AcDbArc
 50
0.0
 51
90.0
  0
LINE
  5
294
330
1F
100
AcDbEntity
  8
0
  6
Continuous
 62
     7
370
    18
100
AcDbLine
 10
2.3342528852
 20
7.6991113369
 30
0.0
 11
2.3342528852
 21
7.7291113369
 31
0.0
  0
LINE
  5
295
330
1F
100
AcDbEntity
  8
0
  6
Continuous
 62
     7
370
    18
100
AcDbLine
 10
2.7342528852
 20
7.6991113369
 30
0.0
 11
2.3342528852
 21
7.6991113369
 31
0.0
  0
LINE
  5
296
330
1F
100
AcDbEntity
  8
0
  6
Continuous
 62
     7
370
    18
100
AcDbLine
 10
2.7342528852
 20
7.7291113369
 30
0.0
 11
2.7342528852
 21
7.6991113369
 31
0.0
  0
ARC
  5
297
330
1F
100
AcDbEntity
  8
0
  6
Continuous
 62
     7
370
    18
100
AcDbCircle
 10
2.7442528852
 20
7.7291113369
 30
0.0
 40
0.0099999999999998
100
AcDbArc
 50
90.0
 51
180.0
  0
LINE
  5
298
330
1F
100
AcDbEntity
  8
0
  6
Continuous
 62
     7
370
    18
100
AcDbLine
 10
3.3102528852
 20
7.7391113369
 30
0.0
 11
2.7442528852
 21
7.7391113369
 31
0.0
  0
ARC
  5
299
330
1F
100
AcDbEntity
  8
0
  6
Continuous
 62
     7
370
    18
100
AcDbCircle
 10
3.3102528852
 20
7.7291113369
 30
0.0
 40
0.0099999999999993
100
AcDbArc
 50
0.0
 51
90.0
  0
LINE
  5
29A
330
1F
100
AcDbEntity
  8
0
  6
Continuous
 62
     7
370
    18
100
AcDbLine
 10
3.3202528852
 20
7.7032534725
 30
0.0
 11
3.3202528852
 21
7.7291113369
 31
0.0
  0
ARC
  5
29B
330
1F
100
AcDbEntity
  8
0
  6
Continuous
 62
     7
370
    18
100
AcDbCircle
 10
3.3102528852
 20
7.7032534725
 30
0.0
 40
0.0099999999999997
100
AcDbArc
 50
315.0
 51
0.0
  0
LINE
  5
29C
330
1F
100
AcDbEntity
  8
0
  6
Continuous
 62
     7
370
    18
100
AcDbLine
 10
3.219323953
 20
7.5981824047
 30
0.0
 11
3.317323953
 21
7.6961824047
 31
0.0
  0
ARC
  5
29D
330
1F
100
AcDbEntity
  8
0
  6
Continuous
 62
     7
370
    18
100
AcDbCircle
 10
3.2263950208
 20
7.5911113369
 30
0.0
 40
0.0100000000000007
100
AcDbArc
 50
135.0
 51
270.0
  0
LINE
  5
29E
330
1F
100
AcDbEntity
  8
0
  6
Continuous
 62
     7
370
    18
100
AcDbLine
 10
3.6342528852
 20
7.5811113369
 30
0.0
 11
3.2263950208
 21
7.5811113369
 31
0.0
  0
LINE
  5
29F
330
1F
100
AcDbEntity
  8
0
  6
Continuous
 62
     7
370
    18
100
AcDbLine
 10
3.7142528852
 20
7.5011113369
 30
0.0
 11
3.6342528852
 21
7.5811113369
 31
0.0
  0
LINE
  5
2A0
330
1F
100
AcDbEntity
  8
0
  6
Continuous
 62
     7
370
    18
100
AcDbLine
 10
3.7142528852
 20
7.0932534725
 30
0.0
 11
3.7142528852
 21
7.5011113369
 31
0.0
  0
ARC
  5
2A1
330
1F
100
AcDbEntity
  8
0
  6
Continuous
 62
     7
370
    18
100
AcDbCircle
 10
3.7242528852
 20
7.0932534725
 30
0.0
 40
0.0100000000000004
100
AcDbArc
 50
180.0
 51
315.0
  0
LINE
  5
2A2
330
1F
100
AcDbEntity
  8
0
  6
Continuous
 62
     7
370
    18
100
AcDbLine
 10
3.829323953
 20
7.1841824047
 30
0.0
 11
3.731323953
 21
7.0861824047
 31
0.0
  0
ARC
  5
2A3
330
1F
100
AcDbEntity
  8
0
  6
Continuous
 62
     7
370
    18
100
AcDbCircle
 10
3.8363950208
 20
7.1771113369
 30
0.0
 40
0.01
100
AcDbArc
 50
90.0
 51
135.0
  0
LINE
  5
2A4
330
1F
100
AcDbEntity
  8
0
  6
Continuous
 62
     7
370
    18
100
AcDbLine
 10
3.8622528852
 20
7.1871113369
 30
0.0
 11
3.8363950208
 21
7.1871113369
 31
0.0
  0
ARC
  5
2A5
330
1F
100
AcDbEntity
  8
0
  6
Continuous
 62
     7
370
    18
100
AcDbCircle
 10
3.8622528852
 20
7.1771113369
 30
0.0
 40
0.0099999999999993
100
AcDbArc
 50
0.0
 51
90.0
  0
LINE
  5
2A6
330
1F
100
AcDbEntity
  8
0
  6
Continuous
 62
     7
370
    18
100
AcDbLine
 10
3.8722528852
 20
6.6111113369
 30
0.0
 11
3.8722528852
 21
7.1771113369
 31
0.0
  0
ARC
  5
2A7
330
1F
100
AcDbEntity
  8
0
  6
Continuous
 62
     7
370
    18
100
AcDbCircle
 10
3.8622528852
 20
6.6111113369
 30
0.0
 40
0.0099999999999998
100
AcDbArc
 50
270.0
 51
0.0
  0
LINE
  5
2A8
330
1F
100
AcDbEntity
  8
0
  6
Continuous
 62
     7
370
    18
100
AcDbLine
 10
3.8322528852
 20
6.6011113369
 30
0.0
 11
3.8622528852
 21
6.6011113369
 31
0.0
  0
LINE
  5
2A9
330
1F
100
AcDbEntity
  8
0
  6
Continuous
 62
     7
370
    18
100
AcDbLine
 10
3.8322528852
 20
6.2011113369
 30
0.0
 11
3.8322528852
 21
6.6011113369
 31
0.0
  0
LINE
  5
2AA
330
1F
100
AcDbEntity
  8
0
  6
Continuous
 62
     7
370
    18
100
AcDbLine
 10
3.8622528852
 20
6.2011113369
 30
0.0
 11
3.8322528852
 21
6.2011113369
 31
0.0
  0
ARC
  5
2AB
330
1F
100
AcDbEntity
  8
0
  6
Continuous
 62
     7
370
    18
100
AcDbCircle
 10
3.8622528852
 20
6.1911113369
 30
0.0
 40
0.0099999999999998
100
AcDbArc
 50
0.0
 51
90.0
  0
LINE
  5
2AC
330
1F
100
AcDbEntity
  8
0
  6
Continuous
 62
     7
370
    18
100
AcDbLine
 10
3.8722528852
 20
5.6251113369
 30
0.0
 11
3.8722528852
 21
6.1911113369
 31
0.0
  0
ARC
  5
2AD
330
1F
100
AcDbEntity
  8
0
  6
Continuous
 62
     7
370
    18
100
AcDbCircle
 10
3.8622528852
 20
5.6251113369
 30
0.0
 40
0.0099999999999993
100
AcDbArc
 50
270.0
 51
0.0
  0
LINE
  5
2AE
330
1F
100
AcDbEntity
  8
0
  6
Continuous
 62
     7
370
    18
100
AcDbLine
 10
3.8363950208
 20
5.6151113369
 30
0.0
 11
3.8622528852
 21
5.6151113369
 31
0.0
  0
ARC
  5
2AF
330
1F
100
AcDbEntity
  8
0
  6
Continuous
 62
     7
370
    18
100
AcDbCircle
 10
3.8363950208
 20
5.6251113369
 30
0.0
 40
0.0100000000000007
100
AcDbArc
 50
225.0
 51
270.0
  0
LINE
  5
2B0
330
1F
100
AcDbEntity
  8
0
  6
Continuous
 62
     7
370
    18
100
AcDbLine
 10
3.731323953
 20
5.7160402691
 30
0.0
 11
3.829323953
 21
5.6180402691
 31
0.0
  0
LINE
  5
2B1
330
1F
100
AcDbEntity
  8
0
  6
Continuous
 62
     7
370
    18
100
AcDbLine
 10
3.6342528852
 20
5.2211113369
 30
0.0
 11
3.7142528852
 21
5.3011113369
 31
0.0
  0
LINE
  5
2B2
330
1F
100
AcDbEntity
  8
0
  6
Continuous
 62
     7
370
    18
100
AcDbLine
 10
3.317323953
 20
5.1060402691
 30
0.0
 11
3.219323953
 21
5.2040402691
 31
0.0
  0
ARC
  5
2B3
330
1F
100
AcDbEntity
  8
0
  6
Continuous
 62
     7
370
    18
100
AcDbCircle
 10
3.3102528852
 20
5.0989692012
 30
0.0
 40
0.0100000000000002
100
AcDbArc
 50
0.0
 51
45.0
  0
LINE
  5
2B4
330
1F
100
AcDbEntity
  8
0
  6
Continuous
 62
     7
370
    18
100
AcDbLine
 10
3.3202528852
 20
5.0731113369
 30
0.0
 11
3.3202528852
 21
5.0989692012
 31
0.0
  0
ARC
  5
2B5
330
1F
100
AcDbEntity
  8
0
  6
Continuous
 62
     7
370
    18
100
AcDbCircle
 10
3.3102528852
 20
5.0731113369
 30
0.0
 40
0.0100000000000002
100
AcDbArc
 50
270.0
 51
0.0
  0
ARC
  5
2B6
330
1F
100
AcDbEntity
  8
0
  6
Continuous
 62
     7
370
    18
100
AcDbCircle
 10
2.7442528852
 20
5.0731113369
 30
0.0
 40
0.0099999999999993
100
AcDbArc
 50
180.0
 51
270.0
  0
LINE
  5
2B7
330
1F
100
AcDbEntity
  8
0
  6
Continuous
 62
     7
370
    18
100
AcDbLine
 10
2.7342528852
 20
5.1031113369
 30
0.0
 11
2.7342528852
 21
5.0731113369
 31
0.0
  0
LINE
  5
2B8
330
1F
100
AcDbEntity
  8
0
  6
Continuous
 62
     7
370
    18
100
AcDbLine
 10
2.3342528852
 20
5.1031113369
 30
0.0
 11
2.7342528852
 21
5.1031113369
 31
0.0
  0
LINE
  5
2B9
330
1F
100
AcDbEntity
  8
0
  6
Continuous
 62
     7
370
    18
100
AcDbLine
 10
2.3342528852
 20
5.0731113369
 30
0.0
 11
2.3342528852
 21
5.1031113369
 31
0.0
  0
ARC
  5
2BA
330
1F
100
AcDbEntity
  8
0
  6
Continuous
 62
     7
370
    18
100
AcDbCircle
 10
2.3242528852
 20
5.0731113369
 30
0.0
 40
0.0099999999999998
100
AcDbArc
 50
270.0
 51
0.0
  0
LINE
  5
2BB
330
1F
100
AcDbEntity
  8
0
  6
Continuous
 62
     7
370
    18
100
AcDbLine
 10
1.7582528852
 20
5.0631113369
 30
0.0
 11
2.3242528852
 21
5.0631113369
 31
0.0
  0
ARC
  5
2BC
330
1F
100
AcDbEntity
  8
0
  6
Continuous
 62
     7
370
    18
100
AcDbCircle
 10
1.7582528852
 20
5.0731113369
 30
0.0
 40
0.01
100
AcDbArc
 50
180.0
 51
270.0
  0
LINE
  5
2BD
330
1F
100
AcDbEntity
  8
0
  6
Continuous
 62
     7
370
    18
100
AcDbLine
 10
1.7482528852
 20
5.0989692012
 30
0.0
 11
1.7482528852
 21
5.0731113369
 31
0.0
  0
ARC
  5
2BE
330
1F
100
AcDbEntity
  8
0
  6
Continuous
 62
     7
370
    18
100
AcDbCircle
 10
1.7582528852
 20
5.0989692012
 30
0.0
 40
0.01
100
AcDbArc
 50
135.0
 51
180.0
  0
LINE
  5
2BF
330
1F
100
AcDbEntity
  8
0
  6
Continuous
 62
     7
370
    18
100
AcDbLine
 10
1.3542528852
 20
5.3011113369
 30
0.0
 11
1.4342528852
 21
5.2211113369
 31
0.0
  0
CIRCLE
  5
2C0
330
1F
100
AcDbEntity
  8
0
  6
Continuous
 62
     7
370
    18
100
AcDbCircle
 10
1.5502528852
 20
7.3851113369
 30
0.0
 40
0.1179999999999992
  0
CIRCLE
  5
2C1
330
1F
100
AcDbEntity
  8
0
  6
Continuous
 62
     7
370
    18
100
AcDbCircle
 10
3.5182528852
 20
7.3851113369
 30
0.0
 40
0.1180000000000034
  0
CIRCLE
  5
2C2
330
1F
100
AcDbEntity
  8
0
  6
Continuous
 62
     7
370
    18
100
AcDbCircle
 10
3.5182528852
 20
5.4171113369
 30
0.0
 40
0.1179999999999994
  0
CIRCLE
  5
2C3
330
1F
100
AcDbEntity
  8
0
  6
Continuous
 62
     7
370
    18
100
AcDbCircle
 10
1.5502528852
 20
5.4171113369
 30
0.0
 40
0.1179999999999992
  0
CIRCLE
  5
2C4
330
1F
100
AcDbEntity
  8
0
  6
Continuous
 62
     7
370
    18
100
AcDbCircle
 10
2.5342528852
 20
6.4011113369
 30
0.0
 40
1.162000000000015
  0
LINE
  5
2C5
330
1F
100
AcDbEntity
  8
0
  6
Continuous
 62
     7
370
    18
100
AcDbLine
 10
2.7442528852
 20
5.0631113369
 30
0.0
 11
3.3102528852
 21
5.0631113369
 31
0.0
  0
LINE
  5
2C6
330
1F
100
AcDbEntity
  8
0
  6
Continuous
 62
     7
370
    18
100
AcDbLine
 10
1.7511818174
 20
7.6961824047
 30
0.0
 11
1.8491818174
 21
7.5981824047
 31
0.0
  0
ARC
  5
2C7
330
1F
100
AcDbEntity
  8
0
  6
Continuous
 62
     7
370
    18
100
AcDbCircle
 10
1.8421107496
 20
7.5911113369
 30
0.0
 40
0.0100000000000007
100
AcDbArc
 50
270.0
 51
45.0
  0
LINE
  5
2C8
330
1F
100
AcDbEntity
  8
0
  6
Continuous
 62
     7
370
    18
100
AcDbLine
 10
1.8421107496
 20
7.5811113369
 30
0.0
 11
1.4342528852
 21
7.5811113369
 31
0.0
  0
LINE
  5
2C9
330
1F
100
AcDbEntity
  8
0
  6
Continuous
 62
     7
370
    18
100
AcDbLine
 10
1.3542528852
 20
7.5011113369
 30
0.0
 11
1.3542528852
 21
7.0932534725
 31
0.0
  0
ARC
  5
2CA
330
1F
100
AcDbEntity
  8
0
  6
Continuous
 62
     7
370
    18
100
AcDbCircle
 10
3.2263950208
 20
5.2111113369
 30
0.0
 40
0.0100000000000007
100
AcDbArc
 50
90.0
 51
225.0
  0
LINE
  5
2CB
330
1F
100
AcDbEntity
  8
0
  6
Continuous
 62
     7
370
    18
100
AcDbLine
 10
3.2263950208
 20
5.2211113369
 30
0.0
 11
3.6342528852
 21
5.2211113369
 31
0.0
  0
LINE
  5
2CC
330
1F
100
AcDbEntity
  8
0
  6
Continuous
 62
     7
370
    18
100
AcDbLine
 10
3.7142528852
 20
5.3011113369
 30
0.0
 11
3.7142528852
 21
5.7089692012
 31
0.0
  0
ARC
  5
2CD
330
1F
100
AcDbEntity
  8
0
  6
Continuous
 62
     7
370
    18
100
AcDbCircle
 10
3.7242528852
 20
5.7089692012
 30
0.0
 40
0.0100000000000004
100
AcDbArc
 50
45.0
 51
180.0
  0
LINE
  5
2CE
330
1F
100
AcDbEntity
  8
0
  6
Continuous
 62
     7
370
    18
100
AcDbLine
 10
1.4342528852
 20
5.2211113369
 30
0.0
 11
1.8421107496
 21
5.2211113369
 31
0.0
  0
ARC
  5
2CF
330
1F
100
AcDbEntity
  8
0
  6
Continuous
 62
     7
370
    18
100
AcDbCircle
 10
1.8421107496
 20
5.2111113369
 30
0.0
 40
0.0100000000000007
100
AcDbArc
 50
315.0
 51
90.0
  0
ARC
  5
2D0
330
1F
100
AcDbEntity
  8
0
  6
Continuous
 62
     7
370
    18
100
AcDbCircle
 10
1.3442528852
 20
7.0932534725
 30
0.0
 40
0.0100000000000002
100
AcDbArc
 50
225.0
 51
0.0
  0
LINE
  5
2D1
330
1F
100
AcDbEntity
  8
0
  6
Continuous
 62
     7
370
    18
100
AcDbLine
 10
1.1962528852
 20
6.1911113369
 30
0.0
 11
1.1962528852
 21
5.6251113369
 31
0.0
  0
ARC
  5
2D2
330
1F
100
AcDbEntity
  8
0
  6
Continuous
 62
     7
370
    18
100
AcDbCircle
 10
1.2062528852
 20
5.6251113369
 30
0.0
 40
0.0099999999999998
100
AcDbArc
 50
180.0
 51
270.0
  0
LINE
  5
2D3
330
1F
100
AcDbEntity
  8
0
  6
Continuous
 62
     7
370
    18
100
AcDbLine
 10
1.2062528852
 20
5.6151113369
 30
0.0
 11
1.2321107496
 21
5.6151113369
 31
0.0
  0
ARC
  5
2D4
330
1F
100
AcDbEntity
  8
0
  6
Continuous
 62
     7
370
    18
100
AcDbCircle
 10
1.2321107496
 20
5.6251113369
 30
0.0
 40
0.01
100
AcDbArc
 50
270.0
 51
315.0
  0
LINE
  5
2D5
330
1F
100
AcDbEntity
  8
0
  6
Continuous
 62
     7
370
    18
100
AcDbLine
 10
1.2391818174
 20
5.6180402691
 30
0.0
 11
1.3371818174
 21
5.7160402691
 31
0.0
  0
ARC
  5
2D6
330
1F
100
AcDbEntity
  8
0
  6
Continuous
 62
     7
370
    18
100
AcDbCircle
 10
1.3442528852
 20
5.7089692012
 30
0.0
 40
0.0100000000000002
100
AcDbArc
 50
0.0
 51
135.0
  0
LINE
  5
2D7
330
1F
100
AcDbEntity
  8
0
  6
Continuous
 62
     7
370
    18
100
AcDbLine
 10
1.3542528852
 20
5.7089692012
 30
0.0
 11
1.3542528852
 21
5.3011113369
 31
0.0
  0
ARC
  5
2D8
330
1F
100
AcDbEntity
  8
0
  6
Continuous
 62
     7
370
    18
100
AcDbCircle
 10
1.7582528852
 20
7.7032534725
 30
0.0
 40
0.0099999999999998
100
AcDbArc
 50
180.0
 51
225.0
  0
LINE
  5
2D9
330
1F
100
AcDbEntity
  8
0
  6
Continuous
 62
     7
370
    18
100
AcDbLine
 10
1.8491818174
 20
5.2040402691
 30
0.0
 11
1.7511818174
 21
5.1060402691
 31
0.0
  0
CIRCLE
  5
2DA
330
1F
100
AcDbEntity
  8
0
  6
Continuous
 62
     7
370
    18
100
AcDbCircle
 10
2.5342528852
 20
6.4011113369
 30
0.0
 40
1.142
  0
CIRCLE
  5
2DB
330
1F
100
AcDbEntity
  8
0
  6
Continuous
 62
     7
370
    18
100
AcDbCircle
 10
1.5502528852
 20
5.4171113369
 30
0.0
 40
0.0979999999999999
  0
CIRCLE
  5
2DC
330
1F
100
AcDbEntity
  8
0
  6
Continuous
 62
     7
370
    18
100
AcDbCircle
 10
3.5182528852
 20
5.4171113369
 30
0.0
 40
0.0979999999999999
  0
CIRCLE
  5
2DD
330
1F
100
AcDbEntity
  8
0
  6
Continuous
 62
     7
370
    18
100
AcDbCircle
 10
1.5502528852
 20
7.3851113369
 30
0.0
 40
0.0979999999999999
  0
CIRCLE
  5
2DE
330
1F
100
AcDbEntity
  8
0
  6
Continuous
 62
     7
370
    18
100
AcDbCircle
 10
3.5182528852
 20
7.3851113369
 30
0.0
 40
0.0979999999999999
  0
LINE
  5
2DF
330
1F
100
AcDbEntity
  8
0
  6
Continuous
 62
     7
370
    18
100
AcDbLine
 10
3.5821454681
 20
4.6087387562
 30
0.0
 11
3.6621454664
 21
4.6887387546
 31
0.0
  0
LINE
  5
2E0
330
1F
100
AcDbEntity
  8
0
  6
Continuous
 62
     7
370
    18
100
AcDbLine
 10
3.292170335
 20
4.6087387562
 30
0.0
 11
3.5821454681
 21
4.6087387562
 31
0.0
  0
ARC
  5
2E1
330
1F
100
AcDbEntity
  8
0
  6
Continuous
 62
     7
370
    18
100
AcDbCircle
 10
3.292170335
 20
4.6367167561
 30
0.0
 40
0.027977999887888
100
AcDbArc
 50
135.0012418767
 51
270.0000001364
  0
LINE
  5
2E2
330
1F
100
AcDbEntity
  8
0
  6
Continuous
 62
     7
370
    18
100
AcDbLine
 10
3.3621454676
 20
4.7462577557
 30
0.0
 11
3.2723864727
 21
4.6564997607
 31
0.0
  0
LINE
  5
2E3
330
1F
100
AcDbEntity
  8
0
  6
Continuous
 62
     7
370
    18
100
AcDbLine
 10
3.3621454676
 20
5.0612187544
 30
0.0
 11
3.3621454676
 21
4.7462577557
 31
0.0
  0
LINE
  5
2E4
330
1F
100
AcDbEntity
  8
0
  6
Continuous
 62
     7
370
    18
100
AcDbLine
 10
3.2723869727
 20
5.1509772493
 30
0.0
 11
3.3621454676
 21
5.0612187544
 31
0.0
  0
ARC
  5
2E5
330
1F
100
AcDbEntity
  8
0
  6
Continuous
 62
     7
370
    18
100
AcDbCircle
 10
3.2921703349
 20
5.170760754
 30
0.0
 40
0.0279779998878809
100
AcDbArc
 50
89.9999998632
 51
225.0002061941
  0
LINE
  5
2E6
330
1F
100
AcDbEntity
  8
0
  6
Continuous
 62
     7
370
    18
100
AcDbLine
 10
3.5821454681
 20
5.1987387539
 30
0.0
 11
3.292170335
 21
5.1987387539
 31
0.0
  0
LINE
  5
2E7
330
1F
100
AcDbEntity
  8
0
  6
Continuous
 62
     7
370
    18
100
AcDbLine
 10
3.6621454664
 20
5.1187387555
 30
0.0
 11
3.5821454681
 21
5.1987387539
 31
0.0
  0
LINE
  5
2E8
330
1F
100
AcDbEntity
  8
0
  6
Continuous
 62
     7
370
    18
100
AcDbLine
 10
3.6621454664
 20
4.6887387546
 30
0.0
 11
3.6621454664
 21
5.1187387555
 31
0.0
  0
ARC
  5
2E9
330
1F
100
AcDbEntity
  8
0
  6
Continuous
 62
     7
370
    18
100
AcDbCircle
 10
1.4212528852
 20
5.1134839199
 30
0.0
 40
0.016
100
AcDbArc
 50
135.0
 51
180.0
  0
LINE
  5
2EA
330
1F
100
AcDbEntity
  8
0
  6
Continuous
 62
     7
370
    18
100
AcDbLine
 10
1.725323953
 20
5.0801824047
 30
0.0
 11
1.8005665937
 21
5.1554250454
 31
0.0
  0
ARC
  5
2EB
330
1F
100
AcDbEntity
  8
0
  6
Continuous
 62
     7
370
    18
100
AcDbCircle
 10
1.7323950208
 20
5.0731113369
 30
0.0
 40
0.0099999999999997
100
AcDbArc
 50
135.0
 51
270.0
  0
LINE
  5
2EC
330
1F
100
AcDbEntity
  8
0
  6
Continuous
 62
     7
370
    18
100
AcDbLine
 10
1.8052528852
 20
5.1667387539
 30
0.0
 11
1.8052528852
 21
5.1841113369
 31
0.0
  0
ARC
  5
2ED
330
1F
100
AcDbEntity
  8
0
  6
Continuous
 62
     7
370
    18
100
AcDbCircle
 10
1.7892528852
 20
5.1667387539
 30
0.0
 40
0.016
100
AcDbArc
 50
315.0
 51
0.0
  0
LINE
  5
2EE
330
1F
100
AcDbEntity
  8
0
  6
Continuous
 62
     7
370
    18
100
AcDbLine
 10
1.7892528852
 20
5.2001113369
 30
0.0
 11
1.4918803022
 21
5.2001113369
 31
0.0
  0
ARC
  5
2EF
330
1F
100
AcDbEntity
  8
0
  6
Continuous
 62
     7
370
    18
100
AcDbCircle
 10
1.4918803022
 20
5.1841113369
 30
0.0
 40
0.0160000000000007
100
AcDbArc
 50
90.0
 51
135.0
  0
LINE
  5
2F0
330
1F
100
AcDbEntity
  8
0
  6
Continuous
 62
     7
370
    18
100
AcDbLine
 10
1.4805665937
 20
5.1954250454
 30
0.0
 11
1.4099391767
 21
5.1247976284
 31
0.0
  0
ARC
  5
2F1
330
1F
100
AcDbEntity
  8
0
  6
Continuous
 62
     7
370
    18
100
AcDbCircle
 10
1.9592528852
 20
5.0471113369
 30
0.0
 40
0.0160000000000036
100
AcDbArc
 50
0.0
 51
90.0
  0
ARC
  5
2F2
330
1F
100
AcDbEntity
  8
0
  6
Continuous
 62
     7
370
    18
100
AcDbCircle
 10
1.7892528852
 20
5.1841113369
 30
0.0
 40
0.0160000000000018
100
AcDbArc
 50
0.0
 51
90.0
  0
ARC
  5
2F3
330
1F
100
AcDbEntity
  8
0
  6
Continuous
 62
     7
370
    18
100
AcDbCircle
 10
1.9592528852
 20
4.7611113369
 30
0.0
 40
0.016
100
AcDbArc
 50
270.0
 51
0.0
  0
LINE
  5
2F4
330
1F
100
AcDbEntity
  8
0
  6
Continuous
 62
     7
370
    18
100
AcDbLine
 10
1.9752528852
 20
4.7611113369
 30
0.0
 11
1.9752528852
 21
4.7851113369
 31
0.0
  0
LINE
  5
2F5
330
1F
100
AcDbEntity
  8
0
  6
Continuous
 62
     7
370
    18
100
AcDbLine
 10
1.9752528852
 20
4.7851113369
 30
0.0
 11
3.1152528852
 21
4.7851113369
 31
0.0
  0
LINE
  5
2F6
330
1F
100
AcDbEntity
  8
0
  6
Continuous
 62
     7
370
    18
100
AcDbLine
 10
3.1152528852
 20
4.7851113369
 30
0.0
 11
3.1152528852
 21
4.7611113369
 31
0.0
  0
ARC
  5
2F7
330
1F
100
AcDbEntity
  8
0
  6
Continuous
 62
     7
370
    18
100
AcDbCircle
 10
3.1312528852
 20
4.7611113369
 30
0.0
 40
0.016
100
AcDbArc
 50
180.0
 51
270.0
  0
LINE
  5
2F8
330
1F
100
AcDbEntity
  8
0
  6
Continuous
 62
     7
370
    18
100
AcDbLine
 10
3.1312528852
 20
4.7451113369
 30
0.0
 11
3.2586254682
 21
4.7451113369
 31
0.0
  0
ARC
  5
2F9
330
1F
100
AcDbEntity
  8
0
  6
Continuous
 62
     7
370
    18
100
AcDbCircle
 10
3.2586254682
 20
4.7611113369
 30
0.0
 40
0.0159999999999902
100
AcDbArc
 50
270.0
 51
315.0000000001
  0
LINE
  5
2FA
330
1F
100
AcDbEntity
  8
0
  6
Continuous
 62
     7
370
    18
100
AcDbLine
 10
3.2699391767
 20
4.7497976284
 30
0.0
 11
3.3005665937
 21
4.7804250454
 31
0.0
  0
ARC
  5
2FB
330
1F
100
AcDbEntity
  8
0
  6
Continuous
 62
     7
370
    18
100
AcDbCircle
 10
3.2892528852
 20
4.7917387539
 30
0.0
 40
0.0159999999999978
100
AcDbArc
 50
315.0000000001
 51
0.0
  0
LINE
  5
2FC
330
1F
100
AcDbEntity
  8
0
  6
Continuous
 62
     7
370
    18
100
AcDbLine
 10
1.4052528852
 20
5.1134839199
 30
0.0
 11
1.4052528852
 21
4.6947387539
 31
0.0
  0
LINE
  5
2FD
330
1F
100
AcDbEntity
  8
0
  6
Continuous
 62
     7
370
    18
100
AcDbLine
 10
3.3052528852
 20
4.7917387539
 30
0.0
 11
3.3052528852
 21
5.0164839199
 31
0.0
  0
ARC
  5
2FE
330
1F
100
AcDbEntity
  8
0
  6
Continuous
 62
     7
370
    18
100
AcDbCircle
 10
3.2892528852
 20
5.0164839199
 30
0.0
 40
0.0160000000000012
100
AcDbArc
 50
0.0
 51
45.0000000001
  0
LINE
  5
2FF
330
1F
100
AcDbEntity
  8
0
  6
Continuous
 62
     7
370
    18
100
AcDbLine
 10
3.3005665937
 20
5.0277976284
 30
0.0
 11
3.2699391767
 21
5.0584250454
 31
0.0
  0
ARC
  5
300
330
1F
100
AcDbEntity
  8
0
  6
Continuous
 62
     7
370
    18
100
AcDbCircle
 10
3.2586254682
 20
5.0471113369
 30
0.0
 40
0.0160000000000028
100
AcDbArc
 50
45.0000000001
 51
90.0
  0
LINE
  5
301
330
1F
100
AcDbEntity
  8
0
  6
Continuous
 62
     7
370
    18
100
AcDbLine
 10
3.2586254682
 20
5.0631113369
 30
0.0
 11
3.1312528852
 21
5.0631113369
 31
0.0
  0
ARC
  5
302
330
1F
100
AcDbEntity
  8
0
  6
Continuous
 62
     7
370
    18
100
AcDbCircle
 10
3.1312528852
 20
5.0471113369
 30
0.0
 40
0.0160000000000009
100
AcDbArc
 50
90.0
 51
180.0
  0
LINE
  5
303
330
1F
100
AcDbEntity
  8
0
  6
Continuous
 62
     7
370
    18
100
AcDbLine
 10
3.1152528852
 20
5.0471113369
 30
0.0
 11
3.1152528852
 21
5.0231113369
 31
0.0
  0
LINE
  5
304
330
1F
100
AcDbEntity
  8
0
  6
Continuous
 62
     7
370
    18
100
AcDbLine
 10
3.1152528852
 20
5.0231113369
 30
0.0
 11
1.9752528852
 21
5.0231113369
 31
0.0
  0
LINE
  5
305
330
1F
100
AcDbEntity
  8
0
  6
Continuous
 62
     7
370
    18
100
AcDbLine
 10
1.9752528852
 20
5.0231113369
 30
0.0
 11
1.9752528852
 21
5.0471113369
 31
0.0
  0
ARC
  5
306
330
1F
100
AcDbEntity
  8
0
  6
Continuous
 62
     7
370
    18
100
AcDbCircle
 10
1.7323950208
 20
4.7351113369
 30
0.0
 40
0.0100000000000007
100
AcDbArc
 50
90.0
 51
225.0
  0
LINE
  5
307
330
1F
100
AcDbEntity
  8
0
  6
Continuous
 62
     7
370
    18
100
AcDbLine
 10
1.9592528852
 20
5.0631113369
 30
0.0
 11
1.7323950208
 21
5.0631113369
 31
0.0
  0
ARC
  5
308
330
1F
100
AcDbEntity
  8
0
  6
Continuous
 62
     7
370
    18
100
AcDbCircle
 10
1.4212528852
 20
4.6947387539
 30
0.0
 40
0.016000000000001
100
AcDbArc
 50
180.0
 51
225.0
  0
LINE
  5
309
330
1F
100
AcDbEntity
  8
0
  6
Continuous
 62
     7
370
    18
100
AcDbLine
 10
1.4099391767
 20
4.6834250454
 30
0.0
 11
1.4805665937
 21
4.6127976284
 31
0.0
  0
ARC
  5
30A
330
1F
100
AcDbEntity
  8
0
  6
Continuous
 62
     7
370
    18
100
AcDbCircle
 10
1.4918803022
 20
4.6241113369
 30
0.0
 40
0.0160000000000018
100
AcDbArc
 50
225.0
 51
270.0
  0
LINE
  5
30B
330
1F
100
AcDbEntity
  8
0
  6
Continuous
 62
     7
370
    18
100
AcDbLine
 10
1.4918803022
 20
4.6081113369
 30
0.0
 11
1.7892528852
 21
4.6081113369
 31
0.0
  0
ARC
  5
30C
330
1F
100
AcDbEntity
  8
0
  6
Continuous
 62
     7
370
    18
100
AcDbCircle
 10
1.7892528852
 20
4.6241113369
 30
0.0
 40
0.0160000000000002
100
AcDbArc
 50
270.0
 51
0.0
  0
LINE
  5
30D
330
1F
100
AcDbEntity
  8
0
  6
Continuous
 62
     7
370
    18
100
AcDbLine
 10
1.8052528852
 20
4.6241113369
 30
0.0
 11
1.8052528852
 21
4.6414839199
 31
0.0
  0
ARC
  5
30E
330
1F
100
AcDbEntity
  8
0
  6
Continuous
 62
     7
370
    18
100
AcDbCircle
 10
1.7892528852
 20
4.6414839199
 30
0.0
 40
0.0160000000000022
100
AcDbArc
 50
0.0
 51
45.0
  0
LINE
  5
30F
330
1F
100
AcDbEntity
  8
0
  6
Continuous
 62
     7
370
    18
100
AcDbLine
 10
1.8005665937
 20
4.6527976284
 30
0.0
 11
1.725323953
 21
4.7280402691
 31
0.0
  0
LINE
  5
310
330
1F
100
AcDbEntity
  8
0
  6
Continuous
 62
     7
370
    18
100
AcDbLine
 10
1.7323950208
 20
4.7451113369
 30
0.0
 11
1.9592528852
 21
4.7451113369
 31
0.0
  0
DIMENSION
  5
311
330
1F
100
AcDbEntity
  8
0
  6
Continuous
 62
     7
370
    18
100
AcDbDimension
  2
_D_4
 10
0.5391111529
 20
3.4071113369
 30
0.0
 11
0.5391111529
 21
4.9041113369
 31
0.0
 70
   160
  1
<>
 71
     2
 42
-1.0
  3
SLDDIMSTYLE5
100
AcDbAlignedDimension
 13
2.4342528852
 23
6.4011113369
 33
0.0
 14
2.4342528852
 24
3.4071113369
 34
0.0
 50
90.0
100
AcDbRotatedDimension
  0
MTEXT
  5
326
330
1F
100
AcDbEntity
  8
0
  6
Continuous
 62
     7
370
     0
100
AcDbMText
 10
2.6012004023
 20
1.6980541789
 30
0.0
 40
0.125
 41
0.0
 71
     2
 72
     1
  1
\LAPPLICATION
  7
SLDTEXTSTYLE0
 73
     1
 44
1.0
  0
INSERT
  5
32C
102
{ACAD_REACTORS
330
32D
102
}
330
1F
100
AcDbEntity
  8
0
  6
Continuous
 62
     7
370
     0
100
AcDbBlockReference
  2
SW_NOTE_3
 10
3.7025366908
 20
7.967015934
 30
0.0
  0
LEADER
  5
32D
330
1F
100
AcDbEntity
  8
0
  6
Continuous
 62
     7
370
     0
100
AcDbLeader
  3
SLDDIMSTYLE4
 73
     2
 76
     3
 10
3.1144253224
 20
7.5443363255
 30
0.0
 10
3.4525366908
 20
7.967015934
 30
0.0
 10
3.7025366908
 20
7.967015934
 30
0.0
340
32C
  0
INSERT
  5
333
102
{ACAD_REACTORS
330
334
102
}
330
1F
100
AcDbEntity
  8
0
  6
Continuous
 62
     7
370
     0
100
AcDbBlockReference
  2
SW_NOTE_4
 10
3.8398226796
 20
1.8954323623
 30
0.0
  0
LEADER
  5
334
330
1F
100
AcDbEntity
  8
0
  6
Continuous
 62
     7
370
     0
100
AcDbLeader
  3
SLDDIMSTYLE4
 73
     2
 76
     3
 10
3.2764150974
 20
2.3137618381
 30
0.0
 10
3.5898226796
 20
1.8954323623
 30
0.0
 10
3.8398226796
 20
1.8954323623
 30
0.0
340
333
  0
INSERT
  5
33C
330
1F
100
AcDbEntity
  8
0
  6
Continuous
 62
     7
370
     0
100
AcDbBlockReference
  2
SW_CENTERMARKSYMBOL_2
 10
2.5342528852
 20
6.4011113369
 30
0.0
  0
INSERT
  5
344
330
1F
100
AcDbEntity
  8
0
  6
Continuous
 62
     7
370
     0
100
AcDbBlockReference
  2
SW_CENTERMARKSYMBOL_3
 10
2.5342528852
 20
3.4071113369
 30
0.0
  0
OLE2FRAME
  5
345
330
1F
100
AcDbEntity
  8
0
100
AcDbOle2Frame
 70
     2
  3
Paintbrush Picture
 10
9.0178120406
 20
1.3267570784
 30
0.0
 11
10.4397105087
 21
1.1242314806
 31
0.0
 71
     2
 72
     0
 73
     1
 90
     7296
310
8055C64EE7A81E092240C05F59A1653AF53F0000000000000000FD155DBC21E1
310
2440C05F59A1653AF53F0000000000000000FD155DBC21E12440A1732426DAFC
310
F13F0000000000000000C64EE7A81E092240A1732426DAFCF13F000000000000
310
00000000000001000000000100000100000001000000000001000000001C0000
310
D0CF11E0A1B11AE1000000000000000000000000000000003E000300FEFF0900
310
0600000000000000000000000100000001000000000000000010000002000000
310
01000000FEFFFFFF0000000000000000FFFFFFFFFFFFFFFFFFFFFFFFFFFFFFFF
310
FFFFFFFFFFFFFFFFFFFFFFFFFFFFFFFFFFFFFFFFFFFFFFFFFFFFFFFFFFFFFFFF
310
FFFFFFFFFFFFFFFFFFFFFFFFFFFFFFFFFFFFFFFFFFFFFFFFFFFFFFFFFFFFFFFF
310
FFFFFFFFFFFFFFFFFFFFFFFFFFFFFFFFFFFFFFFFFFFFFFFFFFFFFFFFFFFFFFFF
310
FFFFFFFFFFFFFFFFFFFFFFFFFFFFFFFFFFFFFFFFFFFFFFFFFFFFFFFFFFFFFFFF
310
FFFFFFFFFFFFFFFFFFFFFFFFFFFFFFFFFFFFFFFFFFFFFFFFFFFFFFFFFFFFFFFF
310
FFFFFFFFFFFFFFFFFFFFFFFFFFFFFFFFFFFFFFFFFFFFFFFFFFFFFFFFFFFFFFFF
310
FFFFFFFFFFFFFFFFFFFFFFFFFFFFFFFFFFFFFFFFFFFFFFFFFFFFFFFFFFFFFFFF
310
FFFFFFFFFFFFFFFFFFFFFFFFFFFFFFFFFFFFFFFFFFFFFFFFFFFFFFFFFFFFFFFF
310
FFFFFFFFFFFFFFFFFFFFFFFFFFFFFFFFFFFFFFFFFFFFFFFFFFFFFFFFFFFFFFFF
310
FFFFFFFFFFFFFFFFFFFFFFFFFFFFFFFFFFFFFFFFFFFFFFFFFFFFFFFFFFFFFFFF
310
FFFFFFFFFFFFFFFFFFFFFFFFFFFFFFFFFFFFFFFFFFFFFFFFFFFFFFFFFFFFFFFF
310
FFFFFFFFFFFFFFFFFFFFFFFFFFFFFFFFFFFFFFFFFFFFFFFFFFFFFFFFFFFFFFFF
310
FFFFFFFFFFFFFFFFFFFFFFFFFFFFFFFFFFFFFFFFFFFFFFFFFFFFFFFFFFFFFFFF
310
FDFFFFFFFEFFFFFFFEFFFFFFFEFFFFFF05000000060000000700000008000000
310
090000000A0000000B0000000C000000FEFFFFFFFFFFFFFFFFFFFFFFFFFFFFFF
310
FFFFFFFFFFFFFFFFFFFFFFFFFFFFFFFFFFFFFFFFFFFFFFFFFFFFFFFFFFFFFFFF
310
FFFFFFFFFFFFFFFFFFFFFFFFFFFFFFFFFFFFFFFFFFFFFFFFFFFFFFFFFFFFFFFF
310
FFFFFFFFFFFFFFFFFFFFFFFFFFFFFFFFFFFFFFFFFFFFFFFFFFFFFFFFFFFFFFFF
310
FFFFFFFFFFFFFFFFFFFFFFFFFFFFFFFFFFFFFFFFFFFFFFFFFFFFFFFFFFFFFFFF
310
FFFFFFFFFFFFFFFFFFFFFFFFFFFFFFFFFFFFFFFFFFFFFFFFFFFFFFFFFFFFFFFF
310
FFFFFFFFFFFFFFFFFFFFFFFFFFFFFFFFFFFFFFFFFFFFFFFFFFFFFFFFFFFFFFFF
310
FFFFFFFFFFFFFFFFFFFFFFFFFFFFFFFFFFFFFFFFFFFFFFFFFFFFFFFFFFFFFFFF
310
FFFFFFFFFFFFFFFFFFFFFFFFFFFFFFFFFFFFFFFFFFFFFFFFFFFFFFFFFFFFFFFF
310
FFFFFFFFFFFFFFFFFFFFFFFFFFFFFFFFFFFFFFFFFFFFFFFFFFFFFFFFFFFFFFFF
310
FFFFFFFFFFFFFFFFFFFFFFFFFFFFFFFFFFFFFFFFFFFFFFFFFFFFFFFFFFFFFFFF
310
FFFFFFFFFFFFFFFFFFFFFFFFFFFFFFFFFFFFFFFFFFFFFFFFFFFFFFFFFFFFFFFF
310
FFFFFFFFFFFFFFFFFFFFFFFFFFFFFFFFFFFFFFFFFFFFFFFFFFFFFFFFFFFFFFFF
310
FFFFFFFFFFFFFFFFFFFFFFFFFFFFFFFFFFFFFFFFFFFFFFFFFFFFFFFFFFFFFFFF
310
FFFFFFFFFFFFFFFFFFFFFFFFFFFFFFFFFFFFFFFFFFFFFFFFFFFFFFFFFFFFFFFF
310
52006F006F007400200045006E00740072007900000000000000000000000000
310
0000000000000000000000000000000000000000000000000000000000000000
310
16000500FFFFFFFFFFFFFFFF020000000A00030000000000C000000000000046
310
000000000000000000000000F0949A95C909D50103000000C000000000000000
310
01004F006C006500000000000000000000000000000000000000000000000000
310
0000000000000000000000000000000000000000000000000000000000000000
310
0A000200FFFFFFFFFFFFFFFFFFFFFFFF00000000000000000000000000000000
310
0000000000000000000000000000000000000000000000001400000000000000
310
010043006F006D0070004F0062006A0000000000000000000000000000000000
310
0000000000000000000000000000000000000000000000000000000000000000
310
120002010100000003000000FFFFFFFF00000000000000000000000000000000
310
0000000000000000000000000000000000000000010000004D00000000000000
310
01004F006C006500310030004E00610074006900760065000000000000000000
310
0000000000000000000000000000000000000000000000000000000000000000
310
1A000200FFFFFFFFFFFFFFFFFFFFFFFF00000000000000000000000000000000
310
000000000000000000000000000000000000000004000000E411000000000000
310
FEFFFFFF02000000FEFFFFFFFFFFFFFFFFFFFFFFFFFFFFFFFFFFFFFFFFFFFFFF
310
FFFFFFFFFFFFFFFFFFFFFFFFFFFFFFFFFFFFFFFFFFFFFFFFFFFFFFFFFFFFFFFF
310
FFFFFFFFFFFFFFFFFFFFFFFFFFFFFFFFFFFFFFFFFFFFFFFFFFFFFFFFFFFFFFFF
310
FFFFFFFFFFFFFFFFFFFFFFFFFFFFFFFFFFFFFFFFFFFFFFFFFFFFFFFFFFFFFFFF
310
FFFFFFFFFFFFFFFFFFFFFFFFFFFFFFFFFFFFFFFFFFFFFFFFFFFFFFFFFFFFFFFF
310
FFFFFFFFFFFFFFFFFFFFFFFFFFFFFFFFFFFFFFFFFFFFFFFFFFFFFFFFFFFFFFFF
310
FFFFFFFFFFFFFFFFFFFFFFFFFFFFFFFFFFFFFFFFFFFFFFFFFFFFFFFFFFFFFFFF
310
FFFFFFFFFFFFFFFFFFFFFFFFFFFFFFFFFFFFFFFFFFFFFFFFFFFFFFFFFFFFFFFF
310
FFFFFFFFFFFFFFFFFFFFFFFFFFFFFFFFFFFFFFFFFFFFFFFFFFFFFFFFFFFFFFFF
310
FFFFFFFFFFFFFFFFFFFFFFFFFFFFFFFFFFFFFFFFFFFFFFFFFFFFFFFFFFFFFFFF
310
FFFFFFFFFFFFFFFFFFFFFFFFFFFFFFFFFFFFFFFFFFFFFFFFFFFFFFFFFFFFFFFF
310
FFFFFFFFFFFFFFFFFFFFFFFFFFFFFFFFFFFFFFFFFFFFFFFFFFFFFFFFFFFFFFFF
310
FFFFFFFFFFFFFFFFFFFFFFFFFFFFFFFFFFFFFFFFFFFFFFFFFFFFFFFFFFFFFFFF
310
FFFFFFFFFFFFFFFFFFFFFFFFFFFFFFFFFFFFFFFFFFFFFFFFFFFFFFFFFFFFFFFF
310
FFFFFFFFFFFFFFFFFFFFFFFFFFFFFFFFFFFFFFFFFFFFFFFFFFFFFFFFFFFFFFFF
310
FFFFFFFFFFFFFFFFFFFFFFFFFFFFFFFFFFFFFFFFFFFFFFFFFFFFFFFFFFFFFFFF
310
0100000200000000000000000000000000000000000000000000000000000000
310
0000000000000000000000000000000000000000000000000000000000000000
310
0100FEFF030A0000FFFFFFFF0A00030000000000C00000000000004607000000
310
5042727573680007000000504272757368000700000050427275736800F439B2
310
7100000000000000000000000000000000000000000000000000000000000000
310
0000000000000000000000000000000000000000000000000000000000000000
310
0000000000000000000000000000000000000000000000000000000000000000
310
0000000000000000000000000000000000000000000000000000000000000000
310
0000000000000000000000000000000000000000000000000000000000000000
310
0000000000000000000000000000000000000000000000000000000000000000
310
0000000000000000000000000000000000000000000000000000000000000000
310
0000000000000000000000000000000000000000000000000000000000000000
310
0000000000000000000000000000000000000000000000000000000000000000
310
0000000000000000000000000000000000000000000000000000000000000000
310
0000000000000000000000000000000000000000000000000000000000000000
310
0000000000000000000000000000000000000000000000000000000000000000
310
E0110000424DDE11000000000000360400002800000096000000170000000100
310
08000000000000000000E7240000E72400000001000000010000000000FF0101
310
01FF020202FF030303FF040404FF050505FF060606FF070707FF080808FF0909
310
09FF0A0A0AFF0B0B0BFF0C0C0CFF0D0D0DFF0E0E0EFF0F0F0FFF101010FF1111
310
11FF121212FF131313FF141414FF151515FF161616FF171717FF181818FF1919
310
19FF1A1A1AFF1B1B1BFF1C1C1CFF1D1D1DFF1E1E1EFF1F1F1FFF202020FF2121
310
21FF222222FF232323FF242424FF252525FF262626FF272727FF282828FF2929
310
29FF2A2A2AFF2B2B2BFF2C2C2CFF2D2D2DFF2E2E2EFF2F2F2FFF303030FF3131
310
31FF323232FF333333FF343434FF353535FF363636FF373737FF383838FF3939
310
39FF3A3A3AFF3B3B3BFF3C3C3CFF3D3D3DFF3E3E3EFF3F3F3FFF404040FF4141
310
41FF424242FF434343FF444444FF454545FF464646FF474747FF484848FF4949
310
49FF4A4A4AFF4B4B4BFF4C4C4CFF4D4D4DFF4E4E4EFF4F4F4FFF505050FF5151
310
51FF525252FF535353FF545454FF555555FF565656FF575757FF585858FF5959
310
59FF5A5A5AFF5B5B5BFF5C5C5CFF5D5D5DFF5E5E5EFF5F5F5FFF606060FF6161
310
61FF626262FF636363FF646464FF656565FF666666FF676767FF686868FF6969
310
69FF6A6A6AFF6B6B6BFF6C6C6CFF6D6D6DFF6E6E6EFF6F6F6FFF707070FF7171
310
71FF727272FF737373FF747474FF757575FF767676FF777777FF787878FF7979
310
79FF7A7A7AFF7B7B7BFF7C7C7CFF7D7D7DFF7E7E7EFF7F7F7FFF808080FF8181
310
81FF828282FF838383FF848484FF858585FF868686FF878787FF888888FF8989
310
89FF8A8A8AFF8B8B8BFF8C8C8CFF8D8D8DFF8E8E8EFF8F8F8FFF909090FF9191
310
91FF929292FF939393FF949494FF959595FF969696FF979797FF989898FF9999
310
99FF9A9A9AFF9B9B9BFF9C9C9CFF9D9D9DFF9E9E9EFF9F9F9FFFA0A0A0FFA1A1
310
A1FFA2A2A2FFA3A3A3FFA4A4A4FFA5A5A5FFA6A6A6FFA7A7A7FFA8A8A8FFA9A9
310
A9FFAAAAAAFFABABABFFACACACFFADADADFFAEAEAEFFAFAFAFFFB0B0B0FFB1B1
310
B1FFB2B2B2FFB3B3B3FFB4B4B4FFB5B5B5FFB6B6B6FFB7B7B7FFB8B8B8FFB9B9
310
B9FFBABABAFFBBBBBBFFBCBCBCFFBDBDBDFFBEBEBEFFBFBFBFFFC0C0C0FFC1C1
310
C1FFC2C2C2FFC3C3C3FFC4C4C4FFC5C5C5FFC6C6C6FFC7C7C7FFC8C8C8FFC9C9
310
C9FFCACACAFFCBCBCBFFCCCCCCFFCDCDCDFFCECECEFFCFCFCFFFD0D0D0FFD1D1
310
D1FFD2D2D2FFD3D3D3FFD4D4D4FFD5D5D5FFD6D6D6FFD7D7D7FFD8D8D8FFD9D9
310
D9FFDADADAFFDBDBDBFFDCDCDCFFDDDDDDFFDEDEDEFFDFDFDFFFE0E0E0FFE1E1
310
E1FFE2E2E2FFE3E3E3FFE4E4E4FFE5E5E5FFE6E6E6FFE7E7E7FFE8E8E8FFE9E9
310
E9FFEAEAEAFFEBEBEBFFECECECFFEDEDEDFFEEEEEEFFEFEFEFFFF0F0F0FFF1F1
310
F1FFF2F2F2FFF3F3F3FFF4F4F4FFF5F5F5FFF6F6F6FFF7F7F7FFF8F8F8FFF9F9
310
F9FFFAFAFAFFFBFBFBFFFCFCFCFFFDFDFDFFFEFEFEFFFFFFFFFFFFFFFFFFFFFF
310
C94E4E4E4F4E4EFFFFFFFFFFC94E4E4E4E4E72FFFFFFFFFFFFFF734E4D4E4E4E
310
C9FFFFFFFFFFAA683516171616265B9BE9FFFFFFFFFF4E4E4E4D4E4EFFFFFFFF
310
FFFFFFFF4E4E4F4E4D4E4E4E4F4E4E4F4D4E4E4E4E4E4D4E4F4E4D4E4E4EAAFF
310
FFFFFFFFFFEA4E4F4F4E4E4E4E4E4D4D4F4F4E4E4E4E4E5B7FAAFFFFFFFFFFFF
310
C9744E1716171616164D8DEAFFFFFFFF0000FFFFFFFFFFFFBA161617161716FF
310
FFFFFFFFB917171616174FFFFFFFFFFFFFFF4E1716161616B9FFFFFFB9341717
310
1716171617171616268CFFFFFFFF161617161617FFFFFFFFFFFFFFB917161717
310
1617167F807F7F7F7F7F7F807F7F807F7F807F7F7F414EFFFFFFFFFFFF8C167F
310
7F807F7F7F7E7F7F807F807F7F807F4E3417258EFFFFEA4E162674AABAEAEBBA
310
AA74341680FFFFFF0000FFFFFFFFFFFFB9171717171617FFFFFFFFFFBB161616
310
16164EFFFFFFFFFFFFFF4E1717171717B9FFFF9C171617171716161616171616
310
171766FFFFFF161717161617FFFFFFFFFFFFFF8E16171717161616FFFFFFFFFF
310
FFFFFFFFFFFFFFFFFFFFFFFFFFAA16D9FFFFFFFFFF3467FFFFFFFFEAFFFFFFFF
310
FFFFFFFFFFFFFFFFFFCA671667EB26278DFFFFFFFFFFFFFFFFFFFF8C2541EAFF
310
0000FFFFFFFFFFFFB9171717171716FFFFFFFFFFBA16171617174EFFFFFFFFFF
310
FFFF4E1717161616BAFF9B1617161616171716171617161616161667FFFF1616
310
16161716FFFFFFFFFFFFFF7F16161617174017FFFFFFFFFFFFFFFFFFFFFFFFFF
310
FFFFFFFFFFFF344E7F7F7F7E7417DAFFFFFFFF80FFFFFFFFFFFFFFFFFFFFFFFF
310
FFFFFF9B163425CAFFFFFFFFFFFFFFFFFFFFFFFFCA2667FF0000FFFFFFFFFFFF
310
BA171717171617FFFFFFFFFFB916171716164EFFFFFFFFFFFFFF4F1716161717
310
B9C91716171616161716161617171616161617168DFF161716161717FFFFFFFF
310
FFFFFF7F17171716164F16FFFFFFFFFFFFFFFFFFFFFFFFFFFFFFFFFFFFFF9B16
310
17161617174EFFFFFFFFFF34FFFFFFFFD9BABABABABADAFFFFFFFFFF7F16AAFF
310
FFFFFFFFFFFFFFFFFFFFFFFFFF9C16BA0000FFFFFFFFFFFFB9161717161717FF
310
FFFFFFFFB917161716174DFFFFFFFFFFFFFF4E1616161616BA4E161617171716
310
419BEAEAAA4E16161617161726E9171717161616FFFFFFFFFFFFFF4F16161717
310
164E16FFFFFFFFFFBAB9B9B9B9B9BABABACAFFFFFFFFFFFFFFFFFFFFFFFFFFFF
310
FFFFBA16FFFFFFFF7F1617161617174DEAFFFFFFEA41FFFFFFFFFFAA4D16174E
310
9BFFFFFFFFFF34730000FFFFFFFFFFFFB9161617171617FFFFFFFFFFBA161616
310
16164EFFFFFFFFFFFFFF4F16161717169B1617161716175BFFFFFFFFFFFF7417
310
16171616168D171717161617FFFFFFFFFFFFEA2616171717167416FFFFFFFFFF
310
16171616171717171717EAFFFFFFFFFFFFFFFFFFFFFFFFFFFFFF6716FFFFFFFF
310
7F4EFFFFFFFFBA2573FFFFFFFFBAFFFFFFFFAA167FB9BB9B269BFFFFFFFF664F
310
0000FFFFFFFFFFFFB9171616161616FFFFFFFFFFBA16161717164EFFFFFFFFFF
310
FFFF4E16161616174E161617171626EAFFFFFFFFFFFFFF4E16161616164E1716
310
16161617FFFFFFFFFFFF671616161716347F16FFFFFFFFFF16B9FFFFFFFFFFFF
310
D9168DFFFFFFFFFFFFFFFFFFFFFFFFFFFFEA1716FFFFFFFF7F4EFFFFFFFFFF7F
310
4EFFFFFFFFFFFFFFFFFF5B66FFFFFFEA347FFFFFFFFF7F4D0000FFFFFFFFFFFF
310
B9171616171617FFFFFFFFFFBA17161716174EFFFFFFFFFFFFFF4D1716161617
310
17161716161673FFFFFFFFFFFFFFFF9B1617161717161616171616174F4E4E4E
310
4E341616171616167E7F16FFFFFFFFFF16BAFFFFFFFFFFFFFF5B41FFFFFFFF34
310
1616171616BAFFFFFF9B1716FFFFFFFF7F4EFFFFFFFFFF4E4EFFFFFFFF734E4E
310
4E4E267EDA9B67164EEAFFFFFFFF744D0000FFFFFFFFFFFFBA171717161617FF
310
FFFFFFFFBA1616171616347F7F7F7F80807F331616161717161717161716B9FF
310
FFFFFFFFFFFFFFE9161616161616171716161716171616161616171616171734
310
EA7F16FFFFFFFFFF16BAFFFFFFFFFFFFFFAA17C9FFFFFF7326BABA5B25FFFFFF
310
FF401716FFFFFFFF7F264F4E4E4E4217AAFFFFFFEA16677F73261616164173CA
310
FFFFFFFFFFFF417F0000FFFFFFFFFFFFBA171616171617FFFFFFFFFFBA161616
310
17171616161616161616161717161616161616161617EAFFFFFFFFFFFFFFFFFF
310
261717161716161617161616161617161617161616174EEAFF8016FFFFFFFFFF
310
17BAFFFFFFFFFFFFFFFF3467FFFFFFC916C9FF3467FFFFFFDA166716FFFFFFFF
310
9C4D4E4E4E4E67AAFFFFFFFF6834FF7F262567AAEAFFFFFFFFFFFFFFFF9B17D9
310
0000FFFFFFFFFFFFB9161616161616FFFFFFFFFFBA1617161717171616161616
310
1716171716161716161617171716FFFFFFFFFFFFFFFFFFFF4E17161716171616
310
1617171616161716171717161616169BFF7F17FFFFFFFFFF17B9FFFFFFFFFFFF
310
FFFF7326FFFFFFFF3473DA16AAFFFFFF7317AA16FFFFFFFFFFFFFFFFFFFFFFFF
310
FFFFEA6725BA4E167FEAFFFFFFFFFFFFFFFFFFFF9C167FFF0000FFFFFFFFFFFF
310
B9161717171716FFFFFFFFFFBA16161716171616171717161617161716161616
310
171617171617EAFFFFFFFFFFFFFFFFFF26161717161616161616161617171616
310
1616161616171616AA8016FFFFFFFFFF16BAFFFFFFFFFFFFFFFFDA179BFFFFFF
310
74348D26FFFFFFFF2566B917FFFFFFFFD8BAB9BAB9BADAFFFFEA41169B7425C9
310
FFFFFFFFFFFFFFFFFFFFAB4F1680FFFF0000FFFFFFFFFFFFBA161717171617FF
310
FFFFFFFFBA17161717161617171617161616161617171616171716171617BBFF
310
FFFFFFFFFFFFFFE9171616161617161617161716FFFFFFFFFFD9671616161617
310
348017FFFFFFFFFF16BAFFFFFFFFFFFFFFFFFF4E5AFFFFFFC916265AFFFFFFAA
310
16AABA16FFFFFFFF7F1617161616179BFFFFEB4127168DFFFFFFFFFFFFFFD99B
310
6734175AC9FFFFFF0000FFFFFFFFFFFFB9161617171617FFFFFFFFFFBB161616
310
1616347F807F7F7F7F8033171716171617171616161672FFFFFFFFFFFFFFFF9C
310
171617171617161716161617FFFFFFFFFFFFFF4117161616174E17FFFFFFFFFF
310
16BAFFFFFFFFFFFFFFFFFF9B16DAFFFFFF34169BFFFFFF5A26FFB917FFFFFFFF
310
7F4EFFFFFFEA5B26FFFFFFEA2616EAFFFFFFFFDA743416331617414E4E4E4ECA
310
0000FFFFFFFFFFFFBA161716161616FFFFFFFFFFBA17171616164EFFFFFFFFFF
310
FFFF4E16161717174E161717171626EBFFFFFFFFFFFFFF4E16161617165B1616
310
16171617FFFFFFFFFFFFFF6716161616161617FFFFFFFFFF16BAFFFFFFFFFFFF
310
FFFFFFEA268CFFFFFF7316EAFFFFEB1774FFB916FFFFFFFF7F4EFFFFFFFF7316
310
FFFFFFFF6826FFFFFFFFEB264D9CEABA257F807F7F6616BA0000FFFFFFFFFFFF
310
BA161716161616FFFFFFFFFFBA16171616164DFFFFFFFFFFFFFF4E1617161617
310
9B1617171717165BEBFFFFFFFFFF671616161617179B171616161616FFFFFFFF
310
FFFFFF3417161617171617FFFFFFFFFF17BAFFFFFFFFFFFFFFFFFFFF6734FFFF
310
FFEBCAFFFFFF8D17C9FFBA17FFFFFFFF7F357F808066174FFFFFFFFF7F16FFFF
310
FFFFD91673B99B415BFFFFFFFFBA16DA00009B7F7F7F807F671617161616167F
310
80807F7E6617161616164EFFFFFFFFFFFFFF4E1616161617B94E171716161616
310
349BC9D9AA4E16171616161634FF161617161717B9B9BAB9BA9B411716171716
310
163416FFFFFFFFFF16B9FFFFFFFFFFFFFFFFFFFFC917CAFFFFFFFFFFFFFF3342
310
FFFFBA17FFFFFFFF9B4E4E4F4E4E66EAFFFFFFFF5B16C9FFFFFFFFAA4E164E73
310
EAFFFFFFFF8D26FF00004E161716161616171617171616171717171617161616
310
17174EFFFFFFFFFFFFFF4E1717171616B9D92616171716171716171717171716
310
16171716AAFF161717171617161617171616161617161716166717FFFFFFFFFF
310
17B9FFFFFFFFFFFFFFFFFFFFFF3467FFFFFFFFFFFFCA168CFFFFBB17FFFFFFFF
310
FFFFFFFFFFFFFFFFFFFFFFEA26265BFFFFFFFFFFFFFFFFFFFFFFFFFFEA3467FF
310
00004D16161616161617161717161617161616171617171616164EFFFFFFFFFF
310
FFFF4D1617161616BAFF9B1616161616161716161616171717161766FFFF1616
310
16171617161617161716171616171717667F16FFFFFFFFFF17BAFFFFFFFFFFFF
310
FFFFFFFFFF8C26EAFFFFFFFFFF6617EAFFFFBA17FFFFFFFFFFFFFFFFFFFFFFFF
310
FFFFEA5A25BA269BFFFFFFFFFFFFFFFFFFFFFFFF6616DAFF00004E1616171616
310
1616161616161716161617171616171616174EFFFFFFFFFFFFFF4D1717171716
310
B9FFFF9C161616161616161716161717171667FFFFFF17161717171716161617
310
1716161616161641E97E16FFFFFFFFFF16B9FFFFFFFFFFFFFFFFFFFFFFEA169B
310
FFFFFFFFEA265BFFFFFFB916FFFFFFFFFFFFFFFFFFFFFFFFFF9B3416AAFF9B17
310
67EAFFFFFFFFFFFFFFFFEA5B169BFFFF00004D17161716161616161717171616
310
161717161716171716174EFFFFFFFFFFFFFF4D1616161616BAFFFFFFBB411616
310
161716161616171634ABFFFFFFFF161716161617171716171617171617267FFF
310
FF7F164E4E4E4E4F17BAFFFFFFFFFFFFFFFFFFFFFFFF66344D4E4E4F4117AAFF
310
FFFFBA174E4E4E4D4E4D4D4E4E4E4E4116174EBBFFFFFFCA342666ABEAFFFFEA
310
AA6725269CFFFFFF0000724F4E4D4D4D4E4D4D4E4E4E4D4E4E4E4E4E4E4E4E4D
310
4E4E74FFFFFFFFFFFFFF734E4E4E4D4ECAFFFFFFFFFFAA663416171717265B9B
310
FFFFFFFFFFFF7F8080807F80807F7F7F7F7F807FBAFFFFFFFF9B4E4E4F4D4D4E
310
4DC9FFFFFFFFFFFFFFFFFFFFFFFFBA4E4E4E4E4D4E4EFFFFFFFFC94E4E4E4F4E
310
4E4E4D4E4E5A807F9CD9FFFFFFFFFFFFFF9B5B2617171716174E8DEAFFFFFFFF
310
0000000000000000000000000000000000000000000000000000000000000000
  1
OLE
  0
ENDSEC
  0
SECTION
  2
OBJECTS
  0
DICTIONARY
  5
C
330
0
100
AcDbDictionary
281
     1
  3
ACAD_GROUP
350
D
  3
ACAD_LAYOUT
350
1A
  3
ACAD_MLINESTYLE
350
17
  3
ACAD_PLOTSETTINGS
350
19
  3
ACAD_PLOTSTYLENAME
350
E
  3
ACAD_SCALELIST
350
47
  0
DICTIONARY
  5
D
102
{ACAD_REACTORS
330
C
102
}
330
C
100
AcDbDictionary
281
     1
  0
DICTIONARY
  5
1A
102
{ACAD_REACTORS
330
C
102
}
330
C
100
AcDbDictionary
281
     1
  3
Layout1
350
1E
  3
Layout2
350
26
  3
Model
350
22
  0
DICTIONARY
  5
17
102
{ACAD_REACTORS
330
C
102
}
330
C
100
AcDbDictionary
281
     1
  3
Standard
350
18
  0
DICTIONARY
  5
19
102
{ACAD_REACTORS
330
C
102
}
330
C
100
AcDbDictionary
281
     1
  0
ACDBDICTIONARYWDFLT
  5
E
102
{ACAD_REACTORS
330
C
102
}
330
C
100
AcDbDictionary
281
     1
  3
Normal
350
F
100
AcDbDictionaryWithDefault
340
F
  0
DICTIONARY
  5
47
102
{ACAD_REACTORS
330
C
102
}
330
C
100
AcDbDictionary
281
     1
  3
A0
350
48
  3
A1
350
49
  3
A2
350
4A
  3
A3
350
4B
  3
A4
350
4C
  3
A5
350
4D
  3
A6
350
4E
  3
A7
350
4F
  3
A8
350
50
  3
A9
350
51
  3
B0
350
52
  3
B1
350
53
  3
B2
350
54
  3
B3
350
55
  3
B4
350
56
  3
B5
350
57
  3
B6
350
58
  3
B7
350
59
  3
B8
350
5A
  3
B9
350
5B
  3
C0
350
5C
  3
C1
350
5D
  3
C2
350
5E
  3
C3
350
5F
  3
C4
350
60
  3
C5
350
61
  3
C6
350
62
  3
C7
350
63
  3
C8
350
64
  3
C9
350
65
  3
D0
350
66
  3
D1
350
67
  3
D2
350
68
  0
LAYOUT
  5
1E
102
{ACAD_REACTORS
330
1A
102
}
330
1A
100
AcDbPlotSettings
  1

  2
none_device
  4

  6

 40
0.0
 41
0.0
 42
0.0
 43
0.0
 44
0.0
 45
0.0
 46
0.0
 47
0.0
 48
0.0
 49
0.0
140
0.0
141
0.0
142
1.0
143
1.0
 70
   688
 72
     0
 73
     0
 74
     5
  7

 75
    16
147
1.0
148
0.0
149
0.0
100
AcDbLayout
  1
Layout1
 70
     1
 71
     1
 10
0.0
 20
0.0
 11
12.0
 21
9.0
 12
0.0
 22
0.0
 32
0.0
 14
1.0000000000E+20
 24
1.0000000000E+20
 34
1.0000000000E+20
 15
-1.0000000000E+20
 25
-1.0000000000E+20
 35
-1.0000000000E+20
146
0.0
 13
0.0
 23
0.0
 33
0.0
 16
1.0
 26
0.0
 36
0.0
 17
0.0
 27
1.0
 37
0.0
 76
     0
330
1B
  0
LAYOUT
  5
26
102
{ACAD_REACTORS
330
1A
102
}
330
1A
100
AcDbPlotSettings
  1

  2
none_device
  4

  6

 40
0.0
 41
0.0
 42
0.0
 43
0.0
 44
0.0
 45
0.0
 46
0.0
 47
0.0
 48
0.0
 49
0.0
140
0.0
141
0.0
142
1.0
143
1.0
 70
   688
 72
     0
 73
     0
 74
     5
  7

 75
    16
147
1.0
148
0.0
149
0.0
100
AcDbLayout
  1
Layout2
 70
     1
 71
     2
 10
0.0
 20
0.0
 11
0.0
 21
0.0
 12
0.0
 22
0.0
 32
0.0
 14
0.0
 24
0.0
 34
0.0
 15
0.0
 25
0.0
 35
0.0
146
0.0
 13
0.0
 23
0.0
 33
0.0
 16
1.0
 26
0.0
 36
0.0
 17
0.0
 27
1.0
 37
0.0
 76
     0
330
23
  0
LAYOUT
  5
22
102
{ACAD_REACTORS
330
1A
102
}
330
1A
100
AcDbPlotSettings
  1

  2
none_device
  4
Letter_(8.50_x_11.00_Inches)
  6

 40
6.35
 41
6.35
 42
6.35000508
 43
6.35000508
 44
215.9
 45
279.4
 46
0.0
 47
0.0
 48
0.0
 49
0.0
140
0.0
141
0.0
142
1.0
143
1.0
 70
  1712
 72
     0
 73
     0
 74
     0
  7

 75
     0
147
1.0
148
0.0
149
0.0
100
AcDbLayout
  1
Model
 70
     1
 71
     0
 10
0.0
 20
0.0
 11
11.0
 21
8.5
 12
0.0
 22
0.0
 32
0.0
 14
0.0
 24
0.0
 34
0.0
 15
11.0
 25
8.5
 35
0.0
146
0.0
 13
0.0
 23
0.0
 33
0.0
 16
1.0
 26
0.0
 36
0.0
 17
0.0
 27
1.0
 37
0.0
 76
     0
330
1F
331
29
  0
MLINESTYLE
  5
18
102
{ACAD_REACTORS
330
17
102
}
330
17
100
AcDbMlineStyle
  2
Standard
 70
     0
  3

 62
   256
 51
90.0
 52
90.0
 71
     2
 49
0.5
 62
   256
  6
BYLAYER
 49
-0.5
 62
   256
  6
BYLAYER
  0
ACDBPLACEHOLDER
  5
F
102
{ACAD_REACTORS
330
E
102
}
330
E
  0
SCALE
  5
48
102
{ACAD_REACTORS
330
47
102
}
330
47
100
AcDbScale
 70
     0
300
1:1
140
1.0
141
1.0
290
     1
  0
SCALE
  5
49
102
{ACAD_REACTORS
330
47
102
}
330
47
100
AcDbScale
 70
     0
300
1:2
140
1.0
141
2.0
290
     0
  0
SCALE
  5
4A
102
{ACAD_REACTORS
330
47
102
}
330
47
100
AcDbScale
 70
     0
300
1:4
140
1.0
141
4.0
290
     0
  0
SCALE
  5
4B
102
{ACAD_REACTORS
330
47
102
}
330
47
100
AcDbScale
 70
     0
300
1:5
140
1.0
141
5.0
290
     0
  0
SCALE
  5
4C
102
{ACAD_REACTORS
330
47
102
}
330
47
100
AcDbScale
 70
     0
300
1:8
140
1.0
141
8.0
290
     0
  0
SCALE
  5
4D
102
{ACAD_REACTORS
330
47
102
}
330
47
100
AcDbScale
 70
     0
300
1:10
140
1.0
141
10.0
290
     0
  0
SCALE
  5
4E
102
{ACAD_REACTORS
330
47
102
}
330
47
100
AcDbScale
 70
     0
300
1:16
140
1.0
141
16.0
290
     0
  0
SCALE
  5
4F
102
{ACAD_REACTORS
330
47
102
}
330
47
100
AcDbScale
 70
     0
300
1:20
140
1.0
141
20.0
290
     0
  0
SCALE
  5
50
102
{ACAD_REACTORS
330
47
102
}
330
47
100
AcDbScale
 70
     0
300
1:30
140
1.0
141
30.0
290
     0
  0
SCALE
  5
51
102
{ACAD_REACTORS
330
47
102
}
330
47
100
AcDbScale
 70
     0
300
1:40
140
1.0
141
40.0
290
     0
  0
SCALE
  5
52
102
{ACAD_REACTORS
330
47
102
}
330
47
100
AcDbScale
 70
     0
300
1:50
140
1.0
141
50.0
290
     0
  0
SCALE
  5
53
102
{ACAD_REACTORS
330
47
102
}
330
47
100
AcDbScale
 70
     0
300
1:100
140
1.0
141
100.0
290
     0
  0
SCALE
  5
54
102
{ACAD_REACTORS
330
47
102
}
330
47
100
AcDbScale
 70
     0
300
2:1
140
2.0
141
1.0
290
     0
  0
SCALE
  5
55
102
{ACAD_REACTORS
330
47
102
}
330
47
100
AcDbScale
 70
     0
300
4:1
140
4.0
141
1.0
290
     0
  0
SCALE
  5
56
102
{ACAD_REACTORS
330
47
102
}
330
47
100
AcDbScale
 70
     0
300
8:1
140
8.0
141
1.0
290
     0
  0
SCALE
  5
57
102
{ACAD_REACTORS
330
47
102
}
330
47
100
AcDbScale
 70
     0
300
10:1
140
10.0
141
1.0
290
     0
  0
SCALE
  5
58
102
{ACAD_REACTORS
330
47
102
}
330
47
100
AcDbScale
 70
     0
300
100:1
140
100.0
141
1.0
290
     0
  0
SCALE
  5
59
102
{ACAD_REACTORS
330
47
102
}
330
47
100
AcDbScale
 70
     0
300
1/128" = 1'-0"
140
0.0078125
141
12.0
290
     0
  0
SCALE
  5
5A
102
{ACAD_REACTORS
330
47
102
}
330
47
100
AcDbScale
 70
     0
300
1/64" = 1'-0"
140
0.015625
141
12.0
290
     0
  0
SCALE
  5
5B
102
{ACAD_REACTORS
330
47
102
}
330
47
100
AcDbScale
 70
     0
300
1/32" = 1'-0"
140
0.03125
141
12.0
290
     0
  0
SCALE
  5
5C
102
{ACAD_REACTORS
330
47
102
}
330
47
100
AcDbScale
 70
     0
300
1/16" = 1'-0"
140
0.0625
141
12.0
290
     0
  0
SCALE
  5
5D
102
{ACAD_REACTORS
330
47
102
}
330
47
100
AcDbScale
 70
     0
300
3/32" = 1'-0"
140
0.09375
141
12.0
290
     0
  0
SCALE
  5
5E
102
{ACAD_REACTORS
330
47
102
}
330
47
100
AcDbScale
 70
     0
300
1/8" = 1'-0"
140
0.125
141
12.0
290
     0
  0
SCALE
  5
5F
102
{ACAD_REACTORS
330
47
102
}
330
47
100
AcDbScale
 70
     0
300
3/16" = 1'-0"
140
0.1875
141
12.0
290
     0
  0
SCALE
  5
60
102
{ACAD_REACTORS
330
47
102
}
330
47
100
AcDbScale
 70
     0
300
1/4" = 1'-0"
140
0.25
141
12.0
290
     0
  0
SCALE
  5
61
102
{ACAD_REACTORS
330
47
102
}
330
47
100
AcDbScale
 70
     0
300
3/8" = 1'-0"
140
0.375
141
12.0
290
     0
  0
SCALE
  5
62
102
{ACAD_REACTORS
330
47
102
}
330
47
100
AcDbScale
 70
     0
300
1/2" = 1'-0"
140
0.5
141
12.0
290
     0
  0
SCALE
  5
63
102
{ACAD_REACTORS
330
47
102
}
330
47
100
AcDbScale
 70
     0
300
3/4" = 1'-0"
140
0.75
141
12.0
290
     0
  0
SCALE
  5
64
102
{ACAD_REACTORS
330
47
102
}
330
47
100
AcDbScale
 70
     0
300
1" = 1'-0"
140
1.0
141
12.0
290
     0
  0
SCALE
  5
65
102
{ACAD_REACTORS
330
47
102
}
330
47
100
AcDbScale
 70
     0
300
1-1/2" = 1'-0"
140
1.5
141
12.0
290
     0
  0
SCALE
  5
66
102
{ACAD_REACTORS
330
47
102
}
330
47
100
AcDbScale
 70
     0
300
3" = 1'-0"
140
3.0
141
12.0
290
     0
  0
SCALE
  5
67
102
{ACAD_REACTORS
330
47
102
}
330
47
100
AcDbScale
 70
     0
300
6" = 1'-0"
140
6.0
141
12.0
290
     0
  0
SCALE
  5
68
102
{ACAD_REACTORS
330
47
102
}
330
47
100
AcDbScale
 70
     0
300
1'-0" = 1'-0"
140
12.0
141
12.0
290
     0
  0
ENDSEC
  0
EOF
