  0
SECTION
  2
HEADER
  9
$ACADVER
  1
AC1012
  9
$DWGCODEPAGE
  3
ANSI_1252
  9
$INSBASE
 10
0.0
 20
0.0
 30
0.0
  9
$EXTMIN
 10
0.2509758741839398
 20
0.2668629938160549
 30
-0.000007107611996
  9
$EXTMAX
 10
11.28151930040584
 20
8.797618494299157
 30
0.2329271086966143
  9
$LIMMIN
 10
0.0
 20
0.0
  9
$LIMMAX
 10
11.266175
 20
8.78235
  9
$ORTHOMODE
 70
     1
  9
$REGENMODE
 70
     1
  9
$FILLMODE
 70
     1
  9
$QTEXTMODE
 70
     0
  9
$MIRRTEXT
 70
     0
  9
$DRAGMODE
 70
     2
  9
$LTSCALE
 40
0.35
  9
$OSMODE
 70
    37
  9
$ATTMODE
 70
     1
  9
$TEXTSIZE
 40
0.08
  9
$TRACEWID
 40
0.05
  9
$TEXTSTYLE
  7
STANDARD
  9
$CLAYER
  8
D1
  9
$CELTYPE
  6
BYLAYER
  9
$CECOLOR
 62
   256
  9
$CELTSCALE
 40
1.0
  9
$DELOBJ
 70
     1
  9
$DISPSILH
 70
     0
  9
$DIMSCALE
 40
1.0
  9
$DIMASZ
 40
0.18
  9
$DIMEXO
 40
0.04
  9
$DIMDLI
 40
0.4
  9
$DIMRND
 40
0.0
  9
$DIMDLE
 40
0.0
  9
$DIMEXE
 40
0.04
  9
$DIMTP
 40
0.0
  9
$DIMTM
 40
0.0
  9
$DIMTXT
 40
0.08
  9
$DIMCEN
 40
0.07
  9
$DIMTSZ
 40
0.0
  9
$DIMTOL
 70
     0
  9
$DIMLIM
 70
     0
  9
$DIMTIH
 70
     1
  9
$DIMTOH
 70
     1
  9
$DIMSE1
 70
     0
  9
$DIMSE2
 70
     0
  9
$DIMTAD
 70
     0
  9
$DIMZIN
 70
     0
  9
$DIMBLK
  1

  9
$DIMASO
 70
     0
  9
$DIMSHO
 70
     1
  9
$DIMPOST
  1

  9
$DIMAPOST
  1

  9
$DIMALT
 70
     0
  9
$DIMALTD
 70
     2
  9
$DIMALTF
 40
25.4
  9
$DIMLFAC
 40
1.0
  9
$DIMTOFL
 70
     0
  9
$DIMTVP
 40
0.0
  9
$DIMTIX
 70
     0
  9
$DIMSOXD
 70
     0
  9
$DIMSAH
 70
     0
  9
$DIMBLK1
  1

  9
$DIMBLK2
  1

  9
$DIMSTYLE
  2
STANDARD
  9
$DIMCLRD
 70
     0
  9
$DIMCLRE
 70
     0
  9
$DIMCLRT
 70
   256
  9
$DIMTFAC
 40
1.0
  9
$DIMGAP
 40
0.05
  9
$DIMJUST
 70
     0
  9
$DIMSD1
 70
     0
  9
$DIMSD2
 70
     0
  9
$DIMTOLJ
 70
     1
  9
$DIMTZIN
 70
     0
  9
$DIMALTZ
 70
     0
  9
$DIMALTTZ
 70
     0
  9
$DIMFIT
 70
     0
  9
$DIMUPT
 70
     1
  9
$DIMUNIT
 70
     2
  9
$DIMDEC
 70
     3
  9
$DIMTDEC
 70
     3
  9
$DIMALTU
 70
     2
  9
$DIMALTTD
 70
     2
  9
$DIMTXSTY
  7
STANDARD
  9
$DIMAUNIT
 70
     0
  9
$LUNITS
 70
     2
  9
$LUPREC
 70
     8
  9
$SKETCHINC
 40
0.1
  9
$FILLETRAD
 40
0.0
  9
$AUNITS
 70
     0
  9
$AUPREC
 70
     8
  9
$MENU
  1
C:\R13\WIN\SUPPORT\ACAD
  9
$ELEVATION
 40
0.0
  9
$PELEVATION
 40
0.0
  9
$THICKNESS
 40
0.0
  9
$LIMCHECK
 70
     1
  9
$BLIPMODE
 70
     0
  9
$CHAMFERA
 40
0.0
  9
$CHAMFERB
 40
0.0
  9
$CHAMFERC
 40
0.0
  9
$CHAMFERD
 40
0.0
  9
$SKPOLY
 70
     0
  9
$TDCREATE
 40
2450199.427780903
  9
$TDUPDATE
 40
2452682.598274537
  9
$TDINDWG
 40
0.5061262500
  9
$TDUSRTIMER
 40
0.5061262500
  9
$USRTIMER
 70
     1
  9
$ANGBASE
 50
0.0
  9
$ANGDIR
 70
     0
  9
$PDMODE
 70
     0
  9
$PDSIZE
 40
0.0
  9
$PLINEWID
 40
0.01
  9
$COORDS
 70
     1
  9
$SPLFRAME
 70
     0
  9
$SPLINETYPE
 70
     6
  9
$SPLINESEGS
 70
     8
  9
$ATTDIA
 70
     0
  9
$ATTREQ
 70
     1
  9
$HANDLING
 70
-16383
  9
$HANDSEED
  5
3A5A
  9
$SURFTAB1
 70
     6
  9
$SURFTAB2
 70
     6
  9
$SURFTYPE
 70
     6
  9
$SURFU
 70
     6
  9
$SURFV
 70
     6
  9
$UCSNAME
  2

  9
$UCSORG
 10
0.2661750000000005
 20
0.2823500000000001
 30
0.0
  9
$UCSXDIR
 10
1.0
 20
0.0
 30
0.0
  9
$UCSYDIR
 10
0.0
 20
1.0
 30
0.0
  9
$PUCSNAME
  2

  9
$PUCSORG
 10
0.0
 20
0.0
 30
0.0
  9
$PUCSXDIR
 10
1.0
 20
0.0
 30
0.0
  9
$PUCSYDIR
 10
0.0
 20
1.0
 30
0.0
  9
$USERI1
 70
     0
  9
$USERI2
 70
     0
  9
$USERI3
 70
     0
  9
$USERI4
 70
     0
  9
$USERI5
 70
     0
  9
$USERR1
 40
0.0
  9
$USERR2
 40
0.0
  9
$USERR3
 40
0.0
  9
$USERR4
 40
0.0
  9
$USERR5
 40
0.0
  9
$WORLDVIEW
 70
     1
  9
$SHADEDGE
 70
     3
  9
$SHADEDIF
 70
    70
  9
$TILEMODE
 70
     1
  9
$MAXACTVP
 70
    16
  9
$PINSBASE
 10
0.0
 20
0.0
 30
0.0
  9
$PLIMCHECK
 70
     0
  9
$PEXTMIN
 10
1.000000000000000E+20
 20
1.000000000000000E+20
 30
1.000000000000000E+20
  9
$PEXTMAX
 10
-1.000000000000000E+20
 20
-1.000000000000000E+20
 30
-1.000000000000000E+20
  9
$PLIMMIN
 10
0.0
 20
0.0
  9
$PLIMMAX
 10
12.0
 20
9.0
  9
$UNITMODE
 70
     0
  9
$VISRETAIN
 70
     0
  9
$PLINEGEN
 70
     0
  9
$PSLTSCALE
 70
     1
  9
$TREEDEPTH
 70
  3020
  9
$PICKSTYLE
 70
     1
  9
$CMLSTYLE
  2
STANDARD
  9
$CMLJUST
 70
     0
  9
$CMLSCALE
 40
1.0
  9
$SAVEIMAGES
 70
     1
  0
ENDSEC
  0
SECTION
  2
CLASSES
  0
CLASS
  1
LWPOLYLINE
  2
AcDbPolyline
  3
AutoCAD 2000
 90
    32768
280
     0
281
     1
  0
CLASS
  1
ACDBDICTIONARYWDFLT
  2
AcDbDictionaryWithDefault
  3
AutoCAD 2000
 90
    32768
280
     0
281
     0
  0
CLASS
  1
ACDBPLACEHOLDER
  2
AcDbPlaceHolder
  3
AutoCAD 2000
 90
    32768
280
     0
281
     0
  0
CLASS
  1
LAYOUT
  2
AcDbLayout
  3
AutoCAD 2000
 90
    32768
280
     0
281
     0
  0
CLASS
  1
LONG_TRANSACTION
  2
AcDbLongTransaction
  3
AutoCAD 2000
 90
    32768
280
     0
281
     0
  0
CLASS
  1
LWPOLYLINE
  2
AcDbPolyline
  3
AutoCAD 2000
 90
    32768
280
     0
281
     1
  0
CLASS
  1
HATCH
  2
AcDbHatch
  3
AutoCAD 2000
 90
    32768
280
     0
281
     1
  0
CLASS
  1
XRECORD
  2
AcDbXrecord
  3
AutoCAD 2000
 90
    32768
280
     0
281
     0
  0
ENDSEC
  0
SECTION
  2
TABLES
  0
TABLE
  2
VPORT
  5
8
330
0
100
AcDbSymbolTable
 70
     2
  0
VPORT
  5
39C1
330
8
100
AcDbSymbolTableRecord
100
AcDbViewportTableRecord
  2
*ACTIVE
 70
     0
 10
0.0
 20
0.0
 11
1.0
 21
1.0
 12
6.230864731983215
 22
4.5322408179244
 13
0.0
 23
0.0
 14
0.005
 24
0.005
 15
0.25
 25
0.25
 16
0.0
 26
0.0
 36
1.0
 17
0.0
 27
0.0
 37
0.0
 40
8.617656376083534
 41
1.818713450292397
 42
50.0
 43
0.0
 44
0.0
 50
0.0
 51
0.0
 71
     0
 72
 20000
 73
     1
 74
     2
 75
     0
 76
     0
 77
     0
 78
     0
  0
ENDTAB
  0
TABLE
  2
LTYPE
  5
5
330
0
100
AcDbSymbolTable
 70
     3
  0
LTYPE
  5
14
330
5
100
AcDbSymbolTableRecord
100
AcDbLinetypeTableRecord
  2
BYBLOCK
 70
     0
  3

 72
    65
 73
     0
 40
0.0
  0
LTYPE
  5
15
330
5
100
AcDbSymbolTableRecord
100
AcDbLinetypeTableRecord
  2
BYLAYER
 70
     0
  3

 72
    65
 73
     0
 40
0.0
  0
LTYPE
  5
16
330
5
100
AcDbSymbolTableRecord
100
AcDbLinetypeTableRecord
  2
CONTINUOUS
 70
     0
  3
Solid line
 72
    65
 73
     0
 40
0.0
  0
LTYPE
  5
34AB
330
5
100
AcDbSymbolTableRecord
100
AcDbLinetypeTableRecord
  2
CENTER
 70
     0
  3
Center ____ _ ____ _ ____ _ ____ _ ____ _ ____
 72
    65
 73
     4
 40
2.0
 49
1.25
 74
     0
 49
-0.25
 74
     0
 49
0.25
 74
     0
 49
-0.25
 74
     0
  0
LTYPE
  5
34AC
330
5
100
AcDbSymbolTableRecord
100
AcDbLinetypeTableRecord
  2
HIDDEN
 70
     0
  3
Hidden __ __ __ __ __ __ __ __ __ __ __ __ __ _
 72
    65
 73
     2
 40
0.375
 49
0.25
 74
     0
 49
-0.125
 74
     0
  0
ENDTAB
  0
TABLE
  2
LAYER
  5
2
330
0
100
AcDbSymbolTable
 70
     6
  0
LAYER
  5
F
330
2
100
AcDbSymbolTableRecord
100
AcDbLayerTableRecord
  2
0
 70
     0
 62
     7
  6
CONTINUOUS
  0
LAYER
  5
28
330
2
100
AcDbSymbolTableRecord
100
AcDbLayerTableRecord
  2
BORDER
 70
     0
 62
     7
  6
CONTINUOUS
  0
LAYER
  5
2A
330
2
100
AcDbSymbolTableRecord
100
AcDbLayerTableRecord
  2
D1
 70
     0
 62
     7
  6
CONTINUOUS
  0
LAYER
  5
3327
330
2
100
AcDbSymbolTableRecord
100
AcDbLayerTableRecord
  2
S1
 70
     0
 62
     7
  6
CONTINUOUS
  0
LAYER
  5
348B
330
2
100
AcDbSymbolTableRecord
100
AcDbLayerTableRecord
  2
S2
 70
     0
 62
     7
  6
CONTINUOUS
  0
LAYER
  5
348C
330
2
100
AcDbSymbolTableRecord
100
AcDbLayerTableRecord
  2
S3
 70
     0
 62
     7
  6
CONTINUOUS
  0
ENDTAB
  0
TABLE
  2
STYLE
  5
3
330
0
100
AcDbSymbolTable
 70
     2
  0
STYLE
  5
10
330
3
100
AcDbSymbolTableRecord
100
AcDbTextStyleTableRecord
  2
STANDARD
 70
     0
 40
0.0
 41
1.0
 50
0.0
 71
     0
 42
0.08
  3
txt
  4

  0
STYLE
  5
34AA
330
3
100
AcDbSymbolTableRecord
100
AcDbTextStyleTableRecord
  2

 70
     1
 40
0.0
 41
1.0
 50
0.0
 71
     0
 42
0.08
  3
ltypeshp.shx
  4

  0
ENDTAB
  0
TABLE
  2
VIEW
  5
6
330
0
100
AcDbSymbolTable
 70
     0
  0
ENDTAB
  0
TABLE
  2
UCS
  5
7
330
0
100
AcDbSymbolTable
 70
     0
  0
ENDTAB
  0
TABLE
  2
APPID
  5
9
330
0
100
AcDbSymbolTable
 70
    10
  0
APPID
  5
11
330
9
100
AcDbSymbolTableRecord
100
AcDbRegAppTableRecord
  2
ACAD
 70
     0
  0
APPID
  5
3317
330
9
100
AcDbSymbolTableRecord
100
AcDbRegAppTableRecord
  2
CONTENTTABDATA
 70
     0
  0
APPID
  5
3318
330
9
100
AcDbSymbolTableRecord
100
AcDbRegAppTableRecord
  2
CONTENTCURRENTTAB
 70
     0
  0
APPID
  5
3328
330
9
100
AcDbSymbolTableRecord
100
AcDbRegAppTableRecord
  2
CONTENTBLOCKDESCRIPTION
 70
     0
  0
APPID
  5
3342
330
9
100
AcDbSymbolTableRecord
100
AcDbRegAppTableRecord
  2
CONTENTLONGBLOCKNAME
 70
     0
  0
APPID
  5
3343
330
9
100
AcDbSymbolTableRecord
100
AcDbRegAppTableRecord
  2
CONTENTBLOCKICON
 70
     0
  0
APPID
  5
34EA
330
9
100
AcDbSymbolTableRecord
100
AcDbRegAppTableRecord
  2
GENIUS_GENODEF_13
 70
     0
  0
APPID
  5
34EB
330
9
100
AcDbSymbolTableRecord
100
AcDbRegAppTableRecord
  2
GENIUS_GENOBJ-N-CEN_13
 70
     0
  0
APPID
  5
34EC
330
9
100
AcDbSymbolTableRecord
100
AcDbRegAppTableRecord
  2
GENIUS_GENOBJ-3-CEN_13
 70
     0
  0
APPID
  5
36F0
330
9
100
AcDbSymbolTableRecord
100
AcDbRegAppTableRecord
  2
DCO15
 70
     0
  0
ENDTAB
  0
TABLE
  2
DIMSTYLE
  5
A
330
0
100
AcDbSymbolTable
 70
     1
  0
DIMSTYLE
105
1D
330
A
100
AcDbSymbolTableRecord
100
AcDbDimStyleTableRecord
  2
STANDARD
 70
     0
  3

  4

  5

  6

  7

 40
1.0
 41
0.18
 42
0.04
 43
0.4
 44
0.04
 45
0.0
 46
0.0
 47
0.0
 48
0.0
140
0.08
141
0.07
142
0.0
143
25.4
144
1.0
145
0.0
146
1.0
147
0.05
 71
     0
 72
     0
 73
     1
 74
     1
 75
     0
 76
     0
 77
     0
 78
     0
170
     0
171
     2
172
     0
173
     0
174
     0
175
     0
176
     0
177
     0
178
   256
270
     2
271
     3
272
     3
273
     2
274
     2
340
10
275
     0
280
     0
281
     0
282
     0
283
     1
284
     0
285
     0
286
     0
287
     3
288
     1
  0
ENDTAB
  0
TABLE
  2
BLOCK_RECORD
  5
1
330
0
100
AcDbSymbolTable
 70
     3
  0
BLOCK_RECORD
  5
1A
102
{ACAD_XDICTIONARY
360
39C4
102
}
330
1
100
AcDbSymbolTableRecord
100
AcDbBlockTableRecord
  2
*MODEL_SPACE
  0
BLOCK_RECORD
  5
17
102
{ACAD_XDICTIONARY
360
39C2
102
}
330
1
100
AcDbSymbolTableRecord
100
AcDbBlockTableRecord
  2
*PAPER_SPACE
  0
BLOCK_RECORD
  5
343D
330
1
100
AcDbSymbolTableRecord
100
AcDbBlockTableRecord
  2
COPYRIGHT
1001
CONTENTBLOCKDESCRIPTION
1071
        0
1000
copy right symbol for upper left hand corner of screen
1001
CONTENTBLOCKICON
1071
        0
1004
2800000020000000200000000100040000000000000200000000000000000000000000000000000000000000000080000080000000808000800000008000800080800000C0C0C000808080000000FF0000FF000000FFFF00FF000000FF00FF00FFFF0000FFFFFF00FFFFFFFFFFFFFFFFFFFFFFFFFFFFFFFFFFFFFFFFFFFFFF
1004
FFFFFFFFFFFFFFFFFFFFFFFFFFFFFFFFFFFFFFFFFFFFFFFFFFFFFFFFFFFFFFFFFFFFFFFFFFFFFFFFFFFFFFFFFFFFFFFFFFFFFFFFFFFFFFFFFFFFFFFFFFFFFFFFFFFFFFFFFFFFFFFFFFFFFFFFFFFFFFFFFFFFFFFFFFFFFFFFFFFFFFFFFFFFFFFFFFFFFFFFFFFFFFFFFFFFFFFFFFFFFFFFFFFFFFFFFFFFFFFFFFFFFFFFFFFFFF
1004
FFFFFFFFFFFFFFFFFFFFFFFFFFFFFFFFFFFFFFFFFFFFFFFFFFFFFFFFFFFFFFFFFFFFFFFFFFFFFFFFFFFFFFFFFFFFFFFFFFFFFFFFFFFFFFFFFFFFFFFFFFFFFFFFFFFFFFFFFFFFFFFFFFFFFFFFFFFFFFFFFFFFFFFFFFFFFFFFFFFFFFFFFFFFFFFFFFFFFFFFFFFFFFFFFFFF999999999999999999999999FFFFFFFF9999999999
1004
99999999999999FFFFFFFFFFFFFFFFFFFFFFFFFFFFFFFFFFFFFFFFFFFFFFFFFFFFFFFFFFFFFFFFFFFFFFFFFFFFFFFFFFFFFFFFFFFFFFFFFFFFFFFFFFFFFFFFFFFFFFFFFFFFFFFFFFFFFFFFFFFFFFFFFFFFFFFFFFFFFFFFFFFFFFFFFFFFFFFFFFFFFFFFFFFFFFFFFFFFFFFFFFFFFFFFFFFFFFFFFFFFFFFFFFFFFFFFFFFFFFFF
1004
FFFFFFFFFFFFFFFFFFFFFFFFFFFFFFFFFFFFFFFFFFFFFFFFFFFFFFFFFFFFFFFFFFFFFFFFFFFFFFFFFFFFFFFFFFFFFFFFFFFFFFFFFFFFFFFFFFFFFFFFFFFFFFFFFFFFFFFFFFFFFFFFFFFFFFFFFFFFFFFFFFFFFFFFFFFFFFFFFFFFFFFFFFFFFFFFFFFFFFFFFFFFFFFFFFFFFFFF
  0
BLOCK_RECORD
  5
3880
330
1
100
AcDbSymbolTableRecord
100
AcDbBlockTableRecord
  2
COPYWRITE
  0
BLOCK_RECORD
  5
3884
330
1
100
AcDbSymbolTableRecord
100
AcDbBlockTableRecord
  2
ESD-INFO
  0
ENDTAB
  0
ENDSEC
  0
SECTION
  2
BLOCKS
  0
BLOCK
  5
1B
330
1A
100
AcDbEntity
  8
0
100
AcDbBlockBegin
  2
*MODEL_SPACE
 70
     0
 10
0.0
 20
0.0
 30
0.0
  3
*MODEL_SPACE
  1

  0
ENDBLK
  5
1C
330
1A
100
AcDbEntity
  8
0
100
AcDbBlockEnd
  0
BLOCK
  5
18
330
17
100
AcDbEntity
 67
     1
  8
0
100
AcDbBlockBegin
  2
*PAPER_SPACE
 70
     0
 10
0.0
 20
0.0
 30
0.0
  3
*PAPER_SPACE
  1

  0
ENDBLK
  5
19
330
17
100
AcDbEntity
 67
     1
  8
0
100
AcDbBlockEnd
  0
BLOCK
  5
343F
330
343D
100
AcDbEntity
  8
0
100
AcDbBlockBegin
  2
COPYRIGHT
 70
     0
 10
0.0
 20
0.0
 30
0.0
  3
COPYRIGHT
  1

  0
MTEXT
  5
343E
330
343D
100
AcDbEntity
  8
BORDER
100
AcDbMText
 10
0.0258733304183885
 20
0.323044704881891
 30
0.0
 40
0.25
 41
9.340999999999999
 71
     1
 72
     1
  1
\FVERDANA.TTF;COPYRIGHT \FSYMBOL.TTF;\H0.3;Ó\FVERDANA.TTF;\H0.25; 1998 by THORLABS INC.
1001
ACAD
1000
MTEXTBEGIN
1070
    73
1070
     1
1070
    44
1040
1.0
1070
    74
1070
     0
1000
MTEXTEND
  0
ENDBLK
  5
3440
330
343D
100
AcDbEntity
  8
0
100
AcDbBlockEnd
  0
BLOCK
  5
3882
330
3880
100
AcDbEntity
  8
0
100
AcDbBlockBegin
  2
COPYWRITE
 70
     0
 10
0.0
 20
0.0
 30
0.0
  3
COPYWRITE
  1

  0
MTEXT
  5
3881
330
3880
100
AcDbEntity
  8
BORDER
100
AcDbMText
 10
0.3955447385683524
 20
8.629262701746421
 30
0.0
 40
0.24999
 41
9.340999999999999
 71
     1
 72
     1
  1
{\FVERDANA.TTF;COPYRIGHT \FSYMBOL.TTF;\H1.2x;Ó\FVERDANA.TTF;\H0.8333x; 2003 by THORLABS INC.}
1001
ACAD
1000
MTEXTBEGIN
1070
    73
1070
     1
1070
    44
1040
1.0
1070
    74
1070
     0
1000
MTEXTEND
  0
ENDBLK
  5
3883
330
3880
100
AcDbEntity
  8
0
100
AcDbBlockEnd
  0
BLOCK
  5
3888
330
3884
100
AcDbEntity
  8
0
100
AcDbBlockBegin
  2
ESD-INFO
 70
     0
 10
0.0
 20
0.0
 30
0.0
  3
ESD-INFO
  1

  0
LINE
  5
3885
330
3884
100
AcDbEntity
  8
D1
100
AcDbLine
 10
2.98789804994233
 20
0.0002966651217227
 30
0.0
 11
-2.987323406216175
 21
0.0002966651217227
 31
0.0
  0
LINE
  5
3886
330
3884
100
AcDbEntity
  8
D1
100
AcDbLine
 10
-2.892290062977073
 20
0.0596366990926454
 30
0.0
 11
2.892864706703228
 21
0.0596366990926454
 31
0.0
  0
TEXT
  5
3887
330
3884
100
AcDbEntity
  8
D1
100
AcDbText
 10
-2.79456480303434
 20
0.1065187961070997
 30
0.0
 40
0.15
  1
INFORMATION ONLY, NOT FOR MANUFACTURING
100
AcDbText
  0
ENDBLK
  5
3889
330
3884
100
AcDbEntity
  8
0
100
AcDbBlockEnd
  0
ENDSEC
  0
SECTION
  2
ENTITIES
  0
LINE
  5
132
330
1A
100
AcDbEntity
  8
BORDER
100
AcDbLine
 39
0.0075
 10
9.726547376952984
 20
0.6832137948435509
 30
0.0
 11
9.726547376952984
 21
0.4891137948435511
 31
0.0
  0
LINE
  5
133
330
1A
100
AcDbEntity
  8
BORDER
100
AcDbLine
 10
9.945831594939301
 20
0.2823500000000001
 30
0.11646
 11
9.945831594939301
 21
0.6832137948435509
 31
0.11646
  0
TRACE
  5
137
330
1A
100
AcDbEntity
  8
BORDER
100
AcDbTrace
 10
11.2551888578914
 20
1.478867550649399
 30
0.11646
 11
11.2551888578914
 21
1.491807550649399
 31
0.11646
 12
8.993923857891404
 22
1.478867550649399
 32
0.11646
 13
8.993923857891404
 23
1.491807550649399
 33
0.11646
 39
0.0075
  0
LINE
  5
138
330
1A
100
AcDbEntity
  8
BORDER
100
AcDbLine
 39
0.0075
 10
8.990688857891404
 20
1.291237550649399
 30
0.11646
 11
11.2551888578914
 21
1.291237550649399
 31
0.11646
  0
TEXT
  5
13A
330
1A
100
AcDbEntity
  8
BORDER
100
AcDbText
 10
9.039601244079856
 20
1.101033685005912
 30
0.111268068365412
 40
0.043270915475438
  1
SURF. FINISH: 32 MICROINCHES UNLESS OTHERWISE NOTED
100
AcDbText
  0
TEXT
  5
13B
330
1A
100
AcDbEntity
  8
D1
100
AcDbText
 10
9.406801836309441
 20
0.7286278652420393
 30
0.0
 40
0.06
  1
CLEAR ANODIZED ALUMINUM
100
AcDbText
  0
TEXT
  5
13C
330
1A
100
AcDbEntity
  8
D1
100
AcDbText
 10
9.149380881189662
 20
1.346903421174998
 30
0.0
 40
0.06
  1
34mm DOVE TAIL EXTRUSION 200mm LONG
100
AcDbText
  0
TRACE
  5
13D
330
1A
100
AcDbEntity
  8
BORDER
100
AcDbTrace
 10
11.2551888578914
 20
1.727962550649399
 30
0.11646
 11
11.2551888578914
 21
1.760312550649399
 31
0.11646
 12
9.006863857891405
 22
1.727962550649399
 32
0.11646
 13
8.974513857891404
 23
1.760312550649399
 33
0.11646
  0
LINE
  5
13E
330
1A
100
AcDbEntity
  8
BORDER
100
AcDbLine
 39
0.0075
 10
8.990688857891404
 20
1.071413794843551
 30
0.11646
 11
11.2551888578914
 21
1.071413794843551
 31
0.11646
  0
LINE
  5
13F
330
1A
100
AcDbEntity
  8
BORDER
100
AcDbLine
 39
0.0075
 10
8.990688857891404
 20
0.8773137948435504
 30
0.11646
 11
11.26920067485122
 21
0.8773137948435504
 31
0.11646
  0
LINE
  5
140
330
1A
100
AcDbEntity
  8
BORDER
100
AcDbLine
 39
0.0075
 10
8.990688857891404
 20
0.6832137948435509
 30
0.11646
 11
11.26920067485122
 21
0.6832137948435509
 31
0.11646
  0
LINE
  5
141
330
1A
100
AcDbEntity
  8
BORDER
100
AcDbLine
 39
0.0075
 10
8.990688857891404
 20
0.4891137948435511
 30
0.11646
 11
11.266175
 21
0.4891137948435511
 31
0.11646
  0
TEXT
  5
142
330
1A
100
AcDbEntity
  8
BORDER
100
AcDbText
 10
9.048918857891406
 20
1.207127550649399
 30
0.11646
 40
0.04529
  1
TOL: X.XXX=+/-0.005 X.XX=+/-0.010 ANGULAR +/-30'
100
AcDbText
  0
TRACE
  5
143
330
1A
100
AcDbEntity
  8
BORDER
100
AcDbTrace
 10
9.006863857891405
 20
1.728312249965692
 30
0.11646
 11
8.974513857891404
 21
1.760662249965692
 31
0.11646
 12
9.006863857891405
 22
0.2950137948435514
 32
0.11646
 13
8.974513857891404
 23
0.2950137948435514
 33
0.11646
  0
LINE
  5
144
330
1A
100
AcDbEntity
  8
BORDER
100
AcDbLine
 39
0.0075
 10
9.702916360972857
 20
0.8773137948435504
 30
0.0
 11
9.702916360972857
 21
1.071413794843551
 31
0.0
  0
LINE
  5
145
330
1A
100
AcDbEntity
  8
BORDER
100
AcDbLine
 10
9.537916360972856
 20
0.4891137948435511
 30
0.0
 11
9.537916360972856
 21
0.6832137948435509
 31
0.0
  0
TEXT
  5
146
330
1A
100
AcDbEntity
  8
D1
100
AcDbText
 10
9.143274945403756
 20
0.3235396653691507
 30
0.0
 40
0.06
  1
6711-E01
100
AcDbText
  0
TEXT
  5
147
330
1A
100
AcDbEntity
  8
D1
100
AcDbText
 10
9.03713088090428
 20
0.5335396653691502
 30
0.0
 40
0.06
  1
07/29/02
100
AcDbText
  0
TEXT
  5
148
330
1A
100
AcDbEntity
  8
D1
100
AcDbText
 10
9.218305982991685
 20
0.9066535306636914
 30
0.0
 40
0.06
  1
DAH
100
AcDbText
  0
TEXT
  5
149
330
1A
100
AcDbEntity
  8
BORDER
100
AcDbText
 10
9.052153857891406
 20
0.4244137948435509
 30
0.11646
 40
0.04529
  1
DWG NO.
100
AcDbText
  0
TEXT
  5
14A
330
1A
100
AcDbEntity
  8
BORDER
100
AcDbText
 10
9.048918857891406
 20
0.8064367527075866
 30
0.11646
 40
0.04529
  1
MATERIAL
100
AcDbText
  0
TEXT
  5
14B
330
1A
100
AcDbEntity
  8
BORDER
100
AcDbText
 10
9.052153857891402
 20
0.6185137948435511
 30
0.11646
 40
0.04
  1
DATE
100
AcDbText
  0
TEXT
  5
14C
330
1A
100
AcDbEntity
  8
BORDER
100
AcDbText
 10
9.048918857891406
 20
1.417402550649399
 30
0.11646
 40
0.04529
  1
TITLE
100
AcDbText
  0
TEXT
  5
14D
330
1A
100
AcDbEntity
  8
BORDER
100
AcDbText
 10
9.044610102787034
 20
1.007492660138092
 30
0.11646
 40
0.04
  1
DRAWN
100
AcDbText
  0
LINE
  5
14E
330
1A
100
AcDbEntity
  8
BORDER
100
AcDbLine
 39
0.0075
 10
10.26191636097285
 20
0.8773137948435504
 30
0.0
 11
10.26191636097285
 21
1.071413794843551
 31
0.0
  0
TEXT
  5
14F
330
1A
100
AcDbEntity
  8
D1
100
AcDbText
 10
10.14213088090427
 20
0.3235396653691507
 30
0.0
 40
0.06
  1
XT34-200
100
AcDbText
  0
TEXT
  5
150
330
1A
100
AcDbEntity
  8
D1
100
AcDbText
 10
9.614342921510965
 20
0.5335396653691502
 30
0.0
 40
0.06
  1
A
100
AcDbText
  0
TEXT
  5
151
330
1A
100
AcDbEntity
  8
D1
100
AcDbText
 10
9.81287684864621
 20
0.54144371811595
 30
0.0
 40
0.06
  1
A
 72
     1
 11
9.832876848646209
 21
0.54144371811595
 31
0.0
100
AcDbText
  0
TEXT
  5
152
330
1A
100
AcDbEntity
  8
BORDER
100
AcDbText
 10
9.765809399965858
 20
0.6164437181159502
 30
0.0
 40
0.04
  1
SIZE
 72
     1
 11
9.832476066632525
 21
0.6164437181159502
 31
0.0
100
AcDbText
  0
TEXT
  5
153
330
1A
100
AcDbEntity
  8
D1
100
AcDbText
 10
9.950011044244124
 20
0.9066535306636914
 30
0.0
 40
0.06
  1
JCM
100
AcDbText
  0
TEXT
  5
154
330
1A
100
AcDbEntity
  8
D1
100
AcDbText
 10
10.09879111396452
 20
0.5335396653691502
 30
0.0
 40
0.06
  1
1
100
AcDbText
  0
TEXT
  5
155
330
1A
100
AcDbEntity
  8
D1
100
AcDbText
 10
10.34379111396452
 20
0.5335396653691502
 30
0.0
 40
0.06
  1
1
100
AcDbText
  0
TEXT
  5
157
330
1A
100
AcDbEntity
  8
BORDER
100
AcDbText
 10
10.32658018362911
 20
1.007492660138092
 30
0.11646
 40
0.04
  1
APPROVED
100
AcDbText
  0
TEXT
  5
158
330
1A
100
AcDbEntity
  8
BORDER
100
AcDbText
 10
9.987158745476936
 20
0.4244137948435509
 30
0.11646
 40
0.04529
  1
PART NO.
100
AcDbText
  0
TEXT
  5
159
330
1A
100
AcDbEntity
  8
BORDER
100
AcDbText
 10
9.558578745476937
 20
0.615278794843551
 30
0.11646
 40
0.04
  1
REV
100
AcDbText
  0
TEXT
  5
15A
330
1A
100
AcDbEntity
  8
BORDER
100
AcDbText
 10
9.972116917519945
 20
0.6154438782988123
 30
0.11646
 40
0.04
  1
SHEET
100
AcDbText
  0
TEXT
  5
15B
330
1A
100
AcDbEntity
  8
BORDER
100
AcDbText
 10
10.19393955599924
 20
0.5382287948435512
 30
0.11646
 40
0.04529
  1
OF
100
AcDbText
  0
TEXT
  5
15C
330
1A
100
AcDbEntity
  8
BORDER
100
AcDbText
 10
9.717809990372565
 20
1.007492660138092
 30
0.11646
 40
0.04
  1
ENGINEER
100
AcDbText
  0
POLYLINE
  5
15E
330
1A
100
AcDbEntity
  8
BORDER
100
AcDb2dPolyline
 66
     1
 10
0.0
 20
0.0
 30
0.23292
 40
0.00727875
 41
0.00727875
  0
VERTEX
  5
39C6
330
15E
100
AcDbEntity
  8
BORDER
100
AcDbVertex
100
AcDb2dVertex
 10
9.633194085913112
 20
1.690948002377
 30
0.23292
  0
VERTEX
  5
39C7
330
15E
100
AcDbEntity
  8
BORDER
100
AcDbVertex
100
AcDb2dVertex
 10
9.532751674987329
 20
1.690948002377
 30
0.23292
  0
SEQEND
  5
39C8
330
15E
100
AcDbEntity
  8
BORDER
  0
SOLID
  5
162
330
1A
100
AcDbEntity
  8
BORDER
100
AcDbTrace
 10
9.532751674987329
 20
1.512618627376999
 30
0.23292
 11
9.532751674987329
 21
1.694587377376999
 31
0.23292
 12
9.569925144340301
 22
1.512618627376999
 32
0.23292
 13
9.569925144340301
 23
1.690622699047484
 33
0.23292
  0
SOLID
  5
163
330
1A
100
AcDbEntity
  8
BORDER
100
AcDbTrace
 10
9.11687938619818
 20
1.512618627377
 30
0.23292
 11
9.153273136198178
 21
1.512618627377
 31
0.23292
 12
9.11687938619818
 22
1.664562533627
 32
0.23292
 13
9.153273136198178
 23
1.664562533627
 33
0.23292
  0
SOLID
  5
164
330
1A
100
AcDbEntity
  8
BORDER
100
AcDbTrace
 10
9.323413917448176
 20
1.694587377376999
 30
0.23292
 11
9.359807667448174
 21
1.694587377376999
 31
0.23292
 12
9.323413917448176
 22
1.512618627376999
 32
0.23292
 13
9.359807667448174
 23
1.512618627376999
 33
0.23292
  0
SOLID
  5
165
330
1A
100
AcDbEntity
  8
BORDER
100
AcDbTrace
 10
9.21150313619818
 20
1.694587377376999
 30
0.23292
 11
9.247896886198178
 21
1.694587377376999
 31
0.23292
 12
9.21150313619818
 22
1.512618627376999
 32
0.23292
 13
9.247896886198178
 23
1.512618627376999
 33
0.23292
  0
SOLID
  5
166
330
1A
100
AcDbEntity
  8
BORDER
100
AcDbTrace
 10
9.519367474660009
 20
1.556816991116891
 30
0.23292
 11
9.497922427776193
 21
1.5792981941861
 31
0.23292
 12
9.530600594456293
 22
1.610976253056347
 32
0.23292
 13
9.498943620484945
 23
1.614041871656694
 33
0.23292
  0
SOLID
  5
167
330
1A
100
AcDbEntity
  8
BORDER
100
AcDbTrace
 10
9.493837656941183
 20
1.52820455084699
 30
0.23292
 11
9.481072748081766
 21
1.545576389582287
 31
0.23292
 12
9.519367474660009
 22
1.556816991116891
 32
0.23292
 13
9.497922427776193
 23
1.5792981941861
 33
0.23292
  0
SOLID
  5
168
330
1A
100
AcDbEntity
  8
BORDER
100
AcDbTrace
 10
9.362103797512036
 20
1.603312206555481
 30
0.23292
 11
9.391718386065877
 21
1.600757524388525
 31
0.23292
 12
9.375379302725827
 22
1.551196690349589
 32
0.23292
 13
9.401419716799027
 23
1.56090448258402
 33
0.23292
  0
POLYLINE
  5
169
330
1A
100
AcDbEntity
  8
BORDER
100
AcDb2dPolyline
 66
     1
 10
0.0
 20
0.0
 30
0.23292
 40
0.00727875
 41
0.00727875
  0
VERTEX
  5
39C9
330
169
100
AcDbEntity
  8
BORDER
100
AcDbVertex
100
AcDb2dVertex
 10
9.36748653289195
 20
1.572772042237243
 30
0.23292
 42
0.7616390336395551
  0
VERTEX
  5
39CA
330
169
100
AcDbEntity
  8
BORDER
100
AcDbVertex
100
AcDb2dVertex
 10
9.52570285664297
 20
1.574438037425561
 30
0.23292
 42
0.7616390336395551
  0
SEQEND
  5
39CB
330
169
100
AcDbEntity
  8
BORDER
  0
POLYLINE
  5
16D
330
1A
100
AcDbEntity
  8
BORDER
100
AcDb2dPolyline
 66
     1
 10
0.0
 20
0.0
 30
0.23292
 70
     1
 40
0.00727875
 41
0.00727875
  0
VERTEX
  5
39CC
330
16D
100
AcDbEntity
  8
BORDER
100
AcDbVertex
100
AcDb2dVertex
 10
9.401509417275255
 20
1.644239484539487
 30
0.23292
 42
0.2285268323977459
  0
VERTEX
  5
39CD
330
16D
100
AcDbEntity
  8
BORDER
100
AcDbVertex
100
AcDb2dVertex
 10
9.402359454001109
 20
1.561618048125825
 30
0.23292
 42
0.6230043105321781
  0
VERTEX
  5
39CE
330
16D
100
AcDbEntity
  8
BORDER
100
AcDbVertex
100
AcDb2dVertex
 10
9.489900356486669
 20
1.561894246255825
 30
0.23292
 42
0.2290062495557326
  0
VERTEX
  5
39CF
330
16D
100
AcDbEntity
  8
BORDER
100
AcDbVertex
100
AcDb2dVertex
 10
9.490153989905566
 20
1.644599934397677
 30
0.23292
 42
0.6323121992740218
  0
SEQEND
  5
39D0
330
16D
100
AcDbEntity
  8
BORDER
  0
SOLID
  5
173
330
1A
100
AcDbEntity
  8
BORDER
100
AcDbTrace
 10
9.413674029304067
 20
1.517985822179168
 30
0.23292
 11
9.426949534517854
 21
1.536890470214638
 31
0.23292
 12
9.446352195984163
 22
1.511854584978475
 32
0.23292
 13
9.446352195984163
 23
1.534846724481074
 33
0.23292
  0
SOLID
  5
174
330
1A
100
AcDbEntity
  8
BORDER
100
AcDbTrace
 10
9.375379302725827
 20
1.551196690349589
 30
0.23292
 11
9.401419716799027
 21
1.56090448258402
 31
0.23292
 12
9.413674029304067
 22
1.517985822179168
 32
0.23292
 13
9.426949534517854
 23
1.536890470214638
 33
0.23292
  0
SOLID
  5
175
330
1A
100
AcDbEntity
  8
BORDER
100
AcDbTrace
 10
9.446352195984163
 20
1.511854584978475
 30
0.23292
 11
9.446352195984163
 21
1.534846724481074
 31
0.23292
 12
9.493837656941183
 22
1.52820455084699
 32
0.23292
 13
9.481072748081766
 23
1.545576389582287
 33
0.23292
  0
SOLID
  5
176
330
1A
100
AcDbEntity
  8
BORDER
100
AcDbTrace
 10
9.058649386198178
 20
1.694587377376999
 30
0.23292
 11
9.21150313619818
 21
1.694587377376999
 31
0.23292
 12
9.058649386198178
 22
1.664562533627
 32
0.23292
 13
9.21150313619818
 23
1.664562533627
 33
0.23292
  0
SOLID
  5
177
330
1A
100
AcDbEntity
  8
BORDER
100
AcDbTrace
 10
9.323413917448176
 20
1.623619564876999
 30
0.23292
 11
9.247896886198178
 21
1.623619564876999
 31
0.23292
 12
9.323413917448176
 22
1.592684877377
 32
0.23292
 13
9.247896886198178
 23
1.592684877377
 33
0.23292
  0
SOLID
  5
178
330
1A
100
AcDbEntity
  8
BORDER
100
AcDbTrace
 10
9.445681922224418
 20
1.698279496942217
 30
0.23292
 11
9.444913242621831
 21
1.672126983355261
 31
0.23292
 12
9.397255107261331
 22
1.681357282268304
 32
0.23292
 13
9.411091340107928
 23
1.660589109713956
 33
0.23292
  0
POLYLINE
  5
179
330
1A
100
AcDbEntity
  8
BORDER
100
AcDb2dPolyline
 66
     1
 10
0.0
 20
0.0
 30
0.23292
 40
0.00727875
 41
0.00727875
  0
VERTEX
  5
39D1
330
179
100
AcDbEntity
  8
BORDER
100
AcDbVertex
100
AcDb2dVertex
 10
9.524347793036914
 20
1.638634448854635
 30
0.23292
 42
0.7414713431190223
  0
VERTEX
  5
39D2
330
179
100
AcDbEntity
  8
BORDER
100
AcDbVertex
100
AcDb2dVertex
 10
9.367789887620629
 20
1.637710108459589
 30
0.23292
 42
0.7414713431190223
  0
SEQEND
  5
39D3
330
179
100
AcDbEntity
  8
BORDER
  0
SOLID
  5
17D
330
1A
100
AcDbEntity
  8
BORDER
100
AcDbTrace
 10
9.372657359978495
 20
1.653666385529173
 30
0.23292
 11
9.398792466466511
 21
1.635205787703086
 31
0.23292
 12
9.362103797512036
 22
1.603312206555481
 32
0.23292
 13
9.391718386065877
 23
1.600757524388525
 33
0.23292
  0
SOLID
  5
17E
330
1A
100
AcDbEntity
  8
BORDER
100
AcDbTrace
 10
9.397255107261331
 20
1.681357282268304
 30
0.23292
 11
9.411091340107928
 21
1.660589109713956
 31
0.23292
 12
9.372657359978495
 22
1.653666385529173
 32
0.23292
 13
9.398792466466511
 23
1.635205787703086
 33
0.23292
  0
POLYLINE
  5
17F
330
1A
100
AcDbEntity
  8
BORDER
100
AcDb2dPolyline
 66
     1
 10
0.0
 20
0.0
 30
0.23292
 40
0.00727875
 41
0.00727875
  0
VERTEX
  5
39D4
330
17F
100
AcDbEntity
  8
BORDER
100
AcDbVertex
100
AcDb2dVertex
 10
9.367789887620629
 20
1.637710108459589
 30
0.23292
 42
0.1430540650207981
  0
VERTEX
  5
39D5
330
17F
100
AcDbEntity
  8
BORDER
100
AcDbVertex
100
AcDb2dVertex
 10
9.36748653289195
 20
1.572772042237243
 30
0.23292
 42
0.1430540650207981
  0
SEQEND
  5
39D6
330
17F
100
AcDbEntity
  8
BORDER
  0
SOLID
  5
183
330
1A
100
AcDbEntity
  8
BORDER
100
AcDbTrace
 10
9.479030362664262
 20
1.691193273098749
 30
0.23292
 11
9.469839628285486
 21
1.665135514995804
 31
0.23292
 12
9.445681922224418
 22
1.698279496942217
 32
0.23292
 13
9.444913242621831
 23
1.672126983355261
 33
0.23292
  0
SOLID
  5
184
330
1A
100
AcDbEntity
  8
BORDER
100
AcDbTrace
 10
9.515282703824999
 20
1.662580832828848
 30
0.23292
 11
9.488221097043039
 21
1.649807421994071
 31
0.23292
 12
9.479030362664262
 22
1.691193273098749
 32
0.23292
 13
9.469839628285486
 23
1.665135514995804
 33
0.23292
  0
SOLID
  5
185
330
1A
100
AcDbEntity
  8
BORDER
100
AcDbTrace
 10
9.530600594456293
 20
1.610976253056347
 30
0.23292
 11
9.498943620484945
 21
1.614041871656694
 31
0.23292
 12
9.515282703824999
 22
1.662580832828848
 32
0.23292
 13
9.488221097043039
 23
1.649807421994071
 33
0.23292
  0
POLYLINE
  5
186
330
1A
100
AcDbEntity
  8
BORDER
100
AcDb2dPolyline
 66
     1
 10
0.0
 20
0.0
 30
0.23292
 40
0.00727875
 41
0.00727875
  0
VERTEX
  5
39D7
330
186
100
AcDbEntity
  8
BORDER
100
AcDbVertex
100
AcDb2dVertex
 10
9.52570285664297
 20
1.574438037425561
 30
0.23292
 42
0.1406948172011772
  0
VERTEX
  5
39D8
330
186
100
AcDbEntity
  8
BORDER
100
AcDbVertex
100
AcDb2dVertex
 10
9.524347793036914
 20
1.638634448854635
 30
0.23292
 42
0.1406948172011772
  0
SEQEND
  5
39D9
330
186
100
AcDbEntity
  8
BORDER
  0
POLYLINE
  5
18A
330
1A
100
AcDbEntity
  8
BORDER
100
AcDb2dPolyline
 66
     1
 10
0.0
 20
0.0
 30
0.23292
  0
VERTEX
  5
39DA
330
18A
100
AcDbEntity
  8
BORDER
100
AcDbVertex
100
AcDb2dVertex
 10
10.11168001949472
 20
1.567304797936101
 30
0.23292
  0
VERTEX
  5
39DB
330
18A
100
AcDbEntity
  8
BORDER
100
AcDbVertex
100
AcDb2dVertex
 10
10.14085769973926
 20
1.567304797936101
 30
0.23292
 42
0.3020440864755188
  0
VERTEX
  5
39DC
330
18A
100
AcDbEntity
  8
BORDER
100
AcDbVertex
100
AcDb2dVertex
 10
10.15951731763917
 20
1.539814194144519
 30
0.23292
 42
0.2653699712401423
  0
VERTEX
  5
39DD
330
18A
100
AcDbEntity
  8
BORDER
100
AcDbVertex
100
AcDb2dVertex
 10
10.20954654929427
 20
1.546404713237672
 30
0.23292
 42
0.6356064402471244
  0
VERTEX
  5
39DE
330
18A
100
AcDbEntity
  8
BORDER
100
AcDbVertex
100
AcDb2dVertex
 10
10.20147155985658
 20
1.584041612188609
 30
0.23292
 42
-0.0009437836138568
  0
VERTEX
  5
39DF
330
18A
100
AcDbEntity
  8
BORDER
100
AcDbVertex
100
AcDb2dVertex
 10
10.14182328184016
 20
1.59794230930514
 30
0.23292
 42
-0.3442454331168749
  0
VERTEX
  5
39E0
330
18A
100
AcDbEntity
  8
BORDER
100
AcDbVertex
100
AcDb2dVertex
 10
10.10662589268015
 20
1.641747287338849
 30
0.23292
 42
-0.322222187521162
  0
VERTEX
  5
39E1
330
18A
100
AcDbEntity
  8
BORDER
100
AcDbVertex
100
AcDb2dVertex
 10
10.14272365726811
 20
1.693434875650743
 30
0.23292
 42
-0.1417364340760132
  0
VERTEX
  5
39E2
330
18A
100
AcDbEntity
  8
BORDER
100
AcDbVertex
100
AcDb2dVertex
 10
10.20442611449475
 20
1.696901505294216
 30
0.23292
 42
-0.3337744805077131
  0
VERTEX
  5
39E3
330
18A
100
AcDbEntity
  8
BORDER
100
AcDbVertex
100
AcDb2dVertex
 10
10.24869951408019
 20
1.644447814562008
 30
0.23292
  0
VERTEX
  5
39E4
330
18A
100
AcDbEntity
  8
BORDER
100
AcDbVertex
100
AcDb2dVertex
 10
10.21271744641968
 20
1.644447814562008
 30
0.23292
 42
0.3019792396306431
  0
VERTEX
  5
39E5
330
18A
100
AcDbEntity
  8
BORDER
100
AcDbVertex
100
AcDb2dVertex
 10
10.19552797133469
 20
1.668336199365982
 30
0.23292
 42
0.1972875622237244
  0
VERTEX
  5
39E6
330
18A
100
AcDbEntity
  8
BORDER
100
AcDbVertex
100
AcDb2dVertex
 10
10.15736929664568
 20
1.667226922198509
 30
0.23292
 42
0.728374493267646
  0
VERTEX
  5
39E7
330
18A
100
AcDbEntity
  8
BORDER
100
AcDbVertex
100
AcDb2dVertex
 10
10.16170758319223
 20
1.626787848940005
 30
0.23292
 42
0.0019568917075044
  0
SEQEND
  5
39E8
330
18A
100
AcDbEntity
  8
BORDER
  0
POLYLINE
  5
19A
330
1A
100
AcDbEntity
  8
BORDER
100
AcDb2dPolyline
 66
     1
 10
0.0
 20
0.0
 30
0.23292
  0
VERTEX
  5
39E9
330
19A
100
AcDbEntity
  8
BORDER
100
AcDbVertex
100
AcDb2dVertex
 10
10.16170758319223
 20
1.626787848940005
 30
0.23292
 42
0.0019568917075044
  0
VERTEX
  5
39EA
330
19A
100
AcDbEntity
  8
BORDER
100
AcDbVertex
100
AcDb2dVertex
 10
10.21381724056309
 20
1.616171594371281
 30
0.23292
 42
-0.2136964031287707
  0
VERTEX
  5
39EB
330
19A
100
AcDbEntity
  8
BORDER
100
AcDbVertex
100
AcDb2dVertex
 10
10.24925820477044
 20
1.591400352267789
 30
0.23292
 42
-0.2075585583027768
  0
VERTEX
  5
39EC
330
19A
100
AcDbEntity
  8
BORDER
100
AcDbVertex
100
AcDb2dVertex
 10
10.25415921431792
 20
1.554033388507869
 30
0.23292
 42
-0.2311984101377718
  0
VERTEX
  5
39ED
330
19A
100
AcDbEntity
  8
BORDER
100
AcDbVertex
100
AcDb2dVertex
 10
10.21968651791906
 20
1.515767999385046
 30
0.23292
 42
-0.176335766587305
  0
VERTEX
  5
39EE
330
19A
100
AcDbEntity
  8
BORDER
100
AcDbVertex
100
AcDb2dVertex
 10
10.14773119678748
 20
1.513320770613721
 30
0.23292
 42
-0.2115906095274752
  0
VERTEX
  5
39EF
330
19A
100
AcDbEntity
  8
BORDER
100
AcDbVertex
100
AcDb2dVertex
 10
10.10946972639185
 20
1.547707700178024
 30
0.23292
  0
SEQEND
  5
39F0
330
19A
100
AcDbEntity
  8
BORDER
  0
LINE
  5
1A3
330
1A
100
AcDbEntity
  8
BORDER
100
AcDbLine
 10
9.963014507165921
 20
1.694587377376999
 30
0.23292
 11
9.963014507165921
 21
1.525488445073501
 31
0.23292
  0
POLYLINE
  5
1A4
330
1A
100
AcDbEntity
  8
BORDER
100
AcDb2dPolyline
 66
     1
 10
0.0
 20
0.0
 30
0.23292
  0
VERTEX
  5
39F1
330
1A4
100
AcDbEntity
  8
BORDER
100
AcDbVertex
100
AcDb2dVertex
 10
9.808424325260679
 20
1.543553314876999
 30
0.23292
  0
VERTEX
  5
39F2
330
1A4
100
AcDbEntity
  8
BORDER
100
AcDbVertex
100
AcDb2dVertex
 10
9.86204141744818
 20
1.694587377376999
 30
0.23292
  0
VERTEX
  5
39F3
330
1A4
100
AcDbEntity
  8
BORDER
100
AcDbVertex
100
AcDb2dVertex
 10
9.902984386198179
 20
1.694587377376999
 30
0.23292
  0
VERTEX
  5
39F4
330
1A4
100
AcDbEntity
  8
BORDER
100
AcDbVertex
100
AcDb2dVertex
 10
9.963014507165921
 20
1.5254884450735
 30
0.23292
  0
SEQEND
  5
39F5
330
1A4
100
AcDbEntity
  8
BORDER
  0
LINE
  5
1AA
330
1A
100
AcDbEntity
  8
BORDER
100
AcDbLine
 10
9.680982511198179
 20
1.694587377376999
 30
0.23292
 11
9.680982511198179
 21
1.512618627377
 31
0.23292
  0
LINE
  5
1AB
330
1A
100
AcDbEntity
  8
BORDER
100
AcDbLine
 10
9.71919594869818
 20
1.543553314876999
 30
0.23292
 11
9.71919594869818
 21
1.694587377376999
 31
0.23292
  0
SOLID
  5
1AC
330
1A
100
AcDbEntity
  8
BORDER
100
AcDbTrace
 10
9.639484283044071
 20
1.565556791053879
 30
0.23292
 11
9.669006035897114
 21
1.575896286515048
 31
0.23292
 12
9.631119786402374
 22
1.576881000368493
 32
0.23292
 13
9.650800954971069
 23
1.590666994316717
 33
0.23292
  0
SOLID
  5
1AD
330
1A
100
AcDbEntity
  8
BORDER
100
AcDbTrace
 10
9.638754776988916
 20
1.554694285344187
 30
0.23292
 11
9.673330663821397
 21
1.565159019046526
 31
0.23292
 12
9.639484283044071
 22
1.565556791053879
 32
0.23292
 13
9.669006035897114
 23
1.575896286515048
 33
0.23292
  0
POLYLINE
  5
1AE
330
1A
100
AcDbEntity
  8
BORDER
100
AcDb2dPolyline
 66
     1
 10
0.0
 20
0.0
 30
0.23292
 40
0.00727875
 41
0.00727875
  0
VERTEX
  5
39F6
330
1AE
100
AcDbEntity
  8
BORDER
100
AcDbVertex
100
AcDb2dVertex
 10
9.642380869084329
 20
1.555004940307469
 30
0.23292
 42
0.3893977487990803
  0
VERTEX
  5
39F7
330
1AE
100
AcDbEntity
  8
BORDER
100
AcDbVertex
100
AcDb2dVertex
 10
9.605367954366725
 20
1.588982464208113
 30
0.23292
 42
0.3893977487990803
  0
SEQEND
  5
39F8
330
1AE
100
AcDbEntity
  8
BORDER
  0
POLYLINE
  5
1B2
330
1A
100
AcDbEntity
  8
BORDER
100
AcDb2dPolyline
 66
     1
 10
0.0
 20
0.0
 30
0.23292
 40
0.00727875
 41
0.00727875
  0
VERTEX
  5
39F9
330
1B2
100
AcDbEntity
  8
BORDER
100
AcDbVertex
100
AcDb2dVertex
 10
9.669708827241402
 20
1.564802157478922
 30
0.23292
 42
0.3581345567762107
  0
VERTEX
  5
39FA
330
1B2
100
AcDbEntity
  8
BORDER
100
AcDbVertex
100
AcDb2dVertex
 10
9.638745022926899
 20
1.595727482653228
 30
0.23292
 42
0.3581345567762107
  0
SEQEND
  5
39FB
330
1B2
100
AcDbEntity
  8
BORDER
  0
SOLID
  5
1B6
330
1A
100
AcDbEntity
  8
BORDER
100
AcDbTrace
 10
10.2831165716657
 20
1.559355371926152
 30
0.23292
 11
10.36871280663553
 21
1.6132492976479
 31
0.23292
 12
10.28312295038094
 22
1.542201899703388
 32
0.23292
 13
10.36871467166569
 23
1.595306573926152
 33
0.23292
  0
LINE
  5
1B7
330
1A
100
AcDbEntity
  8
BORDER
100
AcDbLine
 10
9.999408257165923
 20
1.593594721126999
 30
0.23292
 11
9.999408257165923
 21
1.540823783626999
 31
0.23292
  0
ARC
  5
1B8
330
1A
100
AcDbEntity
  8
BORDER
100
AcDbCircle
 10
10.04777284881536
 20
1.568138769150829
 30
0.23292
 40
0.025455951976171
100
AcDbArc
 50
313.2275081247476
 51
90.0
  0
TEXT
  5
1B9
330
1A
100
AcDbEntity
  8
BORDER
100
AcDbText
 10
10.47116872425655
 20
1.507766127377
 30
0.23292
 40
0.0727875
  1
NEWTON NJ
100
AcDbText
  0
SOLID
  5
1BA
330
1A
100
AcDbEntity
  8
BORDER
100
AcDbTrace
 10
10.36871467166569
 20
1.540951780426152
 30
0.23292
 11
10.2831165716657
 21
1.540951780426152
 31
0.23292
 12
10.36871467166569
 22
1.558927381426152
 32
0.23292
 13
10.2831165716657
 23
1.558927381426152
 33
0.23292
  0
SOLID
  5
1BB
330
1A
100
AcDbEntity
  8
BORDER
100
AcDbTrace
 10
10.28311657703478
 20
1.50799651274248
 30
0.23292
 11
10.28311657703478
 21
1.52597211374248
 31
0.23292
 12
10.36871467703478
 22
1.50799651274248
 32
0.23292
 13
10.36871467703478
 23
1.52597211374248
 33
0.23292
  0
POLYLINE
  5
1BC
330
1A
100
AcDbEntity
  8
BORDER
100
AcDb2dPolyline
 66
     1
 10
0.0
 20
0.0
 30
0.23292
  0
VERTEX
  5
39FC
330
1BC
100
AcDbEntity
  8
BORDER
100
AcDbVertex
100
AcDb2dVertex
 10
9.96758329244818
 20
1.512618627376999
 30
0.23292
  0
VERTEX
  5
39FD
330
1BC
100
AcDbEntity
  8
BORDER
100
AcDbVertex
100
AcDb2dVertex
 10
9.929369854948182
 20
1.512618627376999
 30
0.23292
  0
VERTEX
  5
39FE
330
1BC
100
AcDbEntity
  8
BORDER
100
AcDbVertex
100
AcDb2dVertex
 10
9.917317414121894
 20
1.551741908626999
 30
0.23292
  0
SEQEND
  5
39FF
330
1BC
100
AcDbEntity
  8
BORDER
  0
LINE
  5
1C1
330
1A
100
AcDbEntity
  8
BORDER
100
AcDbLine
 10
9.808424325260679
 20
1.543553314876999
 30
0.23292
 11
9.71919594869818
 21
1.543553314876999
 31
0.23292
  0
LINE
  5
1C2
330
1A
100
AcDbEntity
  8
BORDER
100
AcDbLine
 10
9.680982511198179
 20
1.512618627377
 30
0.23292
 11
9.810180323698181
 21
1.512618627377
 31
0.23292
  0
SOLID
  5
1C3
330
1A
100
AcDbEntity
  8
BORDER
100
AcDbTrace
 10
9.642863113032616
 20
1.517678522985564
 30
0.23292
 11
9.676616947103509
 21
1.521226308844847
 31
0.23292
 12
9.641563571503626
 22
1.521908884203857
 32
0.23292
 13
9.677319443762554
 23
1.52467634898087
 33
0.23292
  0
SOLID
  5
1C4
330
1A
100
AcDbEntity
  8
BORDER
100
AcDbTrace
 10
9.638754776988916
 20
1.554694285344187
 30
0.23292
 11
9.641563571503626
 21
1.521908884203857
 31
0.23292
 12
9.673330663821397
 22
1.565159019046526
 32
0.23292
 13
9.677319443762554
 23
1.52467634898087
 33
0.23292
  0
POLYLINE
  5
1C5
330
1A
100
AcDbEntity
  8
BORDER
100
AcDb2dPolyline
 66
     1
 10
0.0
 20
0.0
 30
0.23292
 40
0.00727875
 41
0.00727875
  0
VERTEX
  5
3A00
330
1C5
100
AcDbEntity
  8
BORDER
100
AcDbVertex
100
AcDb2dVertex
 10
9.645189663599042
 20
1.52221953916714
 30
0.23292
 42
0.1148360225250129
  0
VERTEX
  5
3A01
330
1C5
100
AcDbEntity
  8
BORDER
100
AcDbVertex
100
AcDb2dVertex
 10
9.647698161652789
 20
1.514498506973542
 30
0.23292
 42
0.1148360225250129
  0
SEQEND
  5
3A02
330
1C5
100
AcDbEntity
  8
BORDER
  0
SOLID
  5
1C9
330
1A
100
AcDbEntity
  8
BORDER
100
AcDbTrace
 10
9.644581897367922
 20
1.512618627376999
 30
0.23292
 11
9.682098712661003
 21
1.512618627376999
 31
0.23292
 12
9.642863113032616
 22
1.517678522985564
 32
0.23292
 13
9.676616947103509
 23
1.521226308844847
 33
0.23292
  0
POLYLINE
  5
1CA
330
1A
100
AcDbEntity
  8
BORDER
100
AcDb2dPolyline
 66
     1
 10
0.0
 20
0.0
 30
0.23292
 40
0.00727875
 41
0.00727875
  0
VERTEX
  5
3A03
330
1CA
100
AcDbEntity
  8
BORDER
100
AcDbVertex
100
AcDb2dVertex
 10
9.673697607182559
 20
1.524319487413266
 30
0.23292
 42
0.0950669764493849
  0
VERTEX
  5
3A04
330
1CA
100
AcDbEntity
  8
BORDER
100
AcDbVertex
100
AcDb2dVertex
 10
9.676604318320473
 20
1.514499327909478
 30
0.23292
 42
0.1404915454274296
  0
SEQEND
  5
3A05
330
1CA
100
AcDbEntity
  8
BORDER
  0
POLYLINE
  5
1CE
330
1A
100
AcDbEntity
  8
BORDER
100
AcDb2dPolyline
 66
     1
 10
0.0
 20
0.0
 30
0.23292
  0
VERTEX
  5
3A06
330
1CE
100
AcDbEntity
  8
BORDER
100
AcDbVertex
100
AcDb2dVertex
 10
9.917317414121894
 20
1.551741908626999
 30
0.23292
  0
VERTEX
  5
3A07
330
1CE
100
AcDbEntity
  8
BORDER
100
AcDbVertex
100
AcDb2dVertex
 10
9.847708389524461
 20
1.551741908626999
 30
0.23292
  0
VERTEX
  5
3A08
330
1CE
100
AcDbEntity
  8
BORDER
100
AcDbVertex
100
AcDb2dVertex
 10
9.83565594869818
 20
1.512618627376999
 30
0.23292
  0
VERTEX
  5
3A09
330
1CE
100
AcDbEntity
  8
BORDER
100
AcDbVertex
100
AcDb2dVertex
 10
9.797442511198179
 20
1.512618627376999
 30
0.23292
  0
SEQEND
  5
3A0A
330
1CE
100
AcDbEntity
  8
BORDER
  0
LINE
  5
1D4
330
1A
100
AcDbEntity
  8
BORDER
100
AcDbLine
 10
9.963014507165921
 20
1.512618627377
 30
0.23292
 11
10.05126935091592
 21
1.512618627377
 31
0.23292
  0
LINE
  5
1D5
330
1A
100
AcDbEntity
  8
BORDER
100
AcDbLine
 10
9.999408257165923
 20
1.540823783626999
 30
0.23292
 11
10.04308075716591
 21
1.540823783626999
 31
0.23292
  0
ARC
  5
1D6
330
1A
100
AcDbEntity
  8
BORDER
100
AcDbCircle
 10
10.06537959819532
 20
1.562603677527734
 30
0.23292
 40
0.0465384738210222
100
AcDbArc
 50
297.4526478761237
 51
341.3323115150402
  0
ARC
  5
1D7
330
1A
100
AcDbEntity
  8
BORDER
100
AcDbCircle
 10
10.05126935091593
 20
1.589763991413031
 30
0.23292
 40
0.077145364036032
100
AcDbArc
 50
269.9999999999952
 51
297.4526478761186
  0
ARC
  5
1D8
330
1A
100
AcDbEntity
  8
BORDER
100
AcDbCircle
 10
10.04308075716591
 20
1.573130534452434
 30
0.23292
 40
0.0323067508254348
100
AcDbArc
 50
270.0
 51
313.2275081247473
  0
TEXT
  5
1D9
330
1A
100
AcDbEntity
  8
BORDER
100
AcDbText
 10
10.47116872425655
 20
1.629078627377
 30
0.23292
 40
0.0727875
  1
PO BOX 366
100
AcDbText
  0
SOLID
  5
1DA
330
1A
100
AcDbEntity
  8
BORDER
100
AcDbTrace
 10
10.32846293341717
 20
1.63776377506151
 30
0.23292
 11
10.32940419153514
 21
1.623183984996875
 31
0.23292
 12
10.35122898157961
 22
1.645004362791319
 32
0.23292
 13
10.35764193507421
 23
1.634438692866748
 33
0.23292
  0
POLYLINE
  5
1DB
330
1A
100
AcDbEntity
  8
BORDER
100
AcDb2dPolyline
 66
     1
 10
0.0
 20
0.0
 30
0.23292
 40
0.003423924
 41
0.003423924
  0
VERTEX
  5
3A0B
330
1DB
100
AcDbEntity
  8
BORDER
100
AcDbVertex
100
AcDb2dVertex
 10
10.30730792852299
 20
1.62714063258554
 30
0.23292
 42
0.2706611322925477
  0
VERTEX
  5
3A0C
330
1DB
100
AcDbEntity
  8
BORDER
100
AcDbVertex
100
AcDb2dVertex
 10
10.355921385404
 20
1.634716335776515
 30
0.23292
 42
0.2706611322925477
  0
SEQEND
  5
3A0D
330
1DB
100
AcDbEntity
  8
BORDER
  0
POLYLINE
  5
1DF
330
1A
100
AcDbEntity
  8
BORDER
100
AcDb2dPolyline
 66
     1
 10
0.0
 20
0.0
 30
0.23292
 40
0.003423924
 41
0.003423924
  0
VERTEX
  5
3A0E
330
1DF
100
AcDbEntity
  8
BORDER
100
AcDbVertex
100
AcDb2dVertex
 10
10.30921660813503
 20
1.683359936195762
 30
0.23292
 42
0.3426274439635524
  0
VERTEX
  5
3A0F
330
1DF
100
AcDbEntity
  8
BORDER
100
AcDbVertex
100
AcDb2dVertex
 10
10.29270799830878
 20
1.665804904833641
 30
0.23292
 42
0.2942809489964497
  0
VERTEX
  5
3A10
330
1DF
100
AcDbEntity
  8
BORDER
100
AcDbVertex
100
AcDb2dVertex
 10
10.30447183892257
 20
1.643092294320815
 30
0.23292
 42
0.2735375373643303
  0
VERTEX
  5
3A11
330
1DF
100
AcDbEntity
  8
BORDER
100
AcDbVertex
100
AcDb2dVertex
 10
10.34728648890412
 20
1.6436711034951
 30
0.23292
 42
0.208169861593478
  0
VERTEX
  5
3A12
330
1DF
100
AcDbEntity
  8
BORDER
100
AcDbVertex
100
AcDb2dVertex
 10
10.35816840810036
 20
1.659148648767027
 30
0.23292
 42
0.4189849082168211
  0
VERTEX
  5
3A13
330
1DF
100
AcDbEntity
  8
BORDER
100
AcDbVertex
100
AcDb2dVertex
 10
10.3413912253114
 20
1.684139921413978
 30
0.23292
 42
0.4189849082168211
  0
SEQEND
  5
3A14
330
1DF
100
AcDbEntity
  8
BORDER
  0
SOLID
  5
1E7
330
1A
100
AcDbEntity
  8
BORDER
100
AcDbTrace
 10
10.2831165716657
 20
1.613710165426152
 30
0.23292
 11
10.36871467166569
 21
1.613710165426152
 31
0.23292
 12
10.2831165716657
 22
1.595734564426152
 32
0.23292
 13
10.36871467166569
 23
1.595734564426152
 33
0.23292
  0
SOLID
  5
1E8
330
1A
100
AcDbEntity
  8
BORDER
100
AcDbTrace
 10
9.635563981562411
 20
1.612130937424133
 30
0.23292
 11
9.649470688391525
 21
1.605647495636065
 31
0.23292
 12
9.616429435817449
 22
1.612773969591263
 32
0.23292
 13
9.639097380516426
 23
1.599349760185352
 33
0.23292
  0
SOLID
  5
1E9
330
1A
100
AcDbEntity
  8
BORDER
100
AcDbTrace
 10
9.632046797965395
 20
1.668856604230452
 30
0.23292
 11
9.644856196204125
 21
1.689591490745921
 31
0.23292
 12
9.616429435817449
 22
1.666846103113329
 32
0.23292
 13
9.633194085913112
 23
1.694587377376999
 33
0.23292
  0
SOLID
  5
1EA
330
1A
100
AcDbEntity
  8
BORDER
100
AcDbTrace
 10
9.644479449197104
 20
1.655661676447882
 30
0.23292
 11
9.672735474723717
 21
1.670364595977032
 31
0.23292
 12
9.632046797965395
 22
1.668856604230452
 32
0.23292
 13
9.644856196204125
 23
1.689591490745921
 33
0.23292
  0
SOLID
  5
1EB
330
1A
100
AcDbEntity
  8
BORDER
100
AcDbTrace
 10
9.635563981562411
 20
1.612130937424133
 30
0.23292
 11
9.649470688391525
 21
1.605647495636065
 31
0.23292
 12
9.64824691926732
 22
1.640581758982087
 32
0.23292
 13
9.676502944793933
 23
1.63153380850261
 33
0.23292
  0
SOLID
  5
1EC
330
1A
100
AcDbEntity
  8
BORDER
100
AcDbTrace
 10
9.631119786402374
 20
1.576881000368493
 30
0.23292
 11
9.650800954971069
 21
1.590666994316717
 31
0.23292
 12
9.621245592338928
 22
1.586708291434854
 32
0.23292
 13
9.639097380516426
 23
1.599349760185352
 33
0.23292
  0
POLYLINE
  5
1ED
330
1A
100
AcDbEntity
  8
BORDER
100
AcDb2dPolyline
 66
     1
 10
0.0
 20
0.0
 30
0.23292
 40
0.00727875
 41
0.00727875
  0
VERTEX
  5
3A15
330
1ED
100
AcDbEntity
  8
BORDER
100
AcDbVertex
100
AcDb2dVertex
 10
9.616429435817449
 20
1.609134594591263
 30
0.23292
 42
1.0
  0
VERTEX
  5
3A16
330
1ED
100
AcDbEntity
  8
BORDER
100
AcDbVertex
100
AcDb2dVertex
 10
9.616429435817449
 20
1.67048547811333
 30
0.23292
 42
1.0
  0
SEQEND
  5
3A17
330
1ED
100
AcDbEntity
  8
BORDER
  0
POLYLINE
  5
1F1
330
1A
100
AcDbEntity
  8
BORDER
100
AcDb2dPolyline
 66
     1
 10
0.0
 20
0.0
 30
0.23292
 40
0.00727875
 41
0.00727875
  0
VERTEX
  5
3A18
330
1F1
100
AcDbEntity
  8
BORDER
100
AcDbVertex
100
AcDb2dVertex
 10
9.638647934721481
 20
1.602961276330689
 30
0.23292
 42
0.9399343180161681
  0
VERTEX
  5
3A19
330
1F1
100
AcDbEntity
  8
BORDER
100
AcDbVertex
100
AcDb2dVertex
 10
9.633194085913112
 20
1.690948002377
 30
0.23292
 42
0.9399343180161681
  0
SEQEND
  5
3A1A
330
1F1
100
AcDbEntity
  8
BORDER
  0
SOLID
  5
1F5
330
1A
100
AcDbEntity
  8
BORDER
100
AcDbTrace
 10
9.621245592338928
 20
1.586708291434854
 30
0.23292
 11
9.639097380516426
 21
1.599349760185352
 31
0.23292
 12
9.605367954366725
 22
1.585343089208113
 32
0.23292
 13
9.616429435817449
 23
1.612773969591263
 33
0.23292
  0
SOLID
  5
1F6
330
1A
100
AcDbEntity
  8
BORDER
100
AcDbTrace
 10
9.569925144340301
 20
1.612773969591263
 30
0.23292
 11
9.569925144340301
 21
1.585343089208113
 31
0.23292
 12
9.616429435817449
 22
1.612773969591263
 32
0.23292
 13
9.605367954366725
 23
1.585343089208113
 33
0.23292
  0
SOLID
  5
1F7
330
1A
100
AcDbEntity
  8
BORDER
100
AcDbTrace
 10
9.569925144340301
 20
1.666846103113329
 30
0.23292
 11
9.569925144340301
 21
1.690622699047484
 31
0.23292
 12
9.616429435817449
 22
1.666846103113329
 32
0.23292
 13
9.633194085913112
 23
1.694587377376999
 33
0.23292
  0
LINE
  5
1F8
330
1A
100
AcDbEntity
  8
BORDER
100
AcDbLine
 10
9.71919594869818
 20
1.694587377376999
 30
0.23292
 11
9.680982511198179
 21
1.694587377376999
 31
0.23292
  0
SOLID
  5
1F9
330
1A
100
AcDbEntity
  8
BORDER
100
AcDbTrace
 10
9.64824691926732
 20
1.640581758982087
 30
0.23292
 11
9.676502944793933
 21
1.63153380850261
 31
0.23292
 12
9.644479449197104
 22
1.655661676447882
 32
0.23292
 13
9.672735474723717
 23
1.670364595977032
 33
0.23292
  0
LINE
  5
1FA
330
1A
100
AcDbEntity
  8
BORDER
100
AcDbLine
 10
9.882512901823181
 20
1.66472041174168
 30
0.23292
 11
9.856117069170709
 21
1.579037221126999
 31
0.23292
  0
LINE
  5
1FB
330
1A
100
AcDbEntity
  8
BORDER
100
AcDbLine
 10
9.856117069170709
 20
1.579037221126999
 30
0.23292
 11
9.908908734475653
 21
1.579037221126999
 31
0.23292
  0
LINE
  5
1FC
330
1A
100
AcDbEntity
  8
BORDER
100
AcDbLine
 10
9.908908734475653
 20
1.579037221126999
 30
0.23292
 11
9.882512901823181
 21
1.66472041174168
 31
0.23292
  0
LINE
  5
1FD
330
1A
100
AcDbEntity
  8
BORDER
100
AcDbLine
 10
10.04803068354796
 20
1.694587377376999
 30
0.23292
 11
9.963014507165921
 21
1.694587377376999
 31
0.23292
  0
LINE
  5
1FE
330
1A
100
AcDbEntity
  8
BORDER
100
AcDbLine
 10
10.04542171032591
 20
1.667292064876999
 30
0.23292
 11
9.999408257165923
 21
1.667292064876999
 31
0.23292
  0
LINE
  5
1FF
330
1A
100
AcDbEntity
  8
BORDER
100
AcDbLine
 10
9.999408257165923
 20
1.621799877376999
 30
0.23292
 11
10.04542171224326
 21
1.621799877376999
 31
0.23292
  0
ARC
  5
200
330
1A
100
AcDbEntity
  8
BORDER
100
AcDbCircle
 10
10.04542171224326
 20
1.644545971126999
 30
0.23292
 40
0.02274609375
100
AcDbArc
 50
270.0
 51
90.00000482967505
  0
LINE
  5
201
330
1A
100
AcDbEntity
  8
BORDER
100
AcDbLine
 10
10.04777284881536
 20
1.593594721126999
 30
0.23292
 11
9.999408257165923
 21
1.593594721126999
 31
0.23292
  0
LINE
  5
202
330
1A
100
AcDbEntity
  8
BORDER
100
AcDbLine
 10
9.999408257165923
 20
1.667292064876999
 30
0.23292
 11
9.999408257165923
 21
1.621799877376999
 31
0.23292
  0
ARC
  5
203
330
1A
100
AcDbEntity
  8
BORDER
100
AcDbCircle
 10
10.06537959819532
 20
1.562603677527734
 30
0.23292
 40
0.0465384738210222
100
AcDbArc
 50
5.797666812800194
 51
41.82143111053831
  0
ARC
  5
204
330
1A
100
AcDbEntity
  8
BORDER
100
AcDbCircle
 10
10.06564325032123
 20
1.648691017232375
 30
0.23292
 40
0.0409573319972303
100
AcDbArc
 50
358.6532608214001
 51
58.67020583628288
  0
ARC
  5
205
330
1A
100
AcDbEntity
  8
BORDER
100
AcDbCircle
 10
10.07186366730278
 20
1.648544779194484
 30
0.23292
 40
0.0347351962716
100
AcDbArc
 50
313.1575629115595
 51
358.653260821401
  0
ARC
  5
206
330
1A
100
AcDbEntity
  8
BORDER
100
AcDbCircle
 10
10.04490044466592
 20
1.677300346127003
 30
0.23292
 40
0.0741547092642271
100
AcDbArc
 50
295.3783953421117
 51
313.157562911559
  0
ARC
  5
207
330
1A
100
AcDbEntity
  8
BORDER
100
AcDbCircle
 10
10.05138073223445
 20
1.550077821550028
 30
0.23292
 40
0.06532318345851
100
AcDbArc
 50
41.8214311105379
 51
67.21116987831337
  0
ARC
  5
208
330
1A
100
AcDbEntity
  8
BORDER
100
AcDbCircle
 10
10.04803068354797
 20
1.619757338300741
 30
0.23292
 40
0.0748300390762589
100
AcDbArc
 50
58.67020583628413
 51
90.00000000000101
  0
SOLID
  5
209
330
1A
100
AcDbEntity
  8
BORDER
100
AcDbTrace
 10
10.30713280993739
 20
1.68274214926715
 30
0.23292
 11
10.30601949388388
 21
1.697559625815669
 31
0.23292
 12
10.30948246462571
 22
1.681668743061965
 32
0.23292
 13
10.30948246462571
 23
1.698414656901373
 33
0.23292
  0
SOLID
  5
20A
330
1A
100
AcDbEntity
  8
BORDER
100
AcDbTrace
 10
10.303519593291
 20
1.681816689127772
 30
0.23292
 11
10.29489139387628
 21
1.691223005298504
 31
0.23292
 12
10.30713280993739
 22
1.68274214926715
 32
0.23292
 13
10.30601949388388
 23
1.697559625815669
 33
0.23292
  0
POLYLINE
  5
20B
330
1A
100
AcDbEntity
  8
BORDER
100
AcDb2dPolyline
 66
     1
 10
0.0
 20
0.0
 30
0.23292
 40
0.003423924
 41
0.003423924
  0
VERTEX
  5
3A1B
330
20B
100
AcDbEntity
  8
BORDER
100
AcDbVertex
100
AcDb2dVertex
 10
10.3091662271699
 20
1.696644517820149
 30
0.23292
 42
0.2841209316902218
  0
VERTEX
  5
3A1C
330
20B
100
AcDbEntity
  8
BORDER
100
AcDbVertex
100
AcDb2dVertex
 10
10.28443829516057
 20
1.675959376766888
 30
0.23292
 42
0.2888447634665965
  0
SEQEND
  5
3A1D
330
20B
100
AcDbEntity
  8
BORDER
  0
SOLID
  5
20F
330
1A
100
AcDbEntity
  8
BORDER
100
AcDbTrace
 10
10.31089278188175
 20
1.63917472248712
 30
0.23292
 11
10.30210770611404
 21
1.628671002763135
 31
0.23292
 12
10.32846293341717
 22
1.63776377506151
 32
0.23292
 13
10.32940419153514
 23
1.623183984996875
 33
0.23292
  0
SOLID
  5
210
330
1A
100
AcDbEntity
  8
BORDER
100
AcDbTrace
 10
10.29457764117029
 20
1.652186793189966
 30
0.23292
 11
10.28422380187263
 21
1.647953950913136
 31
0.23292
 12
10.31089278188175
 22
1.63917472248712
 32
0.23292
 13
10.30210770611404
 23
1.628671002763135
 33
0.23292
  0
SOLID
  5
211
330
1A
100
AcDbEntity
  8
BORDER
100
AcDbTrace
 10
10.29285200128735
 20
1.670372337786714
 30
0.23292
 11
10.28296879104867
 21
1.674448408127365
 31
0.23292
 12
10.29457764117029
 22
1.652186793189966
 32
0.23292
 13
10.28422380187263
 23
1.647953950913136
 33
0.23292
  0
SOLID
  5
212
330
1A
100
AcDbEntity
  8
BORDER
100
AcDbTrace
 10
10.303519593291
 20
1.681816689127772
 30
0.23292
 11
10.29489139387628
 21
1.691223005298504
 31
0.23292
 12
10.29285200128735
 22
1.670372337786714
 32
0.23292
 13
10.28296879104867
 23
1.674448408127365
 33
0.23292
  0
POLYLINE
  5
213
330
1A
100
AcDbEntity
  8
BORDER
100
AcDb2dPolyline
 66
     1
 10
0.0
 20
0.0
 30
0.23292
 40
0.003423924
 41
0.003423924
  0
VERTEX
  5
3A1E
330
213
100
AcDbEntity
  8
BORDER
100
AcDbVertex
100
AcDb2dVertex
 10
10.28443829516057
 20
1.675959376766888
 30
0.23292
 42
0.3986208060685013
  0
VERTEX
  5
3A1F
330
213
100
AcDbEntity
  8
BORDER
100
AcDbVertex
100
AcDb2dVertex
 10
10.30730792852299
 20
1.62714063258554
 30
0.23292
 42
0.3986208060685013
  0
SEQEND
  5
3A20
330
213
100
AcDbEntity
  8
BORDER
  0
SOLID
  5
217
330
1A
100
AcDbEntity
  8
BORDER
100
AcDbTrace
 10
10.34342638155978
 20
1.683032972569047
 30
0.23292
 11
10.34524668631071
 21
1.698752272534449
 31
0.23292
 12
10.34107455189346
 22
1.682457502965489
 32
0.23292
 13
10.34107455189346
 23
1.699771227813754
 33
0.23292
  0
POLYLINE
  5
218
330
1A
100
AcDbEntity
  8
BORDER
100
AcDb2dPolyline
 66
     1
 10
0.0
 20
0.0
 30
0.23292
 40
0.003423924
 41
0.003423924
  0
VERTEX
  5
3A21
330
218
100
AcDbEntity
  8
BORDER
100
AcDbVertex
100
AcDb2dVertex
 10
10.36555909867967
 20
1.680218539873607
 30
0.23292
 42
0.2619660936757589
  0
VERTEX
  5
3A22
330
218
100
AcDbEntity
  8
BORDER
100
AcDbVertex
100
AcDb2dVertex
 10
10.34131102131013
 20
1.698021046372441
 30
0.23292
 42
0.2656465770789468
  0
SEQEND
  5
3A23
330
218
100
AcDbEntity
  8
BORDER
  0
SOLID
  5
21C
330
1A
100
AcDbEntity
  8
BORDER
100
AcDbTrace
 10
10.35417547372578
 20
1.676701372565032
 30
0.23292
 11
10.3647481808385
 21
1.683802888415973
 31
0.23292
 12
10.34342638155978
 22
1.683032972569047
 32
0.23292
 13
10.34524668631071
 23
1.698752272534449
 33
0.23292
  0
SOLID
  5
21D
330
1A
100
AcDbEntity
  8
BORDER
100
AcDbTrace
 10
10.35868187347875
 20
1.661805510048423
 30
0.23292
 11
10.36977454979374
 21
1.656262863530616
 31
0.23292
 12
10.35417547372578
 22
1.676701372565032
 32
0.23292
 13
10.3647481808385
 23
1.683802888415973
 33
0.23292
  0
SOLID
  5
21E
330
1A
100
AcDbEntity
  8
BORDER
100
AcDbTrace
 10
10.35122898157961
 20
1.645004362791319
 30
0.23292
 11
10.35764193507421
 21
1.634438692866748
 31
0.23292
 12
10.35868187347875
 22
1.661805510048423
 32
0.23292
 13
10.36977454979374
 23
1.656262863530616
 33
0.23292
  0
POLYLINE
  5
21F
330
1A
100
AcDbEntity
  8
BORDER
100
AcDb2dPolyline
 66
     1
 10
0.0
 20
0.0
 30
0.23292
 40
0.003423924
 41
0.003423924
  0
VERTEX
  5
3A24
330
21F
100
AcDbEntity
  8
BORDER
100
AcDbVertex
100
AcDb2dVertex
 10
10.36854182856266
 20
1.656093988051443
 30
0.23292
 42
0.1521907920671271
  0
VERTEX
  5
3A25
330
21F
100
AcDbEntity
  8
BORDER
100
AcDbVertex
100
AcDb2dVertex
 10
10.36555909867967
 20
1.680218539873607
 30
0.23292
 42
0.1521907920671271
  0
SEQEND
  5
3A26
330
21F
100
AcDbEntity
  8
BORDER
  0
POLYLINE
  5
223
330
1A
100
AcDbEntity
  8
BORDER
100
AcDb2dPolyline
 66
     1
 10
0.0
 20
0.0
 30
0.23292
 40
0.003423924
 41
0.003423924
  0
VERTEX
  5
3A27
330
223
100
AcDbEntity
  8
BORDER
100
AcDbVertex
100
AcDb2dVertex
 10
10.355921385404
 20
1.634716335776515
 30
0.23292
 42
0.1790006504245718
  0
VERTEX
  5
3A28
330
223
100
AcDbEntity
  8
BORDER
100
AcDbVertex
100
AcDb2dVertex
 10
10.36854182856266
 20
1.656093988051443
 30
0.23292
 42
0.1790006504245718
  0
SEQEND
  5
3A29
330
223
100
AcDbEntity
  8
BORDER
  0
POLYLINE
  5
331F
330
1A
100
AcDbEntity
  8
BORDER
100
AcDb2dPolyline
 66
     1
 10
0.0
 20
0.0
 30
0.0
 40
0.03
 41
0.03
  0
VERTEX
  5
3A2A
330
331F
100
AcDbEntity
  8
BORDER
100
AcDbVertex
100
AcDb2dVertex
 10
0.2661750000000005
 20
0.2823500000000001
 30
0.0
  0
VERTEX
  5
3A2B
330
331F
100
AcDbEntity
  8
BORDER
100
AcDbVertex
100
AcDb2dVertex
 10
11.266175
 20
0.2823500000000001
 30
0.0
  0
VERTEX
  5
3A2C
330
331F
100
AcDbEntity
  8
BORDER
100
AcDbVertex
100
AcDb2dVertex
 10
11.266175
 20
8.78235
 30
0.0
  0
SEQEND
  5
3A2D
330
331F
100
AcDbEntity
  8
BORDER
  0
POLYLINE
  5
3320
330
1A
100
AcDbEntity
  8
BORDER
100
AcDb2dPolyline
 66
     1
 10
0.0
 20
0.0
 30
0.0
 70
     1
 40
0.03
 41
0.03
  0
VERTEX
  5
3A2E
330
3320
100
AcDbEntity
  8
BORDER
100
AcDbVertex
100
AcDb2dVertex
 10
11.266175
 20
8.78235
 30
0.0
  0
VERTEX
  5
3A2F
330
3320
100
AcDbEntity
  8
BORDER
100
AcDbVertex
100
AcDb2dVertex
 10
0.2661750000000005
 20
8.78235
 30
0.0
  0
SEQEND
  5
3A30
330
3320
100
AcDbEntity
  8
BORDER
  0
POLYLINE
  5
3321
330
1A
100
AcDbEntity
  8
BORDER
100
AcDb2dPolyline
 66
     1
 10
0.0
 20
0.0
 30
0.0
 40
0.03
 41
0.03
  0
VERTEX
  5
3A31
330
3321
100
AcDbEntity
  8
BORDER
100
AcDbVertex
100
AcDb2dVertex
 10
0.2661750000000005
 20
8.78235
 30
0.0
  0
VERTEX
  5
3A32
330
3321
100
AcDbEntity
  8
BORDER
100
AcDbVertex
100
AcDb2dVertex
 10
0.2661750000000005
 20
0.2823500000000001
 30
0.0
  0
SEQEND
  5
3A33
330
3321
100
AcDbEntity
  8
BORDER
  0
LINE
  5
3451
330
1A
100
AcDbEntity
  8
BORDER
100
AcDbLine
 10
10.52239107287599
 20
0.6832137948435509
 30
0.11646
 11
10.52239107287599
 21
0.4891137948435511
 31
0.11646
  0
LINE
  5
3452
330
1A
100
AcDbEntity
  8
BORDER
100
AcDbLine
 39
0.0075
 10
8.990688857891404
 20
1.181237550649399
 30
0.11646
 11
11.2551888578914
 21
1.181237550649399
 31
0.11646
  0
POLYLINE
  5
3455
330
1A
100
AcDbEntity
  8
BORDER
100
AcDb2dPolyline
 66
     1
 10
0.0
 20
0.0
 30
0.11646
 39
0.0075
 40
0.01
 41
0.01
  0
VERTEX
  5
3A36
330
3455
100
AcDbEntity
  8
BORDER
100
AcDbVertex
100
AcDb2dVertex
 10
8.990688857891404
 20
1.291237550649399
 30
0.11646
  0
VERTEX
  5
3A37
330
3455
100
AcDbEntity
  8
BORDER
100
AcDbVertex
100
AcDb2dVertex
 10
11.2551888578914
 20
1.291237550649399
 30
0.11646
  0
SEQEND
  5
3A38
330
3455
100
AcDbEntity
  8
BORDER
  0
POLYLINE
  5
3456
330
1A
100
AcDbEntity
  8
BORDER
100
AcDb2dPolyline
 66
     1
 10
0.0
 20
0.0
 30
0.11646
 39
0.0075
 40
0.01
 41
0.01
  0
VERTEX
  5
3A39
330
3456
100
AcDbEntity
  8
BORDER
100
AcDbVertex
100
AcDb2dVertex
 10
11.2551888578914
 20
1.181237550649399
 30
0.11646
  0
VERTEX
  5
3A3A
330
3456
100
AcDbEntity
  8
BORDER
100
AcDbVertex
100
AcDb2dVertex
 10
8.990688857891404
 20
1.181237550649399
 30
0.11646
  0
SEQEND
  5
3A3B
330
3456
100
AcDbEntity
  8
BORDER
  0
POLYLINE
  5
3457
330
1A
100
AcDbEntity
  8
BORDER
100
AcDb2dPolyline
 66
     1
 10
0.0
 20
0.0
 30
0.11646
 39
0.0075
 40
0.01
 41
0.01
  0
VERTEX
  5
3A3C
330
3457
100
AcDbEntity
  8
BORDER
100
AcDbVertex
100
AcDb2dVertex
 10
8.990688857891404
 20
1.071413794843551
 30
0.11646
  0
VERTEX
  5
3A3D
330
3457
100
AcDbEntity
  8
BORDER
100
AcDbVertex
100
AcDb2dVertex
 10
11.2551888578914
 20
1.071413794843551
 30
0.11646
  0
SEQEND
  5
3A3E
330
3457
100
AcDbEntity
  8
BORDER
  0
POLYLINE
  5
3458
330
1A
100
AcDbEntity
  8
BORDER
100
AcDb2dPolyline
 66
     1
 10
0.0
 20
0.0
 30
0.0
 39
0.0075
 40
0.01
 41
0.01
  0
VERTEX
  5
3A3F
330
3458
100
AcDbEntity
  8
BORDER
100
AcDbVertex
100
AcDb2dVertex
 10
10.26191636097285
 20
1.071413794843551
 30
0.0
  0
VERTEX
  5
3A40
330
3458
100
AcDbEntity
  8
BORDER
100
AcDbVertex
100
AcDb2dVertex
 10
10.26191636097285
 20
0.8773137948435504
 30
0.0
  0
SEQEND
  5
3A41
330
3458
100
AcDbEntity
  8
BORDER
  0
POLYLINE
  5
3459
330
1A
100
AcDbEntity
  8
BORDER
100
AcDb2dPolyline
 66
     1
 10
0.0
 20
0.0
 30
0.0
 39
0.0075
 40
0.01
 41
0.01
  0
VERTEX
  5
3A42
330
3459
100
AcDbEntity
  8
BORDER
100
AcDbVertex
100
AcDb2dVertex
 10
9.702916360972857
 20
1.071413794843551
 30
0.0
  0
VERTEX
  5
3A43
330
3459
100
AcDbEntity
  8
BORDER
100
AcDbVertex
100
AcDb2dVertex
 10
9.702916360972857
 20
0.8773137948435504
 30
0.0
  0
SEQEND
  5
3A44
330
3459
100
AcDbEntity
  8
BORDER
  0
POLYLINE
  5
345A
330
1A
100
AcDbEntity
  8
BORDER
100
AcDb2dPolyline
 66
     1
 10
0.0
 20
0.0
 30
0.11646
 39
0.0075
 40
0.01
 41
0.01
  0
VERTEX
  5
3A45
330
345A
100
AcDbEntity
  8
BORDER
100
AcDbVertex
100
AcDb2dVertex
 10
8.990688857891404
 20
0.8773137948435504
 30
0.11646
  0
VERTEX
  5
3A46
330
345A
100
AcDbEntity
  8
BORDER
100
AcDbVertex
100
AcDb2dVertex
 10
11.26920067485122
 20
0.8773137948435504
 30
0.11646
  0
SEQEND
  5
3A47
330
345A
100
AcDbEntity
  8
BORDER
  0
POLYLINE
  5
345B
330
1A
100
AcDbEntity
  8
BORDER
100
AcDb2dPolyline
 66
     1
 10
0.0
 20
0.0
 30
0.11646
 39
0.0075
 40
0.01
 41
0.01
  0
VERTEX
  5
3A48
330
345B
100
AcDbEntity
  8
BORDER
100
AcDbVertex
100
AcDb2dVertex
 10
11.26920067485122
 20
0.6832137948435509
 30
0.11646
  0
VERTEX
  5
3A49
330
345B
100
AcDbEntity
  8
BORDER
100
AcDbVertex
100
AcDb2dVertex
 10
8.990688857891404
 20
0.6832137948435509
 30
0.11646
  0
SEQEND
  5
3A4A
330
345B
100
AcDbEntity
  8
BORDER
  0
POLYLINE
  5
345C
330
1A
100
AcDbEntity
  8
BORDER
100
AcDb2dPolyline
 66
     1
 10
0.0
 20
0.0
 30
0.11646
 39
0.0075
 40
0.01
 41
0.01
  0
VERTEX
  5
3A4B
330
345C
100
AcDbEntity
  8
BORDER
100
AcDbVertex
100
AcDb2dVertex
 10
11.266175
 20
0.4891137948435511
 30
0.11646
  0
VERTEX
  5
3A4C
330
345C
100
AcDbEntity
  8
BORDER
100
AcDbVertex
100
AcDb2dVertex
 10
8.990688857891404
 20
0.4891137948435511
 30
0.11646
  0
SEQEND
  5
3A4D
330
345C
100
AcDbEntity
  8
BORDER
  0
POLYLINE
  5
345D
330
1A
100
AcDbEntity
  8
BORDER
100
AcDb2dPolyline
 66
     1
 10
0.0
 20
0.0
 30
0.0
 39
0.0075
 40
0.01
 41
0.01
  0
VERTEX
  5
3A4E
330
345D
100
AcDbEntity
  8
BORDER
100
AcDbVertex
100
AcDb2dVertex
 10
9.537916360972856
 20
0.6832137948435509
 30
0.0
  0
VERTEX
  5
3A4F
330
345D
100
AcDbEntity
  8
BORDER
100
AcDbVertex
100
AcDb2dVertex
 10
9.537916360972856
 20
0.4891137948435511
 30
0.0
  0
SEQEND
  5
3A50
330
345D
100
AcDbEntity
  8
BORDER
  0
POLYLINE
  5
345E
330
1A
100
AcDbEntity
  8
BORDER
100
AcDb2dPolyline
 66
     1
 10
0.0
 20
0.0
 30
0.0
 39
0.0075
 40
0.01
 41
0.01
  0
VERTEX
  5
3A51
330
345E
100
AcDbEntity
  8
BORDER
100
AcDbVertex
100
AcDb2dVertex
 10
9.726547376952984
 20
0.6832137948435509
 30
0.0
  0
VERTEX
  5
3A52
330
345E
100
AcDbEntity
  8
BORDER
100
AcDbVertex
100
AcDb2dVertex
 10
9.726547376952984
 20
0.4891137948435511
 30
0.0
  0
SEQEND
  5
3A53
330
345E
100
AcDbEntity
  8
BORDER
  0
POLYLINE
  5
345F
330
1A
100
AcDbEntity
  8
BORDER
100
AcDb2dPolyline
 66
     1
 10
0.0
 20
0.0
 30
0.11646
 39
0.0075
 40
0.01
 41
0.01
  0
VERTEX
  5
3A54
330
345F
100
AcDbEntity
  8
BORDER
100
AcDbVertex
100
AcDb2dVertex
 10
9.945831594939301
 20
0.6832137948435509
 30
0.11646
  0
VERTEX
  5
3A55
330
345F
100
AcDbEntity
  8
BORDER
100
AcDbVertex
100
AcDb2dVertex
 10
9.945831594939301
 20
0.2823500000000001
 30
0.11646
  0
SEQEND
  5
3A56
330
345F
100
AcDbEntity
  8
BORDER
  0
POLYLINE
  5
3460
330
1A
100
AcDbEntity
  8
BORDER
100
AcDb2dPolyline
 66
     1
 10
0.0
 20
0.0
 30
0.11646
 39
0.0075
 40
0.01
 41
0.01
  0
VERTEX
  5
3A57
330
3460
100
AcDbEntity
  8
BORDER
100
AcDbVertex
100
AcDb2dVertex
 10
10.52239107287599
 20
0.6832137948435509
 30
0.11646
  0
VERTEX
  5
3A58
330
3460
100
AcDbEntity
  8
BORDER
100
AcDbVertex
100
AcDb2dVertex
 10
10.52239107287599
 20
0.4891137948435511
 30
0.11646
  0
SEQEND
  5
3A59
330
3460
100
AcDbEntity
  8
BORDER
  0
TEXT
  5
3461
330
1A
100
AcDbEntity
  8
BORDER
100
AcDbText
 10
10.5491840702082
 20
0.6154438782988123
 30
0.11646
 40
0.04
  1
DRAWING SCALE
100
AcDbText
  0
TEXT
  5
3462
330
1A
100
AcDbEntity
  8
D1
100
AcDbText
 10
10.68674121443013
 20
0.5335396653691502
 30
0.0
 40
0.06
  1
1" = 1"
100
AcDbText
  0
LINE
  5
3597
330
1A
100
AcDbEntity
  8
S1
100
AcDbLine
 10
6.884395186674893
 20
4.511453914017705
 30
0.0
 11
8.732512301053183
 21
4.511453914017706
 31
0.0
  0
LINE
  5
3598
330
1A
100
AcDbEntity
  8
S1
100
AcDbLine
 10
6.884395186674893
 20
4.570508914017706
 30
0.0
 11
8.700185499903138
 21
4.570508914017706
 31
0.0
  0
LINE
  5
3599
330
1A
100
AcDbEntity
  8
S1
100
AcDbLine
 10
6.884395186674893
 20
4.640242750927706
 30
0.0
 11
8.748972702150609
 21
4.640242750927706
 31
0.0
  0
LINE
  5
359A
330
1A
100
AcDbEntity
  8
S1
100
AcDbLine
 10
6.884395186674893
 20
4.767358914017703
 30
0.0
 11
8.727150092263658
 21
4.767358914017703
 31
0.0
  0
LINE
  5
359B
330
1A
100
AcDbEntity
  8
S1
100
AcDbLine
 10
6.884395186674893
 20
5.058696914017705
 30
0.0
 11
8.733978533972585
 21
5.058696914017704
 31
0.0
  0
LINE
  5
359C
330
1A
100
AcDbEntity
  8
S1
100
AcDbLine
 10
6.884395186674893
 20
5.263420914017705
 30
0.0
 11
8.76010200719612
 21
5.263420914017705
 31
0.0
  0
LINE
  5
359D
330
1A
100
AcDbEntity
  8
S1
100
AcDbLine
 10
6.884395186674893
 20
5.554758914017705
 30
0.0
 11
8.751813929911667
 21
5.554758914017705
 31
0.0
  0
LINE
  5
359E
330
1A
100
AcDbEntity
  8
S1
100
AcDbLine
 10
6.884395186674893
 20
5.681875077107704
 30
0.0
 11
8.739627469344402
 21
5.681875077107705
 31
0.0
  0
LINE
  5
359F
330
1A
100
AcDbEntity
  8
S1
100
AcDbLine
 10
6.884395186674893
 20
5.751608914017705
 30
0.0
 11
8.75489157941368
 21
5.751608914017705
 31
0.0
  0
LINE
  5
35A0
330
1A
100
AcDbEntity
  8
S1
100
AcDbLine
 10
6.884395186674893
 20
5.810663914017704
 30
0.0
 11
8.735296530755682
 21
5.810663914017704
 31
0.0
  0
LINE
  5
35A1
330
1A
100
AcDbEntity
  8
S1
100
AcDbLine
 10
6.884395186674893
 20
5.830348914017704
 30
0.0
 11
8.725447695300504
 21
5.830348914017705
 31
0.0
  0
LINE
  5
35A2
330
1A
100
AcDbEntity
  8
S1
100
AcDbLine
 10
6.884395186674893
 20
4.491768914017706
 30
0.0
 11
8.752616685003022
 21
4.491768914017706
 31
0.0
  0
LINE
  5
35A3
330
1A
100
AcDbEntity
  8
S1
100
AcDbLine
 10
6.884395186674893
 20
4.640242750927706
 30
0.0
 11
6.884395186674893
 21
4.570508914017706
 31
0.0
  0
LINE
  5
35BD
330
1A
100
AcDbEntity
  8
S1
100
AcDbLine
 10
6.884395186674893
 20
4.511453914017705
 30
0.0
 11
6.884395186674893
 21
4.553706703527705
 31
0.0
  0
LINE
  5
35BE
330
1A
100
AcDbEntity
  8
S1
100
AcDbLine
 10
6.884395186674893
 20
4.553706703527705
 30
0.0
 11
6.884395186674893
 21
4.570508914017706
 31
0.0
  0
LINE
  5
35BF
330
1A
100
AcDbEntity
  8
S1
100
AcDbLine
 10
6.884395186674893
 20
4.491768914017706
 30
0.0
 11
6.884395186674893
 21
4.511453914017705
 31
0.0
  0
LINE
  5
3604
330
1A
100
AcDbEntity
  8
S1
100
AcDbLine
 10
6.884395186674893
 20
5.263420914017705
 30
0.0
 11
6.884395186674893
 21
5.554758914017705
 31
0.0
  0
LINE
  5
3605
330
1A
100
AcDbEntity
  8
S1
100
AcDbLine
 10
6.884395186674893
 20
4.767358914017703
 30
0.0
 11
6.884395186674893
 21
5.058696914017705
 31
0.0
  0
LINE
  5
3606
330
1A
100
AcDbEntity
  8
S1
100
AcDbLine
 10
6.884395186674893
 20
4.640242750927706
 30
0.0
 11
6.884395186674893
 21
4.767358914017703
 31
0.0
  0
LINE
  5
3607
330
1A
100
AcDbEntity
  8
S1
100
AcDbLine
 10
6.884395186674893
 20
5.058696914017705
 30
0.0
 11
6.884395186674893
 21
5.263420914017705
 31
0.0
  0
LINE
  5
3608
330
1A
100
AcDbEntity
  8
S1
100
AcDbLine
 10
6.884395186674893
 20
5.751608914017705
 30
0.0
 11
6.884395186674893
 21
5.681875077107704
 31
0.0
  0
LINE
  5
3609
330
1A
100
AcDbEntity
  8
S1
100
AcDbLine
 10
6.884395186674893
 20
5.554758914017705
 30
0.0
 11
6.884395186674893
 21
5.681875077107704
 31
0.0
  0
LINE
  5
360A
330
1A
100
AcDbEntity
  8
S1
100
AcDbLine
 10
6.884395186674893
 20
5.810663914017704
 30
0.0
 11
6.884395186674893
 21
5.830348914017704
 31
0.0
  0
LINE
  5
360B
330
1A
100
AcDbEntity
  8
S1
100
AcDbLine
 10
6.884395186674893
 20
5.768411124507705
 30
0.0
 11
6.884395186674893
 21
5.810663914017704
 31
0.0
  0
LINE
  5
360C
330
1A
100
AcDbEntity
  8
S1
100
AcDbLine
 10
6.884395186674893
 20
5.751608914017705
 30
0.0
 11
6.884395186674893
 21
5.768411124507705
 31
0.0
  0
LINE
  5
360F
330
1A
100
AcDbEntity
  8
S1
100
AcDbLine
 10
10.82139518667489
 20
4.640242750927706
 30
0.0
 11
10.82139518667489
 21
4.570508914017706
 31
0.0
  0
LINE
  5
3610
330
1A
100
AcDbEntity
  8
S1
100
AcDbLine
 10
10.82139518667489
 20
4.511453914017705
 30
0.0
 11
10.82139518667489
 21
4.553706703527705
 31
0.0
  0
LINE
  5
3611
330
1A
100
AcDbEntity
  8
S1
100
AcDbLine
 10
10.82139518667489
 20
4.553706703527705
 30
0.0
 11
10.82139518667489
 21
4.570508914017706
 31
0.0
  0
LINE
  5
3612
330
1A
100
AcDbEntity
  8
S1
100
AcDbLine
 10
10.82139518667489
 20
4.491768914017706
 30
0.0
 11
10.82139518667489
 21
4.511453914017705
 31
0.0
  0
LINE
  5
3613
330
1A
100
AcDbEntity
  8
S1
100
AcDbLine
 10
10.82139518667489
 20
5.263420914017705
 30
0.0
 11
10.82139518667489
 21
5.554758914017705
 31
0.0
  0
LINE
  5
3614
330
1A
100
AcDbEntity
  8
S1
100
AcDbLine
 10
10.82139518667489
 20
4.767358914017703
 30
0.0
 11
10.82139518667489
 21
5.058696914017705
 31
0.0
  0
LINE
  5
3615
330
1A
100
AcDbEntity
  8
S1
100
AcDbLine
 10
10.82139518667489
 20
4.640242750927706
 30
0.0
 11
10.82139518667489
 21
4.767358914017703
 31
0.0
  0
LINE
  5
3616
330
1A
100
AcDbEntity
  8
S1
100
AcDbLine
 10
10.82139518667489
 20
5.058696914017705
 30
0.0
 11
10.82139518667489
 21
5.263420914017705
 31
0.0
  0
LINE
  5
3617
330
1A
100
AcDbEntity
  8
S1
100
AcDbLine
 10
10.82139518667489
 20
5.751608914017705
 30
0.0
 11
10.82139518667489
 21
5.681875077107704
 31
0.0
  0
LINE
  5
3618
330
1A
100
AcDbEntity
  8
S1
100
AcDbLine
 10
10.82139518667489
 20
5.554758914017705
 30
0.0
 11
10.82139518667489
 21
5.681875077107704
 31
0.0
  0
LINE
  5
3619
330
1A
100
AcDbEntity
  8
S1
100
AcDbLine
 10
10.82139518667489
 20
5.810663914017704
 30
0.0
 11
10.82139518667489
 21
5.830348914017704
 31
0.0
  0
LINE
  5
361A
330
1A
100
AcDbEntity
  8
S1
100
AcDbLine
 10
10.82139518667489
 20
5.768411124507705
 30
0.0
 11
10.82139518667489
 21
5.810663914017704
 31
0.0
  0
LINE
  5
361B
330
1A
100
AcDbEntity
  8
S1
100
AcDbLine
 10
10.82139518667489
 20
5.751608914017705
 30
0.0
 11
10.82139518667489
 21
5.768411124507705
 31
0.0
  0
LINE
  5
3711
330
1A
100
AcDbEntity
  8
S1
100
AcDbLine
 10
8.973229396164272
 20
5.830348914017704
 30
0.0
 11
9.005707226989805
 21
5.780284529519846
 31
0.0
  0
LINE
  5
3712
330
1A
100
AcDbEntity
  8
S1
100
AcDbLine
 10
9.005707226989805
 20
5.780284529519846
 30
0.0
 11
8.990665483542365
 21
5.760241740978003
 31
0.0
  0
LINE
  5
3713
330
1A
100
AcDbEntity
  8
S1
100
AcDbLine
 10
8.990665483542365
 20
5.760241740978003
 30
0.0
 11
9.015735080898558
 21
5.715145443939817
 31
0.0
  0
LINE
  5
3714
330
1A
100
AcDbEntity
  8
S1
100
AcDbLine
 10
9.015735080898558
 20
5.715145443939817
 30
0.0
 11
8.975623702679229
 21
5.675059866856134
 31
0.0
  0
LINE
  5
3715
330
1A
100
AcDbEntity
  8
S1
100
AcDbLine
 10
8.975623702679229
 20
5.675059866856134
 30
0.0
 11
9.000693337451117
 21
5.650006381178833
 31
0.0
  0
LINE
  5
3716
330
1A
100
AcDbEntity
  8
S1
100
AcDbLine
 10
9.000693337451117
 20
5.650006381178833
 30
0.0
 11
8.985651556587981
 21
5.589878015553306
 31
0.0
  0
LINE
  5
3717
330
1A
100
AcDbEntity
  8
S1
100
AcDbLine
 10
8.985651556587981
 20
5.589878015553306
 30
0.0
 11
8.975623702679229
 21
5.569835227011466
 31
0.0
  0
LINE
  5
3718
330
1A
100
AcDbEntity
  8
S1
100
AcDbLine
 10
8.975623702679229
 20
5.569835227011466
 30
0.0
 11
8.980637629633605
 21
5.539771044198705
 31
0.0
  0
LINE
  5
3719
330
1A
100
AcDbEntity
  8
S1
100
AcDbLine
 10
8.980637629633605
 20
5.539771044198705
 30
0.0
 11
8.995679410496741
 21
5.49467476997956
 31
0.0
  0
LINE
  5
371A
330
1A
100
AcDbEntity
  8
S1
100
AcDbLine
 10
8.995679410496741
 20
5.49467476997956
 30
0.0
 11
8.960581921816093
 21
5.434546404354037
 31
0.0
  0
LINE
  5
371B
330
1A
100
AcDbEntity
  8
S1
100
AcDbLine
 10
8.960581921816093
 20
5.434546404354037
 30
0.0
 11
9.000693337451117
 21
5.409492918676736
 31
0.0
  0
LINE
  5
371C
330
1A
100
AcDbEntity
  8
S1
100
AcDbLine
 10
9.000693337451117
 20
5.409492918676736
 30
0.0
 11
9.000693337451117
 21
5.374418015909469
 31
0.0
  0
LINE
  5
371D
330
1A
100
AcDbEntity
  8
S1
100
AcDbLine
 10
9.000693337451117
 20
5.374418015909469
 30
0.0
 11
8.980637629633605
 21
5.304268256013024
 31
0.0
  0
LINE
  5
371E
330
1A
100
AcDbEntity
  8
S1
100
AcDbLine
 10
8.980637629633605
 20
5.304268256013024
 30
0.0
 11
8.965595848770469
 21
5.274204073200262
 31
0.0
  0
LINE
  5
371F
330
1A
100
AcDbEntity
  8
S1
100
AcDbLine
 10
8.965595848770469
 20
5.274204073200262
 30
0.0
 11
8.975623702679229
 21
5.229107798981118
 31
0.0
  0
LINE
  5
3720
330
1A
100
AcDbEntity
  8
S1
100
AcDbLine
 10
8.975623702679229
 20
5.229107798981118
 30
0.0
 11
8.980637629633605
 21
5.209065010439278
 31
0.0
  0
LINE
  5
3721
330
1A
100
AcDbEntity
  8
S1
100
AcDbLine
 10
8.980637629633605
 20
5.209065010439278
 30
0.0
 11
9.005707226989805
 21
5.184011524761974
 31
0.0
  0
LINE
  5
3722
330
1A
100
AcDbEntity
  8
S1
100
AcDbLine
 10
9.005707226989805
 20
5.184011524761974
 30
0.0
 11
8.990665483542365
 21
5.14392594767829
 31
0.0
  0
LINE
  5
3723
330
1A
100
AcDbEntity
  8
S1
100
AcDbLine
 10
8.990665483542365
 20
5.14392594767829
 30
0.0
 11
8.975623702679229
 21
5.118872462000989
 31
0.0
  0
LINE
  5
3724
330
1A
100
AcDbEntity
  8
S1
100
AcDbLine
 10
8.975623702679229
 20
5.118872462000989
 30
0.0
 11
8.990665483542365
 21
5.093818976323689
 31
0.0
  0
LINE
  5
3725
330
1A
100
AcDbEntity
  8
S1
100
AcDbLine
 10
8.990665483542365
 20
5.093818976323689
 30
0.0
 11
9.010721153944182
 21
5.073776187781849
 31
0.0
  0
LINE
  5
3726
330
1A
100
AcDbEntity
  8
S1
100
AcDbLine
 10
9.010721153944182
 20
5.073776187781849
 30
0.0
 11
8.990665483542365
 21
4.968551525118137
 31
0.0
  0
LINE
  5
3727
330
1A
100
AcDbEntity
  8
S1
100
AcDbLine
 10
8.990665483542365
 20
4.968551525118137
 30
0.0
 11
8.980637629633605
 21
4.943498039440832
 31
0.0
  0
LINE
  5
3728
330
1A
100
AcDbEntity
  8
S1
100
AcDbLine
 10
8.980637629633605
 20
4.943498039440832
 30
0.0
 11
8.980637629633605
 21
4.923455250898992
 31
0.0
  0
LINE
  5
3729
330
1A
100
AcDbEntity
  8
S1
100
AcDbLine
 10
8.980637629633605
 20
4.923455250898992
 30
0.0
 11
9.050832569579206
 21
4.873348279544387
 31
0.0
  0
LINE
  5
372A
330
1A
100
AcDbEntity
  8
S1
100
AcDbLine
 10
9.050832569579206
 20
4.873348279544387
 30
0.0
 11
8.980637629633605
 21
4.818230611054325
 31
0.0
  0
LINE
  5
372B
330
1A
100
AcDbEntity
  8
S1
100
AcDbLine
 10
8.980637629633605
 20
4.818230611054325
 30
0.0
 11
9.030776861761694
 21
4.77313433683518
 31
0.0
  0
LINE
  5
372C
330
1A
100
AcDbEntity
  8
S1
100
AcDbLine
 10
9.030776861761694
 20
4.77313433683518
 30
0.0
 11
9.050832569579206
 21
4.7330487597515
 31
0.0
  0
LINE
  5
372D
330
1A
100
AcDbEntity
  8
S1
100
AcDbLine
 10
9.050832569579206
 20
4.7330487597515
 30
0.0
 11
8.990665483542365
 21
4.69797385698423
 31
0.0
  0
LINE
  5
372E
330
1A
100
AcDbEntity
  8
S1
100
AcDbLine
 10
8.990665483542365
 20
4.69797385698423
 30
0.0
 11
8.965595848770469
 21
4.672920371306929
 31
0.0
  0
LINE
  5
372F
330
1A
100
AcDbEntity
  8
S1
100
AcDbLine
 10
8.965595848770469
 20
4.672920371306929
 30
0.0
 11
8.980637629633605
 21
4.642856188494167
 31
0.0
  0
LINE
  5
3730
330
1A
100
AcDbEntity
  8
S1
100
AcDbLine
 10
8.980637629633605
 20
4.642856188494167
 30
0.0
 11
9.010721153944182
 21
4.622813399952327
 31
0.0
  0
LINE
  5
3731
330
1A
100
AcDbEntity
  8
S1
100
AcDbLine
 10
9.010721153944182
 20
4.622813399952327
 30
0.0
 11
9.050832569579206
 21
4.587738520004105
 31
0.0
  0
LINE
  5
3732
330
1A
100
AcDbEntity
  8
S1
100
AcDbLine
 10
9.050832569579206
 20
4.587738520004105
 30
0.0
 11
8.985651556587981
 21
4.51758876010766
 31
0.0
  0
LINE
  5
3733
330
1A
100
AcDbEntity
  8
S1
100
AcDbLine
 10
8.985651556587981
 20
4.51758876010766
 30
0.0
 11
8.985651556587981
 21
4.507567365836738
 31
0.0
  0
LINE
  5
3734
330
1A
100
AcDbEntity
  8
S1
100
AcDbLine
 10
8.985651556587981
 20
4.507567365836738
 30
0.0
 11
9.014107076462085
 21
4.491768914017706
 31
0.0
  0
LINE
  5
3736
330
1A
100
AcDbEntity
  8
S1
100
AcDbLine
 10
8.725252908879035
 20
5.83073823626033
 30
0.0
 11
8.757920285909754
 21
5.765445510051598
 31
0.0
  0
LINE
  5
3737
330
1A
100
AcDbEntity
  8
S1
100
AcDbLine
 10
8.757920285909754
 20
5.765445510051598
 30
0.0
 11
8.732512301053183
 21
5.649369547276286
 31
0.0
  0
LINE
  5
3738
330
1A
100
AcDbEntity
  8
S1
100
AcDbLine
 10
8.732512301053183
 20
5.649369547276286
 30
0.0
 11
8.761549981996829
 21
5.627605312813056
 31
0.0
  0
LINE
  5
3739
330
1A
100
AcDbEntity
  8
S1
100
AcDbLine
 10
8.761549981996829
 20
5.627605312813056
 30
0.0
 11
8.739771730643013
 21
5.576822076246479
 31
0.0
  0
LINE
  5
373A
330
1A
100
AcDbEntity
  8
S1
100
AcDbLine
 10
8.739771730643013
 20
5.576822076246479
 30
0.0
 11
8.761549981996829
 21
5.536920968321037
 31
0.0
  0
LINE
  5
373B
330
1A
100
AcDbEntity
  8
S1
100
AcDbLine
 10
8.761549981996829
 20
5.536920968321037
 30
0.0
 11
8.743401464145776
 21
5.504274605216672
 31
0.0
  0
LINE
  5
373C
330
1A
100
AcDbEntity
  8
S1
100
AcDbLine
 10
8.743401464145776
 20
5.504274605216672
 30
0.0
 11
8.732512301053183
 21
5.482510370753441
 31
0.0
  0
LINE
  5
373D
330
1A
100
AcDbEntity
  8
S1
100
AcDbLine
 10
8.732512301053183
 20
5.482510370753441
 30
0.0
 11
8.761549981996829
 21
5.464373497291227
 31
0.0
  0
LINE
  5
373E
330
1A
100
AcDbEntity
  8
S1
100
AcDbLine
 10
8.761549981996829
 20
5.464373497291227
 30
0.0
 11
8.739771730643013
 21
5.428099750366801
 31
0.0
  0
LINE
  5
373F
330
1A
100
AcDbEntity
  8
S1
100
AcDbLine
 10
8.739771730643013
 20
5.428099750366801
 30
0.0
 11
8.717993479289205
 21
5.384571281440344
 31
0.0
  0
LINE
  5
3740
330
1A
100
AcDbEntity
  8
S1
100
AcDbLine
 10
8.717993479289205
 20
5.384571281440344
 30
0.0
 11
8.728882604966109
 21
5.377316536619268
 31
0.0
  0
LINE
  5
3741
330
1A
100
AcDbEntity
  8
S1
100
AcDbLine
 10
8.728882604966109
 20
5.377316536619268
 30
0.0
 11
8.765179715499591
 21
5.355552279336993
 31
0.0
  0
LINE
  5
3742
330
1A
100
AcDbEntity
  8
S1
100
AcDbLine
 10
8.765179715499591
 20
5.355552279336993
 30
0.0
 11
8.732512301053183
 21
5.322905916232627
 31
0.0
  0
LINE
  5
3743
330
1A
100
AcDbEntity
  8
S1
100
AcDbLine
 10
8.732512301053183
 20
5.322905916232627
 30
0.0
 11
8.725252908879035
 21
5.308396426590473
 31
0.0
  0
LINE
  5
3744
330
1A
100
AcDbEntity
  8
S1
100
AcDbLine
 10
8.725252908879035
 20
5.308396426590473
 30
0.0
 11
8.765179715499591
 21
5.279377447306167
 31
0.0
  0
LINE
  5
3745
330
1A
100
AcDbEntity
  8
S1
100
AcDbLine
 10
8.765179715499591
 20
5.279377447306167
 30
0.0
 11
8.761549981996829
 21
5.264867957664016
 31
0.0
  0
LINE
  5
3746
330
1A
100
AcDbEntity
  8
S1
100
AcDbLine
 10
8.761549981996829
 20
5.264867957664016
 30
0.0
 11
8.721623175376272
 21
5.22496682691953
 31
0.0
  0
LINE
  5
3747
330
1A
100
AcDbEntity
  8
S1
100
AcDbLine
 10
8.721623175376272
 20
5.22496682691953
 30
0.0
 11
8.717993479289205
 21
5.195947847635224
 31
0.0
  0
LINE
  5
3748
330
1A
100
AcDbEntity
  8
S1
100
AcDbLine
 10
8.717993479289205
 20
5.195947847635224
 30
0.0
 11
8.754290589822687
 21
5.145164611068643
 31
0.0
  0
LINE
  5
3749
330
1A
100
AcDbEntity
  8
S1
100
AcDbLine
 10
8.754290589822687
 20
5.145164611068643
 30
0.0
 11
8.761549981996829
 21
5.094381397321111
 31
0.0
  0
LINE
  5
374A
330
1A
100
AcDbEntity
  8
S1
100
AcDbLine
 10
8.761549981996829
 20
5.094381397321111
 30
0.0
 11
8.732512301053183
 21
5.072617140038836
 31
0.0
  0
LINE
  5
374B
330
1A
100
AcDbEntity
  8
S1
100
AcDbLine
 10
8.732512301053183
 20
5.072617140038836
 30
0.0
 11
8.739771730643013
 21
5.003697052829089
 31
0.0
  0
LINE
  5
374C
330
1A
100
AcDbEntity
  8
S1
100
AcDbLine
 10
8.739771730643013
 20
5.003697052829089
 30
0.0
 11
8.805106522120148
 21
4.942031687621373
 31
0.0
  0
LINE
  5
374D
330
1A
100
AcDbEntity
  8
S1
100
AcDbLine
 10
8.805106522120148
 20
4.942031687621373
 30
0.0
 11
8.77969853726357
 21
4.923894836978202
 31
0.0
  0
LINE
  5
374E
330
1A
100
AcDbEntity
  8
S1
100
AcDbLine
 10
8.77969853726357
 20
4.923894836978202
 30
0.0
 11
8.761549981996829
 21
4.865856855590546
 31
0.0
  0
LINE
  5
374F
330
1A
100
AcDbEntity
  8
S1
100
AcDbLine
 10
8.761549981996829
 20
4.865856855590546
 30
0.0
 11
8.757920285909754
 21
4.83321049248618
 31
0.0
  0
LINE
  5
3750
330
1A
100
AcDbEntity
  8
S1
100
AcDbLine
 10
8.757920285909754
 20
4.83321049248618
 30
0.0
 11
8.754290589822687
 21
4.782427255919603
 31
0.0
  0
LINE
  5
3751
330
1A
100
AcDbEntity
  8
S1
100
AcDbLine
 10
8.754290589822687
 20
4.782427255919603
 30
0.0
 11
8.721623175376272
 21
4.764290382457389
 31
0.0
  0
LINE
  5
3752
330
1A
100
AcDbEntity
  8
S1
100
AcDbLine
 10
8.721623175376272
 20
4.764290382457389
 30
0.0
 11
8.783328270766332
 21
4.691742911427581
 31
0.0
  0
LINE
  5
3753
330
1A
100
AcDbEntity
  8
S1
100
AcDbLine
 10
8.783328270766332
 20
4.691742911427581
 30
0.0
 11
8.74703116023285
 21
4.637332313859985
 31
0.0
  0
LINE
  5
3754
330
1A
100
AcDbEntity
  8
S1
100
AcDbLine
 10
8.74703116023285
 20
4.637332313859985
 30
0.0
 11
8.69621522793539
 21
4.575666948652269
 31
0.0
  0
LINE
  5
3755
330
1A
100
AcDbEntity
  8
S1
100
AcDbLine
 10
8.69621522793539
 20
4.575666948652269
 30
0.0
 11
8.732512301053183
 21
4.528511095905752
 31
0.0
  0
LINE
  5
3756
330
1A
100
AcDbEntity
  8
S1
100
AcDbLine
 10
8.732512301053183
 20
4.528511095905752
 30
0.0
 11
8.732512301053183
 21
4.510374245262582
 31
0.0
  0
LINE
  5
3757
330
1A
100
AcDbEntity
  8
S1
100
AcDbLine
 10
8.732512301053183
 20
4.510374245262582
 30
0.0
 11
8.752616685003021
 21
4.491768914017706
 31
0.0
  0
LINE
  5
3758
330
1A
100
AcDbEntity
  8
S1
100
AcDbLine
 10
9.014107076462087
 20
4.491768914017706
 30
0.0
 11
10.82139518667489
 21
4.491768914017706
 31
0.0
  0
LINE
  5
3759
330
1A
100
AcDbEntity
  8
S1
100
AcDbLine
 10
8.985651556587981
 20
4.511453914017705
 30
0.0
 11
10.82139518667489
 21
4.511453914017705
 31
0.0
  0
LINE
  5
375A
330
1A
100
AcDbEntity
  8
S1
100
AcDbLine
 10
9.034823346264813
 20
4.570508914017706
 30
0.0
 11
10.82139518667489
 21
4.570508914017706
 31
0.0
  0
LINE
  5
375B
330
1A
100
AcDbEntity
  8
S1
100
AcDbLine
 10
8.984560307977522
 20
4.640242750927706
 30
0.0
 11
10.82139518667489
 21
4.640242750927706
 31
0.0
  0
LINE
  5
375C
330
1A
100
AcDbEntity
  8
S1
100
AcDbLine
 10
9.033666434545143
 20
4.767358914017703
 30
0.0
 11
10.82139518667489
 21
4.767358914017703
 31
0.0
  0
LINE
  5
375D
330
1A
100
AcDbEntity
  8
S1
100
AcDbLine
 10
9.007847065903824
 20
5.058696914017705
 30
0.0
 11
10.82139518667489
 21
5.058696914017705
 31
0.0
  0
LINE
  5
375E
330
1A
100
AcDbEntity
  8
S1
100
AcDbLine
 10
8.967993650957678
 20
5.263420914017705
 30
0.0
 11
10.82139518667489
 21
5.263420914017705
 31
0.0
  0
LINE
  5
375F
330
1A
100
AcDbEntity
  8
S1
100
AcDbLine
 10
8.978138041171739
 20
5.554758914017705
 30
0.0
 11
10.82139518667489
 21
5.554758914017705
 31
0.0
  0
LINE
  5
3760
330
1A
100
AcDbEntity
  8
S1
100
AcDbLine
 10
8.982443299550052
 20
5.681875077107704
 30
0.0
 11
10.82139518667489
 21
5.681875077107704
 31
0.0
  0
LINE
  5
3761
330
1A
100
AcDbEntity
  8
S1
100
AcDbLine
 10
8.99546458036748
 20
5.751608914017704
 30
0.0
 11
10.82139518667489
 21
5.751608914017705
 31
0.0
  0
LINE
  5
3762
330
1A
100
AcDbEntity
  8
S1
100
AcDbLine
 10
8.985999474258969
 20
5.810663914017704
 30
0.0
 11
10.82139518667489
 21
5.810663914017704
 31
0.0
  0
LINE
  5
3763
330
1A
100
AcDbEntity
  8
S1
100
AcDbLine
 10
8.973229396164272
 20
5.830348914017704
 30
0.0
 11
10.82139518667489
 21
5.830348914017704
 31
0.0
  0
LINE
  5
3765
330
1A
100
AcDbEntity
  8
D1
100
AcDbLine
 10
10.82139518667489
 20
5.870348914017706
 30
0.0
 11
10.82139518667489
 21
6.185635965985135
 31
0.0
  0
LINE
  5
3766
330
1A
100
AcDbEntity
  8
D1
100
AcDbLine
 10
6.884395186674893
 20
5.870348914017704
 30
0.0
 11
6.884395186674893
 21
6.185635965985135
 31
0.0
  0
LINE
  5
3767
330
1A
100
AcDbEntity
  8
D1
100
AcDbLine
 10
10.64139518667489
 20
6.145635965985135
 30
0.0
 11
9.110146420301894
 21
6.145635965985135
 31
0.0
  0
LINE
  5
3768
330
1A
100
AcDbEntity
  8
D1
100
AcDbLine
 10
7.064395186674893
 20
6.145635965985135
 30
0.0
 11
8.572856588716931
 21
6.145635965985135
 31
0.0
  0
SOLID
  5
3769
330
1A
100
AcDbEntity
  8
D1
100
AcDbTrace
 10
10.64139518667489
 20
6.175635965985136
 30
0.0
 11
10.64139518667489
 21
6.115635965985135
 31
0.0
 12
10.82139518667489
 22
6.145635965985135
 32
0.0
 13
10.82139518667489
 23
6.145635965985135
 33
0.0
  0
SOLID
  5
376A
330
1A
100
AcDbEntity
  8
D1
100
AcDbTrace
 10
7.064395186674893
 20
6.175635965985136
 30
0.0
 11
7.064395186674893
 21
6.115635965985135
 31
0.0
 12
6.884395186674893
 22
6.145635965985135
 32
0.0
 13
6.884395186674893
 23
6.145635965985135
 33
0.0
  0
MTEXT
  5
376B
330
1A
100
AcDbEntity
  8
D1
100
AcDbMText
 10
8.838729196547994
 20
6.145635965985135
 30
0.0
 40
0.08
 41
0.0
 71
     5
 72
     1
  1
7.87"\P(200mm)
1001
ACAD
1000
MTEXTBEGIN
1070
    73
1070
     1
1070
    44
1040
1.0
1070
    74
1070
     0
1000
MTEXTEND
  0
TEXT
  5
387A
330
1A
100
AcDbEntity
  8
D1
100
AcDbText
 10
10.50901104424412
 20
0.9066535306636914
 30
0.0
 40
0.06
  1
JCM
100
AcDbText
  0
INSERT
  5
391A
330
1A
100
AcDbEntity
  8
S1
100
AcDbBlockReference
  2
COPYWRITE
 10
0.1888111441117921
 20
4.390488366577128
 30
0.0
 41
0.5
 42
0.5
  0
TEXT
  5
391B
330
1A
100
AcDbEntity
  8
D1
100
AcDbText
 10
4.417669759257436
 20
5.940858102198872
 30
0.0
 40
0.08
  1
M3-0.5 TAP, 0.25"(6mm) DEEP
100
AcDbText
  0
TEXT
  5
391C
330
1A
100
AcDbEntity
  8
D1
100
AcDbText
 10
4.331038246637539
 20
5.807524768865538
 30
0.0
 40
0.08
  1
 (4 PLACES X BOTH ENDS)
100
AcDbText
  0
LINE
  5
391D
330
1A
100
AcDbEntity
  8
D1
100
AcDbLine
 10
4.117423614108023
 20
4.727358914017703
 30
0.0
 11
4.117423614108023
 21
3.98995129783828
 31
0.0
  0
LINE
  5
391E
330
1A
100
AcDbEntity
  8
D1
100
AcDbLine
 10
2.778843614108023
 20
4.727358914017703
 30
0.0
 11
2.778843614108023
 21
3.98995129783828
 31
0.0
  0
LINE
  5
391F
330
1A
100
AcDbEntity
  8
D1
100
AcDbLine
 10
2.018288581095977
 20
4.489058914017705
 30
0.0
 11
2.018288581095977
 21
4.309058914017705
 31
0.0
  0
LINE
  5
3920
330
1A
100
AcDbEntity
  8
D1
  6
CENTER
100
AcDbLine
 10
3.448133614108024
 20
5.016177499703964
 30
0.0
 11
3.448133614108023
 21
4.291394053716942
 31
0.0
  0
LINE
  5
3921
330
1A
100
AcDbEntity
  8
D1
100
AcDbLine
 10
3.937423614108023
 20
4.02995129783828
 30
0.0
 11
3.687692907392143
 21
4.02995129783828
 31
0.0
  0
LINE
  5
3922
330
1A
100
AcDbEntity
  8
D1
100
AcDbLine
 10
2.958843614108023
 20
4.02995129783828
 30
0.0
 11
3.215681584612365
 21
4.02995129783828
 31
0.0
  0
SOLID
  5
3923
330
1A
100
AcDbEntity
  8
D1
100
AcDbTrace
 10
2.958843614108023
 20
4.059951297838281
 30
0.0
 11
2.958843614108023
 21
3.99995129783828
 31
0.0
 12
2.778843614108023
 22
4.02995129783828
 32
0.0
 13
2.778843614108023
 23
4.02995129783828
 33
0.0
  0
MTEXT
  5
3924
330
1A
100
AcDbEntity
  8
D1
100
AcDbMText
 10
3.443549105957696
 20
4.02995129783828
 30
0.0
 40
0.08
 41
0.0
 71
     5
 72
     1
  1
1.34"\P(34mm)
1001
ACAD
1000
MTEXTBEGIN
1070
    73
1070
     1
1070
    44
1040
1.0
1070
    74
1070
     0
1000
MTEXTEND
  0
SOLID
  5
3925
330
1A
100
AcDbEntity
  8
D1
100
AcDbTrace
 10
3.937423614108023
 20
4.059951297838281
 30
0.0
 11
3.937423614108023
 21
3.99995129783828
 31
0.0
 12
4.117423614108023
 22
4.02995129783828
 32
0.0
 13
4.117423614108023
 23
4.02995129783828
 33
0.0
  0
LINE
  5
3926
330
1A
100
AcDbEntity
  8
D1
100
AcDbLine
 10
2.74367026183258
 20
4.491768914017706
 30
0.0
 11
2.079189428518144
 21
4.491768914017707
 31
0.0
  0
LINE
  5
3927
330
1A
100
AcDbEntity
  8
D1
100
AcDbLine
 10
2.743670261832581
 20
4.669058914017705
 30
0.0
 11
1.504172385670937
 21
4.669058914017705
 31
0.0
  0
LINE
  5
3928
330
1A
100
AcDbEntity
  8
D1
100
AcDbLine
 10
3.014433614108024
 20
5.830348914017704
 30
0.0
 11
0.9214206640510873
 21
5.830348914017705
 31
0.0
  0
MTEXT
  5
3929
330
1A
100
AcDbEntity
  8
D1
100
AcDbMText
 10
2.555802050467218
 20
6.399148416306463
 30
0.0
 40
0.08
 41
0.0
 71
     3
 72
     1
  1
0.49"\P(12.5mm)
1001
ACAD
1000
MTEXTBEGIN
1070
    73
1070
     1
1070
    44
1040
1.0
1070
    74
1070
     0
1000
MTEXTEND
  0
LINE
  5
392A
330
1A
100
AcDbEntity
  8
D1
100
AcDbLine
 10
2.408133614108023
 20
5.161058914017704
 30
0.0
 11
1.978288581095977
 21
5.161058914017704
 31
0.0
  0
LINE
  5
392B
330
1A
100
AcDbEntity
  8
D1
100
AcDbLine
 10
2.846133614108024
 20
5.653058914017703
 30
0.0
 11
1.494362488446672
 21
5.653058914017703
 31
0.0
  0
MTEXT
  5
392C
330
1A
100
AcDbEntity
  8
D1
100
AcDbMText
 10
2.018288581095976
 20
4.893627633202292
 30
0.0
 40
0.08
 41
0.0
 71
     5
 72
     1
  1
0.49"\P(12.5mm)
1001
ACAD
1000
MTEXTBEGIN
1070
    73
1070
     1
1070
    44
1040
1.0
1070
    74
1070
     0
1000
MTEXTEND
  0
SOLID
  5
392D
330
1A
100
AcDbEntity
  8
D1
100
AcDbTrace
 10
0.9314206640510871
 20
5.650348914017706
 30
0.0
 11
0.9914206640510876
 21
5.650348914017706
 31
0.0
 12
0.9614206640510873
 22
5.830348914017705
 32
0.0
 13
0.9614206640510873
 23
5.830348914017705
 33
0.0
  0
LINE
  5
392E
330
1A
100
AcDbEntity
  8
D1
100
AcDbLine
 10
1.959394208228747
 20
4.491768914017707
 30
0.0
 11
0.921420664051087
 21
4.491768914017707
 31
0.0
  0
MTEXT
  5
392F
330
1A
100
AcDbEntity
  8
D1
100
AcDbMText
 10
0.9614206640510865
 20
5.143953297336565
 30
0.0
 40
0.08
 41
0.0
 71
     5
 72
     1
  1
1.34"\P(34mm)
1001
ACAD
1000
MTEXTBEGIN
1070
    73
1070
     1
1070
    44
1040
1.0
1070
    74
1070
     0
1000
MTEXTEND
  0
LINE
  5
3930
330
1A
100
AcDbEntity
  8
D1
100
AcDbLine
 10
0.9614206640510873
 20
4.671768914017706
 30
0.0
 11
0.9614206640510868
 21
4.98132527111241
 31
0.0
  0
SOLID
  5
3931
330
1A
100
AcDbEntity
  8
D1
100
AcDbTrace
 10
0.9314206640510871
 20
4.671768914017706
 30
0.0
 11
0.9914206640510872
 21
4.671768914017706
 31
0.0
 12
0.9614206640510873
 22
4.491768914017707
 32
0.0
 13
0.9614206640510873
 23
4.491768914017707
 33
0.0
  0
LINE
  5
3932
330
1A
100
AcDbEntity
  8
D1
100
AcDbLine
 10
0.9614206640510873
 20
5.650348914017706
 30
0.0
 11
0.9614206640510873
 21
5.306581323560724
 31
0.0
  0
MTEXT
  5
3933
330
1A
100
AcDbEntity
  8
D1
100
AcDbMText
 10
1.534362488446671
 20
5.159638655369402
 30
0.0
 40
0.08
 41
0.0
 71
     5
 72
     1
  1
0.98"\P(25mm)
1001
ACAD
1000
MTEXTBEGIN
1070
    73
1070
     1
1070
    44
1040
1.0
1070
    74
1070
     0
1000
MTEXTEND
  0
SOLID
  5
3934
330
1A
100
AcDbEntity
  8
D1
100
AcDbTrace
 10
1.504362488446671
 20
4.849058914017705
 30
0.0
 11
1.564362488446671
 21
4.849058914017705
 31
0.0
 12
1.534362488446671
 22
4.669058914017705
 32
0.0
 13
1.534362488446671
 23
4.669058914017705
 33
0.0
  0
LINE
  5
3935
330
1A
100
AcDbEntity
  8
D1
100
AcDbLine
 10
1.534362488446671
 20
4.849058914017705
 30
0.0
 11
1.534362488446672
 21
5.015727372387573
 31
0.0
  0
SOLID
  5
3936
330
1A
100
AcDbEntity
  8
D1
100
AcDbTrace
 10
1.988288581095977
 20
4.489058914017705
 30
0.0
 11
2.048288581095977
 21
4.489058914017705
 31
0.0
 12
2.018288581095977
 22
4.669058914017705
 32
0.0
 13
2.018288581095977
 23
4.669058914017705
 33
0.0
  0
LINE
  5
3937
330
1A
100
AcDbEntity
  8
D1
100
AcDbLine
 10
1.534362488446672
 20
5.473058914017704
 30
0.0
 11
1.534362488446672
 21
5.303046170945183
 31
0.0
  0
SOLID
  5
3938
330
1A
100
AcDbEntity
  8
D1
100
AcDbTrace
 10
1.504362488446672
 20
5.473058914017704
 30
0.0
 11
1.564362488446672
 21
5.473058914017704
 31
0.0
 12
1.534362488446672
 22
5.653058914017703
 32
0.0
 13
1.534362488446672
 23
5.653058914017703
 33
0.0
  0
LINE
  5
3939
330
1A
100
AcDbEntity
  8
D1
100
AcDbLine
 10
2.018288581095977
 20
5.341058914017704
 30
0.0
 11
2.018288581095977
 21
5.521058914017705
 31
0.0
  0
SOLID
  5
393A
330
1A
100
AcDbEntity
  8
D1
100
AcDbTrace
 10
1.988288581095977
 20
5.341058914017704
 30
0.0
 11
2.048288581095977
 21
5.341058914017704
 31
0.0
 12
2.018288581095977
 22
5.161058914017704
 32
0.0
 13
2.018288581095977
 23
5.161058914017704
 33
0.0
  0
SOLID
  5
393B
330
1A
100
AcDbEntity
  8
D1
100
AcDbTrace
 10
3.760133614108023
 20
6.624907944910503
 30
0.0
 11
3.760133614108023
 21
6.564907944910502
 31
0.0
 12
3.940133614108023
 22
6.594907944910502
 32
0.0
 13
3.940133614108023
 23
6.594907944910502
 33
0.0
  0
LINE
  5
393C
330
1A
100
AcDbEntity
  8
S1
100
AcDbLine
 10
3.806540495718021
 20
5.751608914017705
 30
0.0
 11
3.988683614108023
 21
5.751608914017703
 31
0.0
  0
LINE
  5
393D
330
1A
100
AcDbEntity
  8
D1
100
AcDbLine
 10
3.870133614108024
 20
5.653058914017703
 30
0.0
 11
4.010133614108023
 21
5.653058914017703
 31
0.0
  0
LINE
  5
393E
330
1A
100
AcDbEntity
  8
D1
100
AcDbLine
 10
3.870133614108021
 20
5.653058914017703
 30
0.0
 11
4.010133614108022
 21
5.653058914017702
 31
0.0
  0
CIRCLE
  5
393F
330
1A
100
AcDbEntity
  8
S1
  6
HIDDEN
100
AcDbCircle
 10
3.940133614108024
 20
5.653058914017703
 30
0.0
 40
0.059
  0
LINE
  5
3940
330
1A
100
AcDbEntity
  8
D1
  6
CENTER
100
AcDbLine
 10
3.60358107356475
 20
5.161058914017704
 30
0.0
 11
4.448133614108023
 21
5.161058914017704
 31
0.0
1001
GENIUS_GENODEF_13
1002
{
1000
HIER
1070
     0
1002
}
1002
{
1000
MANEDIT
1070
     0
1002
}
1002
{
1000
NOSEL
1070
     0
1002
}
1002
{
1000
BEHIND
1070
     0
1002
}
1002
{
1000
REACTOR
1002
}
1001
GENIUS_GENOBJ-3-CEN_13
1002
{
1000
OWNER
1000
GE3
1002
}
  0
CIRCLE
  5
3941
330
1A
100
AcDbEntity
  8
S1
  6
HIDDEN
100
AcDbCircle
 10
3.940133614108023
 20
4.669058914017705
 30
0.0
 40
0.059
  0
LINE
  5
3942
330
1A
100
AcDbEntity
  8
S1
100
AcDbLine
 10
3.988683614108024
 20
4.570508914017707
 30
0.0
 11
3.806540495718021
 21
4.570508914017706
 31
0.0
  0
CIRCLE
  5
3943
330
1A
100
AcDbEntity
  8
S1
100
AcDbCircle
 10
3.448133614108023
 20
5.161058914017704
 30
0.0
 40
0.5710000000000001
  0
LINE
  5
3944
330
1A
100
AcDbEntity
  8
S1
100
AcDbLine
 10
3.841833614108022
 20
5.810663914017704
 30
0.0
 11
3.799580824598024
 21
5.768411124507705
 31
0.0
  0
LINE
  5
3945
330
1A
100
AcDbEntity
  8
S1
100
AcDbLine
 10
3.096686403618022
 20
5.768411124507705
 30
0.0
 11
3.054433614108024
 21
5.810663914017704
 31
0.0
  0
LINE
  5
3946
330
1A
100
AcDbEntity
  8
D1
100
AcDbLine
 10
2.956133614108023
 20
5.763058914017704
 30
0.0
 11
2.956133614108023
 21
6.634907944910502
 31
0.0
  0
LINE
  5
3947
330
1A
100
AcDbEntity
  8
D1
  6
CENTER
100
AcDbLine
 10
3.448133614108024
 20
6.07418233491926
 30
0.0
 11
3.448133614108024
 21
5.3374205100822
 31
0.0
  0
LINE
  5
3948
330
1A
100
AcDbEntity
  8
D1
100
AcDbLine
 10
3.014433614108024
 20
4.491768914017706
 30
0.0
 11
2.825051553213906
 21
4.491768914017706
 31
0.0
  0
LINE
  5
3949
330
1A
100
AcDbEntity
  8
S1
100
AcDbLine
 10
2.907583614108022
 20
5.751608914017705
 30
0.0
 11
3.089726732498021
 21
5.751608914017705
 31
0.0
  0
LINE
  5
394A
330
1A
100
AcDbEntity
  8
D1
100
AcDbLine
 10
2.886133614108024
 20
5.653058914017703
 30
0.0
 11
3.026133614108023
 21
5.653058914017703
 31
0.0
  0
CIRCLE
  5
394B
330
1A
100
AcDbEntity
  8
S1
  6
HIDDEN
100
AcDbCircle
 10
2.956133614108023
 20
5.653058914017703
 30
0.0
 40
0.059
  0
LINE
  5
394C
330
1A
100
AcDbEntity
  8
S1
100
AcDbLine
 10
3.089726732498021
 20
4.570508914017706
 30
0.0
 11
2.907583614108022
 21
4.570508914017706
 31
0.0
  0
LINE
  5
394D
330
1A
100
AcDbEntity
  8
D1
100
AcDbLine
 10
2.886133614108024
 20
4.669058914017705
 30
0.0
 11
3.026133614108023
 21
4.669058914017705
 31
0.0
  0
CIRCLE
  5
394E
330
1A
100
AcDbEntity
  8
S1
  6
HIDDEN
100
AcDbCircle
 10
2.956133614108023
 20
4.669058914017705
 30
0.0
 40
0.059
  0
LINE
  5
394F
330
1A
100
AcDbEntity
  8
D1
  6
CENTER
100
AcDbLine
 10
2.448133614108023
 20
5.161058914017704
 30
0.0
 11
3.304876060445433
 21
5.161058914017704
 31
0.0
1001
GENIUS_GENODEF_13
1002
{
1000
HIER
1070
     0
1002
}
1002
{
1000
MANEDIT
1070
     0
1002
}
1002
{
1000
NOSEL
1070
     0
1002
}
1002
{
1000
BEHIND
1070
     0
1002
}
1002
{
1000
REACTOR
1002
}
1001
GENIUS_GENOBJ-3-CEN_13
1002
{
1000
OWNER
1000
GE3
1002
}
  0
LINE
  5
3950
330
1A
100
AcDbEntity
  8
S1
100
AcDbLine
 10
2.798528614108022
 20
5.058696914017705
 30
0.0
 11
2.798528614108022
 21
5.263420914017705
 31
0.0
  0
LINE
  5
3951
330
1A
100
AcDbEntity
  8
S1
100
AcDbLine
 10
2.857583614108023
 20
4.620508914017705
 30
0.0
 11
2.857583614108023
 21
4.802652032407705
 31
0.0
  0
ARC
  5
3952
330
1A
100
AcDbEntity
  8
S1
100
AcDbCircle
 10
2.907583614108022
 20
4.620508914017705
 30
0.0
 40
0.05
100
AcDbArc
 50
180.0
 51
270.0
  0
LINE
  5
3953
330
1A
100
AcDbEntity
  8
D1
100
AcDbLine
 10
2.867133614108023
 20
4.669058914017705
 30
0.0
 11
2.814430801209145
 21
4.669058914017705
 31
0.0
  0
LINE
  5
3954
330
1A
100
AcDbEntity
  8
D1
100
AcDbLine
 10
2.956133614108023
 20
4.599058914017705
 30
0.0
 11
2.956133614108023
 21
4.739058914017705
 31
0.0
  0
CIRCLE
  5
3955
330
1A
100
AcDbEntity
  8
S1
100
AcDbCircle
 10
2.956133614108023
 20
4.669058914017705
 30
0.0
 40
0.049
  0
LINE
  5
3956
330
1A
100
AcDbEntity
  8
S1
100
AcDbLine
 10
2.778843614108023
 20
5.058696914017705
 30
0.0
 11
2.798528614108022
 21
5.058696914017705
 31
0.0
  0
LINE
  5
3957
330
1A
100
AcDbEntity
  8
S1
100
AcDbLine
 10
2.798528614108022
 20
4.767358914017703
 30
0.0
 11
2.778843614108023
 21
4.767358914017703
 31
0.0
  0
LINE
  5
3958
330
1A
100
AcDbEntity
  8
S1
100
AcDbLine
 10
2.778843614108023
 20
4.767358914017703
 30
0.0
 11
2.778843614108023
 21
5.058696914017705
 31
0.0
  0
ARC
  5
3959
330
1A
100
AcDbEntity
  8
S1
100
AcDbCircle
 10
2.847741114108021
 20
4.802652032407705
 30
0.0
 40
0.0098425
100
AcDbArc
 50
0.0
 51
134.9999999999998
  0
LINE
  5
395A
330
1A
100
AcDbEntity
  8
S1
100
AcDbLine
 10
2.840781403618024
 20
4.809611703527705
 30
0.0
 11
2.798528614108022
 21
4.767358914017703
 31
0.0
  0
LINE
  5
395B
330
1A
100
AcDbEntity
  8
S1
100
AcDbLine
 10
2.778843614108023
 20
5.263420914017705
 30
0.0
 11
2.778843614108023
 21
5.554758914017705
 31
0.0
  0
LINE
  5
395C
330
1A
100
AcDbEntity
  8
S1
100
AcDbLine
 10
2.798528614108022
 20
5.263420914017705
 30
0.0
 11
2.778843614108023
 21
5.263420914017705
 31
0.0
  0
LINE
  5
395D
330
1A
100
AcDbEntity
  8
S1
100
AcDbLine
 10
2.778843614108023
 20
5.554758914017705
 30
0.0
 11
2.798528614108022
 21
5.554758914017705
 31
0.0
  0
LINE
  5
395E
330
1A
100
AcDbEntity
  8
D1
100
AcDbLine
 10
2.956133614108023
 20
5.583058914017703
 30
0.0
 11
2.956133614108023
 21
5.723058914017704
 31
0.0
  0
LINE
  5
395F
330
1A
100
AcDbEntity
  8
S1
100
AcDbLine
 10
2.857583614108023
 20
5.519465795627704
 30
0.0
 11
2.857583614108023
 21
5.701608914017706
 31
0.0
  0
ARC
  5
3960
330
1A
100
AcDbEntity
  8
S1
100
AcDbCircle
 10
2.847741114108021
 20
5.519465795627704
 30
0.0
 40
0.0098425
100
AcDbArc
 50
225.0
 51
0.0
  0
LINE
  5
3961
330
1A
100
AcDbEntity
  8
S1
100
AcDbLine
 10
2.798528614108022
 20
5.554758914017705
 30
0.0
 11
2.840781403618024
 21
5.512506124507705
 31
0.0
  0
ARC
  5
3962
330
1A
100
AcDbEntity
  8
S1
100
AcDbCircle
 10
2.907583614108022
 20
5.701608914017706
 30
0.0
 40
0.05
100
AcDbArc
 50
90.0
 51
180.0
  0
CIRCLE
  5
3963
330
1A
100
AcDbEntity
  8
S1
100
AcDbCircle
 10
2.956133614108023
 20
5.653058914017703
 30
0.0
 40
0.049
  0
LINE
  5
3964
330
1A
100
AcDbEntity
  8
D1
  6
CONTINUOUS
100
AcDbLine
 10
3.448133614108023
 20
5.071058914017702
 30
0.0
 11
3.448133614108023
 21
5.251058914017702
 31
0.0
  0
LINE
  5
3965
330
1A
100
AcDbEntity
  8
D1
  6
CONTINUOUS
100
AcDbLine
 10
3.448133614108025
 20
5.071058914017704
 30
0.0
 11
3.448133614108023
 21
5.251058914017702
 31
0.0
  0
LINE
  5
3966
330
1A
100
AcDbEntity
  8
D1
  6
CONTINUOUS
100
AcDbLine
 10
3.448133614108023
 20
5.071058914017704
 30
0.0
 11
3.448133614108023
 21
5.251058914017704
 31
0.0
  0
LINE
  5
3967
330
1A
100
AcDbEntity
  8
S1
100
AcDbLine
 10
3.550495614108022
 20
4.511453914017705
 30
0.0
 11
3.345771614108024
 21
4.511453914017705
 31
0.0
  0
LINE
  5
3968
330
1A
100
AcDbEntity
  8
S1
100
AcDbLine
 10
3.345771614108024
 20
4.491768914017706
 30
0.0
 11
3.054433614108024
 21
4.491768914017706
 31
0.0
  0
ARC
  5
3969
330
1A
100
AcDbEntity
  8
S1
100
AcDbCircle
 10
3.089726732498021
 20
4.560666414017704
 30
0.0
 40
0.0098425
100
AcDbArc
 50
314.9999999999999
 51
90.0
  0
LINE
  5
396A
330
1A
100
AcDbEntity
  8
S1
100
AcDbLine
 10
3.054433614108024
 20
4.511453914017705
 30
0.0
 11
3.096686403618022
 21
4.553706703527705
 31
0.0
  0
LINE
  5
396B
330
1A
100
AcDbEntity
  8
S1
100
AcDbLine
 10
3.054433614108024
 20
4.491768914017706
 30
0.0
 11
3.054433614108024
 21
4.511453914017705
 31
0.0
  0
LINE
  5
396C
330
1A
100
AcDbEntity
  8
S1
100
AcDbLine
 10
3.345771614108024
 20
4.511453914017705
 30
0.0
 11
3.345771614108024
 21
4.491768914017706
 31
0.0
  0
LINE
  5
396D
330
1A
100
AcDbEntity
  8
S1
100
AcDbLine
 10
3.841833614108022
 20
4.491768914017706
 30
0.0
 11
3.550495614108022
 21
4.491768914017706
 31
0.0
  0
LINE
  5
396E
330
1A
100
AcDbEntity
  8
S1
100
AcDbLine
 10
3.550495614108022
 20
4.491768914017706
 30
0.0
 11
3.550495614108022
 21
4.511453914017705
 31
0.0
  0
ARC
  5
396F
330
1A
100
AcDbEntity
  8
S1
100
AcDbCircle
 10
3.806540495718021
 20
4.560666414017704
 30
0.0
 40
0.0098425
100
AcDbArc
 50
90.0
 51
225.0
  0
LINE
  5
3970
330
1A
100
AcDbEntity
  8
S1
100
AcDbLine
 10
3.799580824598024
 20
4.553706703527705
 30
0.0
 11
3.841833614108022
 21
4.511453914017705
 31
0.0
  0
LINE
  5
3971
330
1A
100
AcDbEntity
  8
S1
100
AcDbLine
 10
3.841833614108022
 20
4.511453914017705
 30
0.0
 11
3.841833614108022
 21
4.491768914017706
 31
0.0
  0
LINE
  5
3972
330
1A
100
AcDbEntity
  8
D1
  6
CONTINUOUS
100
AcDbLine
 10
3.358133614108021
 20
5.161058914017703
 30
0.0
 11
3.538133614108023
 21
5.161058914017703
 31
0.0
  0
LINE
  5
3973
330
1A
100
AcDbEntity
  8
D1
  6
CONTINUOUS
100
AcDbLine
 10
3.358133614108025
 20
5.161058914017703
 30
0.0
 11
3.538133614108023
 21
5.161058914017703
 31
0.0
  0
LINE
  5
3974
330
1A
100
AcDbEntity
  8
D1
  6
CONTINUOUS
100
AcDbLine
 10
3.358133614108023
 20
5.161058914017704
 30
0.0
 11
3.538133614108023
 21
5.161058914017704
 31
0.0
  0
LINE
  5
3975
330
1A
100
AcDbEntity
  8
D1
100
AcDbLine
 10
3.378133614108024
 20
5.161058914017704
 30
0.0
 11
3.518133614108024
 21
5.161058914017704
 31
0.0
  0
LINE
  5
3976
330
1A
100
AcDbEntity
  8
D1
100
AcDbLine
 10
3.378133614108023
 20
5.161058914017704
 30
0.0
 11
3.518133614108023
 21
5.161058914017704
 31
0.0
  0
LINE
  5
3977
330
1A
100
AcDbEntity
  8
D1
100
AcDbLine
 10
3.448133614108023
 20
5.091058914017704
 30
0.0
 11
3.448133614108024
 21
5.231058914017705
 31
0.0
  0
LINE
  5
3978
330
1A
100
AcDbEntity
  8
D1
100
AcDbLine
 10
3.448133614108023
 20
5.091058914017704
 30
0.0
 11
3.448133614108023
 21
5.231058914017705
 31
0.0
  0
ARC
  5
3979
330
1A
100
AcDbEntity
  8
S1
100
AcDbCircle
 10
3.089726732498021
 20
5.761451414017704
 30
0.0
 40
0.0098425
100
AcDbArc
 50
270.0
 51
45.0
  0
ARC
  5
397A
330
1A
100
AcDbEntity
  8
S1
100
AcDbCircle
 10
3.806540495718021
 20
5.761451414017704
 30
0.0
 40
0.0098425
100
AcDbArc
 50
134.9999999999998
 51
270.0
  0
SOLID
  5
397B
330
1A
100
AcDbEntity
  8
D1
100
AcDbTrace
 10
3.136133614108024
 20
6.624907944910503
 30
0.0
 11
3.136133614108024
 21
6.564907944910502
 31
0.0
 12
2.956133614108023
 22
6.594907944910502
 32
0.0
 13
2.956133614108023
 23
6.594907944910502
 33
0.0
  0
LINE
  5
397C
330
1A
100
AcDbEntity
  8
D1
100
AcDbLine
 10
2.956133614108023
 20
5.803058914017704
 30
0.0
 11
2.956133614108023
 21
6.341653489185984
 31
0.0
  0
SOLID
  5
397D
330
1A
100
AcDbEntity
  8
D1
100
AcDbTrace
 10
2.776133614108023
 20
6.331653489185984
 30
0.0
 11
2.776133614108023
 21
6.271653489185983
 31
0.0
 12
2.956133614108023
 22
6.301653489185984
 32
0.0
 13
2.956133614108023
 23
6.301653489185984
 33
0.0
  0
LINE
  5
397E
330
1A
100
AcDbEntity
  8
D1
100
AcDbLine
 10
2.776133614108023
 20
6.301653489185984
 30
0.0
 11
2.596133614108024
 21
6.301653489185984
 31
0.0
  0
LINE
  5
397F
330
1A
100
AcDbEntity
  8
S1
100
AcDbLine
 10
3.345771614108024
 20
5.810663914017704
 30
0.0
 11
3.550495614108022
 21
5.810663914017704
 31
0.0
  0
SOLID
  5
3980
330
1A
100
AcDbEntity
  8
D1
100
AcDbTrace
 10
3.628133614108024
 20
6.331653489185984
 30
0.0
 11
3.628133614108024
 21
6.271653489185983
 31
0.0
 12
3.448133614108024
 22
6.301653489185984
 32
0.0
 13
3.448133614108024
 23
6.301653489185984
 33
0.0
  0
LINE
  5
3981
330
1A
100
AcDbEntity
  8
S1
100
AcDbLine
 10
3.054433614108024
 20
5.830348914017704
 30
0.0
 11
3.345771614108024
 21
5.830348914017704
 31
0.0
  0
LINE
  5
3982
330
1A
100
AcDbEntity
  8
S1
100
AcDbLine
 10
3.054433614108024
 20
5.810663914017704
 30
0.0
 11
3.054433614108024
 21
5.830348914017704
 31
0.0
  0
LINE
  5
3983
330
1A
100
AcDbEntity
  8
S1
100
AcDbLine
 10
3.345771614108024
 20
5.830348914017704
 30
0.0
 11
3.345771614108024
 21
5.810663914017704
 31
0.0
  0
LINE
  5
3984
330
1A
100
AcDbEntity
  8
D1
100
AcDbLine
 10
3.448133614108024
 20
6.125917146713359
 30
0.0
 11
3.448133614108024
 21
6.341653489185984
 31
0.0
  0
LINE
  5
3985
330
1A
100
AcDbEntity
  8
S1
100
AcDbLine
 10
3.550495614108022
 20
5.830348914017704
 30
0.0
 11
3.841833614108022
 21
5.830348914017704
 31
0.0
  0
LINE
  5
3986
330
1A
100
AcDbEntity
  8
S1
100
AcDbLine
 10
3.550495614108022
 20
5.810663914017704
 30
0.0
 11
3.550495614108022
 21
5.830348914017704
 31
0.0
  0
LINE
  5
3987
330
1A
100
AcDbEntity
  8
S1
100
AcDbLine
 10
3.841833614108022
 20
5.830348914017704
 30
0.0
 11
3.841833614108022
 21
5.810663914017704
 31
0.0
  0
LINE
  5
3988
330
1A
100
AcDbEntity
  8
D1
100
AcDbLine
 10
3.628133614108024
 20
6.301653489185984
 30
0.0
 11
3.808133614108024
 21
6.301653489185984
 31
0.0
  0
MTEXT
  5
3989
330
1A
100
AcDbEntity
  8
D1
100
AcDbMText
 10
3.444824199343887
 20
6.594907944910502
 30
0.0
 40
0.08
 41
0.0
 71
     5
 72
     1
  1
0.98"\P(25mm)
1001
ACAD
1000
MTEXTBEGIN
1070
    73
1070
     1
1070
    44
1040
1.0
1070
    74
1070
     0
1000
MTEXTEND
  0
LINE
  5
398A
330
1A
100
AcDbEntity
  8
D1
100
AcDbLine
 10
3.136133614108024
 20
6.594907944910502
 30
0.0
 11
3.211626834710709
 21
6.594907944910502
 31
0.0
  0
LINE
  5
398B
330
1A
100
AcDbEntity
  8
D1
100
AcDbLine
 10
3.760133614108023
 20
6.594907944910502
 30
0.0
 11
3.675638314329699
 21
6.594907944910502
 31
0.0
  0
SOLID
  5
398C
330
1A
100
AcDbEntity
  8
D1
100
AcDbTrace
 10
4.052102892044035
 20
5.85505861896424
 30
0.0
 11
4.100357166348615
 21
5.819400169596125
 31
0.0
 12
3.969254681091982
 22
5.692466571366444
 32
0.0
 13
3.969254681091982
 23
5.692466571366444
 33
0.0
  0
LINE
  5
398D
330
1A
100
AcDbEntity
  8
D1
100
AcDbLine
 10
3.940133614108023
 20
5.763058914017704
 30
0.0
 11
3.940133614108023
 21
6.634907944910502
 31
0.0
  0
LINE
  5
398E
330
1A
100
AcDbEntity
  8
S1
100
AcDbLine
 10
4.097738614108024
 20
5.263420914017705
 30
0.0
 11
4.097738614108024
 21
5.058696914017705
 31
0.0
  0
LINE
  5
398F
330
1A
100
AcDbEntity
  8
S1
100
AcDbLine
 10
4.038683614108023
 20
4.802652032407705
 30
0.0
 11
4.038683614108023
 21
4.620508914017706
 31
0.0
  0
ARC
  5
3990
330
1A
100
AcDbEntity
  8
S1
100
AcDbCircle
 10
3.988683614108023
 20
4.620508914017706
 30
0.0
 40
0.05
100
AcDbArc
 50
270.0000000000008
 51
0.0000000000002036
  0
CIRCLE
  5
3991
330
1A
100
AcDbEntity
  8
S1
100
AcDbCircle
 10
3.940133614108023
 20
4.669058914017705
 30
0.0
 40
0.049
  0
LINE
  5
3992
330
1A
100
AcDbEntity
  8
S1
100
AcDbLine
 10
4.097738614108024
 20
5.058696914017705
 30
0.0
 11
4.117423614108023
 21
5.058696914017705
 31
0.0
  0
LINE
  5
3993
330
1A
100
AcDbEntity
  8
S1
100
AcDbLine
 10
4.117423614108023
 20
4.767358914017703
 30
0.0
 11
4.097738614108024
 21
4.767358914017703
 31
0.0
  0
LINE
  5
3994
330
1A
100
AcDbEntity
  8
S1
100
AcDbLine
 10
4.097738614108024
 20
4.767358914017703
 30
0.0
 11
4.055485824598022
 21
4.809611703527705
 31
0.0
  0
ARC
  5
3995
330
1A
100
AcDbEntity
  8
S1
100
AcDbCircle
 10
4.048526114108021
 20
4.802652032407705
 30
0.0
 40
0.0098425
100
AcDbArc
 50
45.0
 51
180.0
  0
LINE
  5
3996
330
1A
100
AcDbEntity
  8
S1
100
AcDbLine
 10
4.117423614108023
 20
5.058696914017705
 30
0.0
 11
4.117423614108023
 21
4.767358914017703
 31
0.0
  0
LINE
  5
3997
330
1A
100
AcDbEntity
  8
S1
100
AcDbLine
 10
4.117423614108023
 20
5.554758914017705
 30
0.0
 11
4.117423614108023
 21
5.263420914017705
 31
0.0
  0
LINE
  5
3998
330
1A
100
AcDbEntity
  8
S1
100
AcDbLine
 10
4.117423614108023
 20
5.263420914017705
 30
0.0
 11
4.097738614108024
 21
5.263420914017705
 31
0.0
  0
LINE
  5
3999
330
1A
100
AcDbEntity
  8
S1
100
AcDbLine
 10
4.097738614108024
 20
5.554758914017705
 30
0.0
 11
4.117423614108023
 21
5.554758914017705
 31
0.0
  0
LINE
  5
399A
330
1A
100
AcDbEntity
  8
S1
100
AcDbLine
 10
4.038683614108023
 20
5.701608914017704
 30
0.0
 11
4.038683614108023
 21
5.519465795627704
 31
0.0
  0
LINE
  5
399B
330
1A
100
AcDbEntity
  8
D1
100
AcDbLine
 10
3.940133614108023
 20
5.583058914017703
 30
0.0
 11
3.940133614108023
 21
5.723058914017704
 31
0.0
  0
LINE
  5
399C
330
1A
100
AcDbEntity
  8
D1
100
AcDbLine
 10
3.940133614108021
 20
5.583058914017703
 30
0.0
 11
3.940133614108021
 21
5.723058914017703
 31
0.0
  0
LINE
  5
399D
330
1A
100
AcDbEntity
  8
S1
100
AcDbLine
 10
4.055485824598022
 20
5.512506124507705
 30
0.0
 11
4.097738614108024
 21
5.554758914017705
 31
0.0
  0
ARC
  5
399E
330
1A
100
AcDbEntity
  8
S1
100
AcDbCircle
 10
4.048526114108021
 20
5.519465795627704
 30
0.0
 40
0.0098425
100
AcDbArc
 50
180.0
 51
314.9999999999999
  0
ARC
  5
399F
330
1A
100
AcDbEntity
  8
S1
100
AcDbCircle
 10
3.988683614108023
 20
5.701608914017704
 30
0.0
 40
0.05
100
AcDbArc
 50
0.0
 51
89.99999999999975
  0
CIRCLE
  5
39A0
330
1A
100
AcDbEntity
  8
S1
100
AcDbCircle
 10
3.940133614108023
 20
5.653058914017703
 30
0.0
 40
0.049
  0
LINE
  5
39A1
330
1A
100
AcDbEntity
  8
D1
100
AcDbLine
 10
4.183205377300668
 20
5.981992217193922
 30
0.0
 11
4.363205377300667
 21
5.981992217193921
 31
0.0
  0
LINE
  5
39A2
330
1A
100
AcDbEntity
  8
D1
100
AcDbLine
 10
4.076230029196325
 20
5.837229394280183
 30
0.0
 11
4.183205377300668
 21
5.981992217193922
 31
0.0
  0
INSERT
  5
39A3
330
1A
100
AcDbEntity
  8
S1
100
AcDbBlockReference
  2
ESD-INFO
 10
5.282742277006324
 20
0.4475247040216113
 30
0.0
 41
0.5
 42
0.5
  0
LINE
  5
39A6
330
1A
100
AcDbEntity
  8
D1
100
AcDbLine
 10
4.151769096433874
 20
4.8985744230243
 30
0.0
 11
4.320416748655782
 21
4.835662028378743
 31
0.0
  0
LINE
  5
39A7
330
1A
100
AcDbEntity
  8
D1
100
AcDbLine
 10
4.320416748655782
 20
4.835662028378743
 30
0.0
 11
4.500416748655783
 21
4.835662028378743
 31
0.0
  0
SOLID
  5
39A8
330
1A
100
AcDbEntity
  8
D1
100
AcDbTrace
 10
4.162254495541468
 20
4.926682365061285
 30
0.0
 11
4.141283697326281
 21
4.870466480987315
 31
0.0
 12
3.983121444211966
 22
4.961486817669856
 32
0.0
 13
3.983121444211966
 23
4.961486817669856
 33
0.0
  0
MTEXT
  5
39A9
330
1A
100
AcDbEntity
  8
D1
100
AcDbMText
 10
4.723750081989116
 20
4.835662028378744
 30
0.0
 40
0.08
 41
0.0
 71
     5
 72
     1
  1
\U+22051.14"\P(\U+220529mm)
1001
ACAD
1000
MTEXTBEGIN
1070
    73
1070
     1
1070
    44
1040
1.0
1070
    74
1070
     0
1000
MTEXTEND
  0
LINE
  5
39AA
330
1A
100
AcDbEntity
  8
D1
100
AcDbLine
 10
3.378133614108024
 20
5.161058914017703
 30
0.0
 11
3.518133614108023
 21
5.161058914017704
 31
0.0
  0
LINE
  5
39AB
330
1A
100
AcDbEntity
  8
D1
100
AcDbLine
 10
3.448133614108023
 20
5.091058914017704
 30
0.0
 11
3.448133614108023
 21
5.231058914017705
 31
0.0
  0
VIEWPORT
  5
31FC
330
17
100
AcDbEntity
 67
     1
  8
0
100
AcDbViewport
 10
8.157142857142856
 20
5.0971307120085
 30
0.0
 40
16.31428571428571
 41
10.194261424017
 68
     1
 69
     1
1001
ACAD
1000
MVIEW
1002
{
1070
    16
1010
0.0
1020
0.0
1030
0.0
1010
0.0
1020
0.0
1030
1.0
1040
0.0
1040
10.194261424017
1040
8.157142857142856
1040
5.0971307120085
1040
50.0
1040
0.0
1040
0.0
1070
     0
1070
   100
1070
     1
1070
     1
1070
     0
1070
     0
1070
     0
1070
     0
1040
0.0
1040
0.0
1040
0.0
1040
0.005
1040
0.005
1040
1.0
1040
1.0
1070
     0
1002
{
1002
}
1002
}
  0
ENDSEC
  0
SECTION
  2
OBJECTS
  0
DICTIONARY
  5
C
330
0
100
AcDbDictionary
  3
ACAD_GROUP
350
D
  3
ACAD_LAYOUT
350
34CB
  3
ACAD_MLINESTYLE
350
E
  3
ACAD_PLOTSETTINGS
350
34CC
  3
ACADDIM
350
3658
  3
ASE_INDEX_DICTIONARY
350
3873
  3
CONTENTDICTIONARY
350
3316
1001
ACAD
1000
TREAT_AS_HARD
1070
     0
  0
DICTIONARY
  5
39C4
330
1A
100
AcDbDictionary
  3
ACAD_LAYOUTSELFREF
350
39C5
  0
DICTIONARY
  5
39C2
330
17
100
AcDbDictionary
  3
ACAD_LAYOUTSELFREF
350
39C3
  0
DICTIONARY
  5
D
102
{ACAD_REACTORS
330
C
102
}
330
C
100
AcDbDictionary
1001
ACAD
1000
TREAT_AS_HARD
1070
     0
  0
DICTIONARY
  5
34CB
102
{ACAD_REACTORS
330
C
102
}
330
C
100
AcDbDictionary
1001
ACAD
1000
TREAT_AS_HARD
1070
     0
  0
DICTIONARY
  5
E
102
{ACAD_REACTORS
330
C
102
}
330
C
100
AcDbDictionary
  3
STANDARD
350
13
1001
ACAD
1000
TREAT_AS_HARD
1070
     0
  0
DICTIONARY
  5
34CC
102
{ACAD_REACTORS
330
C
102
}
330
C
100
AcDbDictionary
1001
ACAD
1000
TREAT_AS_HARD
1070
     0
  0
XRECORD
  5
3658
102
{ACAD_REACTORS
330
C
102
}
330
C
100
AcDbXrecord
 90
   990106
  3

 60
     0
 61
     0
 62
     1
 63
     3
 64
     0
 65
     0
 66
     0
 67
     3
 68
     1
 69
     0
 70
     0
 71
     0
 72
     0
 40
0.0
170
     0
  0
DICTIONARY
  5
3873
102
{ACAD_REACTORS
330
C
102
}
330
C
100
AcDbDictionary
  3
ASEBLOCKHIERARCHYINDEXRECORD
350
3874
1001
DCO15
1040
1445601135.54
1001
ACAD
1000
TREAT_AS_HARD
1070
     0
  0
DICTIONARY
  5
3316
102
{ACAD_REACTORS
330
C
102
}
330
C
100
AcDbDictionary
1001
CONTENTTABDATA
1070
     7
1000
English Fasteners
1000
C:\Program Files\AutoCAD LT 97\Symbols\eengfast.dwg
1070
     0
1070
     0
1070
     1
1000
Metric Fasteners
1000
C:\Program Files\AutoCAD LT 97\Symbols\emetfast.dwg
1070
     0
1070
     0
1070
     1
1000
Welding
1000
C:\Program Files\AutoCAD LT 97\Symbols\ewelding.dwg
1070
     0
1070
     0
1070
     1
1000
Hyd-Pneu
1000
C:\Program Files\AutoCAD LT 97\Symbols\ehydpneu.dwg
1070
     0
1070
     0
1070
     1
1000
Pipe Fittings
1000
C:\Program Files\AutoCAD LT 97\Symbols\epipefit.dwg
1070
     0
1070
     0
1070
     1
1000
Plant Process
1000
C:\Program Files\AutoCAD LT 97\Symbols\eplntprc.dwg
1070
     0
1070
     0
1070
     1
1000
BLOCKS
1000
C:\BLOCKS
1070
     1
1070
     0
1070
     1
1001
CONTENTCURRENTTAB
1070
     7
1001
ACAD
1000
TREAT_AS_HARD
1070
     0
  0
XRECORD
  5
39C5
102
{ACAD_REACTORS
330
39C4
102
}
330
39C4
100
AcDbXrecord
340
1A
  0
XRECORD
  5
39C3
102
{ACAD_REACTORS
330
39C2
102
}
330
39C2
100
AcDbXrecord
340
17
  0
MLINESTYLE
  5
13
102
{ACAD_REACTORS
330
E
102
}
330
E
100
AcDbMlineStyle
  2
STANDARD
 70
     0
  3

 62
     0
 51
90.0
 52
90.0
 71
     2
 49
0.5
 62
   256
  6
BYLAYER
 49
-0.5
 62
   256
  6
BYLAYER
  0
XRECORD
  5
3874
102
{ACAD_REACTORS
330
3873
102
}
330
3873
100
AcDbXrecord
  0
ENDSEC
  0
EOF
