  0
SECTION
  2
HEADER
  9
$ACADVER
  1
AC1012
  9
$DWGCODEPAGE
  3
ANSI_1252
  9
$INSBASE
 10
0.0
 20
0.0
 30
0.0
  9
$EXTMIN
 10
0.2509835339441437
 20
0.2668711384496696
 30
-0.0000142156578062
  9
$EXTMAX
 10
11.28186361131969
 20
8.797886996792737
 30
0.232934217827109
  9
$LIMMIN
 10
0.0
 20
0.0
  9
$LIMMAX
 10
11.266175
 20
8.78235
  9
$ORTHOMODE
 70
     1
  9
$REGENMODE
 70
     1
  9
$FILLMODE
 70
     1
  9
$QTEXTMODE
 70
     0
  9
$MIRRTEXT
 70
     0
  9
$DRAGMODE
 70
     2
  9
$LTSCALE
 40
0.35
  9
$OSMODE
 70
    37
  9
$ATTMODE
 70
     1
  9
$TEXTSIZE
 40
0.08
  9
$TRACEWID
 40
0.05
  9
$TEXTSTYLE
  7
STANDARD
  9
$CLAYER
  8
D1
  9
$CELTYPE
  6
BYLAYER
  9
$CECOLOR
 62
   256
  9
$CELTSCALE
 40
1.0
  9
$DELOBJ
 70
     1
  9
$DISPSILH
 70
     0
  9
$DIMSCALE
 40
1.0
  9
$DIMASZ
 40
0.18
  9
$DIMEXO
 40
0.04
  9
$DIMDLI
 40
0.4
  9
$DIMRND
 40
0.0
  9
$DIMDLE
 40
0.0
  9
$DIMEXE
 40
0.04
  9
$DIMTP
 40
0.0
  9
$DIMTM
 40
0.0
  9
$DIMTXT
 40
0.08
  9
$DIMCEN
 40
0.07
  9
$DIMTSZ
 40
0.0
  9
$DIMTOL
 70
     0
  9
$DIMLIM
 70
     0
  9
$DIMTIH
 70
     1
  9
$DIMTOH
 70
     1
  9
$DIMSE1
 70
     0
  9
$DIMSE2
 70
     0
  9
$DIMTAD
 70
     0
  9
$DIMZIN
 70
     0
  9
$DIMBLK
  1

  9
$DIMASO
 70
     0
  9
$DIMSHO
 70
     1
  9
$DIMPOST
  1

  9
$DIMAPOST
  1

  9
$DIMALT
 70
     0
  9
$DIMALTD
 70
     2
  9
$DIMALTF
 40
25.4
  9
$DIMLFAC
 40
1.0
  9
$DIMTOFL
 70
     0
  9
$DIMTVP
 40
0.0
  9
$DIMTIX
 70
     0
  9
$DIMSOXD
 70
     0
  9
$DIMSAH
 70
     0
  9
$DIMBLK1
  1

  9
$DIMBLK2
  1

  9
$DIMSTYLE
  2
STANDARD
  9
$DIMCLRD
 70
     0
  9
$DIMCLRE
 70
     0
  9
$DIMCLRT
 70
   256
  9
$DIMTFAC
 40
1.0
  9
$DIMGAP
 40
0.05
  9
$DIMJUST
 70
     0
  9
$DIMSD1
 70
     0
  9
$DIMSD2
 70
     0
  9
$DIMTOLJ
 70
     1
  9
$DIMTZIN
 70
     0
  9
$DIMALTZ
 70
     0
  9
$DIMALTTZ
 70
     0
  9
$DIMFIT
 70
     0
  9
$DIMUPT
 70
     1
  9
$DIMUNIT
 70
     2
  9
$DIMDEC
 70
     2
  9
$DIMTDEC
 70
     2
  9
$DIMALTU
 70
     2
  9
$DIMALTTD
 70
     2
  9
$DIMTXSTY
  7
STANDARD
  9
$DIMAUNIT
 70
     0
  9
$LUNITS
 70
     2
  9
$LUPREC
 70
     8
  9
$SKETCHINC
 40
0.1
  9
$FILLETRAD
 40
0.0
  9
$AUNITS
 70
     0
  9
$AUPREC
 70
     8
  9
$MENU
  1
C:\R13\WIN\SUPPORT\ACAD
  9
$ELEVATION
 40
0.0
  9
$PELEVATION
 40
0.0
  9
$THICKNESS
 40
0.0
  9
$LIMCHECK
 70
     1
  9
$BLIPMODE
 70
     0
  9
$CHAMFERA
 40
0.0
  9
$CHAMFERB
 40
0.0
  9
$CHAMFERC
 40
0.0
  9
$CHAMFERD
 40
0.0
  9
$SKPOLY
 70
     0
  9
$TDCREATE
 40
2450199.427780903
  9
$TDUPDATE
 40
2452725.547131064
  9
$TDINDWG
 40
0.2726262847
  9
$TDUSRTIMER
 40
0.2726262847
  9
$USRTIMER
 70
     1
  9
$ANGBASE
 50
0.0
  9
$ANGDIR
 70
     0
  9
$PDMODE
 70
     0
  9
$PDSIZE
 40
0.0
  9
$PLINEWID
 40
0.01
  9
$COORDS
 70
     1
  9
$SPLFRAME
 70
     0
  9
$SPLINETYPE
 70
     6
  9
$SPLINESEGS
 70
     8
  9
$ATTDIA
 70
     0
  9
$ATTREQ
 70
     1
  9
$HANDLING
 70
-16383
  9
$HANDSEED
  5
373A
  9
$SURFTAB1
 70
     6
  9
$SURFTAB2
 70
     6
  9
$SURFTYPE
 70
     6
  9
$SURFU
 70
     6
  9
$SURFV
 70
     6
  9
$UCSNAME
  2

  9
$UCSORG
 10
0.2661750000000005
 20
0.2823500000000001
 30
0.0
  9
$UCSXDIR
 10
1.0
 20
0.0
 30
0.0
  9
$UCSYDIR
 10
0.0
 20
1.0
 30
0.0
  9
$PUCSNAME
  2

  9
$PUCSORG
 10
0.0
 20
0.0
 30
0.0
  9
$PUCSXDIR
 10
1.0
 20
0.0
 30
0.0
  9
$PUCSYDIR
 10
0.0
 20
1.0
 30
0.0
  9
$USERI1
 70
     0
  9
$USERI2
 70
     0
  9
$USERI3
 70
     0
  9
$USERI4
 70
     0
  9
$USERI5
 70
     0
  9
$USERR1
 40
0.0
  9
$USERR2
 40
0.0
  9
$USERR3
 40
0.0
  9
$USERR4
 40
0.0
  9
$USERR5
 40
0.0
  9
$WORLDVIEW
 70
     1
  9
$SHADEDGE
 70
     3
  9
$SHADEDIF
 70
    70
  9
$TILEMODE
 70
     1
  9
$MAXACTVP
 70
    16
  9
$PINSBASE
 10
0.0
 20
0.0
 30
0.0
  9
$PLIMCHECK
 70
     0
  9
$PEXTMIN
 10
1.000000000000000E+20
 20
1.000000000000000E+20
 30
1.000000000000000E+20
  9
$PEXTMAX
 10
-1.000000000000000E+20
 20
-1.000000000000000E+20
 30
-1.000000000000000E+20
  9
$PLIMMIN
 10
0.0
 20
0.0
  9
$PLIMMAX
 10
12.0
 20
9.0
  9
$UNITMODE
 70
     0
  9
$VISRETAIN
 70
     0
  9
$PLINEGEN
 70
     0
  9
$PSLTSCALE
 70
     1
  9
$TREEDEPTH
 70
  3020
  9
$PICKSTYLE
 70
     1
  9
$CMLSTYLE
  2
STANDARD
  9
$CMLJUST
 70
     0
  9
$CMLSCALE
 40
1.0
  9
$SAVEIMAGES
 70
     1
  0
ENDSEC
  0
SECTION
  2
CLASSES
  0
CLASS
  1
LWPOLYLINE
  2
AcDbPolyline
  3
AutoCAD 2000
 90
    32768
280
     0
281
     1
  0
CLASS
  1
ACDBDICTIONARYWDFLT
  2
AcDbDictionaryWithDefault
  3
AutoCAD 2000
 90
    32768
280
     0
281
     0
  0
CLASS
  1
ACDBPLACEHOLDER
  2
AcDbPlaceHolder
  3
AutoCAD 2000
 90
    32768
280
     0
281
     0
  0
CLASS
  1
LAYOUT
  2
AcDbLayout
  3
AutoCAD 2000
 90
    32768
280
     0
281
     0
  0
CLASS
  1
LONG_TRANSACTION
  2
AcDbLongTransaction
  3
AutoCAD 2000
 90
    32768
280
     0
281
     0
  0
CLASS
  1
LWPOLYLINE
  2
AcDbPolyline
  3
AutoCAD 2000
 90
    32768
280
     0
281
     1
  0
CLASS
  1
HATCH
  2
AcDbHatch
  3
AutoCAD 2000
 90
    32768
280
     0
281
     1
  0
CLASS
  1
XRECORD
  2
AcDbXrecord
  3
AutoCAD 2000
 90
    32768
280
     0
281
     0
  0
ENDSEC
  0
SECTION
  2
TABLES
  0
TABLE
  2
VPORT
  5
8
330
0
100
AcDbSymbolTable
 70
     2
  0
VPORT
  5
36A1
330
8
100
AcDbSymbolTableRecord
100
AcDbViewportTableRecord
  2
*ACTIVE
 70
     0
 10
0.0
 20
0.0
 11
1.0
 21
1.0
 12
6.230864630432125
 22
4.532240744057605
 13
0.0
 23
0.0
 14
0.005
 24
0.005
 15
0.25
 25
0.25
 16
0.0
 26
0.0
 36
1.0
 17
0.0
 27
0.0
 37
0.0
 40
8.617656235632335
 41
1.818713450292397
 42
50.0
 43
0.0
 44
0.0
 50
0.0
 51
0.0
 71
     0
 72
 20000
 73
     1
 74
     2
 75
     0
 76
     0
 77
     0
 78
     0
  0
ENDTAB
  0
TABLE
  2
LTYPE
  5
5
330
0
100
AcDbSymbolTable
 70
     5
  0
LTYPE
  5
14
330
5
100
AcDbSymbolTableRecord
100
AcDbLinetypeTableRecord
  2
BYBLOCK
 70
     0
  3

 72
    65
 73
     0
 40
0.0
  0
LTYPE
  5
15
330
5
100
AcDbSymbolTableRecord
100
AcDbLinetypeTableRecord
  2
BYLAYER
 70
     0
  3

 72
    65
 73
     0
 40
0.0
  0
LTYPE
  5
16
330
5
100
AcDbSymbolTableRecord
100
AcDbLinetypeTableRecord
  2
CONTINUOUS
 70
     0
  3
Solid line
 72
    65
 73
     0
 40
0.0
  0
LTYPE
  5
34AB
330
5
100
AcDbSymbolTableRecord
100
AcDbLinetypeTableRecord
  2
CENTER
 70
     0
  3
Center ____ _ ____ _ ____ _ ____ _ ____ _ ____
 72
    65
 73
     4
 40
2.0
 49
1.25
 74
     0
 49
-0.25
 74
     0
 49
0.25
 74
     0
 49
-0.25
 74
     0
  0
LTYPE
  5
34AC
330
5
100
AcDbSymbolTableRecord
100
AcDbLinetypeTableRecord
  2
HIDDEN
 70
     0
  3
Hidden __ __ __ __ __ __ __ __ __ __ __ __ __ _
 72
    65
 73
     2
 40
0.375
 49
0.25
 74
     0
 49
-0.125
 74
     0
  0
LTYPE
  5
365E
330
5
100
AcDbSymbolTableRecord
100
AcDbLinetypeTableRecord
  2
HIDDEN2
 70
     0
  3
Hidden (.5x) _ _ _ _ _ _ _ _ _ _ _ _ _ _ _ _ _
 72
    65
 73
     2
 40
0.1875
 49
0.125
 74
     0
 49
-0.0625
 74
     0
  0
LTYPE
  5
365F
330
5
100
AcDbSymbolTableRecord
100
AcDbLinetypeTableRecord
  2
CENTER2
 70
     0
  3
Center (.5x) ___ _ ___ _ ___ _ ___ _ ___ _ ___
 72
    65
 73
     4
 40
1.125
 49
0.75
 74
     0
 49
-0.125
 74
     0
 49
0.125
 74
     0
 49
-0.125
 74
     0
  0
ENDTAB
  0
TABLE
  2
LAYER
  5
2
330
0
100
AcDbSymbolTable
 70
     6
  0
LAYER
  5
F
330
2
100
AcDbSymbolTableRecord
100
AcDbLayerTableRecord
  2
0
 70
     0
 62
     7
  6
CONTINUOUS
  0
LAYER
  5
28
330
2
100
AcDbSymbolTableRecord
100
AcDbLayerTableRecord
  2
BORDER
 70
     0
 62
     7
  6
CONTINUOUS
  0
LAYER
  5
2A
330
2
100
AcDbSymbolTableRecord
100
AcDbLayerTableRecord
  2
D1
 70
     0
 62
     7
  6
CONTINUOUS
  0
LAYER
  5
3327
330
2
100
AcDbSymbolTableRecord
100
AcDbLayerTableRecord
  2
S1
 70
     0
 62
     7
  6
CONTINUOUS
  0
LAYER
  5
348B
330
2
100
AcDbSymbolTableRecord
100
AcDbLayerTableRecord
  2
S2
 70
     0
 62
     7
  6
CONTINUOUS
  0
LAYER
  5
348C
330
2
100
AcDbSymbolTableRecord
100
AcDbLayerTableRecord
  2
S3
 70
     0
 62
     7
  6
CONTINUOUS
  0
ENDTAB
  0
TABLE
  2
STYLE
  5
3
330
0
100
AcDbSymbolTable
 70
     2
  0
STYLE
  5
10
330
3
100
AcDbSymbolTableRecord
100
AcDbTextStyleTableRecord
  2
STANDARD
 70
     0
 40
0.0
 41
1.0
 50
0.0
 71
     0
 42
0.08
  3
txt
  4

  0
STYLE
  5
34AA
330
3
100
AcDbSymbolTableRecord
100
AcDbTextStyleTableRecord
  2

 70
     1
 40
0.0
 41
1.0
 50
0.0
 71
     0
 42
0.08
  3
ltypeshp.shx
  4

  0
ENDTAB
  0
TABLE
  2
VIEW
  5
6
330
0
100
AcDbSymbolTable
 70
     0
  0
ENDTAB
  0
TABLE
  2
UCS
  5
7
330
0
100
AcDbSymbolTable
 70
     0
  0
ENDTAB
  0
TABLE
  2
APPID
  5
9
330
0
100
AcDbSymbolTable
 70
     6
  0
APPID
  5
11
330
9
100
AcDbSymbolTableRecord
100
AcDbRegAppTableRecord
  2
ACAD
 70
     0
  0
APPID
  5
3317
330
9
100
AcDbSymbolTableRecord
100
AcDbRegAppTableRecord
  2
CONTENTTABDATA
 70
     0
  0
APPID
  5
3318
330
9
100
AcDbSymbolTableRecord
100
AcDbRegAppTableRecord
  2
CONTENTCURRENTTAB
 70
     0
  0
APPID
  5
3328
330
9
100
AcDbSymbolTableRecord
100
AcDbRegAppTableRecord
  2
CONTENTBLOCKDESCRIPTION
 70
     0
  0
APPID
  5
3342
330
9
100
AcDbSymbolTableRecord
100
AcDbRegAppTableRecord
  2
CONTENTLONGBLOCKNAME
 70
     0
  0
APPID
  5
3343
330
9
100
AcDbSymbolTableRecord
100
AcDbRegAppTableRecord
  2
CONTENTBLOCKICON
 70
     0
  0
ENDTAB
  0
TABLE
  2
DIMSTYLE
  5
A
330
0
100
AcDbSymbolTable
 70
     1
  0
DIMSTYLE
105
1D
330
A
100
AcDbSymbolTableRecord
100
AcDbDimStyleTableRecord
  2
STANDARD
 70
     0
  3

  4

  5

  6

  7

 40
1.0
 41
0.18
 42
0.04
 43
0.4
 44
0.04
 45
0.0
 46
0.0
 47
0.0
 48
0.0
140
0.08
141
0.07
142
0.0
143
25.4
144
1.0
145
0.0
146
1.0
147
0.05
 71
     0
 72
     0
 73
     1
 74
     1
 75
     0
 76
     0
 77
     0
 78
     0
170
     0
171
     2
172
     0
173
     0
174
     0
175
     0
176
     0
177
     0
178
   256
270
     2
271
     3
272
     3
273
     2
274
     2
340
10
275
     0
280
     0
281
     0
282
     0
283
     1
284
     0
285
     0
286
     0
287
     3
288
     1
  0
ENDTAB
  0
TABLE
  2
BLOCK_RECORD
  5
1
330
0
100
AcDbSymbolTable
 70
     4
  0
BLOCK_RECORD
  5
1A
102
{ACAD_XDICTIONARY
360
36A4
102
}
330
1
100
AcDbSymbolTableRecord
100
AcDbBlockTableRecord
  2
*MODEL_SPACE
  0
BLOCK_RECORD
  5
17
102
{ACAD_XDICTIONARY
360
36A2
102
}
330
1
100
AcDbSymbolTableRecord
100
AcDbBlockTableRecord
  2
*PAPER_SPACE
  0
BLOCK_RECORD
  5
343D
330
1
100
AcDbSymbolTableRecord
100
AcDbBlockTableRecord
  2
COPYRIGHT
1001
CONTENTBLOCKDESCRIPTION
1071
        0
1000
copy right symbol for upper left hand corner of screen
1001
CONTENTBLOCKICON
1071
        0
1004
2800000020000000200000000100040000000000000200000000000000000000000000000000000000000000000080000080000000808000800000008000800080800000C0C0C000808080000000FF0000FF000000FFFF00FF000000FF00FF00FFFF0000FFFFFF00FFFFFFFFFFFFFFFFFFFFFFFFFFFFFFFFFFFFFFFFFFFFFF
1004
FFFFFFFFFFFFFFFFFFFFFFFFFFFFFFFFFFFFFFFFFFFFFFFFFFFFFFFFFFFFFFFFFFFFFFFFFFFFFFFFFFFFFFFFFFFFFFFFFFFFFFFFFFFFFFFFFFFFFFFFFFFFFFFFFFFFFFFFFFFFFFFFFFFFFFFFFFFFFFFFFFFFFFFFFFFFFFFFFFFFFFFFFFFFFFFFFFFFFFFFFFFFFFFFFFFFFFFFFFFFFFFFFFFFFFFFFFFFFFFFFFFFFFFFFFFFFF
1004
FFFFFFFFFFFFFFFFFFFFFFFFFFFFFFFFFFFFFFFFFFFFFFFFFFFFFFFFFFFFFFFFFFFFFFFFFFFFFFFFFFFFFFFFFFFFFFFFFFFFFFFFFFFFFFFFFFFFFFFFFFFFFFFFFFFFFFFFFFFFFFFFFFFFFFFFFFFFFFFFFFFFFFFFFFFFFFFFFFFFFFFFFFFFFFFFFFFFFFFFFFFFFFFFFFFF999999999999999999999999FFFFFFFF9999999999
1004
99999999999999FFFFFFFFFFFFFFFFFFFFFFFFFFFFFFFFFFFFFFFFFFFFFFFFFFFFFFFFFFFFFFFFFFFFFFFFFFFFFFFFFFFFFFFFFFFFFFFFFFFFFFFFFFFFFFFFFFFFFFFFFFFFFFFFFFFFFFFFFFFFFFFFFFFFFFFFFFFFFFFFFFFFFFFFFFFFFFFFFFFFFFFFFFFFFFFFFFFFFFFFFFFFFFFFFFFFFFFFFFFFFFFFFFFFFFFFFFFFFFFF
1004
FFFFFFFFFFFFFFFFFFFFFFFFFFFFFFFFFFFFFFFFFFFFFFFFFFFFFFFFFFFFFFFFFFFFFFFFFFFFFFFFFFFFFFFFFFFFFFFFFFFFFFFFFFFFFFFFFFFFFFFFFFFFFFFFFFFFFFFFFFFFFFFFFFFFFFFFFFFFFFFFFFFFFFFFFFFFFFFFFFFFFFFFFFFFFFFFFFFFFFFFFFFFFFFFFFFFFFFF
  0
BLOCK_RECORD
  5
365A
330
1
100
AcDbSymbolTableRecord
100
AcDbBlockTableRecord
  2
COPYRIGHT00
  0
BLOCK_RECORD
  5
3660
330
1
100
AcDbSymbolTableRecord
100
AcDbBlockTableRecord
  2
COPYWRITE
  0
BLOCK_RECORD
  5
3667
330
1
100
AcDbSymbolTableRecord
100
AcDbBlockTableRecord
  2
ESD-INFO
  0
ENDTAB
  0
ENDSEC
  0
SECTION
  2
BLOCKS
  0
BLOCK
  5
1B
330
1A
100
AcDbEntity
  8
0
100
AcDbBlockBegin
  2
*MODEL_SPACE
 70
     0
 10
0.0
 20
0.0
 30
0.0
  3
*MODEL_SPACE
  1

  0
ENDBLK
  5
1C
330
1A
100
AcDbEntity
  8
0
100
AcDbBlockEnd
  0
BLOCK
  5
18
330
17
100
AcDbEntity
 67
     1
  8
0
100
AcDbBlockBegin
  2
*PAPER_SPACE
 70
     0
 10
0.0
 20
0.0
 30
0.0
  3
*PAPER_SPACE
  1

  0
ENDBLK
  5
19
330
17
100
AcDbEntity
 67
     1
  8
0
100
AcDbBlockEnd
  0
BLOCK
  5
343F
330
343D
100
AcDbEntity
  8
0
100
AcDbBlockBegin
  2
COPYRIGHT
 70
     0
 10
0.0
 20
0.0
 30
0.0
  3
COPYRIGHT
  1

  0
MTEXT
  5
343E
330
343D
100
AcDbEntity
  8
BORDER
100
AcDbMText
 10
0.0258733304183885
 20
0.323044704881891
 30
0.0
 40
0.25
 41
9.340999999999999
 71
     1
 72
     1
  1
\FVERDANA.TTF;COPYRIGHT \FSYMBOL.TTF;\H0.3;Ó\FVERDANA.TTF;\H0.25; 1998 by THORLABS INC.
1001
ACAD
1000
MTEXTBEGIN
1070
    73
1070
     1
1070
    44
1040
1.0
1070
    74
1070
     0
1000
MTEXTEND
  0
ENDBLK
  5
3440
330
343D
100
AcDbEntity
  8
0
100
AcDbBlockEnd
  0
BLOCK
  5
365C
330
365A
100
AcDbEntity
  8
0
100
AcDbBlockBegin
  2
COPYRIGHT00
 70
     0
 10
0.0
 20
0.0
 30
0.0
  3
COPYRIGHT00
  1

  0
MTEXT
  5
365B
330
365A
100
AcDbEntity
  8
BORDER
100
AcDbMText
 10
0.0258733304183885
 20
0.323044704881891
 30
0.0
 40
0.25
 41
9.340999999999999
 71
     1
 72
     1
  1
\FVERDANA.TTF;COPYRIGHT \FSYMBOL.TTF;\H0.3;Ó\FVERDANA.TTF;\H0.25; 2000 by THORLABS INC.
1001
ACAD
1000
MTEXTBEGIN
1070
    73
1070
     1
1070
    44
1040
1.0
1070
    74
1070
     0
1000
MTEXTEND
  0
ENDBLK
  5
365D
330
365A
100
AcDbEntity
  8
0
100
AcDbBlockEnd
  0
BLOCK
  5
3662
330
3660
100
AcDbEntity
  8
0
100
AcDbBlockBegin
  2
COPYWRITE
 70
     0
 10
0.0
 20
0.0
 30
0.0
  3
COPYWRITE
  1

  0
MTEXT
  5
3661
330
3660
100
AcDbEntity
  8
BORDER
100
AcDbMText
 10
0.3955447385683524
 20
8.629262701746421
 30
0.0
 40
0.24999
 41
9.340999999999999
 71
     1
 72
     1
  1
{\FVERDANA.TTF;COPYRIGHT \FSYMBOL.TTF;\H1.2x;Ó\FVERDANA.TTF;\H0.8333x; 2003 by THORLABS INC.}
1001
ACAD
1000
MTEXTBEGIN
1070
    73
1070
     1
1070
    44
1040
1.0
1070
    74
1070
     0
1000
MTEXTEND
  0
ENDBLK
  5
3663
330
3660
100
AcDbEntity
  8
0
100
AcDbBlockEnd
  0
BLOCK
  5
366B
330
3667
100
AcDbEntity
  8
0
100
AcDbBlockBegin
  2
ESD-INFO
 70
     0
 10
0.0
 20
0.0
 30
0.0
  3
ESD-INFO
  1

  0
LINE
  5
3668
330
3667
100
AcDbEntity
  8
D1
100
AcDbLine
 10
2.98789804994233
 20
0.0002966651217227
 30
0.0
 11
-2.987323406216175
 21
0.0002966651217227
 31
0.0
  0
LINE
  5
3669
330
3667
100
AcDbEntity
  8
D1
100
AcDbLine
 10
-2.892290062977073
 20
0.0596366990926454
 30
0.0
 11
2.892864706703228
 21
0.0596366990926454
 31
0.0
  0
TEXT
  5
366A
330
3667
100
AcDbEntity
  8
D1
100
AcDbText
 10
-2.79456480303434
 20
0.1065187961070997
 30
0.0
 40
0.15
  1
INFORMATION ONLY, NOT FOR MANUFACTURING
100
AcDbText
  0
ENDBLK
  5
366C
330
3667
100
AcDbEntity
  8
0
100
AcDbBlockEnd
  0
ENDSEC
  0
SECTION
  2
ENTITIES
  0
LINE
  5
132
330
1A
100
AcDbEntity
  8
BORDER
100
AcDbLine
 39
0.0075
 10
9.726547376952984
 20
0.6832137948435509
 30
0.0
 11
9.726547376952984
 21
0.4891137948435511
 31
0.0
  0
LINE
  5
133
330
1A
100
AcDbEntity
  8
BORDER
100
AcDbLine
 10
9.945831594939301
 20
0.2823500000000001
 30
0.11646
 11
9.945831594939301
 21
0.6832137948435509
 31
0.11646
  0
TRACE
  5
137
330
1A
100
AcDbEntity
  8
BORDER
100
AcDbTrace
 10
11.2551888578914
 20
1.478867550649399
 30
0.11646
 11
11.2551888578914
 21
1.491807550649399
 31
0.11646
 12
8.993923857891404
 22
1.478867550649399
 32
0.11646
 13
8.993923857891404
 23
1.491807550649399
 33
0.11646
 39
0.0075
  0
LINE
  5
138
330
1A
100
AcDbEntity
  8
BORDER
100
AcDbLine
 39
0.0075
 10
8.990688857891404
 20
1.291237550649399
 30
0.11646
 11
11.2551888578914
 21
1.291237550649399
 31
0.11646
  0
TEXT
  5
13A
330
1A
100
AcDbEntity
  8
BORDER
100
AcDbText
 10
9.039601244079856
 20
1.101033685005912
 30
0.111268068365412
 40
0.043270915475438
  1
SURF. FINISH: 32 MICROINCHES UNLESS OTHERWISE NOTED
100
AcDbText
  0
TEXT
  5
13B
330
1A
100
AcDbEntity
  8
D1
100
AcDbText
 10
9.406801836309441
 20
0.7286278652420393
 30
0.0
 40
0.06
  1
CLEAR ANODIZED ALUMINUM
100
AcDbText
  0
TEXT
  5
13C
330
1A
100
AcDbEntity
  8
D1
100
AcDbText
 10
9.263182651037814
 20
1.346903421174998
 30
0.0
 40
0.06
  1
XT34 DUAL PROFILE, 500mm LENGTH
100
AcDbText
  0
TRACE
  5
13D
330
1A
100
AcDbEntity
  8
BORDER
100
AcDbTrace
 10
11.2551888578914
 20
1.727962550649399
 30
0.11646
 11
11.2551888578914
 21
1.760312550649399
 31
0.11646
 12
9.006863857891405
 22
1.727962550649399
 32
0.11646
 13
8.974513857891404
 23
1.760312550649399
 33
0.11646
  0
LINE
  5
13E
330
1A
100
AcDbEntity
  8
BORDER
100
AcDbLine
 39
0.0075
 10
8.990688857891404
 20
1.071413794843551
 30
0.11646
 11
11.2551888578914
 21
1.071413794843551
 31
0.11646
  0
LINE
  5
13F
330
1A
100
AcDbEntity
  8
BORDER
100
AcDbLine
 39
0.0075
 10
8.990688857891404
 20
0.8773137948435504
 30
0.11646
 11
11.26920067485122
 21
0.8773137948435504
 31
0.11646
  0
LINE
  5
140
330
1A
100
AcDbEntity
  8
BORDER
100
AcDbLine
 39
0.0075
 10
8.990688857891404
 20
0.6832137948435509
 30
0.11646
 11
11.26920067485122
 21
0.6832137948435509
 31
0.11646
  0
LINE
  5
141
330
1A
100
AcDbEntity
  8
BORDER
100
AcDbLine
 39
0.0075
 10
8.990688857891404
 20
0.4891137948435511
 30
0.11646
 11
11.266175
 21
0.4891137948435511
 31
0.11646
  0
TEXT
  5
142
330
1A
100
AcDbEntity
  8
BORDER
100
AcDbText
 10
9.048918857891406
 20
1.207127550649399
 30
0.11646
 40
0.04529
  1
TOL: X.XXX=+/-0.005 X.XX=+/-0.010 ANGULAR +/-30'
100
AcDbText
  0
TRACE
  5
143
330
1A
100
AcDbEntity
  8
BORDER
100
AcDbTrace
 10
9.006863857891405
 20
1.728312249965692
 30
0.11646
 11
8.974513857891404
 21
1.760662249965692
 31
0.11646
 12
9.006863857891405
 22
0.2950137948435514
 32
0.11646
 13
8.974513857891404
 23
0.2950137948435514
 33
0.11646
  0
LINE
  5
144
330
1A
100
AcDbEntity
  8
BORDER
100
AcDbLine
 39
0.0075
 10
9.702916360972857
 20
0.8773137948435504
 30
0.0
 11
9.702916360972857
 21
1.071413794843551
 31
0.0
  0
LINE
  5
145
330
1A
100
AcDbEntity
  8
BORDER
100
AcDbLine
 10
9.537916360972856
 20
0.4891137948435511
 30
0.0
 11
9.537916360972856
 21
0.6832137948435509
 31
0.0
  0
TEXT
  5
146
330
1A
100
AcDbEntity
  8
D1
100
AcDbText
 10
9.143274945403756
 20
0.3235396653691507
 30
0.0
 40
0.06
  1
6721-E01
100
AcDbText
  0
TEXT
  5
147
330
1A
100
AcDbEntity
  8
D1
100
AcDbText
 10
9.03713088090428
 20
0.5335396653691502
 30
0.0
 40
0.06
  1
02/06/03
100
AcDbText
  0
TEXT
  5
148
330
1A
100
AcDbEntity
  8
D1
100
AcDbText
 10
9.218305982991685
 20
0.9066535306636914
 30
0.0
 40
0.06
  1
DAH
100
AcDbText
  0
TEXT
  5
149
330
1A
100
AcDbEntity
  8
BORDER
100
AcDbText
 10
9.052153857891406
 20
0.4244137948435509
 30
0.11646
 40
0.04529
  1
DWG NO.
100
AcDbText
  0
TEXT
  5
14A
330
1A
100
AcDbEntity
  8
BORDER
100
AcDbText
 10
9.048918857891406
 20
0.8064367527075866
 30
0.11646
 40
0.04529
  1
MATERIAL
100
AcDbText
  0
TEXT
  5
14B
330
1A
100
AcDbEntity
  8
BORDER
100
AcDbText
 10
9.052153857891402
 20
0.6185137948435511
 30
0.11646
 40
0.04
  1
DATE
100
AcDbText
  0
TEXT
  5
14C
330
1A
100
AcDbEntity
  8
BORDER
100
AcDbText
 10
9.048918857891406
 20
1.417402550649399
 30
0.11646
 40
0.04529
  1
TITLE
100
AcDbText
  0
TEXT
  5
14D
330
1A
100
AcDbEntity
  8
BORDER
100
AcDbText
 10
9.044610102787034
 20
1.007492660138092
 30
0.11646
 40
0.04
  1
DRAWN
100
AcDbText
  0
LINE
  5
14E
330
1A
100
AcDbEntity
  8
BORDER
100
AcDbLine
 39
0.0075
 10
10.26191636097285
 20
0.8773137948435504
 30
0.0
 11
10.26191636097285
 21
1.071413794843551
 31
0.0
  0
TEXT
  5
14F
330
1A
100
AcDbEntity
  8
D1
100
AcDbText
 10
10.03382903944047
 20
0.3204478900744587
 30
0.0
 40
0.06
  1
XT34DP-500
100
AcDbText
  0
TEXT
  5
150
330
1A
100
AcDbEntity
  8
D1
100
AcDbText
 10
9.614342921510965
 20
0.5335396653691502
 30
0.0
 40
0.06
  1
A
100
AcDbText
  0
TEXT
  5
151
330
1A
100
AcDbEntity
  8
D1
100
AcDbText
 10
9.81287684864621
 20
0.54144371811595
 30
0.0
 40
0.06
  1
A
 72
     1
 11
9.832876848646209
 21
0.54144371811595
 31
0.0
100
AcDbText
  0
TEXT
  5
152
330
1A
100
AcDbEntity
  8
BORDER
100
AcDbText
 10
9.765809399965858
 20
0.6164437181159502
 30
0.0
 40
0.04
  1
SIZE
 72
     1
 11
9.832476066632525
 21
0.6164437181159502
 31
0.0
100
AcDbText
  0
TEXT
  5
153
330
1A
100
AcDbEntity
  8
D1
100
AcDbText
 10
9.950011044244124
 20
0.9066535306636914
 30
0.0
 40
0.06
  1
JCM
100
AcDbText
  0
TEXT
  5
154
330
1A
100
AcDbEntity
  8
D1
100
AcDbText
 10
10.09879111396452
 20
0.5335396653691502
 30
0.0
 40
0.06
  1
1
100
AcDbText
  0
TEXT
  5
155
330
1A
100
AcDbEntity
  8
D1
100
AcDbText
 10
10.34379111396452
 20
0.5335396653691502
 30
0.0
 40
0.06
  1
1
100
AcDbText
  0
TEXT
  5
157
330
1A
100
AcDbEntity
  8
BORDER
100
AcDbText
 10
10.32658018362911
 20
1.007492660138092
 30
0.11646
 40
0.04
  1
APPROVED
100
AcDbText
  0
TEXT
  5
158
330
1A
100
AcDbEntity
  8
BORDER
100
AcDbText
 10
9.987158745476936
 20
0.4244137948435509
 30
0.11646
 40
0.04529
  1
PART NO.
100
AcDbText
  0
TEXT
  5
159
330
1A
100
AcDbEntity
  8
BORDER
100
AcDbText
 10
9.558578745476937
 20
0.615278794843551
 30
0.11646
 40
0.04
  1
REV
100
AcDbText
  0
TEXT
  5
15A
330
1A
100
AcDbEntity
  8
BORDER
100
AcDbText
 10
9.972116917519945
 20
0.6154438782988123
 30
0.11646
 40
0.04
  1
SHEET
100
AcDbText
  0
TEXT
  5
15B
330
1A
100
AcDbEntity
  8
BORDER
100
AcDbText
 10
10.19393955599924
 20
0.5382287948435512
 30
0.11646
 40
0.04529
  1
OF
100
AcDbText
  0
TEXT
  5
15C
330
1A
100
AcDbEntity
  8
BORDER
100
AcDbText
 10
9.717809990372565
 20
1.007492660138092
 30
0.11646
 40
0.04
  1
ENGINEER
100
AcDbText
  0
POLYLINE
  5
15E
330
1A
100
AcDbEntity
  8
BORDER
100
AcDb2dPolyline
 66
     1
 10
0.0
 20
0.0
 30
0.23292
 40
0.00727875
 41
0.00727875
  0
VERTEX
  5
36A6
330
15E
100
AcDbEntity
  8
BORDER
100
AcDbVertex
100
AcDb2dVertex
 10
9.633194085913112
 20
1.690948002377
 30
0.23292
  0
VERTEX
  5
36A7
330
15E
100
AcDbEntity
  8
BORDER
100
AcDbVertex
100
AcDb2dVertex
 10
9.532751674987329
 20
1.690948002377
 30
0.23292
  0
SEQEND
  5
36A8
330
15E
100
AcDbEntity
  8
BORDER
  0
SOLID
  5
162
330
1A
100
AcDbEntity
  8
BORDER
100
AcDbTrace
 10
9.532751674987329
 20
1.512618627376999
 30
0.23292
 11
9.532751674987329
 21
1.694587377376999
 31
0.23292
 12
9.569925144340301
 22
1.512618627376999
 32
0.23292
 13
9.569925144340301
 23
1.690622699047484
 33
0.23292
  0
SOLID
  5
163
330
1A
100
AcDbEntity
  8
BORDER
100
AcDbTrace
 10
9.11687938619818
 20
1.512618627377
 30
0.23292
 11
9.153273136198178
 21
1.512618627377
 31
0.23292
 12
9.11687938619818
 22
1.664562533627
 32
0.23292
 13
9.153273136198178
 23
1.664562533627
 33
0.23292
  0
SOLID
  5
164
330
1A
100
AcDbEntity
  8
BORDER
100
AcDbTrace
 10
9.323413917448176
 20
1.694587377376999
 30
0.23292
 11
9.359807667448174
 21
1.694587377376999
 31
0.23292
 12
9.323413917448176
 22
1.512618627376999
 32
0.23292
 13
9.359807667448174
 23
1.512618627376999
 33
0.23292
  0
SOLID
  5
165
330
1A
100
AcDbEntity
  8
BORDER
100
AcDbTrace
 10
9.21150313619818
 20
1.694587377376999
 30
0.23292
 11
9.247896886198178
 21
1.694587377376999
 31
0.23292
 12
9.21150313619818
 22
1.512618627376999
 32
0.23292
 13
9.247896886198178
 23
1.512618627376999
 33
0.23292
  0
SOLID
  5
166
330
1A
100
AcDbEntity
  8
BORDER
100
AcDbTrace
 10
9.519367474660009
 20
1.556816991116891
 30
0.23292
 11
9.497922427776193
 21
1.5792981941861
 31
0.23292
 12
9.530600594456293
 22
1.610976253056347
 32
0.23292
 13
9.498943620484945
 23
1.614041871656694
 33
0.23292
  0
SOLID
  5
167
330
1A
100
AcDbEntity
  8
BORDER
100
AcDbTrace
 10
9.493837656941183
 20
1.52820455084699
 30
0.23292
 11
9.481072748081766
 21
1.545576389582287
 31
0.23292
 12
9.519367474660009
 22
1.556816991116891
 32
0.23292
 13
9.497922427776193
 23
1.5792981941861
 33
0.23292
  0
SOLID
  5
168
330
1A
100
AcDbEntity
  8
BORDER
100
AcDbTrace
 10
9.362103797512036
 20
1.603312206555481
 30
0.23292
 11
9.391718386065877
 21
1.600757524388525
 31
0.23292
 12
9.375379302725827
 22
1.551196690349589
 32
0.23292
 13
9.401419716799027
 23
1.56090448258402
 33
0.23292
  0
POLYLINE
  5
169
330
1A
100
AcDbEntity
  8
BORDER
100
AcDb2dPolyline
 66
     1
 10
0.0
 20
0.0
 30
0.23292
 40
0.00727875
 41
0.00727875
  0
VERTEX
  5
36A9
330
169
100
AcDbEntity
  8
BORDER
100
AcDbVertex
100
AcDb2dVertex
 10
9.36748653289195
 20
1.572772042237243
 30
0.23292
 42
0.7616390336395551
  0
VERTEX
  5
36AA
330
169
100
AcDbEntity
  8
BORDER
100
AcDbVertex
100
AcDb2dVertex
 10
9.52570285664297
 20
1.574438037425561
 30
0.23292
 42
0.7616390336395551
  0
SEQEND
  5
36AB
330
169
100
AcDbEntity
  8
BORDER
  0
POLYLINE
  5
16D
330
1A
100
AcDbEntity
  8
BORDER
100
AcDb2dPolyline
 66
     1
 10
0.0
 20
0.0
 30
0.23292
 70
     1
 40
0.00727875
 41
0.00727875
  0
VERTEX
  5
36AC
330
16D
100
AcDbEntity
  8
BORDER
100
AcDbVertex
100
AcDb2dVertex
 10
9.401509417275255
 20
1.644239484539487
 30
0.23292
 42
0.2285268323977459
  0
VERTEX
  5
36AD
330
16D
100
AcDbEntity
  8
BORDER
100
AcDbVertex
100
AcDb2dVertex
 10
9.402359454001109
 20
1.561618048125825
 30
0.23292
 42
0.6230043105321781
  0
VERTEX
  5
36AE
330
16D
100
AcDbEntity
  8
BORDER
100
AcDbVertex
100
AcDb2dVertex
 10
9.489900356486669
 20
1.561894246255825
 30
0.23292
 42
0.2290062495557326
  0
VERTEX
  5
36AF
330
16D
100
AcDbEntity
  8
BORDER
100
AcDbVertex
100
AcDb2dVertex
 10
9.490153989905566
 20
1.644599934397677
 30
0.23292
 42
0.6323121992740218
  0
SEQEND
  5
36B0
330
16D
100
AcDbEntity
  8
BORDER
  0
SOLID
  5
173
330
1A
100
AcDbEntity
  8
BORDER
100
AcDbTrace
 10
9.413674029304067
 20
1.517985822179168
 30
0.23292
 11
9.426949534517854
 21
1.536890470214638
 31
0.23292
 12
9.446352195984163
 22
1.511854584978475
 32
0.23292
 13
9.446352195984163
 23
1.534846724481074
 33
0.23292
  0
SOLID
  5
174
330
1A
100
AcDbEntity
  8
BORDER
100
AcDbTrace
 10
9.375379302725827
 20
1.551196690349589
 30
0.23292
 11
9.401419716799027
 21
1.56090448258402
 31
0.23292
 12
9.413674029304067
 22
1.517985822179168
 32
0.23292
 13
9.426949534517854
 23
1.536890470214638
 33
0.23292
  0
SOLID
  5
175
330
1A
100
AcDbEntity
  8
BORDER
100
AcDbTrace
 10
9.446352195984163
 20
1.511854584978475
 30
0.23292
 11
9.446352195984163
 21
1.534846724481074
 31
0.23292
 12
9.493837656941183
 22
1.52820455084699
 32
0.23292
 13
9.481072748081766
 23
1.545576389582287
 33
0.23292
  0
SOLID
  5
176
330
1A
100
AcDbEntity
  8
BORDER
100
AcDbTrace
 10
9.058649386198178
 20
1.694587377376999
 30
0.23292
 11
9.21150313619818
 21
1.694587377376999
 31
0.23292
 12
9.058649386198178
 22
1.664562533627
 32
0.23292
 13
9.21150313619818
 23
1.664562533627
 33
0.23292
  0
SOLID
  5
177
330
1A
100
AcDbEntity
  8
BORDER
100
AcDbTrace
 10
9.323413917448176
 20
1.623619564876999
 30
0.23292
 11
9.247896886198178
 21
1.623619564876999
 31
0.23292
 12
9.323413917448176
 22
1.592684877377
 32
0.23292
 13
9.247896886198178
 23
1.592684877377
 33
0.23292
  0
SOLID
  5
178
330
1A
100
AcDbEntity
  8
BORDER
100
AcDbTrace
 10
9.445681922224418
 20
1.698279496942217
 30
0.23292
 11
9.444913242621831
 21
1.672126983355261
 31
0.23292
 12
9.397255107261331
 22
1.681357282268304
 32
0.23292
 13
9.411091340107928
 23
1.660589109713956
 33
0.23292
  0
POLYLINE
  5
179
330
1A
100
AcDbEntity
  8
BORDER
100
AcDb2dPolyline
 66
     1
 10
0.0
 20
0.0
 30
0.23292
 40
0.00727875
 41
0.00727875
  0
VERTEX
  5
36B1
330
179
100
AcDbEntity
  8
BORDER
100
AcDbVertex
100
AcDb2dVertex
 10
9.524347793036914
 20
1.638634448854635
 30
0.23292
 42
0.7414713431190223
  0
VERTEX
  5
36B2
330
179
100
AcDbEntity
  8
BORDER
100
AcDbVertex
100
AcDb2dVertex
 10
9.367789887620629
 20
1.637710108459589
 30
0.23292
 42
0.7414713431190223
  0
SEQEND
  5
36B3
330
179
100
AcDbEntity
  8
BORDER
  0
SOLID
  5
17D
330
1A
100
AcDbEntity
  8
BORDER
100
AcDbTrace
 10
9.372657359978495
 20
1.653666385529173
 30
0.23292
 11
9.398792466466511
 21
1.635205787703086
 31
0.23292
 12
9.362103797512036
 22
1.603312206555481
 32
0.23292
 13
9.391718386065877
 23
1.600757524388525
 33
0.23292
  0
SOLID
  5
17E
330
1A
100
AcDbEntity
  8
BORDER
100
AcDbTrace
 10
9.397255107261331
 20
1.681357282268304
 30
0.23292
 11
9.411091340107928
 21
1.660589109713956
 31
0.23292
 12
9.372657359978495
 22
1.653666385529173
 32
0.23292
 13
9.398792466466511
 23
1.635205787703086
 33
0.23292
  0
POLYLINE
  5
17F
330
1A
100
AcDbEntity
  8
BORDER
100
AcDb2dPolyline
 66
     1
 10
0.0
 20
0.0
 30
0.23292
 40
0.00727875
 41
0.00727875
  0
VERTEX
  5
36B4
330
17F
100
AcDbEntity
  8
BORDER
100
AcDbVertex
100
AcDb2dVertex
 10
9.367789887620629
 20
1.637710108459589
 30
0.23292
 42
0.1430540650207981
  0
VERTEX
  5
36B5
330
17F
100
AcDbEntity
  8
BORDER
100
AcDbVertex
100
AcDb2dVertex
 10
9.36748653289195
 20
1.572772042237243
 30
0.23292
 42
0.1430540650207981
  0
SEQEND
  5
36B6
330
17F
100
AcDbEntity
  8
BORDER
  0
SOLID
  5
183
330
1A
100
AcDbEntity
  8
BORDER
100
AcDbTrace
 10
9.479030362664262
 20
1.691193273098749
 30
0.23292
 11
9.469839628285486
 21
1.665135514995804
 31
0.23292
 12
9.445681922224418
 22
1.698279496942217
 32
0.23292
 13
9.444913242621831
 23
1.672126983355261
 33
0.23292
  0
SOLID
  5
184
330
1A
100
AcDbEntity
  8
BORDER
100
AcDbTrace
 10
9.515282703824999
 20
1.662580832828848
 30
0.23292
 11
9.488221097043039
 21
1.649807421994071
 31
0.23292
 12
9.479030362664262
 22
1.691193273098749
 32
0.23292
 13
9.469839628285486
 23
1.665135514995804
 33
0.23292
  0
SOLID
  5
185
330
1A
100
AcDbEntity
  8
BORDER
100
AcDbTrace
 10
9.530600594456293
 20
1.610976253056347
 30
0.23292
 11
9.498943620484945
 21
1.614041871656694
 31
0.23292
 12
9.515282703824999
 22
1.662580832828848
 32
0.23292
 13
9.488221097043039
 23
1.649807421994071
 33
0.23292
  0
POLYLINE
  5
186
330
1A
100
AcDbEntity
  8
BORDER
100
AcDb2dPolyline
 66
     1
 10
0.0
 20
0.0
 30
0.23292
 40
0.00727875
 41
0.00727875
  0
VERTEX
  5
36B7
330
186
100
AcDbEntity
  8
BORDER
100
AcDbVertex
100
AcDb2dVertex
 10
9.52570285664297
 20
1.574438037425561
 30
0.23292
 42
0.1406948172011772
  0
VERTEX
  5
36B8
330
186
100
AcDbEntity
  8
BORDER
100
AcDbVertex
100
AcDb2dVertex
 10
9.524347793036914
 20
1.638634448854635
 30
0.23292
 42
0.1406948172011772
  0
SEQEND
  5
36B9
330
186
100
AcDbEntity
  8
BORDER
  0
POLYLINE
  5
18A
330
1A
100
AcDbEntity
  8
BORDER
100
AcDb2dPolyline
 66
     1
 10
0.0
 20
0.0
 30
0.23292
  0
VERTEX
  5
36BA
330
18A
100
AcDbEntity
  8
BORDER
100
AcDbVertex
100
AcDb2dVertex
 10
10.11168001949472
 20
1.567304797936101
 30
0.23292
  0
VERTEX
  5
36BB
330
18A
100
AcDbEntity
  8
BORDER
100
AcDbVertex
100
AcDb2dVertex
 10
10.14085769973926
 20
1.567304797936101
 30
0.23292
 42
0.3020440864755188
  0
VERTEX
  5
36BC
330
18A
100
AcDbEntity
  8
BORDER
100
AcDbVertex
100
AcDb2dVertex
 10
10.15951731763917
 20
1.539814194144519
 30
0.23292
 42
0.2653699712401423
  0
VERTEX
  5
36BD
330
18A
100
AcDbEntity
  8
BORDER
100
AcDbVertex
100
AcDb2dVertex
 10
10.20954654929427
 20
1.546404713237672
 30
0.23292
 42
0.6356064402471244
  0
VERTEX
  5
36BE
330
18A
100
AcDbEntity
  8
BORDER
100
AcDbVertex
100
AcDb2dVertex
 10
10.20147155985658
 20
1.584041612188609
 30
0.23292
 42
-0.0009437836138568
  0
VERTEX
  5
36BF
330
18A
100
AcDbEntity
  8
BORDER
100
AcDbVertex
100
AcDb2dVertex
 10
10.14182328184016
 20
1.59794230930514
 30
0.23292
 42
-0.3442454331168749
  0
VERTEX
  5
36C0
330
18A
100
AcDbEntity
  8
BORDER
100
AcDbVertex
100
AcDb2dVertex
 10
10.10662589268015
 20
1.641747287338849
 30
0.23292
 42
-0.322222187521162
  0
VERTEX
  5
36C1
330
18A
100
AcDbEntity
  8
BORDER
100
AcDbVertex
100
AcDb2dVertex
 10
10.14272365726811
 20
1.693434875650743
 30
0.23292
 42
-0.1417364340760132
  0
VERTEX
  5
36C2
330
18A
100
AcDbEntity
  8
BORDER
100
AcDbVertex
100
AcDb2dVertex
 10
10.20442611449475
 20
1.696901505294216
 30
0.23292
 42
-0.3337744805077131
  0
VERTEX
  5
36C3
330
18A
100
AcDbEntity
  8
BORDER
100
AcDbVertex
100
AcDb2dVertex
 10
10.24869951408019
 20
1.644447814562008
 30
0.23292
  0
VERTEX
  5
36C4
330
18A
100
AcDbEntity
  8
BORDER
100
AcDbVertex
100
AcDb2dVertex
 10
10.21271744641968
 20
1.644447814562008
 30
0.23292
 42
0.3019792396306431
  0
VERTEX
  5
36C5
330
18A
100
AcDbEntity
  8
BORDER
100
AcDbVertex
100
AcDb2dVertex
 10
10.19552797133469
 20
1.668336199365982
 30
0.23292
 42
0.1972875622237244
  0
VERTEX
  5
36C6
330
18A
100
AcDbEntity
  8
BORDER
100
AcDbVertex
100
AcDb2dVertex
 10
10.15736929664568
 20
1.667226922198509
 30
0.23292
 42
0.728374493267646
  0
VERTEX
  5
36C7
330
18A
100
AcDbEntity
  8
BORDER
100
AcDbVertex
100
AcDb2dVertex
 10
10.16170758319223
 20
1.626787848940005
 30
0.23292
 42
0.0019568917075044
  0
SEQEND
  5
36C8
330
18A
100
AcDbEntity
  8
BORDER
  0
POLYLINE
  5
19A
330
1A
100
AcDbEntity
  8
BORDER
100
AcDb2dPolyline
 66
     1
 10
0.0
 20
0.0
 30
0.23292
  0
VERTEX
  5
36C9
330
19A
100
AcDbEntity
  8
BORDER
100
AcDbVertex
100
AcDb2dVertex
 10
10.16170758319223
 20
1.626787848940005
 30
0.23292
 42
0.0019568917075044
  0
VERTEX
  5
36CA
330
19A
100
AcDbEntity
  8
BORDER
100
AcDbVertex
100
AcDb2dVertex
 10
10.21381724056309
 20
1.616171594371281
 30
0.23292
 42
-0.2136964031287707
  0
VERTEX
  5
36CB
330
19A
100
AcDbEntity
  8
BORDER
100
AcDbVertex
100
AcDb2dVertex
 10
10.24925820477044
 20
1.591400352267789
 30
0.23292
 42
-0.2075585583027768
  0
VERTEX
  5
36CC
330
19A
100
AcDbEntity
  8
BORDER
100
AcDbVertex
100
AcDb2dVertex
 10
10.25415921431792
 20
1.554033388507869
 30
0.23292
 42
-0.2311984101377718
  0
VERTEX
  5
36CD
330
19A
100
AcDbEntity
  8
BORDER
100
AcDbVertex
100
AcDb2dVertex
 10
10.21968651791906
 20
1.515767999385046
 30
0.23292
 42
-0.176335766587305
  0
VERTEX
  5
36CE
330
19A
100
AcDbEntity
  8
BORDER
100
AcDbVertex
100
AcDb2dVertex
 10
10.14773119678748
 20
1.513320770613721
 30
0.23292
 42
-0.2115906095274752
  0
VERTEX
  5
36CF
330
19A
100
AcDbEntity
  8
BORDER
100
AcDbVertex
100
AcDb2dVertex
 10
10.10946972639185
 20
1.547707700178024
 30
0.23292
  0
SEQEND
  5
36D0
330
19A
100
AcDbEntity
  8
BORDER
  0
LINE
  5
1A3
330
1A
100
AcDbEntity
  8
BORDER
100
AcDbLine
 10
9.963014507165921
 20
1.694587377376999
 30
0.23292
 11
9.963014507165921
 21
1.525488445073501
 31
0.23292
  0
POLYLINE
  5
1A4
330
1A
100
AcDbEntity
  8
BORDER
100
AcDb2dPolyline
 66
     1
 10
0.0
 20
0.0
 30
0.23292
  0
VERTEX
  5
36D1
330
1A4
100
AcDbEntity
  8
BORDER
100
AcDbVertex
100
AcDb2dVertex
 10
9.808424325260679
 20
1.543553314876999
 30
0.23292
  0
VERTEX
  5
36D2
330
1A4
100
AcDbEntity
  8
BORDER
100
AcDbVertex
100
AcDb2dVertex
 10
9.86204141744818
 20
1.694587377376999
 30
0.23292
  0
VERTEX
  5
36D3
330
1A4
100
AcDbEntity
  8
BORDER
100
AcDbVertex
100
AcDb2dVertex
 10
9.902984386198179
 20
1.694587377376999
 30
0.23292
  0
VERTEX
  5
36D4
330
1A4
100
AcDbEntity
  8
BORDER
100
AcDbVertex
100
AcDb2dVertex
 10
9.963014507165921
 20
1.5254884450735
 30
0.23292
  0
SEQEND
  5
36D5
330
1A4
100
AcDbEntity
  8
BORDER
  0
LINE
  5
1AA
330
1A
100
AcDbEntity
  8
BORDER
100
AcDbLine
 10
9.680982511198179
 20
1.694587377376999
 30
0.23292
 11
9.680982511198179
 21
1.512618627377
 31
0.23292
  0
LINE
  5
1AB
330
1A
100
AcDbEntity
  8
BORDER
100
AcDbLine
 10
9.71919594869818
 20
1.543553314876999
 30
0.23292
 11
9.71919594869818
 21
1.694587377376999
 31
0.23292
  0
SOLID
  5
1AC
330
1A
100
AcDbEntity
  8
BORDER
100
AcDbTrace
 10
9.639484283044071
 20
1.565556791053879
 30
0.23292
 11
9.669006035897114
 21
1.575896286515048
 31
0.23292
 12
9.631119786402374
 22
1.576881000368493
 32
0.23292
 13
9.650800954971069
 23
1.590666994316717
 33
0.23292
  0
SOLID
  5
1AD
330
1A
100
AcDbEntity
  8
BORDER
100
AcDbTrace
 10
9.638754776988916
 20
1.554694285344187
 30
0.23292
 11
9.673330663821397
 21
1.565159019046526
 31
0.23292
 12
9.639484283044071
 22
1.565556791053879
 32
0.23292
 13
9.669006035897114
 23
1.575896286515048
 33
0.23292
  0
POLYLINE
  5
1AE
330
1A
100
AcDbEntity
  8
BORDER
100
AcDb2dPolyline
 66
     1
 10
0.0
 20
0.0
 30
0.23292
 40
0.00727875
 41
0.00727875
  0
VERTEX
  5
36D6
330
1AE
100
AcDbEntity
  8
BORDER
100
AcDbVertex
100
AcDb2dVertex
 10
9.642380869084329
 20
1.555004940307469
 30
0.23292
 42
0.3893977487990803
  0
VERTEX
  5
36D7
330
1AE
100
AcDbEntity
  8
BORDER
100
AcDbVertex
100
AcDb2dVertex
 10
9.605367954366725
 20
1.588982464208113
 30
0.23292
 42
0.3893977487990803
  0
SEQEND
  5
36D8
330
1AE
100
AcDbEntity
  8
BORDER
  0
POLYLINE
  5
1B2
330
1A
100
AcDbEntity
  8
BORDER
100
AcDb2dPolyline
 66
     1
 10
0.0
 20
0.0
 30
0.23292
 40
0.00727875
 41
0.00727875
  0
VERTEX
  5
36D9
330
1B2
100
AcDbEntity
  8
BORDER
100
AcDbVertex
100
AcDb2dVertex
 10
9.669708827241402
 20
1.564802157478922
 30
0.23292
 42
0.3581345567762107
  0
VERTEX
  5
36DA
330
1B2
100
AcDbEntity
  8
BORDER
100
AcDbVertex
100
AcDb2dVertex
 10
9.638745022926899
 20
1.595727482653228
 30
0.23292
 42
0.3581345567762107
  0
SEQEND
  5
36DB
330
1B2
100
AcDbEntity
  8
BORDER
  0
SOLID
  5
1B6
330
1A
100
AcDbEntity
  8
BORDER
100
AcDbTrace
 10
10.2831165716657
 20
1.559355371926152
 30
0.23292
 11
10.36871280663553
 21
1.6132492976479
 31
0.23292
 12
10.28312295038094
 22
1.542201899703388
 32
0.23292
 13
10.36871467166569
 23
1.595306573926152
 33
0.23292
  0
LINE
  5
1B7
330
1A
100
AcDbEntity
  8
BORDER
100
AcDbLine
 10
9.999408257165923
 20
1.593594721126999
 30
0.23292
 11
9.999408257165923
 21
1.540823783626999
 31
0.23292
  0
ARC
  5
1B8
330
1A
100
AcDbEntity
  8
BORDER
100
AcDbCircle
 10
10.04777284881536
 20
1.568138769150829
 30
0.23292
 40
0.025455951976171
100
AcDbArc
 50
313.2275081247476
 51
90.0
  0
TEXT
  5
1B9
330
1A
100
AcDbEntity
  8
BORDER
100
AcDbText
 10
10.47116872425655
 20
1.507766127377
 30
0.23292
 40
0.0727875
  1
NEWTON NJ
100
AcDbText
  0
SOLID
  5
1BA
330
1A
100
AcDbEntity
  8
BORDER
100
AcDbTrace
 10
10.36871467166569
 20
1.540951780426152
 30
0.23292
 11
10.2831165716657
 21
1.540951780426152
 31
0.23292
 12
10.36871467166569
 22
1.558927381426152
 32
0.23292
 13
10.2831165716657
 23
1.558927381426152
 33
0.23292
  0
SOLID
  5
1BB
330
1A
100
AcDbEntity
  8
BORDER
100
AcDbTrace
 10
10.28311657703478
 20
1.50799651274248
 30
0.23292
 11
10.28311657703478
 21
1.52597211374248
 31
0.23292
 12
10.36871467703478
 22
1.50799651274248
 32
0.23292
 13
10.36871467703478
 23
1.52597211374248
 33
0.23292
  0
POLYLINE
  5
1BC
330
1A
100
AcDbEntity
  8
BORDER
100
AcDb2dPolyline
 66
     1
 10
0.0
 20
0.0
 30
0.23292
  0
VERTEX
  5
36DC
330
1BC
100
AcDbEntity
  8
BORDER
100
AcDbVertex
100
AcDb2dVertex
 10
9.96758329244818
 20
1.512618627376999
 30
0.23292
  0
VERTEX
  5
36DD
330
1BC
100
AcDbEntity
  8
BORDER
100
AcDbVertex
100
AcDb2dVertex
 10
9.929369854948182
 20
1.512618627376999
 30
0.23292
  0
VERTEX
  5
36DE
330
1BC
100
AcDbEntity
  8
BORDER
100
AcDbVertex
100
AcDb2dVertex
 10
9.917317414121894
 20
1.551741908626999
 30
0.23292
  0
SEQEND
  5
36DF
330
1BC
100
AcDbEntity
  8
BORDER
  0
LINE
  5
1C1
330
1A
100
AcDbEntity
  8
BORDER
100
AcDbLine
 10
9.808424325260679
 20
1.543553314876999
 30
0.23292
 11
9.71919594869818
 21
1.543553314876999
 31
0.23292
  0
LINE
  5
1C2
330
1A
100
AcDbEntity
  8
BORDER
100
AcDbLine
 10
9.680982511198179
 20
1.512618627377
 30
0.23292
 11
9.810180323698181
 21
1.512618627377
 31
0.23292
  0
SOLID
  5
1C3
330
1A
100
AcDbEntity
  8
BORDER
100
AcDbTrace
 10
9.642863113032616
 20
1.517678522985564
 30
0.23292
 11
9.676616947103509
 21
1.521226308844847
 31
0.23292
 12
9.641563571503626
 22
1.521908884203857
 32
0.23292
 13
9.677319443762554
 23
1.52467634898087
 33
0.23292
  0
SOLID
  5
1C4
330
1A
100
AcDbEntity
  8
BORDER
100
AcDbTrace
 10
9.638754776988916
 20
1.554694285344187
 30
0.23292
 11
9.641563571503626
 21
1.521908884203857
 31
0.23292
 12
9.673330663821397
 22
1.565159019046526
 32
0.23292
 13
9.677319443762554
 23
1.52467634898087
 33
0.23292
  0
POLYLINE
  5
1C5
330
1A
100
AcDbEntity
  8
BORDER
100
AcDb2dPolyline
 66
     1
 10
0.0
 20
0.0
 30
0.23292
 40
0.00727875
 41
0.00727875
  0
VERTEX
  5
36E0
330
1C5
100
AcDbEntity
  8
BORDER
100
AcDbVertex
100
AcDb2dVertex
 10
9.645189663599042
 20
1.52221953916714
 30
0.23292
 42
0.1148360225250129
  0
VERTEX
  5
36E1
330
1C5
100
AcDbEntity
  8
BORDER
100
AcDbVertex
100
AcDb2dVertex
 10
9.647698161652789
 20
1.514498506973542
 30
0.23292
 42
0.1148360225250129
  0
SEQEND
  5
36E2
330
1C5
100
AcDbEntity
  8
BORDER
  0
SOLID
  5
1C9
330
1A
100
AcDbEntity
  8
BORDER
100
AcDbTrace
 10
9.644581897367922
 20
1.512618627376999
 30
0.23292
 11
9.682098712661003
 21
1.512618627376999
 31
0.23292
 12
9.642863113032616
 22
1.517678522985564
 32
0.23292
 13
9.676616947103509
 23
1.521226308844847
 33
0.23292
  0
POLYLINE
  5
1CA
330
1A
100
AcDbEntity
  8
BORDER
100
AcDb2dPolyline
 66
     1
 10
0.0
 20
0.0
 30
0.23292
 40
0.00727875
 41
0.00727875
  0
VERTEX
  5
36E3
330
1CA
100
AcDbEntity
  8
BORDER
100
AcDbVertex
100
AcDb2dVertex
 10
9.673697607182559
 20
1.524319487413266
 30
0.23292
 42
0.0950669764493849
  0
VERTEX
  5
36E4
330
1CA
100
AcDbEntity
  8
BORDER
100
AcDbVertex
100
AcDb2dVertex
 10
9.676604318320473
 20
1.514499327909478
 30
0.23292
 42
0.1404915454274296
  0
SEQEND
  5
36E5
330
1CA
100
AcDbEntity
  8
BORDER
  0
POLYLINE
  5
1CE
330
1A
100
AcDbEntity
  8
BORDER
100
AcDb2dPolyline
 66
     1
 10
0.0
 20
0.0
 30
0.23292
  0
VERTEX
  5
36E6
330
1CE
100
AcDbEntity
  8
BORDER
100
AcDbVertex
100
AcDb2dVertex
 10
9.917317414121894
 20
1.551741908626999
 30
0.23292
  0
VERTEX
  5
36E7
330
1CE
100
AcDbEntity
  8
BORDER
100
AcDbVertex
100
AcDb2dVertex
 10
9.847708389524461
 20
1.551741908626999
 30
0.23292
  0
VERTEX
  5
36E8
330
1CE
100
AcDbEntity
  8
BORDER
100
AcDbVertex
100
AcDb2dVertex
 10
9.83565594869818
 20
1.512618627376999
 30
0.23292
  0
VERTEX
  5
36E9
330
1CE
100
AcDbEntity
  8
BORDER
100
AcDbVertex
100
AcDb2dVertex
 10
9.797442511198179
 20
1.512618627376999
 30
0.23292
  0
SEQEND
  5
36EA
330
1CE
100
AcDbEntity
  8
BORDER
  0
LINE
  5
1D4
330
1A
100
AcDbEntity
  8
BORDER
100
AcDbLine
 10
9.963014507165921
 20
1.512618627377
 30
0.23292
 11
10.05126935091592
 21
1.512618627377
 31
0.23292
  0
LINE
  5
1D5
330
1A
100
AcDbEntity
  8
BORDER
100
AcDbLine
 10
9.999408257165923
 20
1.540823783626999
 30
0.23292
 11
10.04308075716591
 21
1.540823783626999
 31
0.23292
  0
ARC
  5
1D6
330
1A
100
AcDbEntity
  8
BORDER
100
AcDbCircle
 10
10.06537959819532
 20
1.562603677527734
 30
0.23292
 40
0.0465384738210222
100
AcDbArc
 50
297.4526478761237
 51
341.3323115150402
  0
ARC
  5
1D7
330
1A
100
AcDbEntity
  8
BORDER
100
AcDbCircle
 10
10.05126935091593
 20
1.589763991413031
 30
0.23292
 40
0.077145364036032
100
AcDbArc
 50
269.9999999999952
 51
297.4526478761186
  0
ARC
  5
1D8
330
1A
100
AcDbEntity
  8
BORDER
100
AcDbCircle
 10
10.04308075716591
 20
1.573130534452434
 30
0.23292
 40
0.0323067508254348
100
AcDbArc
 50
270.0
 51
313.2275081247473
  0
TEXT
  5
1D9
330
1A
100
AcDbEntity
  8
BORDER
100
AcDbText
 10
10.47116872425655
 20
1.629078627377
 30
0.23292
 40
0.0727875
  1
PO BOX 366
100
AcDbText
  0
SOLID
  5
1DA
330
1A
100
AcDbEntity
  8
BORDER
100
AcDbTrace
 10
10.32846293341717
 20
1.63776377506151
 30
0.23292
 11
10.32940419153514
 21
1.623183984996875
 31
0.23292
 12
10.35122898157961
 22
1.645004362791319
 32
0.23292
 13
10.35764193507421
 23
1.634438692866748
 33
0.23292
  0
POLYLINE
  5
1DB
330
1A
100
AcDbEntity
  8
BORDER
100
AcDb2dPolyline
 66
     1
 10
0.0
 20
0.0
 30
0.23292
 40
0.003423924
 41
0.003423924
  0
VERTEX
  5
36EB
330
1DB
100
AcDbEntity
  8
BORDER
100
AcDbVertex
100
AcDb2dVertex
 10
10.30730792852299
 20
1.62714063258554
 30
0.23292
 42
0.2706611322925477
  0
VERTEX
  5
36EC
330
1DB
100
AcDbEntity
  8
BORDER
100
AcDbVertex
100
AcDb2dVertex
 10
10.355921385404
 20
1.634716335776515
 30
0.23292
 42
0.2706611322925477
  0
SEQEND
  5
36ED
330
1DB
100
AcDbEntity
  8
BORDER
  0
POLYLINE
  5
1DF
330
1A
100
AcDbEntity
  8
BORDER
100
AcDb2dPolyline
 66
     1
 10
0.0
 20
0.0
 30
0.23292
 40
0.003423924
 41
0.003423924
  0
VERTEX
  5
36EE
330
1DF
100
AcDbEntity
  8
BORDER
100
AcDbVertex
100
AcDb2dVertex
 10
10.30921660813503
 20
1.683359936195762
 30
0.23292
 42
0.3426274439635524
  0
VERTEX
  5
36EF
330
1DF
100
AcDbEntity
  8
BORDER
100
AcDbVertex
100
AcDb2dVertex
 10
10.29270799830878
 20
1.665804904833641
 30
0.23292
 42
0.2942809489964497
  0
VERTEX
  5
36F0
330
1DF
100
AcDbEntity
  8
BORDER
100
AcDbVertex
100
AcDb2dVertex
 10
10.30447183892257
 20
1.643092294320815
 30
0.23292
 42
0.2735375373643303
  0
VERTEX
  5
36F1
330
1DF
100
AcDbEntity
  8
BORDER
100
AcDbVertex
100
AcDb2dVertex
 10
10.34728648890412
 20
1.6436711034951
 30
0.23292
 42
0.208169861593478
  0
VERTEX
  5
36F2
330
1DF
100
AcDbEntity
  8
BORDER
100
AcDbVertex
100
AcDb2dVertex
 10
10.35816840810036
 20
1.659148648767027
 30
0.23292
 42
0.4189849082168211
  0
VERTEX
  5
36F3
330
1DF
100
AcDbEntity
  8
BORDER
100
AcDbVertex
100
AcDb2dVertex
 10
10.3413912253114
 20
1.684139921413978
 30
0.23292
 42
0.4189849082168211
  0
SEQEND
  5
36F4
330
1DF
100
AcDbEntity
  8
BORDER
  0
SOLID
  5
1E7
330
1A
100
AcDbEntity
  8
BORDER
100
AcDbTrace
 10
10.2831165716657
 20
1.613710165426152
 30
0.23292
 11
10.36871467166569
 21
1.613710165426152
 31
0.23292
 12
10.2831165716657
 22
1.595734564426152
 32
0.23292
 13
10.36871467166569
 23
1.595734564426152
 33
0.23292
  0
SOLID
  5
1E8
330
1A
100
AcDbEntity
  8
BORDER
100
AcDbTrace
 10
9.635563981562411
 20
1.612130937424133
 30
0.23292
 11
9.649470688391525
 21
1.605647495636065
 31
0.23292
 12
9.616429435817449
 22
1.612773969591263
 32
0.23292
 13
9.639097380516426
 23
1.599349760185352
 33
0.23292
  0
SOLID
  5
1E9
330
1A
100
AcDbEntity
  8
BORDER
100
AcDbTrace
 10
9.632046797965395
 20
1.668856604230452
 30
0.23292
 11
9.644856196204125
 21
1.689591490745921
 31
0.23292
 12
9.616429435817449
 22
1.666846103113329
 32
0.23292
 13
9.633194085913112
 23
1.694587377376999
 33
0.23292
  0
SOLID
  5
1EA
330
1A
100
AcDbEntity
  8
BORDER
100
AcDbTrace
 10
9.644479449197104
 20
1.655661676447882
 30
0.23292
 11
9.672735474723717
 21
1.670364595977032
 31
0.23292
 12
9.632046797965395
 22
1.668856604230452
 32
0.23292
 13
9.644856196204125
 23
1.689591490745921
 33
0.23292
  0
SOLID
  5
1EB
330
1A
100
AcDbEntity
  8
BORDER
100
AcDbTrace
 10
9.635563981562411
 20
1.612130937424133
 30
0.23292
 11
9.649470688391525
 21
1.605647495636065
 31
0.23292
 12
9.64824691926732
 22
1.640581758982087
 32
0.23292
 13
9.676502944793933
 23
1.63153380850261
 33
0.23292
  0
SOLID
  5
1EC
330
1A
100
AcDbEntity
  8
BORDER
100
AcDbTrace
 10
9.631119786402374
 20
1.576881000368493
 30
0.23292
 11
9.650800954971069
 21
1.590666994316717
 31
0.23292
 12
9.621245592338928
 22
1.586708291434854
 32
0.23292
 13
9.639097380516426
 23
1.599349760185352
 33
0.23292
  0
POLYLINE
  5
1ED
330
1A
100
AcDbEntity
  8
BORDER
100
AcDb2dPolyline
 66
     1
 10
0.0
 20
0.0
 30
0.23292
 40
0.00727875
 41
0.00727875
  0
VERTEX
  5
36F5
330
1ED
100
AcDbEntity
  8
BORDER
100
AcDbVertex
100
AcDb2dVertex
 10
9.616429435817449
 20
1.609134594591263
 30
0.23292
 42
1.0
  0
VERTEX
  5
36F6
330
1ED
100
AcDbEntity
  8
BORDER
100
AcDbVertex
100
AcDb2dVertex
 10
9.616429435817449
 20
1.67048547811333
 30
0.23292
 42
1.0
  0
SEQEND
  5
36F7
330
1ED
100
AcDbEntity
  8
BORDER
  0
POLYLINE
  5
1F1
330
1A
100
AcDbEntity
  8
BORDER
100
AcDb2dPolyline
 66
     1
 10
0.0
 20
0.0
 30
0.23292
 40
0.00727875
 41
0.00727875
  0
VERTEX
  5
36F8
330
1F1
100
AcDbEntity
  8
BORDER
100
AcDbVertex
100
AcDb2dVertex
 10
9.638647934721481
 20
1.602961276330689
 30
0.23292
 42
0.9399343180161681
  0
VERTEX
  5
36F9
330
1F1
100
AcDbEntity
  8
BORDER
100
AcDbVertex
100
AcDb2dVertex
 10
9.633194085913112
 20
1.690948002377
 30
0.23292
 42
0.9399343180161681
  0
SEQEND
  5
36FA
330
1F1
100
AcDbEntity
  8
BORDER
  0
SOLID
  5
1F5
330
1A
100
AcDbEntity
  8
BORDER
100
AcDbTrace
 10
9.621245592338928
 20
1.586708291434854
 30
0.23292
 11
9.639097380516426
 21
1.599349760185352
 31
0.23292
 12
9.605367954366725
 22
1.585343089208113
 32
0.23292
 13
9.616429435817449
 23
1.612773969591263
 33
0.23292
  0
SOLID
  5
1F6
330
1A
100
AcDbEntity
  8
BORDER
100
AcDbTrace
 10
9.569925144340301
 20
1.612773969591263
 30
0.23292
 11
9.569925144340301
 21
1.585343089208113
 31
0.23292
 12
9.616429435817449
 22
1.612773969591263
 32
0.23292
 13
9.605367954366725
 23
1.585343089208113
 33
0.23292
  0
SOLID
  5
1F7
330
1A
100
AcDbEntity
  8
BORDER
100
AcDbTrace
 10
9.569925144340301
 20
1.666846103113329
 30
0.23292
 11
9.569925144340301
 21
1.690622699047484
 31
0.23292
 12
9.616429435817449
 22
1.666846103113329
 32
0.23292
 13
9.633194085913112
 23
1.694587377376999
 33
0.23292
  0
LINE
  5
1F8
330
1A
100
AcDbEntity
  8
BORDER
100
AcDbLine
 10
9.71919594869818
 20
1.694587377376999
 30
0.23292
 11
9.680982511198179
 21
1.694587377376999
 31
0.23292
  0
SOLID
  5
1F9
330
1A
100
AcDbEntity
  8
BORDER
100
AcDbTrace
 10
9.64824691926732
 20
1.640581758982087
 30
0.23292
 11
9.676502944793933
 21
1.63153380850261
 31
0.23292
 12
9.644479449197104
 22
1.655661676447882
 32
0.23292
 13
9.672735474723717
 23
1.670364595977032
 33
0.23292
  0
LINE
  5
1FA
330
1A
100
AcDbEntity
  8
BORDER
100
AcDbLine
 10
9.882512901823181
 20
1.66472041174168
 30
0.23292
 11
9.856117069170709
 21
1.579037221126999
 31
0.23292
  0
LINE
  5
1FB
330
1A
100
AcDbEntity
  8
BORDER
100
AcDbLine
 10
9.856117069170709
 20
1.579037221126999
 30
0.23292
 11
9.908908734475653
 21
1.579037221126999
 31
0.23292
  0
LINE
  5
1FC
330
1A
100
AcDbEntity
  8
BORDER
100
AcDbLine
 10
9.908908734475653
 20
1.579037221126999
 30
0.23292
 11
9.882512901823181
 21
1.66472041174168
 31
0.23292
  0
LINE
  5
1FD
330
1A
100
AcDbEntity
  8
BORDER
100
AcDbLine
 10
10.04803068354796
 20
1.694587377376999
 30
0.23292
 11
9.963014507165921
 21
1.694587377376999
 31
0.23292
  0
LINE
  5
1FE
330
1A
100
AcDbEntity
  8
BORDER
100
AcDbLine
 10
10.04542171032591
 20
1.667292064876999
 30
0.23292
 11
9.999408257165923
 21
1.667292064876999
 31
0.23292
  0
LINE
  5
1FF
330
1A
100
AcDbEntity
  8
BORDER
100
AcDbLine
 10
9.999408257165923
 20
1.621799877376999
 30
0.23292
 11
10.04542171224326
 21
1.621799877376999
 31
0.23292
  0
ARC
  5
200
330
1A
100
AcDbEntity
  8
BORDER
100
AcDbCircle
 10
10.04542171224326
 20
1.644545971126999
 30
0.23292
 40
0.02274609375
100
AcDbArc
 50
270.0
 51
90.00000482967505
  0
LINE
  5
201
330
1A
100
AcDbEntity
  8
BORDER
100
AcDbLine
 10
10.04777284881536
 20
1.593594721126999
 30
0.23292
 11
9.999408257165923
 21
1.593594721126999
 31
0.23292
  0
LINE
  5
202
330
1A
100
AcDbEntity
  8
BORDER
100
AcDbLine
 10
9.999408257165923
 20
1.667292064876999
 30
0.23292
 11
9.999408257165923
 21
1.621799877376999
 31
0.23292
  0
ARC
  5
203
330
1A
100
AcDbEntity
  8
BORDER
100
AcDbCircle
 10
10.06537959819532
 20
1.562603677527734
 30
0.23292
 40
0.0465384738210222
100
AcDbArc
 50
5.797666812800194
 51
41.82143111053831
  0
ARC
  5
204
330
1A
100
AcDbEntity
  8
BORDER
100
AcDbCircle
 10
10.06564325032123
 20
1.648691017232375
 30
0.23292
 40
0.0409573319972303
100
AcDbArc
 50
358.6532608214001
 51
58.67020583628288
  0
ARC
  5
205
330
1A
100
AcDbEntity
  8
BORDER
100
AcDbCircle
 10
10.07186366730278
 20
1.648544779194484
 30
0.23292
 40
0.0347351962716
100
AcDbArc
 50
313.1575629115595
 51
358.653260821401
  0
ARC
  5
206
330
1A
100
AcDbEntity
  8
BORDER
100
AcDbCircle
 10
10.04490044466592
 20
1.677300346127003
 30
0.23292
 40
0.0741547092642271
100
AcDbArc
 50
295.3783953421117
 51
313.157562911559
  0
ARC
  5
207
330
1A
100
AcDbEntity
  8
BORDER
100
AcDbCircle
 10
10.05138073223445
 20
1.550077821550028
 30
0.23292
 40
0.06532318345851
100
AcDbArc
 50
41.8214311105379
 51
67.21116987831337
  0
ARC
  5
208
330
1A
100
AcDbEntity
  8
BORDER
100
AcDbCircle
 10
10.04803068354797
 20
1.619757338300741
 30
0.23292
 40
0.0748300390762589
100
AcDbArc
 50
58.67020583628413
 51
90.00000000000101
  0
SOLID
  5
209
330
1A
100
AcDbEntity
  8
BORDER
100
AcDbTrace
 10
10.30713280993739
 20
1.68274214926715
 30
0.23292
 11
10.30601949388388
 21
1.697559625815669
 31
0.23292
 12
10.30948246462571
 22
1.681668743061965
 32
0.23292
 13
10.30948246462571
 23
1.698414656901373
 33
0.23292
  0
SOLID
  5
20A
330
1A
100
AcDbEntity
  8
BORDER
100
AcDbTrace
 10
10.303519593291
 20
1.681816689127772
 30
0.23292
 11
10.29489139387628
 21
1.691223005298504
 31
0.23292
 12
10.30713280993739
 22
1.68274214926715
 32
0.23292
 13
10.30601949388388
 23
1.697559625815669
 33
0.23292
  0
POLYLINE
  5
20B
330
1A
100
AcDbEntity
  8
BORDER
100
AcDb2dPolyline
 66
     1
 10
0.0
 20
0.0
 30
0.23292
 40
0.003423924
 41
0.003423924
  0
VERTEX
  5
36FB
330
20B
100
AcDbEntity
  8
BORDER
100
AcDbVertex
100
AcDb2dVertex
 10
10.3091662271699
 20
1.696644517820149
 30
0.23292
 42
0.2841209316902218
  0
VERTEX
  5
36FC
330
20B
100
AcDbEntity
  8
BORDER
100
AcDbVertex
100
AcDb2dVertex
 10
10.28443829516057
 20
1.675959376766888
 30
0.23292
 42
0.2888447634665965
  0
SEQEND
  5
36FD
330
20B
100
AcDbEntity
  8
BORDER
  0
SOLID
  5
20F
330
1A
100
AcDbEntity
  8
BORDER
100
AcDbTrace
 10
10.31089278188175
 20
1.63917472248712
 30
0.23292
 11
10.30210770611404
 21
1.628671002763135
 31
0.23292
 12
10.32846293341717
 22
1.63776377506151
 32
0.23292
 13
10.32940419153514
 23
1.623183984996875
 33
0.23292
  0
SOLID
  5
210
330
1A
100
AcDbEntity
  8
BORDER
100
AcDbTrace
 10
10.29457764117029
 20
1.652186793189966
 30
0.23292
 11
10.28422380187263
 21
1.647953950913136
 31
0.23292
 12
10.31089278188175
 22
1.63917472248712
 32
0.23292
 13
10.30210770611404
 23
1.628671002763135
 33
0.23292
  0
SOLID
  5
211
330
1A
100
AcDbEntity
  8
BORDER
100
AcDbTrace
 10
10.29285200128735
 20
1.670372337786714
 30
0.23292
 11
10.28296879104867
 21
1.674448408127365
 31
0.23292
 12
10.29457764117029
 22
1.652186793189966
 32
0.23292
 13
10.28422380187263
 23
1.647953950913136
 33
0.23292
  0
SOLID
  5
212
330
1A
100
AcDbEntity
  8
BORDER
100
AcDbTrace
 10
10.303519593291
 20
1.681816689127772
 30
0.23292
 11
10.29489139387628
 21
1.691223005298504
 31
0.23292
 12
10.29285200128735
 22
1.670372337786714
 32
0.23292
 13
10.28296879104867
 23
1.674448408127365
 33
0.23292
  0
POLYLINE
  5
213
330
1A
100
AcDbEntity
  8
BORDER
100
AcDb2dPolyline
 66
     1
 10
0.0
 20
0.0
 30
0.23292
 40
0.003423924
 41
0.003423924
  0
VERTEX
  5
36FE
330
213
100
AcDbEntity
  8
BORDER
100
AcDbVertex
100
AcDb2dVertex
 10
10.28443829516057
 20
1.675959376766888
 30
0.23292
 42
0.3986208060685013
  0
VERTEX
  5
36FF
330
213
100
AcDbEntity
  8
BORDER
100
AcDbVertex
100
AcDb2dVertex
 10
10.30730792852299
 20
1.62714063258554
 30
0.23292
 42
0.3986208060685013
  0
SEQEND
  5
3700
330
213
100
AcDbEntity
  8
BORDER
  0
SOLID
  5
217
330
1A
100
AcDbEntity
  8
BORDER
100
AcDbTrace
 10
10.34342638155978
 20
1.683032972569047
 30
0.23292
 11
10.34524668631071
 21
1.698752272534449
 31
0.23292
 12
10.34107455189346
 22
1.682457502965489
 32
0.23292
 13
10.34107455189346
 23
1.699771227813754
 33
0.23292
  0
POLYLINE
  5
218
330
1A
100
AcDbEntity
  8
BORDER
100
AcDb2dPolyline
 66
     1
 10
0.0
 20
0.0
 30
0.23292
 40
0.003423924
 41
0.003423924
  0
VERTEX
  5
3701
330
218
100
AcDbEntity
  8
BORDER
100
AcDbVertex
100
AcDb2dVertex
 10
10.36555909867967
 20
1.680218539873607
 30
0.23292
 42
0.2619660936757589
  0
VERTEX
  5
3702
330
218
100
AcDbEntity
  8
BORDER
100
AcDbVertex
100
AcDb2dVertex
 10
10.34131102131013
 20
1.698021046372441
 30
0.23292
 42
0.2656465770789468
  0
SEQEND
  5
3703
330
218
100
AcDbEntity
  8
BORDER
  0
SOLID
  5
21C
330
1A
100
AcDbEntity
  8
BORDER
100
AcDbTrace
 10
10.35417547372578
 20
1.676701372565032
 30
0.23292
 11
10.3647481808385
 21
1.683802888415973
 31
0.23292
 12
10.34342638155978
 22
1.683032972569047
 32
0.23292
 13
10.34524668631071
 23
1.698752272534449
 33
0.23292
  0
SOLID
  5
21D
330
1A
100
AcDbEntity
  8
BORDER
100
AcDbTrace
 10
10.35868187347875
 20
1.661805510048423
 30
0.23292
 11
10.36977454979374
 21
1.656262863530616
 31
0.23292
 12
10.35417547372578
 22
1.676701372565032
 32
0.23292
 13
10.3647481808385
 23
1.683802888415973
 33
0.23292
  0
SOLID
  5
21E
330
1A
100
AcDbEntity
  8
BORDER
100
AcDbTrace
 10
10.35122898157961
 20
1.645004362791319
 30
0.23292
 11
10.35764193507421
 21
1.634438692866748
 31
0.23292
 12
10.35868187347875
 22
1.661805510048423
 32
0.23292
 13
10.36977454979374
 23
1.656262863530616
 33
0.23292
  0
POLYLINE
  5
21F
330
1A
100
AcDbEntity
  8
BORDER
100
AcDb2dPolyline
 66
     1
 10
0.0
 20
0.0
 30
0.23292
 40
0.003423924
 41
0.003423924
  0
VERTEX
  5
3704
330
21F
100
AcDbEntity
  8
BORDER
100
AcDbVertex
100
AcDb2dVertex
 10
10.36854182856266
 20
1.656093988051443
 30
0.23292
 42
0.1521907920671271
  0
VERTEX
  5
3705
330
21F
100
AcDbEntity
  8
BORDER
100
AcDbVertex
100
AcDb2dVertex
 10
10.36555909867967
 20
1.680218539873607
 30
0.23292
 42
0.1521907920671271
  0
SEQEND
  5
3706
330
21F
100
AcDbEntity
  8
BORDER
  0
POLYLINE
  5
223
330
1A
100
AcDbEntity
  8
BORDER
100
AcDb2dPolyline
 66
     1
 10
0.0
 20
0.0
 30
0.23292
 40
0.003423924
 41
0.003423924
  0
VERTEX
  5
3707
330
223
100
AcDbEntity
  8
BORDER
100
AcDbVertex
100
AcDb2dVertex
 10
10.355921385404
 20
1.634716335776515
 30
0.23292
 42
0.1790006504245718
  0
VERTEX
  5
3708
330
223
100
AcDbEntity
  8
BORDER
100
AcDbVertex
100
AcDb2dVertex
 10
10.36854182856266
 20
1.656093988051443
 30
0.23292
 42
0.1790006504245718
  0
SEQEND
  5
3709
330
223
100
AcDbEntity
  8
BORDER
  0
POLYLINE
  5
331F
330
1A
100
AcDbEntity
  8
BORDER
100
AcDb2dPolyline
 66
     1
 10
0.0
 20
0.0
 30
0.0
 40
0.03
 41
0.03
  0
VERTEX
  5
370A
330
331F
100
AcDbEntity
  8
BORDER
100
AcDbVertex
100
AcDb2dVertex
 10
0.2661750000000005
 20
0.2823500000000001
 30
0.0
  0
VERTEX
  5
370B
330
331F
100
AcDbEntity
  8
BORDER
100
AcDbVertex
100
AcDb2dVertex
 10
11.266175
 20
0.2823500000000001
 30
0.0
  0
VERTEX
  5
370C
330
331F
100
AcDbEntity
  8
BORDER
100
AcDbVertex
100
AcDb2dVertex
 10
11.266175
 20
8.78235
 30
0.0
  0
SEQEND
  5
370D
330
331F
100
AcDbEntity
  8
BORDER
  0
POLYLINE
  5
3320
330
1A
100
AcDbEntity
  8
BORDER
100
AcDb2dPolyline
 66
     1
 10
0.0
 20
0.0
 30
0.0
 70
     1
 40
0.03
 41
0.03
  0
VERTEX
  5
370E
330
3320
100
AcDbEntity
  8
BORDER
100
AcDbVertex
100
AcDb2dVertex
 10
11.266175
 20
8.78235
 30
0.0
  0
VERTEX
  5
370F
330
3320
100
AcDbEntity
  8
BORDER
100
AcDbVertex
100
AcDb2dVertex
 10
0.2661750000000005
 20
8.78235
 30
0.0
  0
SEQEND
  5
3710
330
3320
100
AcDbEntity
  8
BORDER
  0
POLYLINE
  5
3321
330
1A
100
AcDbEntity
  8
BORDER
100
AcDb2dPolyline
 66
     1
 10
0.0
 20
0.0
 30
0.0
 40
0.03
 41
0.03
  0
VERTEX
  5
3711
330
3321
100
AcDbEntity
  8
BORDER
100
AcDbVertex
100
AcDb2dVertex
 10
0.2661750000000005
 20
8.78235
 30
0.0
  0
VERTEX
  5
3712
330
3321
100
AcDbEntity
  8
BORDER
100
AcDbVertex
100
AcDb2dVertex
 10
0.2661750000000005
 20
0.2823500000000001
 30
0.0
  0
SEQEND
  5
3713
330
3321
100
AcDbEntity
  8
BORDER
  0
LINE
  5
3451
330
1A
100
AcDbEntity
  8
BORDER
100
AcDbLine
 10
10.52239107287599
 20
0.6832137948435509
 30
0.11646
 11
10.52239107287599
 21
0.4891137948435511
 31
0.11646
  0
LINE
  5
3452
330
1A
100
AcDbEntity
  8
BORDER
100
AcDbLine
 39
0.0075
 10
8.990688857891404
 20
1.181237550649399
 30
0.11646
 11
11.2551888578914
 21
1.181237550649399
 31
0.11646
  0
POLYLINE
  5
3455
330
1A
100
AcDbEntity
  8
BORDER
100
AcDb2dPolyline
 66
     1
 10
0.0
 20
0.0
 30
0.11646
 39
0.0075
 40
0.01
 41
0.01
  0
VERTEX
  5
3716
330
3455
100
AcDbEntity
  8
BORDER
100
AcDbVertex
100
AcDb2dVertex
 10
8.990688857891404
 20
1.291237550649399
 30
0.11646
  0
VERTEX
  5
3717
330
3455
100
AcDbEntity
  8
BORDER
100
AcDbVertex
100
AcDb2dVertex
 10
11.2551888578914
 20
1.291237550649399
 30
0.11646
  0
SEQEND
  5
3718
330
3455
100
AcDbEntity
  8
BORDER
  0
POLYLINE
  5
3456
330
1A
100
AcDbEntity
  8
BORDER
100
AcDb2dPolyline
 66
     1
 10
0.0
 20
0.0
 30
0.11646
 39
0.0075
 40
0.01
 41
0.01
  0
VERTEX
  5
3719
330
3456
100
AcDbEntity
  8
BORDER
100
AcDbVertex
100
AcDb2dVertex
 10
11.2551888578914
 20
1.181237550649399
 30
0.11646
  0
VERTEX
  5
371A
330
3456
100
AcDbEntity
  8
BORDER
100
AcDbVertex
100
AcDb2dVertex
 10
8.990688857891404
 20
1.181237550649399
 30
0.11646
  0
SEQEND
  5
371B
330
3456
100
AcDbEntity
  8
BORDER
  0
POLYLINE
  5
3457
330
1A
100
AcDbEntity
  8
BORDER
100
AcDb2dPolyline
 66
     1
 10
0.0
 20
0.0
 30
0.11646
 39
0.0075
 40
0.01
 41
0.01
  0
VERTEX
  5
371C
330
3457
100
AcDbEntity
  8
BORDER
100
AcDbVertex
100
AcDb2dVertex
 10
8.990688857891404
 20
1.071413794843551
 30
0.11646
  0
VERTEX
  5
371D
330
3457
100
AcDbEntity
  8
BORDER
100
AcDbVertex
100
AcDb2dVertex
 10
11.2551888578914
 20
1.071413794843551
 30
0.11646
  0
SEQEND
  5
371E
330
3457
100
AcDbEntity
  8
BORDER
  0
POLYLINE
  5
3458
330
1A
100
AcDbEntity
  8
BORDER
100
AcDb2dPolyline
 66
     1
 10
0.0
 20
0.0
 30
0.0
 39
0.0075
 40
0.01
 41
0.01
  0
VERTEX
  5
371F
330
3458
100
AcDbEntity
  8
BORDER
100
AcDbVertex
100
AcDb2dVertex
 10
10.26191636097285
 20
1.071413794843551
 30
0.0
  0
VERTEX
  5
3720
330
3458
100
AcDbEntity
  8
BORDER
100
AcDbVertex
100
AcDb2dVertex
 10
10.26191636097285
 20
0.8773137948435504
 30
0.0
  0
SEQEND
  5
3721
330
3458
100
AcDbEntity
  8
BORDER
  0
POLYLINE
  5
3459
330
1A
100
AcDbEntity
  8
BORDER
100
AcDb2dPolyline
 66
     1
 10
0.0
 20
0.0
 30
0.0
 39
0.0075
 40
0.01
 41
0.01
  0
VERTEX
  5
3722
330
3459
100
AcDbEntity
  8
BORDER
100
AcDbVertex
100
AcDb2dVertex
 10
9.702916360972857
 20
1.071413794843551
 30
0.0
  0
VERTEX
  5
3723
330
3459
100
AcDbEntity
  8
BORDER
100
AcDbVertex
100
AcDb2dVertex
 10
9.702916360972857
 20
0.8773137948435504
 30
0.0
  0
SEQEND
  5
3724
330
3459
100
AcDbEntity
  8
BORDER
  0
POLYLINE
  5
345A
330
1A
100
AcDbEntity
  8
BORDER
100
AcDb2dPolyline
 66
     1
 10
0.0
 20
0.0
 30
0.11646
 39
0.0075
 40
0.01
 41
0.01
  0
VERTEX
  5
3725
330
345A
100
AcDbEntity
  8
BORDER
100
AcDbVertex
100
AcDb2dVertex
 10
8.990688857891404
 20
0.8773137948435504
 30
0.11646
  0
VERTEX
  5
3726
330
345A
100
AcDbEntity
  8
BORDER
100
AcDbVertex
100
AcDb2dVertex
 10
11.26920067485122
 20
0.8773137948435504
 30
0.11646
  0
SEQEND
  5
3727
330
345A
100
AcDbEntity
  8
BORDER
  0
POLYLINE
  5
345B
330
1A
100
AcDbEntity
  8
BORDER
100
AcDb2dPolyline
 66
     1
 10
0.0
 20
0.0
 30
0.11646
 39
0.0075
 40
0.01
 41
0.01
  0
VERTEX
  5
3728
330
345B
100
AcDbEntity
  8
BORDER
100
AcDbVertex
100
AcDb2dVertex
 10
11.26920067485122
 20
0.6832137948435509
 30
0.11646
  0
VERTEX
  5
3729
330
345B
100
AcDbEntity
  8
BORDER
100
AcDbVertex
100
AcDb2dVertex
 10
8.990688857891404
 20
0.6832137948435509
 30
0.11646
  0
SEQEND
  5
372A
330
345B
100
AcDbEntity
  8
BORDER
  0
POLYLINE
  5
345C
330
1A
100
AcDbEntity
  8
BORDER
100
AcDb2dPolyline
 66
     1
 10
0.0
 20
0.0
 30
0.11646
 39
0.0075
 40
0.01
 41
0.01
  0
VERTEX
  5
372B
330
345C
100
AcDbEntity
  8
BORDER
100
AcDbVertex
100
AcDb2dVertex
 10
11.266175
 20
0.4891137948435511
 30
0.11646
  0
VERTEX
  5
372C
330
345C
100
AcDbEntity
  8
BORDER
100
AcDbVertex
100
AcDb2dVertex
 10
8.990688857891404
 20
0.4891137948435511
 30
0.11646
  0
SEQEND
  5
372D
330
345C
100
AcDbEntity
  8
BORDER
  0
POLYLINE
  5
345D
330
1A
100
AcDbEntity
  8
BORDER
100
AcDb2dPolyline
 66
     1
 10
0.0
 20
0.0
 30
0.0
 39
0.0075
 40
0.01
 41
0.01
  0
VERTEX
  5
372E
330
345D
100
AcDbEntity
  8
BORDER
100
AcDbVertex
100
AcDb2dVertex
 10
9.537916360972856
 20
0.6832137948435509
 30
0.0
  0
VERTEX
  5
372F
330
345D
100
AcDbEntity
  8
BORDER
100
AcDbVertex
100
AcDb2dVertex
 10
9.537916360972856
 20
0.4891137948435511
 30
0.0
  0
SEQEND
  5
3730
330
345D
100
AcDbEntity
  8
BORDER
  0
POLYLINE
  5
345E
330
1A
100
AcDbEntity
  8
BORDER
100
AcDb2dPolyline
 66
     1
 10
0.0
 20
0.0
 30
0.0
 39
0.0075
 40
0.01
 41
0.01
  0
VERTEX
  5
3731
330
345E
100
AcDbEntity
  8
BORDER
100
AcDbVertex
100
AcDb2dVertex
 10
9.726547376952984
 20
0.6832137948435509
 30
0.0
  0
VERTEX
  5
3732
330
345E
100
AcDbEntity
  8
BORDER
100
AcDbVertex
100
AcDb2dVertex
 10
9.726547376952984
 20
0.4891137948435511
 30
0.0
  0
SEQEND
  5
3733
330
345E
100
AcDbEntity
  8
BORDER
  0
POLYLINE
  5
345F
330
1A
100
AcDbEntity
  8
BORDER
100
AcDb2dPolyline
 66
     1
 10
0.0
 20
0.0
 30
0.11646
 39
0.0075
 40
0.01
 41
0.01
  0
VERTEX
  5
3734
330
345F
100
AcDbEntity
  8
BORDER
100
AcDbVertex
100
AcDb2dVertex
 10
9.945831594939301
 20
0.6832137948435509
 30
0.11646
  0
VERTEX
  5
3735
330
345F
100
AcDbEntity
  8
BORDER
100
AcDbVertex
100
AcDb2dVertex
 10
9.945831594939301
 20
0.2823500000000001
 30
0.11646
  0
SEQEND
  5
3736
330
345F
100
AcDbEntity
  8
BORDER
  0
POLYLINE
  5
3460
330
1A
100
AcDbEntity
  8
BORDER
100
AcDb2dPolyline
 66
     1
 10
0.0
 20
0.0
 30
0.11646
 39
0.0075
 40
0.01
 41
0.01
  0
VERTEX
  5
3737
330
3460
100
AcDbEntity
  8
BORDER
100
AcDbVertex
100
AcDb2dVertex
 10
10.52239107287599
 20
0.6832137948435509
 30
0.11646
  0
VERTEX
  5
3738
330
3460
100
AcDbEntity
  8
BORDER
100
AcDbVertex
100
AcDb2dVertex
 10
10.52239107287599
 20
0.4891137948435511
 30
0.11646
  0
SEQEND
  5
3739
330
3460
100
AcDbEntity
  8
BORDER
  0
TEXT
  5
3461
330
1A
100
AcDbEntity
  8
BORDER
100
AcDbText
 10
10.5491840702082
 20
0.6154438782988123
 30
0.11646
 40
0.04
  1
DRAWING SCALE
100
AcDbText
  0
TEXT
  5
3462
330
1A
100
AcDbEntity
  8
D1
100
AcDbText
 10
10.68674121443013
 20
0.5335396653691502
 30
0.0
 40
0.06
  1
1" = 1"
100
AcDbText
  0
TEXT
  5
34D2
330
1A
100
AcDbEntity
  8
D1
100
AcDbText
 10
0.3711750000000009
 20
0.4986981735174219
 30
0.0
 40
0.08
  1

100
AcDbText
  0
LINE
  5
3528
330
1A
100
AcDbEntity
  8
S1
  6
CONTINUOUS
100
AcDbLine
 10
6.901479594168739
 20
4.315284657268279
 30
0.0
 11
6.901479594168739
 21
4.157284657268277
 31
0.0
  0
LINE
  5
3529
330
1A
100
AcDbEntity
  8
S1
  6
CONTINUOUS
100
AcDbLine
 10
7.176729594168739
 20
4.315284657268279
 30
0.0
 11
7.176729594168739
 21
4.157284657268277
 31
0.0
  0
LINE
  5
352B
330
1A
100
AcDbEntity
  8
S1
  6
CONTINUOUS
100
AcDbLine
 10
7.098104594168738
 20
4.413284657268278
 30
0.0
 11
7.098104594168738
 21
4.059034657268277
 31
0.0
  0
LINE
  5
352C
330
1A
100
AcDbEntity
  8
S1
  6
CONTINUOUS
100
AcDbLine
 10
6.980104594168738
 20
4.413284657268278
 30
0.0
 11
6.980104594168738
 21
4.059034657268277
 31
0.0
  0
LINE
  5
3530
330
1A
100
AcDbEntity
  8
S1
  6
CONTINUOUS
100
AcDbLine
 10
7.176729594168739
 20
4.629784657268277
 30
0.0
 11
7.098104594168738
 21
4.551159657268279
 31
0.0
  0
LINE
  5
3531
330
1A
100
AcDbEntity
  8
S1
  6
CONTINUOUS
100
AcDbLine
 10
6.901729594168738
 20
4.629784657268277
 30
0.0
 11
6.980104594168738
 21
4.55140965726828
 31
0.0
  0
LINE
  5
3532
330
1A
100
AcDbEntity
  8
S1
  6
CONTINUOUS
100
AcDbLine
 10
7.196729594168738
 20
4.629784657268277
 30
0.0
 11
7.196729594168738
 21
4.315284657268279
 31
0.0
  0
LINE
  5
3533
330
1A
100
AcDbEntity
  8
S1
  6
CONTINUOUS
100
AcDbLine
 10
6.881729594168739
 20
4.629784657268277
 30
0.0
 11
6.881729594168739
 21
4.315284657268279
 31
0.0
  0
LINE
  5
3534
330
1A
100
AcDbEntity
  8
S1
  6
CONTINUOUS
100
AcDbLine
 10
6.881729594168739
 20
4.629784657268277
 30
0.0
 11
6.901729594168738
 21
4.629784657268277
 31
0.0
  0
LINE
  5
3535
330
1A
100
AcDbEntity
  8
S1
  6
CONTINUOUS
100
AcDbLine
 10
7.196729594168738
 20
4.629784657268277
 30
0.0
 11
7.176729594168737
 21
4.629784657268277
 31
0.0
  0
ARC
  5
3536
330
1A
100
AcDbEntity
  8
S1
  6
CONTINUOUS
100
AcDbCircle
 10
7.039104594168739
 20
4.413284657268278
 30
0.0
 40
0.0590000000000011
100
AcDbArc
 50
0.0
 51
180.0
  0
LINE
  5
3537
330
1A
100
AcDbEntity
  8
S1
  6
CONTINUOUS
100
AcDbLine
 10
7.098104594168738
 20
4.551159657268279
 30
0.0
 11
6.980104594168738
 21
4.551159657268279
 31
0.0
  0
LINE
  5
3538
330
1A
100
AcDbEntity
  8
S1
  6
CONTINUOUS
100
AcDbLine
 10
6.881479594168737
 20
4.315284657268279
 30
0.0
 11
6.901479594168739
 21
4.315284657268279
 31
0.0
  0
LINE
  5
3539
330
1A
100
AcDbEntity
  8
S1
  6
CONTINUOUS
100
AcDbLine
 10
7.196729594168738
 20
4.315284657268279
 30
0.0
 11
7.176729594168739
 21
4.315284657268279
 31
0.0
  0
LINE
  5
3541
330
1A
100
AcDbEntity
  8
S1
  6
CONTINUOUS
100
AcDbLine
 10
6.881729594168739
 20
4.157284657268276
 30
0.0
 11
6.881729594168739
 21
3.842784657268278
 31
0.0
  0
LINE
  5
3542
330
1A
100
AcDbEntity
  8
S1
  6
CONTINUOUS
100
AcDbLine
 10
7.196729594168738
 20
4.157284657268276
 30
0.0
 11
7.196729594168738
 21
3.842784657268278
 31
0.0
  0
ARC
  5
3543
330
1A
100
AcDbEntity
  8
S1
  6
CONTINUOUS
100
AcDbCircle
 10
7.039104594168739
 20
4.059034657268277
 30
0.0
 40
0.0590000000000011
100
AcDbArc
 50
180.0
 51
0.0
  0
LINE
  5
3544
330
1A
100
AcDbEntity
  8
S1
  6
CONTINUOUS
100
AcDbLine
 10
6.881479594168737
 20
4.157284657268277
 30
0.0
 11
6.901479594168739
 21
4.157284657268277
 31
0.0
  0
LINE
  5
3545
330
1A
100
AcDbEntity
  8
S1
  6
CONTINUOUS
100
AcDbLine
 10
7.196729594168738
 20
4.157284657268277
 30
0.0
 11
7.176729594168739
 21
4.157284657268277
 31
0.0
  0
LINE
  5
3546
330
1A
100
AcDbEntity
  8
S1
  6
CONTINUOUS
100
AcDbLine
 10
7.098104594168738
 20
3.921409657268275
 30
0.0
 11
6.980104594168738
 21
3.921159657268278
 31
0.0
  0
LINE
  5
3547
330
1A
100
AcDbEntity
  8
S1
  6
CONTINUOUS
100
AcDbLine
 10
6.881729594168739
 20
3.842784657268278
 30
0.0
 11
6.901729594168738
 21
3.842784657268278
 31
0.0
  0
LINE
  5
3548
330
1A
100
AcDbEntity
  8
S1
  6
CONTINUOUS
100
AcDbLine
 10
6.901729594168738
 20
3.842784657268278
 30
0.0
 11
6.980104594168738
 21
3.921159657268278
 31
0.0
  0
LINE
  5
3549
330
1A
100
AcDbEntity
  8
S1
  6
CONTINUOUS
100
AcDbLine
 10
7.196729594168738
 20
3.842784657268278
 30
0.0
 11
7.176729594168737
 21
3.842784657268278
 31
0.0
  0
LINE
  5
354A
330
1A
100
AcDbEntity
  8
S1
  6
CONTINUOUS
100
AcDbLine
 10
7.176729594168739
 20
3.842784657268278
 30
0.0
 11
7.098104594168738
 21
3.921409657268275
 31
0.0
  0
LINE
  5
361C
330
1A
100
AcDbEntity
  8
S1
100
AcDbLine
 10
5.394122089955795
 20
4.629784657268277
 30
0.0
 11
3.425647089955794
 21
4.629784657268277
 31
0.0
  0
LINE
  5
361D
330
1A
100
AcDbEntity
  8
S1
100
AcDbLine
 10
5.394122089955795
 20
4.315284657268278
 30
0.0
 11
3.425647089955795
 21
4.315284657268279
 31
0.0
  0
LINE
  5
361E
330
1A
100
AcDbEntity
  8
S1
100
AcDbLine
 10
5.394122089955795
 20
4.157284657268277
 30
0.0
 11
3.425647089955795
 21
4.157284657268277
 31
0.0
  0
LINE
  5
361F
330
1A
100
AcDbEntity
  8
S1
100
AcDbLine
 10
5.394122089955795
 20
3.842784657268278
 30
0.0
 11
3.425647089955795
 21
3.842784657268278
 31
0.0
  0
LINE
  5
3620
330
1A
100
AcDbEntity
  8
S1
100
AcDbLine
 10
3.425647089955795
 20
4.629784657268277
 30
0.0
 11
3.425647089955795
 21
3.842784657268278
 31
0.0
  0
LINE
  5
3621
330
1A
100
AcDbEntity
  8
S1
100
AcDbLine
 10
5.394122089955795
 20
4.629784657268277
 30
0.0
 11
5.394122089955795
 21
3.842784657268278
 31
0.0
  0
TEXT
  5
3651
330
1A
100
AcDbEntity
  8
D1
100
AcDbText
 10
10.50901104424412
 20
0.9066535306636914
 30
0.0
 40
0.06
  1
JCM
100
AcDbText
  0
INSERT
  5
3666
330
1A
100
AcDbEntity
  8
D1
100
AcDbBlockReference
  2
COPYWRITE
 10
0.1458030128576198
 20
4.39093094470969
 30
0.0
 41
0.5
 42
0.5
  0
INSERT
  5
366D
330
1A
100
AcDbEntity
  8
D1
100
AcDbBlockReference
  2
ESD-INFO
 10
5.302543462379844
 20
0.4794450392094447
 30
0.0
 41
0.5
 42
0.5
  0
LINE
  5
366E
330
1A
100
AcDbEntity
  8
D1
100
AcDbLine
 10
3.425647089955794
 20
4.669784657268277
 30
0.0
 11
3.425647089955794
 21
5.012155771930019
 31
0.0
  0
LINE
  5
366F
330
1A
100
AcDbEntity
  8
D1
100
AcDbLine
 10
5.394122089955795
 20
4.669784657268277
 30
0.0
 11
5.394122089955795
 21
5.012155771930019
 31
0.0
  0
LINE
  5
3670
330
1A
100
AcDbEntity
  8
D1
100
AcDbLine
 10
3.605647089955795
 20
4.972155771930019
 30
0.0
 11
4.133946732978991
 21
4.972155771930019
 31
0.0
  0
LINE
  5
3671
330
1A
100
AcDbEntity
  8
D1
100
AcDbLine
 10
5.214122089955795
 20
4.972155771930019
 30
0.0
 11
4.630364855819337
 21
4.972155771930019
 31
0.0
  0
SOLID
  5
3672
330
1A
100
AcDbEntity
  8
D1
100
AcDbTrace
 10
3.605647089955795
 20
5.002155771930019
 30
0.0
 11
3.605647089955795
 21
4.942155771930019
 31
0.0
 12
3.425647089955794
 22
4.972155771930019
 32
0.0
 13
3.425647089955794
 23
4.972155771930019
 33
0.0
  0
SOLID
  5
3673
330
1A
100
AcDbEntity
  8
D1
100
AcDbTrace
 10
5.214122089955795
 20
5.002155771930019
 30
0.0
 11
5.214122089955795
 21
4.942155771930019
 31
0.0
 12
5.394122089955795
 22
4.972155771930019
 32
0.0
 13
5.394122089955795
 23
4.972155771930019
 33
0.0
  0
MTEXT
  5
3674
330
1A
100
AcDbEntity
  8
D1
100
AcDbMText
 10
4.374959045080146
 20
4.972155771930019
 30
0.0
 40
0.08
 41
0.0
 71
     5
 72
     1
  1
19.69"\P(500mm)
1001
ACAD
1000
MTEXTBEGIN
1070
    73
1070
     1
1070
    44
1040
1.0
1070
    74
1070
     0
1000
MTEXTEND
  0
LINE
  5
367C
330
1A
100
AcDbEntity
  8
D1
100
AcDbLine
 10
7.236729594168738
 20
4.629784657268277
 30
0.0
 11
7.66514956254163
 21
4.629784657268277
 31
0.0
  0
LINE
  5
367D
330
1A
100
AcDbEntity
  8
D1
100
AcDbLine
 10
7.236729594168738
 20
3.842784657268278
 30
0.0
 11
7.66514956254163
 21
3.842784657268278
 31
0.0
  0
LINE
  5
367E
330
1A
100
AcDbEntity
  8
D1
100
AcDbLine
 10
7.62514956254163
 20
4.449784657268277
 30
0.0
 11
7.62514956254163
 21
4.387250481301343
 31
0.0
  0
LINE
  5
367F
330
1A
100
AcDbEntity
  8
D1
100
AcDbLine
 10
7.62514956254163
 20
4.022784657268278
 30
0.0
 11
7.625149562541631
 21
4.109528656661819
 31
0.0
  0
SOLID
  5
3680
330
1A
100
AcDbEntity
  8
D1
100
AcDbTrace
 10
7.59514956254163
 20
4.449784657268277
 30
0.0
 11
7.65514956254163
 21
4.449784657268277
 31
0.0
 12
7.62514956254163
 22
4.629784657268277
 32
0.0
 13
7.62514956254163
 23
4.629784657268277
 33
0.0
  0
SOLID
  5
3681
330
1A
100
AcDbEntity
  8
D1
100
AcDbTrace
 10
7.59514956254163
 20
4.022784657268278
 30
0.0
 11
7.65514956254163
 21
4.022784657268278
 31
0.0
 12
7.62514956254163
 22
3.842784657268278
 32
0.0
 13
7.62514956254163
 23
3.842784657268278
 33
0.0
  0
MTEXT
  5
3682
330
1A
100
AcDbEntity
  8
D1
100
AcDbMText
 10
7.625149562541629
 20
4.246878406610427
 30
0.0
 40
0.08
 41
0.0
 71
     5
 72
     1
  1
0.79"\P(20mm)
1001
ACAD
1000
MTEXTBEGIN
1070
    73
1070
     1
1070
    44
1040
1.0
1070
    74
1070
     0
1000
MTEXTEND
  0
LINE
  5
3683
330
1A
100
AcDbEntity
  8
D1
100
AcDbLine
 10
6.881729594168739
 20
4.669784657268277
 30
0.0
 11
6.881729594168739
 21
5.042563160008797
 31
0.0
  0
LINE
  5
3684
330
1A
100
AcDbEntity
  8
D1
100
AcDbLine
 10
7.196729594168738
 20
4.669784657268277
 30
0.0
 11
7.196729594168738
 21
5.042563160008797
 31
0.0
  0
LINE
  5
3685
330
1A
100
AcDbEntity
  8
D1
100
AcDbLine
 10
6.701729594168739
 20
5.002563160008797
 30
0.0
 11
6.521729594168738
 21
5.002563160008797
 31
0.0
  0
LINE
  5
3686
330
1A
100
AcDbEntity
  8
D1
100
AcDbLine
 10
7.376729594168738
 20
5.002563160008797
 30
0.0
 11
7.556729594168738
 21
5.002563160008797
 31
0.0
  0
SOLID
  5
3687
330
1A
100
AcDbEntity
  8
D1
100
AcDbTrace
 10
6.701729594168739
 20
5.032563160008797
 30
0.0
 11
6.701729594168739
 21
4.972563160008797
 31
0.0
 12
6.881729594168739
 22
5.002563160008797
 32
0.0
 13
6.881729594168739
 23
5.002563160008797
 33
0.0
  0
SOLID
  5
3688
330
1A
100
AcDbEntity
  8
D1
100
AcDbTrace
 10
7.376729594168738
 20
5.032563160008797
 30
0.0
 11
7.376729594168738
 21
4.972563160008797
 31
0.0
 12
7.196729594168738
 22
5.002563160008797
 32
0.0
 13
7.196729594168738
 23
5.002563160008797
 33
0.0
  0
MTEXT
  5
3689
330
1A
100
AcDbEntity
  8
D1
100
AcDbMText
 10
7.753152374410378
 20
5.002563160008797
 30
0.0
 40
0.08
 41
0.0
 71
     5
 72
     1
  1
0.32"\P(8mm)
1001
ACAD
1000
MTEXTBEGIN
1070
    73
1070
     1
1070
    44
1040
1.0
1070
    74
1070
     0
1000
MTEXTEND
  0
VIEWPORT
  5
31FC
330
17
100
AcDbEntity
 67
     1
  8
0
100
AcDbViewport
 10
8.157142857142856
 20
5.0971307120085
 30
0.0
 40
16.31428571428571
 41
10.194261424017
 68
     1
 69
     1
1001
ACAD
1000
MVIEW
1002
{
1070
    16
1010
0.0
1020
0.0
1030
0.0
1010
0.0
1020
0.0
1030
1.0
1040
0.0
1040
10.194261424017
1040
8.157142857142856
1040
5.0971307120085
1040
50.0
1040
0.0
1040
0.0
1070
     0
1070
   100
1070
     1
1070
     1
1070
     0
1070
     0
1070
     0
1070
     0
1040
0.0
1040
0.0
1040
0.0
1040
0.005
1040
0.005
1040
1.0
1040
1.0
1070
     0
1002
{
1002
}
1002
}
  0
ENDSEC
  0
SECTION
  2
OBJECTS
  0
DICTIONARY
  5
C
330
0
100
AcDbDictionary
  3
ACAD_GROUP
350
D
  3
ACAD_LAYOUT
350
34CB
  3
ACAD_MLINESTYLE
350
E
  3
ACAD_PLOTSETTINGS
350
34CC
  3
CONTENTDICTIONARY
350
3316
1001
ACAD
1000
TREAT_AS_HARD
1070
     0
  0
DICTIONARY
  5
36A4
330
1A
100
AcDbDictionary
  3
ACAD_LAYOUTSELFREF
350
36A5
  0
DICTIONARY
  5
36A2
330
17
100
AcDbDictionary
  3
ACAD_LAYOUTSELFREF
350
36A3
  0
DICTIONARY
  5
D
102
{ACAD_REACTORS
330
C
102
}
330
C
100
AcDbDictionary
1001
ACAD
1000
TREAT_AS_HARD
1070
     0
  0
DICTIONARY
  5
34CB
102
{ACAD_REACTORS
330
C
102
}
330
C
100
AcDbDictionary
1001
ACAD
1000
TREAT_AS_HARD
1070
     0
  0
DICTIONARY
  5
E
102
{ACAD_REACTORS
330
C
102
}
330
C
100
AcDbDictionary
  3
STANDARD
350
13
1001
ACAD
1000
TREAT_AS_HARD
1070
     0
  0
DICTIONARY
  5
34CC
102
{ACAD_REACTORS
330
C
102
}
330
C
100
AcDbDictionary
1001
ACAD
1000
TREAT_AS_HARD
1070
     0
  0
DICTIONARY
  5
3316
102
{ACAD_REACTORS
330
C
102
}
330
C
100
AcDbDictionary
1001
CONTENTTABDATA
1070
     7
1000
English Fasteners
1000
C:\Program Files\AutoCAD LT 97\Symbols\eengfast.dwg
1070
     0
1070
     0
1070
     1
1000
Metric Fasteners
1000
C:\Program Files\AutoCAD LT 97\Symbols\emetfast.dwg
1070
     0
1070
     0
1070
     1
1000
Welding
1000
C:\Program Files\AutoCAD LT 97\Symbols\ewelding.dwg
1070
     0
1070
     0
1070
     1
1000
Hyd-Pneu
1000
C:\Program Files\AutoCAD LT 97\Symbols\ehydpneu.dwg
1070
     0
1070
     0
1070
     1
1000
Pipe Fittings
1000
C:\Program Files\AutoCAD LT 97\Symbols\epipefit.dwg
1070
     0
1070
     0
1070
     1
1000
Plant Process
1000
C:\Program Files\AutoCAD LT 97\Symbols\eplntprc.dwg
1070
     0
1070
     0
1070
     1
1000
BLOCKS
1000
C:\BLOCKS
1070
     1
1070
     0
1070
     1
1001
CONTENTCURRENTTAB
1070
     7
1001
ACAD
1000
TREAT_AS_HARD
1070
     0
  0
XRECORD
  5
36A5
102
{ACAD_REACTORS
330
36A4
102
}
330
36A4
100
AcDbXrecord
340
1A
  0
XRECORD
  5
36A3
102
{ACAD_REACTORS
330
36A2
102
}
330
36A2
100
AcDbXrecord
340
17
  0
MLINESTYLE
  5
13
102
{ACAD_REACTORS
330
E
102
}
330
E
100
AcDbMlineStyle
  2
STANDARD
 70
     0
  3

 62
     0
 51
90.0
 52
90.0
 71
     2
 49
0.5
 62
   256
  6
BYLAYER
 49
-0.5
 62
   256
  6
BYLAYER
  0
ENDSEC
  0
EOF
